%TF.GenerationSoftware,KiCad,Pcbnew,9.0.1*%
%TF.CreationDate,2025-06-09T14:32:14-07:00*%
%TF.ProjectId,chop-controller-heat-v2,63686f70-2d63-46f6-9e74-726f6c6c6572,rev?*%
%TF.SameCoordinates,Original*%
%TF.FileFunction,Copper,L2,Inr*%
%TF.FilePolarity,Positive*%
%FSLAX46Y46*%
G04 Gerber Fmt 4.6, Leading zero omitted, Abs format (unit mm)*
G04 Created by KiCad (PCBNEW 9.0.1) date 2025-06-09 14:32:14*
%MOMM*%
%LPD*%
G01*
G04 APERTURE LIST*
G04 Aperture macros list*
%AMRoundRect*
0 Rectangle with rounded corners*
0 $1 Rounding radius*
0 $2 $3 $4 $5 $6 $7 $8 $9 X,Y pos of 4 corners*
0 Add a 4 corners polygon primitive as box body*
4,1,4,$2,$3,$4,$5,$6,$7,$8,$9,$2,$3,0*
0 Add four circle primitives for the rounded corners*
1,1,$1+$1,$2,$3*
1,1,$1+$1,$4,$5*
1,1,$1+$1,$6,$7*
1,1,$1+$1,$8,$9*
0 Add four rect primitives between the rounded corners*
20,1,$1+$1,$2,$3,$4,$5,0*
20,1,$1+$1,$4,$5,$6,$7,0*
20,1,$1+$1,$6,$7,$8,$9,0*
20,1,$1+$1,$8,$9,$2,$3,0*%
G04 Aperture macros list end*
%TA.AperFunction,ComponentPad*%
%ADD10C,1.740000*%
%TD*%
%TA.AperFunction,ComponentPad*%
%ADD11RoundRect,0.250560X0.619440X0.619440X-0.619440X0.619440X-0.619440X-0.619440X0.619440X-0.619440X0*%
%TD*%
%TA.AperFunction,ComponentPad*%
%ADD12RoundRect,0.250560X-0.619440X-0.619440X0.619440X-0.619440X0.619440X0.619440X-0.619440X0.619440X0*%
%TD*%
%TA.AperFunction,ComponentPad*%
%ADD13C,1.500000*%
%TD*%
%TA.AperFunction,ComponentPad*%
%ADD14RoundRect,0.250001X0.499999X-0.499999X0.499999X0.499999X-0.499999X0.499999X-0.499999X-0.499999X0*%
%TD*%
%TA.AperFunction,ComponentPad*%
%ADD15RoundRect,0.250001X-0.499999X0.499999X-0.499999X-0.499999X0.499999X-0.499999X0.499999X0.499999X0*%
%TD*%
%TA.AperFunction,ComponentPad*%
%ADD16R,1.500000X1.050000*%
%TD*%
%TA.AperFunction,ComponentPad*%
%ADD17O,1.500000X1.050000*%
%TD*%
%TA.AperFunction,ComponentPad*%
%ADD18C,1.440000*%
%TD*%
%TA.AperFunction,ComponentPad*%
%ADD19C,3.000000*%
%TD*%
%TA.AperFunction,ComponentPad*%
%ADD20C,2.500000*%
%TD*%
%TA.AperFunction,ViaPad*%
%ADD21C,0.800000*%
%TD*%
G04 APERTURE END LIST*
D10*
%TO.N,/TC1+*%
%TO.C,J1*%
X134797638Y-62933323D03*
%TO.N,/TC1-*%
X137337638Y-62933323D03*
%TO.N,/MOSFET_HL1*%
X139907638Y-62933323D03*
D11*
%TO.N,/SAFETY_12V*%
X142447638Y-62933323D03*
%TD*%
D10*
%TO.N,/TC2+*%
%TO.C,J2*%
X157683638Y-62933323D03*
%TO.N,/TC2-*%
X155143638Y-62933323D03*
%TO.N,/MOSFET_HL2*%
X152573638Y-62933323D03*
D12*
%TO.N,/SAFETY_12V*%
X150033638Y-62933323D03*
%TD*%
D10*
%TO.N,/TC3+*%
%TO.C,J3*%
X165480888Y-62984073D03*
%TO.N,/TC3-*%
X168020888Y-62984073D03*
%TO.N,/MOSFET_HL3*%
X170590888Y-62984073D03*
D11*
%TO.N,+24V*%
X173130888Y-62984073D03*
%TD*%
D10*
%TO.N,/uPC_RTD++*%
%TO.C,J9*%
X146320400Y-109099000D03*
%TO.N,/uPC_RTD+*%
X148860400Y-109099000D03*
%TO.N,/uPC_RTD-*%
X151370400Y-109099000D03*
%TO.N,/uPC_RTD--*%
X153910400Y-109099000D03*
%TO.N,/MOSFET_uPC*%
X156480400Y-109099000D03*
D11*
%TO.N,+24V*%
X159020400Y-109099000D03*
%TD*%
D13*
%TO.N,/MISO_1*%
%TO.C,J11*%
X98046800Y-62012800D03*
%TO.N,/MOSI_1*%
X98046800Y-65012800D03*
%TO.N,/HL1_PWM_IN*%
X98046800Y-68012800D03*
%TO.N,/HL2_CS*%
X98046800Y-71012800D03*
%TO.N,/HL3_PWM_IN*%
X98046800Y-74012800D03*
%TO.N,/uPC_RTD_CS*%
X98046800Y-77012800D03*
%TO.N,/SAFETY_CS*%
X98046800Y-80012800D03*
%TO.N,/SCK_1*%
X95046800Y-62012800D03*
%TO.N,/HL1_CS*%
X95046800Y-65012800D03*
%TO.N,/HL2_PWM_IN*%
X95046800Y-68012800D03*
%TO.N,/HL3_CS*%
X95046800Y-71012800D03*
%TO.N,/uPC_PWM_IN*%
X95046800Y-74012800D03*
%TO.N,/uPC_RTD_DRDY*%
X95046800Y-77012800D03*
D14*
%TO.N,unconnected-(J11-Pin_1-Pad1)*%
X95046800Y-80012800D03*
%TD*%
D13*
%TO.N,GNDREF*%
%TO.C,J12*%
X189804000Y-92300000D03*
%TO.N,+3.3V*%
X189804000Y-89300000D03*
%TO.N,+12V*%
X189804000Y-86300000D03*
%TO.N,+24V*%
X189804000Y-83300000D03*
%TO.N,GNDREF*%
X192804000Y-92300000D03*
%TO.N,+3.3V*%
X192804000Y-89300000D03*
%TO.N,+12V*%
X192804000Y-86300000D03*
D15*
%TO.N,+24V*%
X192804000Y-83300000D03*
%TD*%
D10*
%TO.N,/Safet Cutoff/TC_SAFETY+*%
%TO.C,J13*%
X110235638Y-62609323D03*
D12*
%TO.N,/Safet Cutoff/TC_SAFETY-*%
X107695638Y-62609323D03*
%TD*%
D16*
%TO.N,Net-(U18-VO)*%
%TO.C,U18*%
X111082638Y-84823323D03*
D17*
%TO.N,GNDREF*%
X111082638Y-86093323D03*
%TO.N,+3.3V*%
X111082638Y-87363323D03*
%TD*%
D18*
%TO.N,Net-(U23-G1)*%
%TO.C,RV1*%
X121602638Y-77594323D03*
%TO.N,Net-(U19-+)*%
X121602638Y-75054323D03*
%TO.N,Net-(R52-Pad1)*%
X121602638Y-72514323D03*
%TD*%
%TO.N,+3.3V*%
%TO.C,RV2*%
X120322638Y-88887323D03*
%TO.N,/Safet Cutoff/V_CUTOFF*%
X122862638Y-88887323D03*
%TO.N,GNDREF*%
X125402638Y-88887323D03*
%TD*%
D19*
%TO.N,/SAFETY_12V*%
%TO.C,K1*%
X122618638Y-67923323D03*
D20*
%TO.N,Net-(D1-A)*%
X128668638Y-65973323D03*
D19*
%TO.N,Net-(K1-Pad3)*%
X128668638Y-53773323D03*
%TO.N,+12V*%
X116618638Y-53723323D03*
D20*
X116668638Y-65973323D03*
%TD*%
D21*
%TO.N,GNDREF*%
X163258638Y-70853323D03*
X117030638Y-71615323D03*
X152162400Y-106386000D03*
X167068638Y-79235323D03*
X140500238Y-72478923D03*
X145050400Y-105370000D03*
X178498638Y-73901323D03*
X142510400Y-106894000D03*
X161306400Y-99274000D03*
X125158638Y-71107323D03*
X170523038Y-72428123D03*
X138366638Y-79743323D03*
X105346638Y-66281323D03*
X160290400Y-93432000D03*
X148272638Y-72631323D03*
X130746638Y-70091323D03*
%TO.N,+3.3V*%
X113271438Y-74663323D03*
X145456800Y-89876000D03*
X131457838Y-73952123D03*
X152060800Y-101763200D03*
X164325438Y-65062123D03*
%TO.N,/HL1_PWM_IN*%
X130746638Y-80759323D03*
%TO.N,/HL2_PWM_IN*%
X130746638Y-81758826D03*
%TO.N,/HL3_PWM_IN*%
X130746638Y-84823323D03*
%TO.N,/HL3_CS*%
X130746638Y-83807323D03*
%TO.N,/HL2_CS*%
X130746638Y-82791323D03*
%TO.N,/HL1_CS*%
X130746638Y-79489323D03*
%TO.N,/MOSI_1*%
X143018400Y-98067500D03*
%TO.N,/MISO_1*%
X151320638Y-76441323D03*
X141748400Y-96226000D03*
X136461638Y-74282323D03*
X164020638Y-77457323D03*
%TO.N,/SCK_1*%
X153860638Y-65532000D03*
X132778638Y-72123323D03*
X162496638Y-72377323D03*
X144288400Y-99782000D03*
%TD*%
%TA.AperFunction,Conductor*%
%TO.N,+3.3V*%
G36*
X118754605Y-49435508D02*
G01*
X118800360Y-49488312D01*
X118811566Y-49539541D01*
X118820922Y-53656012D01*
X118820966Y-53675329D01*
X118841800Y-62841897D01*
X118841800Y-62841898D01*
X118841853Y-62865247D01*
X118848641Y-65851990D01*
X118848641Y-65851991D01*
X118848694Y-65875341D01*
X118849878Y-66396313D01*
X118853052Y-67792922D01*
X118853096Y-67812251D01*
X118856819Y-69450331D01*
X118858458Y-70171494D01*
X118858458Y-70171499D01*
X118865514Y-70236089D01*
X118865516Y-70236104D01*
X118876715Y-70287295D01*
X118876723Y-70287329D01*
X118887603Y-70325181D01*
X118944280Y-70422091D01*
X118944282Y-70422094D01*
X118990038Y-70474899D01*
X118990048Y-70474910D01*
X119034764Y-70517071D01*
X119034766Y-70517072D01*
X119034770Y-70517076D01*
X119134846Y-70567962D01*
X119201885Y-70587647D01*
X119287957Y-70600023D01*
X124424974Y-70600023D01*
X124492013Y-70619708D01*
X124537768Y-70672512D01*
X124547712Y-70741670D01*
X124539535Y-70771476D01*
X124537863Y-70775511D01*
X124537863Y-70775512D01*
X124531107Y-70791823D01*
X124485058Y-70902994D01*
X124485056Y-70903000D01*
X124458138Y-71038327D01*
X124458138Y-71038330D01*
X124458138Y-71176316D01*
X124458138Y-71176318D01*
X124458137Y-71176318D01*
X124485056Y-71311645D01*
X124485059Y-71311655D01*
X124537859Y-71439127D01*
X124537866Y-71439140D01*
X124614523Y-71553864D01*
X124614526Y-71553868D01*
X124712092Y-71651434D01*
X124712096Y-71651437D01*
X124826820Y-71728094D01*
X124826833Y-71728101D01*
X124948323Y-71778423D01*
X124954310Y-71780903D01*
X124954314Y-71780903D01*
X124954315Y-71780904D01*
X125089642Y-71807823D01*
X125089645Y-71807823D01*
X125227633Y-71807823D01*
X125318679Y-71789712D01*
X125362966Y-71780903D01*
X125490449Y-71728098D01*
X125605180Y-71651437D01*
X125702752Y-71553865D01*
X125779413Y-71439134D01*
X125832218Y-71311651D01*
X125857384Y-71185134D01*
X125859138Y-71176318D01*
X125859138Y-71038327D01*
X125836062Y-70922318D01*
X162558137Y-70922318D01*
X162585056Y-71057645D01*
X162585059Y-71057655D01*
X162637859Y-71185127D01*
X162637866Y-71185140D01*
X162714523Y-71299864D01*
X162714526Y-71299868D01*
X162812092Y-71397434D01*
X162812096Y-71397437D01*
X162926820Y-71474094D01*
X162926833Y-71474101D01*
X163014463Y-71510398D01*
X163054310Y-71526903D01*
X163054314Y-71526903D01*
X163054315Y-71526904D01*
X163189642Y-71553823D01*
X163189645Y-71553823D01*
X163327633Y-71553823D01*
X163432123Y-71533038D01*
X163462966Y-71526903D01*
X163590449Y-71474098D01*
X163705180Y-71397437D01*
X163802752Y-71299865D01*
X163879413Y-71185134D01*
X163932218Y-71057651D01*
X163941027Y-71013364D01*
X163959138Y-70922318D01*
X163959138Y-70784327D01*
X163932219Y-70649000D01*
X163932218Y-70648999D01*
X163932218Y-70648995D01*
X163904564Y-70582231D01*
X163879416Y-70521518D01*
X163879409Y-70521505D01*
X163802752Y-70406781D01*
X163802749Y-70406777D01*
X163705183Y-70309211D01*
X163705179Y-70309208D01*
X163590455Y-70232551D01*
X163590442Y-70232544D01*
X163462970Y-70179744D01*
X163462960Y-70179741D01*
X163327633Y-70152823D01*
X163327631Y-70152823D01*
X163189645Y-70152823D01*
X163189643Y-70152823D01*
X163054315Y-70179741D01*
X163054305Y-70179744D01*
X162926833Y-70232544D01*
X162926820Y-70232551D01*
X162812096Y-70309208D01*
X162812092Y-70309211D01*
X162714526Y-70406777D01*
X162714523Y-70406781D01*
X162637866Y-70521505D01*
X162637859Y-70521518D01*
X162585059Y-70648990D01*
X162585056Y-70649000D01*
X162558138Y-70784327D01*
X162558138Y-70784330D01*
X162558138Y-70922316D01*
X162558138Y-70922318D01*
X162558137Y-70922318D01*
X125836062Y-70922318D01*
X125832219Y-70903000D01*
X125832218Y-70902999D01*
X125832218Y-70902995D01*
X125779413Y-70775512D01*
X125779412Y-70775511D01*
X125777741Y-70771476D01*
X125770272Y-70702006D01*
X125801547Y-70639527D01*
X125861636Y-70603875D01*
X125892302Y-70600023D01*
X129922538Y-70600023D01*
X129922543Y-70600023D01*
X130002039Y-70589499D01*
X130064351Y-70572706D01*
X130070276Y-70570524D01*
X130110120Y-70555849D01*
X130115673Y-70553804D01*
X130115673Y-70553803D01*
X130116351Y-70553554D01*
X130186062Y-70548855D01*
X130246889Y-70582231D01*
X130300092Y-70635434D01*
X130300096Y-70635437D01*
X130414820Y-70712094D01*
X130414833Y-70712101D01*
X130486220Y-70741670D01*
X130542310Y-70764903D01*
X130542314Y-70764903D01*
X130542315Y-70764904D01*
X130677642Y-70791823D01*
X130677645Y-70791823D01*
X130815633Y-70791823D01*
X130906679Y-70773712D01*
X130950966Y-70764903D01*
X131078449Y-70712098D01*
X131193180Y-70635437D01*
X131254008Y-70574608D01*
X131258463Y-70570916D01*
X131285445Y-70559299D01*
X131311239Y-70545215D01*
X131317173Y-70545639D01*
X131322638Y-70543287D01*
X131351624Y-70548103D01*
X131380931Y-70550199D01*
X131391094Y-70554661D01*
X131391563Y-70554739D01*
X131391837Y-70554987D01*
X131393797Y-70555848D01*
X131417622Y-70567962D01*
X131484661Y-70587647D01*
X131570733Y-70600023D01*
X131570736Y-70600023D01*
X153228352Y-70600023D01*
X153228356Y-70600023D01*
X153293634Y-70592967D01*
X153345402Y-70581644D01*
X153383924Y-70570525D01*
X153480708Y-70513626D01*
X153533408Y-70467751D01*
X153575486Y-70422920D01*
X153626144Y-70322727D01*
X153645676Y-70255643D01*
X153657855Y-70169545D01*
X153657518Y-70021631D01*
X153655279Y-69036145D01*
X153655279Y-69036144D01*
X153649184Y-66355535D01*
X153668716Y-66288455D01*
X153721416Y-66242580D01*
X153785449Y-66233224D01*
X153785580Y-66231903D01*
X153791643Y-66232500D01*
X153791645Y-66232500D01*
X153929633Y-66232500D01*
X154020679Y-66214389D01*
X154064966Y-66205580D01*
X154192449Y-66152775D01*
X154307180Y-66076114D01*
X154404752Y-65978542D01*
X154481413Y-65863811D01*
X154534218Y-65736328D01*
X154549292Y-65660548D01*
X154561138Y-65600995D01*
X154561138Y-65463004D01*
X154534219Y-65327677D01*
X154534218Y-65327676D01*
X154534218Y-65327672D01*
X154526675Y-65309461D01*
X154481416Y-65200195D01*
X154481409Y-65200182D01*
X154404752Y-65085458D01*
X154404749Y-65085454D01*
X154307183Y-64987888D01*
X154307179Y-64987885D01*
X154192455Y-64911228D01*
X154192442Y-64911221D01*
X154064970Y-64858421D01*
X154064960Y-64858418D01*
X153929633Y-64831500D01*
X153929631Y-64831500D01*
X153791645Y-64831500D01*
X153791642Y-64831500D01*
X153785580Y-64832097D01*
X153785409Y-64830370D01*
X153724031Y-64824871D01*
X153668858Y-64782001D01*
X153645621Y-64716109D01*
X153645444Y-64709789D01*
X153643966Y-64058679D01*
X153639800Y-64009086D01*
X153633172Y-63969369D01*
X153633171Y-63969365D01*
X153633169Y-63969352D01*
X153628256Y-63945718D01*
X153623086Y-63934423D01*
X153581530Y-63843631D01*
X153581528Y-63843628D01*
X153541277Y-63786530D01*
X153541270Y-63786522D01*
X153529286Y-63772716D01*
X153500206Y-63709186D01*
X153510089Y-63640019D01*
X153522611Y-63618546D01*
X153574736Y-63546802D01*
X153574735Y-63546802D01*
X153574739Y-63546798D01*
X153658383Y-63382639D01*
X153715316Y-63207416D01*
X153736165Y-63075780D01*
X153766094Y-63012646D01*
X153825406Y-62975715D01*
X153895268Y-62976713D01*
X153953501Y-63015323D01*
X153981111Y-63075781D01*
X154001960Y-63207417D01*
X154058891Y-63382636D01*
X154119396Y-63501382D01*
X154142537Y-63546798D01*
X154250831Y-63695852D01*
X154381109Y-63826130D01*
X154530163Y-63934424D01*
X154664098Y-64002668D01*
X154694324Y-64018069D01*
X154755845Y-64038058D01*
X154869545Y-64075001D01*
X155051518Y-64103823D01*
X155051519Y-64103823D01*
X155235757Y-64103823D01*
X155235758Y-64103823D01*
X155417731Y-64075001D01*
X155592954Y-64018068D01*
X155757113Y-63934424D01*
X155906167Y-63826130D01*
X156036445Y-63695852D01*
X156144739Y-63546798D01*
X156228383Y-63382639D01*
X156285316Y-63207416D01*
X156291165Y-63170486D01*
X156321094Y-63107353D01*
X156380405Y-63070421D01*
X156450268Y-63071419D01*
X156508501Y-63110028D01*
X156536111Y-63170487D01*
X156541960Y-63207417D01*
X156598891Y-63382636D01*
X156659396Y-63501382D01*
X156682537Y-63546798D01*
X156790831Y-63695852D01*
X156921109Y-63826130D01*
X157070163Y-63934424D01*
X157204098Y-64002668D01*
X157234324Y-64018069D01*
X157295845Y-64038058D01*
X157409545Y-64075001D01*
X157591518Y-64103823D01*
X157591519Y-64103823D01*
X157775757Y-64103823D01*
X157775758Y-64103823D01*
X157957731Y-64075001D01*
X158132954Y-64018068D01*
X158297113Y-63934424D01*
X158446167Y-63826130D01*
X158576445Y-63695852D01*
X158684739Y-63546798D01*
X158768383Y-63382639D01*
X158825316Y-63207416D01*
X158854138Y-63025443D01*
X158854138Y-62891953D01*
X164310388Y-62891953D01*
X164310388Y-63076192D01*
X164339210Y-63258167D01*
X164396141Y-63433386D01*
X164453928Y-63546798D01*
X164479787Y-63597548D01*
X164588081Y-63746602D01*
X164718359Y-63876880D01*
X164867413Y-63985174D01*
X165011673Y-64058679D01*
X165031574Y-64068819D01*
X165091735Y-64088366D01*
X165206795Y-64125751D01*
X165388768Y-64154573D01*
X165388769Y-64154573D01*
X165573007Y-64154573D01*
X165573008Y-64154573D01*
X165754981Y-64125751D01*
X165930204Y-64068818D01*
X166094363Y-63985174D01*
X166243417Y-63876880D01*
X166373695Y-63746602D01*
X166481989Y-63597548D01*
X166565633Y-63433389D01*
X166622566Y-63258166D01*
X166628415Y-63221236D01*
X166658344Y-63158103D01*
X166717655Y-63121171D01*
X166787518Y-63122169D01*
X166845751Y-63160778D01*
X166873361Y-63221237D01*
X166879210Y-63258167D01*
X166936141Y-63433386D01*
X166993928Y-63546798D01*
X167019787Y-63597548D01*
X167128081Y-63746602D01*
X167258359Y-63876880D01*
X167407413Y-63985174D01*
X167551673Y-64058679D01*
X167571574Y-64068819D01*
X167631735Y-64088366D01*
X167746795Y-64125751D01*
X167928768Y-64154573D01*
X167928769Y-64154573D01*
X168113007Y-64154573D01*
X168113008Y-64154573D01*
X168294981Y-64125751D01*
X168470204Y-64068818D01*
X168634363Y-63985174D01*
X168783417Y-63876880D01*
X168913695Y-63746602D01*
X169021989Y-63597548D01*
X169105633Y-63433389D01*
X169162566Y-63258166D01*
X169183415Y-63126530D01*
X169213344Y-63063396D01*
X169272656Y-63026465D01*
X169342518Y-63027463D01*
X169400751Y-63066073D01*
X169428361Y-63126531D01*
X169449210Y-63258167D01*
X169506141Y-63433386D01*
X169563928Y-63546798D01*
X169589787Y-63597548D01*
X169698081Y-63746602D01*
X169828359Y-63876880D01*
X169977413Y-63985174D01*
X170121673Y-64058679D01*
X170141574Y-64068819D01*
X170201735Y-64088366D01*
X170316795Y-64125751D01*
X170498768Y-64154573D01*
X170498769Y-64154573D01*
X170683007Y-64154573D01*
X170683008Y-64154573D01*
X170864981Y-64125751D01*
X171040204Y-64068818D01*
X171204363Y-63985174D01*
X171353417Y-63876880D01*
X171483695Y-63746602D01*
X171591989Y-63597548D01*
X171675633Y-63433389D01*
X171695627Y-63371853D01*
X171718457Y-63301590D01*
X171757894Y-63243915D01*
X171822252Y-63216716D01*
X171891099Y-63228630D01*
X171942575Y-63275874D01*
X171960388Y-63339908D01*
X171960388Y-63646655D01*
X171971022Y-63735208D01*
X171971022Y-63735209D01*
X172026596Y-63876134D01*
X172027162Y-63876880D01*
X172118126Y-63996835D01*
X172238829Y-64088366D01*
X172379750Y-64143938D01*
X172468306Y-64154573D01*
X173793470Y-64154573D01*
X173882026Y-64143938D01*
X174022947Y-64088366D01*
X174143650Y-63996835D01*
X174235181Y-63876132D01*
X174290753Y-63735211D01*
X174301388Y-63646655D01*
X174301388Y-62321491D01*
X174290753Y-62232935D01*
X174235181Y-62092014D01*
X174234615Y-62091268D01*
X174208458Y-62056774D01*
X174143650Y-61971311D01*
X174035764Y-61889499D01*
X174022949Y-61879781D01*
X174022947Y-61879780D01*
X173928145Y-61842395D01*
X173882024Y-61824207D01*
X173793470Y-61813573D01*
X172468306Y-61813573D01*
X172379752Y-61824207D01*
X172379751Y-61824207D01*
X172238826Y-61879781D01*
X172118126Y-61971311D01*
X172026596Y-62092011D01*
X171971022Y-62232936D01*
X171971022Y-62232937D01*
X171960388Y-62321490D01*
X171960388Y-62628237D01*
X171940703Y-62695276D01*
X171887899Y-62741031D01*
X171818741Y-62750975D01*
X171755185Y-62721950D01*
X171718457Y-62666555D01*
X171675634Y-62534759D01*
X171662360Y-62508708D01*
X171591989Y-62370598D01*
X171483695Y-62221544D01*
X171353417Y-62091266D01*
X171204363Y-61982972D01*
X171152572Y-61956583D01*
X171040201Y-61899326D01*
X170864982Y-61842395D01*
X170750154Y-61824208D01*
X170683008Y-61813573D01*
X170498768Y-61813573D01*
X170438110Y-61823180D01*
X170316793Y-61842395D01*
X170141574Y-61899326D01*
X169977412Y-61982972D01*
X169898210Y-62040516D01*
X169828359Y-62091266D01*
X169828357Y-62091268D01*
X169828356Y-62091268D01*
X169698083Y-62221541D01*
X169698083Y-62221542D01*
X169698081Y-62221544D01*
X169674873Y-62253487D01*
X169589787Y-62370597D01*
X169506141Y-62534759D01*
X169449210Y-62709978D01*
X169428361Y-62841614D01*
X169398432Y-62904749D01*
X169339120Y-62941680D01*
X169269258Y-62940682D01*
X169211025Y-62902072D01*
X169183415Y-62841614D01*
X169181381Y-62828775D01*
X169162566Y-62709980D01*
X169120157Y-62579457D01*
X169105634Y-62534759D01*
X169092360Y-62508708D01*
X169021989Y-62370598D01*
X168913695Y-62221544D01*
X168783417Y-62091266D01*
X168634363Y-61982972D01*
X168582572Y-61956583D01*
X168470201Y-61899326D01*
X168294982Y-61842395D01*
X168180154Y-61824208D01*
X168113008Y-61813573D01*
X167928768Y-61813573D01*
X167868110Y-61823180D01*
X167746793Y-61842395D01*
X167571574Y-61899326D01*
X167407412Y-61982972D01*
X167328210Y-62040516D01*
X167258359Y-62091266D01*
X167258357Y-62091268D01*
X167258356Y-62091268D01*
X167128083Y-62221541D01*
X167128083Y-62221542D01*
X167128081Y-62221544D01*
X167104873Y-62253487D01*
X167019787Y-62370597D01*
X166936141Y-62534759D01*
X166879210Y-62709978D01*
X166873361Y-62746908D01*
X166843432Y-62810043D01*
X166784120Y-62846974D01*
X166714258Y-62845976D01*
X166656025Y-62807366D01*
X166628415Y-62746908D01*
X166627484Y-62741031D01*
X166622566Y-62709980D01*
X166580157Y-62579457D01*
X166565634Y-62534759D01*
X166552360Y-62508708D01*
X166481989Y-62370598D01*
X166373695Y-62221544D01*
X166243417Y-62091266D01*
X166094363Y-61982972D01*
X166042572Y-61956583D01*
X165930201Y-61899326D01*
X165754982Y-61842395D01*
X165640154Y-61824208D01*
X165573008Y-61813573D01*
X165388768Y-61813573D01*
X165328110Y-61823180D01*
X165206793Y-61842395D01*
X165031574Y-61899326D01*
X164867412Y-61982972D01*
X164788210Y-62040516D01*
X164718359Y-62091266D01*
X164718357Y-62091268D01*
X164718356Y-62091268D01*
X164588083Y-62221541D01*
X164588083Y-62221542D01*
X164588081Y-62221544D01*
X164564873Y-62253487D01*
X164479787Y-62370597D01*
X164396141Y-62534759D01*
X164339210Y-62709978D01*
X164310388Y-62891953D01*
X158854138Y-62891953D01*
X158854138Y-62841203D01*
X158825316Y-62659230D01*
X158768383Y-62484007D01*
X158684739Y-62319848D01*
X158576445Y-62170794D01*
X158446167Y-62040516D01*
X158297113Y-61932222D01*
X158252193Y-61909334D01*
X158132951Y-61848576D01*
X157957732Y-61791645D01*
X157866744Y-61777234D01*
X157775758Y-61762823D01*
X157591518Y-61762823D01*
X157530860Y-61772430D01*
X157409543Y-61791645D01*
X157234324Y-61848576D01*
X157070162Y-61932222D01*
X156985122Y-61994007D01*
X156921109Y-62040516D01*
X156921107Y-62040518D01*
X156921106Y-62040518D01*
X156790833Y-62170791D01*
X156790833Y-62170792D01*
X156790831Y-62170794D01*
X156744322Y-62234807D01*
X156682537Y-62319847D01*
X156598891Y-62484009D01*
X156541960Y-62659228D01*
X156536111Y-62696158D01*
X156506182Y-62759293D01*
X156446870Y-62796224D01*
X156377008Y-62795226D01*
X156318775Y-62756616D01*
X156291165Y-62696158D01*
X156288995Y-62682457D01*
X156285316Y-62659230D01*
X156228383Y-62484007D01*
X156144739Y-62319848D01*
X156036445Y-62170794D01*
X155906167Y-62040516D01*
X155757113Y-61932222D01*
X155712193Y-61909334D01*
X155592951Y-61848576D01*
X155417732Y-61791645D01*
X155326744Y-61777234D01*
X155235758Y-61762823D01*
X155051518Y-61762823D01*
X154990860Y-61772430D01*
X154869543Y-61791645D01*
X154694324Y-61848576D01*
X154530162Y-61932222D01*
X154445122Y-61994007D01*
X154381109Y-62040516D01*
X154381107Y-62040518D01*
X154381106Y-62040518D01*
X154250833Y-62170791D01*
X154250833Y-62170792D01*
X154250831Y-62170794D01*
X154204322Y-62234807D01*
X154142537Y-62319847D01*
X154058891Y-62484009D01*
X154001960Y-62659228D01*
X153981111Y-62790864D01*
X153951182Y-62853999D01*
X153891870Y-62890930D01*
X153822008Y-62889932D01*
X153763775Y-62851322D01*
X153736165Y-62790864D01*
X153715316Y-62659230D01*
X153658383Y-62484007D01*
X153574739Y-62319848D01*
X153519311Y-62243558D01*
X153495832Y-62177754D01*
X153511657Y-62109700D01*
X153529213Y-62085817D01*
X153556471Y-62056776D01*
X153607129Y-61956583D01*
X153626661Y-61889499D01*
X153638840Y-61803403D01*
X153621481Y-54165472D01*
X156973138Y-54165472D01*
X156973138Y-54421173D01*
X156986331Y-54521379D01*
X157006512Y-54674663D01*
X157072688Y-54921635D01*
X157072691Y-54921645D01*
X157170532Y-55157854D01*
X157170537Y-55157865D01*
X157298372Y-55379280D01*
X157298383Y-55379296D01*
X157454026Y-55582134D01*
X157454032Y-55582141D01*
X157634819Y-55762928D01*
X157634826Y-55762934D01*
X157709552Y-55820273D01*
X157837673Y-55918584D01*
X157837680Y-55918588D01*
X158059095Y-56046423D01*
X158059100Y-56046425D01*
X158059103Y-56046427D01*
X158295325Y-56144273D01*
X158542298Y-56210449D01*
X158795795Y-56243823D01*
X158795802Y-56243823D01*
X159051474Y-56243823D01*
X159051481Y-56243823D01*
X159304978Y-56210449D01*
X159551951Y-56144273D01*
X159788173Y-56046427D01*
X160009603Y-55918584D01*
X160212451Y-55762933D01*
X160393248Y-55582136D01*
X160548899Y-55379288D01*
X160676742Y-55157858D01*
X160774588Y-54921636D01*
X160840764Y-54674663D01*
X160874138Y-54421166D01*
X160874138Y-54216222D01*
X162290388Y-54216222D01*
X162290388Y-54471923D01*
X162309634Y-54618100D01*
X162323762Y-54725413D01*
X162376340Y-54921636D01*
X162389938Y-54972385D01*
X162389941Y-54972395D01*
X162487782Y-55208604D01*
X162487787Y-55208615D01*
X162615622Y-55430030D01*
X162615633Y-55430046D01*
X162771276Y-55632884D01*
X162771282Y-55632891D01*
X162952069Y-55813678D01*
X162952075Y-55813683D01*
X163154923Y-55969334D01*
X163154930Y-55969338D01*
X163376345Y-56097173D01*
X163376350Y-56097175D01*
X163376353Y-56097177D01*
X163612575Y-56195023D01*
X163859548Y-56261199D01*
X164113045Y-56294573D01*
X164113052Y-56294573D01*
X164368724Y-56294573D01*
X164368731Y-56294573D01*
X164622228Y-56261199D01*
X164869201Y-56195023D01*
X165105423Y-56097177D01*
X165326853Y-55969334D01*
X165529701Y-55813683D01*
X165710498Y-55632886D01*
X165866149Y-55430038D01*
X165993992Y-55208608D01*
X166091838Y-54972386D01*
X166158014Y-54725413D01*
X166191388Y-54471916D01*
X166191388Y-54216230D01*
X166191387Y-54216222D01*
X172450388Y-54216222D01*
X172450388Y-54471923D01*
X172469634Y-54618100D01*
X172483762Y-54725413D01*
X172536340Y-54921636D01*
X172549938Y-54972385D01*
X172549941Y-54972395D01*
X172647782Y-55208604D01*
X172647787Y-55208615D01*
X172775622Y-55430030D01*
X172775633Y-55430046D01*
X172931276Y-55632884D01*
X172931282Y-55632891D01*
X173112069Y-55813678D01*
X173112075Y-55813683D01*
X173314923Y-55969334D01*
X173314930Y-55969338D01*
X173536345Y-56097173D01*
X173536350Y-56097175D01*
X173536353Y-56097177D01*
X173772575Y-56195023D01*
X174019548Y-56261199D01*
X174273045Y-56294573D01*
X174273052Y-56294573D01*
X174528724Y-56294573D01*
X174528731Y-56294573D01*
X174782228Y-56261199D01*
X175029201Y-56195023D01*
X175265423Y-56097177D01*
X175486853Y-55969334D01*
X175689701Y-55813683D01*
X175870498Y-55632886D01*
X176026149Y-55430038D01*
X176153992Y-55208608D01*
X176251838Y-54972386D01*
X176318014Y-54725413D01*
X176351388Y-54471916D01*
X176351388Y-54216230D01*
X176318014Y-53962733D01*
X176301395Y-53900711D01*
X195943100Y-53900711D01*
X195943100Y-54143288D01*
X195974761Y-54383785D01*
X196037547Y-54618104D01*
X196130373Y-54842205D01*
X196130376Y-54842212D01*
X196251664Y-55052289D01*
X196251666Y-55052292D01*
X196251667Y-55052293D01*
X196399333Y-55244736D01*
X196399339Y-55244743D01*
X196570856Y-55416260D01*
X196570863Y-55416266D01*
X196600405Y-55438934D01*
X196763311Y-55563936D01*
X196973388Y-55685224D01*
X197197500Y-55778054D01*
X197431811Y-55840838D01*
X197612186Y-55864584D01*
X197672311Y-55872500D01*
X197672312Y-55872500D01*
X197914889Y-55872500D01*
X197962988Y-55866167D01*
X198155389Y-55840838D01*
X198389700Y-55778054D01*
X198613812Y-55685224D01*
X198823889Y-55563936D01*
X199016338Y-55416265D01*
X199187865Y-55244738D01*
X199335536Y-55052289D01*
X199456824Y-54842212D01*
X199549654Y-54618100D01*
X199612438Y-54383789D01*
X199644100Y-54143288D01*
X199644100Y-53900712D01*
X199612438Y-53660211D01*
X199549654Y-53425900D01*
X199456824Y-53201788D01*
X199335536Y-52991711D01*
X199206627Y-52823713D01*
X199187866Y-52799263D01*
X199187860Y-52799256D01*
X199016343Y-52627739D01*
X199016336Y-52627733D01*
X198823893Y-52480067D01*
X198823892Y-52480066D01*
X198823889Y-52480064D01*
X198643986Y-52376197D01*
X198613814Y-52358777D01*
X198613805Y-52358773D01*
X198389704Y-52265947D01*
X198272544Y-52234554D01*
X198155389Y-52203162D01*
X198155388Y-52203161D01*
X198155385Y-52203161D01*
X197914889Y-52171500D01*
X197914888Y-52171500D01*
X197672312Y-52171500D01*
X197672311Y-52171500D01*
X197431814Y-52203161D01*
X197197495Y-52265947D01*
X196973394Y-52358773D01*
X196973385Y-52358777D01*
X196763306Y-52480067D01*
X196570863Y-52627733D01*
X196570856Y-52627739D01*
X196399339Y-52799256D01*
X196399333Y-52799263D01*
X196251667Y-52991706D01*
X196251664Y-52991710D01*
X196251664Y-52991711D01*
X196244274Y-53004511D01*
X196130377Y-53201785D01*
X196130373Y-53201794D01*
X196037547Y-53425895D01*
X195974761Y-53660214D01*
X195943100Y-53900711D01*
X176301395Y-53900711D01*
X176251838Y-53715760D01*
X176153992Y-53479538D01*
X176153990Y-53479535D01*
X176153988Y-53479530D01*
X176026153Y-53258115D01*
X176026149Y-53258108D01*
X175870498Y-53055260D01*
X175870493Y-53055254D01*
X175689706Y-52874467D01*
X175689699Y-52874461D01*
X175486861Y-52718818D01*
X175486859Y-52718816D01*
X175486853Y-52718812D01*
X175486848Y-52718809D01*
X175486845Y-52718807D01*
X175265430Y-52590972D01*
X175265419Y-52590967D01*
X175029210Y-52493126D01*
X175029203Y-52493124D01*
X175029201Y-52493123D01*
X174782228Y-52426947D01*
X174725895Y-52419530D01*
X174528738Y-52393573D01*
X174528731Y-52393573D01*
X174273045Y-52393573D01*
X174273037Y-52393573D01*
X174047714Y-52423238D01*
X174019548Y-52426947D01*
X173821312Y-52480064D01*
X173772575Y-52493123D01*
X173772565Y-52493126D01*
X173536356Y-52590967D01*
X173536345Y-52590972D01*
X173314930Y-52718807D01*
X173314914Y-52718818D01*
X173112076Y-52874461D01*
X173112069Y-52874467D01*
X172931282Y-53055254D01*
X172931276Y-53055261D01*
X172775633Y-53258099D01*
X172775622Y-53258115D01*
X172647787Y-53479530D01*
X172647782Y-53479541D01*
X172549941Y-53715750D01*
X172549939Y-53715757D01*
X172549938Y-53715760D01*
X172497361Y-53911983D01*
X172483762Y-53962734D01*
X172450388Y-54216222D01*
X166191387Y-54216222D01*
X166158014Y-53962733D01*
X166091838Y-53715760D01*
X165993992Y-53479538D01*
X165993990Y-53479535D01*
X165993988Y-53479530D01*
X165866153Y-53258115D01*
X165866149Y-53258108D01*
X165710498Y-53055260D01*
X165710493Y-53055254D01*
X165529706Y-52874467D01*
X165529699Y-52874461D01*
X165326861Y-52718818D01*
X165326859Y-52718816D01*
X165326853Y-52718812D01*
X165326848Y-52718809D01*
X165326845Y-52718807D01*
X165105430Y-52590972D01*
X165105419Y-52590967D01*
X164869210Y-52493126D01*
X164869203Y-52493124D01*
X164869201Y-52493123D01*
X164622228Y-52426947D01*
X164565895Y-52419530D01*
X164368738Y-52393573D01*
X164368731Y-52393573D01*
X164113045Y-52393573D01*
X164113037Y-52393573D01*
X163887714Y-52423238D01*
X163859548Y-52426947D01*
X163661312Y-52480064D01*
X163612575Y-52493123D01*
X163612565Y-52493126D01*
X163376356Y-52590967D01*
X163376345Y-52590972D01*
X163154930Y-52718807D01*
X163154914Y-52718818D01*
X162952076Y-52874461D01*
X162952069Y-52874467D01*
X162771282Y-53055254D01*
X162771276Y-53055261D01*
X162615633Y-53258099D01*
X162615622Y-53258115D01*
X162487787Y-53479530D01*
X162487782Y-53479541D01*
X162389941Y-53715750D01*
X162389939Y-53715757D01*
X162389938Y-53715760D01*
X162337361Y-53911983D01*
X162323762Y-53962734D01*
X162290388Y-54216222D01*
X160874138Y-54216222D01*
X160874138Y-54165480D01*
X160840764Y-53911983D01*
X160774588Y-53665010D01*
X160772601Y-53660214D01*
X160738443Y-53577749D01*
X160676742Y-53428788D01*
X160676740Y-53428785D01*
X160676738Y-53428780D01*
X160548903Y-53207365D01*
X160548899Y-53207358D01*
X160499768Y-53143329D01*
X160393249Y-53004511D01*
X160393243Y-53004504D01*
X160212456Y-52823717D01*
X160212449Y-52823711D01*
X160009611Y-52668068D01*
X160009609Y-52668066D01*
X160009603Y-52668062D01*
X160009598Y-52668059D01*
X160009595Y-52668057D01*
X159788180Y-52540222D01*
X159788169Y-52540217D01*
X159551960Y-52442376D01*
X159551953Y-52442374D01*
X159551951Y-52442373D01*
X159304978Y-52376197D01*
X159248645Y-52368780D01*
X159051488Y-52342823D01*
X159051481Y-52342823D01*
X158795795Y-52342823D01*
X158795787Y-52342823D01*
X158570464Y-52372488D01*
X158542298Y-52376197D01*
X158477450Y-52393573D01*
X158295325Y-52442373D01*
X158295315Y-52442376D01*
X158059106Y-52540217D01*
X158059095Y-52540222D01*
X157837680Y-52668057D01*
X157837664Y-52668068D01*
X157634826Y-52823711D01*
X157634819Y-52823717D01*
X157454032Y-53004504D01*
X157454026Y-53004511D01*
X157298383Y-53207349D01*
X157298372Y-53207365D01*
X157170537Y-53428780D01*
X157170532Y-53428791D01*
X157072691Y-53665000D01*
X157072688Y-53665010D01*
X157009533Y-53900711D01*
X157006512Y-53911984D01*
X156973138Y-54165472D01*
X153621481Y-54165472D01*
X153610968Y-49540102D01*
X153630500Y-49473021D01*
X153683200Y-49427146D01*
X153734968Y-49415823D01*
X202258138Y-49415823D01*
X202325177Y-49435508D01*
X202370932Y-49488312D01*
X202382138Y-49539823D01*
X202382138Y-123070822D01*
X202362453Y-123137861D01*
X202309649Y-123183616D01*
X202258138Y-123194822D01*
X85651138Y-123194822D01*
X85584099Y-123175137D01*
X85538344Y-123122333D01*
X85527138Y-123070822D01*
X85527138Y-117611149D01*
X143099900Y-117611149D01*
X143099900Y-117866850D01*
X143125857Y-118064007D01*
X143133274Y-118120340D01*
X143199450Y-118367312D01*
X143199453Y-118367322D01*
X143297294Y-118603531D01*
X143297299Y-118603542D01*
X143425134Y-118824957D01*
X143425145Y-118824973D01*
X143580788Y-119027811D01*
X143580794Y-119027818D01*
X143761581Y-119208605D01*
X143761587Y-119208610D01*
X143964435Y-119364261D01*
X143964442Y-119364265D01*
X144185857Y-119492100D01*
X144185862Y-119492102D01*
X144185865Y-119492104D01*
X144422087Y-119589950D01*
X144669060Y-119656126D01*
X144922557Y-119689500D01*
X144922564Y-119689500D01*
X145178236Y-119689500D01*
X145178243Y-119689500D01*
X145431740Y-119656126D01*
X145678713Y-119589950D01*
X145914935Y-119492104D01*
X146136365Y-119364261D01*
X146339213Y-119208610D01*
X146520010Y-119027813D01*
X146675661Y-118824965D01*
X146803504Y-118603535D01*
X146901350Y-118367313D01*
X146967526Y-118120340D01*
X147000900Y-117866843D01*
X147000900Y-117611157D01*
X147000899Y-117611149D01*
X158339900Y-117611149D01*
X158339900Y-117866850D01*
X158365857Y-118064007D01*
X158373274Y-118120340D01*
X158439450Y-118367312D01*
X158439453Y-118367322D01*
X158537294Y-118603531D01*
X158537299Y-118603542D01*
X158665134Y-118824957D01*
X158665145Y-118824973D01*
X158820788Y-119027811D01*
X158820794Y-119027818D01*
X159001581Y-119208605D01*
X159001587Y-119208610D01*
X159204435Y-119364261D01*
X159204442Y-119364265D01*
X159425857Y-119492100D01*
X159425862Y-119492102D01*
X159425865Y-119492104D01*
X159662087Y-119589950D01*
X159909060Y-119656126D01*
X160162557Y-119689500D01*
X160162564Y-119689500D01*
X160418236Y-119689500D01*
X160418243Y-119689500D01*
X160671740Y-119656126D01*
X160918713Y-119589950D01*
X161154935Y-119492104D01*
X161376365Y-119364261D01*
X161579213Y-119208610D01*
X161760010Y-119027813D01*
X161915661Y-118824965D01*
X162043504Y-118603535D01*
X162141350Y-118367313D01*
X162207526Y-118120340D01*
X162240900Y-117866843D01*
X162240900Y-117611157D01*
X162207526Y-117357660D01*
X162141350Y-117110687D01*
X162043504Y-116874465D01*
X162043502Y-116874462D01*
X162043500Y-116874457D01*
X161915665Y-116653042D01*
X161915661Y-116653035D01*
X161760010Y-116450187D01*
X161760005Y-116450181D01*
X161579218Y-116269394D01*
X161579211Y-116269388D01*
X161376373Y-116113745D01*
X161376371Y-116113743D01*
X161376365Y-116113739D01*
X161376360Y-116113736D01*
X161376357Y-116113734D01*
X161154942Y-115985899D01*
X161154931Y-115985894D01*
X160918722Y-115888053D01*
X160918715Y-115888051D01*
X160918713Y-115888050D01*
X160671740Y-115821874D01*
X160615407Y-115814457D01*
X160418250Y-115788500D01*
X160418243Y-115788500D01*
X160162557Y-115788500D01*
X160162549Y-115788500D01*
X159937226Y-115818165D01*
X159909060Y-115821874D01*
X159662087Y-115888050D01*
X159662077Y-115888053D01*
X159425868Y-115985894D01*
X159425857Y-115985899D01*
X159204442Y-116113734D01*
X159204426Y-116113745D01*
X159001588Y-116269388D01*
X159001581Y-116269394D01*
X158820794Y-116450181D01*
X158820788Y-116450188D01*
X158665145Y-116653026D01*
X158665134Y-116653042D01*
X158537299Y-116874457D01*
X158537294Y-116874468D01*
X158439453Y-117110677D01*
X158439450Y-117110687D01*
X158373274Y-117357661D01*
X158339900Y-117611149D01*
X147000899Y-117611149D01*
X146967526Y-117357660D01*
X146901350Y-117110687D01*
X146803504Y-116874465D01*
X146803502Y-116874462D01*
X146803500Y-116874457D01*
X146675665Y-116653042D01*
X146675661Y-116653035D01*
X146520010Y-116450187D01*
X146520005Y-116450181D01*
X146339218Y-116269394D01*
X146339211Y-116269388D01*
X146136373Y-116113745D01*
X146136371Y-116113743D01*
X146136365Y-116113739D01*
X146136360Y-116113736D01*
X146136357Y-116113734D01*
X145914942Y-115985899D01*
X145914931Y-115985894D01*
X145678722Y-115888053D01*
X145678715Y-115888051D01*
X145678713Y-115888050D01*
X145431740Y-115821874D01*
X145375407Y-115814457D01*
X145178250Y-115788500D01*
X145178243Y-115788500D01*
X144922557Y-115788500D01*
X144922549Y-115788500D01*
X144697226Y-115818165D01*
X144669060Y-115821874D01*
X144422087Y-115888050D01*
X144422077Y-115888053D01*
X144185868Y-115985894D01*
X144185857Y-115985899D01*
X143964442Y-116113734D01*
X143964426Y-116113745D01*
X143761588Y-116269388D01*
X143761581Y-116269394D01*
X143580794Y-116450181D01*
X143580788Y-116450188D01*
X143425145Y-116653026D01*
X143425134Y-116653042D01*
X143297299Y-116874457D01*
X143297294Y-116874468D01*
X143199453Y-117110677D01*
X143199450Y-117110687D01*
X143133274Y-117357661D01*
X143099900Y-117611149D01*
X85527138Y-117611149D01*
X85527138Y-111265711D01*
X88290300Y-111265711D01*
X88290300Y-111508288D01*
X88321961Y-111748785D01*
X88384747Y-111983104D01*
X88477573Y-112207205D01*
X88477576Y-112207212D01*
X88598864Y-112417289D01*
X88598866Y-112417292D01*
X88598867Y-112417293D01*
X88746533Y-112609736D01*
X88746539Y-112609743D01*
X88918056Y-112781260D01*
X88918062Y-112781265D01*
X89110511Y-112928936D01*
X89320588Y-113050224D01*
X89544700Y-113143054D01*
X89779011Y-113205838D01*
X89959386Y-113229584D01*
X90019511Y-113237500D01*
X90019512Y-113237500D01*
X90262089Y-113237500D01*
X90310188Y-113231167D01*
X90502589Y-113205838D01*
X90736900Y-113143054D01*
X90961012Y-113050224D01*
X91171089Y-112928936D01*
X91363538Y-112781265D01*
X91535065Y-112609738D01*
X91682736Y-112417289D01*
X91804024Y-112207212D01*
X91896854Y-111983100D01*
X91959638Y-111748789D01*
X91991300Y-111508288D01*
X91991300Y-111265712D01*
X91991300Y-111265711D01*
X195943100Y-111265711D01*
X195943100Y-111508288D01*
X195974761Y-111748785D01*
X196037547Y-111983104D01*
X196130373Y-112207205D01*
X196130376Y-112207212D01*
X196251664Y-112417289D01*
X196251666Y-112417292D01*
X196251667Y-112417293D01*
X196399333Y-112609736D01*
X196399339Y-112609743D01*
X196570856Y-112781260D01*
X196570862Y-112781265D01*
X196763311Y-112928936D01*
X196973388Y-113050224D01*
X197197500Y-113143054D01*
X197431811Y-113205838D01*
X197612186Y-113229584D01*
X197672311Y-113237500D01*
X197672312Y-113237500D01*
X197914889Y-113237500D01*
X197962988Y-113231167D01*
X198155389Y-113205838D01*
X198389700Y-113143054D01*
X198613812Y-113050224D01*
X198823889Y-112928936D01*
X199016338Y-112781265D01*
X199187865Y-112609738D01*
X199335536Y-112417289D01*
X199456824Y-112207212D01*
X199549654Y-111983100D01*
X199612438Y-111748789D01*
X199644100Y-111508288D01*
X199644100Y-111265712D01*
X199612438Y-111025211D01*
X199549654Y-110790900D01*
X199456824Y-110566788D01*
X199335536Y-110356711D01*
X199246500Y-110240677D01*
X199187866Y-110164263D01*
X199187860Y-110164256D01*
X199016343Y-109992739D01*
X199016336Y-109992733D01*
X198823893Y-109845067D01*
X198823892Y-109845066D01*
X198823889Y-109845064D01*
X198613812Y-109723776D01*
X198586529Y-109712475D01*
X198389704Y-109630947D01*
X198155385Y-109568161D01*
X197914889Y-109536500D01*
X197914888Y-109536500D01*
X197672312Y-109536500D01*
X197672311Y-109536500D01*
X197431814Y-109568161D01*
X197197495Y-109630947D01*
X196973394Y-109723773D01*
X196973385Y-109723777D01*
X196763306Y-109845067D01*
X196570863Y-109992733D01*
X196570856Y-109992739D01*
X196399339Y-110164256D01*
X196399333Y-110164263D01*
X196251667Y-110356706D01*
X196130377Y-110566785D01*
X196130373Y-110566794D01*
X196037547Y-110790895D01*
X195974761Y-111025214D01*
X195943100Y-111265711D01*
X91991300Y-111265711D01*
X91959638Y-111025211D01*
X91896854Y-110790900D01*
X91804024Y-110566788D01*
X91682736Y-110356711D01*
X91593700Y-110240677D01*
X91535066Y-110164263D01*
X91535060Y-110164256D01*
X91363543Y-109992739D01*
X91363536Y-109992733D01*
X91171093Y-109845067D01*
X91171092Y-109845066D01*
X91171089Y-109845064D01*
X90961012Y-109723776D01*
X90933729Y-109712475D01*
X90736904Y-109630947D01*
X90502585Y-109568161D01*
X90262089Y-109536500D01*
X90262088Y-109536500D01*
X90019512Y-109536500D01*
X90019511Y-109536500D01*
X89779014Y-109568161D01*
X89544695Y-109630947D01*
X89320594Y-109723773D01*
X89320585Y-109723777D01*
X89110506Y-109845067D01*
X88918063Y-109992733D01*
X88918056Y-109992739D01*
X88746539Y-110164256D01*
X88746533Y-110164263D01*
X88598867Y-110356706D01*
X88477577Y-110566785D01*
X88477573Y-110566794D01*
X88384747Y-110790895D01*
X88321961Y-111025214D01*
X88290300Y-111265711D01*
X85527138Y-111265711D01*
X85527138Y-109006880D01*
X145149900Y-109006880D01*
X145149900Y-109191119D01*
X145178722Y-109373094D01*
X145235653Y-109548313D01*
X145245767Y-109568162D01*
X145319299Y-109712475D01*
X145427593Y-109861529D01*
X145557871Y-109991807D01*
X145706925Y-110100101D01*
X145832835Y-110164256D01*
X145871086Y-110183746D01*
X145931247Y-110203293D01*
X146046307Y-110240678D01*
X146228280Y-110269500D01*
X146228281Y-110269500D01*
X146412519Y-110269500D01*
X146412520Y-110269500D01*
X146594493Y-110240678D01*
X146769716Y-110183745D01*
X146933875Y-110100101D01*
X147082929Y-109991807D01*
X147213207Y-109861529D01*
X147321501Y-109712475D01*
X147405145Y-109548316D01*
X147462078Y-109373093D01*
X147467927Y-109336163D01*
X147497856Y-109273030D01*
X147557167Y-109236098D01*
X147627030Y-109237096D01*
X147685263Y-109275705D01*
X147712873Y-109336164D01*
X147718722Y-109373094D01*
X147775653Y-109548313D01*
X147785767Y-109568162D01*
X147859299Y-109712475D01*
X147967593Y-109861529D01*
X148097871Y-109991807D01*
X148246925Y-110100101D01*
X148372835Y-110164256D01*
X148411086Y-110183746D01*
X148471247Y-110203293D01*
X148586307Y-110240678D01*
X148768280Y-110269500D01*
X148768281Y-110269500D01*
X148952519Y-110269500D01*
X148952520Y-110269500D01*
X149134493Y-110240678D01*
X149309716Y-110183745D01*
X149473875Y-110100101D01*
X149622929Y-109991807D01*
X149753207Y-109861529D01*
X149861501Y-109712475D01*
X149945145Y-109548316D01*
X149987969Y-109416517D01*
X149997469Y-109387279D01*
X150036906Y-109329604D01*
X150101265Y-109302405D01*
X150170111Y-109314319D01*
X150221587Y-109361563D01*
X150233331Y-109387279D01*
X150285653Y-109548313D01*
X150295767Y-109568162D01*
X150369299Y-109712475D01*
X150477593Y-109861529D01*
X150607871Y-109991807D01*
X150756925Y-110100101D01*
X150882835Y-110164256D01*
X150921086Y-110183746D01*
X150981247Y-110203293D01*
X151096307Y-110240678D01*
X151278280Y-110269500D01*
X151278281Y-110269500D01*
X151462519Y-110269500D01*
X151462520Y-110269500D01*
X151644493Y-110240678D01*
X151819716Y-110183745D01*
X151983875Y-110100101D01*
X152132929Y-109991807D01*
X152263207Y-109861529D01*
X152371501Y-109712475D01*
X152455145Y-109548316D01*
X152512078Y-109373093D01*
X152517927Y-109336163D01*
X152547856Y-109273030D01*
X152607167Y-109236098D01*
X152677030Y-109237096D01*
X152735263Y-109275705D01*
X152762873Y-109336164D01*
X152768722Y-109373094D01*
X152825653Y-109548313D01*
X152835767Y-109568162D01*
X152909299Y-109712475D01*
X153017593Y-109861529D01*
X153147871Y-109991807D01*
X153296925Y-110100101D01*
X153422835Y-110164256D01*
X153461086Y-110183746D01*
X153521247Y-110203293D01*
X153636307Y-110240678D01*
X153818280Y-110269500D01*
X153818281Y-110269500D01*
X154002519Y-110269500D01*
X154002520Y-110269500D01*
X154184493Y-110240678D01*
X154359716Y-110183745D01*
X154523875Y-110100101D01*
X154672929Y-109991807D01*
X154803207Y-109861529D01*
X154911501Y-109712475D01*
X154995145Y-109548316D01*
X155052078Y-109373093D01*
X155072927Y-109241457D01*
X155102856Y-109178323D01*
X155162168Y-109141392D01*
X155232030Y-109142390D01*
X155290263Y-109181000D01*
X155317873Y-109241458D01*
X155338722Y-109373094D01*
X155395653Y-109548313D01*
X155405767Y-109568162D01*
X155479299Y-109712475D01*
X155587593Y-109861529D01*
X155717871Y-109991807D01*
X155866925Y-110100101D01*
X155992835Y-110164256D01*
X156031086Y-110183746D01*
X156091247Y-110203293D01*
X156206307Y-110240678D01*
X156388280Y-110269500D01*
X156388281Y-110269500D01*
X156572519Y-110269500D01*
X156572520Y-110269500D01*
X156754493Y-110240678D01*
X156929716Y-110183745D01*
X157093875Y-110100101D01*
X157242929Y-109991807D01*
X157373207Y-109861529D01*
X157481501Y-109712475D01*
X157565145Y-109548316D01*
X157607969Y-109416517D01*
X157647406Y-109358842D01*
X157711764Y-109331643D01*
X157780611Y-109343557D01*
X157832087Y-109390801D01*
X157849900Y-109454835D01*
X157849900Y-109761582D01*
X157860534Y-109850135D01*
X157860534Y-109850136D01*
X157916108Y-109991061D01*
X157953197Y-110039970D01*
X158007638Y-110111762D01*
X158128341Y-110203293D01*
X158269262Y-110258865D01*
X158357818Y-110269500D01*
X159682982Y-110269500D01*
X159771538Y-110258865D01*
X159912459Y-110203293D01*
X160033162Y-110111762D01*
X160124693Y-109991059D01*
X160180265Y-109850138D01*
X160190900Y-109761582D01*
X160190900Y-108436418D01*
X160180265Y-108347862D01*
X160124693Y-108206941D01*
X160124127Y-108206195D01*
X160104952Y-108180908D01*
X160033162Y-108086238D01*
X159938235Y-108014253D01*
X159912461Y-107994708D01*
X159912459Y-107994707D01*
X159817657Y-107957322D01*
X159771536Y-107939134D01*
X159682982Y-107928500D01*
X158357818Y-107928500D01*
X158269264Y-107939134D01*
X158269263Y-107939134D01*
X158128338Y-107994708D01*
X158007638Y-108086238D01*
X157916108Y-108206938D01*
X157860534Y-108347863D01*
X157860534Y-108347864D01*
X157849900Y-108436417D01*
X157849900Y-108743164D01*
X157830215Y-108810203D01*
X157777411Y-108855958D01*
X157708253Y-108865902D01*
X157644697Y-108836877D01*
X157607969Y-108781482D01*
X157565146Y-108649686D01*
X157481500Y-108485524D01*
X157373207Y-108336471D01*
X157242929Y-108206193D01*
X157093875Y-108097899D01*
X157070989Y-108086238D01*
X156929713Y-108014253D01*
X156754494Y-107957322D01*
X156639666Y-107939135D01*
X156572520Y-107928500D01*
X156388280Y-107928500D01*
X156327622Y-107938107D01*
X156206305Y-107957322D01*
X156031086Y-108014253D01*
X155866924Y-108097899D01*
X155781884Y-108159684D01*
X155717871Y-108206193D01*
X155717869Y-108206195D01*
X155717868Y-108206195D01*
X155587595Y-108336468D01*
X155587595Y-108336469D01*
X155587593Y-108336471D01*
X155579316Y-108347864D01*
X155479299Y-108485524D01*
X155395653Y-108649686D01*
X155338722Y-108824905D01*
X155317873Y-108956541D01*
X155287944Y-109019676D01*
X155228632Y-109056607D01*
X155158770Y-109055609D01*
X155100537Y-109016999D01*
X155072927Y-108956541D01*
X155052078Y-108824907D01*
X154995145Y-108649684D01*
X154911501Y-108485525D01*
X154803207Y-108336471D01*
X154672929Y-108206193D01*
X154523875Y-108097899D01*
X154500989Y-108086238D01*
X154359713Y-108014253D01*
X154184494Y-107957322D01*
X154069666Y-107939135D01*
X154002520Y-107928500D01*
X153818280Y-107928500D01*
X153757622Y-107938107D01*
X153636305Y-107957322D01*
X153461086Y-108014253D01*
X153296924Y-108097899D01*
X153211884Y-108159684D01*
X153147871Y-108206193D01*
X153147869Y-108206195D01*
X153147868Y-108206195D01*
X153017595Y-108336468D01*
X153017595Y-108336469D01*
X153017593Y-108336471D01*
X153009316Y-108347864D01*
X152909299Y-108485524D01*
X152825653Y-108649686D01*
X152768722Y-108824905D01*
X152762873Y-108861835D01*
X152732944Y-108924970D01*
X152673632Y-108961901D01*
X152603770Y-108960903D01*
X152545537Y-108922293D01*
X152517927Y-108861835D01*
X152516996Y-108855958D01*
X152512078Y-108824907D01*
X152455145Y-108649684D01*
X152371501Y-108485525D01*
X152263207Y-108336471D01*
X152132929Y-108206193D01*
X151983875Y-108097899D01*
X151960989Y-108086238D01*
X151819713Y-108014253D01*
X151644494Y-107957322D01*
X151529666Y-107939135D01*
X151462520Y-107928500D01*
X151278280Y-107928500D01*
X151217622Y-107938107D01*
X151096305Y-107957322D01*
X150921086Y-108014253D01*
X150756924Y-108097899D01*
X150671884Y-108159684D01*
X150607871Y-108206193D01*
X150607869Y-108206195D01*
X150607868Y-108206195D01*
X150477595Y-108336468D01*
X150477595Y-108336469D01*
X150477593Y-108336471D01*
X150469316Y-108347864D01*
X150369299Y-108485524D01*
X150285653Y-108649686D01*
X150233331Y-108810720D01*
X150193894Y-108868395D01*
X150129535Y-108895594D01*
X150060689Y-108883680D01*
X150009213Y-108836436D01*
X149997469Y-108810720D01*
X149945146Y-108649686D01*
X149861500Y-108485524D01*
X149753207Y-108336471D01*
X149622929Y-108206193D01*
X149473875Y-108097899D01*
X149450989Y-108086238D01*
X149309713Y-108014253D01*
X149134494Y-107957322D01*
X149019666Y-107939135D01*
X148952520Y-107928500D01*
X148768280Y-107928500D01*
X148707622Y-107938107D01*
X148586305Y-107957322D01*
X148411086Y-108014253D01*
X148246924Y-108097899D01*
X148161884Y-108159684D01*
X148097871Y-108206193D01*
X148097869Y-108206195D01*
X148097868Y-108206195D01*
X147967595Y-108336468D01*
X147967595Y-108336469D01*
X147967593Y-108336471D01*
X147959316Y-108347864D01*
X147859299Y-108485524D01*
X147775653Y-108649686D01*
X147718722Y-108824905D01*
X147712873Y-108861835D01*
X147682944Y-108924970D01*
X147623632Y-108961901D01*
X147553770Y-108960903D01*
X147495537Y-108922293D01*
X147467927Y-108861835D01*
X147466996Y-108855958D01*
X147462078Y-108824907D01*
X147405145Y-108649684D01*
X147321501Y-108485525D01*
X147213207Y-108336471D01*
X147082929Y-108206193D01*
X146933875Y-108097899D01*
X146910989Y-108086238D01*
X146769713Y-108014253D01*
X146594494Y-107957322D01*
X146479666Y-107939135D01*
X146412520Y-107928500D01*
X146228280Y-107928500D01*
X146167622Y-107938107D01*
X146046305Y-107957322D01*
X145871086Y-108014253D01*
X145706924Y-108097899D01*
X145621884Y-108159684D01*
X145557871Y-108206193D01*
X145557869Y-108206195D01*
X145557868Y-108206195D01*
X145427595Y-108336468D01*
X145427595Y-108336469D01*
X145427593Y-108336471D01*
X145419316Y-108347864D01*
X145319299Y-108485524D01*
X145235653Y-108649686D01*
X145178722Y-108824905D01*
X145149900Y-109006880D01*
X85527138Y-109006880D01*
X85527138Y-106962995D01*
X141809899Y-106962995D01*
X141836818Y-107098322D01*
X141836821Y-107098332D01*
X141889621Y-107225804D01*
X141889628Y-107225817D01*
X141966285Y-107340541D01*
X141966288Y-107340545D01*
X142063854Y-107438111D01*
X142063858Y-107438114D01*
X142178582Y-107514771D01*
X142178595Y-107514778D01*
X142306067Y-107567578D01*
X142306072Y-107567580D01*
X142306076Y-107567580D01*
X142306077Y-107567581D01*
X142441404Y-107594500D01*
X142441407Y-107594500D01*
X142579395Y-107594500D01*
X142670441Y-107576389D01*
X142714728Y-107567580D01*
X142842211Y-107514775D01*
X142956942Y-107438114D01*
X143054514Y-107340542D01*
X143131175Y-107225811D01*
X143183980Y-107098328D01*
X143210900Y-106962993D01*
X143210900Y-106825007D01*
X143210900Y-106825004D01*
X143183981Y-106689677D01*
X143183980Y-106689676D01*
X143183980Y-106689672D01*
X143183978Y-106689667D01*
X143131178Y-106562195D01*
X143131171Y-106562182D01*
X143059550Y-106454995D01*
X151461899Y-106454995D01*
X151488818Y-106590322D01*
X151488821Y-106590332D01*
X151541621Y-106717804D01*
X151541628Y-106717817D01*
X151618285Y-106832541D01*
X151618288Y-106832545D01*
X151715854Y-106930111D01*
X151715858Y-106930114D01*
X151830582Y-107006771D01*
X151830595Y-107006778D01*
X151958067Y-107059578D01*
X151958072Y-107059580D01*
X151958076Y-107059580D01*
X151958077Y-107059581D01*
X152093404Y-107086500D01*
X152093407Y-107086500D01*
X152231395Y-107086500D01*
X152322441Y-107068389D01*
X152366728Y-107059580D01*
X152494211Y-107006775D01*
X152608942Y-106930114D01*
X152706514Y-106832542D01*
X152783175Y-106717811D01*
X152835980Y-106590328D01*
X152862900Y-106454993D01*
X152862900Y-106317007D01*
X152862900Y-106317004D01*
X152835981Y-106181677D01*
X152835980Y-106181676D01*
X152835980Y-106181672D01*
X152835978Y-106181667D01*
X152783178Y-106054195D01*
X152783171Y-106054182D01*
X152706514Y-105939458D01*
X152706511Y-105939454D01*
X152608945Y-105841888D01*
X152608941Y-105841885D01*
X152494217Y-105765228D01*
X152494204Y-105765221D01*
X152366732Y-105712421D01*
X152366722Y-105712418D01*
X152231395Y-105685500D01*
X152231393Y-105685500D01*
X152093407Y-105685500D01*
X152093405Y-105685500D01*
X151958077Y-105712418D01*
X151958067Y-105712421D01*
X151830595Y-105765221D01*
X151830582Y-105765228D01*
X151715858Y-105841885D01*
X151715854Y-105841888D01*
X151618288Y-105939454D01*
X151618285Y-105939458D01*
X151541628Y-106054182D01*
X151541621Y-106054195D01*
X151488821Y-106181667D01*
X151488818Y-106181677D01*
X151461900Y-106317004D01*
X151461900Y-106317007D01*
X151461900Y-106454993D01*
X151461900Y-106454995D01*
X151461899Y-106454995D01*
X143059550Y-106454995D01*
X143054514Y-106447458D01*
X143054511Y-106447454D01*
X142956945Y-106349888D01*
X142956941Y-106349885D01*
X142842217Y-106273228D01*
X142842204Y-106273221D01*
X142714732Y-106220421D01*
X142714722Y-106220418D01*
X142579395Y-106193500D01*
X142579393Y-106193500D01*
X142441407Y-106193500D01*
X142441405Y-106193500D01*
X142306077Y-106220418D01*
X142306067Y-106220421D01*
X142178595Y-106273221D01*
X142178582Y-106273228D01*
X142063858Y-106349885D01*
X142063854Y-106349888D01*
X141966288Y-106447454D01*
X141966285Y-106447458D01*
X141889628Y-106562182D01*
X141889621Y-106562195D01*
X141836821Y-106689667D01*
X141836818Y-106689677D01*
X141809900Y-106825004D01*
X141809900Y-106825007D01*
X141809900Y-106962993D01*
X141809900Y-106962995D01*
X141809899Y-106962995D01*
X85527138Y-106962995D01*
X85527138Y-105438995D01*
X144349899Y-105438995D01*
X144376818Y-105574322D01*
X144376821Y-105574332D01*
X144429621Y-105701804D01*
X144429628Y-105701817D01*
X144506285Y-105816541D01*
X144506288Y-105816545D01*
X144603854Y-105914111D01*
X144603858Y-105914114D01*
X144718582Y-105990771D01*
X144718595Y-105990778D01*
X144846067Y-106043578D01*
X144846072Y-106043580D01*
X144846076Y-106043580D01*
X144846077Y-106043581D01*
X144981404Y-106070500D01*
X144981407Y-106070500D01*
X145119395Y-106070500D01*
X145210441Y-106052389D01*
X145254728Y-106043580D01*
X145382211Y-105990775D01*
X145496942Y-105914114D01*
X145594514Y-105816542D01*
X145671175Y-105701811D01*
X145723980Y-105574328D01*
X145750900Y-105438993D01*
X145750900Y-105301007D01*
X145750900Y-105301004D01*
X145723981Y-105165677D01*
X145723980Y-105165676D01*
X145723980Y-105165672D01*
X145723978Y-105165667D01*
X145671178Y-105038195D01*
X145671171Y-105038182D01*
X145594514Y-104923458D01*
X145594511Y-104923454D01*
X145496945Y-104825888D01*
X145496941Y-104825885D01*
X145382217Y-104749228D01*
X145382204Y-104749221D01*
X145254732Y-104696421D01*
X145254722Y-104696418D01*
X145119395Y-104669500D01*
X145119393Y-104669500D01*
X144981407Y-104669500D01*
X144981405Y-104669500D01*
X144846077Y-104696418D01*
X144846067Y-104696421D01*
X144718595Y-104749221D01*
X144718582Y-104749228D01*
X144603858Y-104825885D01*
X144603854Y-104825888D01*
X144506288Y-104923454D01*
X144506285Y-104923458D01*
X144429628Y-105038182D01*
X144429621Y-105038195D01*
X144376821Y-105165667D01*
X144376818Y-105165677D01*
X144349900Y-105301004D01*
X144349900Y-105301007D01*
X144349900Y-105438993D01*
X144349900Y-105438995D01*
X144349899Y-105438995D01*
X85527138Y-105438995D01*
X85527138Y-99850995D01*
X143587899Y-99850995D01*
X143614818Y-99986322D01*
X143614821Y-99986332D01*
X143667621Y-100113804D01*
X143667628Y-100113817D01*
X143744285Y-100228541D01*
X143744288Y-100228545D01*
X143841854Y-100326111D01*
X143841858Y-100326114D01*
X143956582Y-100402771D01*
X143956595Y-100402778D01*
X144084067Y-100455578D01*
X144084072Y-100455580D01*
X144084076Y-100455580D01*
X144084077Y-100455581D01*
X144219404Y-100482500D01*
X144219407Y-100482500D01*
X144357395Y-100482500D01*
X144448441Y-100464389D01*
X144492728Y-100455580D01*
X144620211Y-100402775D01*
X144734942Y-100326114D01*
X144832514Y-100228542D01*
X144909175Y-100113811D01*
X144961980Y-99986328D01*
X144988900Y-99850993D01*
X144988900Y-99713007D01*
X144988900Y-99713004D01*
X144961981Y-99577677D01*
X144961980Y-99577676D01*
X144961980Y-99577672D01*
X144961978Y-99577667D01*
X144909178Y-99450195D01*
X144909171Y-99450182D01*
X144837550Y-99342995D01*
X160605899Y-99342995D01*
X160632818Y-99478322D01*
X160632821Y-99478332D01*
X160685621Y-99605804D01*
X160685628Y-99605817D01*
X160762285Y-99720541D01*
X160762288Y-99720545D01*
X160859854Y-99818111D01*
X160859858Y-99818114D01*
X160974582Y-99894771D01*
X160974595Y-99894778D01*
X161102067Y-99947578D01*
X161102072Y-99947580D01*
X161102076Y-99947580D01*
X161102077Y-99947581D01*
X161237404Y-99974500D01*
X161237407Y-99974500D01*
X161375395Y-99974500D01*
X161466441Y-99956389D01*
X161510728Y-99947580D01*
X161638211Y-99894775D01*
X161752942Y-99818114D01*
X161850514Y-99720542D01*
X161927175Y-99605811D01*
X161979980Y-99478328D01*
X162006900Y-99342993D01*
X162006900Y-99205007D01*
X162006900Y-99205004D01*
X161979981Y-99069677D01*
X161979980Y-99069676D01*
X161979980Y-99069672D01*
X161979978Y-99069667D01*
X161927178Y-98942195D01*
X161927171Y-98942182D01*
X161850514Y-98827458D01*
X161850511Y-98827454D01*
X161752945Y-98729888D01*
X161752941Y-98729885D01*
X161638217Y-98653228D01*
X161638204Y-98653221D01*
X161510732Y-98600421D01*
X161510722Y-98600418D01*
X161375395Y-98573500D01*
X161375393Y-98573500D01*
X161237407Y-98573500D01*
X161237405Y-98573500D01*
X161102077Y-98600418D01*
X161102067Y-98600421D01*
X160974595Y-98653221D01*
X160974582Y-98653228D01*
X160859858Y-98729885D01*
X160859854Y-98729888D01*
X160762288Y-98827454D01*
X160762285Y-98827458D01*
X160685628Y-98942182D01*
X160685621Y-98942195D01*
X160632821Y-99069667D01*
X160632818Y-99069677D01*
X160605900Y-99205004D01*
X160605900Y-99205007D01*
X160605900Y-99342993D01*
X160605900Y-99342995D01*
X160605899Y-99342995D01*
X144837550Y-99342995D01*
X144832514Y-99335458D01*
X144832511Y-99335454D01*
X144734945Y-99237888D01*
X144734941Y-99237885D01*
X144620217Y-99161228D01*
X144620204Y-99161221D01*
X144492732Y-99108421D01*
X144492722Y-99108418D01*
X144357395Y-99081500D01*
X144357393Y-99081500D01*
X144219407Y-99081500D01*
X144219405Y-99081500D01*
X144084077Y-99108418D01*
X144084067Y-99108421D01*
X143956595Y-99161221D01*
X143956582Y-99161228D01*
X143841858Y-99237885D01*
X143841854Y-99237888D01*
X143744288Y-99335454D01*
X143744285Y-99335458D01*
X143667628Y-99450182D01*
X143667621Y-99450195D01*
X143614821Y-99577667D01*
X143614818Y-99577677D01*
X143587900Y-99713004D01*
X143587900Y-99713007D01*
X143587900Y-99850993D01*
X143587900Y-99850995D01*
X143587899Y-99850995D01*
X85527138Y-99850995D01*
X85527138Y-98136495D01*
X142317899Y-98136495D01*
X142344818Y-98271822D01*
X142344821Y-98271832D01*
X142397621Y-98399304D01*
X142397628Y-98399317D01*
X142474285Y-98514041D01*
X142474288Y-98514045D01*
X142571854Y-98611611D01*
X142571858Y-98611614D01*
X142686582Y-98688271D01*
X142686595Y-98688278D01*
X142787047Y-98729886D01*
X142814072Y-98741080D01*
X142814076Y-98741080D01*
X142814077Y-98741081D01*
X142949404Y-98768000D01*
X142949407Y-98768000D01*
X143087395Y-98768000D01*
X143178441Y-98749889D01*
X143222728Y-98741080D01*
X143350211Y-98688275D01*
X143464942Y-98611614D01*
X143562514Y-98514042D01*
X143639175Y-98399311D01*
X143691980Y-98271828D01*
X143718900Y-98136493D01*
X143718900Y-97998507D01*
X143718900Y-97998504D01*
X143691981Y-97863177D01*
X143691980Y-97863176D01*
X143691980Y-97863172D01*
X143691978Y-97863167D01*
X143639178Y-97735695D01*
X143639171Y-97735682D01*
X143562514Y-97620958D01*
X143562511Y-97620954D01*
X143464945Y-97523388D01*
X143464941Y-97523385D01*
X143350217Y-97446728D01*
X143350204Y-97446721D01*
X143222732Y-97393921D01*
X143222722Y-97393918D01*
X143087395Y-97367000D01*
X143087393Y-97367000D01*
X142949407Y-97367000D01*
X142949405Y-97367000D01*
X142814077Y-97393918D01*
X142814067Y-97393921D01*
X142686595Y-97446721D01*
X142686582Y-97446728D01*
X142571858Y-97523385D01*
X142571854Y-97523388D01*
X142474288Y-97620954D01*
X142474285Y-97620958D01*
X142397628Y-97735682D01*
X142397621Y-97735695D01*
X142344821Y-97863167D01*
X142344818Y-97863177D01*
X142317900Y-97998504D01*
X142317900Y-97998507D01*
X142317900Y-98136493D01*
X142317900Y-98136495D01*
X142317899Y-98136495D01*
X85527138Y-98136495D01*
X85527138Y-96294995D01*
X141047899Y-96294995D01*
X141074818Y-96430322D01*
X141074821Y-96430332D01*
X141127621Y-96557804D01*
X141127628Y-96557817D01*
X141204285Y-96672541D01*
X141204288Y-96672545D01*
X141301854Y-96770111D01*
X141301858Y-96770114D01*
X141416582Y-96846771D01*
X141416595Y-96846778D01*
X141544067Y-96899578D01*
X141544072Y-96899580D01*
X141544076Y-96899580D01*
X141544077Y-96899581D01*
X141679404Y-96926500D01*
X141679407Y-96926500D01*
X141817395Y-96926500D01*
X141908441Y-96908389D01*
X141952728Y-96899580D01*
X142080211Y-96846775D01*
X142194942Y-96770114D01*
X142292514Y-96672542D01*
X142369175Y-96557811D01*
X142421980Y-96430328D01*
X142448900Y-96294993D01*
X142448900Y-96157007D01*
X142448900Y-96157004D01*
X142421981Y-96021677D01*
X142421980Y-96021676D01*
X142421980Y-96021672D01*
X142421978Y-96021667D01*
X142369178Y-95894195D01*
X142369171Y-95894182D01*
X142292514Y-95779458D01*
X142292511Y-95779454D01*
X142194945Y-95681888D01*
X142194941Y-95681885D01*
X142080217Y-95605228D01*
X142080204Y-95605221D01*
X141952732Y-95552421D01*
X141952722Y-95552418D01*
X141817395Y-95525500D01*
X141817393Y-95525500D01*
X141679407Y-95525500D01*
X141679405Y-95525500D01*
X141544077Y-95552418D01*
X141544067Y-95552421D01*
X141416595Y-95605221D01*
X141416582Y-95605228D01*
X141301858Y-95681885D01*
X141301854Y-95681888D01*
X141204288Y-95779454D01*
X141204285Y-95779458D01*
X141127628Y-95894182D01*
X141127621Y-95894195D01*
X141074821Y-96021667D01*
X141074818Y-96021677D01*
X141047900Y-96157004D01*
X141047900Y-96157007D01*
X141047900Y-96294993D01*
X141047900Y-96294995D01*
X141047899Y-96294995D01*
X85527138Y-96294995D01*
X85527138Y-93500995D01*
X159589899Y-93500995D01*
X159616818Y-93636322D01*
X159616821Y-93636332D01*
X159669621Y-93763804D01*
X159669628Y-93763817D01*
X159746285Y-93878541D01*
X159746288Y-93878545D01*
X159843854Y-93976111D01*
X159843858Y-93976114D01*
X159958582Y-94052771D01*
X159958595Y-94052778D01*
X160086067Y-94105578D01*
X160086072Y-94105580D01*
X160086076Y-94105580D01*
X160086077Y-94105581D01*
X160221404Y-94132500D01*
X160221407Y-94132500D01*
X160359395Y-94132500D01*
X160450441Y-94114389D01*
X160494728Y-94105580D01*
X160622211Y-94052775D01*
X160736942Y-93976114D01*
X160834514Y-93878542D01*
X160911175Y-93763811D01*
X160963980Y-93636328D01*
X160990900Y-93500993D01*
X160990900Y-93363007D01*
X160990900Y-93363004D01*
X160963981Y-93227677D01*
X160963980Y-93227676D01*
X160963980Y-93227672D01*
X160917714Y-93115975D01*
X160911178Y-93100195D01*
X160911171Y-93100182D01*
X160834514Y-92985458D01*
X160834511Y-92985454D01*
X160736945Y-92887888D01*
X160736941Y-92887885D01*
X160622217Y-92811228D01*
X160622204Y-92811221D01*
X160494732Y-92758421D01*
X160494722Y-92758418D01*
X160359395Y-92731500D01*
X160359393Y-92731500D01*
X160221407Y-92731500D01*
X160221405Y-92731500D01*
X160086077Y-92758418D01*
X160086067Y-92758421D01*
X159958595Y-92811221D01*
X159958582Y-92811228D01*
X159843858Y-92887885D01*
X159843854Y-92887888D01*
X159746288Y-92985454D01*
X159746285Y-92985458D01*
X159669628Y-93100182D01*
X159669621Y-93100195D01*
X159616821Y-93227667D01*
X159616818Y-93227677D01*
X159589900Y-93363004D01*
X159589900Y-93363007D01*
X159589900Y-93500993D01*
X159589900Y-93500995D01*
X159589899Y-93500995D01*
X85527138Y-93500995D01*
X85527138Y-92196530D01*
X188753500Y-92196530D01*
X188753500Y-92403469D01*
X188793868Y-92606412D01*
X188793870Y-92606420D01*
X188873058Y-92797596D01*
X188988024Y-92969657D01*
X189134342Y-93115975D01*
X189134345Y-93115977D01*
X189306402Y-93230941D01*
X189497580Y-93310130D01*
X189700530Y-93350499D01*
X189700534Y-93350500D01*
X189700535Y-93350500D01*
X189907466Y-93350500D01*
X189907467Y-93350499D01*
X190110420Y-93310130D01*
X190301598Y-93230941D01*
X190473655Y-93115977D01*
X190619977Y-92969655D01*
X190734941Y-92797598D01*
X190814130Y-92606420D01*
X190854500Y-92403465D01*
X190854500Y-92196535D01*
X190854499Y-92196530D01*
X191753500Y-92196530D01*
X191753500Y-92403469D01*
X191793868Y-92606412D01*
X191793870Y-92606420D01*
X191873058Y-92797596D01*
X191988024Y-92969657D01*
X192134342Y-93115975D01*
X192134345Y-93115977D01*
X192306402Y-93230941D01*
X192497580Y-93310130D01*
X192700530Y-93350499D01*
X192700534Y-93350500D01*
X192700535Y-93350500D01*
X192907466Y-93350500D01*
X192907467Y-93350499D01*
X193110420Y-93310130D01*
X193301598Y-93230941D01*
X193473655Y-93115977D01*
X193619977Y-92969655D01*
X193734941Y-92797598D01*
X193814130Y-92606420D01*
X193854500Y-92403465D01*
X193854500Y-92196535D01*
X193814130Y-91993580D01*
X193734941Y-91802402D01*
X193619977Y-91630345D01*
X193619975Y-91630342D01*
X193473657Y-91484024D01*
X193387626Y-91426541D01*
X193301598Y-91369059D01*
X193110420Y-91289870D01*
X193110412Y-91289868D01*
X192907469Y-91249500D01*
X192907465Y-91249500D01*
X192700535Y-91249500D01*
X192700530Y-91249500D01*
X192497587Y-91289868D01*
X192497579Y-91289870D01*
X192306403Y-91369058D01*
X192134342Y-91484024D01*
X191988024Y-91630342D01*
X191873058Y-91802403D01*
X191793870Y-91993579D01*
X191793868Y-91993587D01*
X191753500Y-92196530D01*
X190854499Y-92196530D01*
X190814130Y-91993580D01*
X190734941Y-91802402D01*
X190619977Y-91630345D01*
X190619975Y-91630342D01*
X190473657Y-91484024D01*
X190387626Y-91426541D01*
X190301598Y-91369059D01*
X190110420Y-91289870D01*
X190110412Y-91289868D01*
X189907469Y-91249500D01*
X189907465Y-91249500D01*
X189700535Y-91249500D01*
X189700530Y-91249500D01*
X189497587Y-91289868D01*
X189497579Y-91289870D01*
X189306403Y-91369058D01*
X189134342Y-91484024D01*
X188988024Y-91630342D01*
X188873058Y-91802403D01*
X188793870Y-91993579D01*
X188793868Y-91993587D01*
X188753500Y-92196530D01*
X85527138Y-92196530D01*
X85527138Y-88786857D01*
X119302638Y-88786857D01*
X119302638Y-88987788D01*
X119341834Y-89184838D01*
X119341836Y-89184846D01*
X119418724Y-89370471D01*
X119418729Y-89370479D01*
X119516452Y-89516730D01*
X119965112Y-89068071D01*
X120002558Y-89132929D01*
X120077032Y-89207403D01*
X120141888Y-89244847D01*
X119693228Y-89693508D01*
X119839489Y-89791236D01*
X120025114Y-89868124D01*
X120025122Y-89868126D01*
X120222172Y-89907322D01*
X120222176Y-89907323D01*
X120423100Y-89907323D01*
X120423103Y-89907322D01*
X120620153Y-89868126D01*
X120620161Y-89868124D01*
X120805786Y-89791236D01*
X120952046Y-89693508D01*
X120952046Y-89693507D01*
X120503387Y-89244847D01*
X120568244Y-89207403D01*
X120642718Y-89132929D01*
X120680163Y-89068072D01*
X121128822Y-89516731D01*
X121128823Y-89516731D01*
X121226551Y-89370471D01*
X121303439Y-89184846D01*
X121303441Y-89184838D01*
X121342637Y-88987788D01*
X121342638Y-88987785D01*
X121342638Y-88786860D01*
X121342637Y-88786858D01*
X121342627Y-88786807D01*
X121842138Y-88786807D01*
X121842138Y-88987838D01*
X121881353Y-89184984D01*
X121881356Y-89184996D01*
X121958278Y-89370704D01*
X121958285Y-89370717D01*
X122069963Y-89537853D01*
X122069966Y-89537857D01*
X122212103Y-89679994D01*
X122212107Y-89679997D01*
X122379243Y-89791675D01*
X122379256Y-89791682D01*
X122563805Y-89868124D01*
X122564969Y-89868606D01*
X122759608Y-89907322D01*
X122762122Y-89907822D01*
X122762126Y-89907823D01*
X122762127Y-89907823D01*
X122963150Y-89907823D01*
X122963151Y-89907822D01*
X123160307Y-89868606D01*
X123303945Y-89809109D01*
X123346019Y-89791682D01*
X123346019Y-89791681D01*
X123346026Y-89791679D01*
X123513169Y-89679997D01*
X123655312Y-89537854D01*
X123766994Y-89370711D01*
X123767094Y-89370471D01*
X123839120Y-89196583D01*
X123843921Y-89184992D01*
X123883138Y-88987834D01*
X123883138Y-88786812D01*
X123883137Y-88786807D01*
X124382138Y-88786807D01*
X124382138Y-88987838D01*
X124421353Y-89184984D01*
X124421356Y-89184996D01*
X124498278Y-89370704D01*
X124498285Y-89370717D01*
X124609963Y-89537853D01*
X124609966Y-89537857D01*
X124752103Y-89679994D01*
X124752107Y-89679997D01*
X124919243Y-89791675D01*
X124919256Y-89791682D01*
X125103805Y-89868124D01*
X125104969Y-89868606D01*
X125299608Y-89907322D01*
X125302122Y-89907822D01*
X125302126Y-89907823D01*
X125302127Y-89907823D01*
X125503150Y-89907823D01*
X125503151Y-89907822D01*
X125700307Y-89868606D01*
X125843945Y-89809109D01*
X125886019Y-89791682D01*
X125886019Y-89791681D01*
X125886026Y-89791679D01*
X126053169Y-89679997D01*
X126195312Y-89537854D01*
X126306994Y-89370711D01*
X126307094Y-89370471D01*
X126379120Y-89196583D01*
X126379122Y-89196579D01*
X188754000Y-89196579D01*
X188754000Y-89403420D01*
X188794348Y-89606266D01*
X188794350Y-89606274D01*
X188873500Y-89797358D01*
X188873505Y-89797368D01*
X188976185Y-89951037D01*
X189365948Y-89561274D01*
X189395898Y-89613147D01*
X189490853Y-89708102D01*
X189542725Y-89738050D01*
X189152961Y-90127814D01*
X189306640Y-90230499D01*
X189497725Y-90309649D01*
X189497733Y-90309651D01*
X189700579Y-90349999D01*
X189700583Y-90350000D01*
X189907417Y-90350000D01*
X189907420Y-90349999D01*
X190110266Y-90309651D01*
X190110274Y-90309649D01*
X190301359Y-90230499D01*
X190455038Y-90127814D01*
X190065275Y-89738050D01*
X190117147Y-89708102D01*
X190212102Y-89613147D01*
X190242050Y-89561274D01*
X190631814Y-89951038D01*
X190734499Y-89797359D01*
X190813649Y-89606274D01*
X190813651Y-89606266D01*
X190853999Y-89403420D01*
X190854000Y-89403417D01*
X190854000Y-89196583D01*
X190853999Y-89196579D01*
X191754000Y-89196579D01*
X191754000Y-89403420D01*
X191794348Y-89606266D01*
X191794350Y-89606274D01*
X191873500Y-89797358D01*
X191873505Y-89797368D01*
X191976185Y-89951037D01*
X192365948Y-89561274D01*
X192395898Y-89613147D01*
X192490853Y-89708102D01*
X192542725Y-89738050D01*
X192152961Y-90127814D01*
X192306640Y-90230499D01*
X192497725Y-90309649D01*
X192497733Y-90309651D01*
X192700579Y-90349999D01*
X192700583Y-90350000D01*
X192907417Y-90350000D01*
X192907420Y-90349999D01*
X193110266Y-90309651D01*
X193110274Y-90309649D01*
X193301359Y-90230499D01*
X193455038Y-90127814D01*
X193372482Y-90045258D01*
X195373500Y-90045258D01*
X195373500Y-90274741D01*
X195383409Y-90350000D01*
X195403452Y-90502238D01*
X195403453Y-90502240D01*
X195462842Y-90723887D01*
X195550650Y-90935876D01*
X195550657Y-90935890D01*
X195665392Y-91134617D01*
X195805081Y-91316661D01*
X195805089Y-91316670D01*
X195967330Y-91478911D01*
X195967338Y-91478918D01*
X196149382Y-91618607D01*
X196149385Y-91618608D01*
X196149388Y-91618611D01*
X196348112Y-91733344D01*
X196348117Y-91733346D01*
X196348123Y-91733349D01*
X196439480Y-91771190D01*
X196560113Y-91821158D01*
X196781762Y-91880548D01*
X197009266Y-91910500D01*
X197009273Y-91910500D01*
X197238727Y-91910500D01*
X197238734Y-91910500D01*
X197466238Y-91880548D01*
X197687887Y-91821158D01*
X197899888Y-91733344D01*
X198098612Y-91618611D01*
X198280661Y-91478919D01*
X198280665Y-91478914D01*
X198280670Y-91478911D01*
X198442911Y-91316670D01*
X198442914Y-91316665D01*
X198442919Y-91316661D01*
X198582611Y-91134612D01*
X198697344Y-90935888D01*
X198785158Y-90723887D01*
X198844548Y-90502238D01*
X198874500Y-90274734D01*
X198874500Y-90045266D01*
X198844548Y-89817762D01*
X198785158Y-89596113D01*
X198705342Y-89403420D01*
X198697349Y-89384123D01*
X198697346Y-89384117D01*
X198697344Y-89384112D01*
X198582611Y-89185388D01*
X198582608Y-89185385D01*
X198582607Y-89185382D01*
X198442918Y-89003338D01*
X198442911Y-89003330D01*
X198280670Y-88841089D01*
X198280661Y-88841081D01*
X198098617Y-88701392D01*
X197899890Y-88586657D01*
X197899876Y-88586650D01*
X197687887Y-88498842D01*
X197644897Y-88487323D01*
X197466238Y-88439452D01*
X197428215Y-88434446D01*
X197238741Y-88409500D01*
X197238734Y-88409500D01*
X197009266Y-88409500D01*
X197009258Y-88409500D01*
X196792715Y-88438009D01*
X196781762Y-88439452D01*
X196688076Y-88464554D01*
X196560112Y-88498842D01*
X196348123Y-88586650D01*
X196348109Y-88586657D01*
X196149382Y-88701392D01*
X195967338Y-88841081D01*
X195805081Y-89003338D01*
X195665392Y-89185382D01*
X195550657Y-89384109D01*
X195550650Y-89384123D01*
X195462842Y-89596112D01*
X195460119Y-89606274D01*
X195408917Y-89797368D01*
X195403453Y-89817759D01*
X195403451Y-89817770D01*
X195373500Y-90045258D01*
X193372482Y-90045258D01*
X193065275Y-89738050D01*
X193117147Y-89708102D01*
X193212102Y-89613147D01*
X193242050Y-89561274D01*
X193631814Y-89951038D01*
X193734499Y-89797359D01*
X193813649Y-89606274D01*
X193813651Y-89606266D01*
X193853999Y-89403420D01*
X193854000Y-89403417D01*
X193854000Y-89196583D01*
X193853999Y-89196579D01*
X193813651Y-88993733D01*
X193813649Y-88993725D01*
X193734499Y-88802640D01*
X193631814Y-88648961D01*
X193242050Y-89038724D01*
X193212102Y-88986853D01*
X193117147Y-88891898D01*
X193065274Y-88861949D01*
X193455037Y-88472185D01*
X193455037Y-88472184D01*
X193301368Y-88369505D01*
X193301358Y-88369500D01*
X193110274Y-88290350D01*
X193110266Y-88290348D01*
X192907420Y-88250000D01*
X192700579Y-88250000D01*
X192497733Y-88290348D01*
X192497725Y-88290350D01*
X192306636Y-88369502D01*
X192306635Y-88369502D01*
X192152961Y-88472183D01*
X192152961Y-88472185D01*
X192542725Y-88861949D01*
X192490853Y-88891898D01*
X192395898Y-88986853D01*
X192365949Y-89038724D01*
X191976185Y-88648961D01*
X191976183Y-88648961D01*
X191873502Y-88802635D01*
X191873502Y-88802636D01*
X191794350Y-88993725D01*
X191794348Y-88993733D01*
X191754000Y-89196579D01*
X190853999Y-89196579D01*
X190813651Y-88993733D01*
X190813649Y-88993725D01*
X190734499Y-88802640D01*
X190631814Y-88648961D01*
X190242050Y-89038724D01*
X190212102Y-88986853D01*
X190117147Y-88891898D01*
X190065274Y-88861949D01*
X190455037Y-88472185D01*
X190455037Y-88472184D01*
X190301368Y-88369505D01*
X190301358Y-88369500D01*
X190110274Y-88290350D01*
X190110266Y-88290348D01*
X189907420Y-88250000D01*
X189700579Y-88250000D01*
X189497733Y-88290348D01*
X189497725Y-88290350D01*
X189306636Y-88369502D01*
X189306635Y-88369502D01*
X189152961Y-88472183D01*
X189152961Y-88472185D01*
X189542725Y-88861949D01*
X189490853Y-88891898D01*
X189395898Y-88986853D01*
X189365949Y-89038724D01*
X188976185Y-88648961D01*
X188976183Y-88648961D01*
X188873502Y-88802635D01*
X188873502Y-88802636D01*
X188794350Y-88993725D01*
X188794348Y-88993733D01*
X188754000Y-89196579D01*
X126379122Y-89196579D01*
X126383921Y-89184992D01*
X126423138Y-88987834D01*
X126423138Y-88786812D01*
X126383921Y-88589654D01*
X126307093Y-88404174D01*
X126306995Y-88403937D01*
X126306990Y-88403928D01*
X126195312Y-88236792D01*
X126195309Y-88236788D01*
X126053172Y-88094651D01*
X126053168Y-88094648D01*
X125886032Y-87982970D01*
X125886019Y-87982963D01*
X125700311Y-87906041D01*
X125700299Y-87906038D01*
X125503153Y-87866823D01*
X125503149Y-87866823D01*
X125302127Y-87866823D01*
X125302122Y-87866823D01*
X125104976Y-87906038D01*
X125104964Y-87906041D01*
X124919256Y-87982963D01*
X124919243Y-87982970D01*
X124752107Y-88094648D01*
X124752103Y-88094651D01*
X124609966Y-88236788D01*
X124609963Y-88236792D01*
X124498285Y-88403928D01*
X124498278Y-88403941D01*
X124421356Y-88589649D01*
X124421353Y-88589661D01*
X124382138Y-88786807D01*
X123883137Y-88786807D01*
X123843921Y-88589654D01*
X123834060Y-88565847D01*
X123766997Y-88403941D01*
X123766990Y-88403928D01*
X123655312Y-88236792D01*
X123655309Y-88236788D01*
X123513172Y-88094651D01*
X123513168Y-88094648D01*
X123346032Y-87982970D01*
X123346019Y-87982963D01*
X123160311Y-87906041D01*
X123160299Y-87906038D01*
X122963153Y-87866823D01*
X122963149Y-87866823D01*
X122762127Y-87866823D01*
X122762122Y-87866823D01*
X122564976Y-87906038D01*
X122564964Y-87906041D01*
X122379256Y-87982963D01*
X122379243Y-87982970D01*
X122212107Y-88094648D01*
X122212103Y-88094651D01*
X122069966Y-88236788D01*
X122069963Y-88236792D01*
X121958285Y-88403928D01*
X121958278Y-88403941D01*
X121881356Y-88589649D01*
X121881353Y-88589661D01*
X121842138Y-88786807D01*
X121342627Y-88786807D01*
X121303441Y-88589807D01*
X121303439Y-88589799D01*
X121226551Y-88404174D01*
X121128823Y-88257913D01*
X120680162Y-88706573D01*
X120642718Y-88641717D01*
X120568244Y-88567243D01*
X120503386Y-88529797D01*
X120952045Y-88081137D01*
X120952045Y-88081136D01*
X120805794Y-87983414D01*
X120805786Y-87983409D01*
X120620161Y-87906521D01*
X120620153Y-87906519D01*
X120423103Y-87867323D01*
X120222172Y-87867323D01*
X120025122Y-87906519D01*
X120025114Y-87906521D01*
X119839485Y-87983411D01*
X119693229Y-88081135D01*
X119693229Y-88081137D01*
X120141889Y-88529797D01*
X120077032Y-88567243D01*
X120002558Y-88641717D01*
X119965112Y-88706574D01*
X119516452Y-88257914D01*
X119516450Y-88257914D01*
X119418726Y-88404170D01*
X119341836Y-88589799D01*
X119341834Y-88589807D01*
X119302638Y-88786857D01*
X85527138Y-88786857D01*
X85527138Y-86174630D01*
X110032137Y-86174630D01*
X110063860Y-86334106D01*
X110063863Y-86334116D01*
X110126088Y-86484342D01*
X110126090Y-86484346D01*
X110216426Y-86619543D01*
X110216432Y-86619551D01*
X110237876Y-86640995D01*
X110271361Y-86702318D01*
X110266377Y-86772010D01*
X110237880Y-86816354D01*
X110216817Y-86837418D01*
X110216816Y-86837419D01*
X110126530Y-86972541D01*
X110126529Y-86972543D01*
X110064343Y-87122674D01*
X110064340Y-87122686D01*
X110041339Y-87238323D01*
X110727903Y-87238323D01*
X110707638Y-87313953D01*
X110707638Y-87412693D01*
X110727903Y-87488323D01*
X110041339Y-87488323D01*
X110064340Y-87603959D01*
X110064343Y-87603971D01*
X110126529Y-87754102D01*
X110126530Y-87754104D01*
X110216818Y-87889229D01*
X110216821Y-87889233D01*
X110331727Y-88004139D01*
X110331731Y-88004142D01*
X110466856Y-88094430D01*
X110466858Y-88094431D01*
X110616989Y-88156617D01*
X110617001Y-88156620D01*
X110776378Y-88188322D01*
X110776382Y-88188323D01*
X110957638Y-88188323D01*
X110957638Y-87718057D01*
X111033268Y-87738323D01*
X111132008Y-87738323D01*
X111207638Y-87718057D01*
X111207638Y-88188323D01*
X111388894Y-88188323D01*
X111388897Y-88188322D01*
X111548274Y-88156620D01*
X111548286Y-88156617D01*
X111698417Y-88094431D01*
X111698419Y-88094430D01*
X111803458Y-88024246D01*
X111833544Y-88004142D01*
X111833548Y-88004139D01*
X111948454Y-87889233D01*
X111948457Y-87889229D01*
X112038745Y-87754104D01*
X112038746Y-87754102D01*
X112100932Y-87603971D01*
X112100935Y-87603959D01*
X112123937Y-87488323D01*
X111437373Y-87488323D01*
X111457638Y-87412693D01*
X111457638Y-87313953D01*
X111437373Y-87238323D01*
X112123937Y-87238323D01*
X112100935Y-87122686D01*
X112100932Y-87122674D01*
X112038746Y-86972543D01*
X112038745Y-86972541D01*
X111948457Y-86837416D01*
X111948454Y-86837412D01*
X111927399Y-86816357D01*
X111893914Y-86755034D01*
X111898898Y-86685342D01*
X111927398Y-86640995D01*
X111948846Y-86619548D01*
X112039186Y-86484344D01*
X112101414Y-86334112D01*
X112128781Y-86196530D01*
X188753500Y-86196530D01*
X188753500Y-86403469D01*
X188793868Y-86606412D01*
X188793870Y-86606420D01*
X188865318Y-86778911D01*
X188873059Y-86797598D01*
X188930541Y-86883626D01*
X188988024Y-86969657D01*
X189134342Y-87115975D01*
X189134345Y-87115977D01*
X189306402Y-87230941D01*
X189497580Y-87310130D01*
X189700530Y-87350499D01*
X189700534Y-87350500D01*
X189700535Y-87350500D01*
X189907466Y-87350500D01*
X189907467Y-87350499D01*
X190110420Y-87310130D01*
X190301598Y-87230941D01*
X190473655Y-87115977D01*
X190619977Y-86969655D01*
X190734941Y-86797598D01*
X190814130Y-86606420D01*
X190854500Y-86403465D01*
X190854500Y-86196535D01*
X190854499Y-86196530D01*
X191753500Y-86196530D01*
X191753500Y-86403469D01*
X191793868Y-86606412D01*
X191793870Y-86606420D01*
X191865318Y-86778911D01*
X191873059Y-86797598D01*
X191930541Y-86883626D01*
X191988024Y-86969657D01*
X192134342Y-87115975D01*
X192134345Y-87115977D01*
X192306402Y-87230941D01*
X192497580Y-87310130D01*
X192700530Y-87350499D01*
X192700534Y-87350500D01*
X192700535Y-87350500D01*
X192907466Y-87350500D01*
X192907467Y-87350499D01*
X193110420Y-87310130D01*
X193301598Y-87230941D01*
X193473655Y-87115977D01*
X193619977Y-86969655D01*
X193734941Y-86797598D01*
X193814130Y-86606420D01*
X193854500Y-86403465D01*
X193854500Y-86196535D01*
X193814130Y-85993580D01*
X193734941Y-85802402D01*
X193619977Y-85630345D01*
X193619975Y-85630342D01*
X193473658Y-85484025D01*
X193473650Y-85484019D01*
X193414294Y-85444358D01*
X193414220Y-85444310D01*
X193337696Y-85393179D01*
X193301598Y-85369059D01*
X193297682Y-85367437D01*
X193244138Y-85345258D01*
X195373500Y-85345258D01*
X195373500Y-85574741D01*
X195398446Y-85764215D01*
X195403452Y-85802238D01*
X195416929Y-85852534D01*
X195462842Y-86023887D01*
X195550650Y-86235876D01*
X195550657Y-86235890D01*
X195665392Y-86434617D01*
X195805081Y-86616661D01*
X195805089Y-86616670D01*
X195967330Y-86778911D01*
X195967338Y-86778918D01*
X196149382Y-86918607D01*
X196149385Y-86918608D01*
X196149388Y-86918611D01*
X196348112Y-87033344D01*
X196348117Y-87033346D01*
X196348123Y-87033349D01*
X196420306Y-87063248D01*
X196560113Y-87121158D01*
X196781762Y-87180548D01*
X197009266Y-87210500D01*
X197009273Y-87210500D01*
X197238727Y-87210500D01*
X197238734Y-87210500D01*
X197466238Y-87180548D01*
X197687887Y-87121158D01*
X197899888Y-87033344D01*
X198098612Y-86918611D01*
X198280661Y-86778919D01*
X198280665Y-86778914D01*
X198280670Y-86778911D01*
X198442911Y-86616670D01*
X198442914Y-86616665D01*
X198442919Y-86616661D01*
X198582611Y-86434612D01*
X198697344Y-86235888D01*
X198785158Y-86023887D01*
X198844548Y-85802238D01*
X198874500Y-85574734D01*
X198874500Y-85345266D01*
X198844548Y-85117762D01*
X198785158Y-84896113D01*
X198697344Y-84684112D01*
X198582611Y-84485388D01*
X198582608Y-84485385D01*
X198582607Y-84485382D01*
X198470954Y-84339875D01*
X198442919Y-84303339D01*
X198442918Y-84303338D01*
X198442911Y-84303330D01*
X198280670Y-84141089D01*
X198280661Y-84141081D01*
X198098617Y-84001392D01*
X197899890Y-83886657D01*
X197899876Y-83886650D01*
X197687887Y-83798842D01*
X197683237Y-83797596D01*
X197466238Y-83739452D01*
X197428215Y-83734446D01*
X197238741Y-83709500D01*
X197238734Y-83709500D01*
X197009266Y-83709500D01*
X197009258Y-83709500D01*
X196792715Y-83738009D01*
X196781762Y-83739452D01*
X196688076Y-83764554D01*
X196560112Y-83798842D01*
X196348123Y-83886650D01*
X196348109Y-83886657D01*
X196149382Y-84001392D01*
X195967338Y-84141081D01*
X195805081Y-84303338D01*
X195665392Y-84485382D01*
X195550657Y-84684109D01*
X195550650Y-84684123D01*
X195462842Y-84896112D01*
X195403453Y-85117759D01*
X195403451Y-85117770D01*
X195373500Y-85345258D01*
X193244138Y-85345258D01*
X193110420Y-85289870D01*
X193110412Y-85289868D01*
X192907469Y-85249500D01*
X192907465Y-85249500D01*
X192700535Y-85249500D01*
X192700530Y-85249500D01*
X192497587Y-85289868D01*
X192497579Y-85289870D01*
X192306403Y-85369058D01*
X192134342Y-85484024D01*
X191988024Y-85630342D01*
X191873058Y-85802403D01*
X191793870Y-85993579D01*
X191793868Y-85993587D01*
X191753500Y-86196530D01*
X190854499Y-86196530D01*
X190814130Y-85993580D01*
X190734941Y-85802402D01*
X190619977Y-85630345D01*
X190619975Y-85630342D01*
X190473657Y-85484024D01*
X190337696Y-85393179D01*
X190301598Y-85369059D01*
X190297682Y-85367437D01*
X190110420Y-85289870D01*
X190110412Y-85289868D01*
X189907469Y-85249500D01*
X189907465Y-85249500D01*
X189700535Y-85249500D01*
X189700530Y-85249500D01*
X189497587Y-85289868D01*
X189497579Y-85289870D01*
X189306403Y-85369058D01*
X189134342Y-85484024D01*
X188988024Y-85630342D01*
X188873058Y-85802403D01*
X188793870Y-85993579D01*
X188793868Y-85993587D01*
X188753500Y-86196530D01*
X112128781Y-86196530D01*
X112133138Y-86174628D01*
X112133138Y-86012018D01*
X112133138Y-86012015D01*
X112101415Y-85852539D01*
X112101414Y-85852538D01*
X112101414Y-85852534D01*
X112080577Y-85802229D01*
X112039189Y-85702308D01*
X112036313Y-85696927D01*
X112038353Y-85695836D01*
X112020549Y-85638981D01*
X112039032Y-85571600D01*
X112056845Y-85549086D01*
X112084844Y-85521088D01*
X112130223Y-85418314D01*
X112133138Y-85393188D01*
X112133137Y-84253459D01*
X112130526Y-84230941D01*
X112130224Y-84228335D01*
X112130223Y-84228333D01*
X112130223Y-84228332D01*
X112084844Y-84125558D01*
X112005403Y-84046117D01*
X111927345Y-84011651D01*
X111902630Y-84000738D01*
X111877503Y-83997823D01*
X110287781Y-83997823D01*
X110287755Y-83997825D01*
X110262650Y-84000736D01*
X110262646Y-84000738D01*
X110159873Y-84046116D01*
X110080432Y-84125557D01*
X110035053Y-84228329D01*
X110035053Y-84228331D01*
X110032138Y-84253454D01*
X110032138Y-85393179D01*
X110032140Y-85393205D01*
X110035051Y-85418310D01*
X110035053Y-85418314D01*
X110080431Y-85521087D01*
X110108427Y-85549083D01*
X110141912Y-85610406D01*
X110136928Y-85680098D01*
X110128456Y-85696662D01*
X110128960Y-85696932D01*
X110126088Y-85702303D01*
X110063863Y-85852529D01*
X110063860Y-85852539D01*
X110032138Y-86012015D01*
X110032138Y-86012018D01*
X110032138Y-86174628D01*
X110032138Y-86174630D01*
X110032137Y-86174630D01*
X85527138Y-86174630D01*
X85527138Y-77738058D01*
X88976300Y-77738058D01*
X88976300Y-77967541D01*
X88997808Y-78130901D01*
X89006252Y-78195038D01*
X89006253Y-78195040D01*
X89065642Y-78416687D01*
X89153450Y-78628676D01*
X89153457Y-78628690D01*
X89219696Y-78743420D01*
X89261452Y-78815744D01*
X89268192Y-78827417D01*
X89407881Y-79009461D01*
X89407889Y-79009470D01*
X89570130Y-79171711D01*
X89570138Y-79171718D01*
X89570139Y-79171719D01*
X89605967Y-79199211D01*
X89752182Y-79311407D01*
X89752185Y-79311408D01*
X89752188Y-79311411D01*
X89950912Y-79426144D01*
X89950917Y-79426146D01*
X89950923Y-79426149D01*
X89983530Y-79439655D01*
X90162913Y-79513958D01*
X90384562Y-79573348D01*
X90612066Y-79603300D01*
X90612073Y-79603300D01*
X90841527Y-79603300D01*
X90841534Y-79603300D01*
X91069038Y-79573348D01*
X91290687Y-79513958D01*
X91397535Y-79469700D01*
X93996300Y-79469700D01*
X93996300Y-80555891D01*
X94006923Y-80644362D01*
X94062439Y-80785142D01*
X94062440Y-80785144D01*
X94153877Y-80905722D01*
X94274455Y-80997159D01*
X94274458Y-80997161D01*
X94415236Y-81052676D01*
X94503701Y-81063300D01*
X95589898Y-81063299D01*
X95678364Y-81052676D01*
X95819142Y-80997161D01*
X95939722Y-80905722D01*
X96031161Y-80785142D01*
X96086676Y-80644364D01*
X96097300Y-80555899D01*
X96097299Y-79909330D01*
X96996300Y-79909330D01*
X96996300Y-80116269D01*
X97036668Y-80319212D01*
X97036670Y-80319220D01*
X97115858Y-80510396D01*
X97230824Y-80682457D01*
X97377142Y-80828775D01*
X97377145Y-80828777D01*
X97549202Y-80943741D01*
X97740380Y-81022930D01*
X97943330Y-81063299D01*
X97943334Y-81063300D01*
X97943335Y-81063300D01*
X98150266Y-81063300D01*
X98150267Y-81063299D01*
X98353220Y-81022930D01*
X98544398Y-80943741D01*
X98716455Y-80828777D01*
X98760090Y-80785142D01*
X98862776Y-80682457D01*
X98947338Y-80555899D01*
X98977741Y-80510398D01*
X99056930Y-80319220D01*
X99097300Y-80116265D01*
X99097300Y-79909335D01*
X99056930Y-79706380D01*
X98995600Y-79558318D01*
X130046137Y-79558318D01*
X130073056Y-79693645D01*
X130073059Y-79693655D01*
X130125859Y-79821127D01*
X130125866Y-79821140D01*
X130202523Y-79935864D01*
X130202526Y-79935868D01*
X130303300Y-80036642D01*
X130336785Y-80097965D01*
X130331801Y-80167657D01*
X130303300Y-80212004D01*
X130202526Y-80312777D01*
X130202523Y-80312781D01*
X130125866Y-80427505D01*
X130125859Y-80427518D01*
X130073059Y-80554990D01*
X130073056Y-80555000D01*
X130046138Y-80690327D01*
X130046138Y-80690330D01*
X130046138Y-80828316D01*
X130046138Y-80828318D01*
X130046137Y-80828318D01*
X130073056Y-80963645D01*
X130073059Y-80963655D01*
X130125859Y-81091127D01*
X130125866Y-81091140D01*
X130192045Y-81190183D01*
X130212923Y-81256861D01*
X130194439Y-81324241D01*
X130192045Y-81327964D01*
X130125869Y-81427003D01*
X130125859Y-81427021D01*
X130073059Y-81554493D01*
X130073056Y-81554503D01*
X130046138Y-81689830D01*
X130046138Y-81689833D01*
X130046138Y-81827819D01*
X130046138Y-81827821D01*
X130046137Y-81827821D01*
X130073056Y-81963148D01*
X130073059Y-81963158D01*
X130125859Y-82090630D01*
X130125866Y-82090643D01*
X130203068Y-82206183D01*
X130223946Y-82272861D01*
X130205462Y-82340241D01*
X130203068Y-82343964D01*
X130125869Y-82459500D01*
X130125859Y-82459518D01*
X130073059Y-82586990D01*
X130073056Y-82587000D01*
X130046138Y-82722327D01*
X130046138Y-82722330D01*
X130046138Y-82860316D01*
X130046138Y-82860318D01*
X130046137Y-82860318D01*
X130073056Y-82995645D01*
X130073059Y-82995655D01*
X130125859Y-83123127D01*
X130125866Y-83123140D01*
X130197557Y-83230432D01*
X130218435Y-83297109D01*
X130199951Y-83364490D01*
X130197557Y-83368214D01*
X130125866Y-83475505D01*
X130125859Y-83475518D01*
X130073059Y-83602990D01*
X130073056Y-83603000D01*
X130046138Y-83738327D01*
X130046138Y-83738330D01*
X130046138Y-83876316D01*
X130046138Y-83876318D01*
X130046137Y-83876318D01*
X130073056Y-84011645D01*
X130073059Y-84011655D01*
X130125859Y-84139127D01*
X130125866Y-84139140D01*
X130197557Y-84246432D01*
X130218435Y-84313109D01*
X130199951Y-84380490D01*
X130197557Y-84384214D01*
X130125866Y-84491505D01*
X130125859Y-84491518D01*
X130073059Y-84618990D01*
X130073056Y-84619000D01*
X130046138Y-84754327D01*
X130046138Y-84754330D01*
X130046138Y-84892316D01*
X130046138Y-84892318D01*
X130046137Y-84892318D01*
X130073056Y-85027645D01*
X130073059Y-85027655D01*
X130125859Y-85155127D01*
X130125866Y-85155140D01*
X130202523Y-85269864D01*
X130202526Y-85269868D01*
X130300092Y-85367434D01*
X130300096Y-85367437D01*
X130414820Y-85444094D01*
X130414833Y-85444101D01*
X130542305Y-85496901D01*
X130542310Y-85496903D01*
X130542314Y-85496903D01*
X130542315Y-85496904D01*
X130677642Y-85523823D01*
X130677645Y-85523823D01*
X130815633Y-85523823D01*
X130906679Y-85505712D01*
X130950966Y-85496903D01*
X131049562Y-85456063D01*
X131078442Y-85444101D01*
X131078442Y-85444100D01*
X131078449Y-85444098D01*
X131193180Y-85367437D01*
X131290752Y-85269865D01*
X131367413Y-85155134D01*
X131420218Y-85027651D01*
X131447138Y-84892316D01*
X131447138Y-84754330D01*
X131447138Y-84754327D01*
X131420219Y-84619000D01*
X131420218Y-84618999D01*
X131420218Y-84618995D01*
X131420216Y-84618990D01*
X131367416Y-84491518D01*
X131367412Y-84491511D01*
X131363317Y-84485382D01*
X131295716Y-84384211D01*
X131274840Y-84317537D01*
X131293324Y-84250157D01*
X131295686Y-84246479D01*
X131367413Y-84139134D01*
X131420218Y-84011651D01*
X131429027Y-83967364D01*
X131447138Y-83876318D01*
X131447138Y-83738327D01*
X131420219Y-83603000D01*
X131420218Y-83602999D01*
X131420218Y-83602995D01*
X131420216Y-83602990D01*
X131367416Y-83475518D01*
X131367412Y-83475511D01*
X131367408Y-83475505D01*
X131295716Y-83368211D01*
X131289743Y-83349134D01*
X131279238Y-83332127D01*
X131279517Y-83316475D01*
X131274840Y-83301537D01*
X131280128Y-83282257D01*
X131280486Y-83262269D01*
X131292501Y-83237156D01*
X131293324Y-83234157D01*
X131295712Y-83230440D01*
X131318371Y-83196530D01*
X188753500Y-83196530D01*
X188753500Y-83403469D01*
X188793868Y-83606412D01*
X188793870Y-83606420D01*
X188848973Y-83739451D01*
X188873059Y-83797598D01*
X188903456Y-83843091D01*
X188988024Y-83969657D01*
X189134342Y-84115975D01*
X189134345Y-84115977D01*
X189306402Y-84230941D01*
X189497580Y-84310130D01*
X189700530Y-84350499D01*
X189700534Y-84350500D01*
X189700535Y-84350500D01*
X189907466Y-84350500D01*
X189907467Y-84350499D01*
X190110420Y-84310130D01*
X190301598Y-84230941D01*
X190473655Y-84115977D01*
X190543516Y-84046116D01*
X190619976Y-83969657D01*
X190675434Y-83886657D01*
X190734941Y-83797598D01*
X190814130Y-83606420D01*
X190854500Y-83403465D01*
X190854500Y-83196535D01*
X190814130Y-82993580D01*
X190734941Y-82802402D01*
X190704538Y-82756900D01*
X191753500Y-82756900D01*
X191753500Y-83843091D01*
X191764123Y-83931562D01*
X191819639Y-84072342D01*
X191819640Y-84072344D01*
X191911077Y-84192922D01*
X191991443Y-84253865D01*
X192031658Y-84284361D01*
X192172436Y-84339876D01*
X192260901Y-84350500D01*
X193347098Y-84350499D01*
X193435564Y-84339876D01*
X193576342Y-84284361D01*
X193696922Y-84192922D01*
X193788361Y-84072342D01*
X193843876Y-83931564D01*
X193854500Y-83843099D01*
X193854499Y-82756902D01*
X193843876Y-82668436D01*
X193788361Y-82527658D01*
X193788359Y-82527655D01*
X193696922Y-82407077D01*
X193576344Y-82315640D01*
X193576342Y-82315639D01*
X193435564Y-82260124D01*
X193435561Y-82260123D01*
X193347099Y-82249500D01*
X192260908Y-82249500D01*
X192172437Y-82260123D01*
X192031657Y-82315639D01*
X192031655Y-82315640D01*
X191911077Y-82407077D01*
X191819640Y-82527655D01*
X191764124Y-82668437D01*
X191764123Y-82668438D01*
X191753500Y-82756900D01*
X190704538Y-82756900D01*
X190619977Y-82630345D01*
X190619975Y-82630342D01*
X190473657Y-82484024D01*
X190358496Y-82407077D01*
X190301598Y-82369059D01*
X190172631Y-82315639D01*
X190110420Y-82289870D01*
X190110412Y-82289868D01*
X189907469Y-82249500D01*
X189907465Y-82249500D01*
X189700535Y-82249500D01*
X189700530Y-82249500D01*
X189497587Y-82289868D01*
X189497579Y-82289870D01*
X189306403Y-82369058D01*
X189134342Y-82484024D01*
X188988024Y-82630342D01*
X188873058Y-82802403D01*
X188793870Y-82993579D01*
X188793868Y-82993587D01*
X188753500Y-83196530D01*
X131318371Y-83196530D01*
X131367407Y-83123144D01*
X131367409Y-83123139D01*
X131367413Y-83123134D01*
X131420218Y-82995651D01*
X131447138Y-82860316D01*
X131447138Y-82722330D01*
X131447138Y-82722327D01*
X131420219Y-82587000D01*
X131420218Y-82586999D01*
X131420218Y-82586995D01*
X131395640Y-82527658D01*
X131367416Y-82459518D01*
X131367409Y-82459505D01*
X131290207Y-82343965D01*
X131269329Y-82277288D01*
X131287813Y-82209908D01*
X131290207Y-82206183D01*
X131290752Y-82205368D01*
X131367413Y-82090637D01*
X131420218Y-81963154D01*
X131447138Y-81827819D01*
X131447138Y-81689833D01*
X131447138Y-81689830D01*
X131420219Y-81554503D01*
X131420218Y-81554502D01*
X131420218Y-81554498D01*
X131420216Y-81554493D01*
X131367416Y-81427021D01*
X131367409Y-81427008D01*
X131301230Y-81327965D01*
X131280352Y-81261288D01*
X131298836Y-81193908D01*
X131301203Y-81190223D01*
X131367413Y-81091134D01*
X131420218Y-80963651D01*
X131431741Y-80905722D01*
X131447138Y-80828318D01*
X131447138Y-80690327D01*
X131420219Y-80555000D01*
X131420218Y-80554999D01*
X131420218Y-80554995D01*
X131420216Y-80554990D01*
X131367416Y-80427518D01*
X131367409Y-80427505D01*
X131290752Y-80312781D01*
X131290749Y-80312777D01*
X131189976Y-80212004D01*
X131156491Y-80150681D01*
X131161475Y-80080989D01*
X131189976Y-80036642D01*
X131290749Y-79935868D01*
X131290752Y-79935865D01*
X131367413Y-79821134D01*
X131371065Y-79812318D01*
X137666137Y-79812318D01*
X137693056Y-79947645D01*
X137693059Y-79947655D01*
X137745859Y-80075127D01*
X137745866Y-80075140D01*
X137822523Y-80189864D01*
X137822526Y-80189868D01*
X137920092Y-80287434D01*
X137920096Y-80287437D01*
X138034820Y-80364094D01*
X138034833Y-80364101D01*
X138162305Y-80416901D01*
X138162310Y-80416903D01*
X138162314Y-80416903D01*
X138162315Y-80416904D01*
X138297642Y-80443823D01*
X138297645Y-80443823D01*
X138435633Y-80443823D01*
X138526679Y-80425712D01*
X138570966Y-80416903D01*
X138698449Y-80364098D01*
X138813180Y-80287437D01*
X138910752Y-80189865D01*
X138987413Y-80075134D01*
X139040218Y-79947651D01*
X139065384Y-79821134D01*
X139067138Y-79812318D01*
X139067138Y-79674327D01*
X139040219Y-79539000D01*
X139040218Y-79538999D01*
X139040218Y-79538995D01*
X139030363Y-79515202D01*
X138987416Y-79411518D01*
X138987409Y-79411505D01*
X138915788Y-79304318D01*
X166368137Y-79304318D01*
X166395056Y-79439645D01*
X166395059Y-79439655D01*
X166447859Y-79567127D01*
X166447866Y-79567140D01*
X166524523Y-79681864D01*
X166524526Y-79681868D01*
X166622092Y-79779434D01*
X166622096Y-79779437D01*
X166736820Y-79856094D01*
X166736833Y-79856101D01*
X166864305Y-79908901D01*
X166864310Y-79908903D01*
X166864314Y-79908903D01*
X166864315Y-79908904D01*
X166999642Y-79935823D01*
X166999645Y-79935823D01*
X167137633Y-79935823D01*
X167228679Y-79917712D01*
X167272966Y-79908903D01*
X167400449Y-79856098D01*
X167515180Y-79779437D01*
X167612752Y-79681865D01*
X167689413Y-79567134D01*
X167742218Y-79439651D01*
X167761414Y-79343149D01*
X167769138Y-79304318D01*
X167769138Y-79166327D01*
X167742219Y-79031000D01*
X167742218Y-79030999D01*
X167742218Y-79030995D01*
X167733302Y-79009470D01*
X167689416Y-78903518D01*
X167689409Y-78903505D01*
X167612752Y-78788781D01*
X167612749Y-78788777D01*
X167515183Y-78691211D01*
X167515179Y-78691208D01*
X167400455Y-78614551D01*
X167400442Y-78614544D01*
X167272970Y-78561744D01*
X167272960Y-78561741D01*
X167137633Y-78534823D01*
X167137631Y-78534823D01*
X166999645Y-78534823D01*
X166999643Y-78534823D01*
X166864315Y-78561741D01*
X166864305Y-78561744D01*
X166736833Y-78614544D01*
X166736820Y-78614551D01*
X166622096Y-78691208D01*
X166622092Y-78691211D01*
X166524526Y-78788777D01*
X166524523Y-78788781D01*
X166447866Y-78903505D01*
X166447859Y-78903518D01*
X166395059Y-79030990D01*
X166395056Y-79031000D01*
X166368138Y-79166327D01*
X166368138Y-79166330D01*
X166368138Y-79304316D01*
X166368138Y-79304318D01*
X166368137Y-79304318D01*
X138915788Y-79304318D01*
X138910752Y-79296781D01*
X138910749Y-79296777D01*
X138813183Y-79199211D01*
X138813179Y-79199208D01*
X138698455Y-79122551D01*
X138698442Y-79122544D01*
X138570970Y-79069744D01*
X138570960Y-79069741D01*
X138435633Y-79042823D01*
X138435631Y-79042823D01*
X138297645Y-79042823D01*
X138297643Y-79042823D01*
X138162315Y-79069741D01*
X138162305Y-79069744D01*
X138034833Y-79122544D01*
X138034820Y-79122551D01*
X137920096Y-79199208D01*
X137920092Y-79199211D01*
X137822526Y-79296777D01*
X137822523Y-79296781D01*
X137745866Y-79411505D01*
X137745859Y-79411518D01*
X137693059Y-79538990D01*
X137693056Y-79539000D01*
X137666138Y-79674327D01*
X137666138Y-79674330D01*
X137666138Y-79812316D01*
X137666138Y-79812318D01*
X137666137Y-79812318D01*
X131371065Y-79812318D01*
X131420218Y-79693651D01*
X131445384Y-79567134D01*
X131447138Y-79558318D01*
X131447138Y-79420327D01*
X131420219Y-79285000D01*
X131420218Y-79284999D01*
X131420218Y-79284995D01*
X131401769Y-79240455D01*
X131367416Y-79157518D01*
X131367409Y-79157505D01*
X131290752Y-79042781D01*
X131290749Y-79042777D01*
X131193183Y-78945211D01*
X131193179Y-78945208D01*
X131078455Y-78868551D01*
X131078442Y-78868544D01*
X130950970Y-78815744D01*
X130950960Y-78815741D01*
X130815633Y-78788823D01*
X130815631Y-78788823D01*
X130677645Y-78788823D01*
X130677643Y-78788823D01*
X130542315Y-78815741D01*
X130542305Y-78815744D01*
X130414833Y-78868544D01*
X130414820Y-78868551D01*
X130300096Y-78945208D01*
X130300092Y-78945211D01*
X130202526Y-79042777D01*
X130202523Y-79042781D01*
X130125866Y-79157505D01*
X130125859Y-79157518D01*
X130073059Y-79284990D01*
X130073056Y-79285000D01*
X130046138Y-79420327D01*
X130046138Y-79420330D01*
X130046138Y-79558316D01*
X130046138Y-79558318D01*
X130046137Y-79558318D01*
X98995600Y-79558318D01*
X98977741Y-79515202D01*
X98956310Y-79483128D01*
X98956309Y-79483125D01*
X98862780Y-79343149D01*
X98862774Y-79343141D01*
X98716457Y-79196824D01*
X98601296Y-79119877D01*
X98544398Y-79081859D01*
X98450157Y-79042823D01*
X98353220Y-79002670D01*
X98353212Y-79002668D01*
X98150269Y-78962300D01*
X98150265Y-78962300D01*
X97943335Y-78962300D01*
X97943330Y-78962300D01*
X97740387Y-79002668D01*
X97740379Y-79002670D01*
X97549203Y-79081858D01*
X97377142Y-79196824D01*
X97230824Y-79343142D01*
X97115858Y-79515203D01*
X97036670Y-79706379D01*
X97036668Y-79706387D01*
X96996300Y-79909330D01*
X96097299Y-79909330D01*
X96097299Y-79469702D01*
X96086676Y-79381236D01*
X96031161Y-79240458D01*
X96031159Y-79240455D01*
X95939722Y-79119877D01*
X95819144Y-79028440D01*
X95819142Y-79028439D01*
X95678364Y-78972924D01*
X95678361Y-78972923D01*
X95589899Y-78962300D01*
X94503708Y-78962300D01*
X94415237Y-78972923D01*
X94274457Y-79028439D01*
X94274455Y-79028440D01*
X94153877Y-79119877D01*
X94062440Y-79240455D01*
X94062439Y-79240458D01*
X94015848Y-79358608D01*
X94006924Y-79381237D01*
X94006923Y-79381238D01*
X93996300Y-79469700D01*
X91397535Y-79469700D01*
X91502688Y-79426144D01*
X91701412Y-79311411D01*
X91883461Y-79171719D01*
X91883465Y-79171714D01*
X91883470Y-79171711D01*
X92045711Y-79009470D01*
X92045714Y-79009465D01*
X92045719Y-79009461D01*
X92185411Y-78827412D01*
X92300144Y-78628688D01*
X92387958Y-78416687D01*
X92447348Y-78195038D01*
X92477300Y-77967534D01*
X92477300Y-77738066D01*
X92447348Y-77510562D01*
X92387958Y-77288913D01*
X92327031Y-77141823D01*
X92300149Y-77076923D01*
X92300146Y-77076917D01*
X92300144Y-77076912D01*
X92203391Y-76909330D01*
X93996300Y-76909330D01*
X93996300Y-77116269D01*
X94036668Y-77319212D01*
X94036670Y-77319220D01*
X94115859Y-77510398D01*
X94173341Y-77596426D01*
X94230824Y-77682457D01*
X94377142Y-77828775D01*
X94377145Y-77828777D01*
X94549202Y-77943741D01*
X94740380Y-78022930D01*
X94943330Y-78063299D01*
X94943334Y-78063300D01*
X94943335Y-78063300D01*
X95150266Y-78063300D01*
X95150267Y-78063299D01*
X95353220Y-78022930D01*
X95544398Y-77943741D01*
X95716455Y-77828777D01*
X95862777Y-77682455D01*
X95977741Y-77510398D01*
X96056930Y-77319220D01*
X96097300Y-77116265D01*
X96097300Y-76909335D01*
X96097299Y-76909330D01*
X96996300Y-76909330D01*
X96996300Y-77116269D01*
X97036668Y-77319212D01*
X97036670Y-77319220D01*
X97115859Y-77510398D01*
X97173341Y-77596426D01*
X97230824Y-77682457D01*
X97377142Y-77828775D01*
X97377145Y-77828777D01*
X97549202Y-77943741D01*
X97740380Y-78022930D01*
X97943330Y-78063299D01*
X97943334Y-78063300D01*
X97943335Y-78063300D01*
X98150266Y-78063300D01*
X98150267Y-78063299D01*
X98353220Y-78022930D01*
X98544398Y-77943741D01*
X98716455Y-77828777D01*
X98862777Y-77682455D01*
X98977741Y-77510398D01*
X98984613Y-77493807D01*
X120582138Y-77493807D01*
X120582138Y-77694838D01*
X120621353Y-77891984D01*
X120621356Y-77891996D01*
X120698278Y-78077704D01*
X120698285Y-78077717D01*
X120809963Y-78244853D01*
X120809966Y-78244857D01*
X120952103Y-78386994D01*
X120952107Y-78386997D01*
X121119243Y-78498675D01*
X121119256Y-78498682D01*
X121271503Y-78561744D01*
X121304969Y-78575606D01*
X121500760Y-78614551D01*
X121502122Y-78614822D01*
X121502126Y-78614823D01*
X121502127Y-78614823D01*
X121703150Y-78614823D01*
X121703151Y-78614822D01*
X121900307Y-78575606D01*
X122086026Y-78498679D01*
X122253169Y-78386997D01*
X122395312Y-78244854D01*
X122506994Y-78077711D01*
X122583921Y-77891992D01*
X122623138Y-77694834D01*
X122623138Y-77526318D01*
X163320137Y-77526318D01*
X163347056Y-77661645D01*
X163347059Y-77661655D01*
X163399859Y-77789127D01*
X163399866Y-77789140D01*
X163476523Y-77903864D01*
X163476526Y-77903868D01*
X163574092Y-78001434D01*
X163574096Y-78001437D01*
X163688820Y-78078094D01*
X163688833Y-78078101D01*
X163816305Y-78130901D01*
X163816310Y-78130903D01*
X163816314Y-78130903D01*
X163816315Y-78130904D01*
X163951642Y-78157823D01*
X163951645Y-78157823D01*
X164089633Y-78157823D01*
X164180679Y-78139712D01*
X164224966Y-78130903D01*
X164352449Y-78078098D01*
X164467180Y-78001437D01*
X164564752Y-77903865D01*
X164641413Y-77789134D01*
X164694218Y-77661651D01*
X164721138Y-77526316D01*
X164721138Y-77388330D01*
X164721138Y-77388327D01*
X164694219Y-77253000D01*
X164694218Y-77252999D01*
X164694218Y-77252995D01*
X164694216Y-77252990D01*
X164641416Y-77125518D01*
X164641409Y-77125505D01*
X164564752Y-77010781D01*
X164564749Y-77010777D01*
X164467183Y-76913211D01*
X164467179Y-76913208D01*
X164352455Y-76836551D01*
X164352442Y-76836544D01*
X164224970Y-76783744D01*
X164224960Y-76783741D01*
X164089633Y-76756823D01*
X164089631Y-76756823D01*
X163951645Y-76756823D01*
X163951643Y-76756823D01*
X163816315Y-76783741D01*
X163816305Y-76783744D01*
X163688833Y-76836544D01*
X163688820Y-76836551D01*
X163574096Y-76913208D01*
X163574092Y-76913211D01*
X163476526Y-77010777D01*
X163476523Y-77010781D01*
X163399866Y-77125505D01*
X163399859Y-77125518D01*
X163347059Y-77252990D01*
X163347056Y-77253000D01*
X163320138Y-77388327D01*
X163320138Y-77388330D01*
X163320138Y-77526316D01*
X163320138Y-77526318D01*
X163320137Y-77526318D01*
X122623138Y-77526318D01*
X122623138Y-77493812D01*
X122622944Y-77492840D01*
X122605757Y-77406429D01*
X122593670Y-77345668D01*
X122583921Y-77296654D01*
X122565835Y-77252990D01*
X122506997Y-77110941D01*
X122506990Y-77110928D01*
X122395312Y-76943792D01*
X122395309Y-76943788D01*
X122253172Y-76801651D01*
X122253168Y-76801648D01*
X122086032Y-76689970D01*
X122086019Y-76689963D01*
X121900311Y-76613041D01*
X121900299Y-76613038D01*
X121703153Y-76573823D01*
X121703149Y-76573823D01*
X121502127Y-76573823D01*
X121502122Y-76573823D01*
X121304976Y-76613038D01*
X121304964Y-76613041D01*
X121119256Y-76689963D01*
X121119243Y-76689970D01*
X120952107Y-76801648D01*
X120952103Y-76801651D01*
X120809966Y-76943788D01*
X120809963Y-76943792D01*
X120698285Y-77110928D01*
X120698278Y-77110941D01*
X120621356Y-77296649D01*
X120621353Y-77296661D01*
X120582138Y-77493807D01*
X98984613Y-77493807D01*
X99056930Y-77319220D01*
X99097300Y-77116265D01*
X99097300Y-76909335D01*
X99056930Y-76706380D01*
X98977741Y-76515202D01*
X98974478Y-76510318D01*
X150620137Y-76510318D01*
X150647056Y-76645645D01*
X150647059Y-76645655D01*
X150699859Y-76773127D01*
X150699866Y-76773140D01*
X150776523Y-76887864D01*
X150776526Y-76887868D01*
X150874092Y-76985434D01*
X150874096Y-76985437D01*
X150988820Y-77062094D01*
X150988833Y-77062101D01*
X151106713Y-77110928D01*
X151116310Y-77114903D01*
X151116314Y-77114903D01*
X151116315Y-77114904D01*
X151251642Y-77141823D01*
X151251645Y-77141823D01*
X151389633Y-77141823D01*
X151480679Y-77123712D01*
X151524966Y-77114903D01*
X151652449Y-77062098D01*
X151767180Y-76985437D01*
X151864752Y-76887865D01*
X151941413Y-76773134D01*
X151994218Y-76645651D01*
X152021138Y-76510316D01*
X152021138Y-76372330D01*
X152021138Y-76372327D01*
X151994219Y-76237000D01*
X151994218Y-76236999D01*
X151994218Y-76236995D01*
X151950833Y-76132253D01*
X151941416Y-76109518D01*
X151941409Y-76109505D01*
X151864752Y-75994781D01*
X151864749Y-75994777D01*
X151767183Y-75897211D01*
X151767179Y-75897208D01*
X151652455Y-75820551D01*
X151652442Y-75820544D01*
X151524970Y-75767744D01*
X151524960Y-75767741D01*
X151389633Y-75740823D01*
X151389631Y-75740823D01*
X151251645Y-75740823D01*
X151251643Y-75740823D01*
X151116315Y-75767741D01*
X151116305Y-75767744D01*
X150988833Y-75820544D01*
X150988820Y-75820551D01*
X150874096Y-75897208D01*
X150874092Y-75897211D01*
X150776526Y-75994777D01*
X150776523Y-75994781D01*
X150699866Y-76109505D01*
X150699859Y-76109518D01*
X150647059Y-76236990D01*
X150647056Y-76237000D01*
X150620138Y-76372327D01*
X150620138Y-76372330D01*
X150620138Y-76510316D01*
X150620138Y-76510318D01*
X150620137Y-76510318D01*
X98974478Y-76510318D01*
X98862777Y-76343145D01*
X98862775Y-76343142D01*
X98716457Y-76196824D01*
X98574990Y-76102300D01*
X98544398Y-76081859D01*
X98527409Y-76074822D01*
X98353220Y-76002670D01*
X98353212Y-76002668D01*
X98150269Y-75962300D01*
X98150265Y-75962300D01*
X97943335Y-75962300D01*
X97943330Y-75962300D01*
X97740387Y-76002668D01*
X97740379Y-76002670D01*
X97549203Y-76081858D01*
X97377142Y-76196824D01*
X97230824Y-76343142D01*
X97115858Y-76515203D01*
X97036670Y-76706379D01*
X97036668Y-76706387D01*
X96996300Y-76909330D01*
X96097299Y-76909330D01*
X96056930Y-76706380D01*
X95977741Y-76515202D01*
X95862777Y-76343145D01*
X95862775Y-76343142D01*
X95716457Y-76196824D01*
X95574990Y-76102300D01*
X95544398Y-76081859D01*
X95527409Y-76074822D01*
X95353220Y-76002670D01*
X95353212Y-76002668D01*
X95150269Y-75962300D01*
X95150265Y-75962300D01*
X94943335Y-75962300D01*
X94943330Y-75962300D01*
X94740387Y-76002668D01*
X94740379Y-76002670D01*
X94549203Y-76081858D01*
X94377142Y-76196824D01*
X94230824Y-76343142D01*
X94115858Y-76515203D01*
X94036670Y-76706379D01*
X94036668Y-76706387D01*
X93996300Y-76909330D01*
X92203391Y-76909330D01*
X92185411Y-76878188D01*
X92185408Y-76878185D01*
X92185407Y-76878182D01*
X92084564Y-76746762D01*
X92045719Y-76696139D01*
X92045718Y-76696138D01*
X92045711Y-76696130D01*
X91883470Y-76533889D01*
X91883461Y-76533881D01*
X91701417Y-76394192D01*
X91502690Y-76279457D01*
X91502676Y-76279450D01*
X91290687Y-76191642D01*
X91069038Y-76132252D01*
X91031015Y-76127246D01*
X90841541Y-76102300D01*
X90841534Y-76102300D01*
X90612066Y-76102300D01*
X90612058Y-76102300D01*
X90395515Y-76130809D01*
X90384562Y-76132252D01*
X90290876Y-76157354D01*
X90162912Y-76191642D01*
X89950923Y-76279450D01*
X89950909Y-76279457D01*
X89752182Y-76394192D01*
X89570138Y-76533881D01*
X89407881Y-76696138D01*
X89268192Y-76878182D01*
X89153457Y-77076909D01*
X89153450Y-77076923D01*
X89065642Y-77288912D01*
X89065642Y-77288913D01*
X89006297Y-77510396D01*
X89006253Y-77510559D01*
X89006251Y-77510570D01*
X88976300Y-77738058D01*
X85527138Y-77738058D01*
X85527138Y-73909330D01*
X93996300Y-73909330D01*
X93996300Y-74116269D01*
X94036668Y-74319212D01*
X94036670Y-74319220D01*
X94115858Y-74510396D01*
X94230824Y-74682457D01*
X94377142Y-74828775D01*
X94377145Y-74828777D01*
X94549202Y-74943741D01*
X94740380Y-75022930D01*
X94943330Y-75063299D01*
X94943334Y-75063300D01*
X94943335Y-75063300D01*
X95150266Y-75063300D01*
X95150267Y-75063299D01*
X95353220Y-75022930D01*
X95544398Y-74943741D01*
X95716455Y-74828777D01*
X95862777Y-74682455D01*
X95977741Y-74510398D01*
X96056930Y-74319220D01*
X96097300Y-74116265D01*
X96097300Y-73909335D01*
X96097299Y-73909330D01*
X96996300Y-73909330D01*
X96996300Y-74116269D01*
X97036668Y-74319212D01*
X97036670Y-74319220D01*
X97115858Y-74510396D01*
X97230824Y-74682457D01*
X97377142Y-74828775D01*
X97377145Y-74828777D01*
X97549202Y-74943741D01*
X97740380Y-75022930D01*
X97943330Y-75063299D01*
X97943334Y-75063300D01*
X97943335Y-75063300D01*
X98150266Y-75063300D01*
X98150267Y-75063299D01*
X98353220Y-75022930D01*
X98520097Y-74953807D01*
X120582138Y-74953807D01*
X120582138Y-75154838D01*
X120621353Y-75351984D01*
X120621356Y-75351996D01*
X120698278Y-75537704D01*
X120698285Y-75537717D01*
X120809963Y-75704853D01*
X120809966Y-75704857D01*
X120952103Y-75846994D01*
X120952107Y-75846997D01*
X121119243Y-75958675D01*
X121119256Y-75958682D01*
X121304964Y-76035604D01*
X121304969Y-76035606D01*
X121502122Y-76074822D01*
X121502126Y-76074823D01*
X121502127Y-76074823D01*
X121703150Y-76074823D01*
X121703151Y-76074822D01*
X121900307Y-76035606D01*
X122086026Y-75958679D01*
X122253169Y-75846997D01*
X122395312Y-75704854D01*
X122506994Y-75537711D01*
X122583921Y-75351992D01*
X122623138Y-75154834D01*
X122623138Y-74953812D01*
X122583921Y-74756654D01*
X122572412Y-74728868D01*
X122506997Y-74570941D01*
X122506990Y-74570928D01*
X122395312Y-74403792D01*
X122395309Y-74403788D01*
X122342839Y-74351318D01*
X135761137Y-74351318D01*
X135788056Y-74486645D01*
X135788059Y-74486655D01*
X135840859Y-74614127D01*
X135840866Y-74614140D01*
X135917523Y-74728864D01*
X135917526Y-74728868D01*
X136015092Y-74826434D01*
X136015096Y-74826437D01*
X136129820Y-74903094D01*
X136129833Y-74903101D01*
X136227948Y-74943741D01*
X136257310Y-74955903D01*
X136257314Y-74955903D01*
X136257315Y-74955904D01*
X136392642Y-74982823D01*
X136392645Y-74982823D01*
X136530633Y-74982823D01*
X136621679Y-74964712D01*
X136665966Y-74955903D01*
X136793449Y-74903098D01*
X136908180Y-74826437D01*
X137005752Y-74728865D01*
X137082413Y-74614134D01*
X137135218Y-74486651D01*
X137162138Y-74351316D01*
X137162138Y-74213330D01*
X137162138Y-74213327D01*
X137135219Y-74078000D01*
X137135218Y-74077999D01*
X137135218Y-74077995D01*
X137133165Y-74073038D01*
X137090617Y-73970318D01*
X177798137Y-73970318D01*
X177825056Y-74105645D01*
X177825059Y-74105655D01*
X177877859Y-74233127D01*
X177877866Y-74233140D01*
X177954523Y-74347864D01*
X177954526Y-74347868D01*
X178052092Y-74445434D01*
X178052096Y-74445437D01*
X178166820Y-74522094D01*
X178166833Y-74522101D01*
X178284713Y-74570928D01*
X178294310Y-74574903D01*
X178294314Y-74574903D01*
X178294315Y-74574904D01*
X178429642Y-74601823D01*
X178429645Y-74601823D01*
X178567633Y-74601823D01*
X178658679Y-74583712D01*
X178702966Y-74574903D01*
X178830449Y-74522098D01*
X178945180Y-74445437D01*
X179042752Y-74347865D01*
X179119413Y-74233134D01*
X179172218Y-74105651D01*
X179199138Y-73970316D01*
X179199138Y-73832330D01*
X179199138Y-73832327D01*
X179172219Y-73697000D01*
X179172218Y-73696999D01*
X179172218Y-73696995D01*
X179157537Y-73661551D01*
X179119416Y-73569518D01*
X179119409Y-73569505D01*
X179042752Y-73454781D01*
X179042749Y-73454777D01*
X178945183Y-73357211D01*
X178945179Y-73357208D01*
X178830455Y-73280551D01*
X178830442Y-73280544D01*
X178702970Y-73227744D01*
X178702960Y-73227741D01*
X178567633Y-73200823D01*
X178567631Y-73200823D01*
X178429645Y-73200823D01*
X178429643Y-73200823D01*
X178294315Y-73227741D01*
X178294305Y-73227744D01*
X178166833Y-73280544D01*
X178166820Y-73280551D01*
X178052096Y-73357208D01*
X178052092Y-73357211D01*
X177954526Y-73454777D01*
X177954523Y-73454781D01*
X177877866Y-73569505D01*
X177877859Y-73569518D01*
X177825059Y-73696990D01*
X177825056Y-73697000D01*
X177798138Y-73832327D01*
X177798138Y-73832330D01*
X177798138Y-73970316D01*
X177798138Y-73970318D01*
X177798137Y-73970318D01*
X137090617Y-73970318D01*
X137082416Y-73950518D01*
X137082409Y-73950505D01*
X137045408Y-73895129D01*
X137005752Y-73835781D01*
X137005749Y-73835777D01*
X136908183Y-73738211D01*
X136908179Y-73738208D01*
X136793455Y-73661551D01*
X136793442Y-73661544D01*
X136665970Y-73608744D01*
X136665960Y-73608741D01*
X136530633Y-73581823D01*
X136530631Y-73581823D01*
X136392645Y-73581823D01*
X136392643Y-73581823D01*
X136257315Y-73608741D01*
X136257305Y-73608744D01*
X136129833Y-73661544D01*
X136129820Y-73661551D01*
X136015096Y-73738208D01*
X136015092Y-73738211D01*
X135917526Y-73835777D01*
X135917523Y-73835781D01*
X135840866Y-73950505D01*
X135840859Y-73950518D01*
X135788059Y-74077990D01*
X135788056Y-74078000D01*
X135761138Y-74213327D01*
X135761138Y-74213330D01*
X135761138Y-74351316D01*
X135761138Y-74351318D01*
X135761137Y-74351318D01*
X122342839Y-74351318D01*
X122253172Y-74261651D01*
X122253168Y-74261648D01*
X122086032Y-74149970D01*
X122086019Y-74149963D01*
X121900311Y-74073041D01*
X121900299Y-74073038D01*
X121703153Y-74033823D01*
X121703149Y-74033823D01*
X121502127Y-74033823D01*
X121502122Y-74033823D01*
X121304976Y-74073038D01*
X121304964Y-74073041D01*
X121119256Y-74149963D01*
X121119243Y-74149970D01*
X120952107Y-74261648D01*
X120952103Y-74261651D01*
X120809966Y-74403788D01*
X120809963Y-74403792D01*
X120698285Y-74570928D01*
X120698278Y-74570941D01*
X120621356Y-74756649D01*
X120621353Y-74756661D01*
X120582138Y-74953807D01*
X98520097Y-74953807D01*
X98544398Y-74943741D01*
X98597175Y-74908476D01*
X98692748Y-74844618D01*
X98692749Y-74844617D01*
X98703284Y-74837577D01*
X98716455Y-74828777D01*
X98862777Y-74682455D01*
X98977741Y-74510398D01*
X99056930Y-74319220D01*
X99097300Y-74116265D01*
X99097300Y-73909335D01*
X99056930Y-73706380D01*
X98977741Y-73515202D01*
X98862777Y-73343145D01*
X98862775Y-73343142D01*
X98716457Y-73196824D01*
X98574094Y-73101701D01*
X98544398Y-73081859D01*
X98534753Y-73077864D01*
X98353220Y-73002670D01*
X98353212Y-73002668D01*
X98150269Y-72962300D01*
X98150265Y-72962300D01*
X97943335Y-72962300D01*
X97943330Y-72962300D01*
X97740387Y-73002668D01*
X97740379Y-73002670D01*
X97549203Y-73081858D01*
X97377142Y-73196824D01*
X97230824Y-73343142D01*
X97115858Y-73515203D01*
X97036670Y-73706379D01*
X97036668Y-73706387D01*
X96996300Y-73909330D01*
X96097299Y-73909330D01*
X96056930Y-73706380D01*
X95977741Y-73515202D01*
X95862777Y-73343145D01*
X95862775Y-73343142D01*
X95716457Y-73196824D01*
X95574094Y-73101701D01*
X95544398Y-73081859D01*
X95534753Y-73077864D01*
X95353220Y-73002670D01*
X95353212Y-73002668D01*
X95150269Y-72962300D01*
X95150265Y-72962300D01*
X94943335Y-72962300D01*
X94943330Y-72962300D01*
X94740387Y-73002668D01*
X94740379Y-73002670D01*
X94549203Y-73081858D01*
X94377142Y-73196824D01*
X94230824Y-73343142D01*
X94115858Y-73515203D01*
X94036670Y-73706379D01*
X94036668Y-73706387D01*
X93996300Y-73909330D01*
X85527138Y-73909330D01*
X85527138Y-72413807D01*
X120582138Y-72413807D01*
X120582138Y-72614838D01*
X120621353Y-72811984D01*
X120621356Y-72811996D01*
X120698278Y-72997704D01*
X120698285Y-72997717D01*
X120809963Y-73164853D01*
X120809966Y-73164857D01*
X120952103Y-73306994D01*
X120952107Y-73306997D01*
X121119243Y-73418675D01*
X121119256Y-73418682D01*
X121206408Y-73454781D01*
X121304969Y-73495606D01*
X121502122Y-73534822D01*
X121502126Y-73534823D01*
X121502127Y-73534823D01*
X121703150Y-73534823D01*
X121703151Y-73534822D01*
X121900307Y-73495606D01*
X122086026Y-73418679D01*
X122253169Y-73306997D01*
X122395312Y-73164854D01*
X122506994Y-72997711D01*
X122583921Y-72811992D01*
X122623138Y-72614834D01*
X122623138Y-72413812D01*
X122583921Y-72216654D01*
X122573841Y-72192318D01*
X132078137Y-72192318D01*
X132105056Y-72327645D01*
X132105059Y-72327655D01*
X132157859Y-72455127D01*
X132157866Y-72455140D01*
X132234523Y-72569864D01*
X132234526Y-72569868D01*
X132332092Y-72667434D01*
X132332096Y-72667437D01*
X132446820Y-72744094D01*
X132446833Y-72744101D01*
X132574305Y-72796901D01*
X132574310Y-72796903D01*
X132574314Y-72796903D01*
X132574315Y-72796904D01*
X132709642Y-72823823D01*
X132709645Y-72823823D01*
X132847633Y-72823823D01*
X132938679Y-72805712D01*
X132982966Y-72796903D01*
X133110449Y-72744098D01*
X133225180Y-72667437D01*
X133322752Y-72569865D01*
X133337417Y-72547918D01*
X139799737Y-72547918D01*
X139826656Y-72683245D01*
X139826659Y-72683255D01*
X139879459Y-72810727D01*
X139879466Y-72810740D01*
X139956123Y-72925464D01*
X139956126Y-72925468D01*
X140053692Y-73023034D01*
X140053696Y-73023037D01*
X140168420Y-73099694D01*
X140168433Y-73099701D01*
X140238258Y-73128623D01*
X140295910Y-73152503D01*
X140295914Y-73152503D01*
X140295915Y-73152504D01*
X140431242Y-73179423D01*
X140431245Y-73179423D01*
X140569233Y-73179423D01*
X140660279Y-73161312D01*
X140704566Y-73152503D01*
X140827206Y-73101704D01*
X140832042Y-73099701D01*
X140832042Y-73099700D01*
X140832049Y-73099698D01*
X140946780Y-73023037D01*
X141044352Y-72925465D01*
X141121013Y-72810734D01*
X141166749Y-72700318D01*
X147572137Y-72700318D01*
X147599056Y-72835645D01*
X147599059Y-72835655D01*
X147651859Y-72963127D01*
X147651866Y-72963140D01*
X147728523Y-73077864D01*
X147728526Y-73077868D01*
X147826092Y-73175434D01*
X147826096Y-73175437D01*
X147940820Y-73252094D01*
X147940833Y-73252101D01*
X148068305Y-73304901D01*
X148068310Y-73304903D01*
X148068314Y-73304903D01*
X148068315Y-73304904D01*
X148203642Y-73331823D01*
X148203645Y-73331823D01*
X148341633Y-73331823D01*
X148432679Y-73313712D01*
X148476966Y-73304903D01*
X148604449Y-73252098D01*
X148719180Y-73175437D01*
X148816752Y-73077865D01*
X148893413Y-72963134D01*
X148893759Y-72962300D01*
X148910686Y-72921434D01*
X148946218Y-72835651D01*
X148971384Y-72709134D01*
X148973138Y-72700318D01*
X148973138Y-72562327D01*
X148950062Y-72446318D01*
X161796137Y-72446318D01*
X161823056Y-72581645D01*
X161823059Y-72581655D01*
X161875859Y-72709127D01*
X161875866Y-72709140D01*
X161952523Y-72823864D01*
X161952526Y-72823868D01*
X162050092Y-72921434D01*
X162050096Y-72921437D01*
X162164820Y-72998094D01*
X162164833Y-72998101D01*
X162225035Y-73023037D01*
X162292310Y-73050903D01*
X162292314Y-73050903D01*
X162292315Y-73050904D01*
X162427642Y-73077823D01*
X162427645Y-73077823D01*
X162565633Y-73077823D01*
X162656679Y-73059712D01*
X162700966Y-73050903D01*
X162828449Y-72998098D01*
X162943180Y-72921437D01*
X163040752Y-72823865D01*
X163117413Y-72709134D01*
X163170218Y-72581651D01*
X163187033Y-72497118D01*
X169822537Y-72497118D01*
X169849456Y-72632445D01*
X169849459Y-72632455D01*
X169902259Y-72759927D01*
X169902266Y-72759940D01*
X169978923Y-72874664D01*
X169978926Y-72874668D01*
X170076492Y-72972234D01*
X170076496Y-72972237D01*
X170191220Y-73048894D01*
X170191233Y-73048901D01*
X170270802Y-73081859D01*
X170318710Y-73101703D01*
X170318714Y-73101703D01*
X170318715Y-73101704D01*
X170454042Y-73128623D01*
X170454045Y-73128623D01*
X170592033Y-73128623D01*
X170683079Y-73110512D01*
X170727366Y-73101703D01*
X170850006Y-73050904D01*
X170854842Y-73048901D01*
X170854842Y-73048900D01*
X170854849Y-73048898D01*
X170969580Y-72972237D01*
X171067152Y-72874665D01*
X171143813Y-72759934D01*
X171150373Y-72744098D01*
X171175576Y-72683251D01*
X171196618Y-72632451D01*
X171210567Y-72562327D01*
X171223538Y-72497118D01*
X171223538Y-72359127D01*
X171196619Y-72223800D01*
X171196618Y-72223799D01*
X171196618Y-72223795D01*
X171169959Y-72159434D01*
X171143816Y-72096318D01*
X171143809Y-72096305D01*
X171067152Y-71981581D01*
X171067149Y-71981577D01*
X170969583Y-71884011D01*
X170969579Y-71884008D01*
X170854855Y-71807351D01*
X170854842Y-71807344D01*
X170727370Y-71754544D01*
X170727360Y-71754541D01*
X170592033Y-71727623D01*
X170592031Y-71727623D01*
X170454045Y-71727623D01*
X170454043Y-71727623D01*
X170318715Y-71754541D01*
X170318705Y-71754544D01*
X170191233Y-71807344D01*
X170191220Y-71807351D01*
X170076496Y-71884008D01*
X170076492Y-71884011D01*
X169978926Y-71981577D01*
X169978923Y-71981581D01*
X169902266Y-72096305D01*
X169902259Y-72096318D01*
X169849459Y-72223790D01*
X169849456Y-72223800D01*
X169822538Y-72359127D01*
X169822538Y-72359130D01*
X169822538Y-72497116D01*
X169822538Y-72497118D01*
X169822537Y-72497118D01*
X163187033Y-72497118D01*
X163195384Y-72455134D01*
X163197138Y-72446318D01*
X163197138Y-72308327D01*
X163170219Y-72173000D01*
X163170218Y-72172999D01*
X163170218Y-72172995D01*
X163164601Y-72159434D01*
X163117416Y-72045518D01*
X163117409Y-72045505D01*
X163040752Y-71930781D01*
X163040749Y-71930777D01*
X162943183Y-71833211D01*
X162943179Y-71833208D01*
X162828455Y-71756551D01*
X162828442Y-71756544D01*
X162700970Y-71703744D01*
X162700960Y-71703741D01*
X162565633Y-71676823D01*
X162565631Y-71676823D01*
X162427645Y-71676823D01*
X162427643Y-71676823D01*
X162292315Y-71703741D01*
X162292305Y-71703744D01*
X162164833Y-71756544D01*
X162164820Y-71756551D01*
X162050096Y-71833208D01*
X162050092Y-71833211D01*
X161952526Y-71930777D01*
X161952523Y-71930781D01*
X161875866Y-72045505D01*
X161875859Y-72045518D01*
X161823059Y-72172990D01*
X161823056Y-72173000D01*
X161796138Y-72308327D01*
X161796138Y-72308330D01*
X161796138Y-72446316D01*
X161796138Y-72446318D01*
X161796137Y-72446318D01*
X148950062Y-72446318D01*
X148946219Y-72427000D01*
X148946218Y-72426999D01*
X148946218Y-72426995D01*
X148946216Y-72426990D01*
X148914198Y-72349690D01*
X148893414Y-72299514D01*
X148893409Y-72299505D01*
X148816752Y-72184781D01*
X148816749Y-72184777D01*
X148719183Y-72087211D01*
X148719179Y-72087208D01*
X148604455Y-72010551D01*
X148604442Y-72010544D01*
X148476970Y-71957744D01*
X148476960Y-71957741D01*
X148341633Y-71930823D01*
X148341631Y-71930823D01*
X148203645Y-71930823D01*
X148203643Y-71930823D01*
X148068315Y-71957741D01*
X148068305Y-71957744D01*
X147940833Y-72010544D01*
X147940820Y-72010551D01*
X147826096Y-72087208D01*
X147826092Y-72087211D01*
X147728526Y-72184777D01*
X147728523Y-72184781D01*
X147651866Y-72299505D01*
X147651859Y-72299518D01*
X147599059Y-72426990D01*
X147599056Y-72427000D01*
X147572138Y-72562327D01*
X147572138Y-72562330D01*
X147572138Y-72700316D01*
X147572138Y-72700318D01*
X147572137Y-72700318D01*
X141166749Y-72700318D01*
X141173818Y-72683251D01*
X141200738Y-72547916D01*
X141200738Y-72409930D01*
X141200738Y-72409927D01*
X141173819Y-72274600D01*
X141173818Y-72274599D01*
X141173818Y-72274595D01*
X141173816Y-72274590D01*
X141121016Y-72147118D01*
X141121009Y-72147105D01*
X141044352Y-72032381D01*
X141044349Y-72032377D01*
X140946783Y-71934811D01*
X140946779Y-71934808D01*
X140832055Y-71858151D01*
X140832042Y-71858144D01*
X140704570Y-71805344D01*
X140704560Y-71805341D01*
X140569233Y-71778423D01*
X140569231Y-71778423D01*
X140431245Y-71778423D01*
X140431243Y-71778423D01*
X140295915Y-71805341D01*
X140295905Y-71805344D01*
X140168433Y-71858144D01*
X140168420Y-71858151D01*
X140053696Y-71934808D01*
X140053692Y-71934811D01*
X139956126Y-72032377D01*
X139956123Y-72032381D01*
X139879466Y-72147105D01*
X139879459Y-72147118D01*
X139826659Y-72274590D01*
X139826656Y-72274600D01*
X139799738Y-72409927D01*
X139799738Y-72409930D01*
X139799738Y-72547916D01*
X139799738Y-72547918D01*
X139799737Y-72547918D01*
X133337417Y-72547918D01*
X133399413Y-72455134D01*
X133403066Y-72446316D01*
X133440316Y-72356386D01*
X133452216Y-72327655D01*
X133452218Y-72327651D01*
X133470430Y-72236094D01*
X133479138Y-72192318D01*
X133479138Y-72054327D01*
X133452219Y-71919000D01*
X133452218Y-71918999D01*
X133452218Y-71918995D01*
X133437727Y-71884011D01*
X133399416Y-71791518D01*
X133399409Y-71791505D01*
X133322752Y-71676781D01*
X133322749Y-71676777D01*
X133225183Y-71579211D01*
X133225179Y-71579208D01*
X133110455Y-71502551D01*
X133110442Y-71502544D01*
X132982970Y-71449744D01*
X132982960Y-71449741D01*
X132847633Y-71422823D01*
X132847631Y-71422823D01*
X132709645Y-71422823D01*
X132709643Y-71422823D01*
X132574315Y-71449741D01*
X132574305Y-71449744D01*
X132446833Y-71502544D01*
X132446820Y-71502551D01*
X132332096Y-71579208D01*
X132332092Y-71579211D01*
X132234526Y-71676777D01*
X132234523Y-71676781D01*
X132157866Y-71791505D01*
X132157859Y-71791518D01*
X132105059Y-71918990D01*
X132105056Y-71919000D01*
X132078138Y-72054327D01*
X132078138Y-72054330D01*
X132078138Y-72192316D01*
X132078138Y-72192318D01*
X132078137Y-72192318D01*
X122573841Y-72192318D01*
X122560220Y-72159434D01*
X122533817Y-72095690D01*
X122506995Y-72030937D01*
X122506990Y-72030928D01*
X122395312Y-71863792D01*
X122395309Y-71863788D01*
X122253172Y-71721651D01*
X122253168Y-71721648D01*
X122086032Y-71609970D01*
X122086019Y-71609963D01*
X121900311Y-71533041D01*
X121900299Y-71533038D01*
X121703153Y-71493823D01*
X121703149Y-71493823D01*
X121502127Y-71493823D01*
X121502122Y-71493823D01*
X121304976Y-71533038D01*
X121304964Y-71533041D01*
X121119256Y-71609963D01*
X121119243Y-71609970D01*
X120952107Y-71721648D01*
X120952103Y-71721651D01*
X120809966Y-71863788D01*
X120809963Y-71863792D01*
X120698285Y-72030928D01*
X120698278Y-72030941D01*
X120621356Y-72216649D01*
X120621353Y-72216661D01*
X120582138Y-72413807D01*
X85527138Y-72413807D01*
X85527138Y-70909330D01*
X93996300Y-70909330D01*
X93996300Y-71116269D01*
X94036668Y-71319212D01*
X94036670Y-71319220D01*
X94112608Y-71502551D01*
X94115859Y-71510398D01*
X94144902Y-71553864D01*
X94230824Y-71682457D01*
X94377142Y-71828775D01*
X94377145Y-71828777D01*
X94549202Y-71943741D01*
X94740380Y-72022930D01*
X94936116Y-72061864D01*
X94943330Y-72063299D01*
X94943334Y-72063300D01*
X94943335Y-72063300D01*
X95150266Y-72063300D01*
X95150267Y-72063299D01*
X95353220Y-72022930D01*
X95544398Y-71943741D01*
X95716455Y-71828777D01*
X95862777Y-71682455D01*
X95977741Y-71510398D01*
X96056930Y-71319220D01*
X96097300Y-71116265D01*
X96097300Y-70909335D01*
X96097299Y-70909330D01*
X96996300Y-70909330D01*
X96996300Y-71116269D01*
X97036668Y-71319212D01*
X97036670Y-71319220D01*
X97112608Y-71502551D01*
X97115859Y-71510398D01*
X97144902Y-71553864D01*
X97230824Y-71682457D01*
X97377142Y-71828775D01*
X97377145Y-71828777D01*
X97549202Y-71943741D01*
X97740380Y-72022930D01*
X97936116Y-72061864D01*
X97943330Y-72063299D01*
X97943334Y-72063300D01*
X97943335Y-72063300D01*
X98150266Y-72063300D01*
X98150267Y-72063299D01*
X98353220Y-72022930D01*
X98544398Y-71943741D01*
X98716455Y-71828777D01*
X98860914Y-71684318D01*
X116330137Y-71684318D01*
X116357056Y-71819645D01*
X116357059Y-71819655D01*
X116409859Y-71947127D01*
X116409866Y-71947140D01*
X116486523Y-72061864D01*
X116486526Y-72061868D01*
X116584092Y-72159434D01*
X116584096Y-72159437D01*
X116698820Y-72236094D01*
X116698833Y-72236101D01*
X116791755Y-72274590D01*
X116826310Y-72288903D01*
X116826314Y-72288903D01*
X116826315Y-72288904D01*
X116961642Y-72315823D01*
X116961645Y-72315823D01*
X117099633Y-72315823D01*
X117189854Y-72297876D01*
X117234966Y-72288903D01*
X117362449Y-72236098D01*
X117477180Y-72159437D01*
X117574752Y-72061865D01*
X117651413Y-71947134D01*
X117652819Y-71943741D01*
X117677560Y-71884009D01*
X117704218Y-71819651D01*
X117713027Y-71775364D01*
X117731138Y-71684318D01*
X117731138Y-71546327D01*
X117704219Y-71411000D01*
X117704218Y-71410999D01*
X117704218Y-71410995D01*
X117666204Y-71319220D01*
X117651416Y-71283518D01*
X117651409Y-71283505D01*
X117574752Y-71168781D01*
X117574749Y-71168777D01*
X117477183Y-71071211D01*
X117477179Y-71071208D01*
X117362455Y-70994551D01*
X117362442Y-70994544D01*
X117234970Y-70941744D01*
X117234960Y-70941741D01*
X117099633Y-70914823D01*
X117099631Y-70914823D01*
X116961645Y-70914823D01*
X116961643Y-70914823D01*
X116826315Y-70941741D01*
X116826305Y-70941744D01*
X116698833Y-70994544D01*
X116698820Y-70994551D01*
X116584096Y-71071208D01*
X116584092Y-71071211D01*
X116486526Y-71168777D01*
X116486523Y-71168781D01*
X116409866Y-71283505D01*
X116409859Y-71283518D01*
X116357059Y-71410990D01*
X116357056Y-71411000D01*
X116330138Y-71546327D01*
X116330138Y-71546330D01*
X116330138Y-71684316D01*
X116330138Y-71684318D01*
X116330137Y-71684318D01*
X98860914Y-71684318D01*
X98862777Y-71682455D01*
X98977741Y-71510398D01*
X99056930Y-71319220D01*
X99097300Y-71116265D01*
X99097300Y-70909335D01*
X99056930Y-70706380D01*
X98977741Y-70515202D01*
X98862777Y-70343145D01*
X98862775Y-70343142D01*
X98716457Y-70196824D01*
X98630426Y-70139341D01*
X98544398Y-70081859D01*
X98353220Y-70002670D01*
X98353212Y-70002668D01*
X98150269Y-69962300D01*
X98150265Y-69962300D01*
X97943335Y-69962300D01*
X97943330Y-69962300D01*
X97740387Y-70002668D01*
X97740379Y-70002670D01*
X97549203Y-70081858D01*
X97377142Y-70196824D01*
X97230824Y-70343142D01*
X97115858Y-70515203D01*
X97036670Y-70706379D01*
X97036668Y-70706387D01*
X96996300Y-70909330D01*
X96097299Y-70909330D01*
X96056930Y-70706380D01*
X95977741Y-70515202D01*
X95862777Y-70343145D01*
X95862775Y-70343142D01*
X95716457Y-70196824D01*
X95630426Y-70139341D01*
X95544398Y-70081859D01*
X95353220Y-70002670D01*
X95353212Y-70002668D01*
X95150269Y-69962300D01*
X95150265Y-69962300D01*
X94943335Y-69962300D01*
X94943330Y-69962300D01*
X94740387Y-70002668D01*
X94740379Y-70002670D01*
X94549203Y-70081858D01*
X94377142Y-70196824D01*
X94230824Y-70343142D01*
X94115858Y-70515203D01*
X94036670Y-70706379D01*
X94036668Y-70706387D01*
X93996300Y-70909330D01*
X85527138Y-70909330D01*
X85527138Y-67909330D01*
X93996300Y-67909330D01*
X93996300Y-68116269D01*
X94036668Y-68319212D01*
X94036670Y-68319220D01*
X94115858Y-68510396D01*
X94230824Y-68682457D01*
X94377142Y-68828775D01*
X94377145Y-68828777D01*
X94549202Y-68943741D01*
X94740380Y-69022930D01*
X94943330Y-69063299D01*
X94943334Y-69063300D01*
X94943335Y-69063300D01*
X95150266Y-69063300D01*
X95150267Y-69063299D01*
X95353220Y-69022930D01*
X95544398Y-68943741D01*
X95716455Y-68828777D01*
X95862777Y-68682455D01*
X95977741Y-68510398D01*
X96056930Y-68319220D01*
X96097300Y-68116265D01*
X96097300Y-67909335D01*
X96097299Y-67909330D01*
X96996300Y-67909330D01*
X96996300Y-68116269D01*
X97036668Y-68319212D01*
X97036670Y-68319220D01*
X97115858Y-68510396D01*
X97230824Y-68682457D01*
X97377142Y-68828775D01*
X97377145Y-68828777D01*
X97549202Y-68943741D01*
X97740380Y-69022930D01*
X97943330Y-69063299D01*
X97943334Y-69063300D01*
X97943335Y-69063300D01*
X98150266Y-69063300D01*
X98150267Y-69063299D01*
X98353220Y-69022930D01*
X98544398Y-68943741D01*
X98716455Y-68828777D01*
X98862777Y-68682455D01*
X98977741Y-68510398D01*
X99056930Y-68319220D01*
X99097300Y-68116265D01*
X99097300Y-67909335D01*
X99056930Y-67706380D01*
X98977741Y-67515202D01*
X98862777Y-67343145D01*
X98862775Y-67343142D01*
X98716457Y-67196824D01*
X98630426Y-67139341D01*
X98544398Y-67081859D01*
X98353220Y-67002670D01*
X98353212Y-67002668D01*
X98150269Y-66962300D01*
X98150265Y-66962300D01*
X97943335Y-66962300D01*
X97943330Y-66962300D01*
X97740387Y-67002668D01*
X97740379Y-67002670D01*
X97549203Y-67081858D01*
X97377142Y-67196824D01*
X97230824Y-67343142D01*
X97115858Y-67515203D01*
X97036670Y-67706379D01*
X97036668Y-67706387D01*
X96996300Y-67909330D01*
X96097299Y-67909330D01*
X96056930Y-67706380D01*
X95977741Y-67515202D01*
X95862777Y-67343145D01*
X95862775Y-67343142D01*
X95716457Y-67196824D01*
X95630426Y-67139341D01*
X95544398Y-67081859D01*
X95353220Y-67002670D01*
X95353212Y-67002668D01*
X95150269Y-66962300D01*
X95150265Y-66962300D01*
X94943335Y-66962300D01*
X94943330Y-66962300D01*
X94740387Y-67002668D01*
X94740379Y-67002670D01*
X94549203Y-67081858D01*
X94377142Y-67196824D01*
X94230824Y-67343142D01*
X94115858Y-67515203D01*
X94036670Y-67706379D01*
X94036668Y-67706387D01*
X93996300Y-67909330D01*
X85527138Y-67909330D01*
X85527138Y-66350318D01*
X104646137Y-66350318D01*
X104673056Y-66485645D01*
X104673059Y-66485655D01*
X104725859Y-66613127D01*
X104725866Y-66613140D01*
X104802523Y-66727864D01*
X104802526Y-66727868D01*
X104900092Y-66825434D01*
X104900096Y-66825437D01*
X105014820Y-66902094D01*
X105014833Y-66902101D01*
X105142305Y-66954901D01*
X105142310Y-66954903D01*
X105142314Y-66954903D01*
X105142315Y-66954904D01*
X105277642Y-66981823D01*
X105277645Y-66981823D01*
X105415633Y-66981823D01*
X105513779Y-66962300D01*
X105550966Y-66954903D01*
X105678449Y-66902098D01*
X105793180Y-66825437D01*
X105890752Y-66727865D01*
X105967413Y-66613134D01*
X106020218Y-66485651D01*
X106047138Y-66350316D01*
X106047138Y-66212330D01*
X106047138Y-66212327D01*
X106020219Y-66077000D01*
X106020218Y-66076999D01*
X106020218Y-66076995D01*
X105979438Y-65978542D01*
X105967416Y-65949518D01*
X105967409Y-65949505D01*
X105944564Y-65915315D01*
X105901787Y-65851296D01*
X115118138Y-65851296D01*
X115118138Y-66095350D01*
X115156317Y-66336399D01*
X115231734Y-66568508D01*
X115312930Y-66727865D01*
X115342534Y-66785965D01*
X115485977Y-66983399D01*
X115485981Y-66983404D01*
X115658556Y-67155979D01*
X115658561Y-67155983D01*
X115830774Y-67281102D01*
X115855999Y-67299429D01*
X116073453Y-67410227D01*
X116305562Y-67485644D01*
X116546611Y-67523823D01*
X116546612Y-67523823D01*
X116790664Y-67523823D01*
X116790665Y-67523823D01*
X117031714Y-67485644D01*
X117263823Y-67410227D01*
X117481277Y-67299429D01*
X117678721Y-67155978D01*
X117851293Y-66983406D01*
X117994744Y-66785962D01*
X118105542Y-66568508D01*
X118180959Y-66336399D01*
X118219138Y-66095350D01*
X118219138Y-65851296D01*
X118180959Y-65610247D01*
X118105542Y-65378138D01*
X117994744Y-65160684D01*
X117940089Y-65085458D01*
X117851298Y-64963246D01*
X117851294Y-64963241D01*
X117678719Y-64790666D01*
X117678714Y-64790662D01*
X117481280Y-64647219D01*
X117481279Y-64647218D01*
X117481277Y-64647217D01*
X117263823Y-64536419D01*
X117031714Y-64461002D01*
X117031712Y-64461001D01*
X117031710Y-64461001D01*
X116863407Y-64434344D01*
X116790665Y-64422823D01*
X116546611Y-64422823D01*
X116490731Y-64431673D01*
X116305565Y-64461001D01*
X116073450Y-64536420D01*
X115855995Y-64647219D01*
X115658561Y-64790662D01*
X115658556Y-64790666D01*
X115485981Y-64963241D01*
X115485977Y-64963246D01*
X115342534Y-65160680D01*
X115231735Y-65378135D01*
X115156316Y-65610250D01*
X115124052Y-65813957D01*
X115118138Y-65851296D01*
X105901787Y-65851296D01*
X105890752Y-65834781D01*
X105890749Y-65834777D01*
X105793183Y-65737211D01*
X105793179Y-65737208D01*
X105678455Y-65660551D01*
X105678442Y-65660544D01*
X105550970Y-65607744D01*
X105550960Y-65607741D01*
X105415633Y-65580823D01*
X105415631Y-65580823D01*
X105277645Y-65580823D01*
X105277643Y-65580823D01*
X105142315Y-65607741D01*
X105142305Y-65607744D01*
X105014833Y-65660544D01*
X105014820Y-65660551D01*
X104900096Y-65737208D01*
X104900092Y-65737211D01*
X104802526Y-65834777D01*
X104802523Y-65834781D01*
X104725866Y-65949505D01*
X104725859Y-65949518D01*
X104673059Y-66076990D01*
X104673056Y-66077000D01*
X104646138Y-66212327D01*
X104646138Y-66212330D01*
X104646138Y-66350316D01*
X104646138Y-66350318D01*
X104646137Y-66350318D01*
X85527138Y-66350318D01*
X85527138Y-64038058D01*
X88976300Y-64038058D01*
X88976300Y-64267541D01*
X89001246Y-64457015D01*
X89006252Y-64495038D01*
X89047028Y-64647217D01*
X89065642Y-64716687D01*
X89153450Y-64928676D01*
X89153457Y-64928690D01*
X89268192Y-65127417D01*
X89407881Y-65309461D01*
X89407889Y-65309470D01*
X89570130Y-65471711D01*
X89570138Y-65471718D01*
X89752182Y-65611407D01*
X89752185Y-65611408D01*
X89752188Y-65611411D01*
X89950912Y-65726144D01*
X89950917Y-65726146D01*
X89950923Y-65726149D01*
X90042280Y-65763990D01*
X90162913Y-65813958D01*
X90384562Y-65873348D01*
X90612066Y-65903300D01*
X90612073Y-65903300D01*
X90841527Y-65903300D01*
X90841534Y-65903300D01*
X91069038Y-65873348D01*
X91290687Y-65813958D01*
X91502688Y-65726144D01*
X91701412Y-65611411D01*
X91883461Y-65471719D01*
X91883465Y-65471714D01*
X91883470Y-65471711D01*
X92045711Y-65309470D01*
X92045714Y-65309465D01*
X92045719Y-65309461D01*
X92185411Y-65127412D01*
X92300144Y-64928688D01*
X92308162Y-64909330D01*
X93996300Y-64909330D01*
X93996300Y-65116269D01*
X94036668Y-65319212D01*
X94036670Y-65319220D01*
X94115858Y-65510396D01*
X94230824Y-65682457D01*
X94377142Y-65828775D01*
X94377145Y-65828777D01*
X94549202Y-65943741D01*
X94740380Y-66022930D01*
X94943330Y-66063299D01*
X94943334Y-66063300D01*
X94943335Y-66063300D01*
X95150266Y-66063300D01*
X95150267Y-66063299D01*
X95353220Y-66022930D01*
X95544398Y-65943741D01*
X95716455Y-65828777D01*
X95862777Y-65682455D01*
X95977741Y-65510398D01*
X96056930Y-65319220D01*
X96097300Y-65116265D01*
X96097300Y-64909335D01*
X96097299Y-64909330D01*
X96996300Y-64909330D01*
X96996300Y-65116269D01*
X97036668Y-65319212D01*
X97036670Y-65319220D01*
X97115858Y-65510396D01*
X97230824Y-65682457D01*
X97377142Y-65828775D01*
X97377145Y-65828777D01*
X97549202Y-65943741D01*
X97740380Y-66022930D01*
X97943330Y-66063299D01*
X97943334Y-66063300D01*
X97943335Y-66063300D01*
X98150266Y-66063300D01*
X98150267Y-66063299D01*
X98353220Y-66022930D01*
X98544398Y-65943741D01*
X98716455Y-65828777D01*
X98862777Y-65682455D01*
X98977741Y-65510398D01*
X99056930Y-65319220D01*
X99097300Y-65116265D01*
X99097300Y-64909335D01*
X99056930Y-64706380D01*
X98977741Y-64515202D01*
X98862777Y-64343145D01*
X98862775Y-64343142D01*
X98716457Y-64196824D01*
X98610086Y-64125750D01*
X98544398Y-64081859D01*
X98527841Y-64075001D01*
X98353220Y-64002670D01*
X98353212Y-64002668D01*
X98150269Y-63962300D01*
X98150265Y-63962300D01*
X97943335Y-63962300D01*
X97943330Y-63962300D01*
X97740387Y-64002668D01*
X97740379Y-64002670D01*
X97549203Y-64081858D01*
X97377142Y-64196824D01*
X97230824Y-64343142D01*
X97115858Y-64515203D01*
X97036670Y-64706379D01*
X97036668Y-64706387D01*
X96996300Y-64909330D01*
X96097299Y-64909330D01*
X96056930Y-64706380D01*
X95977741Y-64515202D01*
X95862777Y-64343145D01*
X95862775Y-64343142D01*
X95716457Y-64196824D01*
X95610086Y-64125750D01*
X95544398Y-64081859D01*
X95527841Y-64075001D01*
X95353220Y-64002670D01*
X95353212Y-64002668D01*
X95150269Y-63962300D01*
X95150265Y-63962300D01*
X94943335Y-63962300D01*
X94943330Y-63962300D01*
X94740387Y-64002668D01*
X94740379Y-64002670D01*
X94549203Y-64081858D01*
X94377142Y-64196824D01*
X94230824Y-64343142D01*
X94115858Y-64515203D01*
X94036670Y-64706379D01*
X94036668Y-64706387D01*
X93996300Y-64909330D01*
X92308162Y-64909330D01*
X92387958Y-64716687D01*
X92447348Y-64495038D01*
X92477300Y-64267534D01*
X92477300Y-64038066D01*
X92447348Y-63810562D01*
X92387958Y-63588913D01*
X92323538Y-63433389D01*
X92300149Y-63376923D01*
X92300146Y-63376917D01*
X92300144Y-63376912D01*
X92185411Y-63178188D01*
X92185408Y-63178185D01*
X92185407Y-63178182D01*
X92066277Y-63022931D01*
X92045719Y-62996139D01*
X92045718Y-62996138D01*
X92045711Y-62996130D01*
X91883470Y-62833889D01*
X91883461Y-62833881D01*
X91701417Y-62694192D01*
X91681091Y-62682457D01*
X91617420Y-62645696D01*
X91502690Y-62579457D01*
X91502676Y-62579450D01*
X91290687Y-62491642D01*
X91262192Y-62484007D01*
X91069038Y-62432252D01*
X91031015Y-62427246D01*
X90841541Y-62402300D01*
X90841534Y-62402300D01*
X90612066Y-62402300D01*
X90612058Y-62402300D01*
X90395515Y-62430809D01*
X90384562Y-62432252D01*
X90290876Y-62457354D01*
X90162912Y-62491642D01*
X89950923Y-62579450D01*
X89950909Y-62579457D01*
X89752182Y-62694192D01*
X89570138Y-62833881D01*
X89407881Y-62996138D01*
X89268192Y-63178182D01*
X89153457Y-63376909D01*
X89153450Y-63376923D01*
X89065642Y-63588912D01*
X89051948Y-63640019D01*
X89012694Y-63786522D01*
X89006253Y-63810559D01*
X89006251Y-63810570D01*
X88976300Y-64038058D01*
X85527138Y-64038058D01*
X85527138Y-61909330D01*
X93996300Y-61909330D01*
X93996300Y-62116269D01*
X94036332Y-62317521D01*
X94036670Y-62319220D01*
X94115859Y-62510398D01*
X94135980Y-62540511D01*
X94230824Y-62682457D01*
X94377142Y-62828775D01*
X94377145Y-62828777D01*
X94549202Y-62943741D01*
X94740380Y-63022930D01*
X94943330Y-63063299D01*
X94943334Y-63063300D01*
X94943335Y-63063300D01*
X95150266Y-63063300D01*
X95150267Y-63063299D01*
X95353220Y-63022930D01*
X95544398Y-62943741D01*
X95716455Y-62828777D01*
X95862777Y-62682455D01*
X95977741Y-62510398D01*
X96056930Y-62319220D01*
X96097300Y-62116265D01*
X96097300Y-61909335D01*
X96097299Y-61909330D01*
X96996300Y-61909330D01*
X96996300Y-62116269D01*
X97036332Y-62317521D01*
X97036670Y-62319220D01*
X97115859Y-62510398D01*
X97135980Y-62540511D01*
X97230824Y-62682457D01*
X97377142Y-62828775D01*
X97377145Y-62828777D01*
X97549202Y-62943741D01*
X97740380Y-63022930D01*
X97943330Y-63063299D01*
X97943334Y-63063300D01*
X97943335Y-63063300D01*
X98150266Y-63063300D01*
X98150267Y-63063299D01*
X98353220Y-63022930D01*
X98544398Y-62943741D01*
X98716455Y-62828777D01*
X98862777Y-62682455D01*
X98977741Y-62510398D01*
X99056930Y-62319220D01*
X99097300Y-62116265D01*
X99097300Y-61946740D01*
X106525138Y-61946740D01*
X106525138Y-63271905D01*
X106535772Y-63360458D01*
X106535772Y-63360459D01*
X106591346Y-63501384D01*
X106591912Y-63502130D01*
X106682876Y-63622085D01*
X106777546Y-63693875D01*
X106797904Y-63709313D01*
X106803579Y-63713616D01*
X106944500Y-63769188D01*
X107033056Y-63779823D01*
X108358220Y-63779823D01*
X108446776Y-63769188D01*
X108587697Y-63713616D01*
X108708400Y-63622085D01*
X108799931Y-63501382D01*
X108855503Y-63360461D01*
X108866138Y-63271905D01*
X108866138Y-62965158D01*
X108885823Y-62898119D01*
X108938627Y-62852364D01*
X109007785Y-62842420D01*
X109071341Y-62871445D01*
X109108069Y-62926840D01*
X109150891Y-63058636D01*
X109159837Y-63076193D01*
X109234537Y-63222798D01*
X109342831Y-63371852D01*
X109473109Y-63502130D01*
X109622163Y-63610424D01*
X109693270Y-63646655D01*
X109786324Y-63694069D01*
X109846485Y-63713616D01*
X109961545Y-63751001D01*
X110143518Y-63779823D01*
X110143519Y-63779823D01*
X110327757Y-63779823D01*
X110327758Y-63779823D01*
X110509731Y-63751001D01*
X110684954Y-63694068D01*
X110849113Y-63610424D01*
X110998167Y-63502130D01*
X111128445Y-63371852D01*
X111236739Y-63222798D01*
X111320383Y-63058639D01*
X111377316Y-62883416D01*
X111406138Y-62701443D01*
X111406138Y-62517203D01*
X111377316Y-62335230D01*
X111344079Y-62232935D01*
X111320384Y-62160009D01*
X111298097Y-62116269D01*
X111236739Y-61995848D01*
X111128445Y-61846794D01*
X110998167Y-61716516D01*
X110849113Y-61608222D01*
X110826227Y-61596561D01*
X110684951Y-61524576D01*
X110509732Y-61467645D01*
X110394904Y-61449458D01*
X110327758Y-61438823D01*
X110143518Y-61438823D01*
X110082860Y-61448430D01*
X109961543Y-61467645D01*
X109786324Y-61524576D01*
X109622162Y-61608222D01*
X109537122Y-61670007D01*
X109473109Y-61716516D01*
X109473107Y-61716518D01*
X109473106Y-61716518D01*
X109342833Y-61846791D01*
X109342833Y-61846792D01*
X109342831Y-61846794D01*
X109318865Y-61879781D01*
X109234537Y-61995847D01*
X109150891Y-62160009D01*
X109108069Y-62291805D01*
X109068632Y-62349480D01*
X109004273Y-62376679D01*
X108935427Y-62364765D01*
X108883951Y-62317521D01*
X108866138Y-62253487D01*
X108866138Y-61946740D01*
X108860444Y-61899326D01*
X108855503Y-61858185D01*
X108799931Y-61717264D01*
X108799365Y-61716518D01*
X108780190Y-61691231D01*
X108708400Y-61596561D01*
X108613473Y-61524576D01*
X108587699Y-61505031D01*
X108587697Y-61505030D01*
X108492895Y-61467645D01*
X108446774Y-61449457D01*
X108358220Y-61438823D01*
X107033056Y-61438823D01*
X106944502Y-61449457D01*
X106944501Y-61449457D01*
X106803576Y-61505031D01*
X106682876Y-61596561D01*
X106591346Y-61717261D01*
X106535772Y-61858186D01*
X106535772Y-61858187D01*
X106525138Y-61946740D01*
X99097300Y-61946740D01*
X99097300Y-61909335D01*
X99056930Y-61706380D01*
X98977741Y-61515202D01*
X98862777Y-61343145D01*
X98862775Y-61343142D01*
X98716457Y-61196824D01*
X98630426Y-61139341D01*
X98544398Y-61081859D01*
X98353220Y-61002670D01*
X98353212Y-61002668D01*
X98150269Y-60962300D01*
X98150265Y-60962300D01*
X97943335Y-60962300D01*
X97943330Y-60962300D01*
X97740387Y-61002668D01*
X97740379Y-61002670D01*
X97549203Y-61081858D01*
X97377142Y-61196824D01*
X97230824Y-61343142D01*
X97115858Y-61515203D01*
X97036670Y-61706379D01*
X97036668Y-61706387D01*
X96996300Y-61909330D01*
X96097299Y-61909330D01*
X96056930Y-61706380D01*
X95977741Y-61515202D01*
X95862777Y-61343145D01*
X95862775Y-61343142D01*
X95716457Y-61196824D01*
X95630426Y-61139341D01*
X95544398Y-61081859D01*
X95353220Y-61002670D01*
X95353212Y-61002668D01*
X95150269Y-60962300D01*
X95150265Y-60962300D01*
X94943335Y-60962300D01*
X94943330Y-60962300D01*
X94740387Y-61002668D01*
X94740379Y-61002670D01*
X94549203Y-61081858D01*
X94377142Y-61196824D01*
X94230824Y-61343142D01*
X94115858Y-61515203D01*
X94036670Y-61706379D01*
X94036668Y-61706387D01*
X93996300Y-61909330D01*
X85527138Y-61909330D01*
X85527138Y-53900711D01*
X88290300Y-53900711D01*
X88290300Y-54143288D01*
X88321961Y-54383785D01*
X88384747Y-54618104D01*
X88477573Y-54842205D01*
X88477576Y-54842212D01*
X88598864Y-55052289D01*
X88598866Y-55052292D01*
X88598867Y-55052293D01*
X88746533Y-55244736D01*
X88746539Y-55244743D01*
X88918056Y-55416260D01*
X88918063Y-55416266D01*
X88947605Y-55438934D01*
X89110511Y-55563936D01*
X89320588Y-55685224D01*
X89544700Y-55778054D01*
X89779011Y-55840838D01*
X89959386Y-55864584D01*
X90019511Y-55872500D01*
X90019512Y-55872500D01*
X90262089Y-55872500D01*
X90310188Y-55866167D01*
X90502589Y-55840838D01*
X90736900Y-55778054D01*
X90961012Y-55685224D01*
X91171089Y-55563936D01*
X91363538Y-55416265D01*
X91535065Y-55244738D01*
X91682736Y-55052289D01*
X91804024Y-54842212D01*
X91896854Y-54618100D01*
X91959638Y-54383789D01*
X91991300Y-54143288D01*
X91991300Y-53900712D01*
X91991300Y-53900709D01*
X91985099Y-53853605D01*
X91983502Y-53841472D01*
X104475138Y-53841472D01*
X104475138Y-54097173D01*
X104490812Y-54216222D01*
X104508512Y-54350663D01*
X104554255Y-54521379D01*
X104574688Y-54597635D01*
X104574691Y-54597645D01*
X104672532Y-54833854D01*
X104672537Y-54833865D01*
X104800372Y-55055280D01*
X104800383Y-55055296D01*
X104956026Y-55258134D01*
X104956032Y-55258141D01*
X105136819Y-55438928D01*
X105136825Y-55438933D01*
X105339673Y-55594584D01*
X105339680Y-55594588D01*
X105561095Y-55722423D01*
X105561100Y-55722425D01*
X105561103Y-55722427D01*
X105658896Y-55762934D01*
X105781417Y-55813684D01*
X105797325Y-55820273D01*
X106044298Y-55886449D01*
X106297795Y-55919823D01*
X106297802Y-55919823D01*
X106553474Y-55919823D01*
X106553481Y-55919823D01*
X106806978Y-55886449D01*
X107053951Y-55820273D01*
X107290173Y-55722427D01*
X107511603Y-55594584D01*
X107714451Y-55438933D01*
X107895248Y-55258136D01*
X108050899Y-55055288D01*
X108178742Y-54833858D01*
X108276588Y-54597636D01*
X108342764Y-54350663D01*
X108376138Y-54097166D01*
X108376138Y-53841480D01*
X108376137Y-53841472D01*
X109555138Y-53841472D01*
X109555138Y-54097173D01*
X109570812Y-54216222D01*
X109588512Y-54350663D01*
X109634255Y-54521379D01*
X109654688Y-54597635D01*
X109654691Y-54597645D01*
X109752532Y-54833854D01*
X109752537Y-54833865D01*
X109880372Y-55055280D01*
X109880383Y-55055296D01*
X110036026Y-55258134D01*
X110036032Y-55258141D01*
X110216819Y-55438928D01*
X110216825Y-55438933D01*
X110419673Y-55594584D01*
X110419680Y-55594588D01*
X110641095Y-55722423D01*
X110641100Y-55722425D01*
X110641103Y-55722427D01*
X110738896Y-55762934D01*
X110861417Y-55813684D01*
X110877325Y-55820273D01*
X111124298Y-55886449D01*
X111377795Y-55919823D01*
X111377802Y-55919823D01*
X111633474Y-55919823D01*
X111633481Y-55919823D01*
X111886978Y-55886449D01*
X112133951Y-55820273D01*
X112370173Y-55722427D01*
X112591603Y-55594584D01*
X112794451Y-55438933D01*
X112975248Y-55258136D01*
X113130899Y-55055288D01*
X113258742Y-54833858D01*
X113356588Y-54597636D01*
X113422764Y-54350663D01*
X113456138Y-54097166D01*
X113456138Y-53841480D01*
X113425046Y-53605318D01*
X114818138Y-53605318D01*
X114818138Y-53841327D01*
X114818139Y-53841343D01*
X114834120Y-53962734D01*
X114848945Y-54075337D01*
X114872087Y-54161703D01*
X114910032Y-54303316D01*
X115000352Y-54521368D01*
X115000357Y-54521379D01*
X115044384Y-54597635D01*
X115118365Y-54725773D01*
X115118367Y-54725776D01*
X115118368Y-54725777D01*
X115262044Y-54913020D01*
X115262050Y-54913027D01*
X115428933Y-55079910D01*
X115428939Y-55079915D01*
X115616188Y-55223596D01*
X115747556Y-55299441D01*
X115820581Y-55341603D01*
X115820586Y-55341605D01*
X115820589Y-55341607D01*
X116038645Y-55431929D01*
X116266624Y-55493016D01*
X116500627Y-55523823D01*
X116500634Y-55523823D01*
X116736642Y-55523823D01*
X116736649Y-55523823D01*
X116970652Y-55493016D01*
X117198631Y-55431929D01*
X117416687Y-55341607D01*
X117621088Y-55223596D01*
X117808337Y-55079915D01*
X117975230Y-54913022D01*
X118118911Y-54725773D01*
X118236922Y-54521372D01*
X118327244Y-54303316D01*
X118388331Y-54075337D01*
X118419138Y-53841334D01*
X118419138Y-53605312D01*
X118388331Y-53371309D01*
X118327244Y-53143330D01*
X118236922Y-52925274D01*
X118236920Y-52925271D01*
X118236918Y-52925266D01*
X118178288Y-52823717D01*
X118118911Y-52720873D01*
X117975230Y-52533624D01*
X117975225Y-52533618D01*
X117808342Y-52366735D01*
X117808335Y-52366729D01*
X117621092Y-52223053D01*
X117621091Y-52223052D01*
X117621088Y-52223050D01*
X117531801Y-52171500D01*
X117416694Y-52105042D01*
X117416683Y-52105037D01*
X117198631Y-52014717D01*
X116970648Y-51953629D01*
X116736658Y-51922824D01*
X116736655Y-51922823D01*
X116736649Y-51922823D01*
X116500627Y-51922823D01*
X116500621Y-51922823D01*
X116500617Y-51922824D01*
X116266627Y-51953629D01*
X116038644Y-52014717D01*
X115820592Y-52105037D01*
X115820581Y-52105042D01*
X115616183Y-52223053D01*
X115428940Y-52366729D01*
X115428933Y-52366735D01*
X115262050Y-52533618D01*
X115262044Y-52533625D01*
X115118368Y-52720868D01*
X115000357Y-52925266D01*
X115000352Y-52925277D01*
X114910032Y-53143329D01*
X114848944Y-53371312D01*
X114818139Y-53605302D01*
X114818138Y-53605318D01*
X113425046Y-53605318D01*
X113422764Y-53587983D01*
X113356588Y-53341010D01*
X113258742Y-53104788D01*
X113258740Y-53104785D01*
X113258738Y-53104780D01*
X113130903Y-52883365D01*
X113130899Y-52883358D01*
X113004638Y-52718812D01*
X112975249Y-52680511D01*
X112975243Y-52680504D01*
X112794456Y-52499717D01*
X112794449Y-52499711D01*
X112591611Y-52344068D01*
X112591609Y-52344066D01*
X112591603Y-52344062D01*
X112591598Y-52344059D01*
X112591595Y-52344057D01*
X112370180Y-52216222D01*
X112370169Y-52216217D01*
X112133960Y-52118376D01*
X112133953Y-52118374D01*
X112133951Y-52118373D01*
X111886978Y-52052197D01*
X111830645Y-52044780D01*
X111633488Y-52018823D01*
X111633481Y-52018823D01*
X111377795Y-52018823D01*
X111377787Y-52018823D01*
X111152464Y-52048488D01*
X111124298Y-52052197D01*
X110927077Y-52105042D01*
X110877325Y-52118373D01*
X110877315Y-52118376D01*
X110641106Y-52216217D01*
X110641095Y-52216222D01*
X110419680Y-52344057D01*
X110419664Y-52344068D01*
X110216826Y-52499711D01*
X110216819Y-52499717D01*
X110036032Y-52680504D01*
X110036026Y-52680511D01*
X109880383Y-52883349D01*
X109880372Y-52883365D01*
X109752537Y-53104780D01*
X109752532Y-53104791D01*
X109654691Y-53341000D01*
X109654688Y-53341010D01*
X109588512Y-53587984D01*
X109555138Y-53841472D01*
X108376137Y-53841472D01*
X108342764Y-53587983D01*
X108276588Y-53341010D01*
X108178742Y-53104788D01*
X108178740Y-53104785D01*
X108178738Y-53104780D01*
X108050903Y-52883365D01*
X108050899Y-52883358D01*
X107924638Y-52718812D01*
X107895249Y-52680511D01*
X107895243Y-52680504D01*
X107714456Y-52499717D01*
X107714449Y-52499711D01*
X107511611Y-52344068D01*
X107511609Y-52344066D01*
X107511603Y-52344062D01*
X107511598Y-52344059D01*
X107511595Y-52344057D01*
X107290180Y-52216222D01*
X107290169Y-52216217D01*
X107053960Y-52118376D01*
X107053953Y-52118374D01*
X107053951Y-52118373D01*
X106806978Y-52052197D01*
X106750645Y-52044780D01*
X106553488Y-52018823D01*
X106553481Y-52018823D01*
X106297795Y-52018823D01*
X106297787Y-52018823D01*
X106072464Y-52048488D01*
X106044298Y-52052197D01*
X105847077Y-52105042D01*
X105797325Y-52118373D01*
X105797315Y-52118376D01*
X105561106Y-52216217D01*
X105561095Y-52216222D01*
X105339680Y-52344057D01*
X105339664Y-52344068D01*
X105136826Y-52499711D01*
X105136819Y-52499717D01*
X104956032Y-52680504D01*
X104956026Y-52680511D01*
X104800383Y-52883349D01*
X104800372Y-52883365D01*
X104672537Y-53104780D01*
X104672532Y-53104791D01*
X104574691Y-53341000D01*
X104574688Y-53341010D01*
X104508512Y-53587984D01*
X104475138Y-53841472D01*
X91983502Y-53841472D01*
X91961628Y-53675329D01*
X91959638Y-53660211D01*
X91896854Y-53425900D01*
X91804024Y-53201788D01*
X91682736Y-52991711D01*
X91553827Y-52823713D01*
X91535066Y-52799263D01*
X91535060Y-52799256D01*
X91363543Y-52627739D01*
X91363536Y-52627733D01*
X91171093Y-52480067D01*
X91171092Y-52480066D01*
X91171089Y-52480064D01*
X90991186Y-52376197D01*
X90961014Y-52358777D01*
X90961005Y-52358773D01*
X90736904Y-52265947D01*
X90619744Y-52234554D01*
X90502589Y-52203162D01*
X90502588Y-52203161D01*
X90502585Y-52203161D01*
X90262089Y-52171500D01*
X90262088Y-52171500D01*
X90019512Y-52171500D01*
X90019511Y-52171500D01*
X89779014Y-52203161D01*
X89544695Y-52265947D01*
X89320594Y-52358773D01*
X89320585Y-52358777D01*
X89110506Y-52480067D01*
X88918063Y-52627733D01*
X88918056Y-52627739D01*
X88746539Y-52799256D01*
X88746533Y-52799263D01*
X88598867Y-52991706D01*
X88598864Y-52991710D01*
X88598864Y-52991711D01*
X88591474Y-53004511D01*
X88477577Y-53201785D01*
X88477573Y-53201794D01*
X88384747Y-53425895D01*
X88321961Y-53660214D01*
X88290300Y-53900711D01*
X85527138Y-53900711D01*
X85527138Y-49539823D01*
X85546823Y-49472784D01*
X85599627Y-49427029D01*
X85651138Y-49415823D01*
X118687566Y-49415823D01*
X118754605Y-49435508D01*
G37*
%TD.AperFunction*%
%TD*%
%TA.AperFunction,Conductor*%
%TO.N,/SAFETY_12V*%
G36*
X153248506Y-49435508D02*
G01*
X153294261Y-49488312D01*
X153305467Y-49539541D01*
X153333341Y-61804097D01*
X153313809Y-61871181D01*
X153261109Y-61917056D01*
X153191973Y-61927157D01*
X153153046Y-61914863D01*
X153022958Y-61848579D01*
X153022954Y-61848577D01*
X152847732Y-61791645D01*
X152756744Y-61777234D01*
X152665758Y-61762823D01*
X152481518Y-61762823D01*
X152420860Y-61772430D01*
X152299543Y-61791645D01*
X152124324Y-61848576D01*
X151960162Y-61932222D01*
X151875122Y-61994007D01*
X151811109Y-62040516D01*
X151811107Y-62040518D01*
X151811106Y-62040518D01*
X151680833Y-62170791D01*
X151680826Y-62170800D01*
X151620174Y-62254279D01*
X151564844Y-62296945D01*
X151495231Y-62302923D01*
X151433436Y-62270317D01*
X151399079Y-62209477D01*
X151396499Y-62193994D01*
X151393135Y-62161071D01*
X151337946Y-61994519D01*
X151245835Y-61845187D01*
X151121773Y-61721125D01*
X150972441Y-61629014D01*
X150805888Y-61573825D01*
X150703102Y-61563323D01*
X150283638Y-61563323D01*
X150283638Y-62448348D01*
X150244000Y-62425464D01*
X150105389Y-62388323D01*
X149961887Y-62388323D01*
X149823276Y-62425464D01*
X149783638Y-62448348D01*
X149783638Y-61563323D01*
X149364187Y-61563323D01*
X149364172Y-61563324D01*
X149261386Y-61573825D01*
X149094834Y-61629014D01*
X148945502Y-61721125D01*
X148821440Y-61845187D01*
X148729329Y-61994519D01*
X148674140Y-62161072D01*
X148663638Y-62263858D01*
X148663638Y-62683323D01*
X149548664Y-62683323D01*
X149525779Y-62722961D01*
X149488638Y-62861572D01*
X149488638Y-63005074D01*
X149525779Y-63143685D01*
X149548664Y-63183323D01*
X148663639Y-63183323D01*
X148663639Y-63602788D01*
X148674140Y-63705574D01*
X148729329Y-63872126D01*
X148821440Y-64021458D01*
X148945502Y-64145520D01*
X149094834Y-64237631D01*
X149261387Y-64292820D01*
X149364180Y-64303322D01*
X149783637Y-64303322D01*
X149783638Y-64303321D01*
X149783638Y-63418297D01*
X149823276Y-63441182D01*
X149961887Y-63478323D01*
X150105389Y-63478323D01*
X150244000Y-63441182D01*
X150283638Y-63418297D01*
X150283638Y-64303322D01*
X150703089Y-64303322D01*
X150703103Y-64303321D01*
X150805889Y-64292820D01*
X150972441Y-64237631D01*
X151121773Y-64145520D01*
X151245835Y-64021458D01*
X151337946Y-63872126D01*
X151393136Y-63705573D01*
X151396499Y-63672651D01*
X151422894Y-63607959D01*
X151480074Y-63567807D01*
X151549885Y-63564943D01*
X151610162Y-63600276D01*
X151620174Y-63612365D01*
X151680831Y-63695852D01*
X151811109Y-63826130D01*
X151960163Y-63934424D01*
X152015363Y-63962550D01*
X152124324Y-64018069D01*
X152211933Y-64046534D01*
X152299545Y-64075001D01*
X152481518Y-64103823D01*
X152481519Y-64103823D01*
X152665757Y-64103823D01*
X152665758Y-64103823D01*
X152847731Y-64075001D01*
X153022954Y-64018068D01*
X153158171Y-63949171D01*
X153226841Y-63936274D01*
X153291581Y-63962550D01*
X153331839Y-64019656D01*
X153338467Y-64059373D01*
X153340630Y-65011483D01*
X153321097Y-65078567D01*
X153319732Y-65080656D01*
X153239866Y-65200182D01*
X153239859Y-65200195D01*
X153187059Y-65327667D01*
X153187056Y-65327677D01*
X153160138Y-65463004D01*
X153160138Y-65463007D01*
X153160138Y-65600993D01*
X153160138Y-65600995D01*
X153160137Y-65600995D01*
X153187056Y-65736322D01*
X153187059Y-65736332D01*
X153239859Y-65863804D01*
X153239866Y-65863817D01*
X153319908Y-65983607D01*
X153318321Y-65984667D01*
X153342168Y-66040827D01*
X153343001Y-66054891D01*
X153349780Y-69036839D01*
X153352019Y-70022327D01*
X153352356Y-70170241D01*
X153332824Y-70237325D01*
X153280124Y-70283200D01*
X153228356Y-70294523D01*
X131570733Y-70294523D01*
X131503694Y-70274838D01*
X131457939Y-70222034D01*
X131448667Y-70166408D01*
X131447138Y-70166408D01*
X131447138Y-70022327D01*
X131420219Y-69887000D01*
X131420218Y-69886999D01*
X131420218Y-69886995D01*
X131420216Y-69886990D01*
X131367416Y-69759518D01*
X131367409Y-69759505D01*
X131290752Y-69644781D01*
X131290749Y-69644777D01*
X131193183Y-69547211D01*
X131193179Y-69547208D01*
X131078455Y-69470551D01*
X131078442Y-69470544D01*
X130950970Y-69417744D01*
X130950960Y-69417741D01*
X130815633Y-69390823D01*
X130815631Y-69390823D01*
X130677645Y-69390823D01*
X130677643Y-69390823D01*
X130542315Y-69417741D01*
X130542305Y-69417744D01*
X130414833Y-69470544D01*
X130414820Y-69470551D01*
X130300096Y-69547208D01*
X130300092Y-69547211D01*
X130202526Y-69644777D01*
X130202523Y-69644781D01*
X130125866Y-69759505D01*
X130125859Y-69759518D01*
X130073059Y-69886990D01*
X130073056Y-69887000D01*
X130046138Y-70022327D01*
X130046138Y-70166408D01*
X130044423Y-70166408D01*
X130032923Y-70227023D01*
X129984855Y-70277730D01*
X129922543Y-70294523D01*
X119287957Y-70294523D01*
X119220918Y-70274838D01*
X119175163Y-70222034D01*
X119163957Y-70170805D01*
X119162636Y-69589822D01*
X119158551Y-67792228D01*
X120618638Y-67792228D01*
X120618638Y-68054417D01*
X120652858Y-68314332D01*
X120652860Y-68314343D01*
X120720713Y-68567578D01*
X120821042Y-68809794D01*
X120821047Y-68809805D01*
X120952126Y-69036839D01*
X120952132Y-69036847D01*
X121038718Y-69149688D01*
X122017596Y-68170810D01*
X122042616Y-68231213D01*
X122113750Y-68337674D01*
X122204287Y-68428211D01*
X122310748Y-68499345D01*
X122371149Y-68524364D01*
X121392271Y-69503240D01*
X121392271Y-69503241D01*
X121505113Y-69589828D01*
X121505121Y-69589834D01*
X121732155Y-69720913D01*
X121732166Y-69720918D01*
X121974382Y-69821247D01*
X122227617Y-69889100D01*
X122227628Y-69889102D01*
X122487543Y-69923322D01*
X122487558Y-69923323D01*
X122749718Y-69923323D01*
X122749732Y-69923322D01*
X123009647Y-69889102D01*
X123009658Y-69889100D01*
X123262893Y-69821247D01*
X123505109Y-69720918D01*
X123505120Y-69720913D01*
X123732154Y-69589834D01*
X123732172Y-69589822D01*
X123845003Y-69503242D01*
X123845003Y-69503240D01*
X122866126Y-68524364D01*
X122926528Y-68499345D01*
X123032989Y-68428211D01*
X123123526Y-68337674D01*
X123194660Y-68231213D01*
X123219679Y-68170812D01*
X124198555Y-69149688D01*
X124198557Y-69149688D01*
X124285137Y-69036857D01*
X124285149Y-69036839D01*
X124416228Y-68809805D01*
X124416233Y-68809794D01*
X124516562Y-68567578D01*
X124584415Y-68314343D01*
X124584417Y-68314332D01*
X124618637Y-68054417D01*
X124618638Y-68054403D01*
X124618638Y-67792242D01*
X124618637Y-67792228D01*
X124584417Y-67532313D01*
X124584415Y-67532302D01*
X124516562Y-67279067D01*
X124416233Y-67036851D01*
X124416228Y-67036840D01*
X124285149Y-66809806D01*
X124285143Y-66809798D01*
X124198556Y-66696956D01*
X124198555Y-66696956D01*
X123219679Y-67675833D01*
X123194660Y-67615433D01*
X123123526Y-67508972D01*
X123032989Y-67418435D01*
X122926528Y-67347301D01*
X122866125Y-67322280D01*
X123845003Y-66343403D01*
X123732162Y-66256817D01*
X123732154Y-66256811D01*
X123505120Y-66125732D01*
X123505109Y-66125727D01*
X123262893Y-66025398D01*
X123041955Y-65966199D01*
X123009658Y-65957545D01*
X123009647Y-65957543D01*
X122749732Y-65923323D01*
X122487543Y-65923323D01*
X122227628Y-65957543D01*
X122227617Y-65957545D01*
X121974382Y-66025398D01*
X121732166Y-66125727D01*
X121732155Y-66125732D01*
X121505109Y-66256819D01*
X121392271Y-66343402D01*
X121392271Y-66343403D01*
X122371149Y-67322281D01*
X122310748Y-67347301D01*
X122204287Y-67418435D01*
X122113750Y-67508972D01*
X122042616Y-67615433D01*
X122017596Y-67675834D01*
X121038718Y-66696956D01*
X121038717Y-66696956D01*
X120952134Y-66809794D01*
X120821047Y-67036840D01*
X120821042Y-67036851D01*
X120720713Y-67279067D01*
X120652860Y-67532302D01*
X120652858Y-67532313D01*
X120618638Y-67792228D01*
X119158551Y-67792228D01*
X119154140Y-65851296D01*
X127118138Y-65851296D01*
X127118138Y-66095349D01*
X127143712Y-66256819D01*
X127156317Y-66336399D01*
X127231734Y-66568508D01*
X127297181Y-66696956D01*
X127342534Y-66785965D01*
X127485977Y-66983399D01*
X127485981Y-66983404D01*
X127658556Y-67155979D01*
X127658561Y-67155983D01*
X127820067Y-67273323D01*
X127855999Y-67299429D01*
X128073453Y-67410227D01*
X128305562Y-67485644D01*
X128546611Y-67523823D01*
X128546612Y-67523823D01*
X128790664Y-67523823D01*
X128790665Y-67523823D01*
X129031714Y-67485644D01*
X129263823Y-67410227D01*
X129481277Y-67299429D01*
X129678721Y-67155978D01*
X129851293Y-66983406D01*
X129994744Y-66785962D01*
X130105542Y-66568508D01*
X130180959Y-66336399D01*
X130219138Y-66095350D01*
X130219138Y-65851296D01*
X130180959Y-65610247D01*
X130105542Y-65378138D01*
X129994744Y-65160684D01*
X129940089Y-65085458D01*
X129851298Y-64963246D01*
X129851294Y-64963241D01*
X129678719Y-64790666D01*
X129678714Y-64790662D01*
X129481280Y-64647219D01*
X129481279Y-64647218D01*
X129481277Y-64647217D01*
X129263823Y-64536419D01*
X129031714Y-64461002D01*
X129031712Y-64461001D01*
X129031710Y-64461001D01*
X128863407Y-64434344D01*
X128790665Y-64422823D01*
X128546611Y-64422823D01*
X128490731Y-64431673D01*
X128305565Y-64461001D01*
X128073450Y-64536420D01*
X127855995Y-64647219D01*
X127658561Y-64790662D01*
X127658556Y-64790666D01*
X127485981Y-64963241D01*
X127485977Y-64963246D01*
X127342534Y-65160680D01*
X127231735Y-65378135D01*
X127156316Y-65610250D01*
X127118138Y-65851296D01*
X119154140Y-65851296D01*
X119147299Y-62841203D01*
X133627138Y-62841203D01*
X133627138Y-63025442D01*
X133655960Y-63207417D01*
X133712891Y-63382636D01*
X133712893Y-63382639D01*
X133796537Y-63546798D01*
X133904831Y-63695852D01*
X134035109Y-63826130D01*
X134184163Y-63934424D01*
X134239363Y-63962550D01*
X134348324Y-64018069D01*
X134435933Y-64046534D01*
X134523545Y-64075001D01*
X134705518Y-64103823D01*
X134705519Y-64103823D01*
X134889757Y-64103823D01*
X134889758Y-64103823D01*
X135071731Y-64075001D01*
X135246954Y-64018068D01*
X135411113Y-63934424D01*
X135560167Y-63826130D01*
X135690445Y-63695852D01*
X135798739Y-63546798D01*
X135882383Y-63382639D01*
X135939316Y-63207416D01*
X135945165Y-63170486D01*
X135975094Y-63107353D01*
X136034405Y-63070421D01*
X136104268Y-63071419D01*
X136162501Y-63110028D01*
X136190111Y-63170487D01*
X136195960Y-63207417D01*
X136252891Y-63382636D01*
X136252893Y-63382639D01*
X136336537Y-63546798D01*
X136444831Y-63695852D01*
X136575109Y-63826130D01*
X136724163Y-63934424D01*
X136779363Y-63962550D01*
X136888324Y-64018069D01*
X136975933Y-64046534D01*
X137063545Y-64075001D01*
X137245518Y-64103823D01*
X137245519Y-64103823D01*
X137429757Y-64103823D01*
X137429758Y-64103823D01*
X137611731Y-64075001D01*
X137786954Y-64018068D01*
X137951113Y-63934424D01*
X138100167Y-63826130D01*
X138230445Y-63695852D01*
X138338739Y-63546798D01*
X138422383Y-63382639D01*
X138479316Y-63207416D01*
X138500165Y-63075780D01*
X138530094Y-63012646D01*
X138589406Y-62975715D01*
X138659268Y-62976713D01*
X138717501Y-63015323D01*
X138745111Y-63075781D01*
X138765960Y-63207417D01*
X138822891Y-63382636D01*
X138822893Y-63382639D01*
X138906537Y-63546798D01*
X139014831Y-63695852D01*
X139145109Y-63826130D01*
X139294163Y-63934424D01*
X139349363Y-63962550D01*
X139458324Y-64018069D01*
X139545933Y-64046534D01*
X139633545Y-64075001D01*
X139815518Y-64103823D01*
X139815519Y-64103823D01*
X139999757Y-64103823D01*
X139999758Y-64103823D01*
X140181731Y-64075001D01*
X140356954Y-64018068D01*
X140521113Y-63934424D01*
X140670167Y-63826130D01*
X140800445Y-63695852D01*
X140861100Y-63612366D01*
X140916429Y-63569701D01*
X140986043Y-63563722D01*
X141047838Y-63596327D01*
X141082195Y-63657166D01*
X141084776Y-63672648D01*
X141088140Y-63705574D01*
X141143329Y-63872126D01*
X141235440Y-64021458D01*
X141359502Y-64145520D01*
X141508834Y-64237631D01*
X141675387Y-64292820D01*
X141778180Y-64303322D01*
X142197637Y-64303322D01*
X142197638Y-64303321D01*
X142197638Y-63418297D01*
X142237276Y-63441182D01*
X142375887Y-63478323D01*
X142519389Y-63478323D01*
X142658000Y-63441182D01*
X142697638Y-63418297D01*
X142697638Y-64303322D01*
X143117089Y-64303322D01*
X143117103Y-64303321D01*
X143219889Y-64292820D01*
X143386441Y-64237631D01*
X143535773Y-64145520D01*
X143659835Y-64021458D01*
X143751946Y-63872126D01*
X143807135Y-63705573D01*
X143817637Y-63602787D01*
X143817638Y-63602774D01*
X143817638Y-63183323D01*
X142932612Y-63183323D01*
X142955497Y-63143685D01*
X142992638Y-63005074D01*
X142992638Y-62861572D01*
X142955497Y-62722961D01*
X142932612Y-62683323D01*
X143817637Y-62683323D01*
X143817637Y-62263872D01*
X143817636Y-62263856D01*
X143807135Y-62161071D01*
X143751946Y-61994519D01*
X143659835Y-61845187D01*
X143535773Y-61721125D01*
X143386441Y-61629014D01*
X143219888Y-61573825D01*
X143117102Y-61563323D01*
X142697638Y-61563323D01*
X142697638Y-62448348D01*
X142658000Y-62425464D01*
X142519389Y-62388323D01*
X142375887Y-62388323D01*
X142237276Y-62425464D01*
X142197638Y-62448348D01*
X142197638Y-61563323D01*
X141778187Y-61563323D01*
X141778172Y-61563324D01*
X141675386Y-61573825D01*
X141508834Y-61629014D01*
X141359502Y-61721125D01*
X141235440Y-61845187D01*
X141143329Y-61994519D01*
X141088140Y-62161071D01*
X141084776Y-62193997D01*
X141058379Y-62258688D01*
X141001198Y-62298839D01*
X140931387Y-62301701D01*
X140871110Y-62266367D01*
X140861100Y-62254279D01*
X140800445Y-62170794D01*
X140670167Y-62040516D01*
X140521113Y-61932222D01*
X140356951Y-61848576D01*
X140181732Y-61791645D01*
X140090744Y-61777234D01*
X139999758Y-61762823D01*
X139815518Y-61762823D01*
X139754860Y-61772430D01*
X139633543Y-61791645D01*
X139458324Y-61848576D01*
X139294162Y-61932222D01*
X139209122Y-61994007D01*
X139145109Y-62040516D01*
X139145107Y-62040518D01*
X139145106Y-62040518D01*
X139014833Y-62170791D01*
X139014833Y-62170792D01*
X139014831Y-62170794D01*
X138997973Y-62193997D01*
X138906537Y-62319847D01*
X138822891Y-62484009D01*
X138765960Y-62659228D01*
X138745111Y-62790864D01*
X138715182Y-62853999D01*
X138655870Y-62890930D01*
X138586008Y-62889932D01*
X138527775Y-62851322D01*
X138500165Y-62790864D01*
X138479316Y-62659230D01*
X138422383Y-62484007D01*
X138338739Y-62319848D01*
X138230445Y-62170794D01*
X138100167Y-62040516D01*
X137951113Y-61932222D01*
X137786951Y-61848576D01*
X137611732Y-61791645D01*
X137520744Y-61777234D01*
X137429758Y-61762823D01*
X137245518Y-61762823D01*
X137184860Y-61772430D01*
X137063543Y-61791645D01*
X136888324Y-61848576D01*
X136724162Y-61932222D01*
X136639122Y-61994007D01*
X136575109Y-62040516D01*
X136575107Y-62040518D01*
X136575106Y-62040518D01*
X136444833Y-62170791D01*
X136444833Y-62170792D01*
X136444831Y-62170794D01*
X136427973Y-62193997D01*
X136336537Y-62319847D01*
X136252891Y-62484009D01*
X136195960Y-62659228D01*
X136190111Y-62696158D01*
X136160182Y-62759293D01*
X136100870Y-62796224D01*
X136031008Y-62795226D01*
X135972775Y-62756616D01*
X135945165Y-62696158D01*
X135943132Y-62683323D01*
X135939316Y-62659230D01*
X135882383Y-62484007D01*
X135798739Y-62319848D01*
X135690445Y-62170794D01*
X135560167Y-62040516D01*
X135411113Y-61932222D01*
X135246951Y-61848576D01*
X135071732Y-61791645D01*
X134980744Y-61777234D01*
X134889758Y-61762823D01*
X134705518Y-61762823D01*
X134644860Y-61772430D01*
X134523543Y-61791645D01*
X134348324Y-61848576D01*
X134184162Y-61932222D01*
X134099122Y-61994007D01*
X134035109Y-62040516D01*
X134035107Y-62040518D01*
X134035106Y-62040518D01*
X133904833Y-62170791D01*
X133904833Y-62170792D01*
X133904831Y-62170794D01*
X133887973Y-62193997D01*
X133796537Y-62319847D01*
X133712891Y-62484009D01*
X133655960Y-62659228D01*
X133627138Y-62841203D01*
X119147299Y-62841203D01*
X119126421Y-53655318D01*
X126868138Y-53655318D01*
X126868138Y-53891327D01*
X126868139Y-53891343D01*
X126898944Y-54125333D01*
X126960032Y-54353316D01*
X127050352Y-54571368D01*
X127050357Y-54571379D01*
X127109988Y-54674661D01*
X127168365Y-54775773D01*
X127168367Y-54775776D01*
X127168368Y-54775777D01*
X127312044Y-54963020D01*
X127312050Y-54963027D01*
X127478933Y-55129910D01*
X127478939Y-55129915D01*
X127666188Y-55273596D01*
X127797556Y-55349441D01*
X127870581Y-55391603D01*
X127870586Y-55391605D01*
X127870589Y-55391607D01*
X128088645Y-55481929D01*
X128316624Y-55543016D01*
X128550627Y-55573823D01*
X128550634Y-55573823D01*
X128786642Y-55573823D01*
X128786649Y-55573823D01*
X129020652Y-55543016D01*
X129248631Y-55481929D01*
X129466687Y-55391607D01*
X129671088Y-55273596D01*
X129858337Y-55129915D01*
X130025230Y-54963022D01*
X130168911Y-54775773D01*
X130286922Y-54571372D01*
X130377244Y-54353316D01*
X130427577Y-54165472D01*
X131607138Y-54165472D01*
X131607138Y-54421173D01*
X131626913Y-54571368D01*
X131640512Y-54674663D01*
X131706688Y-54921635D01*
X131706691Y-54921645D01*
X131804532Y-55157854D01*
X131804537Y-55157865D01*
X131932372Y-55379280D01*
X131932383Y-55379296D01*
X132088026Y-55582134D01*
X132088032Y-55582141D01*
X132268819Y-55762928D01*
X132268825Y-55762933D01*
X132471673Y-55918584D01*
X132471680Y-55918588D01*
X132693095Y-56046423D01*
X132693100Y-56046425D01*
X132693103Y-56046427D01*
X132929325Y-56144273D01*
X133176298Y-56210449D01*
X133429795Y-56243823D01*
X133429802Y-56243823D01*
X133685474Y-56243823D01*
X133685481Y-56243823D01*
X133938978Y-56210449D01*
X134185951Y-56144273D01*
X134422173Y-56046427D01*
X134643603Y-55918584D01*
X134846451Y-55762933D01*
X135027248Y-55582136D01*
X135182899Y-55379288D01*
X135310742Y-55157858D01*
X135408588Y-54921636D01*
X135474764Y-54674663D01*
X135508138Y-54421166D01*
X135508138Y-54165480D01*
X135508137Y-54165472D01*
X141767138Y-54165472D01*
X141767138Y-54421173D01*
X141786913Y-54571368D01*
X141800512Y-54674663D01*
X141866688Y-54921635D01*
X141866691Y-54921645D01*
X141964532Y-55157854D01*
X141964537Y-55157865D01*
X142092372Y-55379280D01*
X142092383Y-55379296D01*
X142248026Y-55582134D01*
X142248032Y-55582141D01*
X142428819Y-55762928D01*
X142428825Y-55762933D01*
X142631673Y-55918584D01*
X142631680Y-55918588D01*
X142853095Y-56046423D01*
X142853100Y-56046425D01*
X142853103Y-56046427D01*
X143089325Y-56144273D01*
X143336298Y-56210449D01*
X143589795Y-56243823D01*
X143589802Y-56243823D01*
X143845474Y-56243823D01*
X143845481Y-56243823D01*
X144098978Y-56210449D01*
X144345951Y-56144273D01*
X144582173Y-56046427D01*
X144803603Y-55918584D01*
X145006451Y-55762933D01*
X145187248Y-55582136D01*
X145342899Y-55379288D01*
X145470742Y-55157858D01*
X145568588Y-54921636D01*
X145634764Y-54674663D01*
X145668138Y-54421166D01*
X145668138Y-54165480D01*
X145668137Y-54165472D01*
X146813138Y-54165472D01*
X146813138Y-54421173D01*
X146832913Y-54571368D01*
X146846512Y-54674663D01*
X146912688Y-54921635D01*
X146912691Y-54921645D01*
X147010532Y-55157854D01*
X147010537Y-55157865D01*
X147138372Y-55379280D01*
X147138383Y-55379296D01*
X147294026Y-55582134D01*
X147294032Y-55582141D01*
X147474819Y-55762928D01*
X147474825Y-55762933D01*
X147677673Y-55918584D01*
X147677680Y-55918588D01*
X147899095Y-56046423D01*
X147899100Y-56046425D01*
X147899103Y-56046427D01*
X148135325Y-56144273D01*
X148382298Y-56210449D01*
X148635795Y-56243823D01*
X148635802Y-56243823D01*
X148891474Y-56243823D01*
X148891481Y-56243823D01*
X149144978Y-56210449D01*
X149391951Y-56144273D01*
X149628173Y-56046427D01*
X149849603Y-55918584D01*
X150052451Y-55762933D01*
X150233248Y-55582136D01*
X150388899Y-55379288D01*
X150516742Y-55157858D01*
X150614588Y-54921636D01*
X150680764Y-54674663D01*
X150714138Y-54421166D01*
X150714138Y-54165480D01*
X150680764Y-53911983D01*
X150614588Y-53665010D01*
X150610573Y-53655318D01*
X150516743Y-53428791D01*
X150516738Y-53428780D01*
X150388903Y-53207365D01*
X150388899Y-53207358D01*
X150233248Y-53004510D01*
X150233243Y-53004504D01*
X150052456Y-52823717D01*
X150052449Y-52823711D01*
X149849611Y-52668068D01*
X149849609Y-52668066D01*
X149849603Y-52668062D01*
X149849598Y-52668059D01*
X149849595Y-52668057D01*
X149628180Y-52540222D01*
X149628169Y-52540217D01*
X149391960Y-52442376D01*
X149391953Y-52442374D01*
X149391951Y-52442373D01*
X149144978Y-52376197D01*
X149088645Y-52368780D01*
X148891488Y-52342823D01*
X148891481Y-52342823D01*
X148635795Y-52342823D01*
X148635787Y-52342823D01*
X148410464Y-52372488D01*
X148382298Y-52376197D01*
X148231030Y-52416729D01*
X148135325Y-52442373D01*
X148135315Y-52442376D01*
X147899106Y-52540217D01*
X147899095Y-52540222D01*
X147677680Y-52668057D01*
X147677664Y-52668068D01*
X147474826Y-52823711D01*
X147474819Y-52823717D01*
X147294032Y-53004504D01*
X147294026Y-53004511D01*
X147138383Y-53207349D01*
X147138372Y-53207365D01*
X147010537Y-53428780D01*
X147010532Y-53428791D01*
X146912691Y-53665000D01*
X146912688Y-53665010D01*
X146852043Y-53891343D01*
X146846512Y-53911984D01*
X146813138Y-54165472D01*
X145668137Y-54165472D01*
X145634764Y-53911983D01*
X145568588Y-53665010D01*
X145564573Y-53655318D01*
X145470743Y-53428791D01*
X145470738Y-53428780D01*
X145342903Y-53207365D01*
X145342899Y-53207358D01*
X145187248Y-53004510D01*
X145187243Y-53004504D01*
X145006456Y-52823717D01*
X145006449Y-52823711D01*
X144803611Y-52668068D01*
X144803609Y-52668066D01*
X144803603Y-52668062D01*
X144803598Y-52668059D01*
X144803595Y-52668057D01*
X144582180Y-52540222D01*
X144582169Y-52540217D01*
X144345960Y-52442376D01*
X144345953Y-52442374D01*
X144345951Y-52442373D01*
X144098978Y-52376197D01*
X144042645Y-52368780D01*
X143845488Y-52342823D01*
X143845481Y-52342823D01*
X143589795Y-52342823D01*
X143589787Y-52342823D01*
X143364464Y-52372488D01*
X143336298Y-52376197D01*
X143185030Y-52416729D01*
X143089325Y-52442373D01*
X143089315Y-52442376D01*
X142853106Y-52540217D01*
X142853095Y-52540222D01*
X142631680Y-52668057D01*
X142631664Y-52668068D01*
X142428826Y-52823711D01*
X142428819Y-52823717D01*
X142248032Y-53004504D01*
X142248026Y-53004511D01*
X142092383Y-53207349D01*
X142092372Y-53207365D01*
X141964537Y-53428780D01*
X141964532Y-53428791D01*
X141866691Y-53665000D01*
X141866688Y-53665010D01*
X141806043Y-53891343D01*
X141800512Y-53911984D01*
X141767138Y-54165472D01*
X135508137Y-54165472D01*
X135474764Y-53911983D01*
X135408588Y-53665010D01*
X135404573Y-53655318D01*
X135310743Y-53428791D01*
X135310738Y-53428780D01*
X135182903Y-53207365D01*
X135182899Y-53207358D01*
X135027248Y-53004510D01*
X135027243Y-53004504D01*
X134846456Y-52823717D01*
X134846449Y-52823711D01*
X134643611Y-52668068D01*
X134643609Y-52668066D01*
X134643603Y-52668062D01*
X134643598Y-52668059D01*
X134643595Y-52668057D01*
X134422180Y-52540222D01*
X134422169Y-52540217D01*
X134185960Y-52442376D01*
X134185953Y-52442374D01*
X134185951Y-52442373D01*
X133938978Y-52376197D01*
X133882645Y-52368780D01*
X133685488Y-52342823D01*
X133685481Y-52342823D01*
X133429795Y-52342823D01*
X133429787Y-52342823D01*
X133204464Y-52372488D01*
X133176298Y-52376197D01*
X133025030Y-52416729D01*
X132929325Y-52442373D01*
X132929315Y-52442376D01*
X132693106Y-52540217D01*
X132693095Y-52540222D01*
X132471680Y-52668057D01*
X132471664Y-52668068D01*
X132268826Y-52823711D01*
X132268819Y-52823717D01*
X132088032Y-53004504D01*
X132088026Y-53004511D01*
X131932383Y-53207349D01*
X131932372Y-53207365D01*
X131804537Y-53428780D01*
X131804532Y-53428791D01*
X131706691Y-53665000D01*
X131706688Y-53665010D01*
X131646043Y-53891343D01*
X131640512Y-53911984D01*
X131607138Y-54165472D01*
X130427577Y-54165472D01*
X130438331Y-54125337D01*
X130469138Y-53891334D01*
X130469138Y-53655312D01*
X130438331Y-53421309D01*
X130377244Y-53193330D01*
X130286922Y-52975274D01*
X130286920Y-52975271D01*
X130286918Y-52975266D01*
X130244756Y-52902241D01*
X130168911Y-52770873D01*
X130090026Y-52668068D01*
X130025231Y-52583625D01*
X130025225Y-52583618D01*
X129858342Y-52416735D01*
X129858335Y-52416729D01*
X129671092Y-52273053D01*
X129671091Y-52273052D01*
X129671088Y-52273050D01*
X129589595Y-52226000D01*
X129466694Y-52155042D01*
X129466683Y-52155037D01*
X129248631Y-52064717D01*
X129020648Y-52003629D01*
X128786658Y-51972824D01*
X128786655Y-51972823D01*
X128786649Y-51972823D01*
X128550627Y-51972823D01*
X128550621Y-51972823D01*
X128550617Y-51972824D01*
X128316627Y-52003629D01*
X128088644Y-52064717D01*
X127870592Y-52155037D01*
X127870581Y-52155042D01*
X127666183Y-52273053D01*
X127478940Y-52416729D01*
X127478933Y-52416735D01*
X127312050Y-52583618D01*
X127312044Y-52583625D01*
X127168368Y-52770868D01*
X127050357Y-52975266D01*
X127050352Y-52975277D01*
X126960032Y-53193329D01*
X126898944Y-53421312D01*
X126868139Y-53655302D01*
X126868138Y-53655318D01*
X119126421Y-53655318D01*
X119117068Y-49540101D01*
X119136600Y-49473021D01*
X119189300Y-49427146D01*
X119241068Y-49415823D01*
X153181467Y-49415823D01*
X153248506Y-49435508D01*
G37*
%TD.AperFunction*%
%TD*%
M02*
