%TF.GenerationSoftware,KiCad,Pcbnew,9.0.1*%
%TF.CreationDate,2025-06-09T14:32:14-07:00*%
%TF.ProjectId,chop-controller-heat-v2,63686f70-2d63-46f6-9e74-726f6c6c6572,rev?*%
%TF.SameCoordinates,Original*%
%TF.FileFunction,Copper,L4,Bot*%
%TF.FilePolarity,Positive*%
%FSLAX46Y46*%
G04 Gerber Fmt 4.6, Leading zero omitted, Abs format (unit mm)*
G04 Created by KiCad (PCBNEW 9.0.1) date 2025-06-09 14:32:14*
%MOMM*%
%LPD*%
G01*
G04 APERTURE LIST*
G04 Aperture macros list*
%AMRoundRect*
0 Rectangle with rounded corners*
0 $1 Rounding radius*
0 $2 $3 $4 $5 $6 $7 $8 $9 X,Y pos of 4 corners*
0 Add a 4 corners polygon primitive as box body*
4,1,4,$2,$3,$4,$5,$6,$7,$8,$9,$2,$3,0*
0 Add four circle primitives for the rounded corners*
1,1,$1+$1,$2,$3*
1,1,$1+$1,$4,$5*
1,1,$1+$1,$6,$7*
1,1,$1+$1,$8,$9*
0 Add four rect primitives between the rounded corners*
20,1,$1+$1,$2,$3,$4,$5,0*
20,1,$1+$1,$4,$5,$6,$7,0*
20,1,$1+$1,$6,$7,$8,$9,0*
20,1,$1+$1,$8,$9,$2,$3,0*%
G04 Aperture macros list end*
%TA.AperFunction,ComponentPad*%
%ADD10C,1.740000*%
%TD*%
%TA.AperFunction,ComponentPad*%
%ADD11RoundRect,0.250560X0.619440X0.619440X-0.619440X0.619440X-0.619440X-0.619440X0.619440X-0.619440X0*%
%TD*%
%TA.AperFunction,ComponentPad*%
%ADD12RoundRect,0.250560X-0.619440X-0.619440X0.619440X-0.619440X0.619440X0.619440X-0.619440X0.619440X0*%
%TD*%
%TA.AperFunction,ComponentPad*%
%ADD13C,1.500000*%
%TD*%
%TA.AperFunction,ComponentPad*%
%ADD14RoundRect,0.250001X0.499999X-0.499999X0.499999X0.499999X-0.499999X0.499999X-0.499999X-0.499999X0*%
%TD*%
%TA.AperFunction,ComponentPad*%
%ADD15RoundRect,0.250001X-0.499999X0.499999X-0.499999X-0.499999X0.499999X-0.499999X0.499999X0.499999X0*%
%TD*%
%TA.AperFunction,ComponentPad*%
%ADD16R,1.500000X1.050000*%
%TD*%
%TA.AperFunction,ComponentPad*%
%ADD17O,1.500000X1.050000*%
%TD*%
%TA.AperFunction,ComponentPad*%
%ADD18C,1.440000*%
%TD*%
%TA.AperFunction,ComponentPad*%
%ADD19C,3.000000*%
%TD*%
%TA.AperFunction,ComponentPad*%
%ADD20C,2.500000*%
%TD*%
%TA.AperFunction,ViaPad*%
%ADD21C,0.800000*%
%TD*%
%TA.AperFunction,Conductor*%
%ADD22C,0.250000*%
%TD*%
G04 APERTURE END LIST*
D10*
%TO.P,J1,4,Pin_4*%
%TO.N,/TC1+*%
X134797638Y-62933323D03*
%TO.P,J1,3,Pin_3*%
%TO.N,/TC1-*%
X137337638Y-62933323D03*
%TO.P,J1,2,Pin_2*%
%TO.N,/MOSFET_HL1*%
X139907638Y-62933323D03*
D11*
%TO.P,J1,1,Pin_1*%
%TO.N,/SAFETY_12V*%
X142447638Y-62933323D03*
%TD*%
D10*
%TO.P,J2,4,Pin_4*%
%TO.N,/TC2+*%
X157683638Y-62933323D03*
%TO.P,J2,3,Pin_3*%
%TO.N,/TC2-*%
X155143638Y-62933323D03*
%TO.P,J2,2,Pin_2*%
%TO.N,/MOSFET_HL2*%
X152573638Y-62933323D03*
D12*
%TO.P,J2,1,Pin_1*%
%TO.N,/SAFETY_12V*%
X150033638Y-62933323D03*
%TD*%
D10*
%TO.P,J3,4,Pin_4*%
%TO.N,/TC3+*%
X165480888Y-62984073D03*
%TO.P,J3,3,Pin_3*%
%TO.N,/TC3-*%
X168020888Y-62984073D03*
%TO.P,J3,2,Pin_2*%
%TO.N,/MOSFET_HL3*%
X170590888Y-62984073D03*
D11*
%TO.P,J3,1,Pin_1*%
%TO.N,+24V*%
X173130888Y-62984073D03*
%TD*%
D10*
%TO.P,J9,6,Pin_6*%
%TO.N,/uPC_RTD++*%
X146320400Y-109099000D03*
%TO.P,J9,5,Pin_5*%
%TO.N,/uPC_RTD+*%
X148860400Y-109099000D03*
%TO.P,J9,4,Pin_4*%
%TO.N,/uPC_RTD-*%
X151370400Y-109099000D03*
%TO.P,J9,3,Pin_3*%
%TO.N,/uPC_RTD--*%
X153910400Y-109099000D03*
%TO.P,J9,2,Pin_2*%
%TO.N,/MOSFET_uPC*%
X156480400Y-109099000D03*
D11*
%TO.P,J9,1,Pin_1*%
%TO.N,+24V*%
X159020400Y-109099000D03*
%TD*%
D13*
%TO.P,J11,14,Pin_14*%
%TO.N,/MISO_1*%
X98046800Y-62012800D03*
%TO.P,J11,13,Pin_13*%
%TO.N,/MOSI_1*%
X98046800Y-65012800D03*
%TO.P,J11,12,Pin_12*%
%TO.N,/HL1_PWM_IN*%
X98046800Y-68012800D03*
%TO.P,J11,11,Pin_11*%
%TO.N,/HL2_CS*%
X98046800Y-71012800D03*
%TO.P,J11,10,Pin_10*%
%TO.N,/HL3_PWM_IN*%
X98046800Y-74012800D03*
%TO.P,J11,9,Pin_9*%
%TO.N,/uPC_RTD_CS*%
X98046800Y-77012800D03*
%TO.P,J11,8,Pin_8*%
%TO.N,/SAFETY_CS*%
X98046800Y-80012800D03*
%TO.P,J11,7,Pin_7*%
%TO.N,/SCK_1*%
X95046800Y-62012800D03*
%TO.P,J11,6,Pin_6*%
%TO.N,/HL1_CS*%
X95046800Y-65012800D03*
%TO.P,J11,5,Pin_5*%
%TO.N,/HL2_PWM_IN*%
X95046800Y-68012800D03*
%TO.P,J11,4,Pin_4*%
%TO.N,/HL3_CS*%
X95046800Y-71012800D03*
%TO.P,J11,3,Pin_3*%
%TO.N,/uPC_PWM_IN*%
X95046800Y-74012800D03*
%TO.P,J11,2,Pin_2*%
%TO.N,/uPC_RTD_DRDY*%
X95046800Y-77012800D03*
D14*
%TO.P,J11,1,Pin_1*%
%TO.N,unconnected-(J11-Pin_1-Pad1)*%
X95046800Y-80012800D03*
%TD*%
D13*
%TO.P,J12,8,Pin_8*%
%TO.N,GNDREF*%
X189804000Y-92300000D03*
%TO.P,J12,7,Pin_7*%
%TO.N,+3.3V*%
X189804000Y-89300000D03*
%TO.P,J12,6,Pin_6*%
%TO.N,+12V*%
X189804000Y-86300000D03*
%TO.P,J12,5,Pin_5*%
%TO.N,+24V*%
X189804000Y-83300000D03*
%TO.P,J12,4,Pin_4*%
%TO.N,GNDREF*%
X192804000Y-92300000D03*
%TO.P,J12,3,Pin_3*%
%TO.N,+3.3V*%
X192804000Y-89300000D03*
%TO.P,J12,2,Pin_2*%
%TO.N,+12V*%
X192804000Y-86300000D03*
D15*
%TO.P,J12,1,Pin_1*%
%TO.N,+24V*%
X192804000Y-83300000D03*
%TD*%
D10*
%TO.P,J13,2,Pin_2*%
%TO.N,/Safet Cutoff/TC_SAFETY+*%
X110235638Y-62609323D03*
D12*
%TO.P,J13,1,Pin_1*%
%TO.N,/Safet Cutoff/TC_SAFETY-*%
X107695638Y-62609323D03*
%TD*%
D16*
%TO.P,U18,1,VO*%
%TO.N,Net-(U18-VO)*%
X111082638Y-84823323D03*
D17*
%TO.P,U18,2,GND*%
%TO.N,GNDREF*%
X111082638Y-86093323D03*
%TO.P,U18,3,VI*%
%TO.N,+3.3V*%
X111082638Y-87363323D03*
%TD*%
D18*
%TO.P,RV1,1,1*%
%TO.N,Net-(U23-G1)*%
X121602638Y-77594323D03*
%TO.P,RV1,2,2*%
%TO.N,Net-(U19-+)*%
X121602638Y-75054323D03*
%TO.P,RV1,3,3*%
%TO.N,Net-(R52-Pad1)*%
X121602638Y-72514323D03*
%TD*%
%TO.P,RV2,1,1*%
%TO.N,+3.3V*%
X120322638Y-88887323D03*
%TO.P,RV2,2,2*%
%TO.N,/Safet Cutoff/V_CUTOFF*%
X122862638Y-88887323D03*
%TO.P,RV2,3,3*%
%TO.N,GNDREF*%
X125402638Y-88887323D03*
%TD*%
D19*
%TO.P,K1,1*%
%TO.N,/SAFETY_12V*%
X122618638Y-67923323D03*
D20*
%TO.P,K1,2*%
%TO.N,Net-(D1-A)*%
X128668638Y-65973323D03*
D19*
%TO.P,K1,3*%
%TO.N,Net-(K1-Pad3)*%
X128668638Y-53773323D03*
%TO.P,K1,4*%
%TO.N,+12V*%
X116618638Y-53723323D03*
D20*
%TO.P,K1,5*%
X116668638Y-65973323D03*
%TD*%
D21*
%TO.N,GNDREF*%
X163258638Y-70853323D03*
X117030638Y-71615323D03*
X152162400Y-106386000D03*
X167068638Y-79235323D03*
X140500238Y-72478923D03*
X145050400Y-105370000D03*
X178498638Y-73901323D03*
X142510400Y-106894000D03*
X161306400Y-99274000D03*
X125158638Y-71107323D03*
X170523038Y-72428123D03*
X138366638Y-79743323D03*
X105346638Y-66281323D03*
X160290400Y-93432000D03*
X148272638Y-72631323D03*
X130746638Y-70091323D03*
%TO.N,+3.3V*%
X113271438Y-74663323D03*
X145456800Y-89876000D03*
X131457838Y-73952123D03*
X152060800Y-101763200D03*
X164325438Y-65062123D03*
%TO.N,/HL1_PWM_IN*%
X130746638Y-80759323D03*
%TO.N,/HL2_PWM_IN*%
X130746638Y-81758826D03*
%TO.N,/HL3_PWM_IN*%
X130746638Y-84823323D03*
%TO.N,/HL3_CS*%
X130746638Y-83807323D03*
%TO.N,/HL2_CS*%
X130746638Y-82791323D03*
%TO.N,/HL1_CS*%
X130746638Y-79489323D03*
%TO.N,/MOSI_1*%
X143018400Y-98067500D03*
%TO.N,/MISO_1*%
X151320638Y-76441323D03*
X141748400Y-96226000D03*
X136461638Y-74282323D03*
X164020638Y-77457323D03*
%TO.N,/SCK_1*%
X153860638Y-65532000D03*
X132778638Y-72123323D03*
X162496638Y-72377323D03*
X144288400Y-99782000D03*
%TD*%
D22*
%TO.N,/HL1_PWM_IN*%
X119062638Y-80759323D02*
X115506638Y-77203323D01*
X130746638Y-80759323D02*
X119062638Y-80759323D01*
X101498515Y-68021200D02*
X98055200Y-68021200D01*
X110680638Y-77203323D02*
X101498515Y-68021200D01*
X115506638Y-77203323D02*
X110680638Y-77203323D01*
%TO.N,/HL2_PWM_IN*%
X114744638Y-78473323D02*
X110172638Y-78473323D01*
X118046638Y-81775323D02*
X114744638Y-78473323D01*
X101193715Y-69494400D02*
X96528400Y-69494400D01*
X110172638Y-78473323D02*
X101193715Y-69494400D01*
X130746638Y-81758826D02*
X130730141Y-81775323D01*
X130730141Y-81775323D02*
X118046638Y-81775323D01*
X96528400Y-69494400D02*
X95046800Y-68012800D01*
%TO.N,/HL3_PWM_IN*%
X112204638Y-81521323D02*
X108140638Y-81521323D01*
X108140638Y-81521323D02*
X100632115Y-74012800D01*
X100632115Y-74012800D02*
X98046800Y-74012800D01*
X115506638Y-84823323D02*
X112204638Y-81521323D01*
X130746638Y-84823323D02*
X115506638Y-84823323D01*
%TO.N,/HL3_CS*%
X130746638Y-83807323D02*
X116268638Y-83807323D01*
X108902638Y-80505323D02*
X100838115Y-72440800D01*
X112966638Y-80505323D02*
X108902638Y-80505323D01*
X96474800Y-72440800D02*
X95046800Y-71012800D01*
X100838115Y-72440800D02*
X96474800Y-72440800D01*
X116268638Y-83807323D02*
X112966638Y-80505323D01*
%TO.N,/HL2_CS*%
X130746638Y-82791323D02*
X117030638Y-82791323D01*
X100934115Y-71012800D02*
X98046800Y-71012800D01*
X109410638Y-79489323D02*
X100934115Y-71012800D01*
X113728638Y-79489323D02*
X109410638Y-79489323D01*
X117030638Y-82791323D02*
X113728638Y-79489323D01*
%TO.N,/HL1_CS*%
X130746638Y-79489323D02*
X119570638Y-79489323D01*
X119570638Y-79489323D02*
X116268638Y-76187323D01*
X116268638Y-76187323D02*
X111085918Y-76187323D01*
X101395795Y-66497200D02*
X96531200Y-66497200D01*
X111085918Y-76187323D02*
X101395795Y-66497200D01*
X96531200Y-66497200D02*
X95046800Y-65012800D01*
%TO.N,/MOSI_1*%
X123545892Y-77609723D02*
X122275892Y-76339723D01*
X135113723Y-77609723D02*
X123545892Y-77609723D01*
X109969438Y-72936123D02*
X101632638Y-64599323D01*
X146510900Y-98067500D02*
X148526638Y-96051762D01*
X120383438Y-76339723D02*
X116979838Y-72936123D01*
X101632638Y-64599323D02*
X98460277Y-64599323D01*
X116979838Y-72936123D02*
X109969438Y-72936123D01*
X143018400Y-98067500D02*
X146510900Y-98067500D01*
X122275892Y-76339723D02*
X120383438Y-76339723D01*
X148526638Y-91022638D02*
X135113723Y-77609723D01*
X148526638Y-96051762D02*
X148526638Y-91022638D01*
%TO.N,/MISO_1*%
X185102638Y-76949323D02*
X185102638Y-72631323D01*
X151066638Y-76441323D02*
X148907638Y-74282323D01*
X141748400Y-96226000D02*
X141748400Y-97822805D01*
X109664638Y-65265323D02*
X106362638Y-65265323D01*
X151320638Y-76441323D02*
X152336638Y-77457323D01*
X155972400Y-90384000D02*
X176747961Y-90384000D01*
X120332638Y-69075323D02*
X113474638Y-69075323D01*
X147563900Y-98792500D02*
X155972400Y-90384000D01*
X148907638Y-74282323D02*
X136461638Y-74282323D01*
X152336638Y-77457323D02*
X164020638Y-77457323D01*
X134861438Y-75882523D02*
X127139838Y-75882523D01*
X136461638Y-74282323D02*
X134861438Y-75882523D01*
X127139838Y-75882523D02*
X120332638Y-69075323D01*
X142718095Y-98792500D02*
X147563900Y-98792500D01*
X164020638Y-77457323D02*
X167830638Y-77457323D01*
X113474638Y-69075323D02*
X109664638Y-65265323D01*
X182308638Y-69837323D02*
X185102638Y-72631323D01*
X175450638Y-69837323D02*
X182308638Y-69837323D01*
X106362638Y-65265323D02*
X103124115Y-62026800D01*
X179514638Y-87617323D02*
X179514638Y-82537323D01*
X176747961Y-90384000D02*
X179514638Y-87617323D01*
X141748400Y-97822805D02*
X142718095Y-98792500D01*
X179514638Y-82537323D02*
X185102638Y-76949323D01*
X167830638Y-77457323D02*
X175450638Y-69837323D01*
X151320638Y-76441323D02*
X151066638Y-76441323D01*
X103124115Y-62026800D02*
X98060800Y-62026800D01*
%TO.N,/SCK_1*%
X153860638Y-65532000D02*
X154889315Y-65532000D01*
X145050400Y-100544000D02*
X174840439Y-100544000D01*
X190182638Y-69837323D02*
X187134638Y-66789323D01*
X132778638Y-72123323D02*
X130492638Y-72123323D01*
X96456638Y-59169323D02*
X95046800Y-60579161D01*
X190182638Y-76695323D02*
X190182638Y-69837323D01*
X95046800Y-60579161D02*
X95046800Y-62012800D01*
X139636638Y-65265323D02*
X132778638Y-72123323D01*
X153860638Y-65532000D02*
X153593961Y-65265323D01*
X172656638Y-66789323D02*
X187134638Y-66789323D01*
X186626638Y-85839323D02*
X186626638Y-80251323D01*
X154889315Y-65532000D02*
X161734638Y-72377323D01*
X172656638Y-66789323D02*
X167068638Y-72377323D01*
X117538638Y-59169323D02*
X96456638Y-59169323D01*
X179629762Y-95754677D02*
X179629762Y-92836199D01*
X174840439Y-100544000D02*
X179629762Y-95754677D01*
X144288400Y-99782000D02*
X145050400Y-100544000D01*
X130492638Y-72123323D02*
X117538638Y-59169323D01*
X161734638Y-72377323D02*
X162496638Y-72377323D01*
X186626638Y-80251323D02*
X190182638Y-76695323D01*
X167068638Y-72377323D02*
X162496638Y-72377323D01*
X153593961Y-65265323D02*
X139636638Y-65265323D01*
X179629762Y-92836199D02*
X186626638Y-85839323D01*
%TD*%
%TA.AperFunction,Conductor*%
%TO.N,GNDREF*%
G36*
X202325177Y-49435508D02*
G01*
X202370932Y-49488312D01*
X202382138Y-49539823D01*
X202382138Y-123070822D01*
X202362453Y-123137861D01*
X202309649Y-123183616D01*
X202258138Y-123194822D01*
X85651138Y-123194822D01*
X85584099Y-123175137D01*
X85538344Y-123122333D01*
X85527138Y-123070822D01*
X85527138Y-117611149D01*
X143099900Y-117611149D01*
X143099900Y-117866850D01*
X143125857Y-118064007D01*
X143133274Y-118120340D01*
X143199450Y-118367312D01*
X143199453Y-118367322D01*
X143297294Y-118603531D01*
X143297299Y-118603542D01*
X143425134Y-118824957D01*
X143425145Y-118824973D01*
X143580788Y-119027811D01*
X143580794Y-119027818D01*
X143761581Y-119208605D01*
X143761587Y-119208610D01*
X143964435Y-119364261D01*
X143964442Y-119364265D01*
X144185857Y-119492100D01*
X144185862Y-119492102D01*
X144185865Y-119492104D01*
X144422087Y-119589950D01*
X144669060Y-119656126D01*
X144922557Y-119689500D01*
X144922564Y-119689500D01*
X145178236Y-119689500D01*
X145178243Y-119689500D01*
X145431740Y-119656126D01*
X145678713Y-119589950D01*
X145914935Y-119492104D01*
X146136365Y-119364261D01*
X146339213Y-119208610D01*
X146520010Y-119027813D01*
X146675661Y-118824965D01*
X146803504Y-118603535D01*
X146901350Y-118367313D01*
X146967526Y-118120340D01*
X147000900Y-117866843D01*
X147000900Y-117611157D01*
X147000899Y-117611149D01*
X158339900Y-117611149D01*
X158339900Y-117866850D01*
X158365857Y-118064007D01*
X158373274Y-118120340D01*
X158439450Y-118367312D01*
X158439453Y-118367322D01*
X158537294Y-118603531D01*
X158537299Y-118603542D01*
X158665134Y-118824957D01*
X158665145Y-118824973D01*
X158820788Y-119027811D01*
X158820794Y-119027818D01*
X159001581Y-119208605D01*
X159001587Y-119208610D01*
X159204435Y-119364261D01*
X159204442Y-119364265D01*
X159425857Y-119492100D01*
X159425862Y-119492102D01*
X159425865Y-119492104D01*
X159662087Y-119589950D01*
X159909060Y-119656126D01*
X160162557Y-119689500D01*
X160162564Y-119689500D01*
X160418236Y-119689500D01*
X160418243Y-119689500D01*
X160671740Y-119656126D01*
X160918713Y-119589950D01*
X161154935Y-119492104D01*
X161376365Y-119364261D01*
X161579213Y-119208610D01*
X161760010Y-119027813D01*
X161915661Y-118824965D01*
X162043504Y-118603535D01*
X162141350Y-118367313D01*
X162207526Y-118120340D01*
X162240900Y-117866843D01*
X162240900Y-117611157D01*
X162207526Y-117357660D01*
X162141350Y-117110687D01*
X162043504Y-116874465D01*
X162043502Y-116874462D01*
X162043500Y-116874457D01*
X161915665Y-116653042D01*
X161915661Y-116653035D01*
X161760010Y-116450187D01*
X161760005Y-116450181D01*
X161579218Y-116269394D01*
X161579211Y-116269388D01*
X161376373Y-116113745D01*
X161376371Y-116113743D01*
X161376365Y-116113739D01*
X161376360Y-116113736D01*
X161376357Y-116113734D01*
X161154942Y-115985899D01*
X161154931Y-115985894D01*
X160918722Y-115888053D01*
X160918715Y-115888051D01*
X160918713Y-115888050D01*
X160671740Y-115821874D01*
X160615407Y-115814457D01*
X160418250Y-115788500D01*
X160418243Y-115788500D01*
X160162557Y-115788500D01*
X160162549Y-115788500D01*
X159937226Y-115818165D01*
X159909060Y-115821874D01*
X159662087Y-115888050D01*
X159662077Y-115888053D01*
X159425868Y-115985894D01*
X159425857Y-115985899D01*
X159204442Y-116113734D01*
X159204426Y-116113745D01*
X159001588Y-116269388D01*
X159001581Y-116269394D01*
X158820794Y-116450181D01*
X158820788Y-116450188D01*
X158665145Y-116653026D01*
X158665134Y-116653042D01*
X158537299Y-116874457D01*
X158537294Y-116874468D01*
X158439453Y-117110677D01*
X158439450Y-117110687D01*
X158373274Y-117357661D01*
X158339900Y-117611149D01*
X147000899Y-117611149D01*
X146967526Y-117357660D01*
X146901350Y-117110687D01*
X146803504Y-116874465D01*
X146803502Y-116874462D01*
X146803500Y-116874457D01*
X146675665Y-116653042D01*
X146675661Y-116653035D01*
X146520010Y-116450187D01*
X146520005Y-116450181D01*
X146339218Y-116269394D01*
X146339211Y-116269388D01*
X146136373Y-116113745D01*
X146136371Y-116113743D01*
X146136365Y-116113739D01*
X146136360Y-116113736D01*
X146136357Y-116113734D01*
X145914942Y-115985899D01*
X145914931Y-115985894D01*
X145678722Y-115888053D01*
X145678715Y-115888051D01*
X145678713Y-115888050D01*
X145431740Y-115821874D01*
X145375407Y-115814457D01*
X145178250Y-115788500D01*
X145178243Y-115788500D01*
X144922557Y-115788500D01*
X144922549Y-115788500D01*
X144697226Y-115818165D01*
X144669060Y-115821874D01*
X144422087Y-115888050D01*
X144422077Y-115888053D01*
X144185868Y-115985894D01*
X144185857Y-115985899D01*
X143964442Y-116113734D01*
X143964426Y-116113745D01*
X143761588Y-116269388D01*
X143761581Y-116269394D01*
X143580794Y-116450181D01*
X143580788Y-116450188D01*
X143425145Y-116653026D01*
X143425134Y-116653042D01*
X143297299Y-116874457D01*
X143297294Y-116874468D01*
X143199453Y-117110677D01*
X143199450Y-117110687D01*
X143133274Y-117357661D01*
X143099900Y-117611149D01*
X85527138Y-117611149D01*
X85527138Y-111265711D01*
X88290300Y-111265711D01*
X88290300Y-111508288D01*
X88321961Y-111748785D01*
X88384747Y-111983104D01*
X88477573Y-112207205D01*
X88477576Y-112207212D01*
X88598864Y-112417289D01*
X88598866Y-112417292D01*
X88598867Y-112417293D01*
X88746533Y-112609736D01*
X88746539Y-112609743D01*
X88918056Y-112781260D01*
X88918062Y-112781265D01*
X89110511Y-112928936D01*
X89320588Y-113050224D01*
X89544700Y-113143054D01*
X89779011Y-113205838D01*
X89959386Y-113229584D01*
X90019511Y-113237500D01*
X90019512Y-113237500D01*
X90262089Y-113237500D01*
X90310188Y-113231167D01*
X90502589Y-113205838D01*
X90736900Y-113143054D01*
X90961012Y-113050224D01*
X91171089Y-112928936D01*
X91363538Y-112781265D01*
X91535065Y-112609738D01*
X91682736Y-112417289D01*
X91804024Y-112207212D01*
X91896854Y-111983100D01*
X91959638Y-111748789D01*
X91991300Y-111508288D01*
X91991300Y-111265712D01*
X91991300Y-111265711D01*
X195943100Y-111265711D01*
X195943100Y-111508288D01*
X195974761Y-111748785D01*
X196037547Y-111983104D01*
X196130373Y-112207205D01*
X196130376Y-112207212D01*
X196251664Y-112417289D01*
X196251666Y-112417292D01*
X196251667Y-112417293D01*
X196399333Y-112609736D01*
X196399339Y-112609743D01*
X196570856Y-112781260D01*
X196570862Y-112781265D01*
X196763311Y-112928936D01*
X196973388Y-113050224D01*
X197197500Y-113143054D01*
X197431811Y-113205838D01*
X197612186Y-113229584D01*
X197672311Y-113237500D01*
X197672312Y-113237500D01*
X197914889Y-113237500D01*
X197962988Y-113231167D01*
X198155389Y-113205838D01*
X198389700Y-113143054D01*
X198613812Y-113050224D01*
X198823889Y-112928936D01*
X199016338Y-112781265D01*
X199187865Y-112609738D01*
X199335536Y-112417289D01*
X199456824Y-112207212D01*
X199549654Y-111983100D01*
X199612438Y-111748789D01*
X199644100Y-111508288D01*
X199644100Y-111265712D01*
X199612438Y-111025211D01*
X199549654Y-110790900D01*
X199456824Y-110566788D01*
X199335536Y-110356711D01*
X199246500Y-110240677D01*
X199187866Y-110164263D01*
X199187860Y-110164256D01*
X199016343Y-109992739D01*
X199016336Y-109992733D01*
X198823893Y-109845067D01*
X198823892Y-109845066D01*
X198823889Y-109845064D01*
X198613812Y-109723776D01*
X198586529Y-109712475D01*
X198389704Y-109630947D01*
X198155385Y-109568161D01*
X197914889Y-109536500D01*
X197914888Y-109536500D01*
X197672312Y-109536500D01*
X197672311Y-109536500D01*
X197431814Y-109568161D01*
X197197495Y-109630947D01*
X196973394Y-109723773D01*
X196973385Y-109723777D01*
X196763306Y-109845067D01*
X196570863Y-109992733D01*
X196570856Y-109992739D01*
X196399339Y-110164256D01*
X196399333Y-110164263D01*
X196251667Y-110356706D01*
X196130377Y-110566785D01*
X196130373Y-110566794D01*
X196037547Y-110790895D01*
X195974761Y-111025214D01*
X195943100Y-111265711D01*
X91991300Y-111265711D01*
X91959638Y-111025211D01*
X91896854Y-110790900D01*
X91804024Y-110566788D01*
X91682736Y-110356711D01*
X91593700Y-110240677D01*
X91535066Y-110164263D01*
X91535060Y-110164256D01*
X91363543Y-109992739D01*
X91363536Y-109992733D01*
X91171093Y-109845067D01*
X91171092Y-109845066D01*
X91171089Y-109845064D01*
X90961012Y-109723776D01*
X90933729Y-109712475D01*
X90736904Y-109630947D01*
X90502585Y-109568161D01*
X90262089Y-109536500D01*
X90262088Y-109536500D01*
X90019512Y-109536500D01*
X90019511Y-109536500D01*
X89779014Y-109568161D01*
X89544695Y-109630947D01*
X89320594Y-109723773D01*
X89320585Y-109723777D01*
X89110506Y-109845067D01*
X88918063Y-109992733D01*
X88918056Y-109992739D01*
X88746539Y-110164256D01*
X88746533Y-110164263D01*
X88598867Y-110356706D01*
X88477577Y-110566785D01*
X88477573Y-110566794D01*
X88384747Y-110790895D01*
X88321961Y-111025214D01*
X88290300Y-111265711D01*
X85527138Y-111265711D01*
X85527138Y-109006880D01*
X145149900Y-109006880D01*
X145149900Y-109191119D01*
X145178722Y-109373094D01*
X145235653Y-109548313D01*
X145245767Y-109568162D01*
X145319299Y-109712475D01*
X145427593Y-109861529D01*
X145557871Y-109991807D01*
X145706925Y-110100101D01*
X145832835Y-110164256D01*
X145871086Y-110183746D01*
X145931247Y-110203293D01*
X146046307Y-110240678D01*
X146228280Y-110269500D01*
X146228281Y-110269500D01*
X146412519Y-110269500D01*
X146412520Y-110269500D01*
X146594493Y-110240678D01*
X146769716Y-110183745D01*
X146933875Y-110100101D01*
X147082929Y-109991807D01*
X147213207Y-109861529D01*
X147321501Y-109712475D01*
X147405145Y-109548316D01*
X147462078Y-109373093D01*
X147467927Y-109336163D01*
X147497856Y-109273030D01*
X147557167Y-109236098D01*
X147627030Y-109237096D01*
X147685263Y-109275705D01*
X147712873Y-109336164D01*
X147718722Y-109373094D01*
X147775653Y-109548313D01*
X147785767Y-109568162D01*
X147859299Y-109712475D01*
X147967593Y-109861529D01*
X148097871Y-109991807D01*
X148246925Y-110100101D01*
X148372835Y-110164256D01*
X148411086Y-110183746D01*
X148471247Y-110203293D01*
X148586307Y-110240678D01*
X148768280Y-110269500D01*
X148768281Y-110269500D01*
X148952519Y-110269500D01*
X148952520Y-110269500D01*
X149134493Y-110240678D01*
X149309716Y-110183745D01*
X149473875Y-110100101D01*
X149622929Y-109991807D01*
X149753207Y-109861529D01*
X149861501Y-109712475D01*
X149945145Y-109548316D01*
X149987969Y-109416517D01*
X149997469Y-109387279D01*
X150036906Y-109329604D01*
X150101265Y-109302405D01*
X150170111Y-109314319D01*
X150221587Y-109361563D01*
X150233331Y-109387279D01*
X150285653Y-109548313D01*
X150295767Y-109568162D01*
X150369299Y-109712475D01*
X150477593Y-109861529D01*
X150607871Y-109991807D01*
X150756925Y-110100101D01*
X150882835Y-110164256D01*
X150921086Y-110183746D01*
X150981247Y-110203293D01*
X151096307Y-110240678D01*
X151278280Y-110269500D01*
X151278281Y-110269500D01*
X151462519Y-110269500D01*
X151462520Y-110269500D01*
X151644493Y-110240678D01*
X151819716Y-110183745D01*
X151983875Y-110100101D01*
X152132929Y-109991807D01*
X152263207Y-109861529D01*
X152371501Y-109712475D01*
X152455145Y-109548316D01*
X152512078Y-109373093D01*
X152517927Y-109336163D01*
X152547856Y-109273030D01*
X152607167Y-109236098D01*
X152677030Y-109237096D01*
X152735263Y-109275705D01*
X152762873Y-109336164D01*
X152768722Y-109373094D01*
X152825653Y-109548313D01*
X152835767Y-109568162D01*
X152909299Y-109712475D01*
X153017593Y-109861529D01*
X153147871Y-109991807D01*
X153296925Y-110100101D01*
X153422835Y-110164256D01*
X153461086Y-110183746D01*
X153521247Y-110203293D01*
X153636307Y-110240678D01*
X153818280Y-110269500D01*
X153818281Y-110269500D01*
X154002519Y-110269500D01*
X154002520Y-110269500D01*
X154184493Y-110240678D01*
X154359716Y-110183745D01*
X154523875Y-110100101D01*
X154672929Y-109991807D01*
X154803207Y-109861529D01*
X154911501Y-109712475D01*
X154995145Y-109548316D01*
X155052078Y-109373093D01*
X155072927Y-109241457D01*
X155102856Y-109178323D01*
X155162168Y-109141392D01*
X155232030Y-109142390D01*
X155290263Y-109181000D01*
X155317873Y-109241458D01*
X155338722Y-109373094D01*
X155395653Y-109548313D01*
X155405767Y-109568162D01*
X155479299Y-109712475D01*
X155587593Y-109861529D01*
X155717871Y-109991807D01*
X155866925Y-110100101D01*
X155992835Y-110164256D01*
X156031086Y-110183746D01*
X156091247Y-110203293D01*
X156206307Y-110240678D01*
X156388280Y-110269500D01*
X156388281Y-110269500D01*
X156572519Y-110269500D01*
X156572520Y-110269500D01*
X156754493Y-110240678D01*
X156929716Y-110183745D01*
X157093875Y-110100101D01*
X157242929Y-109991807D01*
X157373207Y-109861529D01*
X157481501Y-109712475D01*
X157565145Y-109548316D01*
X157607969Y-109416517D01*
X157647406Y-109358842D01*
X157711764Y-109331643D01*
X157780611Y-109343557D01*
X157832087Y-109390801D01*
X157849900Y-109454835D01*
X157849900Y-109761582D01*
X157860534Y-109850135D01*
X157860534Y-109850136D01*
X157916108Y-109991061D01*
X157953197Y-110039970D01*
X158007638Y-110111762D01*
X158128341Y-110203293D01*
X158269262Y-110258865D01*
X158357818Y-110269500D01*
X159682982Y-110269500D01*
X159771538Y-110258865D01*
X159912459Y-110203293D01*
X160033162Y-110111762D01*
X160124693Y-109991059D01*
X160180265Y-109850138D01*
X160190900Y-109761582D01*
X160190900Y-108436418D01*
X160180265Y-108347862D01*
X160124693Y-108206941D01*
X160124127Y-108206195D01*
X160104952Y-108180908D01*
X160033162Y-108086238D01*
X159938235Y-108014253D01*
X159912461Y-107994708D01*
X159912459Y-107994707D01*
X159817657Y-107957322D01*
X159771536Y-107939134D01*
X159682982Y-107928500D01*
X158357818Y-107928500D01*
X158269264Y-107939134D01*
X158269263Y-107939134D01*
X158128338Y-107994708D01*
X158007638Y-108086238D01*
X157916108Y-108206938D01*
X157860534Y-108347863D01*
X157860534Y-108347864D01*
X157849900Y-108436417D01*
X157849900Y-108743164D01*
X157830215Y-108810203D01*
X157777411Y-108855958D01*
X157708253Y-108865902D01*
X157644697Y-108836877D01*
X157607969Y-108781482D01*
X157565146Y-108649686D01*
X157481500Y-108485524D01*
X157373207Y-108336471D01*
X157242929Y-108206193D01*
X157093875Y-108097899D01*
X157070989Y-108086238D01*
X156929713Y-108014253D01*
X156754494Y-107957322D01*
X156639666Y-107939135D01*
X156572520Y-107928500D01*
X156388280Y-107928500D01*
X156327622Y-107938107D01*
X156206305Y-107957322D01*
X156031086Y-108014253D01*
X155866924Y-108097899D01*
X155781884Y-108159684D01*
X155717871Y-108206193D01*
X155717869Y-108206195D01*
X155717868Y-108206195D01*
X155587595Y-108336468D01*
X155587595Y-108336469D01*
X155587593Y-108336471D01*
X155579316Y-108347864D01*
X155479299Y-108485524D01*
X155395653Y-108649686D01*
X155338722Y-108824905D01*
X155317873Y-108956541D01*
X155287944Y-109019676D01*
X155228632Y-109056607D01*
X155158770Y-109055609D01*
X155100537Y-109016999D01*
X155072927Y-108956541D01*
X155052078Y-108824907D01*
X154995145Y-108649684D01*
X154911501Y-108485525D01*
X154803207Y-108336471D01*
X154672929Y-108206193D01*
X154523875Y-108097899D01*
X154500989Y-108086238D01*
X154359713Y-108014253D01*
X154184494Y-107957322D01*
X154069666Y-107939135D01*
X154002520Y-107928500D01*
X153818280Y-107928500D01*
X153757622Y-107938107D01*
X153636305Y-107957322D01*
X153461086Y-108014253D01*
X153296924Y-108097899D01*
X153211884Y-108159684D01*
X153147871Y-108206193D01*
X153147869Y-108206195D01*
X153147868Y-108206195D01*
X153017595Y-108336468D01*
X153017595Y-108336469D01*
X153017593Y-108336471D01*
X153009316Y-108347864D01*
X152909299Y-108485524D01*
X152825653Y-108649686D01*
X152768722Y-108824905D01*
X152762873Y-108861835D01*
X152732944Y-108924970D01*
X152673632Y-108961901D01*
X152603770Y-108960903D01*
X152545537Y-108922293D01*
X152517927Y-108861835D01*
X152516996Y-108855958D01*
X152512078Y-108824907D01*
X152455145Y-108649684D01*
X152371501Y-108485525D01*
X152263207Y-108336471D01*
X152132929Y-108206193D01*
X151983875Y-108097899D01*
X151960989Y-108086238D01*
X151819713Y-108014253D01*
X151644494Y-107957322D01*
X151529666Y-107939135D01*
X151462520Y-107928500D01*
X151278280Y-107928500D01*
X151217622Y-107938107D01*
X151096305Y-107957322D01*
X150921086Y-108014253D01*
X150756924Y-108097899D01*
X150671884Y-108159684D01*
X150607871Y-108206193D01*
X150607869Y-108206195D01*
X150607868Y-108206195D01*
X150477595Y-108336468D01*
X150477595Y-108336469D01*
X150477593Y-108336471D01*
X150469316Y-108347864D01*
X150369299Y-108485524D01*
X150285653Y-108649686D01*
X150233331Y-108810720D01*
X150193894Y-108868395D01*
X150129535Y-108895594D01*
X150060689Y-108883680D01*
X150009213Y-108836436D01*
X149997469Y-108810720D01*
X149945146Y-108649686D01*
X149861500Y-108485524D01*
X149753207Y-108336471D01*
X149622929Y-108206193D01*
X149473875Y-108097899D01*
X149450989Y-108086238D01*
X149309713Y-108014253D01*
X149134494Y-107957322D01*
X149019666Y-107939135D01*
X148952520Y-107928500D01*
X148768280Y-107928500D01*
X148707622Y-107938107D01*
X148586305Y-107957322D01*
X148411086Y-108014253D01*
X148246924Y-108097899D01*
X148161884Y-108159684D01*
X148097871Y-108206193D01*
X148097869Y-108206195D01*
X148097868Y-108206195D01*
X147967595Y-108336468D01*
X147967595Y-108336469D01*
X147967593Y-108336471D01*
X147959316Y-108347864D01*
X147859299Y-108485524D01*
X147775653Y-108649686D01*
X147718722Y-108824905D01*
X147712873Y-108861835D01*
X147682944Y-108924970D01*
X147623632Y-108961901D01*
X147553770Y-108960903D01*
X147495537Y-108922293D01*
X147467927Y-108861835D01*
X147466996Y-108855958D01*
X147462078Y-108824907D01*
X147405145Y-108649684D01*
X147321501Y-108485525D01*
X147213207Y-108336471D01*
X147082929Y-108206193D01*
X146933875Y-108097899D01*
X146910989Y-108086238D01*
X146769713Y-108014253D01*
X146594494Y-107957322D01*
X146479666Y-107939135D01*
X146412520Y-107928500D01*
X146228280Y-107928500D01*
X146167622Y-107938107D01*
X146046305Y-107957322D01*
X145871086Y-108014253D01*
X145706924Y-108097899D01*
X145621884Y-108159684D01*
X145557871Y-108206193D01*
X145557869Y-108206195D01*
X145557868Y-108206195D01*
X145427595Y-108336468D01*
X145427595Y-108336469D01*
X145427593Y-108336471D01*
X145419316Y-108347864D01*
X145319299Y-108485524D01*
X145235653Y-108649686D01*
X145178722Y-108824905D01*
X145149900Y-109006880D01*
X85527138Y-109006880D01*
X85527138Y-88786807D01*
X119302138Y-88786807D01*
X119302138Y-88987838D01*
X119341353Y-89184984D01*
X119341356Y-89184996D01*
X119418278Y-89370704D01*
X119418285Y-89370717D01*
X119529963Y-89537853D01*
X119529966Y-89537857D01*
X119672103Y-89679994D01*
X119672107Y-89679997D01*
X119839243Y-89791675D01*
X119839256Y-89791682D01*
X120023805Y-89868124D01*
X120024969Y-89868606D01*
X120219608Y-89907322D01*
X120222122Y-89907822D01*
X120222126Y-89907823D01*
X120222127Y-89907823D01*
X120423150Y-89907823D01*
X120423151Y-89907822D01*
X120620307Y-89868606D01*
X120769028Y-89807004D01*
X120806019Y-89791682D01*
X120806019Y-89791681D01*
X120806026Y-89791679D01*
X120973169Y-89679997D01*
X121115312Y-89537854D01*
X121226994Y-89370711D01*
X121227094Y-89370471D01*
X121274828Y-89255228D01*
X121303921Y-89184992D01*
X121343138Y-88987834D01*
X121343138Y-88786812D01*
X121343137Y-88786807D01*
X121842138Y-88786807D01*
X121842138Y-88987838D01*
X121881353Y-89184984D01*
X121881356Y-89184996D01*
X121958278Y-89370704D01*
X121958285Y-89370717D01*
X122069963Y-89537853D01*
X122069966Y-89537857D01*
X122212103Y-89679994D01*
X122212107Y-89679997D01*
X122379243Y-89791675D01*
X122379256Y-89791682D01*
X122563805Y-89868124D01*
X122564969Y-89868606D01*
X122759608Y-89907322D01*
X122762122Y-89907822D01*
X122762126Y-89907823D01*
X122762127Y-89907823D01*
X122963150Y-89907823D01*
X122963151Y-89907822D01*
X123160307Y-89868606D01*
X123309028Y-89807004D01*
X123346019Y-89791682D01*
X123346019Y-89791681D01*
X123346026Y-89791679D01*
X123513169Y-89679997D01*
X123521499Y-89671667D01*
X123633551Y-89559616D01*
X123655309Y-89537857D01*
X123655312Y-89537854D01*
X123766994Y-89370711D01*
X123767094Y-89370471D01*
X123814828Y-89255228D01*
X123843921Y-89184992D01*
X123883138Y-88987834D01*
X123883138Y-88786857D01*
X124382638Y-88786857D01*
X124382638Y-88987788D01*
X124421834Y-89184838D01*
X124421836Y-89184846D01*
X124498724Y-89370471D01*
X124498729Y-89370479D01*
X124596452Y-89516730D01*
X125045112Y-89068071D01*
X125082558Y-89132929D01*
X125157032Y-89207403D01*
X125221888Y-89244847D01*
X124773228Y-89693508D01*
X124919489Y-89791236D01*
X125105114Y-89868124D01*
X125105122Y-89868126D01*
X125302172Y-89907322D01*
X125302176Y-89907323D01*
X125503100Y-89907323D01*
X125503103Y-89907322D01*
X125700153Y-89868126D01*
X125700161Y-89868124D01*
X125885786Y-89791236D01*
X126032046Y-89693508D01*
X126032046Y-89693507D01*
X125583387Y-89244847D01*
X125648244Y-89207403D01*
X125722718Y-89132929D01*
X125760163Y-89068072D01*
X126208822Y-89516731D01*
X126208823Y-89516731D01*
X126306551Y-89370471D01*
X126383439Y-89184846D01*
X126383441Y-89184838D01*
X126422637Y-88987788D01*
X126422638Y-88987785D01*
X126422638Y-88786861D01*
X126422637Y-88786857D01*
X126383441Y-88589807D01*
X126383439Y-88589799D01*
X126306551Y-88404174D01*
X126208823Y-88257913D01*
X125760162Y-88706573D01*
X125722718Y-88641717D01*
X125648244Y-88567243D01*
X125583386Y-88529797D01*
X126032045Y-88081137D01*
X126032045Y-88081136D01*
X125885794Y-87983414D01*
X125885786Y-87983409D01*
X125700161Y-87906521D01*
X125700153Y-87906519D01*
X125503103Y-87867323D01*
X125302172Y-87867323D01*
X125105122Y-87906519D01*
X125105114Y-87906521D01*
X124919485Y-87983411D01*
X124773229Y-88081135D01*
X124773229Y-88081137D01*
X125221889Y-88529797D01*
X125157032Y-88567243D01*
X125082558Y-88641717D01*
X125045112Y-88706574D01*
X124596452Y-88257914D01*
X124596450Y-88257914D01*
X124498726Y-88404170D01*
X124421836Y-88589799D01*
X124421834Y-88589807D01*
X124382638Y-88786857D01*
X123883138Y-88786857D01*
X123883138Y-88786812D01*
X123843921Y-88589654D01*
X123834638Y-88567243D01*
X123766997Y-88403941D01*
X123766990Y-88403928D01*
X123655312Y-88236792D01*
X123655309Y-88236788D01*
X123513172Y-88094651D01*
X123513168Y-88094648D01*
X123346032Y-87982970D01*
X123346019Y-87982963D01*
X123160311Y-87906041D01*
X123160299Y-87906038D01*
X122963153Y-87866823D01*
X122963149Y-87866823D01*
X122762127Y-87866823D01*
X122762122Y-87866823D01*
X122564976Y-87906038D01*
X122564964Y-87906041D01*
X122379256Y-87982963D01*
X122379243Y-87982970D01*
X122212107Y-88094648D01*
X122212103Y-88094651D01*
X122069966Y-88236788D01*
X122069963Y-88236792D01*
X121958285Y-88403928D01*
X121958278Y-88403941D01*
X121881356Y-88589649D01*
X121881353Y-88589661D01*
X121842138Y-88786807D01*
X121343137Y-88786807D01*
X121303921Y-88589654D01*
X121294638Y-88567243D01*
X121226997Y-88403941D01*
X121226990Y-88403928D01*
X121115312Y-88236792D01*
X121115309Y-88236788D01*
X120973172Y-88094651D01*
X120973168Y-88094648D01*
X120806032Y-87982970D01*
X120806019Y-87982963D01*
X120620311Y-87906041D01*
X120620299Y-87906038D01*
X120423153Y-87866823D01*
X120423149Y-87866823D01*
X120222127Y-87866823D01*
X120222122Y-87866823D01*
X120024976Y-87906038D01*
X120024964Y-87906041D01*
X119839256Y-87982963D01*
X119839243Y-87982970D01*
X119672107Y-88094648D01*
X119672103Y-88094651D01*
X119529966Y-88236788D01*
X119529963Y-88236792D01*
X119418285Y-88403928D01*
X119418278Y-88403941D01*
X119341356Y-88589649D01*
X119341353Y-88589661D01*
X119302138Y-88786807D01*
X85527138Y-88786807D01*
X85527138Y-87444630D01*
X110032137Y-87444630D01*
X110063860Y-87604106D01*
X110063863Y-87604116D01*
X110126088Y-87754342D01*
X110126090Y-87754346D01*
X110216426Y-87889543D01*
X110216432Y-87889551D01*
X110331409Y-88004528D01*
X110331417Y-88004534D01*
X110466614Y-88094870D01*
X110466618Y-88094872D01*
X110616844Y-88157097D01*
X110616849Y-88157099D01*
X110616853Y-88157099D01*
X110616854Y-88157100D01*
X110776330Y-88188823D01*
X110776333Y-88188823D01*
X111388945Y-88188823D01*
X111496236Y-88167480D01*
X111548427Y-88157099D01*
X111698659Y-88094871D01*
X111698661Y-88094870D01*
X111765807Y-88050003D01*
X111833863Y-88004531D01*
X111948846Y-87889548D01*
X112039186Y-87754344D01*
X112101414Y-87604112D01*
X112111795Y-87551921D01*
X112133138Y-87444630D01*
X112133138Y-87282015D01*
X112101415Y-87122539D01*
X112101414Y-87122538D01*
X112101414Y-87122534D01*
X112098697Y-87115975D01*
X112039187Y-86972303D01*
X112039185Y-86972299D01*
X111948849Y-86837102D01*
X111948848Y-86837100D01*
X111948846Y-86837098D01*
X111927397Y-86815649D01*
X111893913Y-86754329D01*
X111898896Y-86684638D01*
X111927399Y-86640286D01*
X111948460Y-86619225D01*
X112038745Y-86484104D01*
X112038746Y-86484102D01*
X112100932Y-86333971D01*
X112100935Y-86333959D01*
X112123937Y-86218323D01*
X111437373Y-86218323D01*
X111457638Y-86142693D01*
X111457638Y-86043953D01*
X111437373Y-85968323D01*
X112123937Y-85968323D01*
X112100935Y-85852686D01*
X112100932Y-85852674D01*
X112038746Y-85702543D01*
X112035875Y-85697172D01*
X112037958Y-85696058D01*
X112020189Y-85639389D01*
X112038646Y-85572001D01*
X112056484Y-85549447D01*
X112084844Y-85521088D01*
X112130223Y-85418314D01*
X112133138Y-85393188D01*
X112133137Y-84253459D01*
X112130526Y-84230941D01*
X112130224Y-84228335D01*
X112130223Y-84228333D01*
X112130223Y-84228332D01*
X112084844Y-84125558D01*
X112005403Y-84046117D01*
X111927345Y-84011651D01*
X111902630Y-84000738D01*
X111877503Y-83997823D01*
X110287781Y-83997823D01*
X110287755Y-83997825D01*
X110262650Y-84000736D01*
X110262646Y-84000738D01*
X110159873Y-84046116D01*
X110080432Y-84125557D01*
X110035053Y-84228329D01*
X110035053Y-84228331D01*
X110032138Y-84253454D01*
X110032138Y-85393179D01*
X110032140Y-85393205D01*
X110035051Y-85418310D01*
X110035053Y-85418314D01*
X110080431Y-85521087D01*
X110080432Y-85521089D01*
X110108788Y-85549445D01*
X110142273Y-85610769D01*
X110137287Y-85680460D01*
X110128881Y-85696890D01*
X110129402Y-85697169D01*
X110126530Y-85702540D01*
X110064343Y-85852674D01*
X110064340Y-85852686D01*
X110041339Y-85968323D01*
X110727903Y-85968323D01*
X110707638Y-86043953D01*
X110707638Y-86142693D01*
X110727903Y-86218323D01*
X110041339Y-86218323D01*
X110064340Y-86333959D01*
X110064343Y-86333971D01*
X110126529Y-86484102D01*
X110126530Y-86484104D01*
X110216818Y-86619229D01*
X110216821Y-86619233D01*
X110237876Y-86640288D01*
X110271361Y-86701611D01*
X110266377Y-86771303D01*
X110237880Y-86815647D01*
X110216428Y-86837100D01*
X110216423Y-86837105D01*
X110126090Y-86972299D01*
X110126088Y-86972303D01*
X110063863Y-87122529D01*
X110063860Y-87122539D01*
X110032138Y-87282015D01*
X110032138Y-87282018D01*
X110032138Y-87444628D01*
X110032138Y-87444630D01*
X110032137Y-87444630D01*
X85527138Y-87444630D01*
X85527138Y-77738058D01*
X88976300Y-77738058D01*
X88976300Y-77967541D01*
X88997808Y-78130901D01*
X89006252Y-78195038D01*
X89006253Y-78195040D01*
X89065642Y-78416687D01*
X89153450Y-78628676D01*
X89153456Y-78628688D01*
X89261452Y-78815744D01*
X89268192Y-78827417D01*
X89407881Y-79009461D01*
X89407889Y-79009470D01*
X89570130Y-79171711D01*
X89570138Y-79171718D01*
X89752182Y-79311407D01*
X89752185Y-79311408D01*
X89752188Y-79311411D01*
X89950912Y-79426144D01*
X89950917Y-79426146D01*
X89950923Y-79426149D01*
X90042280Y-79463990D01*
X90162913Y-79513958D01*
X90384562Y-79573348D01*
X90612066Y-79603300D01*
X90612073Y-79603300D01*
X90841527Y-79603300D01*
X90841534Y-79603300D01*
X91069038Y-79573348D01*
X91290687Y-79513958D01*
X91397535Y-79469700D01*
X93996300Y-79469700D01*
X93996300Y-80555891D01*
X94006923Y-80644362D01*
X94062439Y-80785142D01*
X94062440Y-80785144D01*
X94153877Y-80905722D01*
X94249417Y-80978172D01*
X94274458Y-80997161D01*
X94415236Y-81052676D01*
X94503701Y-81063300D01*
X95589898Y-81063299D01*
X95678364Y-81052676D01*
X95819142Y-80997161D01*
X95939722Y-80905722D01*
X96031161Y-80785142D01*
X96086676Y-80644364D01*
X96097300Y-80555899D01*
X96097299Y-79909330D01*
X96996300Y-79909330D01*
X96996300Y-80116269D01*
X97036668Y-80319212D01*
X97036670Y-80319220D01*
X97115858Y-80510396D01*
X97230824Y-80682457D01*
X97377142Y-80828775D01*
X97377145Y-80828777D01*
X97549202Y-80943741D01*
X97740380Y-81022930D01*
X97924251Y-81059504D01*
X97943330Y-81063299D01*
X97943334Y-81063300D01*
X97943335Y-81063300D01*
X98150266Y-81063300D01*
X98150267Y-81063299D01*
X98353220Y-81022930D01*
X98544398Y-80943741D01*
X98716455Y-80828777D01*
X98778646Y-80766586D01*
X98862776Y-80682457D01*
X98947338Y-80555899D01*
X98977741Y-80510398D01*
X99056930Y-80319220D01*
X99097300Y-80116265D01*
X99097300Y-79909335D01*
X99056930Y-79706380D01*
X98977741Y-79515202D01*
X98862777Y-79343145D01*
X98862775Y-79343142D01*
X98716457Y-79196824D01*
X98560802Y-79092820D01*
X98544398Y-79081859D01*
X98539048Y-79079643D01*
X98353220Y-79002670D01*
X98353212Y-79002668D01*
X98150269Y-78962300D01*
X98150265Y-78962300D01*
X97943335Y-78962300D01*
X97943330Y-78962300D01*
X97740387Y-79002668D01*
X97740379Y-79002670D01*
X97549203Y-79081858D01*
X97377142Y-79196824D01*
X97230824Y-79343142D01*
X97115858Y-79515203D01*
X97036670Y-79706379D01*
X97036668Y-79706387D01*
X96996300Y-79909330D01*
X96097299Y-79909330D01*
X96097299Y-79469702D01*
X96086676Y-79381236D01*
X96031161Y-79240458D01*
X96031159Y-79240455D01*
X95939722Y-79119877D01*
X95819144Y-79028440D01*
X95819142Y-79028439D01*
X95678364Y-78972924D01*
X95678361Y-78972923D01*
X95589899Y-78962300D01*
X94503708Y-78962300D01*
X94415237Y-78972923D01*
X94274457Y-79028439D01*
X94274455Y-79028440D01*
X94153877Y-79119877D01*
X94062440Y-79240455D01*
X94062439Y-79240458D01*
X94015848Y-79358608D01*
X94006924Y-79381237D01*
X94006923Y-79381238D01*
X93996300Y-79469700D01*
X91397535Y-79469700D01*
X91502688Y-79426144D01*
X91701412Y-79311411D01*
X91883461Y-79171719D01*
X91883465Y-79171714D01*
X91883470Y-79171711D01*
X92045711Y-79009470D01*
X92045714Y-79009465D01*
X92045719Y-79009461D01*
X92185411Y-78827412D01*
X92300144Y-78628688D01*
X92387958Y-78416687D01*
X92447348Y-78195038D01*
X92477300Y-77967534D01*
X92477300Y-77738066D01*
X92447348Y-77510562D01*
X92387958Y-77288913D01*
X92324986Y-77136885D01*
X92300149Y-77076923D01*
X92300146Y-77076917D01*
X92300144Y-77076912D01*
X92203391Y-76909330D01*
X93996300Y-76909330D01*
X93996300Y-77116269D01*
X94036668Y-77319212D01*
X94036670Y-77319220D01*
X94115859Y-77510398D01*
X94167763Y-77588078D01*
X94230824Y-77682457D01*
X94377142Y-77828775D01*
X94377145Y-77828777D01*
X94549202Y-77943741D01*
X94740380Y-78022930D01*
X94943330Y-78063299D01*
X94943334Y-78063300D01*
X94943335Y-78063300D01*
X95150266Y-78063300D01*
X95150267Y-78063299D01*
X95353220Y-78022930D01*
X95544398Y-77943741D01*
X95716455Y-77828777D01*
X95862777Y-77682455D01*
X95977741Y-77510398D01*
X96056930Y-77319220D01*
X96097300Y-77116265D01*
X96097300Y-76909335D01*
X96097299Y-76909330D01*
X96996300Y-76909330D01*
X96996300Y-77116269D01*
X97036668Y-77319212D01*
X97036670Y-77319220D01*
X97115859Y-77510398D01*
X97167763Y-77588078D01*
X97230824Y-77682457D01*
X97377142Y-77828775D01*
X97377145Y-77828777D01*
X97549202Y-77943741D01*
X97740380Y-78022930D01*
X97943330Y-78063299D01*
X97943334Y-78063300D01*
X97943335Y-78063300D01*
X98150266Y-78063300D01*
X98150267Y-78063299D01*
X98353220Y-78022930D01*
X98544398Y-77943741D01*
X98716455Y-77828777D01*
X98862777Y-77682455D01*
X98977741Y-77510398D01*
X99056930Y-77319220D01*
X99097300Y-77116265D01*
X99097300Y-76909335D01*
X99056930Y-76706380D01*
X98977741Y-76515202D01*
X98862777Y-76343145D01*
X98862775Y-76343142D01*
X98716457Y-76196824D01*
X98574990Y-76102300D01*
X98544398Y-76081859D01*
X98353220Y-76002670D01*
X98353212Y-76002668D01*
X98150269Y-75962300D01*
X98150265Y-75962300D01*
X97943335Y-75962300D01*
X97943330Y-75962300D01*
X97740387Y-76002668D01*
X97740379Y-76002670D01*
X97549203Y-76081858D01*
X97377142Y-76196824D01*
X97230824Y-76343142D01*
X97115858Y-76515203D01*
X97036670Y-76706379D01*
X97036668Y-76706387D01*
X96996300Y-76909330D01*
X96097299Y-76909330D01*
X96056930Y-76706380D01*
X95977741Y-76515202D01*
X95862777Y-76343145D01*
X95862775Y-76343142D01*
X95716457Y-76196824D01*
X95574990Y-76102300D01*
X95544398Y-76081859D01*
X95353220Y-76002670D01*
X95353212Y-76002668D01*
X95150269Y-75962300D01*
X95150265Y-75962300D01*
X94943335Y-75962300D01*
X94943330Y-75962300D01*
X94740387Y-76002668D01*
X94740379Y-76002670D01*
X94549203Y-76081858D01*
X94377142Y-76196824D01*
X94230824Y-76343142D01*
X94115858Y-76515203D01*
X94036670Y-76706379D01*
X94036668Y-76706387D01*
X93996300Y-76909330D01*
X92203391Y-76909330D01*
X92185411Y-76878188D01*
X92185408Y-76878185D01*
X92185407Y-76878182D01*
X92076477Y-76736224D01*
X92045719Y-76696139D01*
X92045718Y-76696138D01*
X92045711Y-76696130D01*
X91883470Y-76533889D01*
X91883461Y-76533881D01*
X91701417Y-76394192D01*
X91502690Y-76279457D01*
X91502676Y-76279450D01*
X91290687Y-76191642D01*
X91069038Y-76132252D01*
X91031015Y-76127246D01*
X90841541Y-76102300D01*
X90841534Y-76102300D01*
X90612066Y-76102300D01*
X90612058Y-76102300D01*
X90395515Y-76130809D01*
X90384562Y-76132252D01*
X90290876Y-76157354D01*
X90162912Y-76191642D01*
X89950923Y-76279450D01*
X89950909Y-76279457D01*
X89752182Y-76394192D01*
X89570138Y-76533881D01*
X89407881Y-76696138D01*
X89268192Y-76878182D01*
X89153457Y-77076909D01*
X89153450Y-77076923D01*
X89065642Y-77288912D01*
X89065642Y-77288913D01*
X89006297Y-77510396D01*
X89006253Y-77510559D01*
X89006251Y-77510570D01*
X88976300Y-77738058D01*
X85527138Y-77738058D01*
X85527138Y-73909330D01*
X93996300Y-73909330D01*
X93996300Y-74116269D01*
X94036668Y-74319212D01*
X94036670Y-74319220D01*
X94115858Y-74510396D01*
X94230824Y-74682457D01*
X94377142Y-74828775D01*
X94377145Y-74828777D01*
X94549202Y-74943741D01*
X94740380Y-75022930D01*
X94943330Y-75063299D01*
X94943334Y-75063300D01*
X94943335Y-75063300D01*
X95150266Y-75063300D01*
X95150267Y-75063299D01*
X95353220Y-75022930D01*
X95544398Y-74943741D01*
X95716455Y-74828777D01*
X95862777Y-74682455D01*
X95977741Y-74510398D01*
X96056930Y-74319220D01*
X96097300Y-74116265D01*
X96097300Y-73909335D01*
X96056930Y-73706380D01*
X95977741Y-73515202D01*
X95862777Y-73343145D01*
X95862775Y-73343142D01*
X95716457Y-73196824D01*
X95561673Y-73093402D01*
X95544398Y-73081859D01*
X95534654Y-73077823D01*
X95353220Y-73002670D01*
X95353212Y-73002668D01*
X95150269Y-72962300D01*
X95150265Y-72962300D01*
X94943335Y-72962300D01*
X94943330Y-72962300D01*
X94740387Y-73002668D01*
X94740379Y-73002670D01*
X94549203Y-73081858D01*
X94377142Y-73196824D01*
X94230824Y-73343142D01*
X94115858Y-73515203D01*
X94036670Y-73706379D01*
X94036668Y-73706387D01*
X93996300Y-73909330D01*
X85527138Y-73909330D01*
X85527138Y-64038058D01*
X88976300Y-64038058D01*
X88976300Y-64267541D01*
X88999183Y-64441344D01*
X89006252Y-64495038D01*
X89038550Y-64615577D01*
X89065642Y-64716687D01*
X89153450Y-64928676D01*
X89153457Y-64928690D01*
X89219696Y-65043420D01*
X89256115Y-65106500D01*
X89268192Y-65127417D01*
X89407881Y-65309461D01*
X89407889Y-65309470D01*
X89570130Y-65471711D01*
X89570138Y-65471718D01*
X89752182Y-65611407D01*
X89752185Y-65611408D01*
X89752188Y-65611411D01*
X89950912Y-65726144D01*
X89950917Y-65726146D01*
X89950923Y-65726149D01*
X90038980Y-65762623D01*
X90162913Y-65813958D01*
X90384562Y-65873348D01*
X90612066Y-65903300D01*
X90612073Y-65903300D01*
X90841527Y-65903300D01*
X90841534Y-65903300D01*
X91069038Y-65873348D01*
X91290687Y-65813958D01*
X91502688Y-65726144D01*
X91701412Y-65611411D01*
X91883461Y-65471719D01*
X91883465Y-65471714D01*
X91883470Y-65471711D01*
X92045711Y-65309470D01*
X92045714Y-65309465D01*
X92045719Y-65309461D01*
X92185411Y-65127412D01*
X92300144Y-64928688D01*
X92387958Y-64716687D01*
X92447348Y-64495038D01*
X92477300Y-64267534D01*
X92477300Y-64038066D01*
X92477240Y-64037614D01*
X92471872Y-63996835D01*
X92447348Y-63810562D01*
X92387958Y-63588913D01*
X92323538Y-63433389D01*
X92300149Y-63376923D01*
X92300146Y-63376917D01*
X92300144Y-63376912D01*
X92185411Y-63178188D01*
X92185408Y-63178185D01*
X92185407Y-63178182D01*
X92066277Y-63022931D01*
X92045719Y-62996139D01*
X92045718Y-62996138D01*
X92045711Y-62996130D01*
X91883470Y-62833889D01*
X91883461Y-62833881D01*
X91701417Y-62694192D01*
X91681091Y-62682457D01*
X91610188Y-62641521D01*
X91502690Y-62579457D01*
X91502676Y-62579450D01*
X91290687Y-62491642D01*
X91182314Y-62462604D01*
X91069038Y-62432252D01*
X91031015Y-62427246D01*
X90841541Y-62402300D01*
X90841534Y-62402300D01*
X90612066Y-62402300D01*
X90612058Y-62402300D01*
X90395515Y-62430809D01*
X90384562Y-62432252D01*
X90309741Y-62452300D01*
X90162912Y-62491642D01*
X89950923Y-62579450D01*
X89950909Y-62579457D01*
X89752182Y-62694192D01*
X89570138Y-62833881D01*
X89407881Y-62996138D01*
X89268192Y-63178182D01*
X89153457Y-63376909D01*
X89153450Y-63376923D01*
X89065642Y-63588912D01*
X89050170Y-63646655D01*
X89014489Y-63779823D01*
X89006253Y-63810559D01*
X89006251Y-63810570D01*
X88976300Y-64038058D01*
X85527138Y-64038058D01*
X85527138Y-61909330D01*
X93996300Y-61909330D01*
X93996300Y-62116269D01*
X94036332Y-62317521D01*
X94036670Y-62319220D01*
X94115859Y-62510398D01*
X94160686Y-62577487D01*
X94230824Y-62682457D01*
X94377142Y-62828775D01*
X94377145Y-62828777D01*
X94549202Y-62943741D01*
X94740380Y-63022930D01*
X94943330Y-63063299D01*
X94943334Y-63063300D01*
X94943335Y-63063300D01*
X95150266Y-63063300D01*
X95150267Y-63063299D01*
X95353220Y-63022930D01*
X95544398Y-62943741D01*
X95716455Y-62828777D01*
X95862777Y-62682455D01*
X95977741Y-62510398D01*
X96056930Y-62319220D01*
X96097300Y-62116265D01*
X96097300Y-61909335D01*
X96056930Y-61706380D01*
X95977741Y-61515202D01*
X95862777Y-61343145D01*
X95862775Y-61343142D01*
X95716455Y-61196822D01*
X95544405Y-61081863D01*
X95539033Y-61078992D01*
X95540226Y-61076759D01*
X95533272Y-61071154D01*
X95515097Y-61062854D01*
X95506627Y-61049675D01*
X95494432Y-61039844D01*
X95488125Y-61020884D01*
X95477323Y-61004076D01*
X95473356Y-60976486D01*
X95472378Y-60973546D01*
X95472300Y-60969141D01*
X95472300Y-60806771D01*
X95491985Y-60739732D01*
X95508619Y-60719090D01*
X96596567Y-59631142D01*
X96657890Y-59597657D01*
X96684248Y-59594823D01*
X117311028Y-59594823D01*
X117378067Y-59614508D01*
X117398709Y-59631142D01*
X130152153Y-72384586D01*
X130231375Y-72463808D01*
X130237053Y-72467086D01*
X130249051Y-72474013D01*
X130328397Y-72519824D01*
X130328398Y-72519824D01*
X130328401Y-72519826D01*
X130436619Y-72548823D01*
X130436620Y-72548823D01*
X132162119Y-72548823D01*
X132229158Y-72568508D01*
X132249800Y-72585142D01*
X132332092Y-72667434D01*
X132332096Y-72667437D01*
X132446820Y-72744094D01*
X132446833Y-72744101D01*
X132536607Y-72781286D01*
X132574310Y-72796903D01*
X132574314Y-72796903D01*
X132574315Y-72796904D01*
X132709642Y-72823823D01*
X132709645Y-72823823D01*
X132847633Y-72823823D01*
X132953209Y-72802822D01*
X132982966Y-72796903D01*
X133110449Y-72744098D01*
X133225180Y-72667437D01*
X133322752Y-72569865D01*
X133399413Y-72455134D01*
X133452218Y-72327651D01*
X133466135Y-72257686D01*
X133479138Y-72192318D01*
X133479138Y-72075932D01*
X133498823Y-72008893D01*
X133515457Y-71988251D01*
X139776567Y-65727142D01*
X139837890Y-65693657D01*
X139864248Y-65690823D01*
X153085355Y-65690823D01*
X153152394Y-65710508D01*
X153198149Y-65763312D01*
X153199916Y-65767371D01*
X153239859Y-65863804D01*
X153239866Y-65863817D01*
X153316523Y-65978541D01*
X153316526Y-65978545D01*
X153414092Y-66076111D01*
X153414096Y-66076114D01*
X153528820Y-66152771D01*
X153528833Y-66152778D01*
X153656305Y-66205578D01*
X153656310Y-66205580D01*
X153656314Y-66205580D01*
X153656315Y-66205581D01*
X153791642Y-66232500D01*
X153791645Y-66232500D01*
X153929633Y-66232500D01*
X154020679Y-66214389D01*
X154064966Y-66205580D01*
X154192449Y-66152775D01*
X154307180Y-66076114D01*
X154347913Y-66035381D01*
X154389476Y-65993819D01*
X154416403Y-65979115D01*
X154442222Y-65962523D01*
X154448422Y-65961631D01*
X154450799Y-65960334D01*
X154477157Y-65957500D01*
X154661705Y-65957500D01*
X154728744Y-65977185D01*
X154749386Y-65993819D01*
X161394153Y-72638586D01*
X161473375Y-72717808D01*
X161570401Y-72773826D01*
X161678620Y-72802823D01*
X161880119Y-72802823D01*
X161947158Y-72822508D01*
X161967800Y-72839142D01*
X162050092Y-72921434D01*
X162050096Y-72921437D01*
X162164820Y-72998094D01*
X162164833Y-72998101D01*
X162292305Y-73050901D01*
X162292310Y-73050903D01*
X162292314Y-73050903D01*
X162292315Y-73050904D01*
X162427642Y-73077823D01*
X162427645Y-73077823D01*
X162565633Y-73077823D01*
X162656679Y-73059712D01*
X162700966Y-73050903D01*
X162828449Y-72998098D01*
X162943180Y-72921437D01*
X162978632Y-72885985D01*
X163025476Y-72839142D01*
X163086799Y-72805657D01*
X163113157Y-72802823D01*
X167124654Y-72802823D01*
X167124656Y-72802823D01*
X167232875Y-72773826D01*
X167329901Y-72717808D01*
X172796567Y-67251142D01*
X172857890Y-67217657D01*
X172884248Y-67214823D01*
X186907028Y-67214823D01*
X186974067Y-67234508D01*
X186994709Y-67251142D01*
X189720819Y-69977252D01*
X189754304Y-70038575D01*
X189757138Y-70064933D01*
X189757138Y-76467713D01*
X189737453Y-76534752D01*
X189720819Y-76555394D01*
X186286155Y-79990057D01*
X186286151Y-79990063D01*
X186230136Y-80087083D01*
X186230135Y-80087086D01*
X186201138Y-80195305D01*
X186201138Y-85611713D01*
X186181453Y-85678752D01*
X186164819Y-85699394D01*
X179289279Y-92574933D01*
X179289275Y-92574939D01*
X179233260Y-92671959D01*
X179233259Y-92671962D01*
X179204262Y-92780181D01*
X179204262Y-95527067D01*
X179184577Y-95594106D01*
X179167943Y-95614748D01*
X174700510Y-100082181D01*
X174639187Y-100115666D01*
X174612829Y-100118500D01*
X145278010Y-100118500D01*
X145248569Y-100109855D01*
X145218583Y-100103332D01*
X145213567Y-100099577D01*
X145210971Y-100098815D01*
X145190329Y-100082181D01*
X145025219Y-99917071D01*
X144991734Y-99855748D01*
X144988900Y-99829390D01*
X144988900Y-99713004D01*
X144961981Y-99577677D01*
X144961980Y-99577676D01*
X144961980Y-99577672D01*
X144961978Y-99577667D01*
X144909178Y-99450195D01*
X144909174Y-99450188D01*
X144882916Y-99410890D01*
X144862039Y-99344214D01*
X144880523Y-99276834D01*
X144932501Y-99230144D01*
X144986019Y-99218000D01*
X147619916Y-99218000D01*
X147619918Y-99218000D01*
X147728137Y-99189003D01*
X147825163Y-99132985D01*
X156112329Y-90845819D01*
X156173652Y-90812334D01*
X156200010Y-90809500D01*
X176803977Y-90809500D01*
X176803979Y-90809500D01*
X176912198Y-90780503D01*
X177009224Y-90724485D01*
X179855123Y-87878586D01*
X179911141Y-87781560D01*
X179940138Y-87673342D01*
X179940138Y-87561305D01*
X179940138Y-82764933D01*
X179959823Y-82697894D01*
X179976457Y-82677252D01*
X182702567Y-79951142D01*
X185443122Y-77210587D01*
X185451510Y-77196060D01*
X185499141Y-77113560D01*
X185519096Y-77039086D01*
X185528138Y-77005342D01*
X185528138Y-76893305D01*
X185528138Y-72575305D01*
X185499141Y-72467086D01*
X185443123Y-72370060D01*
X185363901Y-72290838D01*
X182569901Y-69496838D01*
X182472875Y-69440820D01*
X182364656Y-69411823D01*
X175506656Y-69411823D01*
X175394619Y-69411823D01*
X175394617Y-69411823D01*
X175350681Y-69423595D01*
X175350682Y-69423596D01*
X175286399Y-69440820D01*
X175286398Y-69440821D01*
X175189378Y-69496836D01*
X175189372Y-69496840D01*
X167690709Y-76995504D01*
X167629386Y-77028989D01*
X167603028Y-77031823D01*
X164637157Y-77031823D01*
X164570118Y-77012138D01*
X164549476Y-76995504D01*
X164467183Y-76913211D01*
X164467179Y-76913208D01*
X164352455Y-76836551D01*
X164352442Y-76836544D01*
X164224970Y-76783744D01*
X164224960Y-76783741D01*
X164089633Y-76756823D01*
X164089631Y-76756823D01*
X163951645Y-76756823D01*
X163951643Y-76756823D01*
X163816315Y-76783741D01*
X163816305Y-76783744D01*
X163688833Y-76836544D01*
X163688820Y-76836551D01*
X163574096Y-76913208D01*
X163574092Y-76913211D01*
X163491800Y-76995504D01*
X163430477Y-77028989D01*
X163404119Y-77031823D01*
X152564248Y-77031823D01*
X152497209Y-77012138D01*
X152476567Y-76995504D01*
X152057457Y-76576394D01*
X152023972Y-76515071D01*
X152021138Y-76488713D01*
X152021138Y-76372327D01*
X151994219Y-76237000D01*
X151994218Y-76236999D01*
X151994218Y-76236995D01*
X151988425Y-76223009D01*
X151941416Y-76109518D01*
X151941409Y-76109505D01*
X151864752Y-75994781D01*
X151864749Y-75994777D01*
X151767183Y-75897211D01*
X151767179Y-75897208D01*
X151652455Y-75820551D01*
X151652442Y-75820544D01*
X151524970Y-75767744D01*
X151524960Y-75767741D01*
X151389633Y-75740823D01*
X151389631Y-75740823D01*
X151251645Y-75740823D01*
X151251643Y-75740823D01*
X151116311Y-75767742D01*
X151116305Y-75767744D01*
X151106935Y-75771625D01*
X151037465Y-75779091D01*
X150974987Y-75747813D01*
X150971806Y-75744743D01*
X149168903Y-73941840D01*
X149168901Y-73941838D01*
X149071875Y-73885820D01*
X148963656Y-73856823D01*
X148963655Y-73856823D01*
X137078157Y-73856823D01*
X137011118Y-73837138D01*
X136990476Y-73820504D01*
X136908183Y-73738211D01*
X136908179Y-73738208D01*
X136793455Y-73661551D01*
X136793442Y-73661544D01*
X136665970Y-73608744D01*
X136665960Y-73608741D01*
X136530633Y-73581823D01*
X136530631Y-73581823D01*
X136392645Y-73581823D01*
X136392643Y-73581823D01*
X136257315Y-73608741D01*
X136257305Y-73608744D01*
X136129833Y-73661544D01*
X136129820Y-73661551D01*
X136015096Y-73738208D01*
X136015092Y-73738211D01*
X135917526Y-73835777D01*
X135917523Y-73835781D01*
X135840866Y-73950505D01*
X135840859Y-73950518D01*
X135788059Y-74077990D01*
X135788056Y-74078000D01*
X135761138Y-74213327D01*
X135761138Y-74329712D01*
X135741453Y-74396751D01*
X135724819Y-74417393D01*
X134721509Y-75420704D01*
X134660186Y-75454189D01*
X134633828Y-75457023D01*
X127367448Y-75457023D01*
X127300409Y-75437338D01*
X127279767Y-75420704D01*
X125880181Y-74021118D01*
X130757337Y-74021118D01*
X130784256Y-74156445D01*
X130784259Y-74156455D01*
X130837059Y-74283927D01*
X130837066Y-74283940D01*
X130913723Y-74398664D01*
X130913726Y-74398668D01*
X131011292Y-74496234D01*
X131011296Y-74496237D01*
X131126020Y-74572894D01*
X131126033Y-74572901D01*
X131253505Y-74625701D01*
X131253510Y-74625703D01*
X131253514Y-74625703D01*
X131253515Y-74625704D01*
X131388842Y-74652623D01*
X131388845Y-74652623D01*
X131526833Y-74652623D01*
X131617879Y-74634512D01*
X131662166Y-74625703D01*
X131789649Y-74572898D01*
X131904380Y-74496237D01*
X132001952Y-74398665D01*
X132078613Y-74283934D01*
X132131418Y-74156451D01*
X132147025Y-74077990D01*
X132158338Y-74021118D01*
X132158338Y-73883127D01*
X132131419Y-73747800D01*
X132131418Y-73747799D01*
X132131418Y-73747795D01*
X132127447Y-73738208D01*
X132078616Y-73620318D01*
X132078609Y-73620305D01*
X132001952Y-73505581D01*
X132001949Y-73505577D01*
X131904383Y-73408011D01*
X131904379Y-73408008D01*
X131789655Y-73331351D01*
X131789642Y-73331344D01*
X131662170Y-73278544D01*
X131662160Y-73278541D01*
X131526833Y-73251623D01*
X131526831Y-73251623D01*
X131388845Y-73251623D01*
X131388843Y-73251623D01*
X131253515Y-73278541D01*
X131253505Y-73278544D01*
X131126033Y-73331344D01*
X131126020Y-73331351D01*
X131011296Y-73408008D01*
X131011292Y-73408011D01*
X130913726Y-73505577D01*
X130913723Y-73505581D01*
X130837066Y-73620305D01*
X130837059Y-73620318D01*
X130784259Y-73747790D01*
X130784256Y-73747800D01*
X130757338Y-73883127D01*
X130757338Y-73883130D01*
X130757338Y-74021116D01*
X130757338Y-74021118D01*
X130757337Y-74021118D01*
X125880181Y-74021118D01*
X121493052Y-69633989D01*
X121459567Y-69572666D01*
X121464551Y-69502974D01*
X121506423Y-69447041D01*
X121571887Y-69422624D01*
X121640160Y-69437476D01*
X121642649Y-69438873D01*
X121820589Y-69541607D01*
X122038645Y-69631929D01*
X122266624Y-69693016D01*
X122500627Y-69723823D01*
X122500634Y-69723823D01*
X122736642Y-69723823D01*
X122736649Y-69723823D01*
X122970652Y-69693016D01*
X123198631Y-69631929D01*
X123416687Y-69541607D01*
X123621088Y-69423596D01*
X123808337Y-69279915D01*
X123975230Y-69113022D01*
X124118911Y-68925773D01*
X124236922Y-68721372D01*
X124327244Y-68503316D01*
X124388331Y-68275337D01*
X124419138Y-68041334D01*
X124419138Y-67805312D01*
X124388331Y-67571309D01*
X124327244Y-67343330D01*
X124236922Y-67125274D01*
X124236920Y-67125271D01*
X124236918Y-67125266D01*
X124194756Y-67052241D01*
X124118911Y-66920873D01*
X123975230Y-66733624D01*
X123975225Y-66733618D01*
X123808342Y-66566735D01*
X123808335Y-66566729D01*
X123621092Y-66423053D01*
X123621091Y-66423052D01*
X123621088Y-66423050D01*
X123518504Y-66363823D01*
X123416694Y-66305042D01*
X123416683Y-66305037D01*
X123198631Y-66214717D01*
X122970648Y-66153629D01*
X122736658Y-66122824D01*
X122736655Y-66122823D01*
X122736649Y-66122823D01*
X122500627Y-66122823D01*
X122500621Y-66122823D01*
X122500617Y-66122824D01*
X122266627Y-66153629D01*
X122038644Y-66214717D01*
X121820592Y-66305037D01*
X121820581Y-66305042D01*
X121616183Y-66423053D01*
X121428940Y-66566729D01*
X121428933Y-66566735D01*
X121262050Y-66733618D01*
X121262044Y-66733625D01*
X121118368Y-66920868D01*
X121118365Y-66920872D01*
X121118365Y-66920873D01*
X121110652Y-66934232D01*
X121000357Y-67125266D01*
X121000352Y-67125277D01*
X120910032Y-67343329D01*
X120848944Y-67571312D01*
X120818139Y-67805302D01*
X120818138Y-67805312D01*
X120818138Y-68041334D01*
X120848945Y-68275337D01*
X120862266Y-68325051D01*
X120910032Y-68503316D01*
X121000352Y-68721368D01*
X121000357Y-68721379D01*
X121103039Y-68899227D01*
X121119512Y-68967127D01*
X121096660Y-69033154D01*
X121041739Y-69076344D01*
X120972185Y-69082986D01*
X120910083Y-69050970D01*
X120907971Y-69048908D01*
X120593903Y-68734840D01*
X120593901Y-68734838D01*
X120529217Y-68697492D01*
X120496877Y-68678821D01*
X120496876Y-68678820D01*
X120496875Y-68678820D01*
X120388656Y-68649823D01*
X120388655Y-68649823D01*
X113702248Y-68649823D01*
X113635209Y-68630138D01*
X113614567Y-68613504D01*
X110852359Y-65851296D01*
X115118138Y-65851296D01*
X115118138Y-66095349D01*
X115151349Y-66305037D01*
X115156317Y-66336399D01*
X115231734Y-66568508D01*
X115315861Y-66733618D01*
X115342534Y-66785965D01*
X115485977Y-66983399D01*
X115485981Y-66983404D01*
X115658556Y-67155979D01*
X115658561Y-67155983D01*
X115789537Y-67251142D01*
X115855999Y-67299429D01*
X116073453Y-67410227D01*
X116305562Y-67485644D01*
X116546611Y-67523823D01*
X116546612Y-67523823D01*
X116790664Y-67523823D01*
X116790665Y-67523823D01*
X117031714Y-67485644D01*
X117263823Y-67410227D01*
X117481277Y-67299429D01*
X117678721Y-67155978D01*
X117851293Y-66983406D01*
X117994744Y-66785962D01*
X118105542Y-66568508D01*
X118180959Y-66336399D01*
X118219138Y-66095350D01*
X118219138Y-65851296D01*
X118180959Y-65610247D01*
X118105542Y-65378138D01*
X117994744Y-65160684D01*
X117922423Y-65061142D01*
X117851298Y-64963246D01*
X117851294Y-64963241D01*
X117678719Y-64790666D01*
X117678714Y-64790662D01*
X117481280Y-64647219D01*
X117481279Y-64647218D01*
X117481277Y-64647217D01*
X117263823Y-64536419D01*
X117031714Y-64461002D01*
X117031712Y-64461001D01*
X117031710Y-64461001D01*
X116863407Y-64434344D01*
X116790665Y-64422823D01*
X116546611Y-64422823D01*
X116490731Y-64431673D01*
X116305565Y-64461001D01*
X116073450Y-64536420D01*
X115855995Y-64647219D01*
X115658561Y-64790662D01*
X115658556Y-64790666D01*
X115485981Y-64963241D01*
X115485977Y-64963246D01*
X115342534Y-65160680D01*
X115231735Y-65378135D01*
X115156316Y-65610250D01*
X115118138Y-65851296D01*
X110852359Y-65851296D01*
X109925903Y-64924840D01*
X109925901Y-64924838D01*
X109828875Y-64868820D01*
X109720656Y-64839823D01*
X109720655Y-64839823D01*
X106590248Y-64839823D01*
X106523209Y-64820138D01*
X106502567Y-64803504D01*
X103645803Y-61946740D01*
X106525138Y-61946740D01*
X106525138Y-63271905D01*
X106535772Y-63360458D01*
X106535772Y-63360459D01*
X106591346Y-63501384D01*
X106591912Y-63502130D01*
X106682876Y-63622085D01*
X106803579Y-63713616D01*
X106944500Y-63769188D01*
X107033056Y-63779823D01*
X108358220Y-63779823D01*
X108446776Y-63769188D01*
X108587697Y-63713616D01*
X108708400Y-63622085D01*
X108799931Y-63501382D01*
X108855503Y-63360461D01*
X108866138Y-63271905D01*
X108866138Y-62965158D01*
X108885823Y-62898119D01*
X108938627Y-62852364D01*
X109007785Y-62842420D01*
X109071341Y-62871445D01*
X109108069Y-62926840D01*
X109150891Y-63058636D01*
X109159837Y-63076193D01*
X109234537Y-63222798D01*
X109342831Y-63371852D01*
X109473109Y-63502130D01*
X109622163Y-63610424D01*
X109786322Y-63694068D01*
X109786324Y-63694069D01*
X109846485Y-63713616D01*
X109961545Y-63751001D01*
X110143518Y-63779823D01*
X110143519Y-63779823D01*
X110327757Y-63779823D01*
X110327758Y-63779823D01*
X110509731Y-63751001D01*
X110684954Y-63694068D01*
X110849113Y-63610424D01*
X110998167Y-63502130D01*
X111128445Y-63371852D01*
X111236739Y-63222798D01*
X111320383Y-63058639D01*
X111377316Y-62883416D01*
X111406138Y-62701443D01*
X111406138Y-62517203D01*
X111377316Y-62335230D01*
X111344079Y-62232935D01*
X111320384Y-62160009D01*
X111298097Y-62116269D01*
X111236739Y-61995848D01*
X111128445Y-61846794D01*
X110998167Y-61716516D01*
X110849113Y-61608222D01*
X110826227Y-61596561D01*
X110684951Y-61524576D01*
X110509732Y-61467645D01*
X110394904Y-61449458D01*
X110327758Y-61438823D01*
X110143518Y-61438823D01*
X110082860Y-61448430D01*
X109961543Y-61467645D01*
X109786324Y-61524576D01*
X109622162Y-61608222D01*
X109537122Y-61670007D01*
X109473109Y-61716516D01*
X109473107Y-61716518D01*
X109473106Y-61716518D01*
X109342833Y-61846791D01*
X109342833Y-61846792D01*
X109342831Y-61846794D01*
X109318865Y-61879781D01*
X109234537Y-61995847D01*
X109150891Y-62160009D01*
X109108069Y-62291805D01*
X109068632Y-62349480D01*
X109004273Y-62376679D01*
X108935427Y-62364765D01*
X108883951Y-62317521D01*
X108866138Y-62253487D01*
X108866138Y-61946740D01*
X108860444Y-61899326D01*
X108855503Y-61858185D01*
X108799931Y-61717264D01*
X108799365Y-61716518D01*
X108733983Y-61630298D01*
X108708400Y-61596561D01*
X108636608Y-61542120D01*
X108587699Y-61505031D01*
X108587697Y-61505030D01*
X108492895Y-61467645D01*
X108446774Y-61449457D01*
X108358220Y-61438823D01*
X107033056Y-61438823D01*
X106944502Y-61449457D01*
X106944501Y-61449457D01*
X106803576Y-61505031D01*
X106682876Y-61596561D01*
X106591346Y-61717261D01*
X106535772Y-61858186D01*
X106535772Y-61858187D01*
X106525138Y-61946740D01*
X103645803Y-61946740D01*
X103385380Y-61686317D01*
X103385378Y-61686315D01*
X103288352Y-61630297D01*
X103180133Y-61601300D01*
X103180132Y-61601300D01*
X99096258Y-61601300D01*
X99029219Y-61581615D01*
X98983464Y-61528811D01*
X98981696Y-61524751D01*
X98981624Y-61524578D01*
X98977741Y-61515202D01*
X98862777Y-61343145D01*
X98862775Y-61343142D01*
X98716457Y-61196824D01*
X98630426Y-61139341D01*
X98544398Y-61081859D01*
X98537476Y-61078992D01*
X98353220Y-61002670D01*
X98353212Y-61002668D01*
X98150269Y-60962300D01*
X98150265Y-60962300D01*
X97943335Y-60962300D01*
X97943330Y-60962300D01*
X97740387Y-61002668D01*
X97740379Y-61002670D01*
X97549203Y-61081858D01*
X97377142Y-61196824D01*
X97230824Y-61343142D01*
X97115858Y-61515203D01*
X97036670Y-61706379D01*
X97036668Y-61706387D01*
X96996300Y-61909330D01*
X96996300Y-62116269D01*
X97036332Y-62317521D01*
X97036670Y-62319220D01*
X97115859Y-62510398D01*
X97160686Y-62577487D01*
X97230824Y-62682457D01*
X97377142Y-62828775D01*
X97377145Y-62828777D01*
X97549202Y-62943741D01*
X97740380Y-63022930D01*
X97943330Y-63063299D01*
X97943334Y-63063300D01*
X97943335Y-63063300D01*
X98150266Y-63063300D01*
X98150267Y-63063299D01*
X98353220Y-63022930D01*
X98544398Y-62943741D01*
X98716455Y-62828777D01*
X98862777Y-62682455D01*
X98977741Y-62510398D01*
X98977741Y-62510396D01*
X98979737Y-62507410D01*
X99033349Y-62462604D01*
X99082840Y-62452300D01*
X102896505Y-62452300D01*
X102963544Y-62471985D01*
X102984186Y-62488619D01*
X106101375Y-65605808D01*
X106198401Y-65661826D01*
X106306619Y-65690823D01*
X106306620Y-65690823D01*
X109437028Y-65690823D01*
X109504067Y-65710508D01*
X109524709Y-65727142D01*
X113213375Y-69415808D01*
X113310401Y-69471826D01*
X113418620Y-69500823D01*
X113530657Y-69500823D01*
X120105028Y-69500823D01*
X120172067Y-69520508D01*
X120192709Y-69537142D01*
X121971146Y-71315579D01*
X122004631Y-71376902D01*
X121999647Y-71446594D01*
X121957775Y-71502527D01*
X121892311Y-71526944D01*
X121859274Y-71524877D01*
X121703153Y-71493823D01*
X121703149Y-71493823D01*
X121502127Y-71493823D01*
X121502122Y-71493823D01*
X121304976Y-71533038D01*
X121304964Y-71533041D01*
X121119256Y-71609963D01*
X121119243Y-71609970D01*
X120952107Y-71721648D01*
X120952103Y-71721651D01*
X120809966Y-71863788D01*
X120809963Y-71863792D01*
X120698285Y-72030928D01*
X120698278Y-72030941D01*
X120621356Y-72216649D01*
X120621353Y-72216661D01*
X120582138Y-72413807D01*
X120582138Y-72614838D01*
X120621353Y-72811984D01*
X120621356Y-72811996D01*
X120698278Y-72997704D01*
X120698285Y-72997717D01*
X120809963Y-73164853D01*
X120809966Y-73164857D01*
X120952103Y-73306994D01*
X120952107Y-73306997D01*
X121119243Y-73418675D01*
X121119256Y-73418682D01*
X121304964Y-73495604D01*
X121304969Y-73495606D01*
X121502122Y-73534822D01*
X121502126Y-73534823D01*
X121502127Y-73534823D01*
X121703150Y-73534823D01*
X121703151Y-73534822D01*
X121900307Y-73495606D01*
X122086026Y-73418679D01*
X122253169Y-73306997D01*
X122395312Y-73164854D01*
X122506994Y-72997711D01*
X122583921Y-72811992D01*
X122623138Y-72614834D01*
X122623138Y-72413812D01*
X122592083Y-72257686D01*
X122598310Y-72188095D01*
X122641173Y-72132917D01*
X122707063Y-72109673D01*
X122775060Y-72125741D01*
X122801381Y-72145814D01*
X126878575Y-76223008D01*
X126975601Y-76279026D01*
X127083820Y-76308023D01*
X127083822Y-76308023D01*
X134917454Y-76308023D01*
X134917456Y-76308023D01*
X135025675Y-76279026D01*
X135122701Y-76223008D01*
X136326566Y-75019141D01*
X136387889Y-74985657D01*
X136414247Y-74982823D01*
X136530633Y-74982823D01*
X136621679Y-74964712D01*
X136665966Y-74955903D01*
X136793449Y-74903098D01*
X136908180Y-74826437D01*
X136908183Y-74826434D01*
X136990476Y-74744142D01*
X137051799Y-74710657D01*
X137078157Y-74707823D01*
X148680028Y-74707823D01*
X148747067Y-74727508D01*
X148767709Y-74744142D01*
X150615445Y-76591878D01*
X150644388Y-76640164D01*
X150644727Y-76640024D01*
X150645671Y-76642304D01*
X150646423Y-76643558D01*
X150647058Y-76645653D01*
X150699859Y-76773127D01*
X150699866Y-76773140D01*
X150776523Y-76887864D01*
X150776526Y-76887868D01*
X150874092Y-76985434D01*
X150874096Y-76985437D01*
X150988820Y-77062094D01*
X150988833Y-77062101D01*
X151116305Y-77114901D01*
X151116310Y-77114903D01*
X151116314Y-77114903D01*
X151116315Y-77114904D01*
X151251642Y-77141823D01*
X151368028Y-77141823D01*
X151435067Y-77161508D01*
X151455709Y-77178142D01*
X151996153Y-77718586D01*
X152075375Y-77797808D01*
X152172401Y-77853826D01*
X152280620Y-77882823D01*
X163404119Y-77882823D01*
X163471158Y-77902508D01*
X163491800Y-77919142D01*
X163574092Y-78001434D01*
X163574096Y-78001437D01*
X163688820Y-78078094D01*
X163688833Y-78078101D01*
X163816305Y-78130901D01*
X163816310Y-78130903D01*
X163816314Y-78130903D01*
X163816315Y-78130904D01*
X163951642Y-78157823D01*
X163951645Y-78157823D01*
X164089633Y-78157823D01*
X164180679Y-78139712D01*
X164224966Y-78130903D01*
X164352449Y-78078098D01*
X164467180Y-78001437D01*
X164501090Y-77967527D01*
X164549476Y-77919142D01*
X164610799Y-77885657D01*
X164637157Y-77882823D01*
X167886654Y-77882823D01*
X167886656Y-77882823D01*
X167994875Y-77853826D01*
X168091901Y-77797808D01*
X175590566Y-70299141D01*
X175651889Y-70265657D01*
X175678247Y-70262823D01*
X182081028Y-70262823D01*
X182148067Y-70282508D01*
X182168709Y-70299142D01*
X184640819Y-72771252D01*
X184674304Y-72832575D01*
X184677138Y-72858933D01*
X184677138Y-76721713D01*
X184657453Y-76788752D01*
X184640819Y-76809394D01*
X179174155Y-82276057D01*
X179174151Y-82276063D01*
X179118136Y-82373083D01*
X179118135Y-82373086D01*
X179089138Y-82481305D01*
X179089138Y-87389713D01*
X179069453Y-87456752D01*
X179052819Y-87477394D01*
X176608032Y-89922181D01*
X176546709Y-89955666D01*
X176520351Y-89958500D01*
X155916382Y-89958500D01*
X155808163Y-89987497D01*
X155808160Y-89987498D01*
X155711140Y-90043513D01*
X155711134Y-90043517D01*
X147423971Y-98330681D01*
X147397043Y-98345384D01*
X147371225Y-98361977D01*
X147365024Y-98362868D01*
X147362648Y-98364166D01*
X147336290Y-98367000D01*
X147112510Y-98367000D01*
X147045471Y-98347315D01*
X146999716Y-98294511D01*
X146989772Y-98225353D01*
X147018797Y-98161797D01*
X147024829Y-98155319D01*
X147813148Y-97367000D01*
X148867123Y-96313025D01*
X148923141Y-96215999D01*
X148952138Y-96107780D01*
X148952138Y-95995744D01*
X148952138Y-90966620D01*
X148943903Y-90935888D01*
X148923141Y-90858401D01*
X148867123Y-90761375D01*
X148787901Y-90682153D01*
X148787900Y-90682152D01*
X148783570Y-90677822D01*
X148783559Y-90677812D01*
X135374988Y-77269240D01*
X135374987Y-77269239D01*
X135374986Y-77269238D01*
X135310302Y-77231892D01*
X135277962Y-77213221D01*
X135277961Y-77213220D01*
X135277960Y-77213220D01*
X135169741Y-77184223D01*
X135169740Y-77184223D01*
X123773501Y-77184223D01*
X123706462Y-77164538D01*
X123685820Y-77147904D01*
X123121742Y-76583826D01*
X122537155Y-75999238D01*
X122440129Y-75943220D01*
X122440127Y-75943219D01*
X122440126Y-75943219D01*
X122424243Y-75938963D01*
X122364583Y-75902597D01*
X122334055Y-75839750D01*
X122342352Y-75770374D01*
X122368656Y-75731509D01*
X122395312Y-75704854D01*
X122506994Y-75537711D01*
X122583921Y-75351992D01*
X122623138Y-75154834D01*
X122623138Y-74953812D01*
X122583921Y-74756654D01*
X122573840Y-74732316D01*
X122506997Y-74570941D01*
X122506990Y-74570928D01*
X122395312Y-74403792D01*
X122395309Y-74403788D01*
X122253172Y-74261651D01*
X122253168Y-74261648D01*
X122086032Y-74149970D01*
X122086019Y-74149963D01*
X121900311Y-74073041D01*
X121900299Y-74073038D01*
X121703153Y-74033823D01*
X121703149Y-74033823D01*
X121502127Y-74033823D01*
X121502122Y-74033823D01*
X121304976Y-74073038D01*
X121304964Y-74073041D01*
X121119256Y-74149963D01*
X121119243Y-74149970D01*
X120952107Y-74261648D01*
X120952103Y-74261651D01*
X120809966Y-74403788D01*
X120809963Y-74403792D01*
X120698285Y-74570928D01*
X120698278Y-74570941D01*
X120621356Y-74756649D01*
X120621353Y-74756661D01*
X120582138Y-74953807D01*
X120582138Y-75154838D01*
X120621353Y-75351984D01*
X120621356Y-75351996D01*
X120698278Y-75537704D01*
X120698285Y-75537717D01*
X120809963Y-75704853D01*
X120813829Y-75709564D01*
X120812210Y-75710892D01*
X120818263Y-75721978D01*
X120832764Y-75738712D01*
X120834680Y-75752043D01*
X120841136Y-75763865D01*
X120839556Y-75785951D01*
X120842708Y-75807870D01*
X120837112Y-75820121D01*
X120836152Y-75833557D01*
X120822881Y-75851283D01*
X120813683Y-75871426D01*
X120802351Y-75878708D01*
X120794280Y-75889490D01*
X120773534Y-75897227D01*
X120754905Y-75909200D01*
X120732986Y-75912351D01*
X120728816Y-75913907D01*
X120719970Y-75914223D01*
X120611047Y-75914223D01*
X120544008Y-75894538D01*
X120523366Y-75877904D01*
X117241103Y-72595640D01*
X117241102Y-72595639D01*
X117241101Y-72595638D01*
X117144075Y-72539620D01*
X117035856Y-72510623D01*
X117035855Y-72510623D01*
X110197048Y-72510623D01*
X110130009Y-72490938D01*
X110109367Y-72474304D01*
X101893903Y-64258840D01*
X101893901Y-64258838D01*
X101796875Y-64202820D01*
X101688656Y-64173823D01*
X101688655Y-64173823D01*
X98719647Y-64173823D01*
X98652608Y-64154138D01*
X98650790Y-64152947D01*
X98561353Y-64093188D01*
X98544397Y-64081858D01*
X98353220Y-64002670D01*
X98353212Y-64002668D01*
X98150269Y-63962300D01*
X98150265Y-63962300D01*
X97943335Y-63962300D01*
X97943330Y-63962300D01*
X97740387Y-64002668D01*
X97740379Y-64002670D01*
X97549203Y-64081858D01*
X97377142Y-64196824D01*
X97230824Y-64343142D01*
X97115858Y-64515203D01*
X97036670Y-64706379D01*
X97036668Y-64706387D01*
X96996300Y-64909330D01*
X96996300Y-65116269D01*
X97036668Y-65319212D01*
X97036670Y-65319220D01*
X97115858Y-65510396D01*
X97230824Y-65682457D01*
X97377142Y-65828775D01*
X97377145Y-65828777D01*
X97400822Y-65844597D01*
X97445627Y-65898209D01*
X97454336Y-65967534D01*
X97424182Y-66030561D01*
X97364739Y-66067281D01*
X97331932Y-66071700D01*
X96758810Y-66071700D01*
X96691771Y-66052015D01*
X96671129Y-66035381D01*
X96085653Y-65449905D01*
X96052168Y-65388582D01*
X96056678Y-65325511D01*
X96055161Y-65325051D01*
X96056925Y-65319230D01*
X96056930Y-65319220D01*
X96097300Y-65116265D01*
X96097300Y-64909335D01*
X96056930Y-64706380D01*
X95977741Y-64515202D01*
X95862777Y-64343145D01*
X95862775Y-64343142D01*
X95716457Y-64196824D01*
X95610086Y-64125750D01*
X95544398Y-64081859D01*
X95527841Y-64075001D01*
X95353220Y-64002670D01*
X95353212Y-64002668D01*
X95150269Y-63962300D01*
X95150265Y-63962300D01*
X94943335Y-63962300D01*
X94943330Y-63962300D01*
X94740387Y-64002668D01*
X94740379Y-64002670D01*
X94549203Y-64081858D01*
X94377142Y-64196824D01*
X94230824Y-64343142D01*
X94115858Y-64515203D01*
X94036670Y-64706379D01*
X94036668Y-64706387D01*
X93996300Y-64909330D01*
X93996300Y-65116269D01*
X94036668Y-65319212D01*
X94036670Y-65319220D01*
X94115858Y-65510396D01*
X94230824Y-65682457D01*
X94377142Y-65828775D01*
X94377145Y-65828777D01*
X94549202Y-65943741D01*
X94740380Y-66022930D01*
X94943330Y-66063299D01*
X94943334Y-66063300D01*
X94943335Y-66063300D01*
X95150266Y-66063300D01*
X95150267Y-66063299D01*
X95353220Y-66022930D01*
X95353230Y-66022925D01*
X95359051Y-66021161D01*
X95359787Y-66023589D01*
X95418236Y-66017303D01*
X95480716Y-66048576D01*
X95483905Y-66051653D01*
X96269937Y-66837685D01*
X96366963Y-66893703D01*
X96475182Y-66922700D01*
X96587219Y-66922700D01*
X97378626Y-66922700D01*
X97445665Y-66942385D01*
X97491420Y-66995189D01*
X97501364Y-67064347D01*
X97472339Y-67127903D01*
X97447516Y-67149802D01*
X97377149Y-67196819D01*
X97377141Y-67196825D01*
X97230824Y-67343142D01*
X97115858Y-67515203D01*
X97036670Y-67706379D01*
X97036668Y-67706387D01*
X96996300Y-67909330D01*
X96996300Y-68116269D01*
X97036668Y-68319212D01*
X97036670Y-68319220D01*
X97115858Y-68510396D01*
X97230824Y-68682457D01*
X97377141Y-68828774D01*
X97377149Y-68828780D01*
X97396631Y-68841798D01*
X97441437Y-68895410D01*
X97450144Y-68964735D01*
X97419990Y-69027762D01*
X97360547Y-69064482D01*
X97327741Y-69068900D01*
X96756010Y-69068900D01*
X96688971Y-69049215D01*
X96668329Y-69032581D01*
X96085653Y-68449905D01*
X96052168Y-68388582D01*
X96056678Y-68325511D01*
X96055161Y-68325051D01*
X96056925Y-68319230D01*
X96056930Y-68319220D01*
X96097300Y-68116265D01*
X96097300Y-67909335D01*
X96056930Y-67706380D01*
X95977741Y-67515202D01*
X95862777Y-67343145D01*
X95862776Y-67343144D01*
X95862775Y-67343142D01*
X95716457Y-67196824D01*
X95609378Y-67125277D01*
X95544398Y-67081859D01*
X95353220Y-67002670D01*
X95353212Y-67002668D01*
X95150269Y-66962300D01*
X95150265Y-66962300D01*
X94943335Y-66962300D01*
X94943330Y-66962300D01*
X94740387Y-67002668D01*
X94740379Y-67002670D01*
X94549203Y-67081858D01*
X94377142Y-67196824D01*
X94230824Y-67343142D01*
X94115858Y-67515203D01*
X94036670Y-67706379D01*
X94036668Y-67706387D01*
X93996300Y-67909330D01*
X93996300Y-68116269D01*
X94036668Y-68319212D01*
X94036670Y-68319220D01*
X94115858Y-68510396D01*
X94230824Y-68682457D01*
X94377142Y-68828775D01*
X94377145Y-68828777D01*
X94549202Y-68943741D01*
X94740380Y-69022930D01*
X94943330Y-69063299D01*
X94943334Y-69063300D01*
X94943335Y-69063300D01*
X95150266Y-69063300D01*
X95150267Y-69063299D01*
X95353220Y-69022930D01*
X95353230Y-69022925D01*
X95359051Y-69021161D01*
X95359787Y-69023589D01*
X95418236Y-69017303D01*
X95480716Y-69048576D01*
X95483905Y-69051653D01*
X96267137Y-69834885D01*
X96364163Y-69890903D01*
X96472382Y-69919900D01*
X96584419Y-69919900D01*
X97382817Y-69919900D01*
X97449856Y-69939585D01*
X97495611Y-69992389D01*
X97505555Y-70061547D01*
X97476530Y-70125103D01*
X97451708Y-70147001D01*
X97431095Y-70160774D01*
X97377142Y-70196824D01*
X97230824Y-70343142D01*
X97115858Y-70515203D01*
X97036670Y-70706379D01*
X97036668Y-70706387D01*
X96996300Y-70909330D01*
X96996300Y-71116269D01*
X97036668Y-71319212D01*
X97036670Y-71319220D01*
X97115856Y-71510392D01*
X97115859Y-71510398D01*
X97161836Y-71579208D01*
X97230824Y-71682457D01*
X97351986Y-71803619D01*
X97385471Y-71864942D01*
X97380487Y-71934634D01*
X97338615Y-71990567D01*
X97273151Y-72014984D01*
X97264305Y-72015300D01*
X96702410Y-72015300D01*
X96635371Y-71995615D01*
X96614729Y-71978981D01*
X96085653Y-71449905D01*
X96052168Y-71388582D01*
X96056678Y-71325511D01*
X96055161Y-71325051D01*
X96056925Y-71319230D01*
X96056930Y-71319220D01*
X96097300Y-71116265D01*
X96097300Y-70909335D01*
X96056930Y-70706380D01*
X95977741Y-70515202D01*
X95862777Y-70343145D01*
X95862775Y-70343142D01*
X95716457Y-70196824D01*
X95561657Y-70093391D01*
X95544398Y-70081859D01*
X95503535Y-70064933D01*
X95353220Y-70002670D01*
X95353212Y-70002668D01*
X95150269Y-69962300D01*
X95150265Y-69962300D01*
X94943335Y-69962300D01*
X94943330Y-69962300D01*
X94740387Y-70002668D01*
X94740379Y-70002670D01*
X94549203Y-70081858D01*
X94377142Y-70196824D01*
X94230824Y-70343142D01*
X94115858Y-70515203D01*
X94036670Y-70706379D01*
X94036668Y-70706387D01*
X93996300Y-70909330D01*
X93996300Y-71116269D01*
X94036668Y-71319212D01*
X94036670Y-71319220D01*
X94115856Y-71510392D01*
X94115859Y-71510398D01*
X94161836Y-71579208D01*
X94230824Y-71682457D01*
X94377142Y-71828775D01*
X94377145Y-71828777D01*
X94549202Y-71943741D01*
X94740380Y-72022930D01*
X94943330Y-72063299D01*
X94943334Y-72063300D01*
X94943335Y-72063300D01*
X95150266Y-72063300D01*
X95150267Y-72063299D01*
X95353220Y-72022930D01*
X95353230Y-72022925D01*
X95359051Y-72021161D01*
X95359787Y-72023589D01*
X95418236Y-72017303D01*
X95480716Y-72048576D01*
X95483905Y-72051653D01*
X96134315Y-72702063D01*
X96213537Y-72781285D01*
X96310563Y-72837303D01*
X96418782Y-72866300D01*
X97463035Y-72866300D01*
X97530074Y-72885985D01*
X97575829Y-72938789D01*
X97585773Y-73007947D01*
X97556748Y-73071503D01*
X97531925Y-73093402D01*
X97377149Y-73196819D01*
X97377141Y-73196825D01*
X97230824Y-73343142D01*
X97115858Y-73515203D01*
X97036670Y-73706379D01*
X97036668Y-73706387D01*
X96996300Y-73909330D01*
X96996300Y-74116269D01*
X97036668Y-74319212D01*
X97036670Y-74319220D01*
X97115858Y-74510396D01*
X97230824Y-74682457D01*
X97377142Y-74828775D01*
X97377145Y-74828777D01*
X97549202Y-74943741D01*
X97740380Y-75022930D01*
X97943330Y-75063299D01*
X97943334Y-75063300D01*
X97943335Y-75063300D01*
X98150266Y-75063300D01*
X98150267Y-75063299D01*
X98353220Y-75022930D01*
X98544398Y-74943741D01*
X98716455Y-74828777D01*
X98862777Y-74682455D01*
X98977741Y-74510398D01*
X98977742Y-74510394D01*
X98977744Y-74510392D01*
X98980614Y-74505024D01*
X98982856Y-74506222D01*
X99019713Y-74460462D01*
X99086001Y-74438380D01*
X99090459Y-74438300D01*
X100404505Y-74438300D01*
X100471544Y-74457985D01*
X100492186Y-74474619D01*
X107879375Y-81861808D01*
X107976401Y-81917826D01*
X108084620Y-81946823D01*
X108196656Y-81946823D01*
X111977028Y-81946823D01*
X112044067Y-81966508D01*
X112064709Y-81983142D01*
X115245375Y-85163808D01*
X115342401Y-85219826D01*
X115450619Y-85248823D01*
X115450620Y-85248823D01*
X130130119Y-85248823D01*
X130197158Y-85268508D01*
X130217800Y-85285142D01*
X130300092Y-85367434D01*
X130300096Y-85367437D01*
X130414820Y-85444094D01*
X130414833Y-85444101D01*
X130542305Y-85496901D01*
X130542310Y-85496903D01*
X130542314Y-85496903D01*
X130542315Y-85496904D01*
X130677642Y-85523823D01*
X130677645Y-85523823D01*
X130815633Y-85523823D01*
X130906679Y-85505712D01*
X130950966Y-85496903D01*
X131049562Y-85456063D01*
X131078442Y-85444101D01*
X131078442Y-85444100D01*
X131078449Y-85444098D01*
X131193180Y-85367437D01*
X131290752Y-85269865D01*
X131367413Y-85155134D01*
X131420218Y-85027651D01*
X131447138Y-84892316D01*
X131447138Y-84754330D01*
X131447138Y-84754327D01*
X131420219Y-84619000D01*
X131420218Y-84618999D01*
X131420218Y-84618995D01*
X131420216Y-84618990D01*
X131367416Y-84491518D01*
X131367412Y-84491511D01*
X131363317Y-84485382D01*
X131295716Y-84384211D01*
X131274840Y-84317537D01*
X131293324Y-84250157D01*
X131295686Y-84246479D01*
X131367413Y-84139134D01*
X131420218Y-84011651D01*
X131429027Y-83967364D01*
X131447138Y-83876318D01*
X131447138Y-83738327D01*
X131420219Y-83603000D01*
X131420218Y-83602999D01*
X131420218Y-83602995D01*
X131420216Y-83602990D01*
X131367416Y-83475518D01*
X131367412Y-83475511D01*
X131295716Y-83368211D01*
X131274840Y-83301537D01*
X131293324Y-83234157D01*
X131295686Y-83230479D01*
X131367413Y-83123134D01*
X131420218Y-82995651D01*
X131447138Y-82860316D01*
X131447138Y-82722330D01*
X131447138Y-82722327D01*
X131420219Y-82587000D01*
X131420218Y-82586999D01*
X131420218Y-82586995D01*
X131395640Y-82527658D01*
X131367416Y-82459518D01*
X131367409Y-82459505D01*
X131290207Y-82343965D01*
X131269329Y-82277288D01*
X131287813Y-82209908D01*
X131290207Y-82206183D01*
X131290752Y-82205368D01*
X131367413Y-82090637D01*
X131420218Y-81963154D01*
X131447138Y-81827819D01*
X131447138Y-81689833D01*
X131447138Y-81689830D01*
X131420219Y-81554503D01*
X131420218Y-81554502D01*
X131420218Y-81554498D01*
X131420216Y-81554493D01*
X131367416Y-81427021D01*
X131367409Y-81427008D01*
X131301230Y-81327965D01*
X131280352Y-81261288D01*
X131298836Y-81193908D01*
X131301203Y-81190223D01*
X131367413Y-81091134D01*
X131420218Y-80963651D01*
X131439953Y-80864436D01*
X131447138Y-80828318D01*
X131447138Y-80690327D01*
X131420219Y-80555000D01*
X131420218Y-80554999D01*
X131420218Y-80554995D01*
X131420216Y-80554990D01*
X131367416Y-80427518D01*
X131367409Y-80427505D01*
X131290752Y-80312781D01*
X131290749Y-80312777D01*
X131189976Y-80212004D01*
X131156491Y-80150681D01*
X131161475Y-80080989D01*
X131189976Y-80036642D01*
X131290749Y-79935868D01*
X131290752Y-79935865D01*
X131367413Y-79821134D01*
X131420218Y-79693651D01*
X131444148Y-79573348D01*
X131447138Y-79558318D01*
X131447138Y-79420327D01*
X131420219Y-79285000D01*
X131420218Y-79284999D01*
X131420218Y-79284995D01*
X131373298Y-79171719D01*
X131367416Y-79157518D01*
X131367409Y-79157505D01*
X131290752Y-79042781D01*
X131290749Y-79042777D01*
X131193183Y-78945211D01*
X131193179Y-78945208D01*
X131078455Y-78868551D01*
X131078442Y-78868544D01*
X130950970Y-78815744D01*
X130950960Y-78815741D01*
X130815633Y-78788823D01*
X130815631Y-78788823D01*
X130677645Y-78788823D01*
X130677643Y-78788823D01*
X130542315Y-78815741D01*
X130542305Y-78815744D01*
X130414833Y-78868544D01*
X130414820Y-78868551D01*
X130300096Y-78945208D01*
X130300092Y-78945211D01*
X130217800Y-79027504D01*
X130156477Y-79060989D01*
X130130119Y-79063823D01*
X119798248Y-79063823D01*
X119731209Y-79044138D01*
X119710567Y-79027504D01*
X116529903Y-75846840D01*
X116529901Y-75846838D01*
X116432875Y-75790820D01*
X116324656Y-75761823D01*
X116324655Y-75761823D01*
X111313527Y-75761823D01*
X111246488Y-75742138D01*
X111225846Y-75725504D01*
X110232660Y-74732318D01*
X112570937Y-74732318D01*
X112597856Y-74867645D01*
X112597859Y-74867655D01*
X112650659Y-74995127D01*
X112650666Y-74995140D01*
X112727323Y-75109864D01*
X112727326Y-75109868D01*
X112824892Y-75207434D01*
X112824896Y-75207437D01*
X112939620Y-75284094D01*
X112939633Y-75284101D01*
X113067105Y-75336901D01*
X113067110Y-75336903D01*
X113067114Y-75336903D01*
X113067115Y-75336904D01*
X113202442Y-75363823D01*
X113202445Y-75363823D01*
X113340433Y-75363823D01*
X113431479Y-75345712D01*
X113475766Y-75336903D01*
X113603249Y-75284098D01*
X113717980Y-75207437D01*
X113815552Y-75109865D01*
X113892213Y-74995134D01*
X113896139Y-74985657D01*
X113945016Y-74867655D01*
X113945018Y-74867651D01*
X113953827Y-74823364D01*
X113971938Y-74732318D01*
X113971938Y-74594327D01*
X113945019Y-74459000D01*
X113945018Y-74458999D01*
X113945018Y-74458995D01*
X113927786Y-74417393D01*
X113892216Y-74331518D01*
X113892209Y-74331505D01*
X113815552Y-74216781D01*
X113815549Y-74216777D01*
X113717983Y-74119211D01*
X113717979Y-74119208D01*
X113603255Y-74042551D01*
X113603242Y-74042544D01*
X113475770Y-73989744D01*
X113475760Y-73989741D01*
X113340433Y-73962823D01*
X113340431Y-73962823D01*
X113202445Y-73962823D01*
X113202443Y-73962823D01*
X113067115Y-73989741D01*
X113067105Y-73989744D01*
X112939633Y-74042544D01*
X112939620Y-74042551D01*
X112824896Y-74119208D01*
X112824892Y-74119211D01*
X112727326Y-74216777D01*
X112727323Y-74216781D01*
X112650666Y-74331505D01*
X112650659Y-74331518D01*
X112597859Y-74458990D01*
X112597856Y-74459000D01*
X112570938Y-74594327D01*
X112570938Y-74594330D01*
X112570938Y-74732316D01*
X112570938Y-74732318D01*
X112570937Y-74732318D01*
X110232660Y-74732318D01*
X110176261Y-74675919D01*
X106409677Y-70909335D01*
X101657058Y-66156715D01*
X101560032Y-66100697D01*
X101451813Y-66071700D01*
X101451812Y-66071700D01*
X98761668Y-66071700D01*
X98694629Y-66052015D01*
X98648874Y-65999211D01*
X98638930Y-65930053D01*
X98667955Y-65866497D01*
X98692776Y-65844598D01*
X98716455Y-65828777D01*
X98862777Y-65682455D01*
X98977741Y-65510398D01*
X99056930Y-65319220D01*
X99088465Y-65160680D01*
X99095636Y-65124632D01*
X99128021Y-65062721D01*
X99188736Y-65028147D01*
X99217253Y-65024823D01*
X101405028Y-65024823D01*
X101472067Y-65044508D01*
X101492709Y-65061142D01*
X109628953Y-73197386D01*
X109708175Y-73276608D01*
X109805201Y-73332626D01*
X109913420Y-73361623D01*
X116752228Y-73361623D01*
X116819267Y-73381308D01*
X116839909Y-73397942D01*
X120038612Y-76596644D01*
X120038622Y-76596655D01*
X120042952Y-76600985D01*
X120042953Y-76600986D01*
X120122175Y-76680208D01*
X120219201Y-76736226D01*
X120327419Y-76765223D01*
X120327420Y-76765223D01*
X120697292Y-76765223D01*
X120764331Y-76784908D01*
X120810086Y-76837712D01*
X120820030Y-76906870D01*
X120800394Y-76958114D01*
X120698285Y-77110928D01*
X120698278Y-77110941D01*
X120621356Y-77296649D01*
X120621353Y-77296661D01*
X120582138Y-77493807D01*
X120582138Y-77694838D01*
X120621353Y-77891984D01*
X120621356Y-77891996D01*
X120698278Y-78077704D01*
X120698285Y-78077717D01*
X120809963Y-78244853D01*
X120809966Y-78244857D01*
X120952103Y-78386994D01*
X120952107Y-78386997D01*
X121119243Y-78498675D01*
X121119256Y-78498682D01*
X121304964Y-78575604D01*
X121304969Y-78575606D01*
X121502122Y-78614822D01*
X121502126Y-78614823D01*
X121502127Y-78614823D01*
X121703150Y-78614823D01*
X121703151Y-78614822D01*
X121900307Y-78575606D01*
X122086026Y-78498679D01*
X122253169Y-78386997D01*
X122395312Y-78244854D01*
X122506994Y-78077711D01*
X122583921Y-77891992D01*
X122623138Y-77694834D01*
X122623138Y-77588078D01*
X122642823Y-77521039D01*
X122695627Y-77475284D01*
X122764785Y-77465340D01*
X122828341Y-77494365D01*
X122834819Y-77500397D01*
X123201066Y-77866644D01*
X123201076Y-77866655D01*
X123205406Y-77870985D01*
X123205407Y-77870986D01*
X123284629Y-77950208D01*
X123373360Y-78001437D01*
X123381655Y-78006226D01*
X123489873Y-78035223D01*
X123489874Y-78035223D01*
X134886113Y-78035223D01*
X134953152Y-78054908D01*
X134973794Y-78071542D01*
X141393770Y-84491518D01*
X146010011Y-89107758D01*
X146043496Y-89169081D01*
X146038512Y-89238773D01*
X145996640Y-89294706D01*
X145931176Y-89319123D01*
X145862903Y-89304271D01*
X145853439Y-89298541D01*
X145788617Y-89255228D01*
X145788604Y-89255221D01*
X145661132Y-89202421D01*
X145661122Y-89202418D01*
X145525795Y-89175500D01*
X145525793Y-89175500D01*
X145387807Y-89175500D01*
X145387805Y-89175500D01*
X145252477Y-89202418D01*
X145252467Y-89202421D01*
X145124995Y-89255221D01*
X145124982Y-89255228D01*
X145010258Y-89331885D01*
X145010254Y-89331888D01*
X144912688Y-89429454D01*
X144912685Y-89429458D01*
X144836028Y-89544182D01*
X144836021Y-89544195D01*
X144783221Y-89671667D01*
X144783218Y-89671677D01*
X144756300Y-89807004D01*
X144756300Y-89807007D01*
X144756300Y-89944993D01*
X144756300Y-89944995D01*
X144756299Y-89944995D01*
X144783218Y-90080322D01*
X144783221Y-90080332D01*
X144836021Y-90207804D01*
X144836028Y-90207817D01*
X144912685Y-90322541D01*
X144912688Y-90322545D01*
X145010254Y-90420111D01*
X145010258Y-90420114D01*
X145124982Y-90496771D01*
X145124995Y-90496778D01*
X145252467Y-90549578D01*
X145252472Y-90549580D01*
X145252476Y-90549580D01*
X145252477Y-90549581D01*
X145387804Y-90576500D01*
X145387807Y-90576500D01*
X145525795Y-90576500D01*
X145616841Y-90558389D01*
X145661128Y-90549580D01*
X145788611Y-90496775D01*
X145903342Y-90420114D01*
X146000914Y-90322542D01*
X146077575Y-90207811D01*
X146130380Y-90080328D01*
X146148845Y-89987498D01*
X146157300Y-89944995D01*
X146157300Y-89807004D01*
X146130381Y-89671677D01*
X146130380Y-89671676D01*
X146130380Y-89671672D01*
X146099082Y-89596112D01*
X146077578Y-89544195D01*
X146077571Y-89544182D01*
X146034258Y-89479360D01*
X146013380Y-89412683D01*
X146031864Y-89345302D01*
X146083843Y-89298612D01*
X146152813Y-89287436D01*
X146216877Y-89315321D01*
X146225041Y-89322788D01*
X148064819Y-91162566D01*
X148098304Y-91223889D01*
X148101138Y-91250247D01*
X148101138Y-95824152D01*
X148081453Y-95891191D01*
X148064819Y-95911833D01*
X146370971Y-97605681D01*
X146309648Y-97639166D01*
X146283290Y-97642000D01*
X143634919Y-97642000D01*
X143567880Y-97622315D01*
X143547238Y-97605681D01*
X143464945Y-97523388D01*
X143464941Y-97523385D01*
X143350217Y-97446728D01*
X143350204Y-97446721D01*
X143222732Y-97393921D01*
X143222722Y-97393918D01*
X143087395Y-97367000D01*
X143087393Y-97367000D01*
X142949407Y-97367000D01*
X142949405Y-97367000D01*
X142814077Y-97393918D01*
X142814067Y-97393921D01*
X142686595Y-97446721D01*
X142686582Y-97446728D01*
X142571858Y-97523385D01*
X142571854Y-97523388D01*
X142474288Y-97620954D01*
X142474283Y-97620960D01*
X142427656Y-97690742D01*
X142411490Y-97704251D01*
X142398865Y-97721117D01*
X142385219Y-97726206D01*
X142374044Y-97735546D01*
X142353140Y-97738171D01*
X142333401Y-97745534D01*
X142319169Y-97742438D01*
X142304719Y-97744253D01*
X142285714Y-97735160D01*
X142265128Y-97730682D01*
X142245246Y-97715798D01*
X142241692Y-97714098D01*
X142236874Y-97709531D01*
X142210219Y-97682876D01*
X142176734Y-97621553D01*
X142173900Y-97595195D01*
X142173900Y-96842518D01*
X142193585Y-96775479D01*
X142210214Y-96754841D01*
X142292514Y-96672542D01*
X142369175Y-96557811D01*
X142421980Y-96430328D01*
X142445313Y-96313027D01*
X142448900Y-96294995D01*
X142448900Y-96157004D01*
X142421981Y-96021677D01*
X142421980Y-96021676D01*
X142421980Y-96021672D01*
X142411240Y-95995744D01*
X142369178Y-95894195D01*
X142369171Y-95894182D01*
X142292514Y-95779458D01*
X142292511Y-95779454D01*
X142194945Y-95681888D01*
X142194941Y-95681885D01*
X142080217Y-95605228D01*
X142080204Y-95605221D01*
X141952732Y-95552421D01*
X141952722Y-95552418D01*
X141817395Y-95525500D01*
X141817393Y-95525500D01*
X141679407Y-95525500D01*
X141679405Y-95525500D01*
X141544077Y-95552418D01*
X141544067Y-95552421D01*
X141416595Y-95605221D01*
X141416582Y-95605228D01*
X141301858Y-95681885D01*
X141301854Y-95681888D01*
X141204288Y-95779454D01*
X141204285Y-95779458D01*
X141127628Y-95894182D01*
X141127621Y-95894195D01*
X141074821Y-96021667D01*
X141074818Y-96021677D01*
X141047900Y-96157004D01*
X141047900Y-96157007D01*
X141047900Y-96294993D01*
X141047900Y-96294995D01*
X141047899Y-96294995D01*
X141074818Y-96430322D01*
X141074821Y-96430332D01*
X141127621Y-96557804D01*
X141127628Y-96557817D01*
X141204284Y-96672540D01*
X141204285Y-96672541D01*
X141204286Y-96672542D01*
X141286582Y-96754838D01*
X141320066Y-96816159D01*
X141322900Y-96842518D01*
X141322900Y-97766787D01*
X141322900Y-97878823D01*
X141351897Y-97987042D01*
X141407915Y-98084068D01*
X142456832Y-99132985D01*
X142553858Y-99189003D01*
X142662077Y-99218000D01*
X142774114Y-99218000D01*
X143590781Y-99218000D01*
X143657820Y-99237685D01*
X143703575Y-99290489D01*
X143713519Y-99359647D01*
X143693883Y-99410890D01*
X143682432Y-99428028D01*
X143667625Y-99450188D01*
X143667621Y-99450195D01*
X143614821Y-99577667D01*
X143614818Y-99577677D01*
X143587900Y-99713004D01*
X143587900Y-99713007D01*
X143587900Y-99850993D01*
X143587900Y-99850995D01*
X143587899Y-99850995D01*
X143614818Y-99986322D01*
X143614821Y-99986332D01*
X143667621Y-100113804D01*
X143667628Y-100113817D01*
X143744285Y-100228541D01*
X143744288Y-100228545D01*
X143841854Y-100326111D01*
X143841858Y-100326114D01*
X143956582Y-100402771D01*
X143956595Y-100402778D01*
X144084067Y-100455578D01*
X144084072Y-100455580D01*
X144084076Y-100455580D01*
X144084077Y-100455581D01*
X144219404Y-100482500D01*
X144335790Y-100482500D01*
X144402829Y-100502185D01*
X144423471Y-100518819D01*
X144789137Y-100884485D01*
X144886163Y-100940503D01*
X144994382Y-100969500D01*
X144994384Y-100969500D01*
X151579016Y-100969500D01*
X151646055Y-100989185D01*
X151691810Y-101041989D01*
X151701754Y-101111147D01*
X151672729Y-101174703D01*
X151647907Y-101196602D01*
X151614258Y-101219085D01*
X151614254Y-101219088D01*
X151516688Y-101316654D01*
X151516685Y-101316658D01*
X151440028Y-101431382D01*
X151440021Y-101431395D01*
X151387221Y-101558867D01*
X151387218Y-101558877D01*
X151360300Y-101694204D01*
X151360300Y-101694207D01*
X151360300Y-101832193D01*
X151360300Y-101832195D01*
X151360299Y-101832195D01*
X151387218Y-101967522D01*
X151387221Y-101967532D01*
X151440021Y-102095004D01*
X151440028Y-102095017D01*
X151516685Y-102209741D01*
X151516688Y-102209745D01*
X151614254Y-102307311D01*
X151614258Y-102307314D01*
X151728982Y-102383971D01*
X151728995Y-102383978D01*
X151856467Y-102436778D01*
X151856472Y-102436780D01*
X151856476Y-102436780D01*
X151856477Y-102436781D01*
X151991804Y-102463700D01*
X151991807Y-102463700D01*
X152129795Y-102463700D01*
X152220841Y-102445589D01*
X152265128Y-102436780D01*
X152392611Y-102383975D01*
X152507342Y-102307314D01*
X152604914Y-102209742D01*
X152681575Y-102095011D01*
X152734380Y-101967528D01*
X152761300Y-101832193D01*
X152761300Y-101694207D01*
X152761300Y-101694204D01*
X152734381Y-101558877D01*
X152734380Y-101558876D01*
X152734380Y-101558872D01*
X152734378Y-101558867D01*
X152681578Y-101431395D01*
X152681571Y-101431382D01*
X152604914Y-101316658D01*
X152604911Y-101316654D01*
X152507345Y-101219088D01*
X152507341Y-101219085D01*
X152473693Y-101196602D01*
X152428888Y-101142990D01*
X152420181Y-101073665D01*
X152450336Y-101010637D01*
X152509779Y-100973918D01*
X152542584Y-100969500D01*
X174896455Y-100969500D01*
X174896457Y-100969500D01*
X175004676Y-100940503D01*
X175101702Y-100884485D01*
X179970247Y-96015940D01*
X180026265Y-95918914D01*
X180055262Y-95810695D01*
X180055262Y-95698658D01*
X180055262Y-93063809D01*
X180074947Y-92996770D01*
X180091581Y-92976128D01*
X180871130Y-92196579D01*
X188754000Y-92196579D01*
X188754000Y-92403420D01*
X188794348Y-92606266D01*
X188794350Y-92606274D01*
X188873500Y-92797358D01*
X188873505Y-92797368D01*
X188976185Y-92951037D01*
X189365948Y-92561274D01*
X189395898Y-92613147D01*
X189490853Y-92708102D01*
X189542725Y-92738050D01*
X189152961Y-93127814D01*
X189306640Y-93230499D01*
X189497725Y-93309649D01*
X189497733Y-93309651D01*
X189700579Y-93349999D01*
X189700583Y-93350000D01*
X189907417Y-93350000D01*
X189907420Y-93349999D01*
X190110266Y-93309651D01*
X190110274Y-93309649D01*
X190301359Y-93230499D01*
X190455038Y-93127814D01*
X190065275Y-92738050D01*
X190117147Y-92708102D01*
X190212102Y-92613147D01*
X190242050Y-92561274D01*
X190631814Y-92951038D01*
X190734499Y-92797359D01*
X190813649Y-92606274D01*
X190813651Y-92606266D01*
X190853999Y-92403420D01*
X190854000Y-92403417D01*
X190854000Y-92196583D01*
X190853999Y-92196579D01*
X191754000Y-92196579D01*
X191754000Y-92403420D01*
X191794348Y-92606266D01*
X191794350Y-92606274D01*
X191873500Y-92797358D01*
X191873505Y-92797368D01*
X191976185Y-92951037D01*
X192365948Y-92561274D01*
X192395898Y-92613147D01*
X192490853Y-92708102D01*
X192542725Y-92738050D01*
X192152961Y-93127814D01*
X192306640Y-93230499D01*
X192497725Y-93309649D01*
X192497733Y-93309651D01*
X192700579Y-93349999D01*
X192700583Y-93350000D01*
X192907417Y-93350000D01*
X192907420Y-93349999D01*
X193110266Y-93309651D01*
X193110274Y-93309649D01*
X193301359Y-93230499D01*
X193455038Y-93127814D01*
X193065275Y-92738050D01*
X193117147Y-92708102D01*
X193212102Y-92613147D01*
X193242050Y-92561274D01*
X193631814Y-92951038D01*
X193734499Y-92797359D01*
X193813649Y-92606274D01*
X193813651Y-92606266D01*
X193853999Y-92403420D01*
X193854000Y-92403417D01*
X193854000Y-92196583D01*
X193853999Y-92196579D01*
X193813651Y-91993733D01*
X193813649Y-91993725D01*
X193734499Y-91802640D01*
X193631814Y-91648961D01*
X193242050Y-92038724D01*
X193212102Y-91986853D01*
X193117147Y-91891898D01*
X193065274Y-91861949D01*
X193455037Y-91472185D01*
X193455037Y-91472184D01*
X193301368Y-91369505D01*
X193301358Y-91369500D01*
X193110274Y-91290350D01*
X193110266Y-91290348D01*
X192907420Y-91250000D01*
X192700579Y-91250000D01*
X192497733Y-91290348D01*
X192497725Y-91290350D01*
X192306636Y-91369502D01*
X192306635Y-91369502D01*
X192152961Y-91472183D01*
X192152961Y-91472185D01*
X192542725Y-91861949D01*
X192490853Y-91891898D01*
X192395898Y-91986853D01*
X192365949Y-92038724D01*
X191976185Y-91648961D01*
X191976183Y-91648961D01*
X191873502Y-91802635D01*
X191873502Y-91802636D01*
X191794350Y-91993725D01*
X191794348Y-91993733D01*
X191754000Y-92196579D01*
X190853999Y-92196579D01*
X190813651Y-91993733D01*
X190813649Y-91993725D01*
X190734499Y-91802640D01*
X190631814Y-91648961D01*
X190242050Y-92038724D01*
X190212102Y-91986853D01*
X190117147Y-91891898D01*
X190065274Y-91861949D01*
X190455037Y-91472185D01*
X190455037Y-91472184D01*
X190301368Y-91369505D01*
X190301358Y-91369500D01*
X190110274Y-91290350D01*
X190110266Y-91290348D01*
X189907420Y-91250000D01*
X189700579Y-91250000D01*
X189497733Y-91290348D01*
X189497725Y-91290350D01*
X189306636Y-91369502D01*
X189306635Y-91369502D01*
X189152961Y-91472183D01*
X189152961Y-91472185D01*
X189542725Y-91861949D01*
X189490853Y-91891898D01*
X189395898Y-91986853D01*
X189365949Y-92038724D01*
X188976185Y-91648961D01*
X188976183Y-91648961D01*
X188873502Y-91802635D01*
X188873502Y-91802636D01*
X188794350Y-91993725D01*
X188794348Y-91993733D01*
X188754000Y-92196579D01*
X180871130Y-92196579D01*
X183871179Y-89196530D01*
X188753500Y-89196530D01*
X188753500Y-89403469D01*
X188793868Y-89606412D01*
X188793870Y-89606420D01*
X188870605Y-89791675D01*
X188873059Y-89797598D01*
X188920183Y-89868124D01*
X188988024Y-89969657D01*
X189134342Y-90115975D01*
X189134345Y-90115977D01*
X189306402Y-90230941D01*
X189497580Y-90310130D01*
X189700530Y-90350499D01*
X189700534Y-90350500D01*
X189700535Y-90350500D01*
X189907466Y-90350500D01*
X189907467Y-90350499D01*
X190110420Y-90310130D01*
X190301598Y-90230941D01*
X190473655Y-90115977D01*
X190619977Y-89969655D01*
X190734941Y-89797598D01*
X190814130Y-89606420D01*
X190854500Y-89403465D01*
X190854500Y-89196535D01*
X190854499Y-89196530D01*
X191753500Y-89196530D01*
X191753500Y-89403469D01*
X191793868Y-89606412D01*
X191793870Y-89606420D01*
X191870605Y-89791675D01*
X191873059Y-89797598D01*
X191920183Y-89868124D01*
X191988024Y-89969657D01*
X192134342Y-90115975D01*
X192134345Y-90115977D01*
X192306402Y-90230941D01*
X192497580Y-90310130D01*
X192700530Y-90350499D01*
X192700534Y-90350500D01*
X192700535Y-90350500D01*
X192907466Y-90350500D01*
X192907467Y-90350499D01*
X193110420Y-90310130D01*
X193301598Y-90230941D01*
X193473655Y-90115977D01*
X193544374Y-90045258D01*
X195373500Y-90045258D01*
X195373500Y-90274741D01*
X195392640Y-90420114D01*
X195403452Y-90502238D01*
X195450496Y-90677812D01*
X195462842Y-90723887D01*
X195550650Y-90935876D01*
X195550654Y-90935884D01*
X195550656Y-90935888D01*
X195568399Y-90966620D01*
X195665392Y-91134617D01*
X195805081Y-91316661D01*
X195805089Y-91316670D01*
X195967330Y-91478911D01*
X195967338Y-91478918D01*
X196149382Y-91618607D01*
X196149385Y-91618608D01*
X196149388Y-91618611D01*
X196348112Y-91733344D01*
X196348117Y-91733346D01*
X196348123Y-91733349D01*
X196439480Y-91771190D01*
X196560113Y-91821158D01*
X196781762Y-91880548D01*
X197009266Y-91910500D01*
X197009273Y-91910500D01*
X197238727Y-91910500D01*
X197238734Y-91910500D01*
X197466238Y-91880548D01*
X197687887Y-91821158D01*
X197899888Y-91733344D01*
X198098612Y-91618611D01*
X198280661Y-91478919D01*
X198280665Y-91478914D01*
X198280670Y-91478911D01*
X198442911Y-91316670D01*
X198442914Y-91316665D01*
X198442919Y-91316661D01*
X198582611Y-91134612D01*
X198697344Y-90935888D01*
X198785158Y-90723887D01*
X198844548Y-90502238D01*
X198874500Y-90274734D01*
X198874500Y-90045266D01*
X198874269Y-90043515D01*
X198873057Y-90034312D01*
X198844548Y-89817762D01*
X198785158Y-89596113D01*
X198716127Y-89429458D01*
X198697349Y-89384123D01*
X198697346Y-89384117D01*
X198697344Y-89384112D01*
X198582611Y-89185388D01*
X198582608Y-89185385D01*
X198582607Y-89185382D01*
X198442918Y-89003338D01*
X198442911Y-89003330D01*
X198280670Y-88841089D01*
X198280661Y-88841081D01*
X198098617Y-88701392D01*
X197899890Y-88586657D01*
X197899876Y-88586650D01*
X197687887Y-88498842D01*
X197644897Y-88487323D01*
X197466238Y-88439452D01*
X197428215Y-88434446D01*
X197238741Y-88409500D01*
X197238734Y-88409500D01*
X197009266Y-88409500D01*
X197009258Y-88409500D01*
X196792715Y-88438009D01*
X196781762Y-88439452D01*
X196688076Y-88464554D01*
X196560112Y-88498842D01*
X196348123Y-88586650D01*
X196348109Y-88586657D01*
X196149382Y-88701392D01*
X195967338Y-88841081D01*
X195805081Y-89003338D01*
X195665392Y-89185382D01*
X195550657Y-89384109D01*
X195550650Y-89384123D01*
X195462842Y-89596112D01*
X195442596Y-89671672D01*
X195408856Y-89797596D01*
X195403453Y-89817759D01*
X195403451Y-89817770D01*
X195373500Y-90045258D01*
X193544374Y-90045258D01*
X193619977Y-89969655D01*
X193687495Y-89868607D01*
X193734940Y-89797600D01*
X193734940Y-89797599D01*
X193734941Y-89797598D01*
X193814130Y-89606420D01*
X193854500Y-89403465D01*
X193854500Y-89196535D01*
X193814130Y-88993580D01*
X193734941Y-88802402D01*
X193619977Y-88630345D01*
X193619975Y-88630342D01*
X193473657Y-88484024D01*
X193362123Y-88409500D01*
X193301598Y-88369059D01*
X193110420Y-88289870D01*
X193110412Y-88289868D01*
X192907469Y-88249500D01*
X192907465Y-88249500D01*
X192700535Y-88249500D01*
X192700530Y-88249500D01*
X192497587Y-88289868D01*
X192497579Y-88289870D01*
X192306403Y-88369058D01*
X192134342Y-88484024D01*
X191988024Y-88630342D01*
X191873058Y-88802403D01*
X191793870Y-88993579D01*
X191793868Y-88993587D01*
X191753500Y-89196530D01*
X190854499Y-89196530D01*
X190814130Y-88993580D01*
X190734941Y-88802402D01*
X190619977Y-88630345D01*
X190619975Y-88630342D01*
X190473657Y-88484024D01*
X190362123Y-88409500D01*
X190301598Y-88369059D01*
X190110420Y-88289870D01*
X190110412Y-88289868D01*
X189907469Y-88249500D01*
X189907465Y-88249500D01*
X189700535Y-88249500D01*
X189700530Y-88249500D01*
X189497587Y-88289868D01*
X189497579Y-88289870D01*
X189306403Y-88369058D01*
X189134342Y-88484024D01*
X188988024Y-88630342D01*
X188873058Y-88802403D01*
X188793870Y-88993579D01*
X188793868Y-88993587D01*
X188753500Y-89196530D01*
X183871179Y-89196530D01*
X186871179Y-86196530D01*
X188753500Y-86196530D01*
X188753500Y-86403469D01*
X188793868Y-86606412D01*
X188793870Y-86606420D01*
X188873058Y-86797596D01*
X188988024Y-86969657D01*
X189134342Y-87115975D01*
X189134345Y-87115977D01*
X189306402Y-87230941D01*
X189497580Y-87310130D01*
X189700530Y-87350499D01*
X189700534Y-87350500D01*
X189700535Y-87350500D01*
X189907466Y-87350500D01*
X189907467Y-87350499D01*
X190110420Y-87310130D01*
X190301598Y-87230941D01*
X190473655Y-87115977D01*
X190619977Y-86969655D01*
X190734941Y-86797598D01*
X190814130Y-86606420D01*
X190854500Y-86403465D01*
X190854500Y-86196535D01*
X190854499Y-86196530D01*
X191753500Y-86196530D01*
X191753500Y-86403469D01*
X191793868Y-86606412D01*
X191793870Y-86606420D01*
X191873058Y-86797596D01*
X191988024Y-86969657D01*
X192134342Y-87115975D01*
X192134345Y-87115977D01*
X192306402Y-87230941D01*
X192497580Y-87310130D01*
X192700530Y-87350499D01*
X192700534Y-87350500D01*
X192700535Y-87350500D01*
X192907466Y-87350500D01*
X192907467Y-87350499D01*
X193110420Y-87310130D01*
X193301598Y-87230941D01*
X193473655Y-87115977D01*
X193619977Y-86969655D01*
X193734941Y-86797598D01*
X193814130Y-86606420D01*
X193854500Y-86403465D01*
X193854500Y-86196535D01*
X193814130Y-85993580D01*
X193734941Y-85802402D01*
X193619977Y-85630345D01*
X193619975Y-85630342D01*
X193473658Y-85484025D01*
X193473650Y-85484019D01*
X193414294Y-85444358D01*
X193414220Y-85444310D01*
X193337696Y-85393179D01*
X193301598Y-85369059D01*
X193297682Y-85367437D01*
X193244138Y-85345258D01*
X195373500Y-85345258D01*
X195373500Y-85574741D01*
X195392404Y-85718323D01*
X195403452Y-85802238D01*
X195457396Y-86003562D01*
X195462842Y-86023887D01*
X195550650Y-86235876D01*
X195550657Y-86235890D01*
X195665392Y-86434617D01*
X195805081Y-86616661D01*
X195805089Y-86616670D01*
X195967330Y-86778911D01*
X195967338Y-86778918D01*
X196149382Y-86918607D01*
X196149385Y-86918608D01*
X196149388Y-86918611D01*
X196348112Y-87033344D01*
X196348117Y-87033346D01*
X196348123Y-87033349D01*
X196439480Y-87071190D01*
X196560113Y-87121158D01*
X196781762Y-87180548D01*
X197009266Y-87210500D01*
X197009273Y-87210500D01*
X197238727Y-87210500D01*
X197238734Y-87210500D01*
X197466238Y-87180548D01*
X197687887Y-87121158D01*
X197899888Y-87033344D01*
X198098612Y-86918611D01*
X198280661Y-86778919D01*
X198280665Y-86778914D01*
X198280670Y-86778911D01*
X198442911Y-86616670D01*
X198442914Y-86616665D01*
X198442919Y-86616661D01*
X198582611Y-86434612D01*
X198697344Y-86235888D01*
X198785158Y-86023887D01*
X198844548Y-85802238D01*
X198874500Y-85574734D01*
X198874500Y-85345266D01*
X198844548Y-85117762D01*
X198785158Y-84896113D01*
X198697344Y-84684112D01*
X198582611Y-84485388D01*
X198582608Y-84485385D01*
X198582607Y-84485382D01*
X198470954Y-84339875D01*
X198442919Y-84303339D01*
X198442918Y-84303338D01*
X198442911Y-84303330D01*
X198280670Y-84141089D01*
X198280661Y-84141081D01*
X198098617Y-84001392D01*
X197899890Y-83886657D01*
X197899876Y-83886650D01*
X197687887Y-83798842D01*
X197683237Y-83797596D01*
X197466238Y-83739452D01*
X197428215Y-83734446D01*
X197238741Y-83709500D01*
X197238734Y-83709500D01*
X197009266Y-83709500D01*
X197009258Y-83709500D01*
X196792715Y-83738009D01*
X196781762Y-83739452D01*
X196688076Y-83764554D01*
X196560112Y-83798842D01*
X196348123Y-83886650D01*
X196348109Y-83886657D01*
X196149382Y-84001392D01*
X195967338Y-84141081D01*
X195805081Y-84303338D01*
X195665392Y-84485382D01*
X195550657Y-84684109D01*
X195550650Y-84684123D01*
X195462842Y-84896112D01*
X195403453Y-85117759D01*
X195403451Y-85117770D01*
X195373500Y-85345258D01*
X193244138Y-85345258D01*
X193110420Y-85289870D01*
X193110412Y-85289868D01*
X192907469Y-85249500D01*
X192907465Y-85249500D01*
X192700535Y-85249500D01*
X192700530Y-85249500D01*
X192497587Y-85289868D01*
X192497579Y-85289870D01*
X192306403Y-85369058D01*
X192134342Y-85484024D01*
X191988024Y-85630342D01*
X191873058Y-85802403D01*
X191793870Y-85993579D01*
X191793868Y-85993587D01*
X191753500Y-86196530D01*
X190854499Y-86196530D01*
X190814130Y-85993580D01*
X190734941Y-85802402D01*
X190619977Y-85630345D01*
X190619975Y-85630342D01*
X190473657Y-85484024D01*
X190337696Y-85393179D01*
X190301598Y-85369059D01*
X190297682Y-85367437D01*
X190110420Y-85289870D01*
X190110412Y-85289868D01*
X189907469Y-85249500D01*
X189907465Y-85249500D01*
X189700535Y-85249500D01*
X189700530Y-85249500D01*
X189497587Y-85289868D01*
X189497579Y-85289870D01*
X189306403Y-85369058D01*
X189134342Y-85484024D01*
X188988024Y-85630342D01*
X188873058Y-85802403D01*
X188793870Y-85993579D01*
X188793868Y-85993587D01*
X188753500Y-86196530D01*
X186871179Y-86196530D01*
X186964947Y-86102762D01*
X186967123Y-86100586D01*
X187023141Y-86003560D01*
X187052138Y-85895341D01*
X187052138Y-85783305D01*
X187052138Y-83196530D01*
X188753500Y-83196530D01*
X188753500Y-83403469D01*
X188793868Y-83606412D01*
X188793870Y-83606420D01*
X188848973Y-83739451D01*
X188873059Y-83797598D01*
X188903456Y-83843091D01*
X188988024Y-83969657D01*
X189134342Y-84115975D01*
X189134345Y-84115977D01*
X189306402Y-84230941D01*
X189497580Y-84310130D01*
X189700404Y-84350474D01*
X189700530Y-84350499D01*
X189700534Y-84350500D01*
X189700535Y-84350500D01*
X189907466Y-84350500D01*
X189907467Y-84350499D01*
X190110420Y-84310130D01*
X190301598Y-84230941D01*
X190473655Y-84115977D01*
X190543516Y-84046116D01*
X190619976Y-83969657D01*
X190675434Y-83886657D01*
X190734941Y-83797598D01*
X190814130Y-83606420D01*
X190854500Y-83403465D01*
X190854500Y-83196535D01*
X190814130Y-82993580D01*
X190734941Y-82802402D01*
X190704538Y-82756900D01*
X191753500Y-82756900D01*
X191753500Y-83843091D01*
X191764123Y-83931562D01*
X191819639Y-84072342D01*
X191819640Y-84072344D01*
X191911077Y-84192922D01*
X191991443Y-84253865D01*
X192031658Y-84284361D01*
X192172436Y-84339876D01*
X192260901Y-84350500D01*
X193347098Y-84350499D01*
X193435564Y-84339876D01*
X193576342Y-84284361D01*
X193696922Y-84192922D01*
X193788361Y-84072342D01*
X193843876Y-83931564D01*
X193854500Y-83843099D01*
X193854499Y-82756902D01*
X193843876Y-82668436D01*
X193788361Y-82527658D01*
X193788359Y-82527655D01*
X193696922Y-82407077D01*
X193576344Y-82315640D01*
X193576342Y-82315639D01*
X193435564Y-82260124D01*
X193435561Y-82260123D01*
X193347099Y-82249500D01*
X192260908Y-82249500D01*
X192172437Y-82260123D01*
X192031657Y-82315639D01*
X192031655Y-82315640D01*
X191911077Y-82407077D01*
X191819640Y-82527655D01*
X191764124Y-82668437D01*
X191764123Y-82668438D01*
X191753500Y-82756900D01*
X190704538Y-82756900D01*
X190619977Y-82630345D01*
X190619975Y-82630342D01*
X190473657Y-82484024D01*
X190358496Y-82407077D01*
X190301598Y-82369059D01*
X190206104Y-82329504D01*
X190110420Y-82289870D01*
X190110412Y-82289868D01*
X189907469Y-82249500D01*
X189907465Y-82249500D01*
X189700535Y-82249500D01*
X189700530Y-82249500D01*
X189497587Y-82289868D01*
X189497579Y-82289870D01*
X189306403Y-82369058D01*
X189134342Y-82484024D01*
X188988024Y-82630342D01*
X188873058Y-82802403D01*
X188793870Y-82993579D01*
X188793868Y-82993587D01*
X188753500Y-83196530D01*
X187052138Y-83196530D01*
X187052138Y-80478933D01*
X187071823Y-80411894D01*
X187088457Y-80391252D01*
X188690886Y-78788823D01*
X190523122Y-76956587D01*
X190530510Y-76943792D01*
X190579141Y-76859560D01*
X190599456Y-76783743D01*
X190608138Y-76751342D01*
X190608138Y-76639305D01*
X190608138Y-69781305D01*
X190579141Y-69673086D01*
X190523123Y-69576060D01*
X190443901Y-69496838D01*
X187395901Y-66448838D01*
X187298875Y-66392820D01*
X187190656Y-66363823D01*
X172712656Y-66363823D01*
X172600619Y-66363823D01*
X172492401Y-66392820D01*
X172492399Y-66392821D01*
X172492398Y-66392821D01*
X172395378Y-66448836D01*
X172395372Y-66448840D01*
X166928709Y-71915504D01*
X166867386Y-71948989D01*
X166841028Y-71951823D01*
X163113157Y-71951823D01*
X163046118Y-71932138D01*
X163025476Y-71915504D01*
X162943183Y-71833211D01*
X162943179Y-71833208D01*
X162828455Y-71756551D01*
X162828442Y-71756544D01*
X162700970Y-71703744D01*
X162700960Y-71703741D01*
X162565633Y-71676823D01*
X162565631Y-71676823D01*
X162427645Y-71676823D01*
X162427643Y-71676823D01*
X162292315Y-71703741D01*
X162292305Y-71703744D01*
X162164833Y-71756544D01*
X162164820Y-71756551D01*
X162050096Y-71833208D01*
X162050091Y-71833212D01*
X162008863Y-71874440D01*
X161947540Y-71907925D01*
X161877848Y-71902939D01*
X161833502Y-71874439D01*
X155150580Y-65191517D01*
X155150578Y-65191515D01*
X155053552Y-65135497D01*
X155037209Y-65131118D01*
X163624937Y-65131118D01*
X163651856Y-65266445D01*
X163651859Y-65266455D01*
X163704659Y-65393927D01*
X163704666Y-65393940D01*
X163781323Y-65508664D01*
X163781326Y-65508668D01*
X163878892Y-65606234D01*
X163878896Y-65606237D01*
X163993620Y-65682894D01*
X163993633Y-65682901D01*
X164121105Y-65735701D01*
X164121110Y-65735703D01*
X164121114Y-65735703D01*
X164121115Y-65735704D01*
X164256442Y-65762623D01*
X164256445Y-65762623D01*
X164394433Y-65762623D01*
X164485479Y-65744512D01*
X164529766Y-65735703D01*
X164657249Y-65682898D01*
X164771980Y-65606237D01*
X164869552Y-65508665D01*
X164946213Y-65393934D01*
X164999018Y-65266451D01*
X165007827Y-65222164D01*
X165025938Y-65131118D01*
X165025938Y-64993127D01*
X164999019Y-64857800D01*
X164999018Y-64857799D01*
X164999018Y-64857795D01*
X164971213Y-64790668D01*
X164946216Y-64730318D01*
X164946209Y-64730305D01*
X164869552Y-64615581D01*
X164869549Y-64615577D01*
X164771983Y-64518011D01*
X164771979Y-64518008D01*
X164657255Y-64441351D01*
X164657242Y-64441344D01*
X164529770Y-64388544D01*
X164529760Y-64388541D01*
X164394433Y-64361623D01*
X164394431Y-64361623D01*
X164256445Y-64361623D01*
X164256443Y-64361623D01*
X164121115Y-64388541D01*
X164121105Y-64388544D01*
X163993633Y-64441344D01*
X163993620Y-64441351D01*
X163878896Y-64518008D01*
X163878892Y-64518011D01*
X163781326Y-64615577D01*
X163781323Y-64615581D01*
X163704666Y-64730305D01*
X163704659Y-64730318D01*
X163651859Y-64857790D01*
X163651856Y-64857800D01*
X163624938Y-64993127D01*
X163624938Y-64993130D01*
X163624938Y-65131116D01*
X163624938Y-65131118D01*
X163624937Y-65131118D01*
X155037209Y-65131118D01*
X154946499Y-65106812D01*
X154945334Y-65106500D01*
X154945333Y-65106500D01*
X154477157Y-65106500D01*
X154410118Y-65086815D01*
X154389476Y-65070181D01*
X154307183Y-64987888D01*
X154307179Y-64987885D01*
X154192455Y-64911228D01*
X154192442Y-64911221D01*
X154064970Y-64858421D01*
X154064960Y-64858418D01*
X153929633Y-64831500D01*
X153929631Y-64831500D01*
X153791645Y-64831500D01*
X153791640Y-64831500D01*
X153720867Y-64845578D01*
X153664586Y-64843737D01*
X153649979Y-64839823D01*
X139692657Y-64839823D01*
X139580620Y-64839823D01*
X139472401Y-64868820D01*
X139472398Y-64868821D01*
X139375378Y-64924836D01*
X139375372Y-64924840D01*
X132913708Y-71386504D01*
X132852385Y-71419989D01*
X132826027Y-71422823D01*
X132709643Y-71422823D01*
X132574315Y-71449741D01*
X132574305Y-71449744D01*
X132446833Y-71502544D01*
X132446820Y-71502551D01*
X132332096Y-71579208D01*
X132332092Y-71579211D01*
X132249800Y-71661504D01*
X132188477Y-71694989D01*
X132162119Y-71697823D01*
X130720248Y-71697823D01*
X130653209Y-71678138D01*
X130632567Y-71661504D01*
X124822359Y-65851296D01*
X127118138Y-65851296D01*
X127118138Y-66095349D01*
X127151349Y-66305037D01*
X127156317Y-66336399D01*
X127231734Y-66568508D01*
X127315861Y-66733618D01*
X127342534Y-66785965D01*
X127485977Y-66983399D01*
X127485981Y-66983404D01*
X127658556Y-67155979D01*
X127658561Y-67155983D01*
X127789537Y-67251142D01*
X127855999Y-67299429D01*
X128073453Y-67410227D01*
X128305562Y-67485644D01*
X128546611Y-67523823D01*
X128546612Y-67523823D01*
X128790664Y-67523823D01*
X128790665Y-67523823D01*
X129031714Y-67485644D01*
X129263823Y-67410227D01*
X129481277Y-67299429D01*
X129678721Y-67155978D01*
X129851293Y-66983406D01*
X129994744Y-66785962D01*
X130105542Y-66568508D01*
X130180959Y-66336399D01*
X130219138Y-66095350D01*
X130219138Y-65851296D01*
X130180959Y-65610247D01*
X130105542Y-65378138D01*
X129994744Y-65160684D01*
X129922423Y-65061142D01*
X129851298Y-64963246D01*
X129851294Y-64963241D01*
X129678719Y-64790666D01*
X129678714Y-64790662D01*
X129481280Y-64647219D01*
X129481279Y-64647218D01*
X129481277Y-64647217D01*
X129263823Y-64536419D01*
X129031714Y-64461002D01*
X129031712Y-64461001D01*
X129031710Y-64461001D01*
X128863407Y-64434344D01*
X128790665Y-64422823D01*
X128546611Y-64422823D01*
X128490731Y-64431673D01*
X128305565Y-64461001D01*
X128073450Y-64536420D01*
X127855995Y-64647219D01*
X127658561Y-64790662D01*
X127658556Y-64790666D01*
X127485981Y-64963241D01*
X127485977Y-64963246D01*
X127342534Y-65160680D01*
X127231735Y-65378135D01*
X127156316Y-65610250D01*
X127118138Y-65851296D01*
X124822359Y-65851296D01*
X121812266Y-62841203D01*
X133627138Y-62841203D01*
X133627138Y-63025442D01*
X133655960Y-63207417D01*
X133712891Y-63382636D01*
X133773396Y-63501382D01*
X133796537Y-63546798D01*
X133904831Y-63695852D01*
X134035109Y-63826130D01*
X134184163Y-63934424D01*
X134318098Y-64002668D01*
X134348324Y-64018069D01*
X134408485Y-64037616D01*
X134523545Y-64075001D01*
X134705518Y-64103823D01*
X134705519Y-64103823D01*
X134889757Y-64103823D01*
X134889758Y-64103823D01*
X135071731Y-64075001D01*
X135246954Y-64018068D01*
X135411113Y-63934424D01*
X135560167Y-63826130D01*
X135690445Y-63695852D01*
X135798739Y-63546798D01*
X135882383Y-63382639D01*
X135939316Y-63207416D01*
X135945165Y-63170486D01*
X135975094Y-63107353D01*
X136034405Y-63070421D01*
X136104268Y-63071419D01*
X136162501Y-63110028D01*
X136190111Y-63170487D01*
X136195960Y-63207417D01*
X136252891Y-63382636D01*
X136313396Y-63501382D01*
X136336537Y-63546798D01*
X136444831Y-63695852D01*
X136575109Y-63826130D01*
X136724163Y-63934424D01*
X136858098Y-64002668D01*
X136888324Y-64018069D01*
X136948485Y-64037616D01*
X137063545Y-64075001D01*
X137245518Y-64103823D01*
X137245519Y-64103823D01*
X137429757Y-64103823D01*
X137429758Y-64103823D01*
X137611731Y-64075001D01*
X137786954Y-64018068D01*
X137951113Y-63934424D01*
X138100167Y-63826130D01*
X138230445Y-63695852D01*
X138338739Y-63546798D01*
X138422383Y-63382639D01*
X138479316Y-63207416D01*
X138500165Y-63075780D01*
X138530094Y-63012646D01*
X138589406Y-62975715D01*
X138659268Y-62976713D01*
X138717501Y-63015323D01*
X138745111Y-63075781D01*
X138765960Y-63207417D01*
X138822891Y-63382636D01*
X138883396Y-63501382D01*
X138906537Y-63546798D01*
X139014831Y-63695852D01*
X139145109Y-63826130D01*
X139294163Y-63934424D01*
X139428098Y-64002668D01*
X139458324Y-64018069D01*
X139518485Y-64037616D01*
X139633545Y-64075001D01*
X139815518Y-64103823D01*
X139815519Y-64103823D01*
X139999757Y-64103823D01*
X139999758Y-64103823D01*
X140181731Y-64075001D01*
X140356954Y-64018068D01*
X140521113Y-63934424D01*
X140670167Y-63826130D01*
X140800445Y-63695852D01*
X140908739Y-63546798D01*
X140992383Y-63382639D01*
X141027073Y-63275874D01*
X141035207Y-63250840D01*
X141074644Y-63193165D01*
X141139002Y-63165966D01*
X141207849Y-63177880D01*
X141259325Y-63225124D01*
X141277138Y-63289158D01*
X141277138Y-63595905D01*
X141287772Y-63684458D01*
X141287772Y-63684459D01*
X141343346Y-63825384D01*
X141343912Y-63826130D01*
X141434876Y-63946085D01*
X141555579Y-64037616D01*
X141696500Y-64093188D01*
X141785056Y-64103823D01*
X143110220Y-64103823D01*
X143198776Y-64093188D01*
X143339697Y-64037616D01*
X143460400Y-63946085D01*
X143551931Y-63825382D01*
X143607503Y-63684461D01*
X143618138Y-63595905D01*
X143618138Y-62270741D01*
X143618138Y-62270740D01*
X148863138Y-62270740D01*
X148863138Y-63595905D01*
X148873772Y-63684458D01*
X148873772Y-63684459D01*
X148929346Y-63825384D01*
X148929912Y-63826130D01*
X149020876Y-63946085D01*
X149141579Y-64037616D01*
X149282500Y-64093188D01*
X149371056Y-64103823D01*
X150696220Y-64103823D01*
X150784776Y-64093188D01*
X150925697Y-64037616D01*
X151046400Y-63946085D01*
X151137931Y-63825382D01*
X151193503Y-63684461D01*
X151204138Y-63595905D01*
X151204138Y-63289158D01*
X151223823Y-63222119D01*
X151276627Y-63176364D01*
X151345785Y-63166420D01*
X151409341Y-63195445D01*
X151446069Y-63250840D01*
X151488891Y-63382636D01*
X151549396Y-63501382D01*
X151572537Y-63546798D01*
X151680831Y-63695852D01*
X151811109Y-63826130D01*
X151960163Y-63934424D01*
X152094098Y-64002668D01*
X152124324Y-64018069D01*
X152184485Y-64037616D01*
X152299545Y-64075001D01*
X152481518Y-64103823D01*
X152481519Y-64103823D01*
X152665757Y-64103823D01*
X152665758Y-64103823D01*
X152847731Y-64075001D01*
X153022954Y-64018068D01*
X153187113Y-63934424D01*
X153336167Y-63826130D01*
X153466445Y-63695852D01*
X153574739Y-63546798D01*
X153658383Y-63382639D01*
X153715316Y-63207416D01*
X153736165Y-63075780D01*
X153766094Y-63012646D01*
X153825406Y-62975715D01*
X153895268Y-62976713D01*
X153953501Y-63015323D01*
X153981111Y-63075781D01*
X154001960Y-63207417D01*
X154058891Y-63382636D01*
X154119396Y-63501382D01*
X154142537Y-63546798D01*
X154250831Y-63695852D01*
X154381109Y-63826130D01*
X154530163Y-63934424D01*
X154664098Y-64002668D01*
X154694324Y-64018069D01*
X154754485Y-64037616D01*
X154869545Y-64075001D01*
X155051518Y-64103823D01*
X155051519Y-64103823D01*
X155235757Y-64103823D01*
X155235758Y-64103823D01*
X155417731Y-64075001D01*
X155592954Y-64018068D01*
X155757113Y-63934424D01*
X155906167Y-63826130D01*
X156036445Y-63695852D01*
X156144739Y-63546798D01*
X156228383Y-63382639D01*
X156285316Y-63207416D01*
X156291165Y-63170486D01*
X156321094Y-63107353D01*
X156380405Y-63070421D01*
X156450268Y-63071419D01*
X156508501Y-63110028D01*
X156536111Y-63170487D01*
X156541960Y-63207417D01*
X156598891Y-63382636D01*
X156659396Y-63501382D01*
X156682537Y-63546798D01*
X156790831Y-63695852D01*
X156921109Y-63826130D01*
X157070163Y-63934424D01*
X157204098Y-64002668D01*
X157234324Y-64018069D01*
X157294485Y-64037616D01*
X157409545Y-64075001D01*
X157591518Y-64103823D01*
X157591519Y-64103823D01*
X157775757Y-64103823D01*
X157775758Y-64103823D01*
X157957731Y-64075001D01*
X158132954Y-64018068D01*
X158297113Y-63934424D01*
X158446167Y-63826130D01*
X158576445Y-63695852D01*
X158684739Y-63546798D01*
X158768383Y-63382639D01*
X158825316Y-63207416D01*
X158854138Y-63025443D01*
X158854138Y-62891953D01*
X164310388Y-62891953D01*
X164310388Y-63076192D01*
X164339210Y-63258167D01*
X164396141Y-63433386D01*
X164453928Y-63546798D01*
X164479787Y-63597548D01*
X164588081Y-63746602D01*
X164718359Y-63876880D01*
X164867413Y-63985174D01*
X165031572Y-64068818D01*
X165031574Y-64068819D01*
X165091735Y-64088366D01*
X165206795Y-64125751D01*
X165388768Y-64154573D01*
X165388769Y-64154573D01*
X165573007Y-64154573D01*
X165573008Y-64154573D01*
X165754981Y-64125751D01*
X165930204Y-64068818D01*
X166094363Y-63985174D01*
X166243417Y-63876880D01*
X166373695Y-63746602D01*
X166481989Y-63597548D01*
X166565633Y-63433389D01*
X166622566Y-63258166D01*
X166628415Y-63221236D01*
X166658344Y-63158103D01*
X166717655Y-63121171D01*
X166787518Y-63122169D01*
X166845751Y-63160778D01*
X166873361Y-63221237D01*
X166879210Y-63258167D01*
X166936141Y-63433386D01*
X166993928Y-63546798D01*
X167019787Y-63597548D01*
X167128081Y-63746602D01*
X167258359Y-63876880D01*
X167407413Y-63985174D01*
X167571572Y-64068818D01*
X167571574Y-64068819D01*
X167631735Y-64088366D01*
X167746795Y-64125751D01*
X167928768Y-64154573D01*
X167928769Y-64154573D01*
X168113007Y-64154573D01*
X168113008Y-64154573D01*
X168294981Y-64125751D01*
X168470204Y-64068818D01*
X168634363Y-63985174D01*
X168783417Y-63876880D01*
X168913695Y-63746602D01*
X169021989Y-63597548D01*
X169105633Y-63433389D01*
X169162566Y-63258166D01*
X169183415Y-63126530D01*
X169213344Y-63063396D01*
X169272656Y-63026465D01*
X169342518Y-63027463D01*
X169400751Y-63066073D01*
X169428361Y-63126531D01*
X169449210Y-63258167D01*
X169506141Y-63433386D01*
X169563928Y-63546798D01*
X169589787Y-63597548D01*
X169698081Y-63746602D01*
X169828359Y-63876880D01*
X169977413Y-63985174D01*
X170141572Y-64068818D01*
X170141574Y-64068819D01*
X170201735Y-64088366D01*
X170316795Y-64125751D01*
X170498768Y-64154573D01*
X170498769Y-64154573D01*
X170683007Y-64154573D01*
X170683008Y-64154573D01*
X170864981Y-64125751D01*
X171040204Y-64068818D01*
X171204363Y-63985174D01*
X171353417Y-63876880D01*
X171483695Y-63746602D01*
X171591989Y-63597548D01*
X171675633Y-63433389D01*
X171695627Y-63371853D01*
X171718457Y-63301590D01*
X171757894Y-63243915D01*
X171822252Y-63216716D01*
X171891099Y-63228630D01*
X171942575Y-63275874D01*
X171960388Y-63339908D01*
X171960388Y-63646655D01*
X171971022Y-63735208D01*
X171971022Y-63735209D01*
X172026596Y-63876134D01*
X172027162Y-63876880D01*
X172118126Y-63996835D01*
X172238829Y-64088366D01*
X172379750Y-64143938D01*
X172468306Y-64154573D01*
X173793470Y-64154573D01*
X173882026Y-64143938D01*
X174022947Y-64088366D01*
X174143650Y-63996835D01*
X174235181Y-63876132D01*
X174290753Y-63735211D01*
X174301388Y-63646655D01*
X174301388Y-62321491D01*
X174290753Y-62232935D01*
X174235181Y-62092014D01*
X174234615Y-62091268D01*
X174196694Y-62041261D01*
X174143650Y-61971311D01*
X174048723Y-61899326D01*
X174022949Y-61879781D01*
X174022947Y-61879780D01*
X173928145Y-61842395D01*
X173882024Y-61824207D01*
X173793470Y-61813573D01*
X172468306Y-61813573D01*
X172379752Y-61824207D01*
X172379751Y-61824207D01*
X172238826Y-61879781D01*
X172118126Y-61971311D01*
X172026596Y-62092011D01*
X171971022Y-62232936D01*
X171971022Y-62232937D01*
X171960388Y-62321490D01*
X171960388Y-62628237D01*
X171940703Y-62695276D01*
X171887899Y-62741031D01*
X171818741Y-62750975D01*
X171755185Y-62721950D01*
X171718457Y-62666555D01*
X171675634Y-62534759D01*
X171661699Y-62507410D01*
X171591989Y-62370598D01*
X171483695Y-62221544D01*
X171353417Y-62091266D01*
X171204363Y-61982972D01*
X171181477Y-61971311D01*
X171040201Y-61899326D01*
X170864982Y-61842395D01*
X170750154Y-61824208D01*
X170683008Y-61813573D01*
X170498768Y-61813573D01*
X170438110Y-61823180D01*
X170316793Y-61842395D01*
X170141574Y-61899326D01*
X169977412Y-61982972D01*
X169898210Y-62040516D01*
X169828359Y-62091266D01*
X169828357Y-62091268D01*
X169828356Y-62091268D01*
X169698083Y-62221541D01*
X169698083Y-62221542D01*
X169698081Y-62221544D01*
X169689804Y-62232937D01*
X169589787Y-62370597D01*
X169506141Y-62534759D01*
X169449210Y-62709978D01*
X169428361Y-62841614D01*
X169398432Y-62904749D01*
X169339120Y-62941680D01*
X169269258Y-62940682D01*
X169211025Y-62902072D01*
X169183415Y-62841614D01*
X169181381Y-62828775D01*
X169162566Y-62709980D01*
X169120157Y-62579457D01*
X169105634Y-62534759D01*
X169091699Y-62507410D01*
X169021989Y-62370598D01*
X168913695Y-62221544D01*
X168783417Y-62091266D01*
X168634363Y-61982972D01*
X168611477Y-61971311D01*
X168470201Y-61899326D01*
X168294982Y-61842395D01*
X168180154Y-61824208D01*
X168113008Y-61813573D01*
X167928768Y-61813573D01*
X167868110Y-61823180D01*
X167746793Y-61842395D01*
X167571574Y-61899326D01*
X167407412Y-61982972D01*
X167328210Y-62040516D01*
X167258359Y-62091266D01*
X167258357Y-62091268D01*
X167258356Y-62091268D01*
X167128083Y-62221541D01*
X167128083Y-62221542D01*
X167128081Y-62221544D01*
X167119804Y-62232937D01*
X167019787Y-62370597D01*
X166936141Y-62534759D01*
X166879210Y-62709978D01*
X166873361Y-62746908D01*
X166843432Y-62810043D01*
X166784120Y-62846974D01*
X166714258Y-62845976D01*
X166656025Y-62807366D01*
X166628415Y-62746908D01*
X166627484Y-62741031D01*
X166622566Y-62709980D01*
X166580157Y-62579457D01*
X166565634Y-62534759D01*
X166551699Y-62507410D01*
X166481989Y-62370598D01*
X166373695Y-62221544D01*
X166243417Y-62091266D01*
X166094363Y-61982972D01*
X166071477Y-61971311D01*
X165930201Y-61899326D01*
X165754982Y-61842395D01*
X165640154Y-61824208D01*
X165573008Y-61813573D01*
X165388768Y-61813573D01*
X165328110Y-61823180D01*
X165206793Y-61842395D01*
X165031574Y-61899326D01*
X164867412Y-61982972D01*
X164788210Y-62040516D01*
X164718359Y-62091266D01*
X164718357Y-62091268D01*
X164718356Y-62091268D01*
X164588083Y-62221541D01*
X164588083Y-62221542D01*
X164588081Y-62221544D01*
X164579804Y-62232937D01*
X164479787Y-62370597D01*
X164396141Y-62534759D01*
X164339210Y-62709978D01*
X164310388Y-62891953D01*
X158854138Y-62891953D01*
X158854138Y-62841203D01*
X158825316Y-62659230D01*
X158768383Y-62484007D01*
X158684739Y-62319848D01*
X158576445Y-62170794D01*
X158446167Y-62040516D01*
X158297113Y-61932222D01*
X158252193Y-61909334D01*
X158132951Y-61848576D01*
X157957732Y-61791645D01*
X157842904Y-61773458D01*
X157775758Y-61762823D01*
X157591518Y-61762823D01*
X157530860Y-61772430D01*
X157409543Y-61791645D01*
X157234324Y-61848576D01*
X157070162Y-61932222D01*
X156985122Y-61994007D01*
X156921109Y-62040516D01*
X156921107Y-62040518D01*
X156921106Y-62040518D01*
X156790833Y-62170791D01*
X156790833Y-62170792D01*
X156790831Y-62170794D01*
X156744322Y-62234807D01*
X156682537Y-62319847D01*
X156598891Y-62484009D01*
X156541960Y-62659228D01*
X156536111Y-62696158D01*
X156506182Y-62759293D01*
X156446870Y-62796224D01*
X156377008Y-62795226D01*
X156318775Y-62756616D01*
X156291165Y-62696158D01*
X156288995Y-62682457D01*
X156285316Y-62659230D01*
X156228383Y-62484007D01*
X156144739Y-62319848D01*
X156036445Y-62170794D01*
X155906167Y-62040516D01*
X155757113Y-61932222D01*
X155712193Y-61909334D01*
X155592951Y-61848576D01*
X155417732Y-61791645D01*
X155302904Y-61773458D01*
X155235758Y-61762823D01*
X155051518Y-61762823D01*
X154990860Y-61772430D01*
X154869543Y-61791645D01*
X154694324Y-61848576D01*
X154530162Y-61932222D01*
X154445122Y-61994007D01*
X154381109Y-62040516D01*
X154381107Y-62040518D01*
X154381106Y-62040518D01*
X154250833Y-62170791D01*
X154250833Y-62170792D01*
X154250831Y-62170794D01*
X154204322Y-62234807D01*
X154142537Y-62319847D01*
X154058891Y-62484009D01*
X154001960Y-62659228D01*
X153981111Y-62790864D01*
X153951182Y-62853999D01*
X153891870Y-62890930D01*
X153822008Y-62889932D01*
X153763775Y-62851322D01*
X153736165Y-62790864D01*
X153715316Y-62659230D01*
X153658383Y-62484007D01*
X153574739Y-62319848D01*
X153466445Y-62170794D01*
X153336167Y-62040516D01*
X153187113Y-61932222D01*
X153142193Y-61909334D01*
X153022951Y-61848576D01*
X152847732Y-61791645D01*
X152732904Y-61773458D01*
X152665758Y-61762823D01*
X152481518Y-61762823D01*
X152420860Y-61772430D01*
X152299543Y-61791645D01*
X152124324Y-61848576D01*
X151960162Y-61932222D01*
X151875122Y-61994007D01*
X151811109Y-62040516D01*
X151811107Y-62040518D01*
X151811106Y-62040518D01*
X151680833Y-62170791D01*
X151680833Y-62170792D01*
X151680831Y-62170794D01*
X151634322Y-62234807D01*
X151572537Y-62319847D01*
X151488891Y-62484009D01*
X151446069Y-62615805D01*
X151406632Y-62673480D01*
X151342273Y-62700679D01*
X151273427Y-62688765D01*
X151221951Y-62641521D01*
X151204138Y-62577487D01*
X151204138Y-62270740D01*
X151198230Y-62221544D01*
X151193503Y-62182185D01*
X151137931Y-62041264D01*
X151137365Y-62040518D01*
X151103491Y-61995848D01*
X151046400Y-61920561D01*
X150964147Y-61858187D01*
X150925699Y-61829031D01*
X150925697Y-61829030D01*
X150830895Y-61791645D01*
X150784774Y-61773457D01*
X150696220Y-61762823D01*
X149371056Y-61762823D01*
X149282502Y-61773457D01*
X149282501Y-61773457D01*
X149141576Y-61829031D01*
X149020876Y-61920561D01*
X148929346Y-62041261D01*
X148873772Y-62182186D01*
X148873772Y-62182187D01*
X148863138Y-62270740D01*
X143618138Y-62270740D01*
X143607503Y-62182185D01*
X143551931Y-62041264D01*
X143551365Y-62040518D01*
X143517491Y-61995848D01*
X143460400Y-61920561D01*
X143378147Y-61858187D01*
X143339699Y-61829031D01*
X143339697Y-61829030D01*
X143244895Y-61791645D01*
X143198774Y-61773457D01*
X143110220Y-61762823D01*
X141785056Y-61762823D01*
X141696502Y-61773457D01*
X141696501Y-61773457D01*
X141555576Y-61829031D01*
X141434876Y-61920561D01*
X141343346Y-62041261D01*
X141287772Y-62182186D01*
X141287772Y-62182187D01*
X141277138Y-62270740D01*
X141277138Y-62577487D01*
X141257453Y-62644526D01*
X141204649Y-62690281D01*
X141135491Y-62700225D01*
X141071935Y-62671200D01*
X141035207Y-62615805D01*
X140992384Y-62484009D01*
X140986257Y-62471985D01*
X140908739Y-62319848D01*
X140800445Y-62170794D01*
X140670167Y-62040516D01*
X140521113Y-61932222D01*
X140476193Y-61909334D01*
X140356951Y-61848576D01*
X140181732Y-61791645D01*
X140066904Y-61773458D01*
X139999758Y-61762823D01*
X139815518Y-61762823D01*
X139754860Y-61772430D01*
X139633543Y-61791645D01*
X139458324Y-61848576D01*
X139294162Y-61932222D01*
X139209122Y-61994007D01*
X139145109Y-62040516D01*
X139145107Y-62040518D01*
X139145106Y-62040518D01*
X139014833Y-62170791D01*
X139014833Y-62170792D01*
X139014831Y-62170794D01*
X138968322Y-62234807D01*
X138906537Y-62319847D01*
X138822891Y-62484009D01*
X138765960Y-62659228D01*
X138745111Y-62790864D01*
X138715182Y-62853999D01*
X138655870Y-62890930D01*
X138586008Y-62889932D01*
X138527775Y-62851322D01*
X138500165Y-62790864D01*
X138479316Y-62659230D01*
X138422383Y-62484007D01*
X138338739Y-62319848D01*
X138230445Y-62170794D01*
X138100167Y-62040516D01*
X137951113Y-61932222D01*
X137906193Y-61909334D01*
X137786951Y-61848576D01*
X137611732Y-61791645D01*
X137496904Y-61773458D01*
X137429758Y-61762823D01*
X137245518Y-61762823D01*
X137184860Y-61772430D01*
X137063543Y-61791645D01*
X136888324Y-61848576D01*
X136724162Y-61932222D01*
X136639122Y-61994007D01*
X136575109Y-62040516D01*
X136575107Y-62040518D01*
X136575106Y-62040518D01*
X136444833Y-62170791D01*
X136444833Y-62170792D01*
X136444831Y-62170794D01*
X136398322Y-62234807D01*
X136336537Y-62319847D01*
X136252891Y-62484009D01*
X136195960Y-62659228D01*
X136190111Y-62696158D01*
X136160182Y-62759293D01*
X136100870Y-62796224D01*
X136031008Y-62795226D01*
X135972775Y-62756616D01*
X135945165Y-62696158D01*
X135942995Y-62682457D01*
X135939316Y-62659230D01*
X135882383Y-62484007D01*
X135798739Y-62319848D01*
X135690445Y-62170794D01*
X135560167Y-62040516D01*
X135411113Y-61932222D01*
X135366193Y-61909334D01*
X135246951Y-61848576D01*
X135071732Y-61791645D01*
X134956904Y-61773458D01*
X134889758Y-61762823D01*
X134705518Y-61762823D01*
X134644860Y-61772430D01*
X134523543Y-61791645D01*
X134348324Y-61848576D01*
X134184162Y-61932222D01*
X134099122Y-61994007D01*
X134035109Y-62040516D01*
X134035107Y-62040518D01*
X134035106Y-62040518D01*
X133904833Y-62170791D01*
X133904833Y-62170792D01*
X133904831Y-62170794D01*
X133858322Y-62234807D01*
X133796537Y-62319847D01*
X133712891Y-62484009D01*
X133655960Y-62659228D01*
X133627138Y-62841203D01*
X121812266Y-62841203D01*
X117799903Y-58828840D01*
X117799901Y-58828838D01*
X117702875Y-58772820D01*
X117594656Y-58743823D01*
X96512656Y-58743823D01*
X96400620Y-58743823D01*
X96292401Y-58772820D01*
X96292398Y-58772821D01*
X96195378Y-58828836D01*
X96195372Y-58828840D01*
X94706317Y-60317895D01*
X94706313Y-60317901D01*
X94650298Y-60414921D01*
X94650297Y-60414924D01*
X94621300Y-60523143D01*
X94621300Y-60969141D01*
X94601615Y-61036180D01*
X94553820Y-61077594D01*
X94554567Y-61078992D01*
X94549194Y-61081863D01*
X94377144Y-61196822D01*
X94230824Y-61343142D01*
X94115858Y-61515203D01*
X94036670Y-61706379D01*
X94036668Y-61706387D01*
X93996300Y-61909330D01*
X85527138Y-61909330D01*
X85527138Y-53900711D01*
X88290300Y-53900711D01*
X88290300Y-54143288D01*
X88321961Y-54383785D01*
X88384747Y-54618104D01*
X88477573Y-54842205D01*
X88477576Y-54842212D01*
X88598864Y-55052289D01*
X88598866Y-55052292D01*
X88598867Y-55052293D01*
X88746533Y-55244736D01*
X88746539Y-55244743D01*
X88918056Y-55416260D01*
X88918063Y-55416266D01*
X88947605Y-55438934D01*
X89110511Y-55563936D01*
X89320588Y-55685224D01*
X89544700Y-55778054D01*
X89779011Y-55840838D01*
X89959386Y-55864584D01*
X90019511Y-55872500D01*
X90019512Y-55872500D01*
X90262089Y-55872500D01*
X90310188Y-55866167D01*
X90502589Y-55840838D01*
X90736900Y-55778054D01*
X90961012Y-55685224D01*
X91171089Y-55563936D01*
X91363538Y-55416265D01*
X91535065Y-55244738D01*
X91682736Y-55052289D01*
X91804024Y-54842212D01*
X91896854Y-54618100D01*
X91959638Y-54383789D01*
X91991300Y-54143288D01*
X91991300Y-53900712D01*
X91990067Y-53891343D01*
X91985099Y-53853605D01*
X91983502Y-53841472D01*
X104475138Y-53841472D01*
X104475138Y-54097173D01*
X104490812Y-54216222D01*
X104508512Y-54350663D01*
X104574688Y-54597635D01*
X104574691Y-54597645D01*
X104672532Y-54833854D01*
X104672537Y-54833865D01*
X104800372Y-55055280D01*
X104800383Y-55055296D01*
X104956026Y-55258134D01*
X104956032Y-55258141D01*
X105136819Y-55438928D01*
X105136825Y-55438933D01*
X105339673Y-55594584D01*
X105339680Y-55594588D01*
X105561095Y-55722423D01*
X105561100Y-55722425D01*
X105561103Y-55722427D01*
X105658896Y-55762934D01*
X105781417Y-55813684D01*
X105797325Y-55820273D01*
X106044298Y-55886449D01*
X106297795Y-55919823D01*
X106297802Y-55919823D01*
X106553474Y-55919823D01*
X106553481Y-55919823D01*
X106806978Y-55886449D01*
X107053951Y-55820273D01*
X107290173Y-55722427D01*
X107511603Y-55594584D01*
X107714451Y-55438933D01*
X107895248Y-55258136D01*
X108050899Y-55055288D01*
X108178742Y-54833858D01*
X108276588Y-54597636D01*
X108342764Y-54350663D01*
X108376138Y-54097166D01*
X108376138Y-53841480D01*
X108376137Y-53841472D01*
X109555138Y-53841472D01*
X109555138Y-54097173D01*
X109570812Y-54216222D01*
X109588512Y-54350663D01*
X109654688Y-54597635D01*
X109654691Y-54597645D01*
X109752532Y-54833854D01*
X109752537Y-54833865D01*
X109880372Y-55055280D01*
X109880383Y-55055296D01*
X110036026Y-55258134D01*
X110036032Y-55258141D01*
X110216819Y-55438928D01*
X110216825Y-55438933D01*
X110419673Y-55594584D01*
X110419680Y-55594588D01*
X110641095Y-55722423D01*
X110641100Y-55722425D01*
X110641103Y-55722427D01*
X110738896Y-55762934D01*
X110861417Y-55813684D01*
X110877325Y-55820273D01*
X111124298Y-55886449D01*
X111377795Y-55919823D01*
X111377802Y-55919823D01*
X111633474Y-55919823D01*
X111633481Y-55919823D01*
X111886978Y-55886449D01*
X112133951Y-55820273D01*
X112370173Y-55722427D01*
X112591603Y-55594584D01*
X112794451Y-55438933D01*
X112975248Y-55258136D01*
X113130899Y-55055288D01*
X113258742Y-54833858D01*
X113356588Y-54597636D01*
X113422764Y-54350663D01*
X113456138Y-54097166D01*
X113456138Y-53841480D01*
X113425046Y-53605318D01*
X114818138Y-53605318D01*
X114818138Y-53841327D01*
X114818139Y-53841343D01*
X114834120Y-53962734D01*
X114848945Y-54075337D01*
X114873097Y-54165472D01*
X114910032Y-54303316D01*
X115000352Y-54521368D01*
X115000357Y-54521379D01*
X115044384Y-54597635D01*
X115118365Y-54725773D01*
X115118367Y-54725776D01*
X115118368Y-54725777D01*
X115262044Y-54913020D01*
X115262050Y-54913027D01*
X115428933Y-55079910D01*
X115428939Y-55079915D01*
X115616188Y-55223596D01*
X115702784Y-55273592D01*
X115820581Y-55341603D01*
X115820586Y-55341605D01*
X115820589Y-55341607D01*
X116038645Y-55431929D01*
X116266624Y-55493016D01*
X116500627Y-55523823D01*
X116500634Y-55523823D01*
X116736642Y-55523823D01*
X116736649Y-55523823D01*
X116970652Y-55493016D01*
X117198631Y-55431929D01*
X117416687Y-55341607D01*
X117621088Y-55223596D01*
X117808337Y-55079915D01*
X117975230Y-54913022D01*
X118118911Y-54725773D01*
X118236922Y-54521372D01*
X118327244Y-54303316D01*
X118388331Y-54075337D01*
X118419138Y-53841334D01*
X118419138Y-53655318D01*
X126868138Y-53655318D01*
X126868138Y-53891327D01*
X126868139Y-53891343D01*
X126892361Y-54075333D01*
X126898945Y-54125337D01*
X126959321Y-54350661D01*
X126960032Y-54353316D01*
X127050352Y-54571368D01*
X127050357Y-54571379D01*
X127109988Y-54674661D01*
X127168365Y-54775773D01*
X127168367Y-54775776D01*
X127168368Y-54775777D01*
X127312044Y-54963020D01*
X127312050Y-54963027D01*
X127478933Y-55129910D01*
X127478939Y-55129915D01*
X127666188Y-55273596D01*
X127783988Y-55341608D01*
X127870581Y-55391603D01*
X127870586Y-55391605D01*
X127870589Y-55391607D01*
X128088645Y-55481929D01*
X128316624Y-55543016D01*
X128550627Y-55573823D01*
X128550634Y-55573823D01*
X128786642Y-55573823D01*
X128786649Y-55573823D01*
X129020652Y-55543016D01*
X129248631Y-55481929D01*
X129466687Y-55391607D01*
X129671088Y-55273596D01*
X129858337Y-55129915D01*
X130025230Y-54963022D01*
X130168911Y-54775773D01*
X130286922Y-54571372D01*
X130377244Y-54353316D01*
X130427577Y-54165472D01*
X131607138Y-54165472D01*
X131607138Y-54421173D01*
X131620331Y-54521379D01*
X131640512Y-54674663D01*
X131706688Y-54921635D01*
X131706691Y-54921645D01*
X131804532Y-55157854D01*
X131804537Y-55157865D01*
X131932372Y-55379280D01*
X131932383Y-55379296D01*
X132088026Y-55582134D01*
X132088032Y-55582141D01*
X132268819Y-55762928D01*
X132268826Y-55762934D01*
X132343552Y-55820273D01*
X132471673Y-55918584D01*
X132471680Y-55918588D01*
X132693095Y-56046423D01*
X132693100Y-56046425D01*
X132693103Y-56046427D01*
X132929325Y-56144273D01*
X133176298Y-56210449D01*
X133429795Y-56243823D01*
X133429802Y-56243823D01*
X133685474Y-56243823D01*
X133685481Y-56243823D01*
X133938978Y-56210449D01*
X134185951Y-56144273D01*
X134422173Y-56046427D01*
X134643603Y-55918584D01*
X134846451Y-55762933D01*
X135027248Y-55582136D01*
X135182899Y-55379288D01*
X135310742Y-55157858D01*
X135408588Y-54921636D01*
X135474764Y-54674663D01*
X135508138Y-54421166D01*
X135508138Y-54165480D01*
X135508137Y-54165472D01*
X141767138Y-54165472D01*
X141767138Y-54421173D01*
X141780331Y-54521379D01*
X141800512Y-54674663D01*
X141866688Y-54921635D01*
X141866691Y-54921645D01*
X141964532Y-55157854D01*
X141964537Y-55157865D01*
X142092372Y-55379280D01*
X142092383Y-55379296D01*
X142248026Y-55582134D01*
X142248032Y-55582141D01*
X142428819Y-55762928D01*
X142428826Y-55762934D01*
X142503552Y-55820273D01*
X142631673Y-55918584D01*
X142631680Y-55918588D01*
X142853095Y-56046423D01*
X142853100Y-56046425D01*
X142853103Y-56046427D01*
X143089325Y-56144273D01*
X143336298Y-56210449D01*
X143589795Y-56243823D01*
X143589802Y-56243823D01*
X143845474Y-56243823D01*
X143845481Y-56243823D01*
X144098978Y-56210449D01*
X144345951Y-56144273D01*
X144582173Y-56046427D01*
X144803603Y-55918584D01*
X145006451Y-55762933D01*
X145187248Y-55582136D01*
X145342899Y-55379288D01*
X145470742Y-55157858D01*
X145568588Y-54921636D01*
X145634764Y-54674663D01*
X145668138Y-54421166D01*
X145668138Y-54165480D01*
X145668137Y-54165472D01*
X146813138Y-54165472D01*
X146813138Y-54421173D01*
X146826331Y-54521379D01*
X146846512Y-54674663D01*
X146912688Y-54921635D01*
X146912691Y-54921645D01*
X147010532Y-55157854D01*
X147010537Y-55157865D01*
X147138372Y-55379280D01*
X147138383Y-55379296D01*
X147294026Y-55582134D01*
X147294032Y-55582141D01*
X147474819Y-55762928D01*
X147474826Y-55762934D01*
X147549552Y-55820273D01*
X147677673Y-55918584D01*
X147677680Y-55918588D01*
X147899095Y-56046423D01*
X147899100Y-56046425D01*
X147899103Y-56046427D01*
X148135325Y-56144273D01*
X148382298Y-56210449D01*
X148635795Y-56243823D01*
X148635802Y-56243823D01*
X148891474Y-56243823D01*
X148891481Y-56243823D01*
X149144978Y-56210449D01*
X149391951Y-56144273D01*
X149628173Y-56046427D01*
X149849603Y-55918584D01*
X150052451Y-55762933D01*
X150233248Y-55582136D01*
X150388899Y-55379288D01*
X150516742Y-55157858D01*
X150614588Y-54921636D01*
X150680764Y-54674663D01*
X150714138Y-54421166D01*
X150714138Y-54165480D01*
X150714137Y-54165472D01*
X156973138Y-54165472D01*
X156973138Y-54421173D01*
X156986331Y-54521379D01*
X157006512Y-54674663D01*
X157072688Y-54921635D01*
X157072691Y-54921645D01*
X157170532Y-55157854D01*
X157170537Y-55157865D01*
X157298372Y-55379280D01*
X157298383Y-55379296D01*
X157454026Y-55582134D01*
X157454032Y-55582141D01*
X157634819Y-55762928D01*
X157634826Y-55762934D01*
X157709552Y-55820273D01*
X157837673Y-55918584D01*
X157837680Y-55918588D01*
X158059095Y-56046423D01*
X158059100Y-56046425D01*
X158059103Y-56046427D01*
X158295325Y-56144273D01*
X158542298Y-56210449D01*
X158795795Y-56243823D01*
X158795802Y-56243823D01*
X159051474Y-56243823D01*
X159051481Y-56243823D01*
X159304978Y-56210449D01*
X159551951Y-56144273D01*
X159788173Y-56046427D01*
X160009603Y-55918584D01*
X160212451Y-55762933D01*
X160393248Y-55582136D01*
X160548899Y-55379288D01*
X160676742Y-55157858D01*
X160774588Y-54921636D01*
X160840764Y-54674663D01*
X160874138Y-54421166D01*
X160874138Y-54216222D01*
X162290388Y-54216222D01*
X162290388Y-54471923D01*
X162309634Y-54618100D01*
X162323762Y-54725413D01*
X162389938Y-54972385D01*
X162389941Y-54972395D01*
X162487782Y-55208604D01*
X162487787Y-55208615D01*
X162615622Y-55430030D01*
X162615633Y-55430046D01*
X162771276Y-55632884D01*
X162771282Y-55632891D01*
X162952069Y-55813678D01*
X162952075Y-55813683D01*
X163154923Y-55969334D01*
X163154930Y-55969338D01*
X163376345Y-56097173D01*
X163376350Y-56097175D01*
X163376353Y-56097177D01*
X163612575Y-56195023D01*
X163859548Y-56261199D01*
X164113045Y-56294573D01*
X164113052Y-56294573D01*
X164368724Y-56294573D01*
X164368731Y-56294573D01*
X164622228Y-56261199D01*
X164869201Y-56195023D01*
X165105423Y-56097177D01*
X165326853Y-55969334D01*
X165529701Y-55813683D01*
X165710498Y-55632886D01*
X165866149Y-55430038D01*
X165993992Y-55208608D01*
X166091838Y-54972386D01*
X166158014Y-54725413D01*
X166191388Y-54471916D01*
X166191388Y-54216230D01*
X166191387Y-54216222D01*
X172450388Y-54216222D01*
X172450388Y-54471923D01*
X172469634Y-54618100D01*
X172483762Y-54725413D01*
X172549938Y-54972385D01*
X172549941Y-54972395D01*
X172647782Y-55208604D01*
X172647787Y-55208615D01*
X172775622Y-55430030D01*
X172775633Y-55430046D01*
X172931276Y-55632884D01*
X172931282Y-55632891D01*
X173112069Y-55813678D01*
X173112075Y-55813683D01*
X173314923Y-55969334D01*
X173314930Y-55969338D01*
X173536345Y-56097173D01*
X173536350Y-56097175D01*
X173536353Y-56097177D01*
X173772575Y-56195023D01*
X174019548Y-56261199D01*
X174273045Y-56294573D01*
X174273052Y-56294573D01*
X174528724Y-56294573D01*
X174528731Y-56294573D01*
X174782228Y-56261199D01*
X175029201Y-56195023D01*
X175265423Y-56097177D01*
X175486853Y-55969334D01*
X175689701Y-55813683D01*
X175870498Y-55632886D01*
X176026149Y-55430038D01*
X176153992Y-55208608D01*
X176251838Y-54972386D01*
X176318014Y-54725413D01*
X176351388Y-54471916D01*
X176351388Y-54216230D01*
X176318014Y-53962733D01*
X176301395Y-53900711D01*
X195943100Y-53900711D01*
X195943100Y-54143288D01*
X195974761Y-54383785D01*
X196037547Y-54618104D01*
X196130373Y-54842205D01*
X196130376Y-54842212D01*
X196251664Y-55052289D01*
X196251666Y-55052292D01*
X196251667Y-55052293D01*
X196399333Y-55244736D01*
X196399339Y-55244743D01*
X196570856Y-55416260D01*
X196570863Y-55416266D01*
X196600405Y-55438934D01*
X196763311Y-55563936D01*
X196973388Y-55685224D01*
X197197500Y-55778054D01*
X197431811Y-55840838D01*
X197612186Y-55864584D01*
X197672311Y-55872500D01*
X197672312Y-55872500D01*
X197914889Y-55872500D01*
X197962988Y-55866167D01*
X198155389Y-55840838D01*
X198389700Y-55778054D01*
X198613812Y-55685224D01*
X198823889Y-55563936D01*
X199016338Y-55416265D01*
X199187865Y-55244738D01*
X199335536Y-55052289D01*
X199456824Y-54842212D01*
X199549654Y-54618100D01*
X199612438Y-54383789D01*
X199644100Y-54143288D01*
X199644100Y-53900712D01*
X199642864Y-53891327D01*
X199619751Y-53715760D01*
X199612438Y-53660211D01*
X199549654Y-53425900D01*
X199456824Y-53201788D01*
X199335536Y-52991711D01*
X199206627Y-52823713D01*
X199187866Y-52799263D01*
X199187860Y-52799256D01*
X199016343Y-52627739D01*
X199016336Y-52627733D01*
X198823893Y-52480067D01*
X198823892Y-52480066D01*
X198823889Y-52480064D01*
X198643986Y-52376197D01*
X198613814Y-52358777D01*
X198613805Y-52358773D01*
X198389704Y-52265947D01*
X198272544Y-52234554D01*
X198155389Y-52203162D01*
X198155388Y-52203161D01*
X198155385Y-52203161D01*
X197914889Y-52171500D01*
X197914888Y-52171500D01*
X197672312Y-52171500D01*
X197672311Y-52171500D01*
X197431814Y-52203161D01*
X197197495Y-52265947D01*
X196973394Y-52358773D01*
X196973385Y-52358777D01*
X196763306Y-52480067D01*
X196570863Y-52627733D01*
X196570856Y-52627739D01*
X196399339Y-52799256D01*
X196399333Y-52799263D01*
X196251667Y-52991706D01*
X196251664Y-52991710D01*
X196251664Y-52991711D01*
X196244274Y-53004511D01*
X196130377Y-53201785D01*
X196130373Y-53201794D01*
X196037547Y-53425895D01*
X195974761Y-53660214D01*
X195943100Y-53900711D01*
X176301395Y-53900711D01*
X176251838Y-53715760D01*
X176153992Y-53479538D01*
X176153990Y-53479535D01*
X176153988Y-53479530D01*
X176026153Y-53258115D01*
X176026149Y-53258108D01*
X175870498Y-53055260D01*
X175870493Y-53055254D01*
X175689706Y-52874467D01*
X175689699Y-52874461D01*
X175486861Y-52718818D01*
X175486859Y-52718816D01*
X175486853Y-52718812D01*
X175486848Y-52718809D01*
X175486845Y-52718807D01*
X175265430Y-52590972D01*
X175265419Y-52590967D01*
X175029210Y-52493126D01*
X175029203Y-52493124D01*
X175029201Y-52493123D01*
X174782228Y-52426947D01*
X174725895Y-52419530D01*
X174528738Y-52393573D01*
X174528731Y-52393573D01*
X174273045Y-52393573D01*
X174273037Y-52393573D01*
X174047714Y-52423238D01*
X174019548Y-52426947D01*
X173821312Y-52480064D01*
X173772575Y-52493123D01*
X173772565Y-52493126D01*
X173536356Y-52590967D01*
X173536345Y-52590972D01*
X173314930Y-52718807D01*
X173314914Y-52718818D01*
X173112076Y-52874461D01*
X173112069Y-52874467D01*
X172931282Y-53055254D01*
X172931276Y-53055261D01*
X172775633Y-53258099D01*
X172775622Y-53258115D01*
X172647787Y-53479530D01*
X172647782Y-53479541D01*
X172549941Y-53715750D01*
X172549939Y-53715757D01*
X172549938Y-53715760D01*
X172497361Y-53911983D01*
X172483762Y-53962734D01*
X172450388Y-54216222D01*
X166191387Y-54216222D01*
X166158014Y-53962733D01*
X166091838Y-53715760D01*
X165993992Y-53479538D01*
X165993990Y-53479535D01*
X165993988Y-53479530D01*
X165866153Y-53258115D01*
X165866149Y-53258108D01*
X165710498Y-53055260D01*
X165710493Y-53055254D01*
X165529706Y-52874467D01*
X165529699Y-52874461D01*
X165326861Y-52718818D01*
X165326859Y-52718816D01*
X165326853Y-52718812D01*
X165326848Y-52718809D01*
X165326845Y-52718807D01*
X165105430Y-52590972D01*
X165105419Y-52590967D01*
X164869210Y-52493126D01*
X164869203Y-52493124D01*
X164869201Y-52493123D01*
X164622228Y-52426947D01*
X164565895Y-52419530D01*
X164368738Y-52393573D01*
X164368731Y-52393573D01*
X164113045Y-52393573D01*
X164113037Y-52393573D01*
X163887714Y-52423238D01*
X163859548Y-52426947D01*
X163661312Y-52480064D01*
X163612575Y-52493123D01*
X163612565Y-52493126D01*
X163376356Y-52590967D01*
X163376345Y-52590972D01*
X163154930Y-52718807D01*
X163154914Y-52718818D01*
X162952076Y-52874461D01*
X162952069Y-52874467D01*
X162771282Y-53055254D01*
X162771276Y-53055261D01*
X162615633Y-53258099D01*
X162615622Y-53258115D01*
X162487787Y-53479530D01*
X162487782Y-53479541D01*
X162389941Y-53715750D01*
X162389939Y-53715757D01*
X162389938Y-53715760D01*
X162337361Y-53911983D01*
X162323762Y-53962734D01*
X162290388Y-54216222D01*
X160874138Y-54216222D01*
X160874138Y-54165480D01*
X160840764Y-53911983D01*
X160774588Y-53665010D01*
X160772601Y-53660214D01*
X160738443Y-53577749D01*
X160676742Y-53428788D01*
X160676740Y-53428785D01*
X160676738Y-53428780D01*
X160548903Y-53207365D01*
X160548899Y-53207358D01*
X160499768Y-53143329D01*
X160393249Y-53004511D01*
X160393243Y-53004504D01*
X160212456Y-52823717D01*
X160212449Y-52823711D01*
X160009611Y-52668068D01*
X160009609Y-52668066D01*
X160009603Y-52668062D01*
X160009598Y-52668059D01*
X160009595Y-52668057D01*
X159788180Y-52540222D01*
X159788169Y-52540217D01*
X159551960Y-52442376D01*
X159551953Y-52442374D01*
X159551951Y-52442373D01*
X159304978Y-52376197D01*
X159248645Y-52368780D01*
X159051488Y-52342823D01*
X159051481Y-52342823D01*
X158795795Y-52342823D01*
X158795787Y-52342823D01*
X158570464Y-52372488D01*
X158542298Y-52376197D01*
X158477450Y-52393573D01*
X158295325Y-52442373D01*
X158295315Y-52442376D01*
X158059106Y-52540217D01*
X158059095Y-52540222D01*
X157837680Y-52668057D01*
X157837664Y-52668068D01*
X157634826Y-52823711D01*
X157634819Y-52823717D01*
X157454032Y-53004504D01*
X157454026Y-53004511D01*
X157298383Y-53207349D01*
X157298372Y-53207365D01*
X157170537Y-53428780D01*
X157170532Y-53428791D01*
X157072691Y-53665000D01*
X157072688Y-53665010D01*
X157009533Y-53900711D01*
X157006512Y-53911984D01*
X156973138Y-54165472D01*
X150714137Y-54165472D01*
X150680764Y-53911983D01*
X150614588Y-53665010D01*
X150612601Y-53660214D01*
X150578443Y-53577749D01*
X150516742Y-53428788D01*
X150516740Y-53428785D01*
X150516738Y-53428780D01*
X150388903Y-53207365D01*
X150388899Y-53207358D01*
X150339768Y-53143329D01*
X150233249Y-53004511D01*
X150233243Y-53004504D01*
X150052456Y-52823717D01*
X150052449Y-52823711D01*
X149849611Y-52668068D01*
X149849609Y-52668066D01*
X149849603Y-52668062D01*
X149849598Y-52668059D01*
X149849595Y-52668057D01*
X149628180Y-52540222D01*
X149628169Y-52540217D01*
X149391960Y-52442376D01*
X149391953Y-52442374D01*
X149391951Y-52442373D01*
X149144978Y-52376197D01*
X149088645Y-52368780D01*
X148891488Y-52342823D01*
X148891481Y-52342823D01*
X148635795Y-52342823D01*
X148635787Y-52342823D01*
X148410464Y-52372488D01*
X148382298Y-52376197D01*
X148317450Y-52393573D01*
X148135325Y-52442373D01*
X148135315Y-52442376D01*
X147899106Y-52540217D01*
X147899095Y-52540222D01*
X147677680Y-52668057D01*
X147677664Y-52668068D01*
X147474826Y-52823711D01*
X147474819Y-52823717D01*
X147294032Y-53004504D01*
X147294026Y-53004511D01*
X147138383Y-53207349D01*
X147138372Y-53207365D01*
X147010537Y-53428780D01*
X147010532Y-53428791D01*
X146912691Y-53665000D01*
X146912688Y-53665010D01*
X146849533Y-53900711D01*
X146846512Y-53911984D01*
X146813138Y-54165472D01*
X145668137Y-54165472D01*
X145634764Y-53911983D01*
X145568588Y-53665010D01*
X145566601Y-53660214D01*
X145532443Y-53577749D01*
X145470742Y-53428788D01*
X145470740Y-53428785D01*
X145470738Y-53428780D01*
X145342903Y-53207365D01*
X145342899Y-53207358D01*
X145293768Y-53143329D01*
X145187249Y-53004511D01*
X145187243Y-53004504D01*
X145006456Y-52823717D01*
X145006449Y-52823711D01*
X144803611Y-52668068D01*
X144803609Y-52668066D01*
X144803603Y-52668062D01*
X144803598Y-52668059D01*
X144803595Y-52668057D01*
X144582180Y-52540222D01*
X144582169Y-52540217D01*
X144345960Y-52442376D01*
X144345953Y-52442374D01*
X144345951Y-52442373D01*
X144098978Y-52376197D01*
X144042645Y-52368780D01*
X143845488Y-52342823D01*
X143845481Y-52342823D01*
X143589795Y-52342823D01*
X143589787Y-52342823D01*
X143364464Y-52372488D01*
X143336298Y-52376197D01*
X143271450Y-52393573D01*
X143089325Y-52442373D01*
X143089315Y-52442376D01*
X142853106Y-52540217D01*
X142853095Y-52540222D01*
X142631680Y-52668057D01*
X142631664Y-52668068D01*
X142428826Y-52823711D01*
X142428819Y-52823717D01*
X142248032Y-53004504D01*
X142248026Y-53004511D01*
X142092383Y-53207349D01*
X142092372Y-53207365D01*
X141964537Y-53428780D01*
X141964532Y-53428791D01*
X141866691Y-53665000D01*
X141866688Y-53665010D01*
X141803533Y-53900711D01*
X141800512Y-53911984D01*
X141767138Y-54165472D01*
X135508137Y-54165472D01*
X135474764Y-53911983D01*
X135408588Y-53665010D01*
X135406601Y-53660214D01*
X135372443Y-53577749D01*
X135310742Y-53428788D01*
X135310740Y-53428785D01*
X135310738Y-53428780D01*
X135182903Y-53207365D01*
X135182899Y-53207358D01*
X135133768Y-53143329D01*
X135027249Y-53004511D01*
X135027243Y-53004504D01*
X134846456Y-52823717D01*
X134846449Y-52823711D01*
X134643611Y-52668068D01*
X134643609Y-52668066D01*
X134643603Y-52668062D01*
X134643598Y-52668059D01*
X134643595Y-52668057D01*
X134422180Y-52540222D01*
X134422169Y-52540217D01*
X134185960Y-52442376D01*
X134185953Y-52442374D01*
X134185951Y-52442373D01*
X133938978Y-52376197D01*
X133882645Y-52368780D01*
X133685488Y-52342823D01*
X133685481Y-52342823D01*
X133429795Y-52342823D01*
X133429787Y-52342823D01*
X133204464Y-52372488D01*
X133176298Y-52376197D01*
X133111450Y-52393573D01*
X132929325Y-52442373D01*
X132929315Y-52442376D01*
X132693106Y-52540217D01*
X132693095Y-52540222D01*
X132471680Y-52668057D01*
X132471664Y-52668068D01*
X132268826Y-52823711D01*
X132268819Y-52823717D01*
X132088032Y-53004504D01*
X132088026Y-53004511D01*
X131932383Y-53207349D01*
X131932372Y-53207365D01*
X131804537Y-53428780D01*
X131804532Y-53428791D01*
X131706691Y-53665000D01*
X131706688Y-53665010D01*
X131643533Y-53900711D01*
X131640512Y-53911984D01*
X131607138Y-54165472D01*
X130427577Y-54165472D01*
X130438331Y-54125337D01*
X130469138Y-53891334D01*
X130469138Y-53655312D01*
X130438331Y-53421309D01*
X130377244Y-53193330D01*
X130286922Y-52975274D01*
X130286920Y-52975271D01*
X130286918Y-52975266D01*
X130228721Y-52874467D01*
X130168911Y-52770873D01*
X130090026Y-52668068D01*
X130025231Y-52583625D01*
X130025225Y-52583618D01*
X129858342Y-52416735D01*
X129858335Y-52416729D01*
X129671092Y-52273053D01*
X129671091Y-52273052D01*
X129671088Y-52273050D01*
X129584491Y-52223053D01*
X129466694Y-52155042D01*
X129466683Y-52155037D01*
X129248631Y-52064717D01*
X129020648Y-52003629D01*
X128786658Y-51972824D01*
X128786655Y-51972823D01*
X128786649Y-51972823D01*
X128550627Y-51972823D01*
X128550621Y-51972823D01*
X128550617Y-51972824D01*
X128316627Y-52003629D01*
X128088644Y-52064717D01*
X127870592Y-52155037D01*
X127870581Y-52155042D01*
X127679547Y-52265337D01*
X127678493Y-52265946D01*
X127666183Y-52273053D01*
X127478940Y-52416729D01*
X127478933Y-52416735D01*
X127312050Y-52583618D01*
X127312044Y-52583625D01*
X127168368Y-52770868D01*
X127050357Y-52975266D01*
X127050352Y-52975277D01*
X126960032Y-53193329D01*
X126898944Y-53421312D01*
X126868139Y-53655302D01*
X126868138Y-53655318D01*
X118419138Y-53655318D01*
X118419138Y-53605312D01*
X118388331Y-53371309D01*
X118327244Y-53143330D01*
X118236922Y-52925274D01*
X118236920Y-52925271D01*
X118236918Y-52925266D01*
X118178288Y-52823717D01*
X118118911Y-52720873D01*
X117975230Y-52533624D01*
X117975225Y-52533618D01*
X117808342Y-52366735D01*
X117808335Y-52366729D01*
X117621092Y-52223053D01*
X117621091Y-52223052D01*
X117621088Y-52223050D01*
X117503290Y-52155039D01*
X117416694Y-52105042D01*
X117416683Y-52105037D01*
X117198631Y-52014717D01*
X116970648Y-51953629D01*
X116736658Y-51922824D01*
X116736655Y-51922823D01*
X116736649Y-51922823D01*
X116500627Y-51922823D01*
X116500621Y-51922823D01*
X116500617Y-51922824D01*
X116266627Y-51953629D01*
X116038644Y-52014717D01*
X115820592Y-52105037D01*
X115820581Y-52105042D01*
X115616183Y-52223053D01*
X115428940Y-52366729D01*
X115428933Y-52366735D01*
X115262050Y-52533618D01*
X115262044Y-52533625D01*
X115118368Y-52720868D01*
X115000357Y-52925266D01*
X115000352Y-52925277D01*
X114910032Y-53143329D01*
X114848944Y-53371312D01*
X114818139Y-53605302D01*
X114818138Y-53605318D01*
X113425046Y-53605318D01*
X113422764Y-53587983D01*
X113356588Y-53341010D01*
X113258742Y-53104788D01*
X113258740Y-53104785D01*
X113258738Y-53104780D01*
X113130903Y-52883365D01*
X113130899Y-52883358D01*
X113004638Y-52718812D01*
X112975249Y-52680511D01*
X112975243Y-52680504D01*
X112794456Y-52499717D01*
X112794449Y-52499711D01*
X112591611Y-52344068D01*
X112591609Y-52344066D01*
X112591603Y-52344062D01*
X112591598Y-52344059D01*
X112591595Y-52344057D01*
X112370180Y-52216222D01*
X112370169Y-52216217D01*
X112133960Y-52118376D01*
X112133953Y-52118374D01*
X112133951Y-52118373D01*
X111886978Y-52052197D01*
X111830645Y-52044780D01*
X111633488Y-52018823D01*
X111633481Y-52018823D01*
X111377795Y-52018823D01*
X111377787Y-52018823D01*
X111152464Y-52048488D01*
X111124298Y-52052197D01*
X110927077Y-52105042D01*
X110877325Y-52118373D01*
X110877315Y-52118376D01*
X110641106Y-52216217D01*
X110641095Y-52216222D01*
X110419680Y-52344057D01*
X110419664Y-52344068D01*
X110216826Y-52499711D01*
X110216819Y-52499717D01*
X110036032Y-52680504D01*
X110036026Y-52680511D01*
X109880383Y-52883349D01*
X109880372Y-52883365D01*
X109752537Y-53104780D01*
X109752532Y-53104791D01*
X109654691Y-53341000D01*
X109654688Y-53341010D01*
X109588512Y-53587984D01*
X109555138Y-53841472D01*
X108376137Y-53841472D01*
X108342764Y-53587983D01*
X108276588Y-53341010D01*
X108178742Y-53104788D01*
X108178740Y-53104785D01*
X108178738Y-53104780D01*
X108050903Y-52883365D01*
X108050899Y-52883358D01*
X107924638Y-52718812D01*
X107895249Y-52680511D01*
X107895243Y-52680504D01*
X107714456Y-52499717D01*
X107714449Y-52499711D01*
X107511611Y-52344068D01*
X107511609Y-52344066D01*
X107511603Y-52344062D01*
X107511598Y-52344059D01*
X107511595Y-52344057D01*
X107290180Y-52216222D01*
X107290169Y-52216217D01*
X107053960Y-52118376D01*
X107053953Y-52118374D01*
X107053951Y-52118373D01*
X106806978Y-52052197D01*
X106750645Y-52044780D01*
X106553488Y-52018823D01*
X106553481Y-52018823D01*
X106297795Y-52018823D01*
X106297787Y-52018823D01*
X106072464Y-52048488D01*
X106044298Y-52052197D01*
X105847077Y-52105042D01*
X105797325Y-52118373D01*
X105797315Y-52118376D01*
X105561106Y-52216217D01*
X105561095Y-52216222D01*
X105339680Y-52344057D01*
X105339664Y-52344068D01*
X105136826Y-52499711D01*
X105136819Y-52499717D01*
X104956032Y-52680504D01*
X104956026Y-52680511D01*
X104800383Y-52883349D01*
X104800372Y-52883365D01*
X104672537Y-53104780D01*
X104672532Y-53104791D01*
X104574691Y-53341000D01*
X104574688Y-53341010D01*
X104508512Y-53587984D01*
X104475138Y-53841472D01*
X91983502Y-53841472D01*
X91966950Y-53715750D01*
X91959638Y-53660211D01*
X91896854Y-53425900D01*
X91804024Y-53201788D01*
X91682736Y-52991711D01*
X91553827Y-52823713D01*
X91535066Y-52799263D01*
X91535060Y-52799256D01*
X91363543Y-52627739D01*
X91363536Y-52627733D01*
X91171093Y-52480067D01*
X91171092Y-52480066D01*
X91171089Y-52480064D01*
X90991186Y-52376197D01*
X90961014Y-52358777D01*
X90961005Y-52358773D01*
X90736904Y-52265947D01*
X90619744Y-52234554D01*
X90502589Y-52203162D01*
X90502588Y-52203161D01*
X90502585Y-52203161D01*
X90262089Y-52171500D01*
X90262088Y-52171500D01*
X90019512Y-52171500D01*
X90019511Y-52171500D01*
X89779014Y-52203161D01*
X89544695Y-52265947D01*
X89320594Y-52358773D01*
X89320585Y-52358777D01*
X89110506Y-52480067D01*
X88918063Y-52627733D01*
X88918056Y-52627739D01*
X88746539Y-52799256D01*
X88746533Y-52799263D01*
X88598867Y-52991706D01*
X88598864Y-52991710D01*
X88598864Y-52991711D01*
X88591474Y-53004511D01*
X88477577Y-53201785D01*
X88477573Y-53201794D01*
X88384747Y-53425895D01*
X88321961Y-53660214D01*
X88290300Y-53900711D01*
X85527138Y-53900711D01*
X85527138Y-49539823D01*
X85546823Y-49472784D01*
X85599627Y-49427029D01*
X85651138Y-49415823D01*
X202258138Y-49415823D01*
X202325177Y-49435508D01*
G37*
%TD.AperFunction*%
%TD*%
M02*
