%TF.GenerationSoftware,KiCad,Pcbnew,9.0.1*%
%TF.CreationDate,2025-06-09T14:32:22-07:00*%
%TF.ProjectId,chop-controller-heat-v2,63686f70-2d63-46f6-9e74-726f6c6c6572,rev?*%
%TF.SameCoordinates,Original*%
%TF.FileFunction,Drillmap*%
%TF.FilePolarity,Positive*%
%FSLAX45Y45*%
G04 Gerber Fmt 4.5, Leading zero omitted, Abs format (unit mm)*
G04 Created by KiCad (PCBNEW 9.0.1) date 2025-06-09 14:32:22*
%MOMM*%
%LPD*%
G01*
G04 APERTURE LIST*
%ADD10C,0.200000*%
%ADD11C,0.100000*%
%ADD12C,0.102000*%
%ADD13C,0.109000*%
%ADD14C,0.130000*%
G04 APERTURE END LIST*
D10*
X8502664Y-4891532D02*
X20288264Y-4891532D01*
X20288264Y-12369532D01*
X8502664Y-12369532D01*
X8502664Y-4891532D01*
D11*
X10514664Y-6608132D02*
X10554664Y-6648132D01*
X10554664Y-6608132D02*
X10514664Y-6648132D01*
X11307144Y-7446332D02*
X11347144Y-7486332D01*
X11347144Y-7446332D02*
X11307144Y-7486332D01*
X11683064Y-7141532D02*
X11723064Y-7181532D01*
X11723064Y-7141532D02*
X11683064Y-7181532D01*
X12495864Y-7090732D02*
X12535864Y-7130732D01*
X12535864Y-7090732D02*
X12495864Y-7130732D01*
X13054664Y-6989132D02*
X13094664Y-7029132D01*
X13094664Y-6989132D02*
X13054664Y-7029132D01*
X13054664Y-7928932D02*
X13094664Y-7968932D01*
X13094664Y-7928932D02*
X13054664Y-7968932D01*
X13054664Y-8055932D02*
X13094664Y-8095932D01*
X13094664Y-8055932D02*
X13054664Y-8095932D01*
X13054664Y-8155883D02*
X13094664Y-8195883D01*
X13094664Y-8155883D02*
X13054664Y-8195883D01*
X13054664Y-8259132D02*
X13094664Y-8299132D01*
X13094664Y-8259132D02*
X13054664Y-8299132D01*
X13054664Y-8360732D02*
X13094664Y-8400732D01*
X13094664Y-8360732D02*
X13054664Y-8400732D01*
X13054664Y-8462332D02*
X13094664Y-8502332D01*
X13094664Y-8462332D02*
X13054664Y-8502332D01*
X13125784Y-7375212D02*
X13165784Y-7415212D01*
X13165784Y-7375212D02*
X13125784Y-7415212D01*
X13257864Y-7192332D02*
X13297864Y-7232332D01*
X13297864Y-7192332D02*
X13257864Y-7232332D01*
X13626164Y-7408232D02*
X13666164Y-7448232D01*
X13666164Y-7408232D02*
X13626164Y-7448232D01*
X13816664Y-7954332D02*
X13856664Y-7994332D01*
X13856664Y-7954332D02*
X13816664Y-7994332D01*
X14030024Y-7227892D02*
X14070024Y-7267892D01*
X14070024Y-7227892D02*
X14030024Y-7267892D01*
X14154840Y-9602600D02*
X14194840Y-9642600D01*
X14194840Y-9602600D02*
X14154840Y-9642600D01*
X14231040Y-10669400D02*
X14271040Y-10709400D01*
X14271040Y-10669400D02*
X14231040Y-10709400D01*
X14281840Y-9786750D02*
X14321840Y-9826750D01*
X14321840Y-9786750D02*
X14281840Y-9826750D01*
X14408840Y-9958200D02*
X14448840Y-9998200D01*
X14448840Y-9958200D02*
X14408840Y-9998200D01*
X14485040Y-10517000D02*
X14525040Y-10557000D01*
X14525040Y-10517000D02*
X14485040Y-10557000D01*
X14525680Y-8967600D02*
X14565680Y-9007600D01*
X14565680Y-8967600D02*
X14525680Y-9007600D01*
X14807264Y-7243132D02*
X14847264Y-7283132D01*
X14847264Y-7243132D02*
X14807264Y-7283132D01*
X15112064Y-7624132D02*
X15152064Y-7664132D01*
X15152064Y-7624132D02*
X15112064Y-7664132D01*
X15186080Y-10156320D02*
X15226080Y-10196320D01*
X15226080Y-10156320D02*
X15186080Y-10196320D01*
X15196240Y-10618600D02*
X15236240Y-10658600D01*
X15236240Y-10618600D02*
X15196240Y-10658600D01*
X15366064Y-6533200D02*
X15406064Y-6573200D01*
X15406064Y-6533200D02*
X15366064Y-6573200D01*
X16009040Y-9323200D02*
X16049040Y-9363200D01*
X16049040Y-9323200D02*
X16009040Y-9363200D01*
X16110640Y-9907400D02*
X16150640Y-9947400D01*
X16150640Y-9907400D02*
X16110640Y-9947400D01*
X16229664Y-7217732D02*
X16269664Y-7257732D01*
X16269664Y-7217732D02*
X16229664Y-7257732D01*
X16305864Y-7065332D02*
X16345864Y-7105332D01*
X16345864Y-7065332D02*
X16305864Y-7105332D01*
X16382064Y-7725732D02*
X16422064Y-7765732D01*
X16422064Y-7725732D02*
X16382064Y-7765732D01*
X16412544Y-6486212D02*
X16452544Y-6526212D01*
X16452544Y-6486212D02*
X16412544Y-6526212D01*
X16686864Y-7903532D02*
X16726864Y-7943532D01*
X16726864Y-7903532D02*
X16686864Y-7943532D01*
X17032304Y-7222812D02*
X17072304Y-7262812D01*
X17072304Y-7222812D02*
X17032304Y-7262812D01*
X17829864Y-7370132D02*
X17869864Y-7410132D01*
X17869864Y-7370132D02*
X17829864Y-7410132D01*
X11145764Y-8482332D02*
G75*
G02*
X11070764Y-8482332I-37500J0D01*
G01*
X11070764Y-8482332D02*
G75*
G02*
X11145764Y-8482332I37500J0D01*
G01*
X11145764Y-8609332D02*
G75*
G02*
X11070764Y-8609332I-37500J0D01*
G01*
X11070764Y-8609332D02*
G75*
G02*
X11145764Y-8609332I37500J0D01*
G01*
X11145764Y-8736332D02*
G75*
G02*
X11070764Y-8736332I-37500J0D01*
G01*
X11070764Y-8736332D02*
G75*
G02*
X11145764Y-8736332I37500J0D01*
G01*
X12032264Y-8848732D02*
X12032264Y-8928732D01*
X11992264Y-8888732D02*
X12072264Y-8888732D01*
X12160264Y-7211432D02*
X12160264Y-7291432D01*
X12120264Y-7251432D02*
X12200264Y-7251432D01*
X12160264Y-7465432D02*
X12160264Y-7545432D01*
X12120264Y-7505432D02*
X12200264Y-7505432D01*
X12160264Y-7719432D02*
X12160264Y-7799432D01*
X12120264Y-7759432D02*
X12200264Y-7759432D01*
X12286264Y-8848732D02*
X12286264Y-8928732D01*
X12246264Y-8888732D02*
X12326264Y-8888732D01*
X12540264Y-8848732D02*
X12540264Y-8928732D01*
X12500264Y-8888732D02*
X12580264Y-8888732D01*
X11702219Y-6632688D02*
X11702219Y-6561977D01*
X11631508Y-6561977D01*
X11631508Y-6632688D01*
X11702219Y-6632688D01*
X12902219Y-6632688D02*
X12902219Y-6561977D01*
X12831508Y-6561977D01*
X12831508Y-6632688D01*
X12902219Y-6632688D01*
D12*
X9504680Y-6252280D02*
X9555680Y-6201280D01*
X9504680Y-6150280D01*
X9453680Y-6201280D01*
X9504680Y-6252280D01*
X9504680Y-6552280D02*
X9555680Y-6501280D01*
X9504680Y-6450280D01*
X9453680Y-6501280D01*
X9504680Y-6552280D01*
X9504680Y-6852280D02*
X9555680Y-6801280D01*
X9504680Y-6750280D01*
X9453680Y-6801280D01*
X9504680Y-6852280D01*
X9504680Y-7152280D02*
X9555680Y-7101280D01*
X9504680Y-7050280D01*
X9453680Y-7101280D01*
X9504680Y-7152280D01*
X9504680Y-7452280D02*
X9555680Y-7401280D01*
X9504680Y-7350280D01*
X9453680Y-7401280D01*
X9504680Y-7452280D01*
X9504680Y-7752280D02*
X9555680Y-7701280D01*
X9504680Y-7650280D01*
X9453680Y-7701280D01*
X9504680Y-7752280D01*
X9504680Y-8052280D02*
X9555680Y-8001280D01*
X9504680Y-7950280D01*
X9453680Y-8001280D01*
X9504680Y-8052280D01*
X9804680Y-6252280D02*
X9855680Y-6201280D01*
X9804680Y-6150280D01*
X9753680Y-6201280D01*
X9804680Y-6252280D01*
X9804680Y-6552280D02*
X9855680Y-6501280D01*
X9804680Y-6450280D01*
X9753680Y-6501280D01*
X9804680Y-6552280D01*
X9804680Y-6852280D02*
X9855680Y-6801280D01*
X9804680Y-6750280D01*
X9753680Y-6801280D01*
X9804680Y-6852280D01*
X9804680Y-7152280D02*
X9855680Y-7101280D01*
X9804680Y-7050280D01*
X9753680Y-7101280D01*
X9804680Y-7152280D01*
X9804680Y-7452280D02*
X9855680Y-7401280D01*
X9804680Y-7350280D01*
X9753680Y-7401280D01*
X9804680Y-7452280D01*
X9804680Y-7752280D02*
X9855680Y-7701280D01*
X9804680Y-7650280D01*
X9753680Y-7701280D01*
X9804680Y-7752280D01*
X9804680Y-8052280D02*
X9855680Y-8001280D01*
X9804680Y-7950280D01*
X9753680Y-8001280D01*
X9804680Y-8052280D01*
X18980400Y-8381000D02*
X19031400Y-8330000D01*
X18980400Y-8279000D01*
X18929400Y-8330000D01*
X18980400Y-8381000D01*
X18980400Y-8681000D02*
X19031400Y-8630000D01*
X18980400Y-8579000D01*
X18929400Y-8630000D01*
X18980400Y-8681000D01*
X18980400Y-8981000D02*
X19031400Y-8930000D01*
X18980400Y-8879000D01*
X18929400Y-8930000D01*
X18980400Y-8981000D01*
X18980400Y-9281000D02*
X19031400Y-9230000D01*
X18980400Y-9179000D01*
X18929400Y-9230000D01*
X18980400Y-9281000D01*
X19280400Y-8381000D02*
X19331400Y-8330000D01*
X19280400Y-8279000D01*
X19229400Y-8330000D01*
X19280400Y-8381000D01*
X19280400Y-8681000D02*
X19331400Y-8630000D01*
X19280400Y-8579000D01*
X19229400Y-8630000D01*
X19280400Y-8681000D01*
X19280400Y-8981000D02*
X19331400Y-8930000D01*
X19280400Y-8879000D01*
X19229400Y-8930000D01*
X19280400Y-8981000D01*
X19280400Y-9281000D02*
X19331400Y-9230000D01*
X19280400Y-9179000D01*
X19229400Y-9230000D01*
X19280400Y-9281000D01*
D13*
X10715064Y-6206432D02*
X10824064Y-6315432D01*
X10824064Y-6206432D02*
X10715064Y-6315432D01*
X10824064Y-6260932D02*
G75*
G02*
X10715064Y-6260932I-54500J0D01*
G01*
X10715064Y-6260932D02*
G75*
G02*
X10824064Y-6260932I54500J0D01*
G01*
X10969064Y-6206432D02*
X11078064Y-6315432D01*
X11078064Y-6206432D02*
X10969064Y-6315432D01*
X11078064Y-6260932D02*
G75*
G02*
X10969064Y-6260932I-54500J0D01*
G01*
X10969064Y-6260932D02*
G75*
G02*
X11078064Y-6260932I54500J0D01*
G01*
X13425264Y-6238832D02*
X13534264Y-6347832D01*
X13534264Y-6238832D02*
X13425264Y-6347832D01*
X13534264Y-6293332D02*
G75*
G02*
X13425264Y-6293332I-54500J0D01*
G01*
X13425264Y-6293332D02*
G75*
G02*
X13534264Y-6293332I54500J0D01*
G01*
X13679264Y-6238832D02*
X13788264Y-6347832D01*
X13788264Y-6238832D02*
X13679264Y-6347832D01*
X13788264Y-6293332D02*
G75*
G02*
X13679264Y-6293332I-54500J0D01*
G01*
X13679264Y-6293332D02*
G75*
G02*
X13788264Y-6293332I54500J0D01*
G01*
X13936264Y-6238832D02*
X14045264Y-6347832D01*
X14045264Y-6238832D02*
X13936264Y-6347832D01*
X14045264Y-6293332D02*
G75*
G02*
X13936264Y-6293332I-54500J0D01*
G01*
X13936264Y-6293332D02*
G75*
G02*
X14045264Y-6293332I54500J0D01*
G01*
X14190264Y-6238832D02*
X14299264Y-6347832D01*
X14299264Y-6238832D02*
X14190264Y-6347832D01*
X14299264Y-6293332D02*
G75*
G02*
X14190264Y-6293332I-54500J0D01*
G01*
X14190264Y-6293332D02*
G75*
G02*
X14299264Y-6293332I54500J0D01*
G01*
X14577540Y-10855400D02*
X14686540Y-10964400D01*
X14686540Y-10855400D02*
X14577540Y-10964400D01*
X14686540Y-10909900D02*
G75*
G02*
X14577540Y-10909900I-54500J0D01*
G01*
X14577540Y-10909900D02*
G75*
G02*
X14686540Y-10909900I54500J0D01*
G01*
X14831540Y-10855400D02*
X14940540Y-10964400D01*
X14940540Y-10855400D02*
X14831540Y-10964400D01*
X14940540Y-10909900D02*
G75*
G02*
X14831540Y-10909900I-54500J0D01*
G01*
X14831540Y-10909900D02*
G75*
G02*
X14940540Y-10909900I54500J0D01*
G01*
X14948864Y-6238832D02*
X15057864Y-6347832D01*
X15057864Y-6238832D02*
X14948864Y-6347832D01*
X15057864Y-6293332D02*
G75*
G02*
X14948864Y-6293332I-54500J0D01*
G01*
X14948864Y-6293332D02*
G75*
G02*
X15057864Y-6293332I54500J0D01*
G01*
X15082540Y-10855400D02*
X15191540Y-10964400D01*
X15191540Y-10855400D02*
X15082540Y-10964400D01*
X15191540Y-10909900D02*
G75*
G02*
X15082540Y-10909900I-54500J0D01*
G01*
X15082540Y-10909900D02*
G75*
G02*
X15191540Y-10909900I54500J0D01*
G01*
X15202864Y-6238832D02*
X15311864Y-6347832D01*
X15311864Y-6238832D02*
X15202864Y-6347832D01*
X15311864Y-6293332D02*
G75*
G02*
X15202864Y-6293332I-54500J0D01*
G01*
X15202864Y-6293332D02*
G75*
G02*
X15311864Y-6293332I54500J0D01*
G01*
X15336540Y-10855400D02*
X15445540Y-10964400D01*
X15445540Y-10855400D02*
X15336540Y-10964400D01*
X15445540Y-10909900D02*
G75*
G02*
X15336540Y-10909900I-54500J0D01*
G01*
X15336540Y-10909900D02*
G75*
G02*
X15445540Y-10909900I54500J0D01*
G01*
X15459864Y-6238832D02*
X15568864Y-6347832D01*
X15568864Y-6238832D02*
X15459864Y-6347832D01*
X15568864Y-6293332D02*
G75*
G02*
X15459864Y-6293332I-54500J0D01*
G01*
X15459864Y-6293332D02*
G75*
G02*
X15568864Y-6293332I54500J0D01*
G01*
X15593540Y-10855400D02*
X15702540Y-10964400D01*
X15702540Y-10855400D02*
X15593540Y-10964400D01*
X15702540Y-10909900D02*
G75*
G02*
X15593540Y-10909900I-54500J0D01*
G01*
X15593540Y-10909900D02*
G75*
G02*
X15702540Y-10909900I54500J0D01*
G01*
X15713864Y-6238832D02*
X15822864Y-6347832D01*
X15822864Y-6238832D02*
X15713864Y-6347832D01*
X15822864Y-6293332D02*
G75*
G02*
X15713864Y-6293332I-54500J0D01*
G01*
X15713864Y-6293332D02*
G75*
G02*
X15822864Y-6293332I54500J0D01*
G01*
X15847540Y-10855400D02*
X15956540Y-10964400D01*
X15956540Y-10855400D02*
X15847540Y-10964400D01*
X15956540Y-10909900D02*
G75*
G02*
X15847540Y-10909900I-54500J0D01*
G01*
X15847540Y-10909900D02*
G75*
G02*
X15956540Y-10909900I54500J0D01*
G01*
X16493589Y-6243907D02*
X16602589Y-6352907D01*
X16602589Y-6243907D02*
X16493589Y-6352907D01*
X16602589Y-6298407D02*
G75*
G02*
X16493589Y-6298407I-54500J0D01*
G01*
X16493589Y-6298407D02*
G75*
G02*
X16602589Y-6298407I54500J0D01*
G01*
X16747589Y-6243907D02*
X16856589Y-6352907D01*
X16856589Y-6243907D02*
X16747589Y-6352907D01*
X16856589Y-6298407D02*
G75*
G02*
X16747589Y-6298407I-54500J0D01*
G01*
X16747589Y-6298407D02*
G75*
G02*
X16856589Y-6298407I54500J0D01*
G01*
X17004589Y-6243907D02*
X17113589Y-6352907D01*
X17113589Y-6243907D02*
X17004589Y-6352907D01*
X17113589Y-6298407D02*
G75*
G02*
X17004589Y-6298407I-54500J0D01*
G01*
X17004589Y-6298407D02*
G75*
G02*
X17113589Y-6298407I54500J0D01*
G01*
X17258589Y-6243907D02*
X17367589Y-6352907D01*
X17367589Y-6243907D02*
X17258589Y-6352907D01*
X17367589Y-6298407D02*
G75*
G02*
X17258589Y-6298407I-54500J0D01*
G01*
X17258589Y-6298407D02*
G75*
G02*
X17367589Y-6298407I54500J0D01*
G01*
D14*
X11596864Y-5307332D02*
X11726864Y-5437332D01*
X11726864Y-5307332D02*
X11596864Y-5437332D01*
X11661864Y-5307332D02*
X11661864Y-5437332D01*
X11596864Y-5372332D02*
X11726864Y-5372332D01*
X12196864Y-6727332D02*
X12326864Y-6857332D01*
X12326864Y-6727332D02*
X12196864Y-6857332D01*
X12261864Y-6727332D02*
X12261864Y-6857332D01*
X12196864Y-6792332D02*
X12326864Y-6792332D01*
X12801864Y-5312332D02*
X12931864Y-5442332D01*
X12931864Y-5312332D02*
X12801864Y-5442332D01*
X12866864Y-5312332D02*
X12866864Y-5442332D01*
X12801864Y-5377332D02*
X12931864Y-5377332D01*
D10*
X8753441Y-12691016D02*
X8753441Y-12491016D01*
X8753441Y-12491016D02*
X8801060Y-12491016D01*
X8801060Y-12491016D02*
X8829631Y-12500540D01*
X8829631Y-12500540D02*
X8848679Y-12519587D01*
X8848679Y-12519587D02*
X8858203Y-12538635D01*
X8858203Y-12538635D02*
X8867726Y-12576730D01*
X8867726Y-12576730D02*
X8867726Y-12605302D01*
X8867726Y-12605302D02*
X8858203Y-12643397D01*
X8858203Y-12643397D02*
X8848679Y-12662444D01*
X8848679Y-12662444D02*
X8829631Y-12681492D01*
X8829631Y-12681492D02*
X8801060Y-12691016D01*
X8801060Y-12691016D02*
X8753441Y-12691016D01*
X8953441Y-12691016D02*
X8953441Y-12557683D01*
X8953441Y-12595778D02*
X8962964Y-12576730D01*
X8962964Y-12576730D02*
X8972488Y-12567206D01*
X8972488Y-12567206D02*
X8991536Y-12557683D01*
X8991536Y-12557683D02*
X9010584Y-12557683D01*
X9077250Y-12691016D02*
X9077250Y-12557683D01*
X9077250Y-12491016D02*
X9067726Y-12500540D01*
X9067726Y-12500540D02*
X9077250Y-12510064D01*
X9077250Y-12510064D02*
X9086774Y-12500540D01*
X9086774Y-12500540D02*
X9077250Y-12491016D01*
X9077250Y-12491016D02*
X9077250Y-12510064D01*
X9201060Y-12691016D02*
X9182012Y-12681492D01*
X9182012Y-12681492D02*
X9172488Y-12662444D01*
X9172488Y-12662444D02*
X9172488Y-12491016D01*
X9305822Y-12691016D02*
X9286774Y-12681492D01*
X9286774Y-12681492D02*
X9277250Y-12662444D01*
X9277250Y-12662444D02*
X9277250Y-12491016D01*
X9534393Y-12691016D02*
X9534393Y-12491016D01*
X9534393Y-12491016D02*
X9601060Y-12633873D01*
X9601060Y-12633873D02*
X9667726Y-12491016D01*
X9667726Y-12491016D02*
X9667726Y-12691016D01*
X9848679Y-12691016D02*
X9848679Y-12586254D01*
X9848679Y-12586254D02*
X9839155Y-12567206D01*
X9839155Y-12567206D02*
X9820107Y-12557683D01*
X9820107Y-12557683D02*
X9782012Y-12557683D01*
X9782012Y-12557683D02*
X9762964Y-12567206D01*
X9848679Y-12681492D02*
X9829631Y-12691016D01*
X9829631Y-12691016D02*
X9782012Y-12691016D01*
X9782012Y-12691016D02*
X9762964Y-12681492D01*
X9762964Y-12681492D02*
X9753441Y-12662444D01*
X9753441Y-12662444D02*
X9753441Y-12643397D01*
X9753441Y-12643397D02*
X9762964Y-12624349D01*
X9762964Y-12624349D02*
X9782012Y-12614825D01*
X9782012Y-12614825D02*
X9829631Y-12614825D01*
X9829631Y-12614825D02*
X9848679Y-12605302D01*
X9943917Y-12557683D02*
X9943917Y-12757683D01*
X9943917Y-12567206D02*
X9962964Y-12557683D01*
X9962964Y-12557683D02*
X10001060Y-12557683D01*
X10001060Y-12557683D02*
X10020107Y-12567206D01*
X10020107Y-12567206D02*
X10029631Y-12576730D01*
X10029631Y-12576730D02*
X10039155Y-12595778D01*
X10039155Y-12595778D02*
X10039155Y-12652921D01*
X10039155Y-12652921D02*
X10029631Y-12671968D01*
X10029631Y-12671968D02*
X10020107Y-12681492D01*
X10020107Y-12681492D02*
X10001060Y-12691016D01*
X10001060Y-12691016D02*
X9962964Y-12691016D01*
X9962964Y-12691016D02*
X9943917Y-12681492D01*
X10124869Y-12671968D02*
X10134393Y-12681492D01*
X10134393Y-12681492D02*
X10124869Y-12691016D01*
X10124869Y-12691016D02*
X10115345Y-12681492D01*
X10115345Y-12681492D02*
X10124869Y-12671968D01*
X10124869Y-12671968D02*
X10124869Y-12691016D01*
X10124869Y-12567206D02*
X10134393Y-12576730D01*
X10134393Y-12576730D02*
X10124869Y-12586254D01*
X10124869Y-12586254D02*
X10115345Y-12576730D01*
X10115345Y-12576730D02*
X10124869Y-12567206D01*
X10124869Y-12567206D02*
X10124869Y-12586254D01*
D11*
X8452664Y-12999532D02*
X8492664Y-13039532D01*
X8492664Y-12999532D02*
X8452664Y-13039532D01*
D10*
X8791536Y-12911016D02*
X8810584Y-12911016D01*
X8810584Y-12911016D02*
X8829631Y-12920540D01*
X8829631Y-12920540D02*
X8839155Y-12930064D01*
X8839155Y-12930064D02*
X8848679Y-12949111D01*
X8848679Y-12949111D02*
X8858203Y-12987206D01*
X8858203Y-12987206D02*
X8858203Y-13034825D01*
X8858203Y-13034825D02*
X8848679Y-13072921D01*
X8848679Y-13072921D02*
X8839155Y-13091968D01*
X8839155Y-13091968D02*
X8829631Y-13101492D01*
X8829631Y-13101492D02*
X8810584Y-13111016D01*
X8810584Y-13111016D02*
X8791536Y-13111016D01*
X8791536Y-13111016D02*
X8772488Y-13101492D01*
X8772488Y-13101492D02*
X8762964Y-13091968D01*
X8762964Y-13091968D02*
X8753441Y-13072921D01*
X8753441Y-13072921D02*
X8743917Y-13034825D01*
X8743917Y-13034825D02*
X8743917Y-12987206D01*
X8743917Y-12987206D02*
X8753441Y-12949111D01*
X8753441Y-12949111D02*
X8762964Y-12930064D01*
X8762964Y-12930064D02*
X8772488Y-12920540D01*
X8772488Y-12920540D02*
X8791536Y-12911016D01*
X8943917Y-13091968D02*
X8953441Y-13101492D01*
X8953441Y-13101492D02*
X8943917Y-13111016D01*
X8943917Y-13111016D02*
X8934393Y-13101492D01*
X8934393Y-13101492D02*
X8943917Y-13091968D01*
X8943917Y-13091968D02*
X8943917Y-13111016D01*
X9124869Y-12977683D02*
X9124869Y-13111016D01*
X9077250Y-12901492D02*
X9029631Y-13044349D01*
X9029631Y-13044349D02*
X9153441Y-13044349D01*
X9267726Y-12911016D02*
X9286774Y-12911016D01*
X9286774Y-12911016D02*
X9305822Y-12920540D01*
X9305822Y-12920540D02*
X9315345Y-12930064D01*
X9315345Y-12930064D02*
X9324869Y-12949111D01*
X9324869Y-12949111D02*
X9334393Y-12987206D01*
X9334393Y-12987206D02*
X9334393Y-13034825D01*
X9334393Y-13034825D02*
X9324869Y-13072921D01*
X9324869Y-13072921D02*
X9315345Y-13091968D01*
X9315345Y-13091968D02*
X9305822Y-13101492D01*
X9305822Y-13101492D02*
X9286774Y-13111016D01*
X9286774Y-13111016D02*
X9267726Y-13111016D01*
X9267726Y-13111016D02*
X9248679Y-13101492D01*
X9248679Y-13101492D02*
X9239155Y-13091968D01*
X9239155Y-13091968D02*
X9229631Y-13072921D01*
X9229631Y-13072921D02*
X9220107Y-13034825D01*
X9220107Y-13034825D02*
X9220107Y-12987206D01*
X9220107Y-12987206D02*
X9229631Y-12949111D01*
X9229631Y-12949111D02*
X9239155Y-12930064D01*
X9239155Y-12930064D02*
X9248679Y-12920540D01*
X9248679Y-12920540D02*
X9267726Y-12911016D01*
X9458203Y-12911016D02*
X9477250Y-12911016D01*
X9477250Y-12911016D02*
X9496298Y-12920540D01*
X9496298Y-12920540D02*
X9505822Y-12930064D01*
X9505822Y-12930064D02*
X9515345Y-12949111D01*
X9515345Y-12949111D02*
X9524869Y-12987206D01*
X9524869Y-12987206D02*
X9524869Y-13034825D01*
X9524869Y-13034825D02*
X9515345Y-13072921D01*
X9515345Y-13072921D02*
X9505822Y-13091968D01*
X9505822Y-13091968D02*
X9496298Y-13101492D01*
X9496298Y-13101492D02*
X9477250Y-13111016D01*
X9477250Y-13111016D02*
X9458203Y-13111016D01*
X9458203Y-13111016D02*
X9439155Y-13101492D01*
X9439155Y-13101492D02*
X9429631Y-13091968D01*
X9429631Y-13091968D02*
X9420107Y-13072921D01*
X9420107Y-13072921D02*
X9410584Y-13034825D01*
X9410584Y-13034825D02*
X9410584Y-12987206D01*
X9410584Y-12987206D02*
X9420107Y-12949111D01*
X9420107Y-12949111D02*
X9429631Y-12930064D01*
X9429631Y-12930064D02*
X9439155Y-12920540D01*
X9439155Y-12920540D02*
X9458203Y-12911016D01*
X9610584Y-13111016D02*
X9610584Y-12977683D01*
X9610584Y-12996730D02*
X9620107Y-12987206D01*
X9620107Y-12987206D02*
X9639155Y-12977683D01*
X9639155Y-12977683D02*
X9667726Y-12977683D01*
X9667726Y-12977683D02*
X9686774Y-12987206D01*
X9686774Y-12987206D02*
X9696298Y-13006254D01*
X9696298Y-13006254D02*
X9696298Y-13111016D01*
X9696298Y-13006254D02*
X9705822Y-12987206D01*
X9705822Y-12987206D02*
X9724869Y-12977683D01*
X9724869Y-12977683D02*
X9753441Y-12977683D01*
X9753441Y-12977683D02*
X9772488Y-12987206D01*
X9772488Y-12987206D02*
X9782012Y-13006254D01*
X9782012Y-13006254D02*
X9782012Y-13111016D01*
X9877250Y-13111016D02*
X9877250Y-12977683D01*
X9877250Y-12996730D02*
X9886774Y-12987206D01*
X9886774Y-12987206D02*
X9905822Y-12977683D01*
X9905822Y-12977683D02*
X9934393Y-12977683D01*
X9934393Y-12977683D02*
X9953441Y-12987206D01*
X9953441Y-12987206D02*
X9962965Y-13006254D01*
X9962965Y-13006254D02*
X9962965Y-13111016D01*
X9962965Y-13006254D02*
X9972488Y-12987206D01*
X9972488Y-12987206D02*
X9991536Y-12977683D01*
X9991536Y-12977683D02*
X10020107Y-12977683D01*
X10020107Y-12977683D02*
X10039155Y-12987206D01*
X10039155Y-12987206D02*
X10048679Y-13006254D01*
X10048679Y-13006254D02*
X10048679Y-13111016D01*
X10439155Y-12901492D02*
X10267727Y-13158635D01*
X10696298Y-12911016D02*
X10715346Y-12911016D01*
X10715346Y-12911016D02*
X10734393Y-12920540D01*
X10734393Y-12920540D02*
X10743917Y-12930064D01*
X10743917Y-12930064D02*
X10753441Y-12949111D01*
X10753441Y-12949111D02*
X10762965Y-12987206D01*
X10762965Y-12987206D02*
X10762965Y-13034825D01*
X10762965Y-13034825D02*
X10753441Y-13072921D01*
X10753441Y-13072921D02*
X10743917Y-13091968D01*
X10743917Y-13091968D02*
X10734393Y-13101492D01*
X10734393Y-13101492D02*
X10715346Y-13111016D01*
X10715346Y-13111016D02*
X10696298Y-13111016D01*
X10696298Y-13111016D02*
X10677250Y-13101492D01*
X10677250Y-13101492D02*
X10667727Y-13091968D01*
X10667727Y-13091968D02*
X10658203Y-13072921D01*
X10658203Y-13072921D02*
X10648679Y-13034825D01*
X10648679Y-13034825D02*
X10648679Y-12987206D01*
X10648679Y-12987206D02*
X10658203Y-12949111D01*
X10658203Y-12949111D02*
X10667727Y-12930064D01*
X10667727Y-12930064D02*
X10677250Y-12920540D01*
X10677250Y-12920540D02*
X10696298Y-12911016D01*
X10848679Y-13091968D02*
X10858203Y-13101492D01*
X10858203Y-13101492D02*
X10848679Y-13111016D01*
X10848679Y-13111016D02*
X10839155Y-13101492D01*
X10839155Y-13101492D02*
X10848679Y-13091968D01*
X10848679Y-13091968D02*
X10848679Y-13111016D01*
X10982012Y-12911016D02*
X11001060Y-12911016D01*
X11001060Y-12911016D02*
X11020108Y-12920540D01*
X11020108Y-12920540D02*
X11029631Y-12930064D01*
X11029631Y-12930064D02*
X11039155Y-12949111D01*
X11039155Y-12949111D02*
X11048679Y-12987206D01*
X11048679Y-12987206D02*
X11048679Y-13034825D01*
X11048679Y-13034825D02*
X11039155Y-13072921D01*
X11039155Y-13072921D02*
X11029631Y-13091968D01*
X11029631Y-13091968D02*
X11020108Y-13101492D01*
X11020108Y-13101492D02*
X11001060Y-13111016D01*
X11001060Y-13111016D02*
X10982012Y-13111016D01*
X10982012Y-13111016D02*
X10962965Y-13101492D01*
X10962965Y-13101492D02*
X10953441Y-13091968D01*
X10953441Y-13091968D02*
X10943917Y-13072921D01*
X10943917Y-13072921D02*
X10934393Y-13034825D01*
X10934393Y-13034825D02*
X10934393Y-12987206D01*
X10934393Y-12987206D02*
X10943917Y-12949111D01*
X10943917Y-12949111D02*
X10953441Y-12930064D01*
X10953441Y-12930064D02*
X10962965Y-12920540D01*
X10962965Y-12920540D02*
X10982012Y-12911016D01*
X11239155Y-13111016D02*
X11124869Y-13111016D01*
X11182012Y-13111016D02*
X11182012Y-12911016D01*
X11182012Y-12911016D02*
X11162965Y-12939587D01*
X11162965Y-12939587D02*
X11143917Y-12958635D01*
X11143917Y-12958635D02*
X11124869Y-12968159D01*
X11420107Y-12911016D02*
X11324869Y-12911016D01*
X11324869Y-12911016D02*
X11315346Y-13006254D01*
X11315346Y-13006254D02*
X11324869Y-12996730D01*
X11324869Y-12996730D02*
X11343917Y-12987206D01*
X11343917Y-12987206D02*
X11391536Y-12987206D01*
X11391536Y-12987206D02*
X11410584Y-12996730D01*
X11410584Y-12996730D02*
X11420107Y-13006254D01*
X11420107Y-13006254D02*
X11429631Y-13025302D01*
X11429631Y-13025302D02*
X11429631Y-13072921D01*
X11429631Y-13072921D02*
X11420107Y-13091968D01*
X11420107Y-13091968D02*
X11410584Y-13101492D01*
X11410584Y-13101492D02*
X11391536Y-13111016D01*
X11391536Y-13111016D02*
X11343917Y-13111016D01*
X11343917Y-13111016D02*
X11324869Y-13101492D01*
X11324869Y-13101492D02*
X11315346Y-13091968D01*
X11496298Y-12911016D02*
X11629631Y-12911016D01*
X11629631Y-12911016D02*
X11543917Y-13111016D01*
X11696298Y-12911016D02*
X11696298Y-12949111D01*
X11772488Y-12911016D02*
X11772488Y-12949111D01*
X12067727Y-13187206D02*
X12058203Y-13177683D01*
X12058203Y-13177683D02*
X12039155Y-13149111D01*
X12039155Y-13149111D02*
X12029631Y-13130064D01*
X12029631Y-13130064D02*
X12020108Y-13101492D01*
X12020108Y-13101492D02*
X12010584Y-13053873D01*
X12010584Y-13053873D02*
X12010584Y-13015778D01*
X12010584Y-13015778D02*
X12020108Y-12968159D01*
X12020108Y-12968159D02*
X12029631Y-12939587D01*
X12029631Y-12939587D02*
X12039155Y-12920540D01*
X12039155Y-12920540D02*
X12058203Y-12891968D01*
X12058203Y-12891968D02*
X12067727Y-12882444D01*
X12124869Y-12911016D02*
X12248679Y-12911016D01*
X12248679Y-12911016D02*
X12182012Y-12987206D01*
X12182012Y-12987206D02*
X12210584Y-12987206D01*
X12210584Y-12987206D02*
X12229631Y-12996730D01*
X12229631Y-12996730D02*
X12239155Y-13006254D01*
X12239155Y-13006254D02*
X12248679Y-13025302D01*
X12248679Y-13025302D02*
X12248679Y-13072921D01*
X12248679Y-13072921D02*
X12239155Y-13091968D01*
X12239155Y-13091968D02*
X12229631Y-13101492D01*
X12229631Y-13101492D02*
X12210584Y-13111016D01*
X12210584Y-13111016D02*
X12153441Y-13111016D01*
X12153441Y-13111016D02*
X12134393Y-13101492D01*
X12134393Y-13101492D02*
X12124869Y-13091968D01*
X12420108Y-12911016D02*
X12382012Y-12911016D01*
X12382012Y-12911016D02*
X12362965Y-12920540D01*
X12362965Y-12920540D02*
X12353441Y-12930064D01*
X12353441Y-12930064D02*
X12334393Y-12958635D01*
X12334393Y-12958635D02*
X12324869Y-12996730D01*
X12324869Y-12996730D02*
X12324869Y-13072921D01*
X12324869Y-13072921D02*
X12334393Y-13091968D01*
X12334393Y-13091968D02*
X12343917Y-13101492D01*
X12343917Y-13101492D02*
X12362965Y-13111016D01*
X12362965Y-13111016D02*
X12401060Y-13111016D01*
X12401060Y-13111016D02*
X12420108Y-13101492D01*
X12420108Y-13101492D02*
X12429631Y-13091968D01*
X12429631Y-13091968D02*
X12439155Y-13072921D01*
X12439155Y-13072921D02*
X12439155Y-13025302D01*
X12439155Y-13025302D02*
X12429631Y-13006254D01*
X12429631Y-13006254D02*
X12420108Y-12996730D01*
X12420108Y-12996730D02*
X12401060Y-12987206D01*
X12401060Y-12987206D02*
X12362965Y-12987206D01*
X12362965Y-12987206D02*
X12343917Y-12996730D01*
X12343917Y-12996730D02*
X12334393Y-13006254D01*
X12334393Y-13006254D02*
X12324869Y-13025302D01*
X12677250Y-13111016D02*
X12677250Y-12911016D01*
X12762965Y-13111016D02*
X12762965Y-13006254D01*
X12762965Y-13006254D02*
X12753441Y-12987206D01*
X12753441Y-12987206D02*
X12734393Y-12977683D01*
X12734393Y-12977683D02*
X12705822Y-12977683D01*
X12705822Y-12977683D02*
X12686774Y-12987206D01*
X12686774Y-12987206D02*
X12677250Y-12996730D01*
X12886774Y-13111016D02*
X12867727Y-13101492D01*
X12867727Y-13101492D02*
X12858203Y-13091968D01*
X12858203Y-13091968D02*
X12848679Y-13072921D01*
X12848679Y-13072921D02*
X12848679Y-13015778D01*
X12848679Y-13015778D02*
X12858203Y-12996730D01*
X12858203Y-12996730D02*
X12867727Y-12987206D01*
X12867727Y-12987206D02*
X12886774Y-12977683D01*
X12886774Y-12977683D02*
X12915346Y-12977683D01*
X12915346Y-12977683D02*
X12934393Y-12987206D01*
X12934393Y-12987206D02*
X12943917Y-12996730D01*
X12943917Y-12996730D02*
X12953441Y-13015778D01*
X12953441Y-13015778D02*
X12953441Y-13072921D01*
X12953441Y-13072921D02*
X12943917Y-13091968D01*
X12943917Y-13091968D02*
X12934393Y-13101492D01*
X12934393Y-13101492D02*
X12915346Y-13111016D01*
X12915346Y-13111016D02*
X12886774Y-13111016D01*
X13067727Y-13111016D02*
X13048679Y-13101492D01*
X13048679Y-13101492D02*
X13039155Y-13082444D01*
X13039155Y-13082444D02*
X13039155Y-12911016D01*
X13220108Y-13101492D02*
X13201060Y-13111016D01*
X13201060Y-13111016D02*
X13162965Y-13111016D01*
X13162965Y-13111016D02*
X13143917Y-13101492D01*
X13143917Y-13101492D02*
X13134393Y-13082444D01*
X13134393Y-13082444D02*
X13134393Y-13006254D01*
X13134393Y-13006254D02*
X13143917Y-12987206D01*
X13143917Y-12987206D02*
X13162965Y-12977683D01*
X13162965Y-12977683D02*
X13201060Y-12977683D01*
X13201060Y-12977683D02*
X13220108Y-12987206D01*
X13220108Y-12987206D02*
X13229631Y-13006254D01*
X13229631Y-13006254D02*
X13229631Y-13025302D01*
X13229631Y-13025302D02*
X13134393Y-13044349D01*
X13305822Y-13101492D02*
X13324870Y-13111016D01*
X13324870Y-13111016D02*
X13362965Y-13111016D01*
X13362965Y-13111016D02*
X13382012Y-13101492D01*
X13382012Y-13101492D02*
X13391536Y-13082444D01*
X13391536Y-13082444D02*
X13391536Y-13072921D01*
X13391536Y-13072921D02*
X13382012Y-13053873D01*
X13382012Y-13053873D02*
X13362965Y-13044349D01*
X13362965Y-13044349D02*
X13334393Y-13044349D01*
X13334393Y-13044349D02*
X13315346Y-13034825D01*
X13315346Y-13034825D02*
X13305822Y-13015778D01*
X13305822Y-13015778D02*
X13305822Y-13006254D01*
X13305822Y-13006254D02*
X13315346Y-12987206D01*
X13315346Y-12987206D02*
X13334393Y-12977683D01*
X13334393Y-12977683D02*
X13362965Y-12977683D01*
X13362965Y-12977683D02*
X13382012Y-12987206D01*
X13458203Y-13187206D02*
X13467727Y-13177683D01*
X13467727Y-13177683D02*
X13486774Y-13149111D01*
X13486774Y-13149111D02*
X13496298Y-13130064D01*
X13496298Y-13130064D02*
X13505822Y-13101492D01*
X13505822Y-13101492D02*
X13515346Y-13053873D01*
X13515346Y-13053873D02*
X13515346Y-13015778D01*
X13515346Y-13015778D02*
X13505822Y-12968159D01*
X13505822Y-12968159D02*
X13496298Y-12939587D01*
X13496298Y-12939587D02*
X13486774Y-12920540D01*
X13486774Y-12920540D02*
X13467727Y-12891968D01*
X13467727Y-12891968D02*
X13458203Y-12882444D01*
D11*
X8492664Y-13283532D02*
G75*
G02*
X8417664Y-13283532I-37500J0D01*
G01*
X8417664Y-13283532D02*
G75*
G02*
X8492664Y-13283532I37500J0D01*
G01*
D10*
X8791536Y-13175016D02*
X8810584Y-13175016D01*
X8810584Y-13175016D02*
X8829631Y-13184540D01*
X8829631Y-13184540D02*
X8839155Y-13194064D01*
X8839155Y-13194064D02*
X8848679Y-13213111D01*
X8848679Y-13213111D02*
X8858203Y-13251206D01*
X8858203Y-13251206D02*
X8858203Y-13298825D01*
X8858203Y-13298825D02*
X8848679Y-13336921D01*
X8848679Y-13336921D02*
X8839155Y-13355968D01*
X8839155Y-13355968D02*
X8829631Y-13365492D01*
X8829631Y-13365492D02*
X8810584Y-13375016D01*
X8810584Y-13375016D02*
X8791536Y-13375016D01*
X8791536Y-13375016D02*
X8772488Y-13365492D01*
X8772488Y-13365492D02*
X8762964Y-13355968D01*
X8762964Y-13355968D02*
X8753441Y-13336921D01*
X8753441Y-13336921D02*
X8743917Y-13298825D01*
X8743917Y-13298825D02*
X8743917Y-13251206D01*
X8743917Y-13251206D02*
X8753441Y-13213111D01*
X8753441Y-13213111D02*
X8762964Y-13194064D01*
X8762964Y-13194064D02*
X8772488Y-13184540D01*
X8772488Y-13184540D02*
X8791536Y-13175016D01*
X8943917Y-13355968D02*
X8953441Y-13365492D01*
X8953441Y-13365492D02*
X8943917Y-13375016D01*
X8943917Y-13375016D02*
X8934393Y-13365492D01*
X8934393Y-13365492D02*
X8943917Y-13355968D01*
X8943917Y-13355968D02*
X8943917Y-13375016D01*
X9020107Y-13175016D02*
X9153441Y-13175016D01*
X9153441Y-13175016D02*
X9067726Y-13375016D01*
X9324869Y-13175016D02*
X9229631Y-13175016D01*
X9229631Y-13175016D02*
X9220107Y-13270254D01*
X9220107Y-13270254D02*
X9229631Y-13260730D01*
X9229631Y-13260730D02*
X9248679Y-13251206D01*
X9248679Y-13251206D02*
X9296298Y-13251206D01*
X9296298Y-13251206D02*
X9315345Y-13260730D01*
X9315345Y-13260730D02*
X9324869Y-13270254D01*
X9324869Y-13270254D02*
X9334393Y-13289302D01*
X9334393Y-13289302D02*
X9334393Y-13336921D01*
X9334393Y-13336921D02*
X9324869Y-13355968D01*
X9324869Y-13355968D02*
X9315345Y-13365492D01*
X9315345Y-13365492D02*
X9296298Y-13375016D01*
X9296298Y-13375016D02*
X9248679Y-13375016D01*
X9248679Y-13375016D02*
X9229631Y-13365492D01*
X9229631Y-13365492D02*
X9220107Y-13355968D01*
X9458203Y-13175016D02*
X9477250Y-13175016D01*
X9477250Y-13175016D02*
X9496298Y-13184540D01*
X9496298Y-13184540D02*
X9505822Y-13194064D01*
X9505822Y-13194064D02*
X9515345Y-13213111D01*
X9515345Y-13213111D02*
X9524869Y-13251206D01*
X9524869Y-13251206D02*
X9524869Y-13298825D01*
X9524869Y-13298825D02*
X9515345Y-13336921D01*
X9515345Y-13336921D02*
X9505822Y-13355968D01*
X9505822Y-13355968D02*
X9496298Y-13365492D01*
X9496298Y-13365492D02*
X9477250Y-13375016D01*
X9477250Y-13375016D02*
X9458203Y-13375016D01*
X9458203Y-13375016D02*
X9439155Y-13365492D01*
X9439155Y-13365492D02*
X9429631Y-13355968D01*
X9429631Y-13355968D02*
X9420107Y-13336921D01*
X9420107Y-13336921D02*
X9410584Y-13298825D01*
X9410584Y-13298825D02*
X9410584Y-13251206D01*
X9410584Y-13251206D02*
X9420107Y-13213111D01*
X9420107Y-13213111D02*
X9429631Y-13194064D01*
X9429631Y-13194064D02*
X9439155Y-13184540D01*
X9439155Y-13184540D02*
X9458203Y-13175016D01*
X9610584Y-13375016D02*
X9610584Y-13241683D01*
X9610584Y-13260730D02*
X9620107Y-13251206D01*
X9620107Y-13251206D02*
X9639155Y-13241683D01*
X9639155Y-13241683D02*
X9667726Y-13241683D01*
X9667726Y-13241683D02*
X9686774Y-13251206D01*
X9686774Y-13251206D02*
X9696298Y-13270254D01*
X9696298Y-13270254D02*
X9696298Y-13375016D01*
X9696298Y-13270254D02*
X9705822Y-13251206D01*
X9705822Y-13251206D02*
X9724869Y-13241683D01*
X9724869Y-13241683D02*
X9753441Y-13241683D01*
X9753441Y-13241683D02*
X9772488Y-13251206D01*
X9772488Y-13251206D02*
X9782012Y-13270254D01*
X9782012Y-13270254D02*
X9782012Y-13375016D01*
X9877250Y-13375016D02*
X9877250Y-13241683D01*
X9877250Y-13260730D02*
X9886774Y-13251206D01*
X9886774Y-13251206D02*
X9905822Y-13241683D01*
X9905822Y-13241683D02*
X9934393Y-13241683D01*
X9934393Y-13241683D02*
X9953441Y-13251206D01*
X9953441Y-13251206D02*
X9962965Y-13270254D01*
X9962965Y-13270254D02*
X9962965Y-13375016D01*
X9962965Y-13270254D02*
X9972488Y-13251206D01*
X9972488Y-13251206D02*
X9991536Y-13241683D01*
X9991536Y-13241683D02*
X10020107Y-13241683D01*
X10020107Y-13241683D02*
X10039155Y-13251206D01*
X10039155Y-13251206D02*
X10048679Y-13270254D01*
X10048679Y-13270254D02*
X10048679Y-13375016D01*
X10439155Y-13165492D02*
X10267727Y-13422635D01*
X10696298Y-13175016D02*
X10715346Y-13175016D01*
X10715346Y-13175016D02*
X10734393Y-13184540D01*
X10734393Y-13184540D02*
X10743917Y-13194064D01*
X10743917Y-13194064D02*
X10753441Y-13213111D01*
X10753441Y-13213111D02*
X10762965Y-13251206D01*
X10762965Y-13251206D02*
X10762965Y-13298825D01*
X10762965Y-13298825D02*
X10753441Y-13336921D01*
X10753441Y-13336921D02*
X10743917Y-13355968D01*
X10743917Y-13355968D02*
X10734393Y-13365492D01*
X10734393Y-13365492D02*
X10715346Y-13375016D01*
X10715346Y-13375016D02*
X10696298Y-13375016D01*
X10696298Y-13375016D02*
X10677250Y-13365492D01*
X10677250Y-13365492D02*
X10667727Y-13355968D01*
X10667727Y-13355968D02*
X10658203Y-13336921D01*
X10658203Y-13336921D02*
X10648679Y-13298825D01*
X10648679Y-13298825D02*
X10648679Y-13251206D01*
X10648679Y-13251206D02*
X10658203Y-13213111D01*
X10658203Y-13213111D02*
X10667727Y-13194064D01*
X10667727Y-13194064D02*
X10677250Y-13184540D01*
X10677250Y-13184540D02*
X10696298Y-13175016D01*
X10848679Y-13355968D02*
X10858203Y-13365492D01*
X10858203Y-13365492D02*
X10848679Y-13375016D01*
X10848679Y-13375016D02*
X10839155Y-13365492D01*
X10839155Y-13365492D02*
X10848679Y-13355968D01*
X10848679Y-13355968D02*
X10848679Y-13375016D01*
X10982012Y-13175016D02*
X11001060Y-13175016D01*
X11001060Y-13175016D02*
X11020108Y-13184540D01*
X11020108Y-13184540D02*
X11029631Y-13194064D01*
X11029631Y-13194064D02*
X11039155Y-13213111D01*
X11039155Y-13213111D02*
X11048679Y-13251206D01*
X11048679Y-13251206D02*
X11048679Y-13298825D01*
X11048679Y-13298825D02*
X11039155Y-13336921D01*
X11039155Y-13336921D02*
X11029631Y-13355968D01*
X11029631Y-13355968D02*
X11020108Y-13365492D01*
X11020108Y-13365492D02*
X11001060Y-13375016D01*
X11001060Y-13375016D02*
X10982012Y-13375016D01*
X10982012Y-13375016D02*
X10962965Y-13365492D01*
X10962965Y-13365492D02*
X10953441Y-13355968D01*
X10953441Y-13355968D02*
X10943917Y-13336921D01*
X10943917Y-13336921D02*
X10934393Y-13298825D01*
X10934393Y-13298825D02*
X10934393Y-13251206D01*
X10934393Y-13251206D02*
X10943917Y-13213111D01*
X10943917Y-13213111D02*
X10953441Y-13194064D01*
X10953441Y-13194064D02*
X10962965Y-13184540D01*
X10962965Y-13184540D02*
X10982012Y-13175016D01*
X11124869Y-13194064D02*
X11134393Y-13184540D01*
X11134393Y-13184540D02*
X11153441Y-13175016D01*
X11153441Y-13175016D02*
X11201060Y-13175016D01*
X11201060Y-13175016D02*
X11220107Y-13184540D01*
X11220107Y-13184540D02*
X11229631Y-13194064D01*
X11229631Y-13194064D02*
X11239155Y-13213111D01*
X11239155Y-13213111D02*
X11239155Y-13232159D01*
X11239155Y-13232159D02*
X11229631Y-13260730D01*
X11229631Y-13260730D02*
X11115346Y-13375016D01*
X11115346Y-13375016D02*
X11239155Y-13375016D01*
X11334393Y-13375016D02*
X11372488Y-13375016D01*
X11372488Y-13375016D02*
X11391536Y-13365492D01*
X11391536Y-13365492D02*
X11401060Y-13355968D01*
X11401060Y-13355968D02*
X11420107Y-13327397D01*
X11420107Y-13327397D02*
X11429631Y-13289302D01*
X11429631Y-13289302D02*
X11429631Y-13213111D01*
X11429631Y-13213111D02*
X11420107Y-13194064D01*
X11420107Y-13194064D02*
X11410584Y-13184540D01*
X11410584Y-13184540D02*
X11391536Y-13175016D01*
X11391536Y-13175016D02*
X11353441Y-13175016D01*
X11353441Y-13175016D02*
X11334393Y-13184540D01*
X11334393Y-13184540D02*
X11324869Y-13194064D01*
X11324869Y-13194064D02*
X11315346Y-13213111D01*
X11315346Y-13213111D02*
X11315346Y-13260730D01*
X11315346Y-13260730D02*
X11324869Y-13279778D01*
X11324869Y-13279778D02*
X11334393Y-13289302D01*
X11334393Y-13289302D02*
X11353441Y-13298825D01*
X11353441Y-13298825D02*
X11391536Y-13298825D01*
X11391536Y-13298825D02*
X11410584Y-13289302D01*
X11410584Y-13289302D02*
X11420107Y-13279778D01*
X11420107Y-13279778D02*
X11429631Y-13260730D01*
X11610584Y-13175016D02*
X11515346Y-13175016D01*
X11515346Y-13175016D02*
X11505822Y-13270254D01*
X11505822Y-13270254D02*
X11515346Y-13260730D01*
X11515346Y-13260730D02*
X11534393Y-13251206D01*
X11534393Y-13251206D02*
X11582012Y-13251206D01*
X11582012Y-13251206D02*
X11601060Y-13260730D01*
X11601060Y-13260730D02*
X11610584Y-13270254D01*
X11610584Y-13270254D02*
X11620107Y-13289302D01*
X11620107Y-13289302D02*
X11620107Y-13336921D01*
X11620107Y-13336921D02*
X11610584Y-13355968D01*
X11610584Y-13355968D02*
X11601060Y-13365492D01*
X11601060Y-13365492D02*
X11582012Y-13375016D01*
X11582012Y-13375016D02*
X11534393Y-13375016D01*
X11534393Y-13375016D02*
X11515346Y-13365492D01*
X11515346Y-13365492D02*
X11505822Y-13355968D01*
X11696298Y-13175016D02*
X11696298Y-13213111D01*
X11772488Y-13175016D02*
X11772488Y-13213111D01*
X12067727Y-13451206D02*
X12058203Y-13441683D01*
X12058203Y-13441683D02*
X12039155Y-13413111D01*
X12039155Y-13413111D02*
X12029631Y-13394064D01*
X12029631Y-13394064D02*
X12020108Y-13365492D01*
X12020108Y-13365492D02*
X12010584Y-13317873D01*
X12010584Y-13317873D02*
X12010584Y-13279778D01*
X12010584Y-13279778D02*
X12020108Y-13232159D01*
X12020108Y-13232159D02*
X12029631Y-13203587D01*
X12029631Y-13203587D02*
X12039155Y-13184540D01*
X12039155Y-13184540D02*
X12058203Y-13155968D01*
X12058203Y-13155968D02*
X12067727Y-13146444D01*
X12124869Y-13175016D02*
X12248679Y-13175016D01*
X12248679Y-13175016D02*
X12182012Y-13251206D01*
X12182012Y-13251206D02*
X12210584Y-13251206D01*
X12210584Y-13251206D02*
X12229631Y-13260730D01*
X12229631Y-13260730D02*
X12239155Y-13270254D01*
X12239155Y-13270254D02*
X12248679Y-13289302D01*
X12248679Y-13289302D02*
X12248679Y-13336921D01*
X12248679Y-13336921D02*
X12239155Y-13355968D01*
X12239155Y-13355968D02*
X12229631Y-13365492D01*
X12229631Y-13365492D02*
X12210584Y-13375016D01*
X12210584Y-13375016D02*
X12153441Y-13375016D01*
X12153441Y-13375016D02*
X12134393Y-13365492D01*
X12134393Y-13365492D02*
X12124869Y-13355968D01*
X12486774Y-13375016D02*
X12486774Y-13175016D01*
X12572489Y-13375016D02*
X12572489Y-13270254D01*
X12572489Y-13270254D02*
X12562965Y-13251206D01*
X12562965Y-13251206D02*
X12543917Y-13241683D01*
X12543917Y-13241683D02*
X12515346Y-13241683D01*
X12515346Y-13241683D02*
X12496298Y-13251206D01*
X12496298Y-13251206D02*
X12486774Y-13260730D01*
X12696298Y-13375016D02*
X12677250Y-13365492D01*
X12677250Y-13365492D02*
X12667727Y-13355968D01*
X12667727Y-13355968D02*
X12658203Y-13336921D01*
X12658203Y-13336921D02*
X12658203Y-13279778D01*
X12658203Y-13279778D02*
X12667727Y-13260730D01*
X12667727Y-13260730D02*
X12677250Y-13251206D01*
X12677250Y-13251206D02*
X12696298Y-13241683D01*
X12696298Y-13241683D02*
X12724870Y-13241683D01*
X12724870Y-13241683D02*
X12743917Y-13251206D01*
X12743917Y-13251206D02*
X12753441Y-13260730D01*
X12753441Y-13260730D02*
X12762965Y-13279778D01*
X12762965Y-13279778D02*
X12762965Y-13336921D01*
X12762965Y-13336921D02*
X12753441Y-13355968D01*
X12753441Y-13355968D02*
X12743917Y-13365492D01*
X12743917Y-13365492D02*
X12724870Y-13375016D01*
X12724870Y-13375016D02*
X12696298Y-13375016D01*
X12877250Y-13375016D02*
X12858203Y-13365492D01*
X12858203Y-13365492D02*
X12848679Y-13346444D01*
X12848679Y-13346444D02*
X12848679Y-13175016D01*
X13029631Y-13365492D02*
X13010584Y-13375016D01*
X13010584Y-13375016D02*
X12972489Y-13375016D01*
X12972489Y-13375016D02*
X12953441Y-13365492D01*
X12953441Y-13365492D02*
X12943917Y-13346444D01*
X12943917Y-13346444D02*
X12943917Y-13270254D01*
X12943917Y-13270254D02*
X12953441Y-13251206D01*
X12953441Y-13251206D02*
X12972489Y-13241683D01*
X12972489Y-13241683D02*
X13010584Y-13241683D01*
X13010584Y-13241683D02*
X13029631Y-13251206D01*
X13029631Y-13251206D02*
X13039155Y-13270254D01*
X13039155Y-13270254D02*
X13039155Y-13289302D01*
X13039155Y-13289302D02*
X12943917Y-13308349D01*
X13115346Y-13365492D02*
X13134393Y-13375016D01*
X13134393Y-13375016D02*
X13172489Y-13375016D01*
X13172489Y-13375016D02*
X13191536Y-13365492D01*
X13191536Y-13365492D02*
X13201060Y-13346444D01*
X13201060Y-13346444D02*
X13201060Y-13336921D01*
X13201060Y-13336921D02*
X13191536Y-13317873D01*
X13191536Y-13317873D02*
X13172489Y-13308349D01*
X13172489Y-13308349D02*
X13143917Y-13308349D01*
X13143917Y-13308349D02*
X13124870Y-13298825D01*
X13124870Y-13298825D02*
X13115346Y-13279778D01*
X13115346Y-13279778D02*
X13115346Y-13270254D01*
X13115346Y-13270254D02*
X13124870Y-13251206D01*
X13124870Y-13251206D02*
X13143917Y-13241683D01*
X13143917Y-13241683D02*
X13172489Y-13241683D01*
X13172489Y-13241683D02*
X13191536Y-13251206D01*
X13267727Y-13451206D02*
X13277251Y-13441683D01*
X13277251Y-13441683D02*
X13296298Y-13413111D01*
X13296298Y-13413111D02*
X13305822Y-13394064D01*
X13305822Y-13394064D02*
X13315346Y-13365492D01*
X13315346Y-13365492D02*
X13324870Y-13317873D01*
X13324870Y-13317873D02*
X13324870Y-13279778D01*
X13324870Y-13279778D02*
X13315346Y-13232159D01*
X13315346Y-13232159D02*
X13305822Y-13203587D01*
X13305822Y-13203587D02*
X13296298Y-13184540D01*
X13296298Y-13184540D02*
X13277251Y-13155968D01*
X13277251Y-13155968D02*
X13267727Y-13146444D01*
D11*
X8452664Y-13507532D02*
X8452664Y-13587532D01*
X8412664Y-13547532D02*
X8492664Y-13547532D01*
D10*
X8791536Y-13439016D02*
X8810584Y-13439016D01*
X8810584Y-13439016D02*
X8829631Y-13448540D01*
X8829631Y-13448540D02*
X8839155Y-13458064D01*
X8839155Y-13458064D02*
X8848679Y-13477111D01*
X8848679Y-13477111D02*
X8858203Y-13515206D01*
X8858203Y-13515206D02*
X8858203Y-13562825D01*
X8858203Y-13562825D02*
X8848679Y-13600921D01*
X8848679Y-13600921D02*
X8839155Y-13619968D01*
X8839155Y-13619968D02*
X8829631Y-13629492D01*
X8829631Y-13629492D02*
X8810584Y-13639016D01*
X8810584Y-13639016D02*
X8791536Y-13639016D01*
X8791536Y-13639016D02*
X8772488Y-13629492D01*
X8772488Y-13629492D02*
X8762964Y-13619968D01*
X8762964Y-13619968D02*
X8753441Y-13600921D01*
X8753441Y-13600921D02*
X8743917Y-13562825D01*
X8743917Y-13562825D02*
X8743917Y-13515206D01*
X8743917Y-13515206D02*
X8753441Y-13477111D01*
X8753441Y-13477111D02*
X8762964Y-13458064D01*
X8762964Y-13458064D02*
X8772488Y-13448540D01*
X8772488Y-13448540D02*
X8791536Y-13439016D01*
X8943917Y-13619968D02*
X8953441Y-13629492D01*
X8953441Y-13629492D02*
X8943917Y-13639016D01*
X8943917Y-13639016D02*
X8934393Y-13629492D01*
X8934393Y-13629492D02*
X8943917Y-13619968D01*
X8943917Y-13619968D02*
X8943917Y-13639016D01*
X9067726Y-13524730D02*
X9048679Y-13515206D01*
X9048679Y-13515206D02*
X9039155Y-13505683D01*
X9039155Y-13505683D02*
X9029631Y-13486635D01*
X9029631Y-13486635D02*
X9029631Y-13477111D01*
X9029631Y-13477111D02*
X9039155Y-13458064D01*
X9039155Y-13458064D02*
X9048679Y-13448540D01*
X9048679Y-13448540D02*
X9067726Y-13439016D01*
X9067726Y-13439016D02*
X9105822Y-13439016D01*
X9105822Y-13439016D02*
X9124869Y-13448540D01*
X9124869Y-13448540D02*
X9134393Y-13458064D01*
X9134393Y-13458064D02*
X9143917Y-13477111D01*
X9143917Y-13477111D02*
X9143917Y-13486635D01*
X9143917Y-13486635D02*
X9134393Y-13505683D01*
X9134393Y-13505683D02*
X9124869Y-13515206D01*
X9124869Y-13515206D02*
X9105822Y-13524730D01*
X9105822Y-13524730D02*
X9067726Y-13524730D01*
X9067726Y-13524730D02*
X9048679Y-13534254D01*
X9048679Y-13534254D02*
X9039155Y-13543778D01*
X9039155Y-13543778D02*
X9029631Y-13562825D01*
X9029631Y-13562825D02*
X9029631Y-13600921D01*
X9029631Y-13600921D02*
X9039155Y-13619968D01*
X9039155Y-13619968D02*
X9048679Y-13629492D01*
X9048679Y-13629492D02*
X9067726Y-13639016D01*
X9067726Y-13639016D02*
X9105822Y-13639016D01*
X9105822Y-13639016D02*
X9124869Y-13629492D01*
X9124869Y-13629492D02*
X9134393Y-13619968D01*
X9134393Y-13619968D02*
X9143917Y-13600921D01*
X9143917Y-13600921D02*
X9143917Y-13562825D01*
X9143917Y-13562825D02*
X9134393Y-13543778D01*
X9134393Y-13543778D02*
X9124869Y-13534254D01*
X9124869Y-13534254D02*
X9105822Y-13524730D01*
X9267726Y-13439016D02*
X9286774Y-13439016D01*
X9286774Y-13439016D02*
X9305822Y-13448540D01*
X9305822Y-13448540D02*
X9315345Y-13458064D01*
X9315345Y-13458064D02*
X9324869Y-13477111D01*
X9324869Y-13477111D02*
X9334393Y-13515206D01*
X9334393Y-13515206D02*
X9334393Y-13562825D01*
X9334393Y-13562825D02*
X9324869Y-13600921D01*
X9324869Y-13600921D02*
X9315345Y-13619968D01*
X9315345Y-13619968D02*
X9305822Y-13629492D01*
X9305822Y-13629492D02*
X9286774Y-13639016D01*
X9286774Y-13639016D02*
X9267726Y-13639016D01*
X9267726Y-13639016D02*
X9248679Y-13629492D01*
X9248679Y-13629492D02*
X9239155Y-13619968D01*
X9239155Y-13619968D02*
X9229631Y-13600921D01*
X9229631Y-13600921D02*
X9220107Y-13562825D01*
X9220107Y-13562825D02*
X9220107Y-13515206D01*
X9220107Y-13515206D02*
X9229631Y-13477111D01*
X9229631Y-13477111D02*
X9239155Y-13458064D01*
X9239155Y-13458064D02*
X9248679Y-13448540D01*
X9248679Y-13448540D02*
X9267726Y-13439016D01*
X9458203Y-13439016D02*
X9477250Y-13439016D01*
X9477250Y-13439016D02*
X9496298Y-13448540D01*
X9496298Y-13448540D02*
X9505822Y-13458064D01*
X9505822Y-13458064D02*
X9515345Y-13477111D01*
X9515345Y-13477111D02*
X9524869Y-13515206D01*
X9524869Y-13515206D02*
X9524869Y-13562825D01*
X9524869Y-13562825D02*
X9515345Y-13600921D01*
X9515345Y-13600921D02*
X9505822Y-13619968D01*
X9505822Y-13619968D02*
X9496298Y-13629492D01*
X9496298Y-13629492D02*
X9477250Y-13639016D01*
X9477250Y-13639016D02*
X9458203Y-13639016D01*
X9458203Y-13639016D02*
X9439155Y-13629492D01*
X9439155Y-13629492D02*
X9429631Y-13619968D01*
X9429631Y-13619968D02*
X9420107Y-13600921D01*
X9420107Y-13600921D02*
X9410584Y-13562825D01*
X9410584Y-13562825D02*
X9410584Y-13515206D01*
X9410584Y-13515206D02*
X9420107Y-13477111D01*
X9420107Y-13477111D02*
X9429631Y-13458064D01*
X9429631Y-13458064D02*
X9439155Y-13448540D01*
X9439155Y-13448540D02*
X9458203Y-13439016D01*
X9610584Y-13639016D02*
X9610584Y-13505683D01*
X9610584Y-13524730D02*
X9620107Y-13515206D01*
X9620107Y-13515206D02*
X9639155Y-13505683D01*
X9639155Y-13505683D02*
X9667726Y-13505683D01*
X9667726Y-13505683D02*
X9686774Y-13515206D01*
X9686774Y-13515206D02*
X9696298Y-13534254D01*
X9696298Y-13534254D02*
X9696298Y-13639016D01*
X9696298Y-13534254D02*
X9705822Y-13515206D01*
X9705822Y-13515206D02*
X9724869Y-13505683D01*
X9724869Y-13505683D02*
X9753441Y-13505683D01*
X9753441Y-13505683D02*
X9772488Y-13515206D01*
X9772488Y-13515206D02*
X9782012Y-13534254D01*
X9782012Y-13534254D02*
X9782012Y-13639016D01*
X9877250Y-13639016D02*
X9877250Y-13505683D01*
X9877250Y-13524730D02*
X9886774Y-13515206D01*
X9886774Y-13515206D02*
X9905822Y-13505683D01*
X9905822Y-13505683D02*
X9934393Y-13505683D01*
X9934393Y-13505683D02*
X9953441Y-13515206D01*
X9953441Y-13515206D02*
X9962965Y-13534254D01*
X9962965Y-13534254D02*
X9962965Y-13639016D01*
X9962965Y-13534254D02*
X9972488Y-13515206D01*
X9972488Y-13515206D02*
X9991536Y-13505683D01*
X9991536Y-13505683D02*
X10020107Y-13505683D01*
X10020107Y-13505683D02*
X10039155Y-13515206D01*
X10039155Y-13515206D02*
X10048679Y-13534254D01*
X10048679Y-13534254D02*
X10048679Y-13639016D01*
X10439155Y-13429492D02*
X10267727Y-13686635D01*
X10696298Y-13439016D02*
X10715346Y-13439016D01*
X10715346Y-13439016D02*
X10734393Y-13448540D01*
X10734393Y-13448540D02*
X10743917Y-13458064D01*
X10743917Y-13458064D02*
X10753441Y-13477111D01*
X10753441Y-13477111D02*
X10762965Y-13515206D01*
X10762965Y-13515206D02*
X10762965Y-13562825D01*
X10762965Y-13562825D02*
X10753441Y-13600921D01*
X10753441Y-13600921D02*
X10743917Y-13619968D01*
X10743917Y-13619968D02*
X10734393Y-13629492D01*
X10734393Y-13629492D02*
X10715346Y-13639016D01*
X10715346Y-13639016D02*
X10696298Y-13639016D01*
X10696298Y-13639016D02*
X10677250Y-13629492D01*
X10677250Y-13629492D02*
X10667727Y-13619968D01*
X10667727Y-13619968D02*
X10658203Y-13600921D01*
X10658203Y-13600921D02*
X10648679Y-13562825D01*
X10648679Y-13562825D02*
X10648679Y-13515206D01*
X10648679Y-13515206D02*
X10658203Y-13477111D01*
X10658203Y-13477111D02*
X10667727Y-13458064D01*
X10667727Y-13458064D02*
X10677250Y-13448540D01*
X10677250Y-13448540D02*
X10696298Y-13439016D01*
X10848679Y-13619968D02*
X10858203Y-13629492D01*
X10858203Y-13629492D02*
X10848679Y-13639016D01*
X10848679Y-13639016D02*
X10839155Y-13629492D01*
X10839155Y-13629492D02*
X10848679Y-13619968D01*
X10848679Y-13619968D02*
X10848679Y-13639016D01*
X10982012Y-13439016D02*
X11001060Y-13439016D01*
X11001060Y-13439016D02*
X11020108Y-13448540D01*
X11020108Y-13448540D02*
X11029631Y-13458064D01*
X11029631Y-13458064D02*
X11039155Y-13477111D01*
X11039155Y-13477111D02*
X11048679Y-13515206D01*
X11048679Y-13515206D02*
X11048679Y-13562825D01*
X11048679Y-13562825D02*
X11039155Y-13600921D01*
X11039155Y-13600921D02*
X11029631Y-13619968D01*
X11029631Y-13619968D02*
X11020108Y-13629492D01*
X11020108Y-13629492D02*
X11001060Y-13639016D01*
X11001060Y-13639016D02*
X10982012Y-13639016D01*
X10982012Y-13639016D02*
X10962965Y-13629492D01*
X10962965Y-13629492D02*
X10953441Y-13619968D01*
X10953441Y-13619968D02*
X10943917Y-13600921D01*
X10943917Y-13600921D02*
X10934393Y-13562825D01*
X10934393Y-13562825D02*
X10934393Y-13515206D01*
X10934393Y-13515206D02*
X10943917Y-13477111D01*
X10943917Y-13477111D02*
X10953441Y-13458064D01*
X10953441Y-13458064D02*
X10962965Y-13448540D01*
X10962965Y-13448540D02*
X10982012Y-13439016D01*
X11115346Y-13439016D02*
X11239155Y-13439016D01*
X11239155Y-13439016D02*
X11172488Y-13515206D01*
X11172488Y-13515206D02*
X11201060Y-13515206D01*
X11201060Y-13515206D02*
X11220107Y-13524730D01*
X11220107Y-13524730D02*
X11229631Y-13534254D01*
X11229631Y-13534254D02*
X11239155Y-13553302D01*
X11239155Y-13553302D02*
X11239155Y-13600921D01*
X11239155Y-13600921D02*
X11229631Y-13619968D01*
X11229631Y-13619968D02*
X11220107Y-13629492D01*
X11220107Y-13629492D02*
X11201060Y-13639016D01*
X11201060Y-13639016D02*
X11143917Y-13639016D01*
X11143917Y-13639016D02*
X11124869Y-13629492D01*
X11124869Y-13629492D02*
X11115346Y-13619968D01*
X11429631Y-13639016D02*
X11315346Y-13639016D01*
X11372488Y-13639016D02*
X11372488Y-13439016D01*
X11372488Y-13439016D02*
X11353441Y-13467587D01*
X11353441Y-13467587D02*
X11334393Y-13486635D01*
X11334393Y-13486635D02*
X11315346Y-13496159D01*
X11610584Y-13439016D02*
X11515346Y-13439016D01*
X11515346Y-13439016D02*
X11505822Y-13534254D01*
X11505822Y-13534254D02*
X11515346Y-13524730D01*
X11515346Y-13524730D02*
X11534393Y-13515206D01*
X11534393Y-13515206D02*
X11582012Y-13515206D01*
X11582012Y-13515206D02*
X11601060Y-13524730D01*
X11601060Y-13524730D02*
X11610584Y-13534254D01*
X11610584Y-13534254D02*
X11620107Y-13553302D01*
X11620107Y-13553302D02*
X11620107Y-13600921D01*
X11620107Y-13600921D02*
X11610584Y-13619968D01*
X11610584Y-13619968D02*
X11601060Y-13629492D01*
X11601060Y-13629492D02*
X11582012Y-13639016D01*
X11582012Y-13639016D02*
X11534393Y-13639016D01*
X11534393Y-13639016D02*
X11515346Y-13629492D01*
X11515346Y-13629492D02*
X11505822Y-13619968D01*
X11696298Y-13439016D02*
X11696298Y-13477111D01*
X11772488Y-13439016D02*
X11772488Y-13477111D01*
X12067727Y-13715206D02*
X12058203Y-13705683D01*
X12058203Y-13705683D02*
X12039155Y-13677111D01*
X12039155Y-13677111D02*
X12029631Y-13658064D01*
X12029631Y-13658064D02*
X12020108Y-13629492D01*
X12020108Y-13629492D02*
X12010584Y-13581873D01*
X12010584Y-13581873D02*
X12010584Y-13543778D01*
X12010584Y-13543778D02*
X12020108Y-13496159D01*
X12020108Y-13496159D02*
X12029631Y-13467587D01*
X12029631Y-13467587D02*
X12039155Y-13448540D01*
X12039155Y-13448540D02*
X12058203Y-13419968D01*
X12058203Y-13419968D02*
X12067727Y-13410444D01*
X12229631Y-13439016D02*
X12191536Y-13439016D01*
X12191536Y-13439016D02*
X12172488Y-13448540D01*
X12172488Y-13448540D02*
X12162965Y-13458064D01*
X12162965Y-13458064D02*
X12143917Y-13486635D01*
X12143917Y-13486635D02*
X12134393Y-13524730D01*
X12134393Y-13524730D02*
X12134393Y-13600921D01*
X12134393Y-13600921D02*
X12143917Y-13619968D01*
X12143917Y-13619968D02*
X12153441Y-13629492D01*
X12153441Y-13629492D02*
X12172488Y-13639016D01*
X12172488Y-13639016D02*
X12210584Y-13639016D01*
X12210584Y-13639016D02*
X12229631Y-13629492D01*
X12229631Y-13629492D02*
X12239155Y-13619968D01*
X12239155Y-13619968D02*
X12248679Y-13600921D01*
X12248679Y-13600921D02*
X12248679Y-13553302D01*
X12248679Y-13553302D02*
X12239155Y-13534254D01*
X12239155Y-13534254D02*
X12229631Y-13524730D01*
X12229631Y-13524730D02*
X12210584Y-13515206D01*
X12210584Y-13515206D02*
X12172488Y-13515206D01*
X12172488Y-13515206D02*
X12153441Y-13524730D01*
X12153441Y-13524730D02*
X12143917Y-13534254D01*
X12143917Y-13534254D02*
X12134393Y-13553302D01*
X12486774Y-13639016D02*
X12486774Y-13439016D01*
X12572489Y-13639016D02*
X12572489Y-13534254D01*
X12572489Y-13534254D02*
X12562965Y-13515206D01*
X12562965Y-13515206D02*
X12543917Y-13505683D01*
X12543917Y-13505683D02*
X12515346Y-13505683D01*
X12515346Y-13505683D02*
X12496298Y-13515206D01*
X12496298Y-13515206D02*
X12486774Y-13524730D01*
X12696298Y-13639016D02*
X12677250Y-13629492D01*
X12677250Y-13629492D02*
X12667727Y-13619968D01*
X12667727Y-13619968D02*
X12658203Y-13600921D01*
X12658203Y-13600921D02*
X12658203Y-13543778D01*
X12658203Y-13543778D02*
X12667727Y-13524730D01*
X12667727Y-13524730D02*
X12677250Y-13515206D01*
X12677250Y-13515206D02*
X12696298Y-13505683D01*
X12696298Y-13505683D02*
X12724870Y-13505683D01*
X12724870Y-13505683D02*
X12743917Y-13515206D01*
X12743917Y-13515206D02*
X12753441Y-13524730D01*
X12753441Y-13524730D02*
X12762965Y-13543778D01*
X12762965Y-13543778D02*
X12762965Y-13600921D01*
X12762965Y-13600921D02*
X12753441Y-13619968D01*
X12753441Y-13619968D02*
X12743917Y-13629492D01*
X12743917Y-13629492D02*
X12724870Y-13639016D01*
X12724870Y-13639016D02*
X12696298Y-13639016D01*
X12877250Y-13639016D02*
X12858203Y-13629492D01*
X12858203Y-13629492D02*
X12848679Y-13610444D01*
X12848679Y-13610444D02*
X12848679Y-13439016D01*
X13029631Y-13629492D02*
X13010584Y-13639016D01*
X13010584Y-13639016D02*
X12972489Y-13639016D01*
X12972489Y-13639016D02*
X12953441Y-13629492D01*
X12953441Y-13629492D02*
X12943917Y-13610444D01*
X12943917Y-13610444D02*
X12943917Y-13534254D01*
X12943917Y-13534254D02*
X12953441Y-13515206D01*
X12953441Y-13515206D02*
X12972489Y-13505683D01*
X12972489Y-13505683D02*
X13010584Y-13505683D01*
X13010584Y-13505683D02*
X13029631Y-13515206D01*
X13029631Y-13515206D02*
X13039155Y-13534254D01*
X13039155Y-13534254D02*
X13039155Y-13553302D01*
X13039155Y-13553302D02*
X12943917Y-13572349D01*
X13115346Y-13629492D02*
X13134393Y-13639016D01*
X13134393Y-13639016D02*
X13172489Y-13639016D01*
X13172489Y-13639016D02*
X13191536Y-13629492D01*
X13191536Y-13629492D02*
X13201060Y-13610444D01*
X13201060Y-13610444D02*
X13201060Y-13600921D01*
X13201060Y-13600921D02*
X13191536Y-13581873D01*
X13191536Y-13581873D02*
X13172489Y-13572349D01*
X13172489Y-13572349D02*
X13143917Y-13572349D01*
X13143917Y-13572349D02*
X13124870Y-13562825D01*
X13124870Y-13562825D02*
X13115346Y-13543778D01*
X13115346Y-13543778D02*
X13115346Y-13534254D01*
X13115346Y-13534254D02*
X13124870Y-13515206D01*
X13124870Y-13515206D02*
X13143917Y-13505683D01*
X13143917Y-13505683D02*
X13172489Y-13505683D01*
X13172489Y-13505683D02*
X13191536Y-13515206D01*
X13267727Y-13715206D02*
X13277251Y-13705683D01*
X13277251Y-13705683D02*
X13296298Y-13677111D01*
X13296298Y-13677111D02*
X13305822Y-13658064D01*
X13305822Y-13658064D02*
X13315346Y-13629492D01*
X13315346Y-13629492D02*
X13324870Y-13581873D01*
X13324870Y-13581873D02*
X13324870Y-13543778D01*
X13324870Y-13543778D02*
X13315346Y-13496159D01*
X13315346Y-13496159D02*
X13305822Y-13467587D01*
X13305822Y-13467587D02*
X13296298Y-13448540D01*
X13296298Y-13448540D02*
X13277251Y-13419968D01*
X13277251Y-13419968D02*
X13267727Y-13410444D01*
D11*
X8478020Y-13846888D02*
X8478020Y-13776176D01*
X8407308Y-13776176D01*
X8407308Y-13846888D01*
X8478020Y-13846888D01*
D10*
X8858203Y-13903016D02*
X8743917Y-13903016D01*
X8801060Y-13903016D02*
X8801060Y-13703016D01*
X8801060Y-13703016D02*
X8782012Y-13731587D01*
X8782012Y-13731587D02*
X8762964Y-13750635D01*
X8762964Y-13750635D02*
X8743917Y-13760159D01*
X8943917Y-13883968D02*
X8953441Y-13893492D01*
X8953441Y-13893492D02*
X8943917Y-13903016D01*
X8943917Y-13903016D02*
X8934393Y-13893492D01*
X8934393Y-13893492D02*
X8943917Y-13883968D01*
X8943917Y-13883968D02*
X8943917Y-13903016D01*
X9077250Y-13703016D02*
X9096298Y-13703016D01*
X9096298Y-13703016D02*
X9115345Y-13712540D01*
X9115345Y-13712540D02*
X9124869Y-13722064D01*
X9124869Y-13722064D02*
X9134393Y-13741111D01*
X9134393Y-13741111D02*
X9143917Y-13779206D01*
X9143917Y-13779206D02*
X9143917Y-13826825D01*
X9143917Y-13826825D02*
X9134393Y-13864921D01*
X9134393Y-13864921D02*
X9124869Y-13883968D01*
X9124869Y-13883968D02*
X9115345Y-13893492D01*
X9115345Y-13893492D02*
X9096298Y-13903016D01*
X9096298Y-13903016D02*
X9077250Y-13903016D01*
X9077250Y-13903016D02*
X9058203Y-13893492D01*
X9058203Y-13893492D02*
X9048679Y-13883968D01*
X9048679Y-13883968D02*
X9039155Y-13864921D01*
X9039155Y-13864921D02*
X9029631Y-13826825D01*
X9029631Y-13826825D02*
X9029631Y-13779206D01*
X9029631Y-13779206D02*
X9039155Y-13741111D01*
X9039155Y-13741111D02*
X9048679Y-13722064D01*
X9048679Y-13722064D02*
X9058203Y-13712540D01*
X9058203Y-13712540D02*
X9077250Y-13703016D01*
X9267726Y-13703016D02*
X9286774Y-13703016D01*
X9286774Y-13703016D02*
X9305822Y-13712540D01*
X9305822Y-13712540D02*
X9315345Y-13722064D01*
X9315345Y-13722064D02*
X9324869Y-13741111D01*
X9324869Y-13741111D02*
X9334393Y-13779206D01*
X9334393Y-13779206D02*
X9334393Y-13826825D01*
X9334393Y-13826825D02*
X9324869Y-13864921D01*
X9324869Y-13864921D02*
X9315345Y-13883968D01*
X9315345Y-13883968D02*
X9305822Y-13893492D01*
X9305822Y-13893492D02*
X9286774Y-13903016D01*
X9286774Y-13903016D02*
X9267726Y-13903016D01*
X9267726Y-13903016D02*
X9248679Y-13893492D01*
X9248679Y-13893492D02*
X9239155Y-13883968D01*
X9239155Y-13883968D02*
X9229631Y-13864921D01*
X9229631Y-13864921D02*
X9220107Y-13826825D01*
X9220107Y-13826825D02*
X9220107Y-13779206D01*
X9220107Y-13779206D02*
X9229631Y-13741111D01*
X9229631Y-13741111D02*
X9239155Y-13722064D01*
X9239155Y-13722064D02*
X9248679Y-13712540D01*
X9248679Y-13712540D02*
X9267726Y-13703016D01*
X9458203Y-13703016D02*
X9477250Y-13703016D01*
X9477250Y-13703016D02*
X9496298Y-13712540D01*
X9496298Y-13712540D02*
X9505822Y-13722064D01*
X9505822Y-13722064D02*
X9515345Y-13741111D01*
X9515345Y-13741111D02*
X9524869Y-13779206D01*
X9524869Y-13779206D02*
X9524869Y-13826825D01*
X9524869Y-13826825D02*
X9515345Y-13864921D01*
X9515345Y-13864921D02*
X9505822Y-13883968D01*
X9505822Y-13883968D02*
X9496298Y-13893492D01*
X9496298Y-13893492D02*
X9477250Y-13903016D01*
X9477250Y-13903016D02*
X9458203Y-13903016D01*
X9458203Y-13903016D02*
X9439155Y-13893492D01*
X9439155Y-13893492D02*
X9429631Y-13883968D01*
X9429631Y-13883968D02*
X9420107Y-13864921D01*
X9420107Y-13864921D02*
X9410584Y-13826825D01*
X9410584Y-13826825D02*
X9410584Y-13779206D01*
X9410584Y-13779206D02*
X9420107Y-13741111D01*
X9420107Y-13741111D02*
X9429631Y-13722064D01*
X9429631Y-13722064D02*
X9439155Y-13712540D01*
X9439155Y-13712540D02*
X9458203Y-13703016D01*
X9610584Y-13903016D02*
X9610584Y-13769683D01*
X9610584Y-13788730D02*
X9620107Y-13779206D01*
X9620107Y-13779206D02*
X9639155Y-13769683D01*
X9639155Y-13769683D02*
X9667726Y-13769683D01*
X9667726Y-13769683D02*
X9686774Y-13779206D01*
X9686774Y-13779206D02*
X9696298Y-13798254D01*
X9696298Y-13798254D02*
X9696298Y-13903016D01*
X9696298Y-13798254D02*
X9705822Y-13779206D01*
X9705822Y-13779206D02*
X9724869Y-13769683D01*
X9724869Y-13769683D02*
X9753441Y-13769683D01*
X9753441Y-13769683D02*
X9772488Y-13779206D01*
X9772488Y-13779206D02*
X9782012Y-13798254D01*
X9782012Y-13798254D02*
X9782012Y-13903016D01*
X9877250Y-13903016D02*
X9877250Y-13769683D01*
X9877250Y-13788730D02*
X9886774Y-13779206D01*
X9886774Y-13779206D02*
X9905822Y-13769683D01*
X9905822Y-13769683D02*
X9934393Y-13769683D01*
X9934393Y-13769683D02*
X9953441Y-13779206D01*
X9953441Y-13779206D02*
X9962965Y-13798254D01*
X9962965Y-13798254D02*
X9962965Y-13903016D01*
X9962965Y-13798254D02*
X9972488Y-13779206D01*
X9972488Y-13779206D02*
X9991536Y-13769683D01*
X9991536Y-13769683D02*
X10020107Y-13769683D01*
X10020107Y-13769683D02*
X10039155Y-13779206D01*
X10039155Y-13779206D02*
X10048679Y-13798254D01*
X10048679Y-13798254D02*
X10048679Y-13903016D01*
X10439155Y-13693492D02*
X10267727Y-13950635D01*
X10696298Y-13703016D02*
X10715346Y-13703016D01*
X10715346Y-13703016D02*
X10734393Y-13712540D01*
X10734393Y-13712540D02*
X10743917Y-13722064D01*
X10743917Y-13722064D02*
X10753441Y-13741111D01*
X10753441Y-13741111D02*
X10762965Y-13779206D01*
X10762965Y-13779206D02*
X10762965Y-13826825D01*
X10762965Y-13826825D02*
X10753441Y-13864921D01*
X10753441Y-13864921D02*
X10743917Y-13883968D01*
X10743917Y-13883968D02*
X10734393Y-13893492D01*
X10734393Y-13893492D02*
X10715346Y-13903016D01*
X10715346Y-13903016D02*
X10696298Y-13903016D01*
X10696298Y-13903016D02*
X10677250Y-13893492D01*
X10677250Y-13893492D02*
X10667727Y-13883968D01*
X10667727Y-13883968D02*
X10658203Y-13864921D01*
X10658203Y-13864921D02*
X10648679Y-13826825D01*
X10648679Y-13826825D02*
X10648679Y-13779206D01*
X10648679Y-13779206D02*
X10658203Y-13741111D01*
X10658203Y-13741111D02*
X10667727Y-13722064D01*
X10667727Y-13722064D02*
X10677250Y-13712540D01*
X10677250Y-13712540D02*
X10696298Y-13703016D01*
X10848679Y-13883968D02*
X10858203Y-13893492D01*
X10858203Y-13893492D02*
X10848679Y-13903016D01*
X10848679Y-13903016D02*
X10839155Y-13893492D01*
X10839155Y-13893492D02*
X10848679Y-13883968D01*
X10848679Y-13883968D02*
X10848679Y-13903016D01*
X10982012Y-13703016D02*
X11001060Y-13703016D01*
X11001060Y-13703016D02*
X11020108Y-13712540D01*
X11020108Y-13712540D02*
X11029631Y-13722064D01*
X11029631Y-13722064D02*
X11039155Y-13741111D01*
X11039155Y-13741111D02*
X11048679Y-13779206D01*
X11048679Y-13779206D02*
X11048679Y-13826825D01*
X11048679Y-13826825D02*
X11039155Y-13864921D01*
X11039155Y-13864921D02*
X11029631Y-13883968D01*
X11029631Y-13883968D02*
X11020108Y-13893492D01*
X11020108Y-13893492D02*
X11001060Y-13903016D01*
X11001060Y-13903016D02*
X10982012Y-13903016D01*
X10982012Y-13903016D02*
X10962965Y-13893492D01*
X10962965Y-13893492D02*
X10953441Y-13883968D01*
X10953441Y-13883968D02*
X10943917Y-13864921D01*
X10943917Y-13864921D02*
X10934393Y-13826825D01*
X10934393Y-13826825D02*
X10934393Y-13779206D01*
X10934393Y-13779206D02*
X10943917Y-13741111D01*
X10943917Y-13741111D02*
X10953441Y-13722064D01*
X10953441Y-13722064D02*
X10962965Y-13712540D01*
X10962965Y-13712540D02*
X10982012Y-13703016D01*
X11115346Y-13703016D02*
X11239155Y-13703016D01*
X11239155Y-13703016D02*
X11172488Y-13779206D01*
X11172488Y-13779206D02*
X11201060Y-13779206D01*
X11201060Y-13779206D02*
X11220107Y-13788730D01*
X11220107Y-13788730D02*
X11229631Y-13798254D01*
X11229631Y-13798254D02*
X11239155Y-13817302D01*
X11239155Y-13817302D02*
X11239155Y-13864921D01*
X11239155Y-13864921D02*
X11229631Y-13883968D01*
X11229631Y-13883968D02*
X11220107Y-13893492D01*
X11220107Y-13893492D02*
X11201060Y-13903016D01*
X11201060Y-13903016D02*
X11143917Y-13903016D01*
X11143917Y-13903016D02*
X11124869Y-13893492D01*
X11124869Y-13893492D02*
X11115346Y-13883968D01*
X11334393Y-13903016D02*
X11372488Y-13903016D01*
X11372488Y-13903016D02*
X11391536Y-13893492D01*
X11391536Y-13893492D02*
X11401060Y-13883968D01*
X11401060Y-13883968D02*
X11420107Y-13855397D01*
X11420107Y-13855397D02*
X11429631Y-13817302D01*
X11429631Y-13817302D02*
X11429631Y-13741111D01*
X11429631Y-13741111D02*
X11420107Y-13722064D01*
X11420107Y-13722064D02*
X11410584Y-13712540D01*
X11410584Y-13712540D02*
X11391536Y-13703016D01*
X11391536Y-13703016D02*
X11353441Y-13703016D01*
X11353441Y-13703016D02*
X11334393Y-13712540D01*
X11334393Y-13712540D02*
X11324869Y-13722064D01*
X11324869Y-13722064D02*
X11315346Y-13741111D01*
X11315346Y-13741111D02*
X11315346Y-13788730D01*
X11315346Y-13788730D02*
X11324869Y-13807778D01*
X11324869Y-13807778D02*
X11334393Y-13817302D01*
X11334393Y-13817302D02*
X11353441Y-13826825D01*
X11353441Y-13826825D02*
X11391536Y-13826825D01*
X11391536Y-13826825D02*
X11410584Y-13817302D01*
X11410584Y-13817302D02*
X11420107Y-13807778D01*
X11420107Y-13807778D02*
X11429631Y-13788730D01*
X11601060Y-13769683D02*
X11601060Y-13903016D01*
X11553441Y-13693492D02*
X11505822Y-13836349D01*
X11505822Y-13836349D02*
X11629631Y-13836349D01*
X11696298Y-13703016D02*
X11696298Y-13741111D01*
X11772488Y-13703016D02*
X11772488Y-13741111D01*
X12067727Y-13979206D02*
X12058203Y-13969683D01*
X12058203Y-13969683D02*
X12039155Y-13941111D01*
X12039155Y-13941111D02*
X12029631Y-13922064D01*
X12029631Y-13922064D02*
X12020108Y-13893492D01*
X12020108Y-13893492D02*
X12010584Y-13845873D01*
X12010584Y-13845873D02*
X12010584Y-13807778D01*
X12010584Y-13807778D02*
X12020108Y-13760159D01*
X12020108Y-13760159D02*
X12029631Y-13731587D01*
X12029631Y-13731587D02*
X12039155Y-13712540D01*
X12039155Y-13712540D02*
X12058203Y-13683968D01*
X12058203Y-13683968D02*
X12067727Y-13674444D01*
X12134393Y-13722064D02*
X12143917Y-13712540D01*
X12143917Y-13712540D02*
X12162965Y-13703016D01*
X12162965Y-13703016D02*
X12210584Y-13703016D01*
X12210584Y-13703016D02*
X12229631Y-13712540D01*
X12229631Y-13712540D02*
X12239155Y-13722064D01*
X12239155Y-13722064D02*
X12248679Y-13741111D01*
X12248679Y-13741111D02*
X12248679Y-13760159D01*
X12248679Y-13760159D02*
X12239155Y-13788730D01*
X12239155Y-13788730D02*
X12124869Y-13903016D01*
X12124869Y-13903016D02*
X12248679Y-13903016D01*
X12486774Y-13903016D02*
X12486774Y-13703016D01*
X12572489Y-13903016D02*
X12572489Y-13798254D01*
X12572489Y-13798254D02*
X12562965Y-13779206D01*
X12562965Y-13779206D02*
X12543917Y-13769683D01*
X12543917Y-13769683D02*
X12515346Y-13769683D01*
X12515346Y-13769683D02*
X12496298Y-13779206D01*
X12496298Y-13779206D02*
X12486774Y-13788730D01*
X12696298Y-13903016D02*
X12677250Y-13893492D01*
X12677250Y-13893492D02*
X12667727Y-13883968D01*
X12667727Y-13883968D02*
X12658203Y-13864921D01*
X12658203Y-13864921D02*
X12658203Y-13807778D01*
X12658203Y-13807778D02*
X12667727Y-13788730D01*
X12667727Y-13788730D02*
X12677250Y-13779206D01*
X12677250Y-13779206D02*
X12696298Y-13769683D01*
X12696298Y-13769683D02*
X12724870Y-13769683D01*
X12724870Y-13769683D02*
X12743917Y-13779206D01*
X12743917Y-13779206D02*
X12753441Y-13788730D01*
X12753441Y-13788730D02*
X12762965Y-13807778D01*
X12762965Y-13807778D02*
X12762965Y-13864921D01*
X12762965Y-13864921D02*
X12753441Y-13883968D01*
X12753441Y-13883968D02*
X12743917Y-13893492D01*
X12743917Y-13893492D02*
X12724870Y-13903016D01*
X12724870Y-13903016D02*
X12696298Y-13903016D01*
X12877250Y-13903016D02*
X12858203Y-13893492D01*
X12858203Y-13893492D02*
X12848679Y-13874444D01*
X12848679Y-13874444D02*
X12848679Y-13703016D01*
X13029631Y-13893492D02*
X13010584Y-13903016D01*
X13010584Y-13903016D02*
X12972489Y-13903016D01*
X12972489Y-13903016D02*
X12953441Y-13893492D01*
X12953441Y-13893492D02*
X12943917Y-13874444D01*
X12943917Y-13874444D02*
X12943917Y-13798254D01*
X12943917Y-13798254D02*
X12953441Y-13779206D01*
X12953441Y-13779206D02*
X12972489Y-13769683D01*
X12972489Y-13769683D02*
X13010584Y-13769683D01*
X13010584Y-13769683D02*
X13029631Y-13779206D01*
X13029631Y-13779206D02*
X13039155Y-13798254D01*
X13039155Y-13798254D02*
X13039155Y-13817302D01*
X13039155Y-13817302D02*
X12943917Y-13836349D01*
X13115346Y-13893492D02*
X13134393Y-13903016D01*
X13134393Y-13903016D02*
X13172489Y-13903016D01*
X13172489Y-13903016D02*
X13191536Y-13893492D01*
X13191536Y-13893492D02*
X13201060Y-13874444D01*
X13201060Y-13874444D02*
X13201060Y-13864921D01*
X13201060Y-13864921D02*
X13191536Y-13845873D01*
X13191536Y-13845873D02*
X13172489Y-13836349D01*
X13172489Y-13836349D02*
X13143917Y-13836349D01*
X13143917Y-13836349D02*
X13124870Y-13826825D01*
X13124870Y-13826825D02*
X13115346Y-13807778D01*
X13115346Y-13807778D02*
X13115346Y-13798254D01*
X13115346Y-13798254D02*
X13124870Y-13779206D01*
X13124870Y-13779206D02*
X13143917Y-13769683D01*
X13143917Y-13769683D02*
X13172489Y-13769683D01*
X13172489Y-13769683D02*
X13191536Y-13779206D01*
X13267727Y-13979206D02*
X13277251Y-13969683D01*
X13277251Y-13969683D02*
X13296298Y-13941111D01*
X13296298Y-13941111D02*
X13305822Y-13922064D01*
X13305822Y-13922064D02*
X13315346Y-13893492D01*
X13315346Y-13893492D02*
X13324870Y-13845873D01*
X13324870Y-13845873D02*
X13324870Y-13807778D01*
X13324870Y-13807778D02*
X13315346Y-13760159D01*
X13315346Y-13760159D02*
X13305822Y-13731587D01*
X13305822Y-13731587D02*
X13296298Y-13712540D01*
X13296298Y-13712540D02*
X13277251Y-13683968D01*
X13277251Y-13683968D02*
X13267727Y-13674444D01*
D12*
X8441664Y-14126532D02*
X8492664Y-14075532D01*
X8441664Y-14024532D01*
X8390664Y-14075532D01*
X8441664Y-14126532D01*
D10*
X8858203Y-14167016D02*
X8743917Y-14167016D01*
X8801060Y-14167016D02*
X8801060Y-13967016D01*
X8801060Y-13967016D02*
X8782012Y-13995587D01*
X8782012Y-13995587D02*
X8762964Y-14014635D01*
X8762964Y-14014635D02*
X8743917Y-14024159D01*
X8943917Y-14147968D02*
X8953441Y-14157492D01*
X8953441Y-14157492D02*
X8943917Y-14167016D01*
X8943917Y-14167016D02*
X8934393Y-14157492D01*
X8934393Y-14157492D02*
X8943917Y-14147968D01*
X8943917Y-14147968D02*
X8943917Y-14167016D01*
X9077250Y-13967016D02*
X9096298Y-13967016D01*
X9096298Y-13967016D02*
X9115345Y-13976540D01*
X9115345Y-13976540D02*
X9124869Y-13986064D01*
X9124869Y-13986064D02*
X9134393Y-14005111D01*
X9134393Y-14005111D02*
X9143917Y-14043206D01*
X9143917Y-14043206D02*
X9143917Y-14090825D01*
X9143917Y-14090825D02*
X9134393Y-14128921D01*
X9134393Y-14128921D02*
X9124869Y-14147968D01*
X9124869Y-14147968D02*
X9115345Y-14157492D01*
X9115345Y-14157492D02*
X9096298Y-14167016D01*
X9096298Y-14167016D02*
X9077250Y-14167016D01*
X9077250Y-14167016D02*
X9058203Y-14157492D01*
X9058203Y-14157492D02*
X9048679Y-14147968D01*
X9048679Y-14147968D02*
X9039155Y-14128921D01*
X9039155Y-14128921D02*
X9029631Y-14090825D01*
X9029631Y-14090825D02*
X9029631Y-14043206D01*
X9029631Y-14043206D02*
X9039155Y-14005111D01*
X9039155Y-14005111D02*
X9048679Y-13986064D01*
X9048679Y-13986064D02*
X9058203Y-13976540D01*
X9058203Y-13976540D02*
X9077250Y-13967016D01*
X9220107Y-13986064D02*
X9229631Y-13976540D01*
X9229631Y-13976540D02*
X9248679Y-13967016D01*
X9248679Y-13967016D02*
X9296298Y-13967016D01*
X9296298Y-13967016D02*
X9315345Y-13976540D01*
X9315345Y-13976540D02*
X9324869Y-13986064D01*
X9324869Y-13986064D02*
X9334393Y-14005111D01*
X9334393Y-14005111D02*
X9334393Y-14024159D01*
X9334393Y-14024159D02*
X9324869Y-14052730D01*
X9324869Y-14052730D02*
X9210584Y-14167016D01*
X9210584Y-14167016D02*
X9334393Y-14167016D01*
X9458203Y-13967016D02*
X9477250Y-13967016D01*
X9477250Y-13967016D02*
X9496298Y-13976540D01*
X9496298Y-13976540D02*
X9505822Y-13986064D01*
X9505822Y-13986064D02*
X9515345Y-14005111D01*
X9515345Y-14005111D02*
X9524869Y-14043206D01*
X9524869Y-14043206D02*
X9524869Y-14090825D01*
X9524869Y-14090825D02*
X9515345Y-14128921D01*
X9515345Y-14128921D02*
X9505822Y-14147968D01*
X9505822Y-14147968D02*
X9496298Y-14157492D01*
X9496298Y-14157492D02*
X9477250Y-14167016D01*
X9477250Y-14167016D02*
X9458203Y-14167016D01*
X9458203Y-14167016D02*
X9439155Y-14157492D01*
X9439155Y-14157492D02*
X9429631Y-14147968D01*
X9429631Y-14147968D02*
X9420107Y-14128921D01*
X9420107Y-14128921D02*
X9410584Y-14090825D01*
X9410584Y-14090825D02*
X9410584Y-14043206D01*
X9410584Y-14043206D02*
X9420107Y-14005111D01*
X9420107Y-14005111D02*
X9429631Y-13986064D01*
X9429631Y-13986064D02*
X9439155Y-13976540D01*
X9439155Y-13976540D02*
X9458203Y-13967016D01*
X9610584Y-14167016D02*
X9610584Y-14033683D01*
X9610584Y-14052730D02*
X9620107Y-14043206D01*
X9620107Y-14043206D02*
X9639155Y-14033683D01*
X9639155Y-14033683D02*
X9667726Y-14033683D01*
X9667726Y-14033683D02*
X9686774Y-14043206D01*
X9686774Y-14043206D02*
X9696298Y-14062254D01*
X9696298Y-14062254D02*
X9696298Y-14167016D01*
X9696298Y-14062254D02*
X9705822Y-14043206D01*
X9705822Y-14043206D02*
X9724869Y-14033683D01*
X9724869Y-14033683D02*
X9753441Y-14033683D01*
X9753441Y-14033683D02*
X9772488Y-14043206D01*
X9772488Y-14043206D02*
X9782012Y-14062254D01*
X9782012Y-14062254D02*
X9782012Y-14167016D01*
X9877250Y-14167016D02*
X9877250Y-14033683D01*
X9877250Y-14052730D02*
X9886774Y-14043206D01*
X9886774Y-14043206D02*
X9905822Y-14033683D01*
X9905822Y-14033683D02*
X9934393Y-14033683D01*
X9934393Y-14033683D02*
X9953441Y-14043206D01*
X9953441Y-14043206D02*
X9962965Y-14062254D01*
X9962965Y-14062254D02*
X9962965Y-14167016D01*
X9962965Y-14062254D02*
X9972488Y-14043206D01*
X9972488Y-14043206D02*
X9991536Y-14033683D01*
X9991536Y-14033683D02*
X10020107Y-14033683D01*
X10020107Y-14033683D02*
X10039155Y-14043206D01*
X10039155Y-14043206D02*
X10048679Y-14062254D01*
X10048679Y-14062254D02*
X10048679Y-14167016D01*
X10439155Y-13957492D02*
X10267727Y-14214635D01*
X10696298Y-13967016D02*
X10715346Y-13967016D01*
X10715346Y-13967016D02*
X10734393Y-13976540D01*
X10734393Y-13976540D02*
X10743917Y-13986064D01*
X10743917Y-13986064D02*
X10753441Y-14005111D01*
X10753441Y-14005111D02*
X10762965Y-14043206D01*
X10762965Y-14043206D02*
X10762965Y-14090825D01*
X10762965Y-14090825D02*
X10753441Y-14128921D01*
X10753441Y-14128921D02*
X10743917Y-14147968D01*
X10743917Y-14147968D02*
X10734393Y-14157492D01*
X10734393Y-14157492D02*
X10715346Y-14167016D01*
X10715346Y-14167016D02*
X10696298Y-14167016D01*
X10696298Y-14167016D02*
X10677250Y-14157492D01*
X10677250Y-14157492D02*
X10667727Y-14147968D01*
X10667727Y-14147968D02*
X10658203Y-14128921D01*
X10658203Y-14128921D02*
X10648679Y-14090825D01*
X10648679Y-14090825D02*
X10648679Y-14043206D01*
X10648679Y-14043206D02*
X10658203Y-14005111D01*
X10658203Y-14005111D02*
X10667727Y-13986064D01*
X10667727Y-13986064D02*
X10677250Y-13976540D01*
X10677250Y-13976540D02*
X10696298Y-13967016D01*
X10848679Y-14147968D02*
X10858203Y-14157492D01*
X10858203Y-14157492D02*
X10848679Y-14167016D01*
X10848679Y-14167016D02*
X10839155Y-14157492D01*
X10839155Y-14157492D02*
X10848679Y-14147968D01*
X10848679Y-14147968D02*
X10848679Y-14167016D01*
X10982012Y-13967016D02*
X11001060Y-13967016D01*
X11001060Y-13967016D02*
X11020108Y-13976540D01*
X11020108Y-13976540D02*
X11029631Y-13986064D01*
X11029631Y-13986064D02*
X11039155Y-14005111D01*
X11039155Y-14005111D02*
X11048679Y-14043206D01*
X11048679Y-14043206D02*
X11048679Y-14090825D01*
X11048679Y-14090825D02*
X11039155Y-14128921D01*
X11039155Y-14128921D02*
X11029631Y-14147968D01*
X11029631Y-14147968D02*
X11020108Y-14157492D01*
X11020108Y-14157492D02*
X11001060Y-14167016D01*
X11001060Y-14167016D02*
X10982012Y-14167016D01*
X10982012Y-14167016D02*
X10962965Y-14157492D01*
X10962965Y-14157492D02*
X10953441Y-14147968D01*
X10953441Y-14147968D02*
X10943917Y-14128921D01*
X10943917Y-14128921D02*
X10934393Y-14090825D01*
X10934393Y-14090825D02*
X10934393Y-14043206D01*
X10934393Y-14043206D02*
X10943917Y-14005111D01*
X10943917Y-14005111D02*
X10953441Y-13986064D01*
X10953441Y-13986064D02*
X10962965Y-13976540D01*
X10962965Y-13976540D02*
X10982012Y-13967016D01*
X11220107Y-14033683D02*
X11220107Y-14167016D01*
X11172488Y-13957492D02*
X11124869Y-14100349D01*
X11124869Y-14100349D02*
X11248679Y-14100349D01*
X11362965Y-13967016D02*
X11382012Y-13967016D01*
X11382012Y-13967016D02*
X11401060Y-13976540D01*
X11401060Y-13976540D02*
X11410584Y-13986064D01*
X11410584Y-13986064D02*
X11420107Y-14005111D01*
X11420107Y-14005111D02*
X11429631Y-14043206D01*
X11429631Y-14043206D02*
X11429631Y-14090825D01*
X11429631Y-14090825D02*
X11420107Y-14128921D01*
X11420107Y-14128921D02*
X11410584Y-14147968D01*
X11410584Y-14147968D02*
X11401060Y-14157492D01*
X11401060Y-14157492D02*
X11382012Y-14167016D01*
X11382012Y-14167016D02*
X11362965Y-14167016D01*
X11362965Y-14167016D02*
X11343917Y-14157492D01*
X11343917Y-14157492D02*
X11334393Y-14147968D01*
X11334393Y-14147968D02*
X11324869Y-14128921D01*
X11324869Y-14128921D02*
X11315346Y-14090825D01*
X11315346Y-14090825D02*
X11315346Y-14043206D01*
X11315346Y-14043206D02*
X11324869Y-14005111D01*
X11324869Y-14005111D02*
X11334393Y-13986064D01*
X11334393Y-13986064D02*
X11343917Y-13976540D01*
X11343917Y-13976540D02*
X11362965Y-13967016D01*
X11505822Y-13986064D02*
X11515346Y-13976540D01*
X11515346Y-13976540D02*
X11534393Y-13967016D01*
X11534393Y-13967016D02*
X11582012Y-13967016D01*
X11582012Y-13967016D02*
X11601060Y-13976540D01*
X11601060Y-13976540D02*
X11610584Y-13986064D01*
X11610584Y-13986064D02*
X11620107Y-14005111D01*
X11620107Y-14005111D02*
X11620107Y-14024159D01*
X11620107Y-14024159D02*
X11610584Y-14052730D01*
X11610584Y-14052730D02*
X11496298Y-14167016D01*
X11496298Y-14167016D02*
X11620107Y-14167016D01*
X11696298Y-13967016D02*
X11696298Y-14005111D01*
X11772488Y-13967016D02*
X11772488Y-14005111D01*
X12067727Y-14243206D02*
X12058203Y-14233683D01*
X12058203Y-14233683D02*
X12039155Y-14205111D01*
X12039155Y-14205111D02*
X12029631Y-14186064D01*
X12029631Y-14186064D02*
X12020108Y-14157492D01*
X12020108Y-14157492D02*
X12010584Y-14109873D01*
X12010584Y-14109873D02*
X12010584Y-14071778D01*
X12010584Y-14071778D02*
X12020108Y-14024159D01*
X12020108Y-14024159D02*
X12029631Y-13995587D01*
X12029631Y-13995587D02*
X12039155Y-13976540D01*
X12039155Y-13976540D02*
X12058203Y-13947968D01*
X12058203Y-13947968D02*
X12067727Y-13938444D01*
X12134393Y-13986064D02*
X12143917Y-13976540D01*
X12143917Y-13976540D02*
X12162965Y-13967016D01*
X12162965Y-13967016D02*
X12210584Y-13967016D01*
X12210584Y-13967016D02*
X12229631Y-13976540D01*
X12229631Y-13976540D02*
X12239155Y-13986064D01*
X12239155Y-13986064D02*
X12248679Y-14005111D01*
X12248679Y-14005111D02*
X12248679Y-14024159D01*
X12248679Y-14024159D02*
X12239155Y-14052730D01*
X12239155Y-14052730D02*
X12124869Y-14167016D01*
X12124869Y-14167016D02*
X12248679Y-14167016D01*
X12324869Y-13986064D02*
X12334393Y-13976540D01*
X12334393Y-13976540D02*
X12353441Y-13967016D01*
X12353441Y-13967016D02*
X12401060Y-13967016D01*
X12401060Y-13967016D02*
X12420108Y-13976540D01*
X12420108Y-13976540D02*
X12429631Y-13986064D01*
X12429631Y-13986064D02*
X12439155Y-14005111D01*
X12439155Y-14005111D02*
X12439155Y-14024159D01*
X12439155Y-14024159D02*
X12429631Y-14052730D01*
X12429631Y-14052730D02*
X12315346Y-14167016D01*
X12315346Y-14167016D02*
X12439155Y-14167016D01*
X12677250Y-14167016D02*
X12677250Y-13967016D01*
X12762965Y-14167016D02*
X12762965Y-14062254D01*
X12762965Y-14062254D02*
X12753441Y-14043206D01*
X12753441Y-14043206D02*
X12734393Y-14033683D01*
X12734393Y-14033683D02*
X12705822Y-14033683D01*
X12705822Y-14033683D02*
X12686774Y-14043206D01*
X12686774Y-14043206D02*
X12677250Y-14052730D01*
X12886774Y-14167016D02*
X12867727Y-14157492D01*
X12867727Y-14157492D02*
X12858203Y-14147968D01*
X12858203Y-14147968D02*
X12848679Y-14128921D01*
X12848679Y-14128921D02*
X12848679Y-14071778D01*
X12848679Y-14071778D02*
X12858203Y-14052730D01*
X12858203Y-14052730D02*
X12867727Y-14043206D01*
X12867727Y-14043206D02*
X12886774Y-14033683D01*
X12886774Y-14033683D02*
X12915346Y-14033683D01*
X12915346Y-14033683D02*
X12934393Y-14043206D01*
X12934393Y-14043206D02*
X12943917Y-14052730D01*
X12943917Y-14052730D02*
X12953441Y-14071778D01*
X12953441Y-14071778D02*
X12953441Y-14128921D01*
X12953441Y-14128921D02*
X12943917Y-14147968D01*
X12943917Y-14147968D02*
X12934393Y-14157492D01*
X12934393Y-14157492D02*
X12915346Y-14167016D01*
X12915346Y-14167016D02*
X12886774Y-14167016D01*
X13067727Y-14167016D02*
X13048679Y-14157492D01*
X13048679Y-14157492D02*
X13039155Y-14138444D01*
X13039155Y-14138444D02*
X13039155Y-13967016D01*
X13220108Y-14157492D02*
X13201060Y-14167016D01*
X13201060Y-14167016D02*
X13162965Y-14167016D01*
X13162965Y-14167016D02*
X13143917Y-14157492D01*
X13143917Y-14157492D02*
X13134393Y-14138444D01*
X13134393Y-14138444D02*
X13134393Y-14062254D01*
X13134393Y-14062254D02*
X13143917Y-14043206D01*
X13143917Y-14043206D02*
X13162965Y-14033683D01*
X13162965Y-14033683D02*
X13201060Y-14033683D01*
X13201060Y-14033683D02*
X13220108Y-14043206D01*
X13220108Y-14043206D02*
X13229631Y-14062254D01*
X13229631Y-14062254D02*
X13229631Y-14081302D01*
X13229631Y-14081302D02*
X13134393Y-14100349D01*
X13305822Y-14157492D02*
X13324870Y-14167016D01*
X13324870Y-14167016D02*
X13362965Y-14167016D01*
X13362965Y-14167016D02*
X13382012Y-14157492D01*
X13382012Y-14157492D02*
X13391536Y-14138444D01*
X13391536Y-14138444D02*
X13391536Y-14128921D01*
X13391536Y-14128921D02*
X13382012Y-14109873D01*
X13382012Y-14109873D02*
X13362965Y-14100349D01*
X13362965Y-14100349D02*
X13334393Y-14100349D01*
X13334393Y-14100349D02*
X13315346Y-14090825D01*
X13315346Y-14090825D02*
X13305822Y-14071778D01*
X13305822Y-14071778D02*
X13305822Y-14062254D01*
X13305822Y-14062254D02*
X13315346Y-14043206D01*
X13315346Y-14043206D02*
X13334393Y-14033683D01*
X13334393Y-14033683D02*
X13362965Y-14033683D01*
X13362965Y-14033683D02*
X13382012Y-14043206D01*
X13458203Y-14243206D02*
X13467727Y-14233683D01*
X13467727Y-14233683D02*
X13486774Y-14205111D01*
X13486774Y-14205111D02*
X13496298Y-14186064D01*
X13496298Y-14186064D02*
X13505822Y-14157492D01*
X13505822Y-14157492D02*
X13515346Y-14109873D01*
X13515346Y-14109873D02*
X13515346Y-14071778D01*
X13515346Y-14071778D02*
X13505822Y-14024159D01*
X13505822Y-14024159D02*
X13496298Y-13995587D01*
X13496298Y-13995587D02*
X13486774Y-13976540D01*
X13486774Y-13976540D02*
X13467727Y-13947968D01*
X13467727Y-13947968D02*
X13458203Y-13938444D01*
D13*
X8383664Y-14285032D02*
X8492664Y-14394032D01*
X8492664Y-14285032D02*
X8383664Y-14394032D01*
X8492664Y-14339532D02*
G75*
G02*
X8383664Y-14339532I-54500J0D01*
G01*
X8383664Y-14339532D02*
G75*
G02*
X8492664Y-14339532I54500J0D01*
G01*
D10*
X8858203Y-14431016D02*
X8743917Y-14431016D01*
X8801060Y-14431016D02*
X8801060Y-14231016D01*
X8801060Y-14231016D02*
X8782012Y-14259587D01*
X8782012Y-14259587D02*
X8762964Y-14278635D01*
X8762964Y-14278635D02*
X8743917Y-14288159D01*
X8943917Y-14411968D02*
X8953441Y-14421492D01*
X8953441Y-14421492D02*
X8943917Y-14431016D01*
X8943917Y-14431016D02*
X8934393Y-14421492D01*
X8934393Y-14421492D02*
X8943917Y-14411968D01*
X8943917Y-14411968D02*
X8943917Y-14431016D01*
X9077250Y-14231016D02*
X9096298Y-14231016D01*
X9096298Y-14231016D02*
X9115345Y-14240540D01*
X9115345Y-14240540D02*
X9124869Y-14250064D01*
X9124869Y-14250064D02*
X9134393Y-14269111D01*
X9134393Y-14269111D02*
X9143917Y-14307206D01*
X9143917Y-14307206D02*
X9143917Y-14354825D01*
X9143917Y-14354825D02*
X9134393Y-14392921D01*
X9134393Y-14392921D02*
X9124869Y-14411968D01*
X9124869Y-14411968D02*
X9115345Y-14421492D01*
X9115345Y-14421492D02*
X9096298Y-14431016D01*
X9096298Y-14431016D02*
X9077250Y-14431016D01*
X9077250Y-14431016D02*
X9058203Y-14421492D01*
X9058203Y-14421492D02*
X9048679Y-14411968D01*
X9048679Y-14411968D02*
X9039155Y-14392921D01*
X9039155Y-14392921D02*
X9029631Y-14354825D01*
X9029631Y-14354825D02*
X9029631Y-14307206D01*
X9029631Y-14307206D02*
X9039155Y-14269111D01*
X9039155Y-14269111D02*
X9048679Y-14250064D01*
X9048679Y-14250064D02*
X9058203Y-14240540D01*
X9058203Y-14240540D02*
X9077250Y-14231016D01*
X9239155Y-14431016D02*
X9277250Y-14431016D01*
X9277250Y-14431016D02*
X9296298Y-14421492D01*
X9296298Y-14421492D02*
X9305822Y-14411968D01*
X9305822Y-14411968D02*
X9324869Y-14383397D01*
X9324869Y-14383397D02*
X9334393Y-14345302D01*
X9334393Y-14345302D02*
X9334393Y-14269111D01*
X9334393Y-14269111D02*
X9324869Y-14250064D01*
X9324869Y-14250064D02*
X9315345Y-14240540D01*
X9315345Y-14240540D02*
X9296298Y-14231016D01*
X9296298Y-14231016D02*
X9258203Y-14231016D01*
X9258203Y-14231016D02*
X9239155Y-14240540D01*
X9239155Y-14240540D02*
X9229631Y-14250064D01*
X9229631Y-14250064D02*
X9220107Y-14269111D01*
X9220107Y-14269111D02*
X9220107Y-14316730D01*
X9220107Y-14316730D02*
X9229631Y-14335778D01*
X9229631Y-14335778D02*
X9239155Y-14345302D01*
X9239155Y-14345302D02*
X9258203Y-14354825D01*
X9258203Y-14354825D02*
X9296298Y-14354825D01*
X9296298Y-14354825D02*
X9315345Y-14345302D01*
X9315345Y-14345302D02*
X9324869Y-14335778D01*
X9324869Y-14335778D02*
X9334393Y-14316730D01*
X9458203Y-14231016D02*
X9477250Y-14231016D01*
X9477250Y-14231016D02*
X9496298Y-14240540D01*
X9496298Y-14240540D02*
X9505822Y-14250064D01*
X9505822Y-14250064D02*
X9515345Y-14269111D01*
X9515345Y-14269111D02*
X9524869Y-14307206D01*
X9524869Y-14307206D02*
X9524869Y-14354825D01*
X9524869Y-14354825D02*
X9515345Y-14392921D01*
X9515345Y-14392921D02*
X9505822Y-14411968D01*
X9505822Y-14411968D02*
X9496298Y-14421492D01*
X9496298Y-14421492D02*
X9477250Y-14431016D01*
X9477250Y-14431016D02*
X9458203Y-14431016D01*
X9458203Y-14431016D02*
X9439155Y-14421492D01*
X9439155Y-14421492D02*
X9429631Y-14411968D01*
X9429631Y-14411968D02*
X9420107Y-14392921D01*
X9420107Y-14392921D02*
X9410584Y-14354825D01*
X9410584Y-14354825D02*
X9410584Y-14307206D01*
X9410584Y-14307206D02*
X9420107Y-14269111D01*
X9420107Y-14269111D02*
X9429631Y-14250064D01*
X9429631Y-14250064D02*
X9439155Y-14240540D01*
X9439155Y-14240540D02*
X9458203Y-14231016D01*
X9610584Y-14431016D02*
X9610584Y-14297683D01*
X9610584Y-14316730D02*
X9620107Y-14307206D01*
X9620107Y-14307206D02*
X9639155Y-14297683D01*
X9639155Y-14297683D02*
X9667726Y-14297683D01*
X9667726Y-14297683D02*
X9686774Y-14307206D01*
X9686774Y-14307206D02*
X9696298Y-14326254D01*
X9696298Y-14326254D02*
X9696298Y-14431016D01*
X9696298Y-14326254D02*
X9705822Y-14307206D01*
X9705822Y-14307206D02*
X9724869Y-14297683D01*
X9724869Y-14297683D02*
X9753441Y-14297683D01*
X9753441Y-14297683D02*
X9772488Y-14307206D01*
X9772488Y-14307206D02*
X9782012Y-14326254D01*
X9782012Y-14326254D02*
X9782012Y-14431016D01*
X9877250Y-14431016D02*
X9877250Y-14297683D01*
X9877250Y-14316730D02*
X9886774Y-14307206D01*
X9886774Y-14307206D02*
X9905822Y-14297683D01*
X9905822Y-14297683D02*
X9934393Y-14297683D01*
X9934393Y-14297683D02*
X9953441Y-14307206D01*
X9953441Y-14307206D02*
X9962965Y-14326254D01*
X9962965Y-14326254D02*
X9962965Y-14431016D01*
X9962965Y-14326254D02*
X9972488Y-14307206D01*
X9972488Y-14307206D02*
X9991536Y-14297683D01*
X9991536Y-14297683D02*
X10020107Y-14297683D01*
X10020107Y-14297683D02*
X10039155Y-14307206D01*
X10039155Y-14307206D02*
X10048679Y-14326254D01*
X10048679Y-14326254D02*
X10048679Y-14431016D01*
X10439155Y-14221492D02*
X10267727Y-14478635D01*
X10696298Y-14231016D02*
X10715346Y-14231016D01*
X10715346Y-14231016D02*
X10734393Y-14240540D01*
X10734393Y-14240540D02*
X10743917Y-14250064D01*
X10743917Y-14250064D02*
X10753441Y-14269111D01*
X10753441Y-14269111D02*
X10762965Y-14307206D01*
X10762965Y-14307206D02*
X10762965Y-14354825D01*
X10762965Y-14354825D02*
X10753441Y-14392921D01*
X10753441Y-14392921D02*
X10743917Y-14411968D01*
X10743917Y-14411968D02*
X10734393Y-14421492D01*
X10734393Y-14421492D02*
X10715346Y-14431016D01*
X10715346Y-14431016D02*
X10696298Y-14431016D01*
X10696298Y-14431016D02*
X10677250Y-14421492D01*
X10677250Y-14421492D02*
X10667727Y-14411968D01*
X10667727Y-14411968D02*
X10658203Y-14392921D01*
X10658203Y-14392921D02*
X10648679Y-14354825D01*
X10648679Y-14354825D02*
X10648679Y-14307206D01*
X10648679Y-14307206D02*
X10658203Y-14269111D01*
X10658203Y-14269111D02*
X10667727Y-14250064D01*
X10667727Y-14250064D02*
X10677250Y-14240540D01*
X10677250Y-14240540D02*
X10696298Y-14231016D01*
X10848679Y-14411968D02*
X10858203Y-14421492D01*
X10858203Y-14421492D02*
X10848679Y-14431016D01*
X10848679Y-14431016D02*
X10839155Y-14421492D01*
X10839155Y-14421492D02*
X10848679Y-14411968D01*
X10848679Y-14411968D02*
X10848679Y-14431016D01*
X10982012Y-14231016D02*
X11001060Y-14231016D01*
X11001060Y-14231016D02*
X11020108Y-14240540D01*
X11020108Y-14240540D02*
X11029631Y-14250064D01*
X11029631Y-14250064D02*
X11039155Y-14269111D01*
X11039155Y-14269111D02*
X11048679Y-14307206D01*
X11048679Y-14307206D02*
X11048679Y-14354825D01*
X11048679Y-14354825D02*
X11039155Y-14392921D01*
X11039155Y-14392921D02*
X11029631Y-14411968D01*
X11029631Y-14411968D02*
X11020108Y-14421492D01*
X11020108Y-14421492D02*
X11001060Y-14431016D01*
X11001060Y-14431016D02*
X10982012Y-14431016D01*
X10982012Y-14431016D02*
X10962965Y-14421492D01*
X10962965Y-14421492D02*
X10953441Y-14411968D01*
X10953441Y-14411968D02*
X10943917Y-14392921D01*
X10943917Y-14392921D02*
X10934393Y-14354825D01*
X10934393Y-14354825D02*
X10934393Y-14307206D01*
X10934393Y-14307206D02*
X10943917Y-14269111D01*
X10943917Y-14269111D02*
X10953441Y-14250064D01*
X10953441Y-14250064D02*
X10962965Y-14240540D01*
X10962965Y-14240540D02*
X10982012Y-14231016D01*
X11220107Y-14297683D02*
X11220107Y-14431016D01*
X11172488Y-14221492D02*
X11124869Y-14364349D01*
X11124869Y-14364349D02*
X11248679Y-14364349D01*
X11315346Y-14250064D02*
X11324869Y-14240540D01*
X11324869Y-14240540D02*
X11343917Y-14231016D01*
X11343917Y-14231016D02*
X11391536Y-14231016D01*
X11391536Y-14231016D02*
X11410584Y-14240540D01*
X11410584Y-14240540D02*
X11420107Y-14250064D01*
X11420107Y-14250064D02*
X11429631Y-14269111D01*
X11429631Y-14269111D02*
X11429631Y-14288159D01*
X11429631Y-14288159D02*
X11420107Y-14316730D01*
X11420107Y-14316730D02*
X11305822Y-14431016D01*
X11305822Y-14431016D02*
X11429631Y-14431016D01*
X11524869Y-14431016D02*
X11562965Y-14431016D01*
X11562965Y-14431016D02*
X11582012Y-14421492D01*
X11582012Y-14421492D02*
X11591536Y-14411968D01*
X11591536Y-14411968D02*
X11610584Y-14383397D01*
X11610584Y-14383397D02*
X11620107Y-14345302D01*
X11620107Y-14345302D02*
X11620107Y-14269111D01*
X11620107Y-14269111D02*
X11610584Y-14250064D01*
X11610584Y-14250064D02*
X11601060Y-14240540D01*
X11601060Y-14240540D02*
X11582012Y-14231016D01*
X11582012Y-14231016D02*
X11543917Y-14231016D01*
X11543917Y-14231016D02*
X11524869Y-14240540D01*
X11524869Y-14240540D02*
X11515346Y-14250064D01*
X11515346Y-14250064D02*
X11505822Y-14269111D01*
X11505822Y-14269111D02*
X11505822Y-14316730D01*
X11505822Y-14316730D02*
X11515346Y-14335778D01*
X11515346Y-14335778D02*
X11524869Y-14345302D01*
X11524869Y-14345302D02*
X11543917Y-14354825D01*
X11543917Y-14354825D02*
X11582012Y-14354825D01*
X11582012Y-14354825D02*
X11601060Y-14345302D01*
X11601060Y-14345302D02*
X11610584Y-14335778D01*
X11610584Y-14335778D02*
X11620107Y-14316730D01*
X11696298Y-14231016D02*
X11696298Y-14269111D01*
X11772488Y-14231016D02*
X11772488Y-14269111D01*
X12067727Y-14507206D02*
X12058203Y-14497683D01*
X12058203Y-14497683D02*
X12039155Y-14469111D01*
X12039155Y-14469111D02*
X12029631Y-14450064D01*
X12029631Y-14450064D02*
X12020108Y-14421492D01*
X12020108Y-14421492D02*
X12010584Y-14373873D01*
X12010584Y-14373873D02*
X12010584Y-14335778D01*
X12010584Y-14335778D02*
X12020108Y-14288159D01*
X12020108Y-14288159D02*
X12029631Y-14259587D01*
X12029631Y-14259587D02*
X12039155Y-14240540D01*
X12039155Y-14240540D02*
X12058203Y-14211968D01*
X12058203Y-14211968D02*
X12067727Y-14202444D01*
X12134393Y-14250064D02*
X12143917Y-14240540D01*
X12143917Y-14240540D02*
X12162965Y-14231016D01*
X12162965Y-14231016D02*
X12210584Y-14231016D01*
X12210584Y-14231016D02*
X12229631Y-14240540D01*
X12229631Y-14240540D02*
X12239155Y-14250064D01*
X12239155Y-14250064D02*
X12248679Y-14269111D01*
X12248679Y-14269111D02*
X12248679Y-14288159D01*
X12248679Y-14288159D02*
X12239155Y-14316730D01*
X12239155Y-14316730D02*
X12124869Y-14431016D01*
X12124869Y-14431016D02*
X12248679Y-14431016D01*
X12372488Y-14231016D02*
X12391536Y-14231016D01*
X12391536Y-14231016D02*
X12410584Y-14240540D01*
X12410584Y-14240540D02*
X12420108Y-14250064D01*
X12420108Y-14250064D02*
X12429631Y-14269111D01*
X12429631Y-14269111D02*
X12439155Y-14307206D01*
X12439155Y-14307206D02*
X12439155Y-14354825D01*
X12439155Y-14354825D02*
X12429631Y-14392921D01*
X12429631Y-14392921D02*
X12420108Y-14411968D01*
X12420108Y-14411968D02*
X12410584Y-14421492D01*
X12410584Y-14421492D02*
X12391536Y-14431016D01*
X12391536Y-14431016D02*
X12372488Y-14431016D01*
X12372488Y-14431016D02*
X12353441Y-14421492D01*
X12353441Y-14421492D02*
X12343917Y-14411968D01*
X12343917Y-14411968D02*
X12334393Y-14392921D01*
X12334393Y-14392921D02*
X12324869Y-14354825D01*
X12324869Y-14354825D02*
X12324869Y-14307206D01*
X12324869Y-14307206D02*
X12334393Y-14269111D01*
X12334393Y-14269111D02*
X12343917Y-14250064D01*
X12343917Y-14250064D02*
X12353441Y-14240540D01*
X12353441Y-14240540D02*
X12372488Y-14231016D01*
X12677250Y-14431016D02*
X12677250Y-14231016D01*
X12762965Y-14431016D02*
X12762965Y-14326254D01*
X12762965Y-14326254D02*
X12753441Y-14307206D01*
X12753441Y-14307206D02*
X12734393Y-14297683D01*
X12734393Y-14297683D02*
X12705822Y-14297683D01*
X12705822Y-14297683D02*
X12686774Y-14307206D01*
X12686774Y-14307206D02*
X12677250Y-14316730D01*
X12886774Y-14431016D02*
X12867727Y-14421492D01*
X12867727Y-14421492D02*
X12858203Y-14411968D01*
X12858203Y-14411968D02*
X12848679Y-14392921D01*
X12848679Y-14392921D02*
X12848679Y-14335778D01*
X12848679Y-14335778D02*
X12858203Y-14316730D01*
X12858203Y-14316730D02*
X12867727Y-14307206D01*
X12867727Y-14307206D02*
X12886774Y-14297683D01*
X12886774Y-14297683D02*
X12915346Y-14297683D01*
X12915346Y-14297683D02*
X12934393Y-14307206D01*
X12934393Y-14307206D02*
X12943917Y-14316730D01*
X12943917Y-14316730D02*
X12953441Y-14335778D01*
X12953441Y-14335778D02*
X12953441Y-14392921D01*
X12953441Y-14392921D02*
X12943917Y-14411968D01*
X12943917Y-14411968D02*
X12934393Y-14421492D01*
X12934393Y-14421492D02*
X12915346Y-14431016D01*
X12915346Y-14431016D02*
X12886774Y-14431016D01*
X13067727Y-14431016D02*
X13048679Y-14421492D01*
X13048679Y-14421492D02*
X13039155Y-14402444D01*
X13039155Y-14402444D02*
X13039155Y-14231016D01*
X13220108Y-14421492D02*
X13201060Y-14431016D01*
X13201060Y-14431016D02*
X13162965Y-14431016D01*
X13162965Y-14431016D02*
X13143917Y-14421492D01*
X13143917Y-14421492D02*
X13134393Y-14402444D01*
X13134393Y-14402444D02*
X13134393Y-14326254D01*
X13134393Y-14326254D02*
X13143917Y-14307206D01*
X13143917Y-14307206D02*
X13162965Y-14297683D01*
X13162965Y-14297683D02*
X13201060Y-14297683D01*
X13201060Y-14297683D02*
X13220108Y-14307206D01*
X13220108Y-14307206D02*
X13229631Y-14326254D01*
X13229631Y-14326254D02*
X13229631Y-14345302D01*
X13229631Y-14345302D02*
X13134393Y-14364349D01*
X13305822Y-14421492D02*
X13324870Y-14431016D01*
X13324870Y-14431016D02*
X13362965Y-14431016D01*
X13362965Y-14431016D02*
X13382012Y-14421492D01*
X13382012Y-14421492D02*
X13391536Y-14402444D01*
X13391536Y-14402444D02*
X13391536Y-14392921D01*
X13391536Y-14392921D02*
X13382012Y-14373873D01*
X13382012Y-14373873D02*
X13362965Y-14364349D01*
X13362965Y-14364349D02*
X13334393Y-14364349D01*
X13334393Y-14364349D02*
X13315346Y-14354825D01*
X13315346Y-14354825D02*
X13305822Y-14335778D01*
X13305822Y-14335778D02*
X13305822Y-14326254D01*
X13305822Y-14326254D02*
X13315346Y-14307206D01*
X13315346Y-14307206D02*
X13334393Y-14297683D01*
X13334393Y-14297683D02*
X13362965Y-14297683D01*
X13362965Y-14297683D02*
X13382012Y-14307206D01*
X13458203Y-14507206D02*
X13467727Y-14497683D01*
X13467727Y-14497683D02*
X13486774Y-14469111D01*
X13486774Y-14469111D02*
X13496298Y-14450064D01*
X13496298Y-14450064D02*
X13505822Y-14421492D01*
X13505822Y-14421492D02*
X13515346Y-14373873D01*
X13515346Y-14373873D02*
X13515346Y-14335778D01*
X13515346Y-14335778D02*
X13505822Y-14288159D01*
X13505822Y-14288159D02*
X13496298Y-14259587D01*
X13496298Y-14259587D02*
X13486774Y-14240540D01*
X13486774Y-14240540D02*
X13467727Y-14211968D01*
X13467727Y-14211968D02*
X13458203Y-14202444D01*
D14*
X8362664Y-14538532D02*
X8492664Y-14668532D01*
X8492664Y-14538532D02*
X8362664Y-14668532D01*
X8427664Y-14538532D02*
X8427664Y-14668532D01*
X8362664Y-14603532D02*
X8492664Y-14603532D01*
D10*
X8858203Y-14695016D02*
X8743917Y-14695016D01*
X8801060Y-14695016D02*
X8801060Y-14495016D01*
X8801060Y-14495016D02*
X8782012Y-14523587D01*
X8782012Y-14523587D02*
X8762964Y-14542635D01*
X8762964Y-14542635D02*
X8743917Y-14552159D01*
X8943917Y-14675968D02*
X8953441Y-14685492D01*
X8953441Y-14685492D02*
X8943917Y-14695016D01*
X8943917Y-14695016D02*
X8934393Y-14685492D01*
X8934393Y-14685492D02*
X8943917Y-14675968D01*
X8943917Y-14675968D02*
X8943917Y-14695016D01*
X9020107Y-14495016D02*
X9143917Y-14495016D01*
X9143917Y-14495016D02*
X9077250Y-14571206D01*
X9077250Y-14571206D02*
X9105822Y-14571206D01*
X9105822Y-14571206D02*
X9124869Y-14580730D01*
X9124869Y-14580730D02*
X9134393Y-14590254D01*
X9134393Y-14590254D02*
X9143917Y-14609302D01*
X9143917Y-14609302D02*
X9143917Y-14656921D01*
X9143917Y-14656921D02*
X9134393Y-14675968D01*
X9134393Y-14675968D02*
X9124869Y-14685492D01*
X9124869Y-14685492D02*
X9105822Y-14695016D01*
X9105822Y-14695016D02*
X9048679Y-14695016D01*
X9048679Y-14695016D02*
X9029631Y-14685492D01*
X9029631Y-14685492D02*
X9020107Y-14675968D01*
X9267726Y-14495016D02*
X9286774Y-14495016D01*
X9286774Y-14495016D02*
X9305822Y-14504540D01*
X9305822Y-14504540D02*
X9315345Y-14514064D01*
X9315345Y-14514064D02*
X9324869Y-14533111D01*
X9324869Y-14533111D02*
X9334393Y-14571206D01*
X9334393Y-14571206D02*
X9334393Y-14618825D01*
X9334393Y-14618825D02*
X9324869Y-14656921D01*
X9324869Y-14656921D02*
X9315345Y-14675968D01*
X9315345Y-14675968D02*
X9305822Y-14685492D01*
X9305822Y-14685492D02*
X9286774Y-14695016D01*
X9286774Y-14695016D02*
X9267726Y-14695016D01*
X9267726Y-14695016D02*
X9248679Y-14685492D01*
X9248679Y-14685492D02*
X9239155Y-14675968D01*
X9239155Y-14675968D02*
X9229631Y-14656921D01*
X9229631Y-14656921D02*
X9220107Y-14618825D01*
X9220107Y-14618825D02*
X9220107Y-14571206D01*
X9220107Y-14571206D02*
X9229631Y-14533111D01*
X9229631Y-14533111D02*
X9239155Y-14514064D01*
X9239155Y-14514064D02*
X9248679Y-14504540D01*
X9248679Y-14504540D02*
X9267726Y-14495016D01*
X9458203Y-14495016D02*
X9477250Y-14495016D01*
X9477250Y-14495016D02*
X9496298Y-14504540D01*
X9496298Y-14504540D02*
X9505822Y-14514064D01*
X9505822Y-14514064D02*
X9515345Y-14533111D01*
X9515345Y-14533111D02*
X9524869Y-14571206D01*
X9524869Y-14571206D02*
X9524869Y-14618825D01*
X9524869Y-14618825D02*
X9515345Y-14656921D01*
X9515345Y-14656921D02*
X9505822Y-14675968D01*
X9505822Y-14675968D02*
X9496298Y-14685492D01*
X9496298Y-14685492D02*
X9477250Y-14695016D01*
X9477250Y-14695016D02*
X9458203Y-14695016D01*
X9458203Y-14695016D02*
X9439155Y-14685492D01*
X9439155Y-14685492D02*
X9429631Y-14675968D01*
X9429631Y-14675968D02*
X9420107Y-14656921D01*
X9420107Y-14656921D02*
X9410584Y-14618825D01*
X9410584Y-14618825D02*
X9410584Y-14571206D01*
X9410584Y-14571206D02*
X9420107Y-14533111D01*
X9420107Y-14533111D02*
X9429631Y-14514064D01*
X9429631Y-14514064D02*
X9439155Y-14504540D01*
X9439155Y-14504540D02*
X9458203Y-14495016D01*
X9610584Y-14695016D02*
X9610584Y-14561683D01*
X9610584Y-14580730D02*
X9620107Y-14571206D01*
X9620107Y-14571206D02*
X9639155Y-14561683D01*
X9639155Y-14561683D02*
X9667726Y-14561683D01*
X9667726Y-14561683D02*
X9686774Y-14571206D01*
X9686774Y-14571206D02*
X9696298Y-14590254D01*
X9696298Y-14590254D02*
X9696298Y-14695016D01*
X9696298Y-14590254D02*
X9705822Y-14571206D01*
X9705822Y-14571206D02*
X9724869Y-14561683D01*
X9724869Y-14561683D02*
X9753441Y-14561683D01*
X9753441Y-14561683D02*
X9772488Y-14571206D01*
X9772488Y-14571206D02*
X9782012Y-14590254D01*
X9782012Y-14590254D02*
X9782012Y-14695016D01*
X9877250Y-14695016D02*
X9877250Y-14561683D01*
X9877250Y-14580730D02*
X9886774Y-14571206D01*
X9886774Y-14571206D02*
X9905822Y-14561683D01*
X9905822Y-14561683D02*
X9934393Y-14561683D01*
X9934393Y-14561683D02*
X9953441Y-14571206D01*
X9953441Y-14571206D02*
X9962965Y-14590254D01*
X9962965Y-14590254D02*
X9962965Y-14695016D01*
X9962965Y-14590254D02*
X9972488Y-14571206D01*
X9972488Y-14571206D02*
X9991536Y-14561683D01*
X9991536Y-14561683D02*
X10020107Y-14561683D01*
X10020107Y-14561683D02*
X10039155Y-14571206D01*
X10039155Y-14571206D02*
X10048679Y-14590254D01*
X10048679Y-14590254D02*
X10048679Y-14695016D01*
X10439155Y-14485492D02*
X10267727Y-14742635D01*
X10696298Y-14495016D02*
X10715346Y-14495016D01*
X10715346Y-14495016D02*
X10734393Y-14504540D01*
X10734393Y-14504540D02*
X10743917Y-14514064D01*
X10743917Y-14514064D02*
X10753441Y-14533111D01*
X10753441Y-14533111D02*
X10762965Y-14571206D01*
X10762965Y-14571206D02*
X10762965Y-14618825D01*
X10762965Y-14618825D02*
X10753441Y-14656921D01*
X10753441Y-14656921D02*
X10743917Y-14675968D01*
X10743917Y-14675968D02*
X10734393Y-14685492D01*
X10734393Y-14685492D02*
X10715346Y-14695016D01*
X10715346Y-14695016D02*
X10696298Y-14695016D01*
X10696298Y-14695016D02*
X10677250Y-14685492D01*
X10677250Y-14685492D02*
X10667727Y-14675968D01*
X10667727Y-14675968D02*
X10658203Y-14656921D01*
X10658203Y-14656921D02*
X10648679Y-14618825D01*
X10648679Y-14618825D02*
X10648679Y-14571206D01*
X10648679Y-14571206D02*
X10658203Y-14533111D01*
X10658203Y-14533111D02*
X10667727Y-14514064D01*
X10667727Y-14514064D02*
X10677250Y-14504540D01*
X10677250Y-14504540D02*
X10696298Y-14495016D01*
X10848679Y-14675968D02*
X10858203Y-14685492D01*
X10858203Y-14685492D02*
X10848679Y-14695016D01*
X10848679Y-14695016D02*
X10839155Y-14685492D01*
X10839155Y-14685492D02*
X10848679Y-14675968D01*
X10848679Y-14675968D02*
X10848679Y-14695016D01*
X10982012Y-14495016D02*
X11001060Y-14495016D01*
X11001060Y-14495016D02*
X11020108Y-14504540D01*
X11020108Y-14504540D02*
X11029631Y-14514064D01*
X11029631Y-14514064D02*
X11039155Y-14533111D01*
X11039155Y-14533111D02*
X11048679Y-14571206D01*
X11048679Y-14571206D02*
X11048679Y-14618825D01*
X11048679Y-14618825D02*
X11039155Y-14656921D01*
X11039155Y-14656921D02*
X11029631Y-14675968D01*
X11029631Y-14675968D02*
X11020108Y-14685492D01*
X11020108Y-14685492D02*
X11001060Y-14695016D01*
X11001060Y-14695016D02*
X10982012Y-14695016D01*
X10982012Y-14695016D02*
X10962965Y-14685492D01*
X10962965Y-14685492D02*
X10953441Y-14675968D01*
X10953441Y-14675968D02*
X10943917Y-14656921D01*
X10943917Y-14656921D02*
X10934393Y-14618825D01*
X10934393Y-14618825D02*
X10934393Y-14571206D01*
X10934393Y-14571206D02*
X10943917Y-14533111D01*
X10943917Y-14533111D02*
X10953441Y-14514064D01*
X10953441Y-14514064D02*
X10962965Y-14504540D01*
X10962965Y-14504540D02*
X10982012Y-14495016D01*
X11229631Y-14495016D02*
X11134393Y-14495016D01*
X11134393Y-14495016D02*
X11124869Y-14590254D01*
X11124869Y-14590254D02*
X11134393Y-14580730D01*
X11134393Y-14580730D02*
X11153441Y-14571206D01*
X11153441Y-14571206D02*
X11201060Y-14571206D01*
X11201060Y-14571206D02*
X11220107Y-14580730D01*
X11220107Y-14580730D02*
X11229631Y-14590254D01*
X11229631Y-14590254D02*
X11239155Y-14609302D01*
X11239155Y-14609302D02*
X11239155Y-14656921D01*
X11239155Y-14656921D02*
X11229631Y-14675968D01*
X11229631Y-14675968D02*
X11220107Y-14685492D01*
X11220107Y-14685492D02*
X11201060Y-14695016D01*
X11201060Y-14695016D02*
X11153441Y-14695016D01*
X11153441Y-14695016D02*
X11134393Y-14685492D01*
X11134393Y-14685492D02*
X11124869Y-14675968D01*
X11429631Y-14695016D02*
X11315346Y-14695016D01*
X11372488Y-14695016D02*
X11372488Y-14495016D01*
X11372488Y-14495016D02*
X11353441Y-14523587D01*
X11353441Y-14523587D02*
X11334393Y-14542635D01*
X11334393Y-14542635D02*
X11315346Y-14552159D01*
X11505822Y-14514064D02*
X11515346Y-14504540D01*
X11515346Y-14504540D02*
X11534393Y-14495016D01*
X11534393Y-14495016D02*
X11582012Y-14495016D01*
X11582012Y-14495016D02*
X11601060Y-14504540D01*
X11601060Y-14504540D02*
X11610584Y-14514064D01*
X11610584Y-14514064D02*
X11620107Y-14533111D01*
X11620107Y-14533111D02*
X11620107Y-14552159D01*
X11620107Y-14552159D02*
X11610584Y-14580730D01*
X11610584Y-14580730D02*
X11496298Y-14695016D01*
X11496298Y-14695016D02*
X11620107Y-14695016D01*
X11696298Y-14495016D02*
X11696298Y-14533111D01*
X11772488Y-14495016D02*
X11772488Y-14533111D01*
X12067727Y-14771206D02*
X12058203Y-14761683D01*
X12058203Y-14761683D02*
X12039155Y-14733111D01*
X12039155Y-14733111D02*
X12029631Y-14714064D01*
X12029631Y-14714064D02*
X12020108Y-14685492D01*
X12020108Y-14685492D02*
X12010584Y-14637873D01*
X12010584Y-14637873D02*
X12010584Y-14599778D01*
X12010584Y-14599778D02*
X12020108Y-14552159D01*
X12020108Y-14552159D02*
X12029631Y-14523587D01*
X12029631Y-14523587D02*
X12039155Y-14504540D01*
X12039155Y-14504540D02*
X12058203Y-14475968D01*
X12058203Y-14475968D02*
X12067727Y-14466444D01*
X12124869Y-14495016D02*
X12248679Y-14495016D01*
X12248679Y-14495016D02*
X12182012Y-14571206D01*
X12182012Y-14571206D02*
X12210584Y-14571206D01*
X12210584Y-14571206D02*
X12229631Y-14580730D01*
X12229631Y-14580730D02*
X12239155Y-14590254D01*
X12239155Y-14590254D02*
X12248679Y-14609302D01*
X12248679Y-14609302D02*
X12248679Y-14656921D01*
X12248679Y-14656921D02*
X12239155Y-14675968D01*
X12239155Y-14675968D02*
X12229631Y-14685492D01*
X12229631Y-14685492D02*
X12210584Y-14695016D01*
X12210584Y-14695016D02*
X12153441Y-14695016D01*
X12153441Y-14695016D02*
X12134393Y-14685492D01*
X12134393Y-14685492D02*
X12124869Y-14675968D01*
X12486774Y-14695016D02*
X12486774Y-14495016D01*
X12572489Y-14695016D02*
X12572489Y-14590254D01*
X12572489Y-14590254D02*
X12562965Y-14571206D01*
X12562965Y-14571206D02*
X12543917Y-14561683D01*
X12543917Y-14561683D02*
X12515346Y-14561683D01*
X12515346Y-14561683D02*
X12496298Y-14571206D01*
X12496298Y-14571206D02*
X12486774Y-14580730D01*
X12696298Y-14695016D02*
X12677250Y-14685492D01*
X12677250Y-14685492D02*
X12667727Y-14675968D01*
X12667727Y-14675968D02*
X12658203Y-14656921D01*
X12658203Y-14656921D02*
X12658203Y-14599778D01*
X12658203Y-14599778D02*
X12667727Y-14580730D01*
X12667727Y-14580730D02*
X12677250Y-14571206D01*
X12677250Y-14571206D02*
X12696298Y-14561683D01*
X12696298Y-14561683D02*
X12724870Y-14561683D01*
X12724870Y-14561683D02*
X12743917Y-14571206D01*
X12743917Y-14571206D02*
X12753441Y-14580730D01*
X12753441Y-14580730D02*
X12762965Y-14599778D01*
X12762965Y-14599778D02*
X12762965Y-14656921D01*
X12762965Y-14656921D02*
X12753441Y-14675968D01*
X12753441Y-14675968D02*
X12743917Y-14685492D01*
X12743917Y-14685492D02*
X12724870Y-14695016D01*
X12724870Y-14695016D02*
X12696298Y-14695016D01*
X12877250Y-14695016D02*
X12858203Y-14685492D01*
X12858203Y-14685492D02*
X12848679Y-14666444D01*
X12848679Y-14666444D02*
X12848679Y-14495016D01*
X13029631Y-14685492D02*
X13010584Y-14695016D01*
X13010584Y-14695016D02*
X12972489Y-14695016D01*
X12972489Y-14695016D02*
X12953441Y-14685492D01*
X12953441Y-14685492D02*
X12943917Y-14666444D01*
X12943917Y-14666444D02*
X12943917Y-14590254D01*
X12943917Y-14590254D02*
X12953441Y-14571206D01*
X12953441Y-14571206D02*
X12972489Y-14561683D01*
X12972489Y-14561683D02*
X13010584Y-14561683D01*
X13010584Y-14561683D02*
X13029631Y-14571206D01*
X13029631Y-14571206D02*
X13039155Y-14590254D01*
X13039155Y-14590254D02*
X13039155Y-14609302D01*
X13039155Y-14609302D02*
X12943917Y-14628349D01*
X13115346Y-14685492D02*
X13134393Y-14695016D01*
X13134393Y-14695016D02*
X13172489Y-14695016D01*
X13172489Y-14695016D02*
X13191536Y-14685492D01*
X13191536Y-14685492D02*
X13201060Y-14666444D01*
X13201060Y-14666444D02*
X13201060Y-14656921D01*
X13201060Y-14656921D02*
X13191536Y-14637873D01*
X13191536Y-14637873D02*
X13172489Y-14628349D01*
X13172489Y-14628349D02*
X13143917Y-14628349D01*
X13143917Y-14628349D02*
X13124870Y-14618825D01*
X13124870Y-14618825D02*
X13115346Y-14599778D01*
X13115346Y-14599778D02*
X13115346Y-14590254D01*
X13115346Y-14590254D02*
X13124870Y-14571206D01*
X13124870Y-14571206D02*
X13143917Y-14561683D01*
X13143917Y-14561683D02*
X13172489Y-14561683D01*
X13172489Y-14561683D02*
X13191536Y-14571206D01*
X13267727Y-14771206D02*
X13277251Y-14761683D01*
X13277251Y-14761683D02*
X13296298Y-14733111D01*
X13296298Y-14733111D02*
X13305822Y-14714064D01*
X13305822Y-14714064D02*
X13315346Y-14685492D01*
X13315346Y-14685492D02*
X13324870Y-14637873D01*
X13324870Y-14637873D02*
X13324870Y-14599778D01*
X13324870Y-14599778D02*
X13315346Y-14552159D01*
X13315346Y-14552159D02*
X13305822Y-14523587D01*
X13305822Y-14523587D02*
X13296298Y-14504540D01*
X13296298Y-14504540D02*
X13277251Y-14475968D01*
X13277251Y-14475968D02*
X13267727Y-14466444D01*
M02*
