%TF.GenerationSoftware,KiCad,Pcbnew,9.0.1*%
%TF.CreationDate,2025-06-09T14:32:15-07:00*%
%TF.ProjectId,chop-controller-heat-v2,63686f70-2d63-46f6-9e74-726f6c6c6572,rev?*%
%TF.SameCoordinates,Original*%
%TF.FileFunction,Legend,Top*%
%TF.FilePolarity,Positive*%
%FSLAX46Y46*%
G04 Gerber Fmt 4.6, Leading zero omitted, Abs format (unit mm)*
G04 Created by KiCad (PCBNEW 9.0.1) date 2025-06-09 14:32:15*
%MOMM*%
%LPD*%
G01*
G04 APERTURE LIST*
G04 Aperture macros list*
%AMRoundRect*
0 Rectangle with rounded corners*
0 $1 Rounding radius*
0 $2 $3 $4 $5 $6 $7 $8 $9 X,Y pos of 4 corners*
0 Add a 4 corners polygon primitive as box body*
4,1,4,$2,$3,$4,$5,$6,$7,$8,$9,$2,$3,0*
0 Add four circle primitives for the rounded corners*
1,1,$1+$1,$2,$3*
1,1,$1+$1,$4,$5*
1,1,$1+$1,$6,$7*
1,1,$1+$1,$8,$9*
0 Add four rect primitives between the rounded corners*
20,1,$1+$1,$2,$3,$4,$5,0*
20,1,$1+$1,$4,$5,$6,$7,0*
20,1,$1+$1,$6,$7,$8,$9,0*
20,1,$1+$1,$8,$9,$2,$3,0*%
%AMFreePoly0*
4,1,77,2.123536,2.483536,2.125000,2.480000,2.125000,1.460000,2.123536,1.456464,2.120000,1.455000,1.965000,1.455000,1.965000,1.175000,2.710000,1.175000,2.713536,1.173536,2.715000,1.170000,2.715000,0.560000,2.713536,0.556464,2.710000,0.555000,1.965000,0.555000,1.965000,-1.245000,2.710000,-1.245000,2.713536,-1.246464,2.715000,-1.250000,2.715000,-1.860000,2.713536,-1.863536,
2.710000,-1.865000,1.965000,-1.865000,1.965000,-2.040000,1.963536,-2.043536,1.960000,-2.045000,-2.140000,-2.045000,-2.143536,-2.043536,-2.145000,-2.040000,-2.145000,-1.875000,-2.900000,-1.875000,-2.903536,-1.873536,-2.905000,-1.870000,-2.905000,-1.260000,-2.903536,-1.256464,-2.900000,-1.255000,-2.145000,-1.255000,-2.145000,0.545000,-2.900000,0.545000,-2.903536,0.546464,-2.905000,0.550000,
-2.905000,1.160000,-2.903536,1.163536,-2.900000,1.165000,-2.145000,1.165000,-2.145000,1.445000,-2.300000,1.445000,-2.303536,1.446464,-2.305000,1.450000,-2.305000,2.470000,-2.303536,2.473536,-2.300000,2.475000,-1.690000,2.475000,-1.686464,2.473536,-1.685000,2.470000,-1.685000,1.775000,-1.035000,1.775000,-1.035000,2.470000,-1.033536,2.473536,-1.030000,2.475000,-0.420000,2.475000,
-0.416464,2.473536,-0.415000,2.470000,-0.415000,1.775000,0.235000,1.775000,0.235000,2.470000,0.236464,2.473536,0.240000,2.475000,0.850000,2.475000,0.853536,2.473536,0.855000,2.470000,0.855000,1.775000,1.505000,1.775000,1.505000,2.480000,1.506464,2.483536,1.510000,2.485000,2.120000,2.485000,2.123536,2.483536,2.123536,2.483536,$1*%
G04 Aperture macros list end*
%ADD10C,0.120000*%
%ADD11C,0.153000*%
%ADD12C,0.150000*%
%ADD13R,1.680000X0.400000*%
%ADD14C,1.740000*%
%ADD15RoundRect,0.250560X0.619440X0.619440X-0.619440X0.619440X-0.619440X-0.619440X0.619440X-0.619440X0*%
%ADD16C,3.400000*%
%ADD17RoundRect,0.250560X-0.619440X-0.619440X0.619440X-0.619440X0.619440X0.619440X-0.619440X0.619440X0*%
%ADD18C,1.500000*%
%ADD19RoundRect,0.250001X0.499999X-0.499999X0.499999X0.499999X-0.499999X0.499999X-0.499999X-0.499999X0*%
%ADD20C,3.000000*%
%ADD21RoundRect,0.250001X-0.499999X0.499999X-0.499999X-0.499999X0.499999X-0.499999X0.499999X0.499999X0*%
%ADD22C,3.200000*%
%ADD23RoundRect,0.218750X-0.218750X-0.256250X0.218750X-0.256250X0.218750X0.256250X-0.218750X0.256250X0*%
%ADD24RoundRect,0.237500X-0.237500X0.287500X-0.237500X-0.287500X0.237500X-0.287500X0.237500X0.287500X0*%
%ADD25RoundRect,0.218750X0.218750X0.256250X-0.218750X0.256250X-0.218750X-0.256250X0.218750X-0.256250X0*%
%ADD26RoundRect,0.218750X0.256250X-0.218750X0.256250X0.218750X-0.256250X0.218750X-0.256250X-0.218750X0*%
%ADD27RoundRect,0.237500X-0.287500X-0.237500X0.287500X-0.237500X0.287500X0.237500X-0.287500X0.237500X0*%
%ADD28RoundRect,0.150000X-0.825000X-0.150000X0.825000X-0.150000X0.825000X0.150000X-0.825000X0.150000X0*%
%ADD29R,1.500000X1.050000*%
%ADD30O,1.500000X1.050000*%
%ADD31RoundRect,0.132500X-0.132500X0.857500X-0.132500X-0.857500X0.132500X-0.857500X0.132500X0.857500X0*%
%ADD32RoundRect,0.218750X-0.256250X0.218750X-0.256250X-0.218750X0.256250X-0.218750X0.256250X0.218750X0*%
%ADD33RoundRect,0.112500X-0.187500X-0.112500X0.187500X-0.112500X0.187500X0.112500X-0.187500X0.112500X0*%
%ADD34RoundRect,0.237500X0.287500X0.237500X-0.287500X0.237500X-0.287500X-0.237500X0.287500X-0.237500X0*%
%ADD35R,0.610000X1.270000*%
%ADD36FreePoly0,0.000000*%
%ADD37RoundRect,0.132500X0.857500X0.132500X-0.857500X0.132500X-0.857500X-0.132500X0.857500X-0.132500X0*%
%ADD38RoundRect,0.237500X0.237500X-0.287500X0.237500X0.287500X-0.237500X0.287500X-0.237500X-0.287500X0*%
%ADD39RoundRect,0.150000X-0.512500X-0.150000X0.512500X-0.150000X0.512500X0.150000X-0.512500X0.150000X0*%
%ADD40C,1.440000*%
%ADD41RoundRect,0.100000X0.637500X0.100000X-0.637500X0.100000X-0.637500X-0.100000X0.637500X-0.100000X0*%
%ADD42RoundRect,0.150000X-0.150000X0.825000X-0.150000X-0.825000X0.150000X-0.825000X0.150000X0.825000X0*%
%ADD43RoundRect,0.100000X-0.712500X-0.100000X0.712500X-0.100000X0.712500X0.100000X-0.712500X0.100000X0*%
%ADD44C,2.500000*%
%ADD45RoundRect,0.150000X0.512500X0.150000X-0.512500X0.150000X-0.512500X-0.150000X0.512500X-0.150000X0*%
%ADD46FreePoly0,180.000000*%
G04 APERTURE END LIST*
D10*
X146367638Y-58356523D02*
X145859638Y-58864523D01*
X145859638Y-58864523D02*
X145859638Y-57848523D01*
X121758600Y-113040800D02*
X121758600Y-114056800D01*
X197142238Y-76314323D02*
X198158238Y-76314323D01*
X197650238Y-76822323D02*
X197142238Y-76314323D01*
X163744800Y-112786800D02*
X165014800Y-112786800D01*
X197650238Y-76822323D02*
X198158238Y-76314323D01*
X146367638Y-58356523D02*
X145859638Y-57848523D01*
X121250600Y-113548800D02*
X121758600Y-113040800D01*
X163109800Y-112786800D02*
X163617800Y-113294800D01*
X145732638Y-58356523D02*
X144462638Y-58356523D01*
X163109800Y-112786800D02*
X163617800Y-112278800D01*
X163617800Y-112278800D02*
X163617800Y-113294800D01*
X177152438Y-58813723D02*
X176644438Y-58305723D01*
X176517438Y-58813723D02*
X175247438Y-58813723D01*
X121885600Y-113548800D02*
X123155600Y-113548800D01*
X176644438Y-59321723D02*
X176644438Y-58305723D01*
X177152438Y-58813723D02*
X176644438Y-59321723D01*
X197650238Y-76187323D02*
X197650238Y-74917323D01*
X121250600Y-113548800D02*
X121758600Y-114056800D01*
D11*
X154270009Y-117597003D02*
X154270009Y-116930336D01*
X154548581Y-117597003D02*
X154548581Y-117073194D01*
X154548581Y-117073194D02*
X154517628Y-116977956D01*
X154517628Y-116977956D02*
X154455723Y-116930336D01*
X154455723Y-116930336D02*
X154362866Y-116930336D01*
X154362866Y-116930336D02*
X154300962Y-116977956D01*
X154300962Y-116977956D02*
X154270009Y-117025575D01*
X153960486Y-116930336D02*
X153960486Y-117930336D01*
X153960486Y-117930336D02*
X153712867Y-117930336D01*
X153712867Y-117930336D02*
X153650962Y-117882717D01*
X153650962Y-117882717D02*
X153620009Y-117835098D01*
X153620009Y-117835098D02*
X153589057Y-117739860D01*
X153589057Y-117739860D02*
X153589057Y-117597003D01*
X153589057Y-117597003D02*
X153620009Y-117501765D01*
X153620009Y-117501765D02*
X153650962Y-117454146D01*
X153650962Y-117454146D02*
X153712867Y-117406527D01*
X153712867Y-117406527D02*
X153960486Y-117406527D01*
X152939057Y-117025575D02*
X152970009Y-116977956D01*
X152970009Y-116977956D02*
X153062867Y-116930336D01*
X153062867Y-116930336D02*
X153124771Y-116930336D01*
X153124771Y-116930336D02*
X153217628Y-116977956D01*
X153217628Y-116977956D02*
X153279533Y-117073194D01*
X153279533Y-117073194D02*
X153310486Y-117168432D01*
X153310486Y-117168432D02*
X153341438Y-117358908D01*
X153341438Y-117358908D02*
X153341438Y-117501765D01*
X153341438Y-117501765D02*
X153310486Y-117692241D01*
X153310486Y-117692241D02*
X153279533Y-117787479D01*
X153279533Y-117787479D02*
X153217628Y-117882717D01*
X153217628Y-117882717D02*
X153124771Y-117930336D01*
X153124771Y-117930336D02*
X153062867Y-117930336D01*
X153062867Y-117930336D02*
X152970009Y-117882717D01*
X152970009Y-117882717D02*
X152939057Y-117835098D01*
X174992019Y-58283659D02*
X174992019Y-59283659D01*
X174992019Y-58807469D02*
X174620590Y-58807469D01*
X174620590Y-58283659D02*
X174620590Y-59283659D01*
X174001543Y-58283659D02*
X174311067Y-58283659D01*
X174311067Y-58283659D02*
X174311067Y-59283659D01*
X173506305Y-58950326D02*
X173506305Y-58283659D01*
X173661067Y-59331279D02*
X173815829Y-58616993D01*
X173815829Y-58616993D02*
X173413448Y-58616993D01*
X197120174Y-72175541D02*
X198120174Y-72175541D01*
X197643984Y-72175541D02*
X197643984Y-72546970D01*
X197120174Y-72546970D02*
X198120174Y-72546970D01*
X197120174Y-73166017D02*
X197120174Y-72856493D01*
X197120174Y-72856493D02*
X198120174Y-72856493D01*
X198120174Y-73320779D02*
X197120174Y-73754112D01*
X198120174Y-73754112D02*
X197120174Y-73320779D01*
X167528809Y-112923403D02*
X167528809Y-112256736D01*
X167807381Y-112923403D02*
X167807381Y-112399594D01*
X167807381Y-112399594D02*
X167776428Y-112304356D01*
X167776428Y-112304356D02*
X167714523Y-112256736D01*
X167714523Y-112256736D02*
X167621666Y-112256736D01*
X167621666Y-112256736D02*
X167559762Y-112304356D01*
X167559762Y-112304356D02*
X167528809Y-112351975D01*
X167219286Y-112256736D02*
X167219286Y-113256736D01*
X167219286Y-113256736D02*
X166971667Y-113256736D01*
X166971667Y-113256736D02*
X166909762Y-113209117D01*
X166909762Y-113209117D02*
X166878809Y-113161498D01*
X166878809Y-113161498D02*
X166847857Y-113066260D01*
X166847857Y-113066260D02*
X166847857Y-112923403D01*
X166847857Y-112923403D02*
X166878809Y-112828165D01*
X166878809Y-112828165D02*
X166909762Y-112780546D01*
X166909762Y-112780546D02*
X166971667Y-112732927D01*
X166971667Y-112732927D02*
X167219286Y-112732927D01*
X166197857Y-112351975D02*
X166228809Y-112304356D01*
X166228809Y-112304356D02*
X166321667Y-112256736D01*
X166321667Y-112256736D02*
X166383571Y-112256736D01*
X166383571Y-112256736D02*
X166476428Y-112304356D01*
X166476428Y-112304356D02*
X166538333Y-112399594D01*
X166538333Y-112399594D02*
X166569286Y-112494832D01*
X166569286Y-112494832D02*
X166600238Y-112685308D01*
X166600238Y-112685308D02*
X166600238Y-112828165D01*
X166600238Y-112828165D02*
X166569286Y-113018641D01*
X166569286Y-113018641D02*
X166538333Y-113113879D01*
X166538333Y-113113879D02*
X166476428Y-113209117D01*
X166476428Y-113209117D02*
X166383571Y-113256736D01*
X166383571Y-113256736D02*
X166321667Y-113256736D01*
X166321667Y-113256736D02*
X166228809Y-113209117D01*
X166228809Y-113209117D02*
X166197857Y-113161498D01*
X98815501Y-136079104D02*
X97815501Y-136079104D01*
X97815501Y-136079104D02*
X97815501Y-135831485D01*
X97815501Y-135831485D02*
X97863120Y-135769580D01*
X97863120Y-135769580D02*
X97910739Y-135738627D01*
X97910739Y-135738627D02*
X98005977Y-135707675D01*
X98005977Y-135707675D02*
X98148834Y-135707675D01*
X98148834Y-135707675D02*
X98244072Y-135738627D01*
X98244072Y-135738627D02*
X98291691Y-135769580D01*
X98291691Y-135769580D02*
X98339310Y-135831485D01*
X98339310Y-135831485D02*
X98339310Y-136079104D01*
X97815501Y-135305294D02*
X97815501Y-135181485D01*
X97815501Y-135181485D02*
X97863120Y-135119580D01*
X97863120Y-135119580D02*
X97958358Y-135057675D01*
X97958358Y-135057675D02*
X98148834Y-135026723D01*
X98148834Y-135026723D02*
X98482167Y-135026723D01*
X98482167Y-135026723D02*
X98672643Y-135057675D01*
X98672643Y-135057675D02*
X98767882Y-135119580D01*
X98767882Y-135119580D02*
X98815501Y-135181485D01*
X98815501Y-135181485D02*
X98815501Y-135305294D01*
X98815501Y-135305294D02*
X98767882Y-135367199D01*
X98767882Y-135367199D02*
X98672643Y-135429104D01*
X98672643Y-135429104D02*
X98482167Y-135460056D01*
X98482167Y-135460056D02*
X98148834Y-135460056D01*
X98148834Y-135460056D02*
X97958358Y-135429104D01*
X97958358Y-135429104D02*
X97863120Y-135367199D01*
X97863120Y-135367199D02*
X97815501Y-135305294D01*
X97815501Y-134810056D02*
X98815501Y-134655294D01*
X98815501Y-134655294D02*
X98101215Y-134531485D01*
X98101215Y-134531485D02*
X98815501Y-134407675D01*
X98815501Y-134407675D02*
X97815501Y-134252914D01*
X98291691Y-134005295D02*
X98291691Y-133788628D01*
X98815501Y-133695771D02*
X98815501Y-134005295D01*
X98815501Y-134005295D02*
X97815501Y-134005295D01*
X97815501Y-134005295D02*
X97815501Y-133695771D01*
X98815501Y-133045771D02*
X98339310Y-133262438D01*
X98815501Y-133417200D02*
X97815501Y-133417200D01*
X97815501Y-133417200D02*
X97815501Y-133169581D01*
X97815501Y-133169581D02*
X97863120Y-133107676D01*
X97863120Y-133107676D02*
X97910739Y-133076723D01*
X97910739Y-133076723D02*
X98005977Y-133045771D01*
X98005977Y-133045771D02*
X98148834Y-133045771D01*
X98148834Y-133045771D02*
X98244072Y-133076723D01*
X98244072Y-133076723D02*
X98291691Y-133107676D01*
X98291691Y-133107676D02*
X98339310Y-133169581D01*
X98339310Y-133169581D02*
X98339310Y-133417200D01*
X140194019Y-53508459D02*
X140194019Y-54508459D01*
X140194019Y-54032269D02*
X139822590Y-54032269D01*
X139822590Y-53508459D02*
X139822590Y-54508459D01*
X139203543Y-53508459D02*
X139513067Y-53508459D01*
X139513067Y-53508459D02*
X139513067Y-54508459D01*
X138646400Y-53508459D02*
X139017829Y-53508459D01*
X138832115Y-53508459D02*
X138832115Y-54508459D01*
X138832115Y-54508459D02*
X138894019Y-54365602D01*
X138894019Y-54365602D02*
X138955924Y-54270364D01*
X138955924Y-54270364D02*
X139017829Y-54222745D01*
X144207219Y-57877259D02*
X144207219Y-58877259D01*
X144207219Y-58401069D02*
X143835790Y-58401069D01*
X143835790Y-57877259D02*
X143835790Y-58877259D01*
X143216743Y-57877259D02*
X143526267Y-57877259D01*
X143526267Y-57877259D02*
X143526267Y-58877259D01*
X143031029Y-58782021D02*
X143000077Y-58829640D01*
X143000077Y-58829640D02*
X142938172Y-58877259D01*
X142938172Y-58877259D02*
X142783410Y-58877259D01*
X142783410Y-58877259D02*
X142721505Y-58829640D01*
X142721505Y-58829640D02*
X142690553Y-58782021D01*
X142690553Y-58782021D02*
X142659600Y-58686783D01*
X142659600Y-58686783D02*
X142659600Y-58591545D01*
X142659600Y-58591545D02*
X142690553Y-58448688D01*
X142690553Y-58448688D02*
X143061981Y-57877259D01*
X143061981Y-57877259D02*
X142659600Y-57877259D01*
X170470819Y-53559259D02*
X170470819Y-54559259D01*
X170470819Y-54083069D02*
X170099390Y-54083069D01*
X170099390Y-53559259D02*
X170099390Y-54559259D01*
X169480343Y-53559259D02*
X169789867Y-53559259D01*
X169789867Y-53559259D02*
X169789867Y-54559259D01*
X169325581Y-54559259D02*
X168923200Y-54559259D01*
X168923200Y-54559259D02*
X169139867Y-54178307D01*
X169139867Y-54178307D02*
X169047010Y-54178307D01*
X169047010Y-54178307D02*
X168985105Y-54130688D01*
X168985105Y-54130688D02*
X168954153Y-54083069D01*
X168954153Y-54083069D02*
X168923200Y-53987831D01*
X168923200Y-53987831D02*
X168923200Y-53749736D01*
X168923200Y-53749736D02*
X168954153Y-53654498D01*
X168954153Y-53654498D02*
X168985105Y-53606879D01*
X168985105Y-53606879D02*
X169047010Y-53559259D01*
X169047010Y-53559259D02*
X169232724Y-53559259D01*
X169232724Y-53559259D02*
X169294629Y-53606879D01*
X169294629Y-53606879D02*
X169325581Y-53654498D01*
X185761619Y-53610059D02*
X185761619Y-54610059D01*
X185761619Y-54133869D02*
X185390190Y-54133869D01*
X185390190Y-53610059D02*
X185390190Y-54610059D01*
X184771143Y-53610059D02*
X185080667Y-53610059D01*
X185080667Y-53610059D02*
X185080667Y-54610059D01*
X184275905Y-54276726D02*
X184275905Y-53610059D01*
X184430667Y-54657679D02*
X184585429Y-53943393D01*
X184585429Y-53943393D02*
X184183048Y-53943393D01*
X132364104Y-118289117D02*
X132426009Y-118336736D01*
X132426009Y-118336736D02*
X132518866Y-118336736D01*
X132518866Y-118336736D02*
X132611723Y-118289117D01*
X132611723Y-118289117D02*
X132673628Y-118193879D01*
X132673628Y-118193879D02*
X132704581Y-118098641D01*
X132704581Y-118098641D02*
X132735533Y-117908165D01*
X132735533Y-117908165D02*
X132735533Y-117765308D01*
X132735533Y-117765308D02*
X132704581Y-117574832D01*
X132704581Y-117574832D02*
X132673628Y-117479594D01*
X132673628Y-117479594D02*
X132611723Y-117384356D01*
X132611723Y-117384356D02*
X132518866Y-117336736D01*
X132518866Y-117336736D02*
X132456962Y-117336736D01*
X132456962Y-117336736D02*
X132364104Y-117384356D01*
X132364104Y-117384356D02*
X132333152Y-117431975D01*
X132333152Y-117431975D02*
X132333152Y-117765308D01*
X132333152Y-117765308D02*
X132456962Y-117765308D01*
X131683152Y-117431975D02*
X131714104Y-117384356D01*
X131714104Y-117384356D02*
X131806962Y-117336736D01*
X131806962Y-117336736D02*
X131868866Y-117336736D01*
X131868866Y-117336736D02*
X131961723Y-117384356D01*
X131961723Y-117384356D02*
X132023628Y-117479594D01*
X132023628Y-117479594D02*
X132054581Y-117574832D01*
X132054581Y-117574832D02*
X132085533Y-117765308D01*
X132085533Y-117765308D02*
X132085533Y-117908165D01*
X132085533Y-117908165D02*
X132054581Y-118098641D01*
X132054581Y-118098641D02*
X132023628Y-118193879D01*
X132023628Y-118193879D02*
X131961723Y-118289117D01*
X131961723Y-118289117D02*
X131868866Y-118336736D01*
X131868866Y-118336736D02*
X131806962Y-118336736D01*
X131806962Y-118336736D02*
X131714104Y-118289117D01*
X131714104Y-118289117D02*
X131683152Y-118241498D01*
X101358682Y-75454856D02*
X101406301Y-75361999D01*
X101406301Y-75361999D02*
X101406301Y-75207237D01*
X101406301Y-75207237D02*
X101358682Y-75145332D01*
X101358682Y-75145332D02*
X101311062Y-75114380D01*
X101311062Y-75114380D02*
X101215824Y-75083427D01*
X101215824Y-75083427D02*
X101120586Y-75083427D01*
X101120586Y-75083427D02*
X101025348Y-75114380D01*
X101025348Y-75114380D02*
X100977729Y-75145332D01*
X100977729Y-75145332D02*
X100930110Y-75207237D01*
X100930110Y-75207237D02*
X100882491Y-75331046D01*
X100882491Y-75331046D02*
X100834872Y-75392951D01*
X100834872Y-75392951D02*
X100787253Y-75423904D01*
X100787253Y-75423904D02*
X100692015Y-75454856D01*
X100692015Y-75454856D02*
X100596777Y-75454856D01*
X100596777Y-75454856D02*
X100501539Y-75423904D01*
X100501539Y-75423904D02*
X100453920Y-75392951D01*
X100453920Y-75392951D02*
X100406301Y-75331046D01*
X100406301Y-75331046D02*
X100406301Y-75176285D01*
X100406301Y-75176285D02*
X100453920Y-75083427D01*
X101406301Y-74804856D02*
X100406301Y-74804856D01*
X100453920Y-74154855D02*
X100406301Y-74216760D01*
X100406301Y-74216760D02*
X100406301Y-74309617D01*
X100406301Y-74309617D02*
X100453920Y-74402474D01*
X100453920Y-74402474D02*
X100549158Y-74464379D01*
X100549158Y-74464379D02*
X100644396Y-74495332D01*
X100644396Y-74495332D02*
X100834872Y-74526284D01*
X100834872Y-74526284D02*
X100977729Y-74526284D01*
X100977729Y-74526284D02*
X101168205Y-74495332D01*
X101168205Y-74495332D02*
X101263443Y-74464379D01*
X101263443Y-74464379D02*
X101358682Y-74402474D01*
X101358682Y-74402474D02*
X101406301Y-74309617D01*
X101406301Y-74309617D02*
X101406301Y-74247713D01*
X101406301Y-74247713D02*
X101358682Y-74154855D01*
X101358682Y-74154855D02*
X101311062Y-74123903D01*
X101311062Y-74123903D02*
X100977729Y-74123903D01*
X100977729Y-74123903D02*
X100977729Y-74247713D01*
X101406301Y-73845332D02*
X100406301Y-73845332D01*
X100406301Y-73845332D02*
X101406301Y-73473903D01*
X101406301Y-73473903D02*
X100406301Y-73473903D01*
X101120586Y-73195332D02*
X101120586Y-72885808D01*
X101406301Y-73257237D02*
X100406301Y-73040570D01*
X100406301Y-73040570D02*
X101406301Y-72823903D01*
X101406301Y-72297713D02*
X101406301Y-72607237D01*
X101406301Y-72607237D02*
X100406301Y-72607237D01*
X101406301Y-71740570D02*
X101406301Y-72111999D01*
X101406301Y-71926285D02*
X100406301Y-71926285D01*
X100406301Y-71926285D02*
X100549158Y-71988189D01*
X100549158Y-71988189D02*
X100644396Y-72050094D01*
X100644396Y-72050094D02*
X100692015Y-72111999D01*
X102019394Y-49589389D02*
X101971774Y-49682246D01*
X101971774Y-49682246D02*
X101971774Y-49837008D01*
X101971774Y-49837008D02*
X102019394Y-49898913D01*
X102019394Y-49898913D02*
X102067013Y-49929865D01*
X102067013Y-49929865D02*
X102162251Y-49960818D01*
X102162251Y-49960818D02*
X102257489Y-49960818D01*
X102257489Y-49960818D02*
X102352727Y-49929865D01*
X102352727Y-49929865D02*
X102400346Y-49898913D01*
X102400346Y-49898913D02*
X102447965Y-49837008D01*
X102447965Y-49837008D02*
X102495584Y-49713199D01*
X102495584Y-49713199D02*
X102543203Y-49651294D01*
X102543203Y-49651294D02*
X102590822Y-49620341D01*
X102590822Y-49620341D02*
X102686060Y-49589389D01*
X102686060Y-49589389D02*
X102781298Y-49589389D01*
X102781298Y-49589389D02*
X102876536Y-49620341D01*
X102876536Y-49620341D02*
X102924155Y-49651294D01*
X102924155Y-49651294D02*
X102971774Y-49713199D01*
X102971774Y-49713199D02*
X102971774Y-49867960D01*
X102971774Y-49867960D02*
X102924155Y-49960818D01*
X101971774Y-50517961D02*
X102495584Y-50517961D01*
X102495584Y-50517961D02*
X102590822Y-50487008D01*
X102590822Y-50487008D02*
X102638441Y-50425104D01*
X102638441Y-50425104D02*
X102638441Y-50301294D01*
X102638441Y-50301294D02*
X102590822Y-50239389D01*
X102019394Y-50517961D02*
X101971774Y-50456056D01*
X101971774Y-50456056D02*
X101971774Y-50301294D01*
X101971774Y-50301294D02*
X102019394Y-50239389D01*
X102019394Y-50239389D02*
X102114632Y-50208437D01*
X102114632Y-50208437D02*
X102209870Y-50208437D01*
X102209870Y-50208437D02*
X102305108Y-50239389D01*
X102305108Y-50239389D02*
X102352727Y-50301294D01*
X102352727Y-50301294D02*
X102352727Y-50456056D01*
X102352727Y-50456056D02*
X102400346Y-50517961D01*
X102638441Y-50734627D02*
X102638441Y-50982246D01*
X101971774Y-50827484D02*
X102828917Y-50827484D01*
X102828917Y-50827484D02*
X102924155Y-50858437D01*
X102924155Y-50858437D02*
X102971774Y-50920342D01*
X102971774Y-50920342D02*
X102971774Y-50982246D01*
X102019394Y-51446532D02*
X101971774Y-51384628D01*
X101971774Y-51384628D02*
X101971774Y-51260818D01*
X101971774Y-51260818D02*
X102019394Y-51198913D01*
X102019394Y-51198913D02*
X102114632Y-51167961D01*
X102114632Y-51167961D02*
X102495584Y-51167961D01*
X102495584Y-51167961D02*
X102590822Y-51198913D01*
X102590822Y-51198913D02*
X102638441Y-51260818D01*
X102638441Y-51260818D02*
X102638441Y-51384628D01*
X102638441Y-51384628D02*
X102590822Y-51446532D01*
X102590822Y-51446532D02*
X102495584Y-51477485D01*
X102495584Y-51477485D02*
X102400346Y-51477485D01*
X102400346Y-51477485D02*
X102305108Y-51167961D01*
X102638441Y-51663199D02*
X102638441Y-51910818D01*
X102971774Y-51756056D02*
X102114632Y-51756056D01*
X102114632Y-51756056D02*
X102019394Y-51787009D01*
X102019394Y-51787009D02*
X101971774Y-51848914D01*
X101971774Y-51848914D02*
X101971774Y-51910818D01*
X102638441Y-52065581D02*
X101971774Y-52220343D01*
X102638441Y-52375104D02*
X101971774Y-52220343D01*
X101971774Y-52220343D02*
X101733679Y-52158438D01*
X101733679Y-52158438D02*
X101686060Y-52127485D01*
X101686060Y-52127485D02*
X101638441Y-52065581D01*
X101876536Y-52467962D02*
X101876536Y-52963200D01*
X102971774Y-53025104D02*
X102971774Y-53396533D01*
X101971774Y-53210819D02*
X102971774Y-53210819D01*
X102067013Y-53984628D02*
X102019394Y-53953676D01*
X102019394Y-53953676D02*
X101971774Y-53860818D01*
X101971774Y-53860818D02*
X101971774Y-53798914D01*
X101971774Y-53798914D02*
X102019394Y-53706057D01*
X102019394Y-53706057D02*
X102114632Y-53644152D01*
X102114632Y-53644152D02*
X102209870Y-53613199D01*
X102209870Y-53613199D02*
X102400346Y-53582247D01*
X102400346Y-53582247D02*
X102543203Y-53582247D01*
X102543203Y-53582247D02*
X102733679Y-53613199D01*
X102733679Y-53613199D02*
X102828917Y-53644152D01*
X102828917Y-53644152D02*
X102924155Y-53706057D01*
X102924155Y-53706057D02*
X102971774Y-53798914D01*
X102971774Y-53798914D02*
X102971774Y-53860818D01*
X102971774Y-53860818D02*
X102924155Y-53953676D01*
X102924155Y-53953676D02*
X102876536Y-53984628D01*
X126202181Y-113069536D02*
X126202181Y-114069536D01*
X126202181Y-114069536D02*
X126047419Y-114069536D01*
X126047419Y-114069536D02*
X125954562Y-114021917D01*
X125954562Y-114021917D02*
X125892657Y-113926679D01*
X125892657Y-113926679D02*
X125861704Y-113831441D01*
X125861704Y-113831441D02*
X125830752Y-113640965D01*
X125830752Y-113640965D02*
X125830752Y-113498108D01*
X125830752Y-113498108D02*
X125861704Y-113307632D01*
X125861704Y-113307632D02*
X125892657Y-113212394D01*
X125892657Y-113212394D02*
X125954562Y-113117156D01*
X125954562Y-113117156D02*
X126047419Y-113069536D01*
X126047419Y-113069536D02*
X126202181Y-113069536D01*
X125552181Y-113069536D02*
X125552181Y-114069536D01*
X125552181Y-114069536D02*
X125335514Y-113355251D01*
X125335514Y-113355251D02*
X125118847Y-114069536D01*
X125118847Y-114069536D02*
X125118847Y-113069536D01*
X124840276Y-113117156D02*
X124747419Y-113069536D01*
X124747419Y-113069536D02*
X124592657Y-113069536D01*
X124592657Y-113069536D02*
X124530752Y-113117156D01*
X124530752Y-113117156D02*
X124499800Y-113164775D01*
X124499800Y-113164775D02*
X124468847Y-113260013D01*
X124468847Y-113260013D02*
X124468847Y-113355251D01*
X124468847Y-113355251D02*
X124499800Y-113450489D01*
X124499800Y-113450489D02*
X124530752Y-113498108D01*
X124530752Y-113498108D02*
X124592657Y-113545727D01*
X124592657Y-113545727D02*
X124716466Y-113593346D01*
X124716466Y-113593346D02*
X124778371Y-113640965D01*
X124778371Y-113640965D02*
X124809324Y-113688584D01*
X124809324Y-113688584D02*
X124840276Y-113783822D01*
X124840276Y-113783822D02*
X124840276Y-113879060D01*
X124840276Y-113879060D02*
X124809324Y-113974298D01*
X124809324Y-113974298D02*
X124778371Y-114021917D01*
X124778371Y-114021917D02*
X124716466Y-114069536D01*
X124716466Y-114069536D02*
X124561705Y-114069536D01*
X124561705Y-114069536D02*
X124468847Y-114021917D01*
X197170974Y-81555418D02*
X198170974Y-81555418D01*
X197694784Y-81555418D02*
X197694784Y-81926847D01*
X197170974Y-81926847D02*
X198170974Y-81926847D01*
X197170974Y-82545894D02*
X197170974Y-82236370D01*
X197170974Y-82236370D02*
X198170974Y-82236370D01*
X198170974Y-82700656D02*
X197170974Y-83133989D01*
X198170974Y-83133989D02*
X197170974Y-82700656D01*
X171820581Y-117082736D02*
X171820581Y-118082736D01*
X171820581Y-117606546D02*
X171449152Y-117606546D01*
X171449152Y-117082736D02*
X171449152Y-118082736D01*
X170830105Y-117082736D02*
X171139629Y-117082736D01*
X171139629Y-117082736D02*
X171139629Y-118082736D01*
X170675343Y-118082736D02*
X170242010Y-118082736D01*
X170242010Y-118082736D02*
X170520581Y-117082736D01*
X155078419Y-53508459D02*
X155078419Y-54508459D01*
X155078419Y-54032269D02*
X154706990Y-54032269D01*
X154706990Y-53508459D02*
X154706990Y-54508459D01*
X154087943Y-53508459D02*
X154397467Y-53508459D01*
X154397467Y-53508459D02*
X154397467Y-54508459D01*
X153902229Y-54413221D02*
X153871277Y-54460840D01*
X153871277Y-54460840D02*
X153809372Y-54508459D01*
X153809372Y-54508459D02*
X153654610Y-54508459D01*
X153654610Y-54508459D02*
X153592705Y-54460840D01*
X153592705Y-54460840D02*
X153561753Y-54413221D01*
X153561753Y-54413221D02*
X153530800Y-54317983D01*
X153530800Y-54317983D02*
X153530800Y-54222745D01*
X153530800Y-54222745D02*
X153561753Y-54079888D01*
X153561753Y-54079888D02*
X153933181Y-53508459D01*
X153933181Y-53508459D02*
X153530800Y-53508459D01*
X112638581Y-116981136D02*
X112638581Y-117981136D01*
X112638581Y-117981136D02*
X112483819Y-117981136D01*
X112483819Y-117981136D02*
X112390962Y-117933517D01*
X112390962Y-117933517D02*
X112329057Y-117838279D01*
X112329057Y-117838279D02*
X112298104Y-117743041D01*
X112298104Y-117743041D02*
X112267152Y-117552565D01*
X112267152Y-117552565D02*
X112267152Y-117409708D01*
X112267152Y-117409708D02*
X112298104Y-117219232D01*
X112298104Y-117219232D02*
X112329057Y-117123994D01*
X112329057Y-117123994D02*
X112390962Y-117028756D01*
X112390962Y-117028756D02*
X112483819Y-116981136D01*
X112483819Y-116981136D02*
X112638581Y-116981136D01*
X111988581Y-116981136D02*
X111988581Y-117981136D01*
X111988581Y-117981136D02*
X111771914Y-117266851D01*
X111771914Y-117266851D02*
X111555247Y-117981136D01*
X111555247Y-117981136D02*
X111555247Y-116981136D01*
X111276676Y-117028756D02*
X111183819Y-116981136D01*
X111183819Y-116981136D02*
X111029057Y-116981136D01*
X111029057Y-116981136D02*
X110967152Y-117028756D01*
X110967152Y-117028756D02*
X110936200Y-117076375D01*
X110936200Y-117076375D02*
X110905247Y-117171613D01*
X110905247Y-117171613D02*
X110905247Y-117266851D01*
X110905247Y-117266851D02*
X110936200Y-117362089D01*
X110936200Y-117362089D02*
X110967152Y-117409708D01*
X110967152Y-117409708D02*
X111029057Y-117457327D01*
X111029057Y-117457327D02*
X111152866Y-117504946D01*
X111152866Y-117504946D02*
X111214771Y-117552565D01*
X111214771Y-117552565D02*
X111245724Y-117600184D01*
X111245724Y-117600184D02*
X111276676Y-117695422D01*
X111276676Y-117695422D02*
X111276676Y-117790660D01*
X111276676Y-117790660D02*
X111245724Y-117885898D01*
X111245724Y-117885898D02*
X111214771Y-117933517D01*
X111214771Y-117933517D02*
X111152866Y-117981136D01*
X111152866Y-117981136D02*
X110998105Y-117981136D01*
X110998105Y-117981136D02*
X110905247Y-117933517D01*
X162843161Y-92886663D02*
X162843161Y-93696186D01*
X162843161Y-93696186D02*
X162874114Y-93791424D01*
X162874114Y-93791424D02*
X162905066Y-93839044D01*
X162905066Y-93839044D02*
X162966971Y-93886663D01*
X162966971Y-93886663D02*
X163090780Y-93886663D01*
X163090780Y-93886663D02*
X163152685Y-93839044D01*
X163152685Y-93839044D02*
X163183638Y-93791424D01*
X163183638Y-93791424D02*
X163214590Y-93696186D01*
X163214590Y-93696186D02*
X163214590Y-92886663D01*
X163802685Y-93219996D02*
X163802685Y-93886663D01*
X163647923Y-92839044D02*
X163493161Y-93553329D01*
X163493161Y-93553329D02*
X163895542Y-93553329D01*
X160108133Y-62446663D02*
X160108133Y-63160948D01*
X160108133Y-63160948D02*
X160077180Y-63303805D01*
X160077180Y-63303805D02*
X160015276Y-63399044D01*
X160015276Y-63399044D02*
X159922418Y-63446663D01*
X159922418Y-63446663D02*
X159860514Y-63446663D01*
X160386704Y-62541901D02*
X160417656Y-62494282D01*
X160417656Y-62494282D02*
X160479561Y-62446663D01*
X160479561Y-62446663D02*
X160634323Y-62446663D01*
X160634323Y-62446663D02*
X160696228Y-62494282D01*
X160696228Y-62494282D02*
X160727180Y-62541901D01*
X160727180Y-62541901D02*
X160758133Y-62637139D01*
X160758133Y-62637139D02*
X160758133Y-62732377D01*
X160758133Y-62732377D02*
X160727180Y-62875234D01*
X160727180Y-62875234D02*
X160355752Y-63446663D01*
X160355752Y-63446663D02*
X160758133Y-63446663D01*
X143309733Y-108380663D02*
X143309733Y-109094948D01*
X143309733Y-109094948D02*
X143278780Y-109237805D01*
X143278780Y-109237805D02*
X143216876Y-109333044D01*
X143216876Y-109333044D02*
X143124018Y-109380663D01*
X143124018Y-109380663D02*
X143062114Y-109380663D01*
X143650209Y-109380663D02*
X143774018Y-109380663D01*
X143774018Y-109380663D02*
X143835923Y-109333044D01*
X143835923Y-109333044D02*
X143866875Y-109285424D01*
X143866875Y-109285424D02*
X143928780Y-109142567D01*
X143928780Y-109142567D02*
X143959733Y-108952091D01*
X143959733Y-108952091D02*
X143959733Y-108571139D01*
X143959733Y-108571139D02*
X143928780Y-108475901D01*
X143928780Y-108475901D02*
X143897828Y-108428282D01*
X143897828Y-108428282D02*
X143835923Y-108380663D01*
X143835923Y-108380663D02*
X143712114Y-108380663D01*
X143712114Y-108380663D02*
X143650209Y-108428282D01*
X143650209Y-108428282D02*
X143619256Y-108475901D01*
X143619256Y-108475901D02*
X143588304Y-108571139D01*
X143588304Y-108571139D02*
X143588304Y-108809234D01*
X143588304Y-108809234D02*
X143619256Y-108904472D01*
X143619256Y-108904472D02*
X143650209Y-108952091D01*
X143650209Y-108952091D02*
X143712114Y-108999710D01*
X143712114Y-108999710D02*
X143835923Y-108999710D01*
X143835923Y-108999710D02*
X143897828Y-108952091D01*
X143897828Y-108952091D02*
X143928780Y-108904472D01*
X143928780Y-108904472D02*
X143959733Y-108809234D01*
X96844063Y-59804190D02*
X97558348Y-59804190D01*
X97558348Y-59804190D02*
X97701205Y-59835143D01*
X97701205Y-59835143D02*
X97796444Y-59897047D01*
X97796444Y-59897047D02*
X97844063Y-59989905D01*
X97844063Y-59989905D02*
X97844063Y-60051809D01*
X97844063Y-59154190D02*
X97844063Y-59525619D01*
X97844063Y-59339905D02*
X96844063Y-59339905D01*
X96844063Y-59339905D02*
X96986920Y-59401809D01*
X96986920Y-59401809D02*
X97082158Y-59463714D01*
X97082158Y-59463714D02*
X97129777Y-59525619D01*
X97844063Y-58535142D02*
X97844063Y-58906571D01*
X97844063Y-58720857D02*
X96844063Y-58720857D01*
X96844063Y-58720857D02*
X96986920Y-58782761D01*
X96986920Y-58782761D02*
X97082158Y-58844666D01*
X97082158Y-58844666D02*
X97129777Y-58906571D01*
X189789063Y-95514390D02*
X190503348Y-95514390D01*
X190503348Y-95514390D02*
X190646205Y-95545343D01*
X190646205Y-95545343D02*
X190741444Y-95607247D01*
X190741444Y-95607247D02*
X190789063Y-95700105D01*
X190789063Y-95700105D02*
X190789063Y-95762009D01*
X190789063Y-94864390D02*
X190789063Y-95235819D01*
X190789063Y-95050105D02*
X189789063Y-95050105D01*
X189789063Y-95050105D02*
X189931920Y-95112009D01*
X189931920Y-95112009D02*
X190027158Y-95173914D01*
X190027158Y-95173914D02*
X190074777Y-95235819D01*
X189884301Y-94616771D02*
X189836682Y-94585819D01*
X189836682Y-94585819D02*
X189789063Y-94523914D01*
X189789063Y-94523914D02*
X189789063Y-94369152D01*
X189789063Y-94369152D02*
X189836682Y-94307247D01*
X189836682Y-94307247D02*
X189884301Y-94276295D01*
X189884301Y-94276295D02*
X189979539Y-94245342D01*
X189979539Y-94245342D02*
X190074777Y-94245342D01*
X190074777Y-94245342D02*
X190217634Y-94276295D01*
X190217634Y-94276295D02*
X190789063Y-94647723D01*
X190789063Y-94647723D02*
X190789063Y-94245342D01*
X112694447Y-61925986D02*
X112694447Y-62640271D01*
X112694447Y-62640271D02*
X112663494Y-62783128D01*
X112663494Y-62783128D02*
X112601590Y-62878367D01*
X112601590Y-62878367D02*
X112508732Y-62925986D01*
X112508732Y-62925986D02*
X112446828Y-62925986D01*
X113344447Y-62925986D02*
X112973018Y-62925986D01*
X113158732Y-62925986D02*
X113158732Y-61925986D01*
X113158732Y-61925986D02*
X113096828Y-62068843D01*
X113096828Y-62068843D02*
X113034923Y-62164081D01*
X113034923Y-62164081D02*
X112973018Y-62211700D01*
X113561114Y-61925986D02*
X113963495Y-61925986D01*
X113963495Y-61925986D02*
X113746828Y-62306938D01*
X113746828Y-62306938D02*
X113839685Y-62306938D01*
X113839685Y-62306938D02*
X113901590Y-62354557D01*
X113901590Y-62354557D02*
X113932542Y-62402176D01*
X113932542Y-62402176D02*
X113963495Y-62497414D01*
X113963495Y-62497414D02*
X113963495Y-62735509D01*
X113963495Y-62735509D02*
X113932542Y-62830747D01*
X113932542Y-62830747D02*
X113901590Y-62878367D01*
X113901590Y-62878367D02*
X113839685Y-62925986D01*
X113839685Y-62925986D02*
X113653971Y-62925986D01*
X113653971Y-62925986D02*
X113592066Y-62878367D01*
X113592066Y-62878367D02*
X113561114Y-62830747D01*
X94500409Y-54404263D02*
X94500409Y-53404263D01*
X94500409Y-53404263D02*
X94717076Y-54118548D01*
X94717076Y-54118548D02*
X94933743Y-53404263D01*
X94933743Y-53404263D02*
X94933743Y-54404263D01*
X95243266Y-54404263D02*
X95243266Y-53404263D01*
X95614695Y-54404263D02*
X95336124Y-53832834D01*
X95614695Y-53404263D02*
X95243266Y-53975691D01*
X96233743Y-54404263D02*
X95862314Y-54404263D01*
X96048028Y-54404263D02*
X96048028Y-53404263D01*
X96048028Y-53404263D02*
X95986124Y-53547120D01*
X95986124Y-53547120D02*
X95924219Y-53642358D01*
X95924219Y-53642358D02*
X95862314Y-53689977D01*
X196942409Y-50276663D02*
X196942409Y-49276663D01*
X196942409Y-49276663D02*
X197159076Y-49990948D01*
X197159076Y-49990948D02*
X197375743Y-49276663D01*
X197375743Y-49276663D02*
X197375743Y-50276663D01*
X197685266Y-50276663D02*
X197685266Y-49276663D01*
X198056695Y-50276663D02*
X197778124Y-49705234D01*
X198056695Y-49276663D02*
X197685266Y-49848091D01*
X198304314Y-49371901D02*
X198335266Y-49324282D01*
X198335266Y-49324282D02*
X198397171Y-49276663D01*
X198397171Y-49276663D02*
X198551933Y-49276663D01*
X198551933Y-49276663D02*
X198613838Y-49324282D01*
X198613838Y-49324282D02*
X198644790Y-49371901D01*
X198644790Y-49371901D02*
X198675743Y-49467139D01*
X198675743Y-49467139D02*
X198675743Y-49562377D01*
X198675743Y-49562377D02*
X198644790Y-49705234D01*
X198644790Y-49705234D02*
X198273362Y-50276663D01*
X198273362Y-50276663D02*
X198675743Y-50276663D01*
X196942409Y-107641663D02*
X196942409Y-106641663D01*
X196942409Y-106641663D02*
X197159076Y-107355948D01*
X197159076Y-107355948D02*
X197375743Y-106641663D01*
X197375743Y-106641663D02*
X197375743Y-107641663D01*
X197685266Y-107641663D02*
X197685266Y-106641663D01*
X198056695Y-107641663D02*
X197778124Y-107070234D01*
X198056695Y-106641663D02*
X197685266Y-107213091D01*
X198273362Y-106641663D02*
X198675743Y-106641663D01*
X198675743Y-106641663D02*
X198459076Y-107022615D01*
X198459076Y-107022615D02*
X198551933Y-107022615D01*
X198551933Y-107022615D02*
X198613838Y-107070234D01*
X198613838Y-107070234D02*
X198644790Y-107117853D01*
X198644790Y-107117853D02*
X198675743Y-107213091D01*
X198675743Y-107213091D02*
X198675743Y-107451186D01*
X198675743Y-107451186D02*
X198644790Y-107546424D01*
X198644790Y-107546424D02*
X198613838Y-107594044D01*
X198613838Y-107594044D02*
X198551933Y-107641663D01*
X198551933Y-107641663D02*
X198366219Y-107641663D01*
X198366219Y-107641663D02*
X198304314Y-107594044D01*
X198304314Y-107594044D02*
X198273362Y-107546424D01*
X93128809Y-108764463D02*
X93128809Y-107764463D01*
X93128809Y-107764463D02*
X93345476Y-108478748D01*
X93345476Y-108478748D02*
X93562143Y-107764463D01*
X93562143Y-107764463D02*
X93562143Y-108764463D01*
X93871666Y-108764463D02*
X93871666Y-107764463D01*
X94243095Y-108764463D02*
X93964524Y-108193034D01*
X94243095Y-107764463D02*
X93871666Y-108335891D01*
X94800238Y-108097796D02*
X94800238Y-108764463D01*
X94645476Y-107716844D02*
X94490714Y-108431129D01*
X94490714Y-108431129D02*
X94893095Y-108431129D01*
X173291399Y-77678736D02*
X173291399Y-78488259D01*
X173291399Y-78488259D02*
X173322352Y-78583497D01*
X173322352Y-78583497D02*
X173353304Y-78631117D01*
X173353304Y-78631117D02*
X173415209Y-78678736D01*
X173415209Y-78678736D02*
X173539018Y-78678736D01*
X173539018Y-78678736D02*
X173600923Y-78631117D01*
X173600923Y-78631117D02*
X173631876Y-78583497D01*
X173631876Y-78583497D02*
X173662828Y-78488259D01*
X173662828Y-78488259D02*
X173662828Y-77678736D01*
X173941399Y-77773974D02*
X173972351Y-77726355D01*
X173972351Y-77726355D02*
X174034256Y-77678736D01*
X174034256Y-77678736D02*
X174189018Y-77678736D01*
X174189018Y-77678736D02*
X174250923Y-77726355D01*
X174250923Y-77726355D02*
X174281875Y-77773974D01*
X174281875Y-77773974D02*
X174312828Y-77869212D01*
X174312828Y-77869212D02*
X174312828Y-77964450D01*
X174312828Y-77964450D02*
X174281875Y-78107307D01*
X174281875Y-78107307D02*
X173910447Y-78678736D01*
X173910447Y-78678736D02*
X174312828Y-78678736D01*
X176518542Y-73085986D02*
X176301875Y-72609795D01*
X176147113Y-73085986D02*
X176147113Y-72085986D01*
X176147113Y-72085986D02*
X176394732Y-72085986D01*
X176394732Y-72085986D02*
X176456637Y-72133605D01*
X176456637Y-72133605D02*
X176487590Y-72181224D01*
X176487590Y-72181224D02*
X176518542Y-72276462D01*
X176518542Y-72276462D02*
X176518542Y-72419319D01*
X176518542Y-72419319D02*
X176487590Y-72514557D01*
X176487590Y-72514557D02*
X176456637Y-72562176D01*
X176456637Y-72562176D02*
X176394732Y-72609795D01*
X176394732Y-72609795D02*
X176147113Y-72609795D01*
X177137590Y-73085986D02*
X176766161Y-73085986D01*
X176951875Y-73085986D02*
X176951875Y-72085986D01*
X176951875Y-72085986D02*
X176889971Y-72228843D01*
X176889971Y-72228843D02*
X176828066Y-72324081D01*
X176828066Y-72324081D02*
X176766161Y-72371700D01*
X177354257Y-72085986D02*
X177787590Y-72085986D01*
X177787590Y-72085986D02*
X177509019Y-73085986D01*
X147934542Y-100649424D02*
X147903590Y-100697044D01*
X147903590Y-100697044D02*
X147810732Y-100744663D01*
X147810732Y-100744663D02*
X147748828Y-100744663D01*
X147748828Y-100744663D02*
X147655971Y-100697044D01*
X147655971Y-100697044D02*
X147594066Y-100601805D01*
X147594066Y-100601805D02*
X147563113Y-100506567D01*
X147563113Y-100506567D02*
X147532161Y-100316091D01*
X147532161Y-100316091D02*
X147532161Y-100173234D01*
X147532161Y-100173234D02*
X147563113Y-99982758D01*
X147563113Y-99982758D02*
X147594066Y-99887520D01*
X147594066Y-99887520D02*
X147655971Y-99792282D01*
X147655971Y-99792282D02*
X147748828Y-99744663D01*
X147748828Y-99744663D02*
X147810732Y-99744663D01*
X147810732Y-99744663D02*
X147903590Y-99792282D01*
X147903590Y-99792282D02*
X147934542Y-99839901D01*
X148151209Y-99744663D02*
X148553590Y-99744663D01*
X148553590Y-99744663D02*
X148336923Y-100125615D01*
X148336923Y-100125615D02*
X148429780Y-100125615D01*
X148429780Y-100125615D02*
X148491685Y-100173234D01*
X148491685Y-100173234D02*
X148522637Y-100220853D01*
X148522637Y-100220853D02*
X148553590Y-100316091D01*
X148553590Y-100316091D02*
X148553590Y-100554186D01*
X148553590Y-100554186D02*
X148522637Y-100649424D01*
X148522637Y-100649424D02*
X148491685Y-100697044D01*
X148491685Y-100697044D02*
X148429780Y-100744663D01*
X148429780Y-100744663D02*
X148244066Y-100744663D01*
X148244066Y-100744663D02*
X148182161Y-100697044D01*
X148182161Y-100697044D02*
X148151209Y-100649424D01*
X149110733Y-99744663D02*
X148986923Y-99744663D01*
X148986923Y-99744663D02*
X148925019Y-99792282D01*
X148925019Y-99792282D02*
X148894066Y-99839901D01*
X148894066Y-99839901D02*
X148832161Y-99982758D01*
X148832161Y-99982758D02*
X148801209Y-100173234D01*
X148801209Y-100173234D02*
X148801209Y-100554186D01*
X148801209Y-100554186D02*
X148832161Y-100649424D01*
X148832161Y-100649424D02*
X148863114Y-100697044D01*
X148863114Y-100697044D02*
X148925019Y-100744663D01*
X148925019Y-100744663D02*
X149048828Y-100744663D01*
X149048828Y-100744663D02*
X149110733Y-100697044D01*
X149110733Y-100697044D02*
X149141685Y-100649424D01*
X149141685Y-100649424D02*
X149172638Y-100554186D01*
X149172638Y-100554186D02*
X149172638Y-100316091D01*
X149172638Y-100316091D02*
X149141685Y-100220853D01*
X149141685Y-100220853D02*
X149110733Y-100173234D01*
X149110733Y-100173234D02*
X149048828Y-100125615D01*
X149048828Y-100125615D02*
X148925019Y-100125615D01*
X148925019Y-100125615D02*
X148863114Y-100173234D01*
X148863114Y-100173234D02*
X148832161Y-100220853D01*
X148832161Y-100220853D02*
X148801209Y-100316091D01*
X151220142Y-74419463D02*
X151003475Y-73943272D01*
X150848713Y-74419463D02*
X150848713Y-73419463D01*
X150848713Y-73419463D02*
X151096332Y-73419463D01*
X151096332Y-73419463D02*
X151158237Y-73467082D01*
X151158237Y-73467082D02*
X151189190Y-73514701D01*
X151189190Y-73514701D02*
X151220142Y-73609939D01*
X151220142Y-73609939D02*
X151220142Y-73752796D01*
X151220142Y-73752796D02*
X151189190Y-73848034D01*
X151189190Y-73848034D02*
X151158237Y-73895653D01*
X151158237Y-73895653D02*
X151096332Y-73943272D01*
X151096332Y-73943272D02*
X150848713Y-73943272D01*
X151839190Y-74419463D02*
X151467761Y-74419463D01*
X151653475Y-74419463D02*
X151653475Y-73419463D01*
X151653475Y-73419463D02*
X151591571Y-73562320D01*
X151591571Y-73562320D02*
X151529666Y-73657558D01*
X151529666Y-73657558D02*
X151467761Y-73705177D01*
X152458238Y-74419463D02*
X152086809Y-74419463D01*
X152272523Y-74419463D02*
X152272523Y-73419463D01*
X152272523Y-73419463D02*
X152210619Y-73562320D01*
X152210619Y-73562320D02*
X152148714Y-73657558D01*
X152148714Y-73657558D02*
X152086809Y-73705177D01*
X131344780Y-64195986D02*
X131128113Y-63719795D01*
X130973351Y-64195986D02*
X130973351Y-63195986D01*
X130973351Y-63195986D02*
X131220970Y-63195986D01*
X131220970Y-63195986D02*
X131282875Y-63243605D01*
X131282875Y-63243605D02*
X131313828Y-63291224D01*
X131313828Y-63291224D02*
X131344780Y-63386462D01*
X131344780Y-63386462D02*
X131344780Y-63529319D01*
X131344780Y-63529319D02*
X131313828Y-63624557D01*
X131313828Y-63624557D02*
X131282875Y-63672176D01*
X131282875Y-63672176D02*
X131220970Y-63719795D01*
X131220970Y-63719795D02*
X130973351Y-63719795D01*
X131592399Y-63291224D02*
X131623351Y-63243605D01*
X131623351Y-63243605D02*
X131685256Y-63195986D01*
X131685256Y-63195986D02*
X131840018Y-63195986D01*
X131840018Y-63195986D02*
X131901923Y-63243605D01*
X131901923Y-63243605D02*
X131932875Y-63291224D01*
X131932875Y-63291224D02*
X131963828Y-63386462D01*
X131963828Y-63386462D02*
X131963828Y-63481700D01*
X131963828Y-63481700D02*
X131932875Y-63624557D01*
X131932875Y-63624557D02*
X131561447Y-64195986D01*
X131561447Y-64195986D02*
X131963828Y-64195986D01*
X132582876Y-64195986D02*
X132211447Y-64195986D01*
X132397161Y-64195986D02*
X132397161Y-63195986D01*
X132397161Y-63195986D02*
X132335257Y-63338843D01*
X132335257Y-63338843D02*
X132273352Y-63434081D01*
X132273352Y-63434081D02*
X132211447Y-63481700D01*
X117485301Y-73557180D02*
X117009110Y-73773847D01*
X117485301Y-73928609D02*
X116485301Y-73928609D01*
X116485301Y-73928609D02*
X116485301Y-73680990D01*
X116485301Y-73680990D02*
X116532920Y-73619085D01*
X116532920Y-73619085D02*
X116580539Y-73588132D01*
X116580539Y-73588132D02*
X116675777Y-73557180D01*
X116675777Y-73557180D02*
X116818634Y-73557180D01*
X116818634Y-73557180D02*
X116913872Y-73588132D01*
X116913872Y-73588132D02*
X116961491Y-73619085D01*
X116961491Y-73619085D02*
X117009110Y-73680990D01*
X117009110Y-73680990D02*
X117009110Y-73928609D01*
X116485301Y-72969085D02*
X116485301Y-73278609D01*
X116485301Y-73278609D02*
X116961491Y-73309561D01*
X116961491Y-73309561D02*
X116913872Y-73278609D01*
X116913872Y-73278609D02*
X116866253Y-73216704D01*
X116866253Y-73216704D02*
X116866253Y-73061942D01*
X116866253Y-73061942D02*
X116913872Y-73000037D01*
X116913872Y-73000037D02*
X116961491Y-72969085D01*
X116961491Y-72969085D02*
X117056729Y-72938132D01*
X117056729Y-72938132D02*
X117294824Y-72938132D01*
X117294824Y-72938132D02*
X117390062Y-72969085D01*
X117390062Y-72969085D02*
X117437682Y-73000037D01*
X117437682Y-73000037D02*
X117485301Y-73061942D01*
X117485301Y-73061942D02*
X117485301Y-73216704D01*
X117485301Y-73216704D02*
X117437682Y-73278609D01*
X117437682Y-73278609D02*
X117390062Y-73309561D01*
X116485301Y-72721465D02*
X116485301Y-72319084D01*
X116485301Y-72319084D02*
X116866253Y-72535751D01*
X116866253Y-72535751D02*
X116866253Y-72442894D01*
X116866253Y-72442894D02*
X116913872Y-72380989D01*
X116913872Y-72380989D02*
X116961491Y-72350037D01*
X116961491Y-72350037D02*
X117056729Y-72319084D01*
X117056729Y-72319084D02*
X117294824Y-72319084D01*
X117294824Y-72319084D02*
X117390062Y-72350037D01*
X117390062Y-72350037D02*
X117437682Y-72380989D01*
X117437682Y-72380989D02*
X117485301Y-72442894D01*
X117485301Y-72442894D02*
X117485301Y-72628608D01*
X117485301Y-72628608D02*
X117437682Y-72690513D01*
X117437682Y-72690513D02*
X117390062Y-72721465D01*
X151871542Y-91505424D02*
X151840590Y-91553044D01*
X151840590Y-91553044D02*
X151747732Y-91600663D01*
X151747732Y-91600663D02*
X151685828Y-91600663D01*
X151685828Y-91600663D02*
X151592971Y-91553044D01*
X151592971Y-91553044D02*
X151531066Y-91457805D01*
X151531066Y-91457805D02*
X151500113Y-91362567D01*
X151500113Y-91362567D02*
X151469161Y-91172091D01*
X151469161Y-91172091D02*
X151469161Y-91029234D01*
X151469161Y-91029234D02*
X151500113Y-90838758D01*
X151500113Y-90838758D02*
X151531066Y-90743520D01*
X151531066Y-90743520D02*
X151592971Y-90648282D01*
X151592971Y-90648282D02*
X151685828Y-90600663D01*
X151685828Y-90600663D02*
X151747732Y-90600663D01*
X151747732Y-90600663D02*
X151840590Y-90648282D01*
X151840590Y-90648282D02*
X151871542Y-90695901D01*
X152088209Y-90600663D02*
X152490590Y-90600663D01*
X152490590Y-90600663D02*
X152273923Y-90981615D01*
X152273923Y-90981615D02*
X152366780Y-90981615D01*
X152366780Y-90981615D02*
X152428685Y-91029234D01*
X152428685Y-91029234D02*
X152459637Y-91076853D01*
X152459637Y-91076853D02*
X152490590Y-91172091D01*
X152490590Y-91172091D02*
X152490590Y-91410186D01*
X152490590Y-91410186D02*
X152459637Y-91505424D01*
X152459637Y-91505424D02*
X152428685Y-91553044D01*
X152428685Y-91553044D02*
X152366780Y-91600663D01*
X152366780Y-91600663D02*
X152181066Y-91600663D01*
X152181066Y-91600663D02*
X152119161Y-91553044D01*
X152119161Y-91553044D02*
X152088209Y-91505424D01*
X153078685Y-90600663D02*
X152769161Y-90600663D01*
X152769161Y-90600663D02*
X152738209Y-91076853D01*
X152738209Y-91076853D02*
X152769161Y-91029234D01*
X152769161Y-91029234D02*
X152831066Y-90981615D01*
X152831066Y-90981615D02*
X152985828Y-90981615D01*
X152985828Y-90981615D02*
X153047733Y-91029234D01*
X153047733Y-91029234D02*
X153078685Y-91076853D01*
X153078685Y-91076853D02*
X153109638Y-91172091D01*
X153109638Y-91172091D02*
X153109638Y-91410186D01*
X153109638Y-91410186D02*
X153078685Y-91505424D01*
X153078685Y-91505424D02*
X153047733Y-91553044D01*
X153047733Y-91553044D02*
X152985828Y-91600663D01*
X152985828Y-91600663D02*
X152831066Y-91600663D01*
X152831066Y-91600663D02*
X152769161Y-91553044D01*
X152769161Y-91553044D02*
X152738209Y-91505424D01*
X147211666Y-76153024D02*
X147180714Y-76200644D01*
X147180714Y-76200644D02*
X147087856Y-76248263D01*
X147087856Y-76248263D02*
X147025952Y-76248263D01*
X147025952Y-76248263D02*
X146933095Y-76200644D01*
X146933095Y-76200644D02*
X146871190Y-76105405D01*
X146871190Y-76105405D02*
X146840237Y-76010167D01*
X146840237Y-76010167D02*
X146809285Y-75819691D01*
X146809285Y-75819691D02*
X146809285Y-75676834D01*
X146809285Y-75676834D02*
X146840237Y-75486358D01*
X146840237Y-75486358D02*
X146871190Y-75391120D01*
X146871190Y-75391120D02*
X146933095Y-75295882D01*
X146933095Y-75295882D02*
X147025952Y-75248263D01*
X147025952Y-75248263D02*
X147087856Y-75248263D01*
X147087856Y-75248263D02*
X147180714Y-75295882D01*
X147180714Y-75295882D02*
X147211666Y-75343501D01*
X147830714Y-76248263D02*
X147459285Y-76248263D01*
X147644999Y-76248263D02*
X147644999Y-75248263D01*
X147644999Y-75248263D02*
X147583095Y-75391120D01*
X147583095Y-75391120D02*
X147521190Y-75486358D01*
X147521190Y-75486358D02*
X147459285Y-75533977D01*
X113183780Y-65084986D02*
X112967113Y-64608795D01*
X112812351Y-65084986D02*
X112812351Y-64084986D01*
X112812351Y-64084986D02*
X113059970Y-64084986D01*
X113059970Y-64084986D02*
X113121875Y-64132605D01*
X113121875Y-64132605D02*
X113152828Y-64180224D01*
X113152828Y-64180224D02*
X113183780Y-64275462D01*
X113183780Y-64275462D02*
X113183780Y-64418319D01*
X113183780Y-64418319D02*
X113152828Y-64513557D01*
X113152828Y-64513557D02*
X113121875Y-64561176D01*
X113121875Y-64561176D02*
X113059970Y-64608795D01*
X113059970Y-64608795D02*
X112812351Y-64608795D01*
X113740923Y-64418319D02*
X113740923Y-65084986D01*
X113586161Y-64037367D02*
X113431399Y-64751652D01*
X113431399Y-64751652D02*
X113833780Y-64751652D01*
X114112352Y-65084986D02*
X114236161Y-65084986D01*
X114236161Y-65084986D02*
X114298066Y-65037367D01*
X114298066Y-65037367D02*
X114329018Y-64989747D01*
X114329018Y-64989747D02*
X114390923Y-64846890D01*
X114390923Y-64846890D02*
X114421876Y-64656414D01*
X114421876Y-64656414D02*
X114421876Y-64275462D01*
X114421876Y-64275462D02*
X114390923Y-64180224D01*
X114390923Y-64180224D02*
X114359971Y-64132605D01*
X114359971Y-64132605D02*
X114298066Y-64084986D01*
X114298066Y-64084986D02*
X114174257Y-64084986D01*
X114174257Y-64084986D02*
X114112352Y-64132605D01*
X114112352Y-64132605D02*
X114081399Y-64180224D01*
X114081399Y-64180224D02*
X114050447Y-64275462D01*
X114050447Y-64275462D02*
X114050447Y-64513557D01*
X114050447Y-64513557D02*
X114081399Y-64608795D01*
X114081399Y-64608795D02*
X114112352Y-64656414D01*
X114112352Y-64656414D02*
X114174257Y-64704033D01*
X114174257Y-64704033D02*
X114298066Y-64704033D01*
X114298066Y-64704033D02*
X114359971Y-64656414D01*
X114359971Y-64656414D02*
X114390923Y-64608795D01*
X114390923Y-64608795D02*
X114421876Y-64513557D01*
X127528875Y-84658986D02*
X127528875Y-85468509D01*
X127528875Y-85468509D02*
X127559828Y-85563747D01*
X127559828Y-85563747D02*
X127590780Y-85611367D01*
X127590780Y-85611367D02*
X127652685Y-85658986D01*
X127652685Y-85658986D02*
X127776494Y-85658986D01*
X127776494Y-85658986D02*
X127838399Y-85611367D01*
X127838399Y-85611367D02*
X127869352Y-85563747D01*
X127869352Y-85563747D02*
X127900304Y-85468509D01*
X127900304Y-85468509D02*
X127900304Y-84658986D01*
X128550304Y-85658986D02*
X128178875Y-85658986D01*
X128364589Y-85658986D02*
X128364589Y-84658986D01*
X128364589Y-84658986D02*
X128302685Y-84801843D01*
X128302685Y-84801843D02*
X128240780Y-84897081D01*
X128240780Y-84897081D02*
X128178875Y-84944700D01*
X128859828Y-85658986D02*
X128983637Y-85658986D01*
X128983637Y-85658986D02*
X129045542Y-85611367D01*
X129045542Y-85611367D02*
X129076494Y-85563747D01*
X129076494Y-85563747D02*
X129138399Y-85420890D01*
X129138399Y-85420890D02*
X129169352Y-85230414D01*
X129169352Y-85230414D02*
X129169352Y-84849462D01*
X129169352Y-84849462D02*
X129138399Y-84754224D01*
X129138399Y-84754224D02*
X129107447Y-84706605D01*
X129107447Y-84706605D02*
X129045542Y-84658986D01*
X129045542Y-84658986D02*
X128921733Y-84658986D01*
X128921733Y-84658986D02*
X128859828Y-84706605D01*
X128859828Y-84706605D02*
X128828875Y-84754224D01*
X128828875Y-84754224D02*
X128797923Y-84849462D01*
X128797923Y-84849462D02*
X128797923Y-85087557D01*
X128797923Y-85087557D02*
X128828875Y-85182795D01*
X128828875Y-85182795D02*
X128859828Y-85230414D01*
X128859828Y-85230414D02*
X128921733Y-85278033D01*
X128921733Y-85278033D02*
X129045542Y-85278033D01*
X129045542Y-85278033D02*
X129107447Y-85230414D01*
X129107447Y-85230414D02*
X129138399Y-85182795D01*
X129138399Y-85182795D02*
X129169352Y-85087557D01*
X107849301Y-88168085D02*
X108658824Y-88168085D01*
X108658824Y-88168085D02*
X108754062Y-88137132D01*
X108754062Y-88137132D02*
X108801682Y-88106180D01*
X108801682Y-88106180D02*
X108849301Y-88044275D01*
X108849301Y-88044275D02*
X108849301Y-87920466D01*
X108849301Y-87920466D02*
X108801682Y-87858561D01*
X108801682Y-87858561D02*
X108754062Y-87827608D01*
X108754062Y-87827608D02*
X108658824Y-87796656D01*
X108658824Y-87796656D02*
X107849301Y-87796656D01*
X108849301Y-87146656D02*
X108849301Y-87518085D01*
X108849301Y-87332371D02*
X107849301Y-87332371D01*
X107849301Y-87332371D02*
X107992158Y-87394275D01*
X107992158Y-87394275D02*
X108087396Y-87456180D01*
X108087396Y-87456180D02*
X108135015Y-87518085D01*
X108277872Y-86775227D02*
X108230253Y-86837132D01*
X108230253Y-86837132D02*
X108182634Y-86868085D01*
X108182634Y-86868085D02*
X108087396Y-86899037D01*
X108087396Y-86899037D02*
X108039777Y-86899037D01*
X108039777Y-86899037D02*
X107944539Y-86868085D01*
X107944539Y-86868085D02*
X107896920Y-86837132D01*
X107896920Y-86837132D02*
X107849301Y-86775227D01*
X107849301Y-86775227D02*
X107849301Y-86651418D01*
X107849301Y-86651418D02*
X107896920Y-86589513D01*
X107896920Y-86589513D02*
X107944539Y-86558561D01*
X107944539Y-86558561D02*
X108039777Y-86527608D01*
X108039777Y-86527608D02*
X108087396Y-86527608D01*
X108087396Y-86527608D02*
X108182634Y-86558561D01*
X108182634Y-86558561D02*
X108230253Y-86589513D01*
X108230253Y-86589513D02*
X108277872Y-86651418D01*
X108277872Y-86651418D02*
X108277872Y-86775227D01*
X108277872Y-86775227D02*
X108325491Y-86837132D01*
X108325491Y-86837132D02*
X108373110Y-86868085D01*
X108373110Y-86868085D02*
X108468348Y-86899037D01*
X108468348Y-86899037D02*
X108658824Y-86899037D01*
X108658824Y-86899037D02*
X108754062Y-86868085D01*
X108754062Y-86868085D02*
X108801682Y-86837132D01*
X108801682Y-86837132D02*
X108849301Y-86775227D01*
X108849301Y-86775227D02*
X108849301Y-86651418D01*
X108849301Y-86651418D02*
X108801682Y-86589513D01*
X108801682Y-86589513D02*
X108754062Y-86558561D01*
X108754062Y-86558561D02*
X108658824Y-86527608D01*
X108658824Y-86527608D02*
X108468348Y-86527608D01*
X108468348Y-86527608D02*
X108373110Y-86558561D01*
X108373110Y-86558561D02*
X108325491Y-86589513D01*
X108325491Y-86589513D02*
X108277872Y-86651418D01*
X159261824Y-65441857D02*
X159309444Y-65472809D01*
X159309444Y-65472809D02*
X159357063Y-65565667D01*
X159357063Y-65565667D02*
X159357063Y-65627571D01*
X159357063Y-65627571D02*
X159309444Y-65720428D01*
X159309444Y-65720428D02*
X159214205Y-65782333D01*
X159214205Y-65782333D02*
X159118967Y-65813286D01*
X159118967Y-65813286D02*
X158928491Y-65844238D01*
X158928491Y-65844238D02*
X158785634Y-65844238D01*
X158785634Y-65844238D02*
X158595158Y-65813286D01*
X158595158Y-65813286D02*
X158499920Y-65782333D01*
X158499920Y-65782333D02*
X158404682Y-65720428D01*
X158404682Y-65720428D02*
X158357063Y-65627571D01*
X158357063Y-65627571D02*
X158357063Y-65565667D01*
X158357063Y-65565667D02*
X158404682Y-65472809D01*
X158404682Y-65472809D02*
X158452301Y-65441857D01*
X159357063Y-64822809D02*
X159357063Y-65194238D01*
X159357063Y-65008524D02*
X158357063Y-65008524D01*
X158357063Y-65008524D02*
X158499920Y-65070428D01*
X158499920Y-65070428D02*
X158595158Y-65132333D01*
X158595158Y-65132333D02*
X158642777Y-65194238D01*
X158690396Y-64265666D02*
X159357063Y-64265666D01*
X158309444Y-64420428D02*
X159023729Y-64575190D01*
X159023729Y-64575190D02*
X159023729Y-64172809D01*
X164033399Y-73787736D02*
X164033399Y-74597259D01*
X164033399Y-74597259D02*
X164064352Y-74692497D01*
X164064352Y-74692497D02*
X164095304Y-74740117D01*
X164095304Y-74740117D02*
X164157209Y-74787736D01*
X164157209Y-74787736D02*
X164281018Y-74787736D01*
X164281018Y-74787736D02*
X164342923Y-74740117D01*
X164342923Y-74740117D02*
X164373876Y-74692497D01*
X164373876Y-74692497D02*
X164404828Y-74597259D01*
X164404828Y-74597259D02*
X164404828Y-73787736D01*
X164652447Y-73787736D02*
X165085780Y-73787736D01*
X165085780Y-73787736D02*
X164807209Y-74787736D01*
X138100301Y-76422656D02*
X137624110Y-76639323D01*
X138100301Y-76794085D02*
X137100301Y-76794085D01*
X137100301Y-76794085D02*
X137100301Y-76546466D01*
X137100301Y-76546466D02*
X137147920Y-76484561D01*
X137147920Y-76484561D02*
X137195539Y-76453608D01*
X137195539Y-76453608D02*
X137290777Y-76422656D01*
X137290777Y-76422656D02*
X137433634Y-76422656D01*
X137433634Y-76422656D02*
X137528872Y-76453608D01*
X137528872Y-76453608D02*
X137576491Y-76484561D01*
X137576491Y-76484561D02*
X137624110Y-76546466D01*
X137624110Y-76546466D02*
X137624110Y-76794085D01*
X138100301Y-75803608D02*
X138100301Y-76175037D01*
X138100301Y-75989323D02*
X137100301Y-75989323D01*
X137100301Y-75989323D02*
X137243158Y-76051227D01*
X137243158Y-76051227D02*
X137338396Y-76113132D01*
X137338396Y-76113132D02*
X137386015Y-76175037D01*
X130693301Y-71841085D02*
X129693301Y-71841085D01*
X129693301Y-71841085D02*
X129693301Y-71686323D01*
X129693301Y-71686323D02*
X129740920Y-71593466D01*
X129740920Y-71593466D02*
X129836158Y-71531561D01*
X129836158Y-71531561D02*
X129931396Y-71500608D01*
X129931396Y-71500608D02*
X130121872Y-71469656D01*
X130121872Y-71469656D02*
X130264729Y-71469656D01*
X130264729Y-71469656D02*
X130455205Y-71500608D01*
X130455205Y-71500608D02*
X130550443Y-71531561D01*
X130550443Y-71531561D02*
X130645682Y-71593466D01*
X130645682Y-71593466D02*
X130693301Y-71686323D01*
X130693301Y-71686323D02*
X130693301Y-71841085D01*
X130693301Y-70850608D02*
X130693301Y-71222037D01*
X130693301Y-71036323D02*
X129693301Y-71036323D01*
X129693301Y-71036323D02*
X129836158Y-71098227D01*
X129836158Y-71098227D02*
X129931396Y-71160132D01*
X129931396Y-71160132D02*
X129979015Y-71222037D01*
X156077824Y-99183857D02*
X156125444Y-99214809D01*
X156125444Y-99214809D02*
X156173063Y-99307667D01*
X156173063Y-99307667D02*
X156173063Y-99369571D01*
X156173063Y-99369571D02*
X156125444Y-99462428D01*
X156125444Y-99462428D02*
X156030205Y-99524333D01*
X156030205Y-99524333D02*
X155934967Y-99555286D01*
X155934967Y-99555286D02*
X155744491Y-99586238D01*
X155744491Y-99586238D02*
X155601634Y-99586238D01*
X155601634Y-99586238D02*
X155411158Y-99555286D01*
X155411158Y-99555286D02*
X155315920Y-99524333D01*
X155315920Y-99524333D02*
X155220682Y-99462428D01*
X155220682Y-99462428D02*
X155173063Y-99369571D01*
X155173063Y-99369571D02*
X155173063Y-99307667D01*
X155173063Y-99307667D02*
X155220682Y-99214809D01*
X155220682Y-99214809D02*
X155268301Y-99183857D01*
X155173063Y-98967190D02*
X155173063Y-98564809D01*
X155173063Y-98564809D02*
X155554015Y-98781476D01*
X155554015Y-98781476D02*
X155554015Y-98688619D01*
X155554015Y-98688619D02*
X155601634Y-98626714D01*
X155601634Y-98626714D02*
X155649253Y-98595762D01*
X155649253Y-98595762D02*
X155744491Y-98564809D01*
X155744491Y-98564809D02*
X155982586Y-98564809D01*
X155982586Y-98564809D02*
X156077824Y-98595762D01*
X156077824Y-98595762D02*
X156125444Y-98626714D01*
X156125444Y-98626714D02*
X156173063Y-98688619D01*
X156173063Y-98688619D02*
X156173063Y-98874333D01*
X156173063Y-98874333D02*
X156125444Y-98936238D01*
X156125444Y-98936238D02*
X156077824Y-98967190D01*
X156173063Y-97945761D02*
X156173063Y-98317190D01*
X156173063Y-98131476D02*
X155173063Y-98131476D01*
X155173063Y-98131476D02*
X155315920Y-98193380D01*
X155315920Y-98193380D02*
X155411158Y-98255285D01*
X155411158Y-98255285D02*
X155458777Y-98317190D01*
X163364062Y-65683180D02*
X163411682Y-65714132D01*
X163411682Y-65714132D02*
X163459301Y-65806990D01*
X163459301Y-65806990D02*
X163459301Y-65868894D01*
X163459301Y-65868894D02*
X163411682Y-65961751D01*
X163411682Y-65961751D02*
X163316443Y-66023656D01*
X163316443Y-66023656D02*
X163221205Y-66054609D01*
X163221205Y-66054609D02*
X163030729Y-66085561D01*
X163030729Y-66085561D02*
X162887872Y-66085561D01*
X162887872Y-66085561D02*
X162697396Y-66054609D01*
X162697396Y-66054609D02*
X162602158Y-66023656D01*
X162602158Y-66023656D02*
X162506920Y-65961751D01*
X162506920Y-65961751D02*
X162459301Y-65868894D01*
X162459301Y-65868894D02*
X162459301Y-65806990D01*
X162459301Y-65806990D02*
X162506920Y-65714132D01*
X162506920Y-65714132D02*
X162554539Y-65683180D01*
X163459301Y-65064132D02*
X163459301Y-65435561D01*
X163459301Y-65249847D02*
X162459301Y-65249847D01*
X162459301Y-65249847D02*
X162602158Y-65311751D01*
X162602158Y-65311751D02*
X162697396Y-65373656D01*
X162697396Y-65373656D02*
X162745015Y-65435561D01*
X163459301Y-64445084D02*
X163459301Y-64816513D01*
X163459301Y-64630799D02*
X162459301Y-64630799D01*
X162459301Y-64630799D02*
X162602158Y-64692703D01*
X162602158Y-64692703D02*
X162697396Y-64754608D01*
X162697396Y-64754608D02*
X162745015Y-64816513D01*
X171680333Y-73130424D02*
X171618428Y-73082805D01*
X171618428Y-73082805D02*
X171556523Y-72987567D01*
X171556523Y-72987567D02*
X171463666Y-72844709D01*
X171463666Y-72844709D02*
X171401761Y-72797090D01*
X171401761Y-72797090D02*
X171339857Y-72797090D01*
X171370809Y-73035186D02*
X171308904Y-72987567D01*
X171308904Y-72987567D02*
X171246999Y-72892328D01*
X171246999Y-72892328D02*
X171216047Y-72701852D01*
X171216047Y-72701852D02*
X171216047Y-72368519D01*
X171216047Y-72368519D02*
X171246999Y-72178043D01*
X171246999Y-72178043D02*
X171308904Y-72082805D01*
X171308904Y-72082805D02*
X171370809Y-72035186D01*
X171370809Y-72035186D02*
X171494618Y-72035186D01*
X171494618Y-72035186D02*
X171556523Y-72082805D01*
X171556523Y-72082805D02*
X171618428Y-72178043D01*
X171618428Y-72178043D02*
X171649380Y-72368519D01*
X171649380Y-72368519D02*
X171649380Y-72701852D01*
X171649380Y-72701852D02*
X171618428Y-72892328D01*
X171618428Y-72892328D02*
X171556523Y-72987567D01*
X171556523Y-72987567D02*
X171494618Y-73035186D01*
X171494618Y-73035186D02*
X171370809Y-73035186D01*
X171896999Y-72130424D02*
X171927951Y-72082805D01*
X171927951Y-72082805D02*
X171989856Y-72035186D01*
X171989856Y-72035186D02*
X172144618Y-72035186D01*
X172144618Y-72035186D02*
X172206523Y-72082805D01*
X172206523Y-72082805D02*
X172237475Y-72130424D01*
X172237475Y-72130424D02*
X172268428Y-72225662D01*
X172268428Y-72225662D02*
X172268428Y-72320900D01*
X172268428Y-72320900D02*
X172237475Y-72463757D01*
X172237475Y-72463757D02*
X171866047Y-73035186D01*
X171866047Y-73035186D02*
X172268428Y-73035186D01*
X155760837Y-71625986D02*
X155760837Y-72435509D01*
X155760837Y-72435509D02*
X155791790Y-72530747D01*
X155791790Y-72530747D02*
X155822742Y-72578367D01*
X155822742Y-72578367D02*
X155884647Y-72625986D01*
X155884647Y-72625986D02*
X156008456Y-72625986D01*
X156008456Y-72625986D02*
X156070361Y-72578367D01*
X156070361Y-72578367D02*
X156101314Y-72530747D01*
X156101314Y-72530747D02*
X156132266Y-72435509D01*
X156132266Y-72435509D02*
X156132266Y-71625986D01*
X156782266Y-72625986D02*
X156410837Y-72625986D01*
X156596551Y-72625986D02*
X156596551Y-71625986D01*
X156596551Y-71625986D02*
X156534647Y-71768843D01*
X156534647Y-71768843D02*
X156472742Y-71864081D01*
X156472742Y-71864081D02*
X156410837Y-71911700D01*
X157184647Y-71625986D02*
X157246552Y-71625986D01*
X157246552Y-71625986D02*
X157308456Y-71673605D01*
X157308456Y-71673605D02*
X157339409Y-71721224D01*
X157339409Y-71721224D02*
X157370361Y-71816462D01*
X157370361Y-71816462D02*
X157401314Y-72006938D01*
X157401314Y-72006938D02*
X157401314Y-72245033D01*
X157401314Y-72245033D02*
X157370361Y-72435509D01*
X157370361Y-72435509D02*
X157339409Y-72530747D01*
X157339409Y-72530747D02*
X157308456Y-72578367D01*
X157308456Y-72578367D02*
X157246552Y-72625986D01*
X157246552Y-72625986D02*
X157184647Y-72625986D01*
X157184647Y-72625986D02*
X157122742Y-72578367D01*
X157122742Y-72578367D02*
X157091790Y-72530747D01*
X157091790Y-72530747D02*
X157060837Y-72435509D01*
X157060837Y-72435509D02*
X157029885Y-72245033D01*
X157029885Y-72245033D02*
X157029885Y-72006938D01*
X157029885Y-72006938D02*
X157060837Y-71816462D01*
X157060837Y-71816462D02*
X157091790Y-71721224D01*
X157091790Y-71721224D02*
X157122742Y-71673605D01*
X157122742Y-71673605D02*
X157184647Y-71625986D01*
X117209062Y-84970180D02*
X117256682Y-85001132D01*
X117256682Y-85001132D02*
X117304301Y-85093990D01*
X117304301Y-85093990D02*
X117304301Y-85155894D01*
X117304301Y-85155894D02*
X117256682Y-85248751D01*
X117256682Y-85248751D02*
X117161443Y-85310656D01*
X117161443Y-85310656D02*
X117066205Y-85341609D01*
X117066205Y-85341609D02*
X116875729Y-85372561D01*
X116875729Y-85372561D02*
X116732872Y-85372561D01*
X116732872Y-85372561D02*
X116542396Y-85341609D01*
X116542396Y-85341609D02*
X116447158Y-85310656D01*
X116447158Y-85310656D02*
X116351920Y-85248751D01*
X116351920Y-85248751D02*
X116304301Y-85155894D01*
X116304301Y-85155894D02*
X116304301Y-85093990D01*
X116304301Y-85093990D02*
X116351920Y-85001132D01*
X116351920Y-85001132D02*
X116399539Y-84970180D01*
X116304301Y-84382085D02*
X116304301Y-84691609D01*
X116304301Y-84691609D02*
X116780491Y-84722561D01*
X116780491Y-84722561D02*
X116732872Y-84691609D01*
X116732872Y-84691609D02*
X116685253Y-84629704D01*
X116685253Y-84629704D02*
X116685253Y-84474942D01*
X116685253Y-84474942D02*
X116732872Y-84413037D01*
X116732872Y-84413037D02*
X116780491Y-84382085D01*
X116780491Y-84382085D02*
X116875729Y-84351132D01*
X116875729Y-84351132D02*
X117113824Y-84351132D01*
X117113824Y-84351132D02*
X117209062Y-84382085D01*
X117209062Y-84382085D02*
X117256682Y-84413037D01*
X117256682Y-84413037D02*
X117304301Y-84474942D01*
X117304301Y-84474942D02*
X117304301Y-84629704D01*
X117304301Y-84629704D02*
X117256682Y-84691609D01*
X117256682Y-84691609D02*
X117209062Y-84722561D01*
X116637634Y-83793989D02*
X117304301Y-83793989D01*
X116256682Y-83948751D02*
X116970967Y-84103513D01*
X116970967Y-84103513D02*
X116970967Y-83701132D01*
X167650301Y-76600406D02*
X167174110Y-76817073D01*
X167650301Y-76971835D02*
X166650301Y-76971835D01*
X166650301Y-76971835D02*
X166650301Y-76724216D01*
X166650301Y-76724216D02*
X166697920Y-76662311D01*
X166697920Y-76662311D02*
X166745539Y-76631358D01*
X166745539Y-76631358D02*
X166840777Y-76600406D01*
X166840777Y-76600406D02*
X166983634Y-76600406D01*
X166983634Y-76600406D02*
X167078872Y-76631358D01*
X167078872Y-76631358D02*
X167126491Y-76662311D01*
X167126491Y-76662311D02*
X167174110Y-76724216D01*
X167174110Y-76724216D02*
X167174110Y-76971835D01*
X166745539Y-76352787D02*
X166697920Y-76321835D01*
X166697920Y-76321835D02*
X166650301Y-76259930D01*
X166650301Y-76259930D02*
X166650301Y-76105168D01*
X166650301Y-76105168D02*
X166697920Y-76043263D01*
X166697920Y-76043263D02*
X166745539Y-76012311D01*
X166745539Y-76012311D02*
X166840777Y-75981358D01*
X166840777Y-75981358D02*
X166936015Y-75981358D01*
X166936015Y-75981358D02*
X167078872Y-76012311D01*
X167078872Y-76012311D02*
X167650301Y-76383739D01*
X167650301Y-76383739D02*
X167650301Y-75981358D01*
X112183062Y-67207180D02*
X112230682Y-67238132D01*
X112230682Y-67238132D02*
X112278301Y-67330990D01*
X112278301Y-67330990D02*
X112278301Y-67392894D01*
X112278301Y-67392894D02*
X112230682Y-67485751D01*
X112230682Y-67485751D02*
X112135443Y-67547656D01*
X112135443Y-67547656D02*
X112040205Y-67578609D01*
X112040205Y-67578609D02*
X111849729Y-67609561D01*
X111849729Y-67609561D02*
X111706872Y-67609561D01*
X111706872Y-67609561D02*
X111516396Y-67578609D01*
X111516396Y-67578609D02*
X111421158Y-67547656D01*
X111421158Y-67547656D02*
X111325920Y-67485751D01*
X111325920Y-67485751D02*
X111278301Y-67392894D01*
X111278301Y-67392894D02*
X111278301Y-67330990D01*
X111278301Y-67330990D02*
X111325920Y-67238132D01*
X111325920Y-67238132D02*
X111373539Y-67207180D01*
X111611634Y-66650037D02*
X112278301Y-66650037D01*
X111230682Y-66804799D02*
X111944967Y-66959561D01*
X111944967Y-66959561D02*
X111944967Y-66557180D01*
X112278301Y-66278608D02*
X112278301Y-66154799D01*
X112278301Y-66154799D02*
X112230682Y-66092894D01*
X112230682Y-66092894D02*
X112183062Y-66061942D01*
X112183062Y-66061942D02*
X112040205Y-66000037D01*
X112040205Y-66000037D02*
X111849729Y-65969084D01*
X111849729Y-65969084D02*
X111468777Y-65969084D01*
X111468777Y-65969084D02*
X111373539Y-66000037D01*
X111373539Y-66000037D02*
X111325920Y-66030989D01*
X111325920Y-66030989D02*
X111278301Y-66092894D01*
X111278301Y-66092894D02*
X111278301Y-66216703D01*
X111278301Y-66216703D02*
X111325920Y-66278608D01*
X111325920Y-66278608D02*
X111373539Y-66309561D01*
X111373539Y-66309561D02*
X111468777Y-66340513D01*
X111468777Y-66340513D02*
X111706872Y-66340513D01*
X111706872Y-66340513D02*
X111802110Y-66309561D01*
X111802110Y-66309561D02*
X111849729Y-66278608D01*
X111849729Y-66278608D02*
X111897348Y-66216703D01*
X111897348Y-66216703D02*
X111897348Y-66092894D01*
X111897348Y-66092894D02*
X111849729Y-66030989D01*
X111849729Y-66030989D02*
X111802110Y-66000037D01*
X111802110Y-66000037D02*
X111706872Y-65969084D01*
X143967399Y-77292986D02*
X143967399Y-78102509D01*
X143967399Y-78102509D02*
X143998352Y-78197747D01*
X143998352Y-78197747D02*
X144029304Y-78245367D01*
X144029304Y-78245367D02*
X144091209Y-78292986D01*
X144091209Y-78292986D02*
X144215018Y-78292986D01*
X144215018Y-78292986D02*
X144276923Y-78245367D01*
X144276923Y-78245367D02*
X144307876Y-78197747D01*
X144307876Y-78197747D02*
X144338828Y-78102509D01*
X144338828Y-78102509D02*
X144338828Y-77292986D01*
X144988828Y-78292986D02*
X144617399Y-78292986D01*
X144803113Y-78292986D02*
X144803113Y-77292986D01*
X144803113Y-77292986D02*
X144741209Y-77435843D01*
X144741209Y-77435843D02*
X144679304Y-77531081D01*
X144679304Y-77531081D02*
X144617399Y-77578700D01*
X128880501Y-74858485D02*
X129690024Y-74858485D01*
X129690024Y-74858485D02*
X129785262Y-74827532D01*
X129785262Y-74827532D02*
X129832882Y-74796580D01*
X129832882Y-74796580D02*
X129880501Y-74734675D01*
X129880501Y-74734675D02*
X129880501Y-74610866D01*
X129880501Y-74610866D02*
X129832882Y-74548961D01*
X129832882Y-74548961D02*
X129785262Y-74518008D01*
X129785262Y-74518008D02*
X129690024Y-74487056D01*
X129690024Y-74487056D02*
X128880501Y-74487056D01*
X128975739Y-74208485D02*
X128928120Y-74177533D01*
X128928120Y-74177533D02*
X128880501Y-74115628D01*
X128880501Y-74115628D02*
X128880501Y-73960866D01*
X128880501Y-73960866D02*
X128928120Y-73898961D01*
X128928120Y-73898961D02*
X128975739Y-73868009D01*
X128975739Y-73868009D02*
X129070977Y-73837056D01*
X129070977Y-73837056D02*
X129166215Y-73837056D01*
X129166215Y-73837056D02*
X129309072Y-73868009D01*
X129309072Y-73868009D02*
X129880501Y-74239437D01*
X129880501Y-74239437D02*
X129880501Y-73837056D01*
X128880501Y-73620389D02*
X128880501Y-73218008D01*
X128880501Y-73218008D02*
X129261453Y-73434675D01*
X129261453Y-73434675D02*
X129261453Y-73341818D01*
X129261453Y-73341818D02*
X129309072Y-73279913D01*
X129309072Y-73279913D02*
X129356691Y-73248961D01*
X129356691Y-73248961D02*
X129451929Y-73218008D01*
X129451929Y-73218008D02*
X129690024Y-73218008D01*
X129690024Y-73218008D02*
X129785262Y-73248961D01*
X129785262Y-73248961D02*
X129832882Y-73279913D01*
X129832882Y-73279913D02*
X129880501Y-73341818D01*
X129880501Y-73341818D02*
X129880501Y-73527532D01*
X129880501Y-73527532D02*
X129832882Y-73589437D01*
X129832882Y-73589437D02*
X129785262Y-73620389D01*
X117374780Y-81975986D02*
X117158113Y-81499795D01*
X117003351Y-81975986D02*
X117003351Y-80975986D01*
X117003351Y-80975986D02*
X117250970Y-80975986D01*
X117250970Y-80975986D02*
X117312875Y-81023605D01*
X117312875Y-81023605D02*
X117343828Y-81071224D01*
X117343828Y-81071224D02*
X117374780Y-81166462D01*
X117374780Y-81166462D02*
X117374780Y-81309319D01*
X117374780Y-81309319D02*
X117343828Y-81404557D01*
X117343828Y-81404557D02*
X117312875Y-81452176D01*
X117312875Y-81452176D02*
X117250970Y-81499795D01*
X117250970Y-81499795D02*
X117003351Y-81499795D01*
X117962875Y-80975986D02*
X117653351Y-80975986D01*
X117653351Y-80975986D02*
X117622399Y-81452176D01*
X117622399Y-81452176D02*
X117653351Y-81404557D01*
X117653351Y-81404557D02*
X117715256Y-81356938D01*
X117715256Y-81356938D02*
X117870018Y-81356938D01*
X117870018Y-81356938D02*
X117931923Y-81404557D01*
X117931923Y-81404557D02*
X117962875Y-81452176D01*
X117962875Y-81452176D02*
X117993828Y-81547414D01*
X117993828Y-81547414D02*
X117993828Y-81785509D01*
X117993828Y-81785509D02*
X117962875Y-81880747D01*
X117962875Y-81880747D02*
X117931923Y-81928367D01*
X117931923Y-81928367D02*
X117870018Y-81975986D01*
X117870018Y-81975986D02*
X117715256Y-81975986D01*
X117715256Y-81975986D02*
X117653351Y-81928367D01*
X117653351Y-81928367D02*
X117622399Y-81880747D01*
X118241447Y-81071224D02*
X118272399Y-81023605D01*
X118272399Y-81023605D02*
X118334304Y-80975986D01*
X118334304Y-80975986D02*
X118489066Y-80975986D01*
X118489066Y-80975986D02*
X118550971Y-81023605D01*
X118550971Y-81023605D02*
X118581923Y-81071224D01*
X118581923Y-81071224D02*
X118612876Y-81166462D01*
X118612876Y-81166462D02*
X118612876Y-81261700D01*
X118612876Y-81261700D02*
X118581923Y-81404557D01*
X118581923Y-81404557D02*
X118210495Y-81975986D01*
X118210495Y-81975986D02*
X118612876Y-81975986D01*
X138512304Y-65447747D02*
X138481352Y-65495367D01*
X138481352Y-65495367D02*
X138388494Y-65542986D01*
X138388494Y-65542986D02*
X138326590Y-65542986D01*
X138326590Y-65542986D02*
X138233733Y-65495367D01*
X138233733Y-65495367D02*
X138171828Y-65400128D01*
X138171828Y-65400128D02*
X138140875Y-65304890D01*
X138140875Y-65304890D02*
X138109923Y-65114414D01*
X138109923Y-65114414D02*
X138109923Y-64971557D01*
X138109923Y-64971557D02*
X138140875Y-64781081D01*
X138140875Y-64781081D02*
X138171828Y-64685843D01*
X138171828Y-64685843D02*
X138233733Y-64590605D01*
X138233733Y-64590605D02*
X138326590Y-64542986D01*
X138326590Y-64542986D02*
X138388494Y-64542986D01*
X138388494Y-64542986D02*
X138481352Y-64590605D01*
X138481352Y-64590605D02*
X138512304Y-64638224D01*
X139069447Y-64542986D02*
X138945637Y-64542986D01*
X138945637Y-64542986D02*
X138883733Y-64590605D01*
X138883733Y-64590605D02*
X138852780Y-64638224D01*
X138852780Y-64638224D02*
X138790875Y-64781081D01*
X138790875Y-64781081D02*
X138759923Y-64971557D01*
X138759923Y-64971557D02*
X138759923Y-65352509D01*
X138759923Y-65352509D02*
X138790875Y-65447747D01*
X138790875Y-65447747D02*
X138821828Y-65495367D01*
X138821828Y-65495367D02*
X138883733Y-65542986D01*
X138883733Y-65542986D02*
X139007542Y-65542986D01*
X139007542Y-65542986D02*
X139069447Y-65495367D01*
X139069447Y-65495367D02*
X139100399Y-65447747D01*
X139100399Y-65447747D02*
X139131352Y-65352509D01*
X139131352Y-65352509D02*
X139131352Y-65114414D01*
X139131352Y-65114414D02*
X139100399Y-65019176D01*
X139100399Y-65019176D02*
X139069447Y-64971557D01*
X139069447Y-64971557D02*
X139007542Y-64923938D01*
X139007542Y-64923938D02*
X138883733Y-64923938D01*
X138883733Y-64923938D02*
X138821828Y-64971557D01*
X138821828Y-64971557D02*
X138790875Y-65019176D01*
X138790875Y-65019176D02*
X138759923Y-65114414D01*
X147194733Y-64291224D02*
X147132828Y-64243605D01*
X147132828Y-64243605D02*
X147070923Y-64148367D01*
X147070923Y-64148367D02*
X146978066Y-64005509D01*
X146978066Y-64005509D02*
X146916161Y-63957890D01*
X146916161Y-63957890D02*
X146854257Y-63957890D01*
X146885209Y-64195986D02*
X146823304Y-64148367D01*
X146823304Y-64148367D02*
X146761399Y-64053128D01*
X146761399Y-64053128D02*
X146730447Y-63862652D01*
X146730447Y-63862652D02*
X146730447Y-63529319D01*
X146730447Y-63529319D02*
X146761399Y-63338843D01*
X146761399Y-63338843D02*
X146823304Y-63243605D01*
X146823304Y-63243605D02*
X146885209Y-63195986D01*
X146885209Y-63195986D02*
X147009018Y-63195986D01*
X147009018Y-63195986D02*
X147070923Y-63243605D01*
X147070923Y-63243605D02*
X147132828Y-63338843D01*
X147132828Y-63338843D02*
X147163780Y-63529319D01*
X147163780Y-63529319D02*
X147163780Y-63862652D01*
X147163780Y-63862652D02*
X147132828Y-64053128D01*
X147132828Y-64053128D02*
X147070923Y-64148367D01*
X147070923Y-64148367D02*
X147009018Y-64195986D01*
X147009018Y-64195986D02*
X146885209Y-64195986D01*
X147720923Y-63195986D02*
X147597113Y-63195986D01*
X147597113Y-63195986D02*
X147535209Y-63243605D01*
X147535209Y-63243605D02*
X147504256Y-63291224D01*
X147504256Y-63291224D02*
X147442351Y-63434081D01*
X147442351Y-63434081D02*
X147411399Y-63624557D01*
X147411399Y-63624557D02*
X147411399Y-64005509D01*
X147411399Y-64005509D02*
X147442351Y-64100747D01*
X147442351Y-64100747D02*
X147473304Y-64148367D01*
X147473304Y-64148367D02*
X147535209Y-64195986D01*
X147535209Y-64195986D02*
X147659018Y-64195986D01*
X147659018Y-64195986D02*
X147720923Y-64148367D01*
X147720923Y-64148367D02*
X147751875Y-64100747D01*
X147751875Y-64100747D02*
X147782828Y-64005509D01*
X147782828Y-64005509D02*
X147782828Y-63767414D01*
X147782828Y-63767414D02*
X147751875Y-63672176D01*
X147751875Y-63672176D02*
X147720923Y-63624557D01*
X147720923Y-63624557D02*
X147659018Y-63576938D01*
X147659018Y-63576938D02*
X147535209Y-63576938D01*
X147535209Y-63576938D02*
X147473304Y-63624557D01*
X147473304Y-63624557D02*
X147442351Y-63672176D01*
X147442351Y-63672176D02*
X147411399Y-63767414D01*
X144038224Y-104975057D02*
X144085844Y-105006009D01*
X144085844Y-105006009D02*
X144133463Y-105098867D01*
X144133463Y-105098867D02*
X144133463Y-105160771D01*
X144133463Y-105160771D02*
X144085844Y-105253628D01*
X144085844Y-105253628D02*
X143990605Y-105315533D01*
X143990605Y-105315533D02*
X143895367Y-105346486D01*
X143895367Y-105346486D02*
X143704891Y-105377438D01*
X143704891Y-105377438D02*
X143562034Y-105377438D01*
X143562034Y-105377438D02*
X143371558Y-105346486D01*
X143371558Y-105346486D02*
X143276320Y-105315533D01*
X143276320Y-105315533D02*
X143181082Y-105253628D01*
X143181082Y-105253628D02*
X143133463Y-105160771D01*
X143133463Y-105160771D02*
X143133463Y-105098867D01*
X143133463Y-105098867D02*
X143181082Y-105006009D01*
X143181082Y-105006009D02*
X143228701Y-104975057D01*
X143133463Y-104758390D02*
X143133463Y-104356009D01*
X143133463Y-104356009D02*
X143514415Y-104572676D01*
X143514415Y-104572676D02*
X143514415Y-104479819D01*
X143514415Y-104479819D02*
X143562034Y-104417914D01*
X143562034Y-104417914D02*
X143609653Y-104386962D01*
X143609653Y-104386962D02*
X143704891Y-104356009D01*
X143704891Y-104356009D02*
X143942986Y-104356009D01*
X143942986Y-104356009D02*
X144038224Y-104386962D01*
X144038224Y-104386962D02*
X144085844Y-104417914D01*
X144085844Y-104417914D02*
X144133463Y-104479819D01*
X144133463Y-104479819D02*
X144133463Y-104665533D01*
X144133463Y-104665533D02*
X144085844Y-104727438D01*
X144085844Y-104727438D02*
X144038224Y-104758390D01*
X143466796Y-103798866D02*
X144133463Y-103798866D01*
X143085844Y-103953628D02*
X143800129Y-104108390D01*
X143800129Y-104108390D02*
X143800129Y-103706009D01*
X110081780Y-65188986D02*
X109865113Y-64712795D01*
X109710351Y-65188986D02*
X109710351Y-64188986D01*
X109710351Y-64188986D02*
X109957970Y-64188986D01*
X109957970Y-64188986D02*
X110019875Y-64236605D01*
X110019875Y-64236605D02*
X110050828Y-64284224D01*
X110050828Y-64284224D02*
X110081780Y-64379462D01*
X110081780Y-64379462D02*
X110081780Y-64522319D01*
X110081780Y-64522319D02*
X110050828Y-64617557D01*
X110050828Y-64617557D02*
X110019875Y-64665176D01*
X110019875Y-64665176D02*
X109957970Y-64712795D01*
X109957970Y-64712795D02*
X109710351Y-64712795D01*
X110669875Y-64188986D02*
X110360351Y-64188986D01*
X110360351Y-64188986D02*
X110329399Y-64665176D01*
X110329399Y-64665176D02*
X110360351Y-64617557D01*
X110360351Y-64617557D02*
X110422256Y-64569938D01*
X110422256Y-64569938D02*
X110577018Y-64569938D01*
X110577018Y-64569938D02*
X110638923Y-64617557D01*
X110638923Y-64617557D02*
X110669875Y-64665176D01*
X110669875Y-64665176D02*
X110700828Y-64760414D01*
X110700828Y-64760414D02*
X110700828Y-64998509D01*
X110700828Y-64998509D02*
X110669875Y-65093747D01*
X110669875Y-65093747D02*
X110638923Y-65141367D01*
X110638923Y-65141367D02*
X110577018Y-65188986D01*
X110577018Y-65188986D02*
X110422256Y-65188986D01*
X110422256Y-65188986D02*
X110360351Y-65141367D01*
X110360351Y-65141367D02*
X110329399Y-65093747D01*
X111103209Y-64188986D02*
X111165114Y-64188986D01*
X111165114Y-64188986D02*
X111227018Y-64236605D01*
X111227018Y-64236605D02*
X111257971Y-64284224D01*
X111257971Y-64284224D02*
X111288923Y-64379462D01*
X111288923Y-64379462D02*
X111319876Y-64569938D01*
X111319876Y-64569938D02*
X111319876Y-64808033D01*
X111319876Y-64808033D02*
X111288923Y-64998509D01*
X111288923Y-64998509D02*
X111257971Y-65093747D01*
X111257971Y-65093747D02*
X111227018Y-65141367D01*
X111227018Y-65141367D02*
X111165114Y-65188986D01*
X111165114Y-65188986D02*
X111103209Y-65188986D01*
X111103209Y-65188986D02*
X111041304Y-65141367D01*
X111041304Y-65141367D02*
X111010352Y-65093747D01*
X111010352Y-65093747D02*
X110979399Y-64998509D01*
X110979399Y-64998509D02*
X110948447Y-64808033D01*
X110948447Y-64808033D02*
X110948447Y-64569938D01*
X110948447Y-64569938D02*
X110979399Y-64379462D01*
X110979399Y-64379462D02*
X111010352Y-64284224D01*
X111010352Y-64284224D02*
X111041304Y-64236605D01*
X111041304Y-64236605D02*
X111103209Y-64188986D01*
X118755301Y-72637227D02*
X118279110Y-72853894D01*
X118755301Y-73008656D02*
X117755301Y-73008656D01*
X117755301Y-73008656D02*
X117755301Y-72761037D01*
X117755301Y-72761037D02*
X117802920Y-72699132D01*
X117802920Y-72699132D02*
X117850539Y-72668179D01*
X117850539Y-72668179D02*
X117945777Y-72637227D01*
X117945777Y-72637227D02*
X118088634Y-72637227D01*
X118088634Y-72637227D02*
X118183872Y-72668179D01*
X118183872Y-72668179D02*
X118231491Y-72699132D01*
X118231491Y-72699132D02*
X118279110Y-72761037D01*
X118279110Y-72761037D02*
X118279110Y-73008656D01*
X117755301Y-72451513D02*
X118755301Y-72234846D01*
X118755301Y-72234846D02*
X117755301Y-72018179D01*
X118755301Y-71461036D02*
X118755301Y-71832465D01*
X118755301Y-71646751D02*
X117755301Y-71646751D01*
X117755301Y-71646751D02*
X117898158Y-71708655D01*
X117898158Y-71708655D02*
X117993396Y-71770560D01*
X117993396Y-71770560D02*
X118041015Y-71832465D01*
X141708333Y-72978024D02*
X141646428Y-72930405D01*
X141646428Y-72930405D02*
X141584523Y-72835167D01*
X141584523Y-72835167D02*
X141491666Y-72692309D01*
X141491666Y-72692309D02*
X141429761Y-72644690D01*
X141429761Y-72644690D02*
X141367857Y-72644690D01*
X141398809Y-72882786D02*
X141336904Y-72835167D01*
X141336904Y-72835167D02*
X141274999Y-72739928D01*
X141274999Y-72739928D02*
X141244047Y-72549452D01*
X141244047Y-72549452D02*
X141244047Y-72216119D01*
X141244047Y-72216119D02*
X141274999Y-72025643D01*
X141274999Y-72025643D02*
X141336904Y-71930405D01*
X141336904Y-71930405D02*
X141398809Y-71882786D01*
X141398809Y-71882786D02*
X141522618Y-71882786D01*
X141522618Y-71882786D02*
X141584523Y-71930405D01*
X141584523Y-71930405D02*
X141646428Y-72025643D01*
X141646428Y-72025643D02*
X141677380Y-72216119D01*
X141677380Y-72216119D02*
X141677380Y-72549452D01*
X141677380Y-72549452D02*
X141646428Y-72739928D01*
X141646428Y-72739928D02*
X141584523Y-72835167D01*
X141584523Y-72835167D02*
X141522618Y-72882786D01*
X141522618Y-72882786D02*
X141398809Y-72882786D01*
X142296428Y-72882786D02*
X141924999Y-72882786D01*
X142110713Y-72882786D02*
X142110713Y-71882786D01*
X142110713Y-71882786D02*
X142048809Y-72025643D01*
X142048809Y-72025643D02*
X141986904Y-72120881D01*
X141986904Y-72120881D02*
X141924999Y-72168500D01*
X145872063Y-107311857D02*
X145395872Y-107528524D01*
X145872063Y-107683286D02*
X144872063Y-107683286D01*
X144872063Y-107683286D02*
X144872063Y-107435667D01*
X144872063Y-107435667D02*
X144919682Y-107373762D01*
X144919682Y-107373762D02*
X144967301Y-107342809D01*
X144967301Y-107342809D02*
X145062539Y-107311857D01*
X145062539Y-107311857D02*
X145205396Y-107311857D01*
X145205396Y-107311857D02*
X145300634Y-107342809D01*
X145300634Y-107342809D02*
X145348253Y-107373762D01*
X145348253Y-107373762D02*
X145395872Y-107435667D01*
X145395872Y-107435667D02*
X145395872Y-107683286D01*
X144872063Y-107095190D02*
X144872063Y-106692809D01*
X144872063Y-106692809D02*
X145253015Y-106909476D01*
X145253015Y-106909476D02*
X145253015Y-106816619D01*
X145253015Y-106816619D02*
X145300634Y-106754714D01*
X145300634Y-106754714D02*
X145348253Y-106723762D01*
X145348253Y-106723762D02*
X145443491Y-106692809D01*
X145443491Y-106692809D02*
X145681586Y-106692809D01*
X145681586Y-106692809D02*
X145776824Y-106723762D01*
X145776824Y-106723762D02*
X145824444Y-106754714D01*
X145824444Y-106754714D02*
X145872063Y-106816619D01*
X145872063Y-106816619D02*
X145872063Y-107002333D01*
X145872063Y-107002333D02*
X145824444Y-107064238D01*
X145824444Y-107064238D02*
X145776824Y-107095190D01*
X145300634Y-106321380D02*
X145253015Y-106383285D01*
X145253015Y-106383285D02*
X145205396Y-106414238D01*
X145205396Y-106414238D02*
X145110158Y-106445190D01*
X145110158Y-106445190D02*
X145062539Y-106445190D01*
X145062539Y-106445190D02*
X144967301Y-106414238D01*
X144967301Y-106414238D02*
X144919682Y-106383285D01*
X144919682Y-106383285D02*
X144872063Y-106321380D01*
X144872063Y-106321380D02*
X144872063Y-106197571D01*
X144872063Y-106197571D02*
X144919682Y-106135666D01*
X144919682Y-106135666D02*
X144967301Y-106104714D01*
X144967301Y-106104714D02*
X145062539Y-106073761D01*
X145062539Y-106073761D02*
X145110158Y-106073761D01*
X145110158Y-106073761D02*
X145205396Y-106104714D01*
X145205396Y-106104714D02*
X145253015Y-106135666D01*
X145253015Y-106135666D02*
X145300634Y-106197571D01*
X145300634Y-106197571D02*
X145300634Y-106321380D01*
X145300634Y-106321380D02*
X145348253Y-106383285D01*
X145348253Y-106383285D02*
X145395872Y-106414238D01*
X145395872Y-106414238D02*
X145491110Y-106445190D01*
X145491110Y-106445190D02*
X145681586Y-106445190D01*
X145681586Y-106445190D02*
X145776824Y-106414238D01*
X145776824Y-106414238D02*
X145824444Y-106383285D01*
X145824444Y-106383285D02*
X145872063Y-106321380D01*
X145872063Y-106321380D02*
X145872063Y-106197571D01*
X145872063Y-106197571D02*
X145824444Y-106135666D01*
X145824444Y-106135666D02*
X145776824Y-106104714D01*
X145776824Y-106104714D02*
X145681586Y-106073761D01*
X145681586Y-106073761D02*
X145491110Y-106073761D01*
X145491110Y-106073761D02*
X145395872Y-106104714D01*
X145395872Y-106104714D02*
X145348253Y-106135666D01*
X145348253Y-106135666D02*
X145300634Y-106197571D01*
X115431062Y-84984180D02*
X115478682Y-85015132D01*
X115478682Y-85015132D02*
X115526301Y-85107990D01*
X115526301Y-85107990D02*
X115526301Y-85169894D01*
X115526301Y-85169894D02*
X115478682Y-85262751D01*
X115478682Y-85262751D02*
X115383443Y-85324656D01*
X115383443Y-85324656D02*
X115288205Y-85355609D01*
X115288205Y-85355609D02*
X115097729Y-85386561D01*
X115097729Y-85386561D02*
X114954872Y-85386561D01*
X114954872Y-85386561D02*
X114764396Y-85355609D01*
X114764396Y-85355609D02*
X114669158Y-85324656D01*
X114669158Y-85324656D02*
X114573920Y-85262751D01*
X114573920Y-85262751D02*
X114526301Y-85169894D01*
X114526301Y-85169894D02*
X114526301Y-85107990D01*
X114526301Y-85107990D02*
X114573920Y-85015132D01*
X114573920Y-85015132D02*
X114621539Y-84984180D01*
X114526301Y-84396085D02*
X114526301Y-84705609D01*
X114526301Y-84705609D02*
X115002491Y-84736561D01*
X115002491Y-84736561D02*
X114954872Y-84705609D01*
X114954872Y-84705609D02*
X114907253Y-84643704D01*
X114907253Y-84643704D02*
X114907253Y-84488942D01*
X114907253Y-84488942D02*
X114954872Y-84427037D01*
X114954872Y-84427037D02*
X115002491Y-84396085D01*
X115002491Y-84396085D02*
X115097729Y-84365132D01*
X115097729Y-84365132D02*
X115335824Y-84365132D01*
X115335824Y-84365132D02*
X115431062Y-84396085D01*
X115431062Y-84396085D02*
X115478682Y-84427037D01*
X115478682Y-84427037D02*
X115526301Y-84488942D01*
X115526301Y-84488942D02*
X115526301Y-84643704D01*
X115526301Y-84643704D02*
X115478682Y-84705609D01*
X115478682Y-84705609D02*
X115431062Y-84736561D01*
X114526301Y-83777037D02*
X114526301Y-84086561D01*
X114526301Y-84086561D02*
X115002491Y-84117513D01*
X115002491Y-84117513D02*
X114954872Y-84086561D01*
X114954872Y-84086561D02*
X114907253Y-84024656D01*
X114907253Y-84024656D02*
X114907253Y-83869894D01*
X114907253Y-83869894D02*
X114954872Y-83807989D01*
X114954872Y-83807989D02*
X115002491Y-83777037D01*
X115002491Y-83777037D02*
X115097729Y-83746084D01*
X115097729Y-83746084D02*
X115335824Y-83746084D01*
X115335824Y-83746084D02*
X115431062Y-83777037D01*
X115431062Y-83777037D02*
X115478682Y-83807989D01*
X115478682Y-83807989D02*
X115526301Y-83869894D01*
X115526301Y-83869894D02*
X115526301Y-84024656D01*
X115526301Y-84024656D02*
X115478682Y-84086561D01*
X115478682Y-84086561D02*
X115431062Y-84117513D01*
X149071637Y-90981663D02*
X149071637Y-91791186D01*
X149071637Y-91791186D02*
X149102590Y-91886424D01*
X149102590Y-91886424D02*
X149133542Y-91934044D01*
X149133542Y-91934044D02*
X149195447Y-91981663D01*
X149195447Y-91981663D02*
X149319256Y-91981663D01*
X149319256Y-91981663D02*
X149381161Y-91934044D01*
X149381161Y-91934044D02*
X149412114Y-91886424D01*
X149412114Y-91886424D02*
X149443066Y-91791186D01*
X149443066Y-91791186D02*
X149443066Y-90981663D01*
X150093066Y-91981663D02*
X149721637Y-91981663D01*
X149907351Y-91981663D02*
X149907351Y-90981663D01*
X149907351Y-90981663D02*
X149845447Y-91124520D01*
X149845447Y-91124520D02*
X149783542Y-91219758D01*
X149783542Y-91219758D02*
X149721637Y-91267377D01*
X150650209Y-91314996D02*
X150650209Y-91981663D01*
X150495447Y-90934044D02*
X150340685Y-91648329D01*
X150340685Y-91648329D02*
X150743066Y-91648329D01*
X109500301Y-82072085D02*
X110309824Y-82072085D01*
X110309824Y-82072085D02*
X110405062Y-82041132D01*
X110405062Y-82041132D02*
X110452682Y-82010180D01*
X110452682Y-82010180D02*
X110500301Y-81948275D01*
X110500301Y-81948275D02*
X110500301Y-81824466D01*
X110500301Y-81824466D02*
X110452682Y-81762561D01*
X110452682Y-81762561D02*
X110405062Y-81731608D01*
X110405062Y-81731608D02*
X110309824Y-81700656D01*
X110309824Y-81700656D02*
X109500301Y-81700656D01*
X110500301Y-81050656D02*
X110500301Y-81422085D01*
X110500301Y-81236371D02*
X109500301Y-81236371D01*
X109500301Y-81236371D02*
X109643158Y-81298275D01*
X109643158Y-81298275D02*
X109738396Y-81360180D01*
X109738396Y-81360180D02*
X109786015Y-81422085D01*
X109500301Y-80833989D02*
X109500301Y-80400656D01*
X109500301Y-80400656D02*
X110500301Y-80679227D01*
X131852780Y-70958747D02*
X131821828Y-71006367D01*
X131821828Y-71006367D02*
X131728970Y-71053986D01*
X131728970Y-71053986D02*
X131667066Y-71053986D01*
X131667066Y-71053986D02*
X131574209Y-71006367D01*
X131574209Y-71006367D02*
X131512304Y-70911128D01*
X131512304Y-70911128D02*
X131481351Y-70815890D01*
X131481351Y-70815890D02*
X131450399Y-70625414D01*
X131450399Y-70625414D02*
X131450399Y-70482557D01*
X131450399Y-70482557D02*
X131481351Y-70292081D01*
X131481351Y-70292081D02*
X131512304Y-70196843D01*
X131512304Y-70196843D02*
X131574209Y-70101605D01*
X131574209Y-70101605D02*
X131667066Y-70053986D01*
X131667066Y-70053986D02*
X131728970Y-70053986D01*
X131728970Y-70053986D02*
X131821828Y-70101605D01*
X131821828Y-70101605D02*
X131852780Y-70149224D01*
X132471828Y-71053986D02*
X132100399Y-71053986D01*
X132286113Y-71053986D02*
X132286113Y-70053986D01*
X132286113Y-70053986D02*
X132224209Y-70196843D01*
X132224209Y-70196843D02*
X132162304Y-70292081D01*
X132162304Y-70292081D02*
X132100399Y-70339700D01*
X132874209Y-70053986D02*
X132936114Y-70053986D01*
X132936114Y-70053986D02*
X132998018Y-70101605D01*
X132998018Y-70101605D02*
X133028971Y-70149224D01*
X133028971Y-70149224D02*
X133059923Y-70244462D01*
X133059923Y-70244462D02*
X133090876Y-70434938D01*
X133090876Y-70434938D02*
X133090876Y-70673033D01*
X133090876Y-70673033D02*
X133059923Y-70863509D01*
X133059923Y-70863509D02*
X133028971Y-70958747D01*
X133028971Y-70958747D02*
X132998018Y-71006367D01*
X132998018Y-71006367D02*
X132936114Y-71053986D01*
X132936114Y-71053986D02*
X132874209Y-71053986D01*
X132874209Y-71053986D02*
X132812304Y-71006367D01*
X132812304Y-71006367D02*
X132781352Y-70958747D01*
X132781352Y-70958747D02*
X132750399Y-70863509D01*
X132750399Y-70863509D02*
X132719447Y-70673033D01*
X132719447Y-70673033D02*
X132719447Y-70434938D01*
X132719447Y-70434938D02*
X132750399Y-70244462D01*
X132750399Y-70244462D02*
X132781352Y-70149224D01*
X132781352Y-70149224D02*
X132812304Y-70101605D01*
X132812304Y-70101605D02*
X132874209Y-70053986D01*
X148076824Y-91690857D02*
X148124444Y-91721809D01*
X148124444Y-91721809D02*
X148172063Y-91814667D01*
X148172063Y-91814667D02*
X148172063Y-91876571D01*
X148172063Y-91876571D02*
X148124444Y-91969428D01*
X148124444Y-91969428D02*
X148029205Y-92031333D01*
X148029205Y-92031333D02*
X147933967Y-92062286D01*
X147933967Y-92062286D02*
X147743491Y-92093238D01*
X147743491Y-92093238D02*
X147600634Y-92093238D01*
X147600634Y-92093238D02*
X147410158Y-92062286D01*
X147410158Y-92062286D02*
X147314920Y-92031333D01*
X147314920Y-92031333D02*
X147219682Y-91969428D01*
X147219682Y-91969428D02*
X147172063Y-91876571D01*
X147172063Y-91876571D02*
X147172063Y-91814667D01*
X147172063Y-91814667D02*
X147219682Y-91721809D01*
X147219682Y-91721809D02*
X147267301Y-91690857D01*
X147172063Y-91474190D02*
X147172063Y-91071809D01*
X147172063Y-91071809D02*
X147553015Y-91288476D01*
X147553015Y-91288476D02*
X147553015Y-91195619D01*
X147553015Y-91195619D02*
X147600634Y-91133714D01*
X147600634Y-91133714D02*
X147648253Y-91102762D01*
X147648253Y-91102762D02*
X147743491Y-91071809D01*
X147743491Y-91071809D02*
X147981586Y-91071809D01*
X147981586Y-91071809D02*
X148076824Y-91102762D01*
X148076824Y-91102762D02*
X148124444Y-91133714D01*
X148124444Y-91133714D02*
X148172063Y-91195619D01*
X148172063Y-91195619D02*
X148172063Y-91381333D01*
X148172063Y-91381333D02*
X148124444Y-91443238D01*
X148124444Y-91443238D02*
X148076824Y-91474190D01*
X147172063Y-90855142D02*
X147172063Y-90421809D01*
X147172063Y-90421809D02*
X148172063Y-90700380D01*
X177207062Y-77997406D02*
X177254682Y-78028358D01*
X177254682Y-78028358D02*
X177302301Y-78121216D01*
X177302301Y-78121216D02*
X177302301Y-78183120D01*
X177302301Y-78183120D02*
X177254682Y-78275977D01*
X177254682Y-78275977D02*
X177159443Y-78337882D01*
X177159443Y-78337882D02*
X177064205Y-78368835D01*
X177064205Y-78368835D02*
X176873729Y-78399787D01*
X176873729Y-78399787D02*
X176730872Y-78399787D01*
X176730872Y-78399787D02*
X176540396Y-78368835D01*
X176540396Y-78368835D02*
X176445158Y-78337882D01*
X176445158Y-78337882D02*
X176349920Y-78275977D01*
X176349920Y-78275977D02*
X176302301Y-78183120D01*
X176302301Y-78183120D02*
X176302301Y-78121216D01*
X176302301Y-78121216D02*
X176349920Y-78028358D01*
X176349920Y-78028358D02*
X176397539Y-77997406D01*
X176397539Y-77749787D02*
X176349920Y-77718835D01*
X176349920Y-77718835D02*
X176302301Y-77656930D01*
X176302301Y-77656930D02*
X176302301Y-77502168D01*
X176302301Y-77502168D02*
X176349920Y-77440263D01*
X176349920Y-77440263D02*
X176397539Y-77409311D01*
X176397539Y-77409311D02*
X176492777Y-77378358D01*
X176492777Y-77378358D02*
X176588015Y-77378358D01*
X176588015Y-77378358D02*
X176730872Y-77409311D01*
X176730872Y-77409311D02*
X177302301Y-77780739D01*
X177302301Y-77780739D02*
X177302301Y-77378358D01*
X156810542Y-92489663D02*
X156593875Y-92013472D01*
X156439113Y-92489663D02*
X156439113Y-91489663D01*
X156439113Y-91489663D02*
X156686732Y-91489663D01*
X156686732Y-91489663D02*
X156748637Y-91537282D01*
X156748637Y-91537282D02*
X156779590Y-91584901D01*
X156779590Y-91584901D02*
X156810542Y-91680139D01*
X156810542Y-91680139D02*
X156810542Y-91822996D01*
X156810542Y-91822996D02*
X156779590Y-91918234D01*
X156779590Y-91918234D02*
X156748637Y-91965853D01*
X156748637Y-91965853D02*
X156686732Y-92013472D01*
X156686732Y-92013472D02*
X156439113Y-92013472D01*
X157027209Y-91489663D02*
X157429590Y-91489663D01*
X157429590Y-91489663D02*
X157212923Y-91870615D01*
X157212923Y-91870615D02*
X157305780Y-91870615D01*
X157305780Y-91870615D02*
X157367685Y-91918234D01*
X157367685Y-91918234D02*
X157398637Y-91965853D01*
X157398637Y-91965853D02*
X157429590Y-92061091D01*
X157429590Y-92061091D02*
X157429590Y-92299186D01*
X157429590Y-92299186D02*
X157398637Y-92394424D01*
X157398637Y-92394424D02*
X157367685Y-92442044D01*
X157367685Y-92442044D02*
X157305780Y-92489663D01*
X157305780Y-92489663D02*
X157120066Y-92489663D01*
X157120066Y-92489663D02*
X157058161Y-92442044D01*
X157058161Y-92442044D02*
X157027209Y-92394424D01*
X157986733Y-91489663D02*
X157862923Y-91489663D01*
X157862923Y-91489663D02*
X157801019Y-91537282D01*
X157801019Y-91537282D02*
X157770066Y-91584901D01*
X157770066Y-91584901D02*
X157708161Y-91727758D01*
X157708161Y-91727758D02*
X157677209Y-91918234D01*
X157677209Y-91918234D02*
X157677209Y-92299186D01*
X157677209Y-92299186D02*
X157708161Y-92394424D01*
X157708161Y-92394424D02*
X157739114Y-92442044D01*
X157739114Y-92442044D02*
X157801019Y-92489663D01*
X157801019Y-92489663D02*
X157924828Y-92489663D01*
X157924828Y-92489663D02*
X157986733Y-92442044D01*
X157986733Y-92442044D02*
X158017685Y-92394424D01*
X158017685Y-92394424D02*
X158048638Y-92299186D01*
X158048638Y-92299186D02*
X158048638Y-92061091D01*
X158048638Y-92061091D02*
X158017685Y-91965853D01*
X158017685Y-91965853D02*
X157986733Y-91918234D01*
X157986733Y-91918234D02*
X157924828Y-91870615D01*
X157924828Y-91870615D02*
X157801019Y-91870615D01*
X157801019Y-91870615D02*
X157739114Y-91918234D01*
X157739114Y-91918234D02*
X157708161Y-91965853D01*
X157708161Y-91965853D02*
X157677209Y-92061091D01*
X108351875Y-75514986D02*
X108351875Y-76324509D01*
X108351875Y-76324509D02*
X108382828Y-76419747D01*
X108382828Y-76419747D02*
X108413780Y-76467367D01*
X108413780Y-76467367D02*
X108475685Y-76514986D01*
X108475685Y-76514986D02*
X108599494Y-76514986D01*
X108599494Y-76514986D02*
X108661399Y-76467367D01*
X108661399Y-76467367D02*
X108692352Y-76419747D01*
X108692352Y-76419747D02*
X108723304Y-76324509D01*
X108723304Y-76324509D02*
X108723304Y-75514986D01*
X109373304Y-76514986D02*
X109001875Y-76514986D01*
X109187589Y-76514986D02*
X109187589Y-75514986D01*
X109187589Y-75514986D02*
X109125685Y-75657843D01*
X109125685Y-75657843D02*
X109063780Y-75753081D01*
X109063780Y-75753081D02*
X109001875Y-75800700D01*
X109930447Y-75514986D02*
X109806637Y-75514986D01*
X109806637Y-75514986D02*
X109744733Y-75562605D01*
X109744733Y-75562605D02*
X109713780Y-75610224D01*
X109713780Y-75610224D02*
X109651875Y-75753081D01*
X109651875Y-75753081D02*
X109620923Y-75943557D01*
X109620923Y-75943557D02*
X109620923Y-76324509D01*
X109620923Y-76324509D02*
X109651875Y-76419747D01*
X109651875Y-76419747D02*
X109682828Y-76467367D01*
X109682828Y-76467367D02*
X109744733Y-76514986D01*
X109744733Y-76514986D02*
X109868542Y-76514986D01*
X109868542Y-76514986D02*
X109930447Y-76467367D01*
X109930447Y-76467367D02*
X109961399Y-76419747D01*
X109961399Y-76419747D02*
X109992352Y-76324509D01*
X109992352Y-76324509D02*
X109992352Y-76086414D01*
X109992352Y-76086414D02*
X109961399Y-75991176D01*
X109961399Y-75991176D02*
X109930447Y-75943557D01*
X109930447Y-75943557D02*
X109868542Y-75895938D01*
X109868542Y-75895938D02*
X109744733Y-75895938D01*
X109744733Y-75895938D02*
X109682828Y-75943557D01*
X109682828Y-75943557D02*
X109651875Y-75991176D01*
X109651875Y-75991176D02*
X109620923Y-76086414D01*
X133807399Y-73736986D02*
X133807399Y-74546509D01*
X133807399Y-74546509D02*
X133838352Y-74641747D01*
X133838352Y-74641747D02*
X133869304Y-74689367D01*
X133869304Y-74689367D02*
X133931209Y-74736986D01*
X133931209Y-74736986D02*
X134055018Y-74736986D01*
X134055018Y-74736986D02*
X134116923Y-74689367D01*
X134116923Y-74689367D02*
X134147876Y-74641747D01*
X134147876Y-74641747D02*
X134178828Y-74546509D01*
X134178828Y-74546509D02*
X134178828Y-73736986D01*
X134766923Y-73736986D02*
X134643113Y-73736986D01*
X134643113Y-73736986D02*
X134581209Y-73784605D01*
X134581209Y-73784605D02*
X134550256Y-73832224D01*
X134550256Y-73832224D02*
X134488351Y-73975081D01*
X134488351Y-73975081D02*
X134457399Y-74165557D01*
X134457399Y-74165557D02*
X134457399Y-74546509D01*
X134457399Y-74546509D02*
X134488351Y-74641747D01*
X134488351Y-74641747D02*
X134519304Y-74689367D01*
X134519304Y-74689367D02*
X134581209Y-74736986D01*
X134581209Y-74736986D02*
X134705018Y-74736986D01*
X134705018Y-74736986D02*
X134766923Y-74689367D01*
X134766923Y-74689367D02*
X134797875Y-74641747D01*
X134797875Y-74641747D02*
X134828828Y-74546509D01*
X134828828Y-74546509D02*
X134828828Y-74308414D01*
X134828828Y-74308414D02*
X134797875Y-74213176D01*
X134797875Y-74213176D02*
X134766923Y-74165557D01*
X134766923Y-74165557D02*
X134705018Y-74117938D01*
X134705018Y-74117938D02*
X134581209Y-74117938D01*
X134581209Y-74117938D02*
X134519304Y-74165557D01*
X134519304Y-74165557D02*
X134488351Y-74213176D01*
X134488351Y-74213176D02*
X134457399Y-74308414D01*
X129286301Y-88639227D02*
X128810110Y-88855894D01*
X129286301Y-89010656D02*
X128286301Y-89010656D01*
X128286301Y-89010656D02*
X128286301Y-88763037D01*
X128286301Y-88763037D02*
X128333920Y-88701132D01*
X128333920Y-88701132D02*
X128381539Y-88670179D01*
X128381539Y-88670179D02*
X128476777Y-88639227D01*
X128476777Y-88639227D02*
X128619634Y-88639227D01*
X128619634Y-88639227D02*
X128714872Y-88670179D01*
X128714872Y-88670179D02*
X128762491Y-88701132D01*
X128762491Y-88701132D02*
X128810110Y-88763037D01*
X128810110Y-88763037D02*
X128810110Y-89010656D01*
X128286301Y-88453513D02*
X129286301Y-88236846D01*
X129286301Y-88236846D02*
X128286301Y-88020179D01*
X128381539Y-87834465D02*
X128333920Y-87803513D01*
X128333920Y-87803513D02*
X128286301Y-87741608D01*
X128286301Y-87741608D02*
X128286301Y-87586846D01*
X128286301Y-87586846D02*
X128333920Y-87524941D01*
X128333920Y-87524941D02*
X128381539Y-87493989D01*
X128381539Y-87493989D02*
X128476777Y-87463036D01*
X128476777Y-87463036D02*
X128572015Y-87463036D01*
X128572015Y-87463036D02*
X128714872Y-87493989D01*
X128714872Y-87493989D02*
X129286301Y-87865417D01*
X129286301Y-87865417D02*
X129286301Y-87463036D01*
X161586062Y-65683180D02*
X161633682Y-65714132D01*
X161633682Y-65714132D02*
X161681301Y-65806990D01*
X161681301Y-65806990D02*
X161681301Y-65868894D01*
X161681301Y-65868894D02*
X161633682Y-65961751D01*
X161633682Y-65961751D02*
X161538443Y-66023656D01*
X161538443Y-66023656D02*
X161443205Y-66054609D01*
X161443205Y-66054609D02*
X161252729Y-66085561D01*
X161252729Y-66085561D02*
X161109872Y-66085561D01*
X161109872Y-66085561D02*
X160919396Y-66054609D01*
X160919396Y-66054609D02*
X160824158Y-66023656D01*
X160824158Y-66023656D02*
X160728920Y-65961751D01*
X160728920Y-65961751D02*
X160681301Y-65868894D01*
X160681301Y-65868894D02*
X160681301Y-65806990D01*
X160681301Y-65806990D02*
X160728920Y-65714132D01*
X160728920Y-65714132D02*
X160776539Y-65683180D01*
X161681301Y-65064132D02*
X161681301Y-65435561D01*
X161681301Y-65249847D02*
X160681301Y-65249847D01*
X160681301Y-65249847D02*
X160824158Y-65311751D01*
X160824158Y-65311751D02*
X160919396Y-65373656D01*
X160919396Y-65373656D02*
X160967015Y-65435561D01*
X160681301Y-64847465D02*
X160681301Y-64414132D01*
X160681301Y-64414132D02*
X161681301Y-64692703D01*
X106985062Y-67201180D02*
X107032682Y-67232132D01*
X107032682Y-67232132D02*
X107080301Y-67324990D01*
X107080301Y-67324990D02*
X107080301Y-67386894D01*
X107080301Y-67386894D02*
X107032682Y-67479751D01*
X107032682Y-67479751D02*
X106937443Y-67541656D01*
X106937443Y-67541656D02*
X106842205Y-67572609D01*
X106842205Y-67572609D02*
X106651729Y-67603561D01*
X106651729Y-67603561D02*
X106508872Y-67603561D01*
X106508872Y-67603561D02*
X106318396Y-67572609D01*
X106318396Y-67572609D02*
X106223158Y-67541656D01*
X106223158Y-67541656D02*
X106127920Y-67479751D01*
X106127920Y-67479751D02*
X106080301Y-67386894D01*
X106080301Y-67386894D02*
X106080301Y-67324990D01*
X106080301Y-67324990D02*
X106127920Y-67232132D01*
X106127920Y-67232132D02*
X106175539Y-67201180D01*
X106413634Y-66644037D02*
X107080301Y-66644037D01*
X106032682Y-66798799D02*
X106746967Y-66953561D01*
X106746967Y-66953561D02*
X106746967Y-66551180D01*
X106508872Y-66210703D02*
X106461253Y-66272608D01*
X106461253Y-66272608D02*
X106413634Y-66303561D01*
X106413634Y-66303561D02*
X106318396Y-66334513D01*
X106318396Y-66334513D02*
X106270777Y-66334513D01*
X106270777Y-66334513D02*
X106175539Y-66303561D01*
X106175539Y-66303561D02*
X106127920Y-66272608D01*
X106127920Y-66272608D02*
X106080301Y-66210703D01*
X106080301Y-66210703D02*
X106080301Y-66086894D01*
X106080301Y-66086894D02*
X106127920Y-66024989D01*
X106127920Y-66024989D02*
X106175539Y-65994037D01*
X106175539Y-65994037D02*
X106270777Y-65963084D01*
X106270777Y-65963084D02*
X106318396Y-65963084D01*
X106318396Y-65963084D02*
X106413634Y-65994037D01*
X106413634Y-65994037D02*
X106461253Y-66024989D01*
X106461253Y-66024989D02*
X106508872Y-66086894D01*
X106508872Y-66086894D02*
X106508872Y-66210703D01*
X106508872Y-66210703D02*
X106556491Y-66272608D01*
X106556491Y-66272608D02*
X106604110Y-66303561D01*
X106604110Y-66303561D02*
X106699348Y-66334513D01*
X106699348Y-66334513D02*
X106889824Y-66334513D01*
X106889824Y-66334513D02*
X106985062Y-66303561D01*
X106985062Y-66303561D02*
X107032682Y-66272608D01*
X107032682Y-66272608D02*
X107080301Y-66210703D01*
X107080301Y-66210703D02*
X107080301Y-66086894D01*
X107080301Y-66086894D02*
X107032682Y-66024989D01*
X107032682Y-66024989D02*
X106985062Y-65994037D01*
X106985062Y-65994037D02*
X106889824Y-65963084D01*
X106889824Y-65963084D02*
X106699348Y-65963084D01*
X106699348Y-65963084D02*
X106604110Y-65994037D01*
X106604110Y-65994037D02*
X106556491Y-66024989D01*
X106556491Y-66024989D02*
X106508872Y-66086894D01*
X155792063Y-107385571D02*
X155315872Y-107602238D01*
X155792063Y-107757000D02*
X154792063Y-107757000D01*
X154792063Y-107757000D02*
X154792063Y-107509381D01*
X154792063Y-107509381D02*
X154839682Y-107447476D01*
X154839682Y-107447476D02*
X154887301Y-107416523D01*
X154887301Y-107416523D02*
X154982539Y-107385571D01*
X154982539Y-107385571D02*
X155125396Y-107385571D01*
X155125396Y-107385571D02*
X155220634Y-107416523D01*
X155220634Y-107416523D02*
X155268253Y-107447476D01*
X155268253Y-107447476D02*
X155315872Y-107509381D01*
X155315872Y-107509381D02*
X155315872Y-107757000D01*
X155887301Y-107261762D02*
X155887301Y-106766523D01*
X155792063Y-106240333D02*
X155315872Y-106457000D01*
X155792063Y-106611762D02*
X154792063Y-106611762D01*
X154792063Y-106611762D02*
X154792063Y-106364143D01*
X154792063Y-106364143D02*
X154839682Y-106302238D01*
X154839682Y-106302238D02*
X154887301Y-106271285D01*
X154887301Y-106271285D02*
X154982539Y-106240333D01*
X154982539Y-106240333D02*
X155125396Y-106240333D01*
X155125396Y-106240333D02*
X155220634Y-106271285D01*
X155220634Y-106271285D02*
X155268253Y-106302238D01*
X155268253Y-106302238D02*
X155315872Y-106364143D01*
X155315872Y-106364143D02*
X155315872Y-106611762D01*
X155268253Y-105961762D02*
X155268253Y-105745095D01*
X155792063Y-105652238D02*
X155792063Y-105961762D01*
X155792063Y-105961762D02*
X154792063Y-105961762D01*
X154792063Y-105961762D02*
X154792063Y-105652238D01*
X155268253Y-105157000D02*
X155268253Y-105373667D01*
X155792063Y-105373667D02*
X154792063Y-105373667D01*
X154792063Y-105373667D02*
X154792063Y-105064143D01*
X154887301Y-104847476D02*
X154839682Y-104816524D01*
X154839682Y-104816524D02*
X154792063Y-104754619D01*
X154792063Y-104754619D02*
X154792063Y-104599857D01*
X154792063Y-104599857D02*
X154839682Y-104537952D01*
X154839682Y-104537952D02*
X154887301Y-104507000D01*
X154887301Y-104507000D02*
X154982539Y-104476047D01*
X154982539Y-104476047D02*
X155077777Y-104476047D01*
X155077777Y-104476047D02*
X155220634Y-104507000D01*
X155220634Y-104507000D02*
X155792063Y-104878428D01*
X155792063Y-104878428D02*
X155792063Y-104476047D01*
X116550875Y-70545986D02*
X116550875Y-69545986D01*
X116922304Y-70545986D02*
X116643733Y-69974557D01*
X116922304Y-69545986D02*
X116550875Y-70117414D01*
X117541352Y-70545986D02*
X117169923Y-70545986D01*
X117355637Y-70545986D02*
X117355637Y-69545986D01*
X117355637Y-69545986D02*
X117293733Y-69688843D01*
X117293733Y-69688843D02*
X117231828Y-69784081D01*
X117231828Y-69784081D02*
X117169923Y-69831700D01*
X115485062Y-71525180D02*
X115532682Y-71556132D01*
X115532682Y-71556132D02*
X115580301Y-71648990D01*
X115580301Y-71648990D02*
X115580301Y-71710894D01*
X115580301Y-71710894D02*
X115532682Y-71803751D01*
X115532682Y-71803751D02*
X115437443Y-71865656D01*
X115437443Y-71865656D02*
X115342205Y-71896609D01*
X115342205Y-71896609D02*
X115151729Y-71927561D01*
X115151729Y-71927561D02*
X115008872Y-71927561D01*
X115008872Y-71927561D02*
X114818396Y-71896609D01*
X114818396Y-71896609D02*
X114723158Y-71865656D01*
X114723158Y-71865656D02*
X114627920Y-71803751D01*
X114627920Y-71803751D02*
X114580301Y-71710894D01*
X114580301Y-71710894D02*
X114580301Y-71648990D01*
X114580301Y-71648990D02*
X114627920Y-71556132D01*
X114627920Y-71556132D02*
X114675539Y-71525180D01*
X114580301Y-70937085D02*
X114580301Y-71246609D01*
X114580301Y-71246609D02*
X115056491Y-71277561D01*
X115056491Y-71277561D02*
X115008872Y-71246609D01*
X115008872Y-71246609D02*
X114961253Y-71184704D01*
X114961253Y-71184704D02*
X114961253Y-71029942D01*
X114961253Y-71029942D02*
X115008872Y-70968037D01*
X115008872Y-70968037D02*
X115056491Y-70937085D01*
X115056491Y-70937085D02*
X115151729Y-70906132D01*
X115151729Y-70906132D02*
X115389824Y-70906132D01*
X115389824Y-70906132D02*
X115485062Y-70937085D01*
X115485062Y-70937085D02*
X115532682Y-70968037D01*
X115532682Y-70968037D02*
X115580301Y-71029942D01*
X115580301Y-71029942D02*
X115580301Y-71184704D01*
X115580301Y-71184704D02*
X115532682Y-71246609D01*
X115532682Y-71246609D02*
X115485062Y-71277561D01*
X114675539Y-70658513D02*
X114627920Y-70627561D01*
X114627920Y-70627561D02*
X114580301Y-70565656D01*
X114580301Y-70565656D02*
X114580301Y-70410894D01*
X114580301Y-70410894D02*
X114627920Y-70348989D01*
X114627920Y-70348989D02*
X114675539Y-70318037D01*
X114675539Y-70318037D02*
X114770777Y-70287084D01*
X114770777Y-70287084D02*
X114866015Y-70287084D01*
X114866015Y-70287084D02*
X115008872Y-70318037D01*
X115008872Y-70318037D02*
X115580301Y-70689465D01*
X115580301Y-70689465D02*
X115580301Y-70287084D01*
X154553824Y-93214857D02*
X154601444Y-93245809D01*
X154601444Y-93245809D02*
X154649063Y-93338667D01*
X154649063Y-93338667D02*
X154649063Y-93400571D01*
X154649063Y-93400571D02*
X154601444Y-93493428D01*
X154601444Y-93493428D02*
X154506205Y-93555333D01*
X154506205Y-93555333D02*
X154410967Y-93586286D01*
X154410967Y-93586286D02*
X154220491Y-93617238D01*
X154220491Y-93617238D02*
X154077634Y-93617238D01*
X154077634Y-93617238D02*
X153887158Y-93586286D01*
X153887158Y-93586286D02*
X153791920Y-93555333D01*
X153791920Y-93555333D02*
X153696682Y-93493428D01*
X153696682Y-93493428D02*
X153649063Y-93400571D01*
X153649063Y-93400571D02*
X153649063Y-93338667D01*
X153649063Y-93338667D02*
X153696682Y-93245809D01*
X153696682Y-93245809D02*
X153744301Y-93214857D01*
X153744301Y-92967238D02*
X153696682Y-92936286D01*
X153696682Y-92936286D02*
X153649063Y-92874381D01*
X153649063Y-92874381D02*
X153649063Y-92719619D01*
X153649063Y-92719619D02*
X153696682Y-92657714D01*
X153696682Y-92657714D02*
X153744301Y-92626762D01*
X153744301Y-92626762D02*
X153839539Y-92595809D01*
X153839539Y-92595809D02*
X153934777Y-92595809D01*
X153934777Y-92595809D02*
X154077634Y-92626762D01*
X154077634Y-92626762D02*
X154649063Y-92998190D01*
X154649063Y-92998190D02*
X154649063Y-92595809D01*
X154649063Y-92286285D02*
X154649063Y-92162476D01*
X154649063Y-92162476D02*
X154601444Y-92100571D01*
X154601444Y-92100571D02*
X154553824Y-92069619D01*
X154553824Y-92069619D02*
X154410967Y-92007714D01*
X154410967Y-92007714D02*
X154220491Y-91976761D01*
X154220491Y-91976761D02*
X153839539Y-91976761D01*
X153839539Y-91976761D02*
X153744301Y-92007714D01*
X153744301Y-92007714D02*
X153696682Y-92038666D01*
X153696682Y-92038666D02*
X153649063Y-92100571D01*
X153649063Y-92100571D02*
X153649063Y-92224380D01*
X153649063Y-92224380D02*
X153696682Y-92286285D01*
X153696682Y-92286285D02*
X153744301Y-92317238D01*
X153744301Y-92317238D02*
X153839539Y-92348190D01*
X153839539Y-92348190D02*
X154077634Y-92348190D01*
X154077634Y-92348190D02*
X154172872Y-92317238D01*
X154172872Y-92317238D02*
X154220491Y-92286285D01*
X154220491Y-92286285D02*
X154268110Y-92224380D01*
X154268110Y-92224380D02*
X154268110Y-92100571D01*
X154268110Y-92100571D02*
X154220491Y-92038666D01*
X154220491Y-92038666D02*
X154172872Y-92007714D01*
X154172872Y-92007714D02*
X154077634Y-91976761D01*
X103350780Y-85419747D02*
X103319828Y-85467367D01*
X103319828Y-85467367D02*
X103226970Y-85514986D01*
X103226970Y-85514986D02*
X103165066Y-85514986D01*
X103165066Y-85514986D02*
X103072209Y-85467367D01*
X103072209Y-85467367D02*
X103010304Y-85372128D01*
X103010304Y-85372128D02*
X102979351Y-85276890D01*
X102979351Y-85276890D02*
X102948399Y-85086414D01*
X102948399Y-85086414D02*
X102948399Y-84943557D01*
X102948399Y-84943557D02*
X102979351Y-84753081D01*
X102979351Y-84753081D02*
X103010304Y-84657843D01*
X103010304Y-84657843D02*
X103072209Y-84562605D01*
X103072209Y-84562605D02*
X103165066Y-84514986D01*
X103165066Y-84514986D02*
X103226970Y-84514986D01*
X103226970Y-84514986D02*
X103319828Y-84562605D01*
X103319828Y-84562605D02*
X103350780Y-84610224D01*
X103938875Y-84514986D02*
X103629351Y-84514986D01*
X103629351Y-84514986D02*
X103598399Y-84991176D01*
X103598399Y-84991176D02*
X103629351Y-84943557D01*
X103629351Y-84943557D02*
X103691256Y-84895938D01*
X103691256Y-84895938D02*
X103846018Y-84895938D01*
X103846018Y-84895938D02*
X103907923Y-84943557D01*
X103907923Y-84943557D02*
X103938875Y-84991176D01*
X103938875Y-84991176D02*
X103969828Y-85086414D01*
X103969828Y-85086414D02*
X103969828Y-85324509D01*
X103969828Y-85324509D02*
X103938875Y-85419747D01*
X103938875Y-85419747D02*
X103907923Y-85467367D01*
X103907923Y-85467367D02*
X103846018Y-85514986D01*
X103846018Y-85514986D02*
X103691256Y-85514986D01*
X103691256Y-85514986D02*
X103629351Y-85467367D01*
X103629351Y-85467367D02*
X103598399Y-85419747D01*
X104526971Y-84514986D02*
X104403161Y-84514986D01*
X104403161Y-84514986D02*
X104341257Y-84562605D01*
X104341257Y-84562605D02*
X104310304Y-84610224D01*
X104310304Y-84610224D02*
X104248399Y-84753081D01*
X104248399Y-84753081D02*
X104217447Y-84943557D01*
X104217447Y-84943557D02*
X104217447Y-85324509D01*
X104217447Y-85324509D02*
X104248399Y-85419747D01*
X104248399Y-85419747D02*
X104279352Y-85467367D01*
X104279352Y-85467367D02*
X104341257Y-85514986D01*
X104341257Y-85514986D02*
X104465066Y-85514986D01*
X104465066Y-85514986D02*
X104526971Y-85467367D01*
X104526971Y-85467367D02*
X104557923Y-85419747D01*
X104557923Y-85419747D02*
X104588876Y-85324509D01*
X104588876Y-85324509D02*
X104588876Y-85086414D01*
X104588876Y-85086414D02*
X104557923Y-84991176D01*
X104557923Y-84991176D02*
X104526971Y-84943557D01*
X104526971Y-84943557D02*
X104465066Y-84895938D01*
X104465066Y-84895938D02*
X104341257Y-84895938D01*
X104341257Y-84895938D02*
X104279352Y-84943557D01*
X104279352Y-84943557D02*
X104248399Y-84991176D01*
X104248399Y-84991176D02*
X104217447Y-85086414D01*
X152585186Y-104733734D02*
X152632806Y-104764686D01*
X152632806Y-104764686D02*
X152680425Y-104857544D01*
X152680425Y-104857544D02*
X152680425Y-104919448D01*
X152680425Y-104919448D02*
X152632806Y-105012305D01*
X152632806Y-105012305D02*
X152537567Y-105074210D01*
X152537567Y-105074210D02*
X152442329Y-105105163D01*
X152442329Y-105105163D02*
X152251853Y-105136115D01*
X152251853Y-105136115D02*
X152108996Y-105136115D01*
X152108996Y-105136115D02*
X151918520Y-105105163D01*
X151918520Y-105105163D02*
X151823282Y-105074210D01*
X151823282Y-105074210D02*
X151728044Y-105012305D01*
X151728044Y-105012305D02*
X151680425Y-104919448D01*
X151680425Y-104919448D02*
X151680425Y-104857544D01*
X151680425Y-104857544D02*
X151728044Y-104764686D01*
X151728044Y-104764686D02*
X151775663Y-104733734D01*
X151680425Y-104517067D02*
X151680425Y-104114686D01*
X151680425Y-104114686D02*
X152061377Y-104331353D01*
X152061377Y-104331353D02*
X152061377Y-104238496D01*
X152061377Y-104238496D02*
X152108996Y-104176591D01*
X152108996Y-104176591D02*
X152156615Y-104145639D01*
X152156615Y-104145639D02*
X152251853Y-104114686D01*
X152251853Y-104114686D02*
X152489948Y-104114686D01*
X152489948Y-104114686D02*
X152585186Y-104145639D01*
X152585186Y-104145639D02*
X152632806Y-104176591D01*
X152632806Y-104176591D02*
X152680425Y-104238496D01*
X152680425Y-104238496D02*
X152680425Y-104424210D01*
X152680425Y-104424210D02*
X152632806Y-104486115D01*
X152632806Y-104486115D02*
X152585186Y-104517067D01*
X151680425Y-103898019D02*
X151680425Y-103495638D01*
X151680425Y-103495638D02*
X152061377Y-103712305D01*
X152061377Y-103712305D02*
X152061377Y-103619448D01*
X152061377Y-103619448D02*
X152108996Y-103557543D01*
X152108996Y-103557543D02*
X152156615Y-103526591D01*
X152156615Y-103526591D02*
X152251853Y-103495638D01*
X152251853Y-103495638D02*
X152489948Y-103495638D01*
X152489948Y-103495638D02*
X152585186Y-103526591D01*
X152585186Y-103526591D02*
X152632806Y-103557543D01*
X152632806Y-103557543D02*
X152680425Y-103619448D01*
X152680425Y-103619448D02*
X152680425Y-103805162D01*
X152680425Y-103805162D02*
X152632806Y-103867067D01*
X152632806Y-103867067D02*
X152585186Y-103898019D01*
X103223301Y-79957085D02*
X104032824Y-79957085D01*
X104032824Y-79957085D02*
X104128062Y-79926132D01*
X104128062Y-79926132D02*
X104175682Y-79895180D01*
X104175682Y-79895180D02*
X104223301Y-79833275D01*
X104223301Y-79833275D02*
X104223301Y-79709466D01*
X104223301Y-79709466D02*
X104175682Y-79647561D01*
X104175682Y-79647561D02*
X104128062Y-79616608D01*
X104128062Y-79616608D02*
X104032824Y-79585656D01*
X104032824Y-79585656D02*
X103223301Y-79585656D01*
X103318539Y-79307085D02*
X103270920Y-79276133D01*
X103270920Y-79276133D02*
X103223301Y-79214228D01*
X103223301Y-79214228D02*
X103223301Y-79059466D01*
X103223301Y-79059466D02*
X103270920Y-78997561D01*
X103270920Y-78997561D02*
X103318539Y-78966609D01*
X103318539Y-78966609D02*
X103413777Y-78935656D01*
X103413777Y-78935656D02*
X103509015Y-78935656D01*
X103509015Y-78935656D02*
X103651872Y-78966609D01*
X103651872Y-78966609D02*
X104223301Y-79338037D01*
X104223301Y-79338037D02*
X104223301Y-78935656D01*
X103223301Y-78533275D02*
X103223301Y-78471370D01*
X103223301Y-78471370D02*
X103270920Y-78409466D01*
X103270920Y-78409466D02*
X103318539Y-78378513D01*
X103318539Y-78378513D02*
X103413777Y-78347561D01*
X103413777Y-78347561D02*
X103604253Y-78316608D01*
X103604253Y-78316608D02*
X103842348Y-78316608D01*
X103842348Y-78316608D02*
X104032824Y-78347561D01*
X104032824Y-78347561D02*
X104128062Y-78378513D01*
X104128062Y-78378513D02*
X104175682Y-78409466D01*
X104175682Y-78409466D02*
X104223301Y-78471370D01*
X104223301Y-78471370D02*
X104223301Y-78533275D01*
X104223301Y-78533275D02*
X104175682Y-78595180D01*
X104175682Y-78595180D02*
X104128062Y-78626132D01*
X104128062Y-78626132D02*
X104032824Y-78657085D01*
X104032824Y-78657085D02*
X103842348Y-78688037D01*
X103842348Y-78688037D02*
X103604253Y-78688037D01*
X103604253Y-78688037D02*
X103413777Y-78657085D01*
X103413777Y-78657085D02*
X103318539Y-78626132D01*
X103318539Y-78626132D02*
X103270920Y-78595180D01*
X103270920Y-78595180D02*
X103223301Y-78533275D01*
X169449554Y-65548497D02*
X169418602Y-65596117D01*
X169418602Y-65596117D02*
X169325744Y-65643736D01*
X169325744Y-65643736D02*
X169263840Y-65643736D01*
X169263840Y-65643736D02*
X169170983Y-65596117D01*
X169170983Y-65596117D02*
X169109078Y-65500878D01*
X169109078Y-65500878D02*
X169078125Y-65405640D01*
X169078125Y-65405640D02*
X169047173Y-65215164D01*
X169047173Y-65215164D02*
X169047173Y-65072307D01*
X169047173Y-65072307D02*
X169078125Y-64881831D01*
X169078125Y-64881831D02*
X169109078Y-64786593D01*
X169109078Y-64786593D02*
X169170983Y-64691355D01*
X169170983Y-64691355D02*
X169263840Y-64643736D01*
X169263840Y-64643736D02*
X169325744Y-64643736D01*
X169325744Y-64643736D02*
X169418602Y-64691355D01*
X169418602Y-64691355D02*
X169449554Y-64738974D01*
X169666221Y-64643736D02*
X170099554Y-64643736D01*
X170099554Y-64643736D02*
X169820983Y-65643736D01*
X114631580Y-75022747D02*
X114600628Y-75070367D01*
X114600628Y-75070367D02*
X114507770Y-75117986D01*
X114507770Y-75117986D02*
X114445866Y-75117986D01*
X114445866Y-75117986D02*
X114353009Y-75070367D01*
X114353009Y-75070367D02*
X114291104Y-74975128D01*
X114291104Y-74975128D02*
X114260151Y-74879890D01*
X114260151Y-74879890D02*
X114229199Y-74689414D01*
X114229199Y-74689414D02*
X114229199Y-74546557D01*
X114229199Y-74546557D02*
X114260151Y-74356081D01*
X114260151Y-74356081D02*
X114291104Y-74260843D01*
X114291104Y-74260843D02*
X114353009Y-74165605D01*
X114353009Y-74165605D02*
X114445866Y-74117986D01*
X114445866Y-74117986D02*
X114507770Y-74117986D01*
X114507770Y-74117986D02*
X114600628Y-74165605D01*
X114600628Y-74165605D02*
X114631580Y-74213224D01*
X115219675Y-74117986D02*
X114910151Y-74117986D01*
X114910151Y-74117986D02*
X114879199Y-74594176D01*
X114879199Y-74594176D02*
X114910151Y-74546557D01*
X114910151Y-74546557D02*
X114972056Y-74498938D01*
X114972056Y-74498938D02*
X115126818Y-74498938D01*
X115126818Y-74498938D02*
X115188723Y-74546557D01*
X115188723Y-74546557D02*
X115219675Y-74594176D01*
X115219675Y-74594176D02*
X115250628Y-74689414D01*
X115250628Y-74689414D02*
X115250628Y-74927509D01*
X115250628Y-74927509D02*
X115219675Y-75022747D01*
X115219675Y-75022747D02*
X115188723Y-75070367D01*
X115188723Y-75070367D02*
X115126818Y-75117986D01*
X115126818Y-75117986D02*
X114972056Y-75117986D01*
X114972056Y-75117986D02*
X114910151Y-75070367D01*
X114910151Y-75070367D02*
X114879199Y-75022747D01*
X115869676Y-75117986D02*
X115498247Y-75117986D01*
X115683961Y-75117986D02*
X115683961Y-74117986D01*
X115683961Y-74117986D02*
X115622057Y-74260843D01*
X115622057Y-74260843D02*
X115560152Y-74356081D01*
X115560152Y-74356081D02*
X115498247Y-74403700D01*
X144759542Y-102427424D02*
X144728590Y-102475044D01*
X144728590Y-102475044D02*
X144635732Y-102522663D01*
X144635732Y-102522663D02*
X144573828Y-102522663D01*
X144573828Y-102522663D02*
X144480971Y-102475044D01*
X144480971Y-102475044D02*
X144419066Y-102379805D01*
X144419066Y-102379805D02*
X144388113Y-102284567D01*
X144388113Y-102284567D02*
X144357161Y-102094091D01*
X144357161Y-102094091D02*
X144357161Y-101951234D01*
X144357161Y-101951234D02*
X144388113Y-101760758D01*
X144388113Y-101760758D02*
X144419066Y-101665520D01*
X144419066Y-101665520D02*
X144480971Y-101570282D01*
X144480971Y-101570282D02*
X144573828Y-101522663D01*
X144573828Y-101522663D02*
X144635732Y-101522663D01*
X144635732Y-101522663D02*
X144728590Y-101570282D01*
X144728590Y-101570282D02*
X144759542Y-101617901D01*
X144976209Y-101522663D02*
X145378590Y-101522663D01*
X145378590Y-101522663D02*
X145161923Y-101903615D01*
X145161923Y-101903615D02*
X145254780Y-101903615D01*
X145254780Y-101903615D02*
X145316685Y-101951234D01*
X145316685Y-101951234D02*
X145347637Y-101998853D01*
X145347637Y-101998853D02*
X145378590Y-102094091D01*
X145378590Y-102094091D02*
X145378590Y-102332186D01*
X145378590Y-102332186D02*
X145347637Y-102427424D01*
X145347637Y-102427424D02*
X145316685Y-102475044D01*
X145316685Y-102475044D02*
X145254780Y-102522663D01*
X145254780Y-102522663D02*
X145069066Y-102522663D01*
X145069066Y-102522663D02*
X145007161Y-102475044D01*
X145007161Y-102475044D02*
X144976209Y-102427424D01*
X145780971Y-101522663D02*
X145842876Y-101522663D01*
X145842876Y-101522663D02*
X145904780Y-101570282D01*
X145904780Y-101570282D02*
X145935733Y-101617901D01*
X145935733Y-101617901D02*
X145966685Y-101713139D01*
X145966685Y-101713139D02*
X145997638Y-101903615D01*
X145997638Y-101903615D02*
X145997638Y-102141710D01*
X145997638Y-102141710D02*
X145966685Y-102332186D01*
X145966685Y-102332186D02*
X145935733Y-102427424D01*
X145935733Y-102427424D02*
X145904780Y-102475044D01*
X145904780Y-102475044D02*
X145842876Y-102522663D01*
X145842876Y-102522663D02*
X145780971Y-102522663D01*
X145780971Y-102522663D02*
X145719066Y-102475044D01*
X145719066Y-102475044D02*
X145688114Y-102427424D01*
X145688114Y-102427424D02*
X145657161Y-102332186D01*
X145657161Y-102332186D02*
X145626209Y-102141710D01*
X145626209Y-102141710D02*
X145626209Y-101903615D01*
X145626209Y-101903615D02*
X145657161Y-101713139D01*
X145657161Y-101713139D02*
X145688114Y-101617901D01*
X145688114Y-101617901D02*
X145719066Y-101570282D01*
X145719066Y-101570282D02*
X145780971Y-101522663D01*
X150698063Y-106676857D02*
X150221872Y-106893524D01*
X150698063Y-107048286D02*
X149698063Y-107048286D01*
X149698063Y-107048286D02*
X149698063Y-106800667D01*
X149698063Y-106800667D02*
X149745682Y-106738762D01*
X149745682Y-106738762D02*
X149793301Y-106707809D01*
X149793301Y-106707809D02*
X149888539Y-106676857D01*
X149888539Y-106676857D02*
X150031396Y-106676857D01*
X150031396Y-106676857D02*
X150126634Y-106707809D01*
X150126634Y-106707809D02*
X150174253Y-106738762D01*
X150174253Y-106738762D02*
X150221872Y-106800667D01*
X150221872Y-106800667D02*
X150221872Y-107048286D01*
X149698063Y-106460190D02*
X149698063Y-106057809D01*
X149698063Y-106057809D02*
X150079015Y-106274476D01*
X150079015Y-106274476D02*
X150079015Y-106181619D01*
X150079015Y-106181619D02*
X150126634Y-106119714D01*
X150126634Y-106119714D02*
X150174253Y-106088762D01*
X150174253Y-106088762D02*
X150269491Y-106057809D01*
X150269491Y-106057809D02*
X150507586Y-106057809D01*
X150507586Y-106057809D02*
X150602824Y-106088762D01*
X150602824Y-106088762D02*
X150650444Y-106119714D01*
X150650444Y-106119714D02*
X150698063Y-106181619D01*
X150698063Y-106181619D02*
X150698063Y-106367333D01*
X150698063Y-106367333D02*
X150650444Y-106429238D01*
X150650444Y-106429238D02*
X150602824Y-106460190D01*
X149698063Y-105841142D02*
X149698063Y-105407809D01*
X149698063Y-105407809D02*
X150698063Y-105686380D01*
X103350780Y-81863747D02*
X103319828Y-81911367D01*
X103319828Y-81911367D02*
X103226970Y-81958986D01*
X103226970Y-81958986D02*
X103165066Y-81958986D01*
X103165066Y-81958986D02*
X103072209Y-81911367D01*
X103072209Y-81911367D02*
X103010304Y-81816128D01*
X103010304Y-81816128D02*
X102979351Y-81720890D01*
X102979351Y-81720890D02*
X102948399Y-81530414D01*
X102948399Y-81530414D02*
X102948399Y-81387557D01*
X102948399Y-81387557D02*
X102979351Y-81197081D01*
X102979351Y-81197081D02*
X103010304Y-81101843D01*
X103010304Y-81101843D02*
X103072209Y-81006605D01*
X103072209Y-81006605D02*
X103165066Y-80958986D01*
X103165066Y-80958986D02*
X103226970Y-80958986D01*
X103226970Y-80958986D02*
X103319828Y-81006605D01*
X103319828Y-81006605D02*
X103350780Y-81054224D01*
X103938875Y-80958986D02*
X103629351Y-80958986D01*
X103629351Y-80958986D02*
X103598399Y-81435176D01*
X103598399Y-81435176D02*
X103629351Y-81387557D01*
X103629351Y-81387557D02*
X103691256Y-81339938D01*
X103691256Y-81339938D02*
X103846018Y-81339938D01*
X103846018Y-81339938D02*
X103907923Y-81387557D01*
X103907923Y-81387557D02*
X103938875Y-81435176D01*
X103938875Y-81435176D02*
X103969828Y-81530414D01*
X103969828Y-81530414D02*
X103969828Y-81768509D01*
X103969828Y-81768509D02*
X103938875Y-81863747D01*
X103938875Y-81863747D02*
X103907923Y-81911367D01*
X103907923Y-81911367D02*
X103846018Y-81958986D01*
X103846018Y-81958986D02*
X103691256Y-81958986D01*
X103691256Y-81958986D02*
X103629351Y-81911367D01*
X103629351Y-81911367D02*
X103598399Y-81863747D01*
X104341257Y-81387557D02*
X104279352Y-81339938D01*
X104279352Y-81339938D02*
X104248399Y-81292319D01*
X104248399Y-81292319D02*
X104217447Y-81197081D01*
X104217447Y-81197081D02*
X104217447Y-81149462D01*
X104217447Y-81149462D02*
X104248399Y-81054224D01*
X104248399Y-81054224D02*
X104279352Y-81006605D01*
X104279352Y-81006605D02*
X104341257Y-80958986D01*
X104341257Y-80958986D02*
X104465066Y-80958986D01*
X104465066Y-80958986D02*
X104526971Y-81006605D01*
X104526971Y-81006605D02*
X104557923Y-81054224D01*
X104557923Y-81054224D02*
X104588876Y-81149462D01*
X104588876Y-81149462D02*
X104588876Y-81197081D01*
X104588876Y-81197081D02*
X104557923Y-81292319D01*
X104557923Y-81292319D02*
X104526971Y-81339938D01*
X104526971Y-81339938D02*
X104465066Y-81387557D01*
X104465066Y-81387557D02*
X104341257Y-81387557D01*
X104341257Y-81387557D02*
X104279352Y-81435176D01*
X104279352Y-81435176D02*
X104248399Y-81482795D01*
X104248399Y-81482795D02*
X104217447Y-81578033D01*
X104217447Y-81578033D02*
X104217447Y-81768509D01*
X104217447Y-81768509D02*
X104248399Y-81863747D01*
X104248399Y-81863747D02*
X104279352Y-81911367D01*
X104279352Y-81911367D02*
X104341257Y-81958986D01*
X104341257Y-81958986D02*
X104465066Y-81958986D01*
X104465066Y-81958986D02*
X104526971Y-81911367D01*
X104526971Y-81911367D02*
X104557923Y-81863747D01*
X104557923Y-81863747D02*
X104588876Y-81768509D01*
X104588876Y-81768509D02*
X104588876Y-81578033D01*
X104588876Y-81578033D02*
X104557923Y-81482795D01*
X104557923Y-81482795D02*
X104526971Y-81435176D01*
X104526971Y-81435176D02*
X104465066Y-81387557D01*
X108738780Y-69782747D02*
X108707828Y-69830367D01*
X108707828Y-69830367D02*
X108614970Y-69877986D01*
X108614970Y-69877986D02*
X108553066Y-69877986D01*
X108553066Y-69877986D02*
X108460209Y-69830367D01*
X108460209Y-69830367D02*
X108398304Y-69735128D01*
X108398304Y-69735128D02*
X108367351Y-69639890D01*
X108367351Y-69639890D02*
X108336399Y-69449414D01*
X108336399Y-69449414D02*
X108336399Y-69306557D01*
X108336399Y-69306557D02*
X108367351Y-69116081D01*
X108367351Y-69116081D02*
X108398304Y-69020843D01*
X108398304Y-69020843D02*
X108460209Y-68925605D01*
X108460209Y-68925605D02*
X108553066Y-68877986D01*
X108553066Y-68877986D02*
X108614970Y-68877986D01*
X108614970Y-68877986D02*
X108707828Y-68925605D01*
X108707828Y-68925605D02*
X108738780Y-68973224D01*
X109295923Y-69211319D02*
X109295923Y-69877986D01*
X109141161Y-68830367D02*
X108986399Y-69544652D01*
X108986399Y-69544652D02*
X109388780Y-69544652D01*
X109574495Y-68877986D02*
X110007828Y-68877986D01*
X110007828Y-68877986D02*
X109729257Y-69877986D01*
X140077304Y-79849986D02*
X139860637Y-79373795D01*
X139705875Y-79849986D02*
X139705875Y-78849986D01*
X139705875Y-78849986D02*
X139953494Y-78849986D01*
X139953494Y-78849986D02*
X140015399Y-78897605D01*
X140015399Y-78897605D02*
X140046352Y-78945224D01*
X140046352Y-78945224D02*
X140077304Y-79040462D01*
X140077304Y-79040462D02*
X140077304Y-79183319D01*
X140077304Y-79183319D02*
X140046352Y-79278557D01*
X140046352Y-79278557D02*
X140015399Y-79326176D01*
X140015399Y-79326176D02*
X139953494Y-79373795D01*
X139953494Y-79373795D02*
X139705875Y-79373795D01*
X140634447Y-78849986D02*
X140510637Y-78849986D01*
X140510637Y-78849986D02*
X140448733Y-78897605D01*
X140448733Y-78897605D02*
X140417780Y-78945224D01*
X140417780Y-78945224D02*
X140355875Y-79088081D01*
X140355875Y-79088081D02*
X140324923Y-79278557D01*
X140324923Y-79278557D02*
X140324923Y-79659509D01*
X140324923Y-79659509D02*
X140355875Y-79754747D01*
X140355875Y-79754747D02*
X140386828Y-79802367D01*
X140386828Y-79802367D02*
X140448733Y-79849986D01*
X140448733Y-79849986D02*
X140572542Y-79849986D01*
X140572542Y-79849986D02*
X140634447Y-79802367D01*
X140634447Y-79802367D02*
X140665399Y-79754747D01*
X140665399Y-79754747D02*
X140696352Y-79659509D01*
X140696352Y-79659509D02*
X140696352Y-79421414D01*
X140696352Y-79421414D02*
X140665399Y-79326176D01*
X140665399Y-79326176D02*
X140634447Y-79278557D01*
X140634447Y-79278557D02*
X140572542Y-79230938D01*
X140572542Y-79230938D02*
X140448733Y-79230938D01*
X140448733Y-79230938D02*
X140386828Y-79278557D01*
X140386828Y-79278557D02*
X140355875Y-79326176D01*
X140355875Y-79326176D02*
X140324923Y-79421414D01*
X156824542Y-96966424D02*
X156793590Y-97014044D01*
X156793590Y-97014044D02*
X156700732Y-97061663D01*
X156700732Y-97061663D02*
X156638828Y-97061663D01*
X156638828Y-97061663D02*
X156545971Y-97014044D01*
X156545971Y-97014044D02*
X156484066Y-96918805D01*
X156484066Y-96918805D02*
X156453113Y-96823567D01*
X156453113Y-96823567D02*
X156422161Y-96633091D01*
X156422161Y-96633091D02*
X156422161Y-96490234D01*
X156422161Y-96490234D02*
X156453113Y-96299758D01*
X156453113Y-96299758D02*
X156484066Y-96204520D01*
X156484066Y-96204520D02*
X156545971Y-96109282D01*
X156545971Y-96109282D02*
X156638828Y-96061663D01*
X156638828Y-96061663D02*
X156700732Y-96061663D01*
X156700732Y-96061663D02*
X156793590Y-96109282D01*
X156793590Y-96109282D02*
X156824542Y-96156901D01*
X157041209Y-96061663D02*
X157443590Y-96061663D01*
X157443590Y-96061663D02*
X157226923Y-96442615D01*
X157226923Y-96442615D02*
X157319780Y-96442615D01*
X157319780Y-96442615D02*
X157381685Y-96490234D01*
X157381685Y-96490234D02*
X157412637Y-96537853D01*
X157412637Y-96537853D02*
X157443590Y-96633091D01*
X157443590Y-96633091D02*
X157443590Y-96871186D01*
X157443590Y-96871186D02*
X157412637Y-96966424D01*
X157412637Y-96966424D02*
X157381685Y-97014044D01*
X157381685Y-97014044D02*
X157319780Y-97061663D01*
X157319780Y-97061663D02*
X157134066Y-97061663D01*
X157134066Y-97061663D02*
X157072161Y-97014044D01*
X157072161Y-97014044D02*
X157041209Y-96966424D01*
X157691209Y-96156901D02*
X157722161Y-96109282D01*
X157722161Y-96109282D02*
X157784066Y-96061663D01*
X157784066Y-96061663D02*
X157938828Y-96061663D01*
X157938828Y-96061663D02*
X158000733Y-96109282D01*
X158000733Y-96109282D02*
X158031685Y-96156901D01*
X158031685Y-96156901D02*
X158062638Y-96252139D01*
X158062638Y-96252139D02*
X158062638Y-96347377D01*
X158062638Y-96347377D02*
X158031685Y-96490234D01*
X158031685Y-96490234D02*
X157660257Y-97061663D01*
X157660257Y-97061663D02*
X158062638Y-97061663D01*
X103350780Y-83641747D02*
X103319828Y-83689367D01*
X103319828Y-83689367D02*
X103226970Y-83736986D01*
X103226970Y-83736986D02*
X103165066Y-83736986D01*
X103165066Y-83736986D02*
X103072209Y-83689367D01*
X103072209Y-83689367D02*
X103010304Y-83594128D01*
X103010304Y-83594128D02*
X102979351Y-83498890D01*
X102979351Y-83498890D02*
X102948399Y-83308414D01*
X102948399Y-83308414D02*
X102948399Y-83165557D01*
X102948399Y-83165557D02*
X102979351Y-82975081D01*
X102979351Y-82975081D02*
X103010304Y-82879843D01*
X103010304Y-82879843D02*
X103072209Y-82784605D01*
X103072209Y-82784605D02*
X103165066Y-82736986D01*
X103165066Y-82736986D02*
X103226970Y-82736986D01*
X103226970Y-82736986D02*
X103319828Y-82784605D01*
X103319828Y-82784605D02*
X103350780Y-82832224D01*
X103938875Y-82736986D02*
X103629351Y-82736986D01*
X103629351Y-82736986D02*
X103598399Y-83213176D01*
X103598399Y-83213176D02*
X103629351Y-83165557D01*
X103629351Y-83165557D02*
X103691256Y-83117938D01*
X103691256Y-83117938D02*
X103846018Y-83117938D01*
X103846018Y-83117938D02*
X103907923Y-83165557D01*
X103907923Y-83165557D02*
X103938875Y-83213176D01*
X103938875Y-83213176D02*
X103969828Y-83308414D01*
X103969828Y-83308414D02*
X103969828Y-83546509D01*
X103969828Y-83546509D02*
X103938875Y-83641747D01*
X103938875Y-83641747D02*
X103907923Y-83689367D01*
X103907923Y-83689367D02*
X103846018Y-83736986D01*
X103846018Y-83736986D02*
X103691256Y-83736986D01*
X103691256Y-83736986D02*
X103629351Y-83689367D01*
X103629351Y-83689367D02*
X103598399Y-83641747D01*
X104186495Y-82736986D02*
X104619828Y-82736986D01*
X104619828Y-82736986D02*
X104341257Y-83736986D01*
X153522542Y-99220663D02*
X153305875Y-98744472D01*
X153151113Y-99220663D02*
X153151113Y-98220663D01*
X153151113Y-98220663D02*
X153398732Y-98220663D01*
X153398732Y-98220663D02*
X153460637Y-98268282D01*
X153460637Y-98268282D02*
X153491590Y-98315901D01*
X153491590Y-98315901D02*
X153522542Y-98411139D01*
X153522542Y-98411139D02*
X153522542Y-98553996D01*
X153522542Y-98553996D02*
X153491590Y-98649234D01*
X153491590Y-98649234D02*
X153460637Y-98696853D01*
X153460637Y-98696853D02*
X153398732Y-98744472D01*
X153398732Y-98744472D02*
X153151113Y-98744472D01*
X153739209Y-98220663D02*
X154141590Y-98220663D01*
X154141590Y-98220663D02*
X153924923Y-98601615D01*
X153924923Y-98601615D02*
X154017780Y-98601615D01*
X154017780Y-98601615D02*
X154079685Y-98649234D01*
X154079685Y-98649234D02*
X154110637Y-98696853D01*
X154110637Y-98696853D02*
X154141590Y-98792091D01*
X154141590Y-98792091D02*
X154141590Y-99030186D01*
X154141590Y-99030186D02*
X154110637Y-99125424D01*
X154110637Y-99125424D02*
X154079685Y-99173044D01*
X154079685Y-99173044D02*
X154017780Y-99220663D01*
X154017780Y-99220663D02*
X153832066Y-99220663D01*
X153832066Y-99220663D02*
X153770161Y-99173044D01*
X153770161Y-99173044D02*
X153739209Y-99125424D01*
X154451114Y-99220663D02*
X154574923Y-99220663D01*
X154574923Y-99220663D02*
X154636828Y-99173044D01*
X154636828Y-99173044D02*
X154667780Y-99125424D01*
X154667780Y-99125424D02*
X154729685Y-98982567D01*
X154729685Y-98982567D02*
X154760638Y-98792091D01*
X154760638Y-98792091D02*
X154760638Y-98411139D01*
X154760638Y-98411139D02*
X154729685Y-98315901D01*
X154729685Y-98315901D02*
X154698733Y-98268282D01*
X154698733Y-98268282D02*
X154636828Y-98220663D01*
X154636828Y-98220663D02*
X154513019Y-98220663D01*
X154513019Y-98220663D02*
X154451114Y-98268282D01*
X154451114Y-98268282D02*
X154420161Y-98315901D01*
X154420161Y-98315901D02*
X154389209Y-98411139D01*
X154389209Y-98411139D02*
X154389209Y-98649234D01*
X154389209Y-98649234D02*
X154420161Y-98744472D01*
X154420161Y-98744472D02*
X154451114Y-98792091D01*
X154451114Y-98792091D02*
X154513019Y-98839710D01*
X154513019Y-98839710D02*
X154636828Y-98839710D01*
X154636828Y-98839710D02*
X154698733Y-98792091D01*
X154698733Y-98792091D02*
X154729685Y-98744472D01*
X154729685Y-98744472D02*
X154760638Y-98649234D01*
X154268063Y-106295857D02*
X153791872Y-106512524D01*
X154268063Y-106667286D02*
X153268063Y-106667286D01*
X153268063Y-106667286D02*
X153268063Y-106419667D01*
X153268063Y-106419667D02*
X153315682Y-106357762D01*
X153315682Y-106357762D02*
X153363301Y-106326809D01*
X153363301Y-106326809D02*
X153458539Y-106295857D01*
X153458539Y-106295857D02*
X153601396Y-106295857D01*
X153601396Y-106295857D02*
X153696634Y-106326809D01*
X153696634Y-106326809D02*
X153744253Y-106357762D01*
X153744253Y-106357762D02*
X153791872Y-106419667D01*
X153791872Y-106419667D02*
X153791872Y-106667286D01*
X153268063Y-106079190D02*
X153268063Y-105676809D01*
X153268063Y-105676809D02*
X153649015Y-105893476D01*
X153649015Y-105893476D02*
X153649015Y-105800619D01*
X153649015Y-105800619D02*
X153696634Y-105738714D01*
X153696634Y-105738714D02*
X153744253Y-105707762D01*
X153744253Y-105707762D02*
X153839491Y-105676809D01*
X153839491Y-105676809D02*
X154077586Y-105676809D01*
X154077586Y-105676809D02*
X154172824Y-105707762D01*
X154172824Y-105707762D02*
X154220444Y-105738714D01*
X154220444Y-105738714D02*
X154268063Y-105800619D01*
X154268063Y-105800619D02*
X154268063Y-105986333D01*
X154268063Y-105986333D02*
X154220444Y-106048238D01*
X154220444Y-106048238D02*
X154172824Y-106079190D01*
X153268063Y-105088714D02*
X153268063Y-105398238D01*
X153268063Y-105398238D02*
X153744253Y-105429190D01*
X153744253Y-105429190D02*
X153696634Y-105398238D01*
X153696634Y-105398238D02*
X153649015Y-105336333D01*
X153649015Y-105336333D02*
X153649015Y-105181571D01*
X153649015Y-105181571D02*
X153696634Y-105119666D01*
X153696634Y-105119666D02*
X153744253Y-105088714D01*
X153744253Y-105088714D02*
X153839491Y-105057761D01*
X153839491Y-105057761D02*
X154077586Y-105057761D01*
X154077586Y-105057761D02*
X154172824Y-105088714D01*
X154172824Y-105088714D02*
X154220444Y-105119666D01*
X154220444Y-105119666D02*
X154268063Y-105181571D01*
X154268063Y-105181571D02*
X154268063Y-105336333D01*
X154268063Y-105336333D02*
X154220444Y-105398238D01*
X154220444Y-105398238D02*
X154172824Y-105429190D01*
X107160780Y-65194986D02*
X106944113Y-64718795D01*
X106789351Y-65194986D02*
X106789351Y-64194986D01*
X106789351Y-64194986D02*
X107036970Y-64194986D01*
X107036970Y-64194986D02*
X107098875Y-64242605D01*
X107098875Y-64242605D02*
X107129828Y-64290224D01*
X107129828Y-64290224D02*
X107160780Y-64385462D01*
X107160780Y-64385462D02*
X107160780Y-64528319D01*
X107160780Y-64528319D02*
X107129828Y-64623557D01*
X107129828Y-64623557D02*
X107098875Y-64671176D01*
X107098875Y-64671176D02*
X107036970Y-64718795D01*
X107036970Y-64718795D02*
X106789351Y-64718795D01*
X107748875Y-64194986D02*
X107439351Y-64194986D01*
X107439351Y-64194986D02*
X107408399Y-64671176D01*
X107408399Y-64671176D02*
X107439351Y-64623557D01*
X107439351Y-64623557D02*
X107501256Y-64575938D01*
X107501256Y-64575938D02*
X107656018Y-64575938D01*
X107656018Y-64575938D02*
X107717923Y-64623557D01*
X107717923Y-64623557D02*
X107748875Y-64671176D01*
X107748875Y-64671176D02*
X107779828Y-64766414D01*
X107779828Y-64766414D02*
X107779828Y-65004509D01*
X107779828Y-65004509D02*
X107748875Y-65099747D01*
X107748875Y-65099747D02*
X107717923Y-65147367D01*
X107717923Y-65147367D02*
X107656018Y-65194986D01*
X107656018Y-65194986D02*
X107501256Y-65194986D01*
X107501256Y-65194986D02*
X107439351Y-65147367D01*
X107439351Y-65147367D02*
X107408399Y-65099747D01*
X108398876Y-65194986D02*
X108027447Y-65194986D01*
X108213161Y-65194986D02*
X108213161Y-64194986D01*
X108213161Y-64194986D02*
X108151257Y-64337843D01*
X108151257Y-64337843D02*
X108089352Y-64433081D01*
X108089352Y-64433081D02*
X108027447Y-64480700D01*
X146076780Y-72831986D02*
X145860113Y-72355795D01*
X145705351Y-72831986D02*
X145705351Y-71831986D01*
X145705351Y-71831986D02*
X145952970Y-71831986D01*
X145952970Y-71831986D02*
X146014875Y-71879605D01*
X146014875Y-71879605D02*
X146045828Y-71927224D01*
X146045828Y-71927224D02*
X146076780Y-72022462D01*
X146076780Y-72022462D02*
X146076780Y-72165319D01*
X146076780Y-72165319D02*
X146045828Y-72260557D01*
X146045828Y-72260557D02*
X146014875Y-72308176D01*
X146014875Y-72308176D02*
X145952970Y-72355795D01*
X145952970Y-72355795D02*
X145705351Y-72355795D01*
X146695828Y-72831986D02*
X146324399Y-72831986D01*
X146510113Y-72831986D02*
X146510113Y-71831986D01*
X146510113Y-71831986D02*
X146448209Y-71974843D01*
X146448209Y-71974843D02*
X146386304Y-72070081D01*
X146386304Y-72070081D02*
X146324399Y-72117700D01*
X147252971Y-71831986D02*
X147129161Y-71831986D01*
X147129161Y-71831986D02*
X147067257Y-71879605D01*
X147067257Y-71879605D02*
X147036304Y-71927224D01*
X147036304Y-71927224D02*
X146974399Y-72070081D01*
X146974399Y-72070081D02*
X146943447Y-72260557D01*
X146943447Y-72260557D02*
X146943447Y-72641509D01*
X146943447Y-72641509D02*
X146974399Y-72736747D01*
X146974399Y-72736747D02*
X147005352Y-72784367D01*
X147005352Y-72784367D02*
X147067257Y-72831986D01*
X147067257Y-72831986D02*
X147191066Y-72831986D01*
X147191066Y-72831986D02*
X147252971Y-72784367D01*
X147252971Y-72784367D02*
X147283923Y-72736747D01*
X147283923Y-72736747D02*
X147314876Y-72641509D01*
X147314876Y-72641509D02*
X147314876Y-72403414D01*
X147314876Y-72403414D02*
X147283923Y-72308176D01*
X147283923Y-72308176D02*
X147252971Y-72260557D01*
X147252971Y-72260557D02*
X147191066Y-72212938D01*
X147191066Y-72212938D02*
X147067257Y-72212938D01*
X147067257Y-72212938D02*
X147005352Y-72260557D01*
X147005352Y-72260557D02*
X146974399Y-72308176D01*
X146974399Y-72308176D02*
X146943447Y-72403414D01*
X165516066Y-92362663D02*
X165299399Y-91886472D01*
X165144637Y-92362663D02*
X165144637Y-91362663D01*
X165144637Y-91362663D02*
X165392256Y-91362663D01*
X165392256Y-91362663D02*
X165454161Y-91410282D01*
X165454161Y-91410282D02*
X165485114Y-91457901D01*
X165485114Y-91457901D02*
X165516066Y-91553139D01*
X165516066Y-91553139D02*
X165516066Y-91695996D01*
X165516066Y-91695996D02*
X165485114Y-91791234D01*
X165485114Y-91791234D02*
X165454161Y-91838853D01*
X165454161Y-91838853D02*
X165392256Y-91886472D01*
X165392256Y-91886472D02*
X165144637Y-91886472D01*
X165825590Y-92362663D02*
X165949399Y-92362663D01*
X165949399Y-92362663D02*
X166011304Y-92315044D01*
X166011304Y-92315044D02*
X166042256Y-92267424D01*
X166042256Y-92267424D02*
X166104161Y-92124567D01*
X166104161Y-92124567D02*
X166135114Y-91934091D01*
X166135114Y-91934091D02*
X166135114Y-91553139D01*
X166135114Y-91553139D02*
X166104161Y-91457901D01*
X166104161Y-91457901D02*
X166073209Y-91410282D01*
X166073209Y-91410282D02*
X166011304Y-91362663D01*
X166011304Y-91362663D02*
X165887495Y-91362663D01*
X165887495Y-91362663D02*
X165825590Y-91410282D01*
X165825590Y-91410282D02*
X165794637Y-91457901D01*
X165794637Y-91457901D02*
X165763685Y-91553139D01*
X165763685Y-91553139D02*
X165763685Y-91791234D01*
X165763685Y-91791234D02*
X165794637Y-91886472D01*
X165794637Y-91886472D02*
X165825590Y-91934091D01*
X165825590Y-91934091D02*
X165887495Y-91981710D01*
X165887495Y-91981710D02*
X166011304Y-91981710D01*
X166011304Y-91981710D02*
X166073209Y-91934091D01*
X166073209Y-91934091D02*
X166104161Y-91886472D01*
X166104161Y-91886472D02*
X166135114Y-91791234D01*
X161159828Y-96394901D02*
X161128876Y-96442521D01*
X161128876Y-96442521D02*
X161036018Y-96490140D01*
X161036018Y-96490140D02*
X160974114Y-96490140D01*
X160974114Y-96490140D02*
X160881257Y-96442521D01*
X160881257Y-96442521D02*
X160819352Y-96347282D01*
X160819352Y-96347282D02*
X160788399Y-96252044D01*
X160788399Y-96252044D02*
X160757447Y-96061568D01*
X160757447Y-96061568D02*
X160757447Y-95918711D01*
X160757447Y-95918711D02*
X160788399Y-95728235D01*
X160788399Y-95728235D02*
X160819352Y-95632997D01*
X160819352Y-95632997D02*
X160881257Y-95537759D01*
X160881257Y-95537759D02*
X160974114Y-95490140D01*
X160974114Y-95490140D02*
X161036018Y-95490140D01*
X161036018Y-95490140D02*
X161128876Y-95537759D01*
X161128876Y-95537759D02*
X161159828Y-95585378D01*
X161716971Y-95823473D02*
X161716971Y-96490140D01*
X161562209Y-95442521D02*
X161407447Y-96156806D01*
X161407447Y-96156806D02*
X161809828Y-96156806D01*
X161752495Y-108794901D02*
X161690590Y-108747282D01*
X161690590Y-108747282D02*
X161628685Y-108652044D01*
X161628685Y-108652044D02*
X161535828Y-108509186D01*
X161535828Y-108509186D02*
X161473923Y-108461567D01*
X161473923Y-108461567D02*
X161412019Y-108461567D01*
X161442971Y-108699663D02*
X161381066Y-108652044D01*
X161381066Y-108652044D02*
X161319161Y-108556805D01*
X161319161Y-108556805D02*
X161288209Y-108366329D01*
X161288209Y-108366329D02*
X161288209Y-108032996D01*
X161288209Y-108032996D02*
X161319161Y-107842520D01*
X161319161Y-107842520D02*
X161381066Y-107747282D01*
X161381066Y-107747282D02*
X161442971Y-107699663D01*
X161442971Y-107699663D02*
X161566780Y-107699663D01*
X161566780Y-107699663D02*
X161628685Y-107747282D01*
X161628685Y-107747282D02*
X161690590Y-107842520D01*
X161690590Y-107842520D02*
X161721542Y-108032996D01*
X161721542Y-108032996D02*
X161721542Y-108366329D01*
X161721542Y-108366329D02*
X161690590Y-108556805D01*
X161690590Y-108556805D02*
X161628685Y-108652044D01*
X161628685Y-108652044D02*
X161566780Y-108699663D01*
X161566780Y-108699663D02*
X161442971Y-108699663D01*
X162031066Y-108699663D02*
X162154875Y-108699663D01*
X162154875Y-108699663D02*
X162216780Y-108652044D01*
X162216780Y-108652044D02*
X162247732Y-108604424D01*
X162247732Y-108604424D02*
X162309637Y-108461567D01*
X162309637Y-108461567D02*
X162340590Y-108271091D01*
X162340590Y-108271091D02*
X162340590Y-107890139D01*
X162340590Y-107890139D02*
X162309637Y-107794901D01*
X162309637Y-107794901D02*
X162278685Y-107747282D01*
X162278685Y-107747282D02*
X162216780Y-107699663D01*
X162216780Y-107699663D02*
X162092971Y-107699663D01*
X162092971Y-107699663D02*
X162031066Y-107747282D01*
X162031066Y-107747282D02*
X162000113Y-107794901D01*
X162000113Y-107794901D02*
X161969161Y-107890139D01*
X161969161Y-107890139D02*
X161969161Y-108128234D01*
X161969161Y-108128234D02*
X162000113Y-108223472D01*
X162000113Y-108223472D02*
X162031066Y-108271091D01*
X162031066Y-108271091D02*
X162092971Y-108318710D01*
X162092971Y-108318710D02*
X162216780Y-108318710D01*
X162216780Y-108318710D02*
X162278685Y-108271091D01*
X162278685Y-108271091D02*
X162309637Y-108223472D01*
X162309637Y-108223472D02*
X162340590Y-108128234D01*
X157243504Y-98369740D02*
X157026837Y-97893549D01*
X156872075Y-98369740D02*
X156872075Y-97369740D01*
X156872075Y-97369740D02*
X157119694Y-97369740D01*
X157119694Y-97369740D02*
X157181599Y-97417359D01*
X157181599Y-97417359D02*
X157212552Y-97464978D01*
X157212552Y-97464978D02*
X157243504Y-97560216D01*
X157243504Y-97560216D02*
X157243504Y-97703073D01*
X157243504Y-97703073D02*
X157212552Y-97798311D01*
X157212552Y-97798311D02*
X157181599Y-97845930D01*
X157181599Y-97845930D02*
X157119694Y-97893549D01*
X157119694Y-97893549D02*
X156872075Y-97893549D01*
X157862552Y-98369740D02*
X157491123Y-98369740D01*
X157676837Y-98369740D02*
X157676837Y-97369740D01*
X157676837Y-97369740D02*
X157614933Y-97512597D01*
X157614933Y-97512597D02*
X157553028Y-97607835D01*
X157553028Y-97607835D02*
X157491123Y-97655454D01*
X158419695Y-97703073D02*
X158419695Y-98369740D01*
X158264933Y-97322121D02*
X158110171Y-98036406D01*
X158110171Y-98036406D02*
X158512552Y-98036406D01*
D12*
%TO.C,U4*%
X167426400Y-97855000D02*
X167426400Y-97680000D01*
X164076400Y-97855000D02*
X164076400Y-97605000D01*
X164076400Y-94505000D02*
X164076400Y-94755000D01*
X167426400Y-94505000D02*
X167426400Y-94755000D01*
X167426400Y-97855000D02*
X164076400Y-97855000D01*
X167426400Y-94505000D02*
X164076400Y-94505000D01*
X167426400Y-97680000D02*
X168676400Y-97680000D01*
D10*
%TO.C,J2*%
X160833638Y-50003323D02*
X160833638Y-61903323D01*
X159383638Y-64003323D02*
X159383638Y-61903323D01*
X159383638Y-61903323D02*
X160833638Y-61903323D01*
X148313638Y-64003323D02*
X159383638Y-64003323D01*
X148313638Y-64003323D02*
X148313638Y-61903323D01*
X146863638Y-61903323D02*
X148313638Y-61903323D01*
X146863638Y-50003323D02*
X160833638Y-50003323D01*
X146863638Y-50003323D02*
X146863638Y-61903323D01*
X146633638Y-49768323D02*
X149133638Y-49768323D01*
X146633638Y-49768323D02*
X146633638Y-52268323D01*
%TO.C,J9*%
X162420400Y-122264000D02*
X162420400Y-119764000D01*
X162420400Y-122264000D02*
X159920400Y-122264000D01*
X162190400Y-122029000D02*
X162190400Y-110129000D01*
X162190400Y-122029000D02*
X143180400Y-122029000D01*
X162190400Y-110129000D02*
X160740400Y-110129000D01*
X160740400Y-108029000D02*
X160740400Y-110129000D01*
X160740400Y-108029000D02*
X144630400Y-108029000D01*
X144630400Y-110129000D02*
X143180400Y-110129000D01*
X144630400Y-108029000D02*
X144630400Y-110129000D01*
X143180400Y-122029000D02*
X143180400Y-110129000D01*
%TO.C,J11*%
X96146800Y-83697800D02*
X87016800Y-83697800D01*
X96146800Y-58327800D02*
X96146800Y-83697800D01*
X87016800Y-83697800D02*
X86016800Y-82697800D01*
X87016800Y-58327800D02*
X96146800Y-58327800D01*
X86016800Y-82697800D02*
X86016800Y-59327800D01*
X86016800Y-59327800D02*
X87016800Y-58327800D01*
%TO.C,J12*%
X201834000Y-94985000D02*
X200834000Y-95985000D01*
X201834000Y-80615000D02*
X201834000Y-94985000D01*
X200834000Y-95985000D02*
X191704000Y-95985000D01*
X200834000Y-79615000D02*
X201834000Y-80615000D01*
X191704000Y-95985000D02*
X191704000Y-79615000D01*
X191704000Y-79615000D02*
X200834000Y-79615000D01*
%TO.C,J13*%
X113425638Y-49679323D02*
X113425638Y-61579323D01*
X111975638Y-63679323D02*
X111975638Y-61579323D01*
X111975638Y-61579323D02*
X113425638Y-61579323D01*
X105975638Y-63679323D02*
X111975638Y-63679323D01*
X105975638Y-63679323D02*
X105975638Y-61579323D01*
X104525638Y-61579323D02*
X105975638Y-61579323D01*
X104525638Y-49679323D02*
X113425638Y-49679323D01*
X104525638Y-49679323D02*
X104525638Y-61579323D01*
X104145638Y-49444323D02*
X106645638Y-49444323D01*
X104145638Y-49444323D02*
X104145638Y-51944323D01*
D12*
%TO.C,U2*%
X174331638Y-77278073D02*
X174331638Y-77028073D01*
X174331638Y-73928073D02*
X174331638Y-74178073D01*
X170981638Y-77278073D02*
X174331638Y-77278073D01*
X170981638Y-77278073D02*
X170981638Y-77028073D01*
X170981638Y-74103073D02*
X169731638Y-74103073D01*
X170981638Y-73928073D02*
X174331638Y-73928073D01*
X170981638Y-73928073D02*
X170981638Y-74103073D01*
D10*
%TO.C,R17*%
X173763859Y-72299073D02*
X174089417Y-72299073D01*
X173763859Y-73319073D02*
X174089417Y-73319073D01*
D12*
%TO.C,C36*%
X149774800Y-99401000D02*
X149774800Y-100036000D01*
X149774800Y-102703000D02*
X149774800Y-102068000D01*
X151248000Y-99401000D02*
X149774800Y-99401000D01*
X151248000Y-100036000D02*
X151248000Y-99401000D01*
X151248000Y-102068000D02*
X151248000Y-102703000D01*
X151248000Y-102703000D02*
X149774800Y-102703000D01*
D10*
%TO.C,R11*%
X150848417Y-71994323D02*
X150522859Y-71994323D01*
X150848417Y-73014323D02*
X150522859Y-73014323D01*
%TO.C,R21*%
X132107859Y-64755323D02*
X132433417Y-64755323D01*
X132107859Y-65775323D02*
X132433417Y-65775323D01*
%TO.C,R53*%
X116593638Y-75825102D02*
X116593638Y-75499544D01*
X117613638Y-75825102D02*
X117613638Y-75499544D01*
D12*
%TO.C,C35*%
X151552800Y-92035000D02*
X151552800Y-92670000D01*
X151552800Y-95337000D02*
X151552800Y-94702000D01*
X153026000Y-92035000D02*
X151552800Y-92035000D01*
X153026000Y-92670000D02*
X153026000Y-92035000D01*
X153026000Y-94702000D02*
X153026000Y-95337000D01*
X153026000Y-95337000D02*
X151552800Y-95337000D01*
%TO.C,C1*%
X146634200Y-73533000D02*
X146634200Y-75006200D01*
X146634200Y-75006200D02*
X147269200Y-75006200D01*
X147269200Y-73533000D02*
X146634200Y-73533000D01*
X149301200Y-73533000D02*
X149936200Y-73533000D01*
X149936200Y-73533000D02*
X149936200Y-75006200D01*
X149936200Y-75006200D02*
X149301200Y-75006200D01*
D10*
%TO.C,R49*%
X113091638Y-66952102D02*
X113091638Y-66626544D01*
X114111638Y-66952102D02*
X114111638Y-66626544D01*
%TO.C,U19*%
X123126638Y-80612323D02*
X121176638Y-80612323D01*
X123126638Y-80612323D02*
X125076638Y-80612323D01*
X123126638Y-85732323D02*
X121176638Y-85732323D01*
X123126638Y-85732323D02*
X125076638Y-85732323D01*
X120426638Y-80707323D02*
X120186638Y-80377323D01*
X120666638Y-80377323D01*
X120426638Y-80707323D01*
G36*
X120426638Y-80707323D02*
G01*
X120186638Y-80377323D01*
X120666638Y-80377323D01*
X120426638Y-80707323D01*
G37*
%TO.C,U18*%
X109232638Y-84293323D02*
X109232638Y-87893323D01*
X109244160Y-84254845D02*
G75*
G02*
X113682639Y-86093323I1838478J-1838478D01*
G01*
X113682638Y-86093323D02*
G75*
G02*
X109244160Y-87931801I-2600000J0D01*
G01*
D12*
%TO.C,C14*%
X154749638Y-64401723D02*
X154749638Y-65874923D01*
X154749638Y-65874923D02*
X155384638Y-65874923D01*
X155384638Y-64401723D02*
X154749638Y-64401723D01*
X157416638Y-64401723D02*
X158051638Y-64401723D01*
X158051638Y-64401723D02*
X158051638Y-65874923D01*
X158051638Y-65874923D02*
X157416638Y-65874923D01*
D10*
%TO.C,U7*%
X164203888Y-69888073D02*
X164203888Y-67938073D01*
X164203888Y-69888073D02*
X164203888Y-71838073D01*
X169323888Y-69888073D02*
X169323888Y-66438073D01*
X169323888Y-69888073D02*
X169323888Y-71838073D01*
%TO.C,R1*%
X138532638Y-75516544D02*
X138532638Y-75842102D01*
X139552638Y-75516544D02*
X139552638Y-75842102D01*
%TO.C,D1*%
X126342638Y-70003323D02*
X126342638Y-71703323D01*
X126342638Y-70003323D02*
X129002638Y-70003323D01*
X126342638Y-71703323D02*
X129002638Y-71703323D01*
D12*
%TO.C,C31*%
X152797400Y-99807400D02*
X153432400Y-99807400D01*
X152797400Y-101280600D02*
X152797400Y-99807400D01*
X153432400Y-101280600D02*
X152797400Y-101280600D01*
X155464400Y-101280600D02*
X156099400Y-101280600D01*
X156099400Y-99807400D02*
X155464400Y-99807400D01*
X156099400Y-101280600D02*
X156099400Y-99807400D01*
%TO.C,C11*%
X162344288Y-66459073D02*
X162344288Y-67094073D01*
X162344288Y-69761073D02*
X162344288Y-69126073D01*
X163817488Y-66459073D02*
X162344288Y-66459073D01*
X163817488Y-67094073D02*
X163817488Y-66459073D01*
X163817488Y-69126073D02*
X163817488Y-69761073D01*
X163817488Y-69761073D02*
X162344288Y-69761073D01*
%TO.C,Q2*%
X170621888Y-64734073D02*
X176621888Y-64734073D01*
X170621888Y-71234073D02*
X170621888Y-64734073D01*
X171121888Y-71734073D02*
X170621888Y-71234073D01*
X176621888Y-64734073D02*
X176621888Y-71734073D01*
X176621888Y-71734073D02*
X171121888Y-71734073D01*
D10*
%TO.C,U10*%
X156565600Y-66211323D02*
X154615600Y-66211323D01*
X156565600Y-66211323D02*
X158515600Y-66211323D01*
X156565600Y-71331323D02*
X154615600Y-71331323D01*
X156565600Y-71331323D02*
X160015600Y-71331323D01*
D12*
%TO.C,C54*%
X116113038Y-86330323D02*
X116113038Y-86965323D01*
X116113038Y-89632323D02*
X116113038Y-88997323D01*
X117586238Y-86330323D02*
X116113038Y-86330323D01*
X117586238Y-86965323D02*
X117586238Y-86330323D01*
X117586238Y-88997323D02*
X117586238Y-89632323D01*
X117586238Y-89632323D02*
X116113038Y-89632323D01*
D10*
%TO.C,R2*%
X168082638Y-75821294D02*
X168082638Y-76146852D01*
X169102638Y-75821294D02*
X169102638Y-76146852D01*
D12*
%TO.C,C49*%
X111087038Y-68313323D02*
X112560238Y-68313323D01*
X111087038Y-68948323D02*
X111087038Y-68313323D01*
X111087038Y-70980323D02*
X111087038Y-71615323D01*
X111087038Y-71615323D02*
X112560238Y-71615323D01*
X112560238Y-68313323D02*
X112560238Y-68948323D01*
X112560238Y-71615323D02*
X112560238Y-70980323D01*
%TO.C,U1*%
X141431638Y-73623323D02*
X141431638Y-73798323D01*
X141431638Y-73623323D02*
X144781638Y-73623323D01*
X141431638Y-73798323D02*
X140181638Y-73798323D01*
X141431638Y-76973323D02*
X141431638Y-76723323D01*
X141431638Y-76973323D02*
X144781638Y-76973323D01*
X144781638Y-73623323D02*
X144781638Y-73873323D01*
X144781638Y-76973323D02*
X144781638Y-76723323D01*
D10*
%TO.C,U23*%
X126682638Y-72595323D02*
X125882638Y-72595323D01*
X126682638Y-72595323D02*
X127482638Y-72595323D01*
X126682638Y-75715323D02*
X125882638Y-75715323D01*
X126682638Y-75715323D02*
X127482638Y-75715323D01*
X125382638Y-72645323D02*
X125142638Y-72315323D01*
X125622638Y-72315323D01*
X125382638Y-72645323D01*
G36*
X125382638Y-72645323D02*
G01*
X125142638Y-72315323D01*
X125622638Y-72315323D01*
X125382638Y-72645323D01*
G37*
%TO.C,R52*%
X116593638Y-79381102D02*
X116593638Y-79055544D01*
X117613638Y-79381102D02*
X117613638Y-79055544D01*
D12*
%TO.C,C6*%
X134429638Y-64401723D02*
X135064638Y-64401723D01*
X134429638Y-65874923D02*
X134429638Y-64401723D01*
X135064638Y-65874923D02*
X134429638Y-65874923D01*
X137096638Y-65874923D02*
X137731638Y-65874923D01*
X137731638Y-64401723D02*
X137096638Y-64401723D01*
X137731638Y-65874923D02*
X137731638Y-64401723D01*
%TO.C,Q6*%
X146579638Y-64500323D02*
X152579638Y-64500323D01*
X146579638Y-71000323D02*
X146579638Y-64500323D01*
X147079638Y-71500323D02*
X146579638Y-71000323D01*
X152579638Y-64500323D02*
X152579638Y-71500323D01*
X152579638Y-71500323D02*
X147079638Y-71500323D01*
%TO.C,C34*%
X144401400Y-102982400D02*
X144401400Y-104455600D01*
X144401400Y-104455600D02*
X145036400Y-104455600D01*
X145036400Y-102982400D02*
X144401400Y-102982400D01*
X147068400Y-102982400D02*
X147703400Y-102982400D01*
X147703400Y-102982400D02*
X147703400Y-104455600D01*
X147703400Y-104455600D02*
X147068400Y-104455600D01*
D10*
%TO.C,R50*%
X109481638Y-67189102D02*
X109481638Y-66863544D01*
X110501638Y-67189102D02*
X110501638Y-66863544D01*
%TO.C,RV1*%
X119072638Y-70179323D02*
X119072638Y-79929323D01*
X124122638Y-70179323D02*
X119072638Y-70179323D01*
X124122638Y-70179323D02*
X124122638Y-79929323D01*
X124122638Y-79929323D02*
X119072638Y-79929323D01*
D12*
%TO.C,Q1*%
X139848638Y-64500323D02*
X145848638Y-64500323D01*
X139848638Y-71000323D02*
X139848638Y-64500323D01*
X140348638Y-71500323D02*
X139848638Y-71000323D01*
X145848638Y-64500323D02*
X145848638Y-71500323D01*
X145848638Y-71500323D02*
X140348638Y-71500323D01*
D10*
%TO.C,R38*%
X146431400Y-105969221D02*
X146431400Y-106294779D01*
X147451400Y-105969221D02*
X147451400Y-106294779D01*
D12*
%TO.C,C55*%
X114081038Y-86330323D02*
X114081038Y-86965323D01*
X114081038Y-89632323D02*
X114081038Y-88997323D01*
X115554238Y-86330323D02*
X114081038Y-86330323D01*
X115554238Y-86965323D02*
X115554238Y-86330323D01*
X115554238Y-88997323D02*
X115554238Y-89632323D01*
X115554238Y-89632323D02*
X114081038Y-89632323D01*
D10*
%TO.C,U14*%
X147463400Y-92333000D02*
X145263400Y-92333000D01*
X147463400Y-92333000D02*
X149663400Y-92333000D01*
X147463400Y-99103000D02*
X145263400Y-99103000D01*
X147463400Y-99103000D02*
X149663400Y-99103000D01*
X151653400Y-98883000D02*
X151323400Y-98643000D01*
X151653400Y-98403000D01*
X151653400Y-98883000D01*
G36*
X151653400Y-98883000D02*
G01*
X151323400Y-98643000D01*
X151653400Y-98403000D01*
X151653400Y-98883000D01*
G37*
%TO.C,U17*%
X110987638Y-79218323D02*
X110987638Y-77268323D01*
X110987638Y-79218323D02*
X110987638Y-81168323D01*
X116107638Y-79218323D02*
X116107638Y-77268323D01*
X116107638Y-79218323D02*
X116107638Y-81168323D01*
X116342638Y-76758323D02*
X116012638Y-76518323D01*
X116342638Y-76278323D01*
X116342638Y-76758323D01*
G36*
X116342638Y-76758323D02*
G01*
X116012638Y-76518323D01*
X116342638Y-76278323D01*
X116342638Y-76758323D01*
G37*
D12*
%TO.C,C10*%
X131661038Y-66535323D02*
X133134238Y-66535323D01*
X131661038Y-67170323D02*
X131661038Y-66535323D01*
X131661038Y-69202323D02*
X131661038Y-69837323D01*
X131661038Y-69837323D02*
X133134238Y-69837323D01*
X133134238Y-66535323D02*
X133134238Y-67170323D01*
X133134238Y-69837323D02*
X133134238Y-69202323D01*
%TO.C,C37*%
X143653400Y-90536400D02*
X143653400Y-92009600D01*
X143653400Y-92009600D02*
X144288400Y-92009600D01*
X144288400Y-90536400D02*
X143653400Y-90536400D01*
X146320400Y-90536400D02*
X146955400Y-90536400D01*
X146955400Y-90536400D02*
X146955400Y-92009600D01*
X146955400Y-92009600D02*
X146320400Y-92009600D01*
%TO.C,C2*%
X176111038Y-73317073D02*
X177584238Y-73317073D01*
X176111038Y-73952073D02*
X176111038Y-73317073D01*
X176111038Y-75984073D02*
X176111038Y-76619073D01*
X176111038Y-76619073D02*
X177584238Y-76619073D01*
X177584238Y-73317073D02*
X177584238Y-73952073D01*
X177584238Y-76619073D02*
X177584238Y-75984073D01*
D10*
%TO.C,R36*%
X157079621Y-92922000D02*
X157405179Y-92922000D01*
X157079621Y-93942000D02*
X157405179Y-93942000D01*
%TO.C,U16*%
X109029638Y-71910323D02*
X107529638Y-71910323D01*
X109029638Y-71910323D02*
X110529638Y-71910323D01*
X109029638Y-75130323D02*
X107529638Y-75130323D01*
X109029638Y-75130323D02*
X110529638Y-75130323D01*
X106817138Y-72085323D02*
X106577138Y-71755323D01*
X107057138Y-71755323D01*
X106817138Y-72085323D01*
G36*
X106817138Y-72085323D02*
G01*
X106577138Y-71755323D01*
X107057138Y-71755323D01*
X106817138Y-72085323D01*
G37*
%TO.C,U6*%
X133520638Y-69837323D02*
X133520638Y-67887323D01*
X133520638Y-69837323D02*
X133520638Y-71787323D01*
X138640638Y-69837323D02*
X138640638Y-66387323D01*
X138640638Y-69837323D02*
X138640638Y-71787323D01*
%TO.C,RV2*%
X117987638Y-91407323D02*
X117987638Y-86357323D01*
X127737638Y-86357323D02*
X117987638Y-86357323D01*
X127737638Y-91407323D02*
X117987638Y-91407323D01*
X127737638Y-91407323D02*
X127737638Y-86357323D01*
D12*
%TO.C,C17*%
X160490038Y-66408323D02*
X160490038Y-67043323D01*
X160490038Y-69710323D02*
X160490038Y-69075323D01*
X161963238Y-66408323D02*
X160490038Y-66408323D01*
X161963238Y-67043323D02*
X161963238Y-66408323D01*
X161963238Y-69075323D02*
X161963238Y-69710323D01*
X161963238Y-69710323D02*
X160490038Y-69710323D01*
%TO.C,C48*%
X105753038Y-68313323D02*
X105753038Y-68948323D01*
X105753038Y-71615323D02*
X105753038Y-70980323D01*
X107226238Y-68313323D02*
X105753038Y-68313323D01*
X107226238Y-68948323D02*
X107226238Y-68313323D01*
X107226238Y-70980323D02*
X107226238Y-71615323D01*
X107226238Y-71615323D02*
X105753038Y-71615323D01*
D10*
%TO.C,R_REF2*%
X154827400Y-103119779D02*
X154827400Y-102794221D01*
X155847400Y-103119779D02*
X155847400Y-102794221D01*
%TO.C,K1*%
X114818638Y-49523323D02*
X130418638Y-49523323D01*
X114818638Y-69323323D02*
X114818638Y-49523323D01*
X114818638Y-69323323D02*
X121418638Y-69323323D01*
X116668638Y-61873323D02*
X116668638Y-64373323D01*
X116668638Y-61873323D02*
X120868638Y-61873323D01*
X118418638Y-53773323D02*
X120918638Y-53773323D01*
X120868638Y-59873323D02*
X124468638Y-59873323D01*
X120868638Y-63873323D02*
X120868638Y-59873323D01*
X122668638Y-56973323D02*
X120168638Y-52373323D01*
X122668638Y-58473323D02*
X122668638Y-56973323D01*
X122668638Y-58473323D02*
X126268638Y-58473323D01*
X122668638Y-65273323D02*
X122668638Y-66073323D01*
X122668638Y-65273323D02*
X126268638Y-65273323D01*
X123818638Y-69323323D02*
X130418638Y-69323323D01*
X124468638Y-59873323D02*
X120868638Y-63873323D01*
X124468638Y-59873323D02*
X124468638Y-63873323D01*
X124468638Y-61873323D02*
X128668638Y-61873323D01*
X124468638Y-63873323D02*
X120868638Y-63873323D01*
X126268638Y-58473323D02*
X126268638Y-65273323D01*
X126818638Y-53773323D02*
X124368638Y-53773323D01*
X128668638Y-64373323D02*
X128668638Y-61873323D01*
X130418638Y-49523323D02*
X130418638Y-69323323D01*
D12*
%TO.C,C52*%
X112865038Y-68821323D02*
X112865038Y-69456323D01*
X112865038Y-72123323D02*
X112865038Y-71488323D01*
X114338238Y-68821323D02*
X112865038Y-68821323D01*
X114338238Y-69456323D02*
X114338238Y-68821323D01*
X114338238Y-71488323D02*
X114338238Y-72123323D01*
X114338238Y-72123323D02*
X112865038Y-72123323D01*
%TO.C,C29*%
X153330800Y-94321000D02*
X154804000Y-94321000D01*
X153330800Y-94956000D02*
X153330800Y-94321000D01*
X153330800Y-96988000D02*
X153330800Y-97623000D01*
X153330800Y-97623000D02*
X154804000Y-97623000D01*
X154804000Y-94321000D02*
X154804000Y-94956000D01*
X154804000Y-97623000D02*
X154804000Y-96988000D01*
%TO.C,C56*%
X105419638Y-84323723D02*
X105419638Y-85796923D01*
X105419638Y-85796923D02*
X106054638Y-85796923D01*
X106054638Y-84323723D02*
X105419638Y-84323723D01*
X108086638Y-84323723D02*
X108721638Y-84323723D01*
X108721638Y-84323723D02*
X108721638Y-85796923D01*
X108721638Y-85796923D02*
X108086638Y-85796923D01*
%TO.C,C33*%
X147957400Y-102982400D02*
X148592400Y-102982400D01*
X147957400Y-104455600D02*
X147957400Y-102982400D01*
X148592400Y-104455600D02*
X147957400Y-104455600D01*
X150624400Y-104455600D02*
X151259400Y-104455600D01*
X151259400Y-102982400D02*
X150624400Y-102982400D01*
X151259400Y-104455600D02*
X151259400Y-102982400D01*
D10*
%TO.C,U20*%
X106749138Y-77211323D02*
X105949138Y-77211323D01*
X106749138Y-77211323D02*
X107549138Y-77211323D01*
X106749138Y-80331323D02*
X105949138Y-80331323D01*
X106749138Y-80331323D02*
X107549138Y-80331323D01*
X108289138Y-80611323D02*
X107809138Y-80611323D01*
X108049138Y-80281323D01*
X108289138Y-80611323D01*
G36*
X108289138Y-80611323D02*
G01*
X107809138Y-80611323D01*
X108049138Y-80281323D01*
X108289138Y-80611323D01*
G37*
D12*
%TO.C,C7*%
X165112888Y-64452473D02*
X165747888Y-64452473D01*
X165112888Y-65925673D02*
X165112888Y-64452473D01*
X165747888Y-65925673D02*
X165112888Y-65925673D01*
X167779888Y-65925673D02*
X168414888Y-65925673D01*
X168414888Y-64452473D02*
X167779888Y-64452473D01*
X168414888Y-65925673D02*
X168414888Y-64452473D01*
%TO.C,C51*%
X112458638Y-72402723D02*
X113093638Y-72402723D01*
X112458638Y-73875923D02*
X112458638Y-72402723D01*
X113093638Y-73875923D02*
X112458638Y-73875923D01*
X115125638Y-73875923D02*
X115760638Y-73875923D01*
X115760638Y-72402723D02*
X115125638Y-72402723D01*
X115760638Y-73875923D02*
X115760638Y-72402723D01*
%TO.C,C30*%
X146179400Y-101331400D02*
X146814400Y-101331400D01*
X146179400Y-102804600D02*
X146179400Y-101331400D01*
X146814400Y-102804600D02*
X146179400Y-102804600D01*
X148846400Y-102804600D02*
X149481400Y-102804600D01*
X149481400Y-101331400D02*
X148846400Y-101331400D01*
X149481400Y-102804600D02*
X149481400Y-101331400D01*
D10*
%TO.C,R37*%
X148209400Y-105969221D02*
X148209400Y-106294779D01*
X149229400Y-105969221D02*
X149229400Y-106294779D01*
D12*
%TO.C,C58*%
X105419638Y-80767723D02*
X105419638Y-82240923D01*
X105419638Y-82240923D02*
X106054638Y-82240923D01*
X106054638Y-80767723D02*
X105419638Y-80767723D01*
X108086638Y-80767723D02*
X108721638Y-80767723D01*
X108721638Y-80767723D02*
X108721638Y-82240923D01*
X108721638Y-82240923D02*
X108086638Y-82240923D01*
%TO.C,C47*%
X107505638Y-70116723D02*
X107505638Y-71589923D01*
X107505638Y-71589923D02*
X108140638Y-71589923D01*
X108140638Y-70116723D02*
X107505638Y-70116723D01*
X110172638Y-70116723D02*
X110807638Y-70116723D01*
X110807638Y-70116723D02*
X110807638Y-71589923D01*
X110807638Y-71589923D02*
X110172638Y-71589923D01*
D10*
%TO.C,R6*%
X140348417Y-77455323D02*
X140022859Y-77455323D01*
X140348417Y-78475323D02*
X140022859Y-78475323D01*
D12*
%TO.C,C32*%
X155732400Y-94346400D02*
X155732400Y-95819600D01*
X155732400Y-95819600D02*
X156367400Y-95819600D01*
X156367400Y-94346400D02*
X155732400Y-94346400D01*
X158399400Y-94346400D02*
X159034400Y-94346400D01*
X159034400Y-94346400D02*
X159034400Y-95819600D01*
X159034400Y-95819600D02*
X158399400Y-95819600D01*
%TO.C,C57*%
X105419638Y-82545723D02*
X105419638Y-84018923D01*
X105419638Y-84018923D02*
X106054638Y-84018923D01*
X106054638Y-82545723D02*
X105419638Y-82545723D01*
X108086638Y-82545723D02*
X108721638Y-82545723D01*
X108721638Y-82545723D02*
X108721638Y-84018923D01*
X108721638Y-84018923D02*
X108086638Y-84018923D01*
D10*
%TO.C,R39*%
X151779400Y-98293779D02*
X151779400Y-97968221D01*
X152799400Y-98293779D02*
X152799400Y-97968221D01*
%TO.C,R35*%
X153176400Y-102794221D02*
X153176400Y-103119779D01*
X154196400Y-102794221D02*
X154196400Y-103119779D01*
%TO.C,R51*%
X107703638Y-66880544D02*
X107703638Y-67206102D01*
X108723638Y-66880544D02*
X108723638Y-67206102D01*
%TO.C,R16*%
X143791859Y-71994323D02*
X144117417Y-71994323D01*
X143791859Y-73014323D02*
X144117417Y-73014323D01*
%TO.C,R9*%
X166041179Y-92922000D02*
X165715621Y-92922000D01*
X166041179Y-93942000D02*
X165715621Y-93942000D01*
D12*
%TO.C,C4*%
X159007562Y-96822877D02*
X159642562Y-96822877D01*
X159007562Y-98296077D02*
X159007562Y-96822877D01*
X159642562Y-98296077D02*
X159007562Y-98296077D01*
X161674562Y-98296077D02*
X162309562Y-98296077D01*
X162309562Y-96822877D02*
X161674562Y-96822877D01*
X162309562Y-98296077D02*
X162309562Y-96822877D01*
%TO.C,Q9*%
X156401400Y-100303000D02*
X161901400Y-100303000D01*
X156401400Y-107303000D02*
X156401400Y-100303000D01*
X161901400Y-100303000D02*
X162401400Y-100803000D01*
X162401400Y-100803000D02*
X162401400Y-107303000D01*
X162401400Y-107303000D02*
X156401400Y-107303000D01*
D10*
%TO.C,R14*%
X158095621Y-98764000D02*
X158421179Y-98764000D01*
X158095621Y-99784000D02*
X158421179Y-99784000D01*
%TD*%
%LPC*%
D13*
%TO.C,U4*%
X167951400Y-97155000D03*
X167951400Y-96505000D03*
X167951400Y-95855000D03*
X167951400Y-95205000D03*
X163551400Y-95205000D03*
X163551400Y-95855000D03*
X163551400Y-96505000D03*
X163551400Y-97155000D03*
%TD*%
D14*
%TO.C,J1*%
X134797638Y-62933323D03*
X137337638Y-62933323D03*
X139907638Y-62933323D03*
D15*
X142447638Y-62933323D03*
D16*
X133557638Y-54293323D03*
X143717638Y-54293323D03*
%TD*%
D14*
%TO.C,J2*%
X157683638Y-62933323D03*
X155143638Y-62933323D03*
X152573638Y-62933323D03*
D17*
X150033638Y-62933323D03*
D16*
X158923638Y-54293323D03*
X148763638Y-54293323D03*
%TD*%
D14*
%TO.C,J3*%
X165480888Y-62984073D03*
X168020888Y-62984073D03*
X170590888Y-62984073D03*
D15*
X173130888Y-62984073D03*
D16*
X164240888Y-54344073D03*
X174400888Y-54344073D03*
%TD*%
D14*
%TO.C,J9*%
X146320400Y-109099000D03*
X148860400Y-109099000D03*
X151370400Y-109099000D03*
X153910400Y-109099000D03*
X156480400Y-109099000D03*
D15*
X159020400Y-109099000D03*
D16*
X145050400Y-117739000D03*
X160290400Y-117739000D03*
%TD*%
D18*
%TO.C,J11*%
X98046800Y-62012800D03*
X98046800Y-65012800D03*
X98046800Y-68012800D03*
X98046800Y-71012800D03*
X98046800Y-74012800D03*
X98046800Y-77012800D03*
X98046800Y-80012800D03*
X95046800Y-62012800D03*
X95046800Y-65012800D03*
X95046800Y-68012800D03*
X95046800Y-71012800D03*
X95046800Y-74012800D03*
X95046800Y-77012800D03*
D19*
X95046800Y-80012800D03*
D20*
X90726800Y-64152800D03*
X90726800Y-77852800D03*
%TD*%
D18*
%TO.C,J12*%
X189804000Y-92300000D03*
X189804000Y-89300000D03*
X189804000Y-86300000D03*
X189804000Y-83300000D03*
X192804000Y-92300000D03*
X192804000Y-89300000D03*
X192804000Y-86300000D03*
D21*
X192804000Y-83300000D03*
D20*
X197124000Y-90160000D03*
X197124000Y-85460000D03*
%TD*%
D14*
%TO.C,J13*%
X110235638Y-62609323D03*
D17*
X107695638Y-62609323D03*
D16*
X111505638Y-53969323D03*
X106425638Y-53969323D03*
%TD*%
D22*
%TO.C,MK1*%
X90140800Y-54022000D03*
%TD*%
%TO.C,MK2*%
X197793600Y-54022000D03*
%TD*%
%TO.C,MK3*%
X197793600Y-111387000D03*
%TD*%
%TO.C,MK4*%
X90140800Y-111387000D03*
%TD*%
D13*
%TO.C,U2*%
X174856638Y-74628073D03*
X174856638Y-75278073D03*
X174856638Y-75928073D03*
X174856638Y-76578073D03*
X170456638Y-76578073D03*
X170456638Y-75928073D03*
X170456638Y-75278073D03*
X170456638Y-74628073D03*
%TD*%
D23*
%TO.C,R17*%
X173139138Y-72809073D03*
X174714138Y-72809073D03*
%TD*%
D24*
%TO.C,C36*%
X150511400Y-100177000D03*
X150511400Y-101927000D03*
%TD*%
D25*
%TO.C,R11*%
X151473138Y-72504323D03*
X149898138Y-72504323D03*
%TD*%
D23*
%TO.C,R21*%
X131483138Y-65265323D03*
X133058138Y-65265323D03*
%TD*%
D26*
%TO.C,R53*%
X117103638Y-76449823D03*
X117103638Y-74874823D03*
%TD*%
D24*
%TO.C,C35*%
X152289400Y-92811000D03*
X152289400Y-94561000D03*
%TD*%
D27*
%TO.C,C1*%
X147410200Y-74269600D03*
X149160200Y-74269600D03*
%TD*%
D26*
%TO.C,R49*%
X113601638Y-67576823D03*
X113601638Y-66001823D03*
%TD*%
D28*
%TO.C,U19*%
X120651638Y-81267323D03*
X120651638Y-82537323D03*
X120651638Y-83807323D03*
X120651638Y-85077323D03*
X125601638Y-85077323D03*
X125601638Y-83807323D03*
X125601638Y-82537323D03*
X125601638Y-81267323D03*
%TD*%
D29*
%TO.C,U18*%
X111082638Y-84823323D03*
D30*
X111082638Y-86093323D03*
X111082638Y-87363323D03*
%TD*%
D27*
%TO.C,C14*%
X155525638Y-65138323D03*
X157275638Y-65138323D03*
%TD*%
D31*
%TO.C,U7*%
X168668888Y-67423073D03*
X167398888Y-67423073D03*
X166128888Y-67423073D03*
X164858888Y-67423073D03*
X164858888Y-72353073D03*
X166128888Y-72353073D03*
X167398888Y-72353073D03*
X168668888Y-72353073D03*
%TD*%
D32*
%TO.C,R1*%
X139042638Y-74891823D03*
X139042638Y-76466823D03*
%TD*%
D33*
%TO.C,D1*%
X126902638Y-70853323D03*
X129002638Y-70853323D03*
%TD*%
D34*
%TO.C,C31*%
X155323400Y-100544000D03*
X153573400Y-100544000D03*
%TD*%
D24*
%TO.C,C11*%
X163080888Y-67235073D03*
X163080888Y-68985073D03*
%TD*%
D35*
%TO.C,Q2*%
X171716888Y-70904073D03*
X172986888Y-70904073D03*
X174256888Y-70904073D03*
X175526888Y-70904073D03*
D36*
X173711888Y-67404073D03*
%TD*%
D37*
%TO.C,U10*%
X159030600Y-70676323D03*
X159030600Y-69406323D03*
X159030600Y-68136323D03*
X159030600Y-66866323D03*
X154100600Y-66866323D03*
X154100600Y-68136323D03*
X154100600Y-69406323D03*
X154100600Y-70676323D03*
%TD*%
D24*
%TO.C,C54*%
X116849638Y-87106323D03*
X116849638Y-88856323D03*
%TD*%
D32*
%TO.C,R2*%
X168592638Y-75196573D03*
X168592638Y-76771573D03*
%TD*%
D38*
%TO.C,C49*%
X111823638Y-70839323D03*
X111823638Y-69089323D03*
%TD*%
D13*
%TO.C,U1*%
X140906638Y-74323323D03*
X140906638Y-74973323D03*
X140906638Y-75623323D03*
X140906638Y-76273323D03*
X145306638Y-76273323D03*
X145306638Y-75623323D03*
X145306638Y-74973323D03*
X145306638Y-74323323D03*
%TD*%
D39*
%TO.C,U23*%
X125545138Y-73205323D03*
X125545138Y-74155323D03*
X125545138Y-75105323D03*
X127820138Y-75105323D03*
X127820138Y-74155323D03*
X127820138Y-73205323D03*
%TD*%
D26*
%TO.C,R52*%
X117103638Y-80005823D03*
X117103638Y-78430823D03*
%TD*%
D34*
%TO.C,C6*%
X136955638Y-65138323D03*
X135205638Y-65138323D03*
%TD*%
D35*
%TO.C,Q6*%
X147674638Y-70670323D03*
X148944638Y-70670323D03*
X150214638Y-70670323D03*
X151484638Y-70670323D03*
D36*
X149669638Y-67170323D03*
%TD*%
D27*
%TO.C,C34*%
X145177400Y-103719000D03*
X146927400Y-103719000D03*
%TD*%
D26*
%TO.C,R50*%
X109991638Y-67813823D03*
X109991638Y-66238823D03*
%TD*%
D40*
%TO.C,RV1*%
X121602638Y-77594323D03*
X121602638Y-75054323D03*
X121602638Y-72514323D03*
%TD*%
D35*
%TO.C,Q1*%
X140943638Y-70670323D03*
X142213638Y-70670323D03*
X143483638Y-70670323D03*
X144753638Y-70670323D03*
D36*
X142938638Y-67170323D03*
%TD*%
D32*
%TO.C,R38*%
X146941400Y-105344500D03*
X146941400Y-106919500D03*
%TD*%
D24*
%TO.C,C55*%
X114817638Y-87106323D03*
X114817638Y-88856323D03*
%TD*%
D41*
%TO.C,U14*%
X150325900Y-98643000D03*
X150325900Y-97993000D03*
X150325900Y-97343000D03*
X150325900Y-96693000D03*
X150325900Y-96043000D03*
X150325900Y-95393000D03*
X150325900Y-94743000D03*
X150325900Y-94093000D03*
X150325900Y-93443000D03*
X150325900Y-92793000D03*
X144600900Y-92793000D03*
X144600900Y-93443000D03*
X144600900Y-94093000D03*
X144600900Y-94743000D03*
X144600900Y-95393000D03*
X144600900Y-96043000D03*
X144600900Y-96693000D03*
X144600900Y-97343000D03*
X144600900Y-97993000D03*
X144600900Y-98643000D03*
%TD*%
D42*
%TO.C,U17*%
X115452638Y-76743323D03*
X114182638Y-76743323D03*
X112912638Y-76743323D03*
X111642638Y-76743323D03*
X111642638Y-81693323D03*
X112912638Y-81693323D03*
X114182638Y-81693323D03*
X115452638Y-81693323D03*
%TD*%
D38*
%TO.C,C10*%
X132397638Y-69061323D03*
X132397638Y-67311323D03*
%TD*%
D27*
%TO.C,C37*%
X144429400Y-91273000D03*
X146179400Y-91273000D03*
%TD*%
D38*
%TO.C,C2*%
X176847638Y-75843073D03*
X176847638Y-74093073D03*
%TD*%
D23*
%TO.C,R36*%
X156454900Y-93432000D03*
X158029900Y-93432000D03*
%TD*%
D43*
%TO.C,U16*%
X106917138Y-72545323D03*
X106917138Y-73195323D03*
X106917138Y-73845323D03*
X106917138Y-74495323D03*
X111142138Y-74495323D03*
X111142138Y-73845323D03*
X111142138Y-73195323D03*
X111142138Y-72545323D03*
%TD*%
D31*
%TO.C,U6*%
X137985638Y-67372323D03*
X136715638Y-67372323D03*
X135445638Y-67372323D03*
X134175638Y-67372323D03*
X134175638Y-72302323D03*
X135445638Y-72302323D03*
X136715638Y-72302323D03*
X137985638Y-72302323D03*
%TD*%
D40*
%TO.C,RV2*%
X120322638Y-88887323D03*
X122862638Y-88887323D03*
X125402638Y-88887323D03*
%TD*%
D24*
%TO.C,C17*%
X161226638Y-67184323D03*
X161226638Y-68934323D03*
%TD*%
%TO.C,C48*%
X106489638Y-69089323D03*
X106489638Y-70839323D03*
%TD*%
D26*
%TO.C,R_REF2*%
X155337400Y-103744500D03*
X155337400Y-102169500D03*
%TD*%
D20*
%TO.C,K1*%
X122618638Y-67923323D03*
D44*
X128668638Y-65973323D03*
D20*
X128668638Y-53773323D03*
X116618638Y-53723323D03*
D44*
X116668638Y-65973323D03*
%TD*%
D24*
%TO.C,C52*%
X113601638Y-69597323D03*
X113601638Y-71347323D03*
%TD*%
D38*
%TO.C,C29*%
X154067400Y-96847000D03*
X154067400Y-95097000D03*
%TD*%
D27*
%TO.C,C56*%
X106195638Y-85060323D03*
X107945638Y-85060323D03*
%TD*%
D34*
%TO.C,C33*%
X150483400Y-103719000D03*
X148733400Y-103719000D03*
%TD*%
D45*
%TO.C,U20*%
X107886638Y-79721323D03*
X107886638Y-78771323D03*
X107886638Y-77821323D03*
X105611638Y-77821323D03*
X105611638Y-78771323D03*
X105611638Y-79721323D03*
%TD*%
D34*
%TO.C,C7*%
X167638888Y-65189073D03*
X165888888Y-65189073D03*
%TD*%
%TO.C,C51*%
X114984638Y-73139323D03*
X113234638Y-73139323D03*
%TD*%
%TO.C,C30*%
X148705400Y-102068000D03*
X146955400Y-102068000D03*
%TD*%
D32*
%TO.C,R37*%
X148719400Y-105344500D03*
X148719400Y-106919500D03*
%TD*%
D27*
%TO.C,C58*%
X106195638Y-81504323D03*
X107945638Y-81504323D03*
%TD*%
%TO.C,C47*%
X108281638Y-70853323D03*
X110031638Y-70853323D03*
%TD*%
D25*
%TO.C,R6*%
X140973138Y-77965323D03*
X139398138Y-77965323D03*
%TD*%
D27*
%TO.C,C32*%
X156508400Y-95083000D03*
X158258400Y-95083000D03*
%TD*%
%TO.C,C57*%
X106195638Y-83282323D03*
X107945638Y-83282323D03*
%TD*%
D26*
%TO.C,R39*%
X152289400Y-98918500D03*
X152289400Y-97343500D03*
%TD*%
D32*
%TO.C,R35*%
X153686400Y-102169500D03*
X153686400Y-103744500D03*
%TD*%
%TO.C,R51*%
X108213638Y-66255823D03*
X108213638Y-67830823D03*
%TD*%
D23*
%TO.C,R16*%
X143167138Y-72504323D03*
X144742138Y-72504323D03*
%TD*%
D25*
%TO.C,R9*%
X166665900Y-93432000D03*
X165090900Y-93432000D03*
%TD*%
D34*
%TO.C,C4*%
X161533562Y-97559477D03*
X159783562Y-97559477D03*
%TD*%
D35*
%TO.C,Q9*%
X161306400Y-101133000D03*
X160036400Y-101133000D03*
X158766400Y-101133000D03*
X157496400Y-101133000D03*
D46*
X159311400Y-104633000D03*
%TD*%
D23*
%TO.C,R14*%
X157470900Y-99274000D03*
X159045900Y-99274000D03*
%TD*%
%LPD*%
M02*
