%TF.GenerationSoftware,KiCad,Pcbnew,9.0.1*%
%TF.CreationDate,2025-06-09T14:32:15-07:00*%
%TF.ProjectId,chop-controller-heat-v2,63686f70-2d63-46f6-9e74-726f6c6c6572,rev?*%
%TF.SameCoordinates,Original*%
%TF.FileFunction,Soldermask,Bot*%
%TF.FilePolarity,Negative*%
%FSLAX46Y46*%
G04 Gerber Fmt 4.6, Leading zero omitted, Abs format (unit mm)*
G04 Created by KiCad (PCBNEW 9.0.1) date 2025-06-09 14:32:15*
%MOMM*%
%LPD*%
G01*
G04 APERTURE LIST*
G04 Aperture macros list*
%AMRoundRect*
0 Rectangle with rounded corners*
0 $1 Rounding radius*
0 $2 $3 $4 $5 $6 $7 $8 $9 X,Y pos of 4 corners*
0 Add a 4 corners polygon primitive as box body*
4,1,4,$2,$3,$4,$5,$6,$7,$8,$9,$2,$3,0*
0 Add four circle primitives for the rounded corners*
1,1,$1+$1,$2,$3*
1,1,$1+$1,$4,$5*
1,1,$1+$1,$6,$7*
1,1,$1+$1,$8,$9*
0 Add four rect primitives between the rounded corners*
20,1,$1+$1,$2,$3,$4,$5,0*
20,1,$1+$1,$4,$5,$6,$7,0*
20,1,$1+$1,$6,$7,$8,$9,0*
20,1,$1+$1,$8,$9,$2,$3,0*%
G04 Aperture macros list end*
%ADD10C,1.740000*%
%ADD11RoundRect,0.250560X0.619440X0.619440X-0.619440X0.619440X-0.619440X-0.619440X0.619440X-0.619440X0*%
%ADD12C,3.400000*%
%ADD13RoundRect,0.250560X-0.619440X-0.619440X0.619440X-0.619440X0.619440X0.619440X-0.619440X0.619440X0*%
%ADD14C,1.500000*%
%ADD15RoundRect,0.250001X0.499999X-0.499999X0.499999X0.499999X-0.499999X0.499999X-0.499999X-0.499999X0*%
%ADD16C,3.000000*%
%ADD17RoundRect,0.250001X-0.499999X0.499999X-0.499999X-0.499999X0.499999X-0.499999X0.499999X0.499999X0*%
%ADD18C,3.200000*%
%ADD19R,1.500000X1.050000*%
%ADD20O,1.500000X1.050000*%
%ADD21C,1.440000*%
%ADD22C,2.500000*%
G04 APERTURE END LIST*
D10*
%TO.C,J1*%
X134797638Y-62933323D03*
X137337638Y-62933323D03*
X139907638Y-62933323D03*
D11*
X142447638Y-62933323D03*
D12*
X133557638Y-54293323D03*
X143717638Y-54293323D03*
%TD*%
D10*
%TO.C,J2*%
X157683638Y-62933323D03*
X155143638Y-62933323D03*
X152573638Y-62933323D03*
D13*
X150033638Y-62933323D03*
D12*
X158923638Y-54293323D03*
X148763638Y-54293323D03*
%TD*%
D10*
%TO.C,J3*%
X165480888Y-62984073D03*
X168020888Y-62984073D03*
X170590888Y-62984073D03*
D11*
X173130888Y-62984073D03*
D12*
X164240888Y-54344073D03*
X174400888Y-54344073D03*
%TD*%
D10*
%TO.C,J9*%
X146320400Y-109099000D03*
X148860400Y-109099000D03*
X151370400Y-109099000D03*
X153910400Y-109099000D03*
X156480400Y-109099000D03*
D11*
X159020400Y-109099000D03*
D12*
X145050400Y-117739000D03*
X160290400Y-117739000D03*
%TD*%
D14*
%TO.C,J11*%
X98046800Y-62012800D03*
X98046800Y-65012800D03*
X98046800Y-68012800D03*
X98046800Y-71012800D03*
X98046800Y-74012800D03*
X98046800Y-77012800D03*
X98046800Y-80012800D03*
X95046800Y-62012800D03*
X95046800Y-65012800D03*
X95046800Y-68012800D03*
X95046800Y-71012800D03*
X95046800Y-74012800D03*
X95046800Y-77012800D03*
D15*
X95046800Y-80012800D03*
D16*
X90726800Y-64152800D03*
X90726800Y-77852800D03*
%TD*%
D14*
%TO.C,J12*%
X189804000Y-92300000D03*
X189804000Y-89300000D03*
X189804000Y-86300000D03*
X189804000Y-83300000D03*
X192804000Y-92300000D03*
X192804000Y-89300000D03*
X192804000Y-86300000D03*
D17*
X192804000Y-83300000D03*
D16*
X197124000Y-90160000D03*
X197124000Y-85460000D03*
%TD*%
D10*
%TO.C,J13*%
X110235638Y-62609323D03*
D13*
X107695638Y-62609323D03*
D12*
X111505638Y-53969323D03*
X106425638Y-53969323D03*
%TD*%
D18*
%TO.C,MK1*%
X90140800Y-54022000D03*
%TD*%
%TO.C,MK2*%
X197793600Y-54022000D03*
%TD*%
%TO.C,MK3*%
X197793600Y-111387000D03*
%TD*%
%TO.C,MK4*%
X90140800Y-111387000D03*
%TD*%
D19*
%TO.C,U18*%
X111082638Y-84823323D03*
D20*
X111082638Y-86093323D03*
X111082638Y-87363323D03*
%TD*%
D21*
%TO.C,RV1*%
X121602638Y-77594323D03*
X121602638Y-75054323D03*
X121602638Y-72514323D03*
%TD*%
%TO.C,RV2*%
X120322638Y-88887323D03*
X122862638Y-88887323D03*
X125402638Y-88887323D03*
%TD*%
D16*
%TO.C,K1*%
X122618638Y-67923323D03*
D22*
X128668638Y-65973323D03*
D16*
X128668638Y-53773323D03*
X116618638Y-53723323D03*
D22*
X116668638Y-65973323D03*
%TD*%
M02*
