%TF.GenerationSoftware,KiCad,Pcbnew,9.0.1*%
%TF.CreationDate,2025-06-05T12:40:10-07:00*%
%TF.ProjectId,chop_microcontroller_board,63686f70-5f6d-4696-9372-6f636f6e7472,rev?*%
%TF.SameCoordinates,Original*%
%TF.FileFunction,Legend,Bot*%
%TF.FilePolarity,Positive*%
%FSLAX46Y46*%
G04 Gerber Fmt 4.6, Leading zero omitted, Abs format (unit mm)*
G04 Created by KiCad (PCBNEW 9.0.1) date 2025-06-05 12:40:10*
%MOMM*%
%LPD*%
G01*
G04 APERTURE LIST*
%ADD10C,0.150000*%
%ADD11C,0.120000*%
G04 APERTURE END LIST*
D10*
X148783333Y-99754819D02*
X148783333Y-100469104D01*
X148783333Y-100469104D02*
X148830952Y-100611961D01*
X148830952Y-100611961D02*
X148926190Y-100707200D01*
X148926190Y-100707200D02*
X149069047Y-100754819D01*
X149069047Y-100754819D02*
X149164285Y-100754819D01*
X148402380Y-99754819D02*
X147783333Y-99754819D01*
X147783333Y-99754819D02*
X148116666Y-100135771D01*
X148116666Y-100135771D02*
X147973809Y-100135771D01*
X147973809Y-100135771D02*
X147878571Y-100183390D01*
X147878571Y-100183390D02*
X147830952Y-100231009D01*
X147830952Y-100231009D02*
X147783333Y-100326247D01*
X147783333Y-100326247D02*
X147783333Y-100564342D01*
X147783333Y-100564342D02*
X147830952Y-100659580D01*
X147830952Y-100659580D02*
X147878571Y-100707200D01*
X147878571Y-100707200D02*
X147973809Y-100754819D01*
X147973809Y-100754819D02*
X148259523Y-100754819D01*
X148259523Y-100754819D02*
X148354761Y-100707200D01*
X148354761Y-100707200D02*
X148402380Y-100659580D01*
X182914819Y-77166666D02*
X183629104Y-77166666D01*
X183629104Y-77166666D02*
X183771961Y-77119047D01*
X183771961Y-77119047D02*
X183867200Y-77023809D01*
X183867200Y-77023809D02*
X183914819Y-76880952D01*
X183914819Y-76880952D02*
X183914819Y-76785714D01*
X183343390Y-77785714D02*
X183295771Y-77690476D01*
X183295771Y-77690476D02*
X183248152Y-77642857D01*
X183248152Y-77642857D02*
X183152914Y-77595238D01*
X183152914Y-77595238D02*
X183105295Y-77595238D01*
X183105295Y-77595238D02*
X183010057Y-77642857D01*
X183010057Y-77642857D02*
X182962438Y-77690476D01*
X182962438Y-77690476D02*
X182914819Y-77785714D01*
X182914819Y-77785714D02*
X182914819Y-77976190D01*
X182914819Y-77976190D02*
X182962438Y-78071428D01*
X182962438Y-78071428D02*
X183010057Y-78119047D01*
X183010057Y-78119047D02*
X183105295Y-78166666D01*
X183105295Y-78166666D02*
X183152914Y-78166666D01*
X183152914Y-78166666D02*
X183248152Y-78119047D01*
X183248152Y-78119047D02*
X183295771Y-78071428D01*
X183295771Y-78071428D02*
X183343390Y-77976190D01*
X183343390Y-77976190D02*
X183343390Y-77785714D01*
X183343390Y-77785714D02*
X183391009Y-77690476D01*
X183391009Y-77690476D02*
X183438628Y-77642857D01*
X183438628Y-77642857D02*
X183533866Y-77595238D01*
X183533866Y-77595238D02*
X183724342Y-77595238D01*
X183724342Y-77595238D02*
X183819580Y-77642857D01*
X183819580Y-77642857D02*
X183867200Y-77690476D01*
X183867200Y-77690476D02*
X183914819Y-77785714D01*
X183914819Y-77785714D02*
X183914819Y-77976190D01*
X183914819Y-77976190D02*
X183867200Y-78071428D01*
X183867200Y-78071428D02*
X183819580Y-78119047D01*
X183819580Y-78119047D02*
X183724342Y-78166666D01*
X183724342Y-78166666D02*
X183533866Y-78166666D01*
X183533866Y-78166666D02*
X183438628Y-78119047D01*
X183438628Y-78119047D02*
X183391009Y-78071428D01*
X183391009Y-78071428D02*
X183343390Y-77976190D01*
X178413333Y-107708819D02*
X178413333Y-108423104D01*
X178413333Y-108423104D02*
X178460952Y-108565961D01*
X178460952Y-108565961D02*
X178556190Y-108661200D01*
X178556190Y-108661200D02*
X178699047Y-108708819D01*
X178699047Y-108708819D02*
X178794285Y-108708819D01*
X177984761Y-107804057D02*
X177937142Y-107756438D01*
X177937142Y-107756438D02*
X177841904Y-107708819D01*
X177841904Y-107708819D02*
X177603809Y-107708819D01*
X177603809Y-107708819D02*
X177508571Y-107756438D01*
X177508571Y-107756438D02*
X177460952Y-107804057D01*
X177460952Y-107804057D02*
X177413333Y-107899295D01*
X177413333Y-107899295D02*
X177413333Y-107994533D01*
X177413333Y-107994533D02*
X177460952Y-108137390D01*
X177460952Y-108137390D02*
X178032380Y-108708819D01*
X178032380Y-108708819D02*
X177413333Y-108708819D01*
D11*
%TO.C,J3*%
X137050000Y-101200000D02*
X137050000Y-103800000D01*
X137050000Y-106200000D02*
X137050000Y-108800000D01*
X137050000Y-111200000D02*
X137050000Y-113800000D01*
X137050000Y-113800000D02*
X141950000Y-113800000D01*
X141950000Y-101200000D02*
X137050000Y-101200000D01*
X143750000Y-107000000D02*
X143750000Y-108000000D01*
X144250000Y-107500000D02*
X143250000Y-107500000D01*
X145550000Y-113800000D02*
X150450000Y-113800000D01*
X145650000Y-101200000D02*
X150450000Y-101200000D01*
X150450000Y-101200000D02*
X150450000Y-103700000D01*
X150450000Y-113800000D02*
X150450000Y-111000000D01*
X150950000Y-103400000D02*
X151250000Y-103700000D01*
X151250000Y-103700000D02*
X151550000Y-103400000D01*
X151550000Y-103400000D02*
X150950000Y-103400000D01*
X146750000Y-107500000D02*
G75*
G02*
X140750000Y-107500000I-3000000J0D01*
G01*
X140750000Y-107500000D02*
G75*
G02*
X146750000Y-107500000I3000000J0D01*
G01*
%TO.C,J8*%
X184460000Y-76120000D02*
X184460000Y-77500000D01*
X185840000Y-76120000D02*
X184460000Y-76120000D01*
X187110000Y-76120000D02*
X187110000Y-78880000D01*
X187110000Y-76120000D02*
X197380000Y-76120000D01*
X187110000Y-78880000D02*
X197380000Y-78880000D01*
X197380000Y-76120000D02*
X197380000Y-78880000D01*
%TO.C,J2*%
X166000000Y-95700000D02*
X166000000Y-123000000D01*
X166000000Y-123000000D02*
X193400000Y-123000000D01*
X166538000Y-98983000D02*
X166792000Y-98995000D01*
X166538000Y-115620000D02*
X166538000Y-98983000D01*
X169878000Y-98995000D02*
X166792000Y-98995000D01*
X169878000Y-115595000D02*
X166538000Y-115620000D01*
X169878000Y-115595000D02*
X192978000Y-115595000D01*
X174920000Y-96189000D02*
X174920000Y-98602000D01*
X174920000Y-98602000D02*
X184699000Y-98602000D01*
X184699000Y-96189000D02*
X174920000Y-96189000D01*
X184699000Y-96189000D02*
X184699000Y-98602000D01*
X192978000Y-98995000D02*
X169878000Y-98995000D01*
X192978000Y-115595000D02*
X192978000Y-98995000D01*
X193400000Y-95700000D02*
X166000000Y-95700000D01*
X193400000Y-123000000D02*
X193400000Y-95700000D01*
%TD*%
M02*
