%TF.GenerationSoftware,KiCad,Pcbnew,7.0.6*%
%TF.CreationDate,2024-01-09T11:46:40-08:00*%
%TF.ProjectId,microcontroller_board,6d696372-6f63-46f6-9e74-726f6c6c6572,rev?*%
%TF.SameCoordinates,Original*%
%TF.FileFunction,Soldermask,Top*%
%TF.FilePolarity,Negative*%
%FSLAX46Y46*%
G04 Gerber Fmt 4.6, Leading zero omitted, Abs format (unit mm)*
G04 Created by KiCad (PCBNEW 7.0.6) date 2024-01-09 11:46:40*
%MOMM*%
%LPD*%
G01*
G04 APERTURE LIST*
G04 Aperture macros list*
%AMRoundRect*
0 Rectangle with rounded corners*
0 $1 Rounding radius*
0 $2 $3 $4 $5 $6 $7 $8 $9 X,Y pos of 4 corners*
0 Add a 4 corners polygon primitive as box body*
4,1,4,$2,$3,$4,$5,$6,$7,$8,$9,$2,$3,0*
0 Add four circle primitives for the rounded corners*
1,1,$1+$1,$2,$3*
1,1,$1+$1,$4,$5*
1,1,$1+$1,$6,$7*
1,1,$1+$1,$8,$9*
0 Add four rect primitives between the rounded corners*
20,1,$1+$1,$2,$3,$4,$5,0*
20,1,$1+$1,$4,$5,$6,$7,0*
20,1,$1+$1,$6,$7,$8,$9,0*
20,1,$1+$1,$8,$9,$2,$3,0*%
G04 Aperture macros list end*
%ADD10RoundRect,0.237500X-0.287500X-0.237500X0.287500X-0.237500X0.287500X0.237500X-0.287500X0.237500X0*%
%ADD11C,3.200000*%
%ADD12RoundRect,0.218750X-0.218750X-0.256250X0.218750X-0.256250X0.218750X0.256250X-0.218750X0.256250X0*%
%ADD13C,3.000000*%
%ADD14RoundRect,0.250001X-0.759999X0.499999X-0.759999X-0.499999X0.759999X-0.499999X0.759999X0.499999X0*%
%ADD15O,2.020000X1.500000*%
%ADD16RoundRect,0.218750X-0.256250X0.218750X-0.256250X-0.218750X0.256250X-0.218750X0.256250X0.218750X0*%
%ADD17RoundRect,0.250001X-0.499999X-0.759999X0.499999X-0.759999X0.499999X0.759999X-0.499999X0.759999X0*%
%ADD18O,1.500000X2.020000*%
%ADD19RoundRect,0.218750X0.218750X0.256250X-0.218750X0.256250X-0.218750X-0.256250X0.218750X-0.256250X0*%
%ADD20RoundRect,0.250001X0.499999X-0.499999X0.499999X0.499999X-0.499999X0.499999X-0.499999X-0.499999X0*%
%ADD21C,1.500000*%
%ADD22RoundRect,0.250000X-0.425000X0.450000X-0.425000X-0.450000X0.425000X-0.450000X0.425000X0.450000X0*%
%ADD23RoundRect,0.218750X0.256250X-0.218750X0.256250X0.218750X-0.256250X0.218750X-0.256250X-0.218750X0*%
%ADD24RoundRect,0.150000X-0.825000X-0.150000X0.825000X-0.150000X0.825000X0.150000X-0.825000X0.150000X0*%
%ADD25R,1.000000X1.000000*%
%ADD26RoundRect,0.237500X0.237500X-0.287500X0.237500X0.287500X-0.237500X0.287500X-0.237500X-0.287500X0*%
%ADD27RoundRect,0.150000X0.825000X0.150000X-0.825000X0.150000X-0.825000X-0.150000X0.825000X-0.150000X0*%
%ADD28R,1.400000X1.295000*%
%ADD29RoundRect,0.250000X-0.450000X-0.425000X0.450000X-0.425000X0.450000X0.425000X-0.450000X0.425000X0*%
%ADD30RoundRect,0.237500X-0.237500X0.287500X-0.237500X-0.287500X0.237500X-0.287500X0.237500X0.287500X0*%
%ADD31RoundRect,0.250001X0.499999X0.759999X-0.499999X0.759999X-0.499999X-0.759999X0.499999X-0.759999X0*%
%ADD32RoundRect,0.112500X-0.112500X0.187500X-0.112500X-0.187500X0.112500X-0.187500X0.112500X0.187500X0*%
%ADD33R,1.060000X0.540000*%
%ADD34RoundRect,0.132500X-0.132500X0.857500X-0.132500X-0.857500X0.132500X-0.857500X0.132500X0.857500X0*%
%ADD35R,1.450000X0.450000*%
%ADD36RoundRect,0.237500X0.287500X0.237500X-0.287500X0.237500X-0.287500X-0.237500X0.287500X-0.237500X0*%
%ADD37RoundRect,0.100000X0.100000X-0.637500X0.100000X0.637500X-0.100000X0.637500X-0.100000X-0.637500X0*%
%ADD38RoundRect,0.250001X0.499999X0.499999X-0.499999X0.499999X-0.499999X-0.499999X0.499999X-0.499999X0*%
%ADD39R,1.700000X1.700000*%
%ADD40O,1.700000X1.700000*%
%ADD41RoundRect,0.150000X-0.875000X-0.150000X0.875000X-0.150000X0.875000X0.150000X-0.875000X0.150000X0*%
%ADD42RoundRect,0.250001X-0.499999X-0.499999X0.499999X-0.499999X0.499999X0.499999X-0.499999X0.499999X0*%
%ADD43RoundRect,0.250000X0.450000X0.425000X-0.450000X0.425000X-0.450000X-0.425000X0.450000X-0.425000X0*%
%ADD44R,1.100000X0.600000*%
%ADD45RoundRect,0.250000X0.425000X-0.450000X0.425000X0.450000X-0.425000X0.450000X-0.425000X-0.450000X0*%
G04 APERTURE END LIST*
D10*
%TO.C,C5*%
X179600700Y-117456200D03*
X181350700Y-117456200D03*
%TD*%
D11*
%TO.C,MK2*%
X200422400Y-53781000D03*
%TD*%
D12*
%TO.C,R16*%
X150370000Y-86410000D03*
X151945000Y-86410000D03*
%TD*%
D13*
%TO.C,J7*%
X200025000Y-88759400D03*
X200025000Y-96459400D03*
D14*
X195705000Y-86609400D03*
D15*
X195705000Y-89609400D03*
X195705000Y-92609400D03*
X195705000Y-95609400D03*
X195705000Y-98609400D03*
%TD*%
D16*
%TO.C,R29*%
X175337800Y-90074800D03*
X175337800Y-91649800D03*
%TD*%
D13*
%TO.C,J5*%
X185500000Y-54055000D03*
X190200000Y-54055000D03*
D17*
X183350000Y-58375000D03*
D18*
X186350000Y-58375000D03*
X189350000Y-58375000D03*
X192350000Y-58375000D03*
%TD*%
D10*
%TO.C,C13*%
X165812800Y-101911400D03*
X167562800Y-101911400D03*
%TD*%
D19*
%TO.C,R27*%
X179909800Y-100743000D03*
X178334800Y-100743000D03*
%TD*%
D16*
%TO.C,JP3*%
X164249400Y-119284900D03*
X164249400Y-120859900D03*
%TD*%
D13*
%TO.C,J2*%
X93030000Y-107284600D03*
X93030000Y-90584600D03*
D20*
X97350000Y-109444600D03*
D21*
X97350000Y-106444600D03*
X97350000Y-103444600D03*
X97350000Y-100444600D03*
X97350000Y-97444600D03*
X97350000Y-94444600D03*
X97350000Y-91444600D03*
X97350000Y-88444600D03*
X100350000Y-109444600D03*
X100350000Y-106444600D03*
X100350000Y-103444600D03*
X100350000Y-100444600D03*
X100350000Y-97444600D03*
X100350000Y-94444600D03*
X100350000Y-91444600D03*
X100350000Y-88444600D03*
%TD*%
D22*
%TO.C,C18*%
X187233000Y-110814600D03*
X187233000Y-113514600D03*
%TD*%
D10*
%TO.C,C10*%
X178171200Y-94799400D03*
X179921200Y-94799400D03*
%TD*%
D23*
%TO.C,R6*%
X105897200Y-82702900D03*
X105897200Y-81127900D03*
%TD*%
D16*
%TO.C,R18*%
X163830000Y-115862500D03*
X163830000Y-117437500D03*
%TD*%
D23*
%TO.C,R31*%
X110650000Y-66487500D03*
X110650000Y-64912500D03*
%TD*%
D24*
%TO.C,U5*%
X179805000Y-107745000D03*
X179805000Y-109015000D03*
X179805000Y-110285000D03*
X179805000Y-111555000D03*
X184755000Y-111555000D03*
X184755000Y-110285000D03*
X184755000Y-109015000D03*
X184755000Y-107745000D03*
%TD*%
D16*
%TO.C,R3*%
X105897200Y-71475900D03*
X105897200Y-73050900D03*
%TD*%
D25*
%TO.C,TP1*%
X158255000Y-117250000D03*
%TD*%
D26*
%TO.C,C20*%
X168135600Y-114419600D03*
X168135600Y-112669600D03*
%TD*%
D23*
%TO.C,R10*%
X105950000Y-100141500D03*
X105950000Y-98566500D03*
%TD*%
D12*
%TO.C,JP4*%
X175892500Y-121150000D03*
X177467500Y-121150000D03*
%TD*%
D10*
%TO.C,C4*%
X161455000Y-112800000D03*
X163205000Y-112800000D03*
%TD*%
D19*
%TO.C,R30*%
X129587500Y-106250000D03*
X128012500Y-106250000D03*
%TD*%
D27*
%TO.C,U4*%
X164855000Y-111080000D03*
X164855000Y-109810000D03*
X164855000Y-108540000D03*
X164855000Y-107270000D03*
X159905000Y-107270000D03*
X159905000Y-108540000D03*
X159905000Y-109810000D03*
X159905000Y-111080000D03*
%TD*%
D28*
%TO.C,C9*%
X178284200Y-98916500D03*
X178284200Y-96981500D03*
%TD*%
D26*
%TO.C,C16*%
X187283800Y-108645400D03*
X187283800Y-106895400D03*
%TD*%
%TO.C,C3*%
X171005800Y-117315200D03*
X171005800Y-115565200D03*
%TD*%
D23*
%TO.C,R2*%
X105897200Y-69825000D03*
X105897200Y-68250000D03*
%TD*%
D12*
%TO.C,R35*%
X164587500Y-75355000D03*
X166162500Y-75355000D03*
%TD*%
D29*
%TO.C,C19*%
X173008600Y-112452400D03*
X175708600Y-112452400D03*
%TD*%
D23*
%TO.C,JP1*%
X165755000Y-117562500D03*
X165755000Y-115987500D03*
%TD*%
D13*
%TO.C,J16*%
X151625000Y-54055000D03*
D17*
X148625000Y-58375000D03*
D18*
X151625000Y-58375000D03*
X154625000Y-58375000D03*
%TD*%
D30*
%TO.C,C7*%
X175984200Y-105862400D03*
X175984200Y-107612400D03*
%TD*%
D13*
%TO.C,J14*%
X171219400Y-134509200D03*
D31*
X174219400Y-130189200D03*
D18*
X171219400Y-130189200D03*
X168219400Y-130189200D03*
%TD*%
D25*
%TO.C,TP2*%
X182580000Y-119550000D03*
%TD*%
D32*
%TO.C,D1*%
X162268200Y-120876600D03*
X162268200Y-122976600D03*
%TD*%
D16*
%TO.C,R9*%
X105950000Y-95264500D03*
X105950000Y-96839500D03*
%TD*%
D12*
%TO.C,R26*%
X165646300Y-100082600D03*
X167221300Y-100082600D03*
%TD*%
D24*
%TO.C,U9*%
X162025000Y-69775000D03*
X162025000Y-71045000D03*
X162025000Y-72315000D03*
X162025000Y-73585000D03*
X166975000Y-73585000D03*
X166975000Y-72315000D03*
X166975000Y-71045000D03*
X166975000Y-69775000D03*
%TD*%
D19*
%TO.C,R12*%
X129912500Y-93850000D03*
X128337500Y-93850000D03*
%TD*%
D13*
%TO.C,J6*%
X200025000Y-67525000D03*
X200025000Y-75225000D03*
D14*
X195705000Y-65375000D03*
D15*
X195705000Y-68375000D03*
X195705000Y-71375000D03*
X195705000Y-74375000D03*
X195705000Y-77375000D03*
%TD*%
D26*
%TO.C,CFilt2*%
X174180800Y-124986000D03*
X174180800Y-123236000D03*
%TD*%
D23*
%TO.C,JP2*%
X174230000Y-117562500D03*
X174230000Y-115987500D03*
%TD*%
%TO.C,R14*%
X105950000Y-109031500D03*
X105950000Y-107456500D03*
%TD*%
D16*
%TO.C,R23*%
X175984200Y-102495500D03*
X175984200Y-104070500D03*
%TD*%
%TO.C,R1*%
X105897200Y-65100400D03*
X105897200Y-66675400D03*
%TD*%
D11*
%TO.C,MK1*%
X92769400Y-53781000D03*
%TD*%
D28*
%TO.C,C8*%
X170410800Y-100288100D03*
X170410800Y-98353100D03*
%TD*%
D30*
%TO.C,CFilt1*%
X166484600Y-123159800D03*
X166484600Y-124909800D03*
%TD*%
D12*
%TO.C,R34*%
X163692100Y-67892400D03*
X165267100Y-67892400D03*
%TD*%
D33*
%TO.C,D5*%
X158702400Y-102800400D03*
X161922400Y-102800400D03*
%TD*%
D23*
%TO.C,R4*%
X105897200Y-76322900D03*
X105897200Y-74747900D03*
%TD*%
D34*
%TO.C,U2*%
X116155000Y-64335000D03*
X114885000Y-64335000D03*
X113615000Y-64335000D03*
X112345000Y-64335000D03*
X112345000Y-69265000D03*
X113615000Y-69265000D03*
X114885000Y-69265000D03*
X116155000Y-69265000D03*
%TD*%
D16*
%TO.C,R7*%
X105950000Y-88660500D03*
X105950000Y-90235500D03*
%TD*%
D12*
%TO.C,R19*%
X160134500Y-117303800D03*
X161709500Y-117303800D03*
%TD*%
D23*
%TO.C,RFilt1*%
X169532600Y-124949300D03*
X169532600Y-123374300D03*
%TD*%
D13*
%TO.C,J8*%
X200025000Y-110352200D03*
X200025000Y-124052200D03*
D14*
X195705000Y-108202200D03*
D15*
X195705000Y-111202200D03*
X195705000Y-114202200D03*
X195705000Y-117202200D03*
X195705000Y-120202200D03*
X195705000Y-123202200D03*
X195705000Y-126202200D03*
%TD*%
D23*
%TO.C,RFilt2*%
X171209000Y-124949300D03*
X171209000Y-123374300D03*
%TD*%
D35*
%TO.C,U3*%
X167698000Y-119148200D03*
X167698000Y-119798200D03*
X167698000Y-120448200D03*
X167698000Y-121098200D03*
X172098000Y-121098200D03*
X172098000Y-120448200D03*
X172098000Y-119798200D03*
X172098000Y-119148200D03*
%TD*%
D16*
%TO.C,R22*%
X172656800Y-102520900D03*
X172656800Y-104095900D03*
%TD*%
D36*
%TO.C,C1*%
X115005200Y-62133000D03*
X113255200Y-62133000D03*
%TD*%
%TO.C,C21*%
X125275000Y-105125000D03*
X123525000Y-105125000D03*
%TD*%
%TO.C,C2*%
X111171000Y-62107600D03*
X109421000Y-62107600D03*
%TD*%
D19*
%TO.C,R24*%
X167221300Y-97999800D03*
X165646300Y-97999800D03*
%TD*%
D37*
%TO.C,U6*%
X172046800Y-100659100D03*
X172696800Y-100659100D03*
X173346800Y-100659100D03*
X173996800Y-100659100D03*
X174646800Y-100659100D03*
X175296800Y-100659100D03*
X175946800Y-100659100D03*
X176596800Y-100659100D03*
X176596800Y-94934100D03*
X175946800Y-94934100D03*
X175296800Y-94934100D03*
X174646800Y-94934100D03*
X173996800Y-94934100D03*
X173346800Y-94934100D03*
X172696800Y-94934100D03*
X172046800Y-94934100D03*
%TD*%
D13*
%TO.C,J13*%
X114100000Y-54055000D03*
D17*
X112600000Y-58375000D03*
D18*
X115600000Y-58375000D03*
%TD*%
D13*
%TO.C,J10*%
X93030000Y-124929200D03*
X93030000Y-120229200D03*
D20*
X97350000Y-127089200D03*
D21*
X97350000Y-124089200D03*
X97350000Y-121089200D03*
X97350000Y-118089200D03*
X100350000Y-127089200D03*
X100350000Y-124089200D03*
X100350000Y-121089200D03*
X100350000Y-118089200D03*
%TD*%
D13*
%TO.C,J15*%
X117195600Y-134509200D03*
X109495600Y-134509200D03*
D38*
X119355600Y-130189200D03*
D21*
X116355600Y-130189200D03*
X113355600Y-130189200D03*
X110355600Y-130189200D03*
X107355600Y-130189200D03*
X119355600Y-127189200D03*
X116355600Y-127189200D03*
X113355600Y-127189200D03*
X110355600Y-127189200D03*
X107355600Y-127189200D03*
%TD*%
D19*
%TO.C,R15*%
X129587500Y-103886800D03*
X128012500Y-103886800D03*
%TD*%
D26*
%TO.C,C23*%
X169375000Y-72505000D03*
X169375000Y-70755000D03*
%TD*%
D19*
%TO.C,R33*%
X129587500Y-109150000D03*
X128012500Y-109150000D03*
%TD*%
D39*
%TO.C,U1*%
X132130000Y-63450000D03*
D40*
X132130000Y-65990000D03*
X132130000Y-68530000D03*
X132130000Y-71070000D03*
X132130000Y-73610000D03*
X132130000Y-76150000D03*
X132130000Y-78690000D03*
X132130000Y-81230000D03*
X132130000Y-83770000D03*
X132130000Y-86310000D03*
X132130000Y-88850000D03*
X132130000Y-91390000D03*
X132130000Y-93930000D03*
X132130000Y-96470000D03*
X132130000Y-99010000D03*
X132130000Y-101550000D03*
X132130000Y-104090000D03*
X132130000Y-106630000D03*
X132130000Y-109170000D03*
X132130000Y-111710000D03*
X132130000Y-114250000D03*
X132130000Y-116790000D03*
X132130000Y-119330000D03*
X132130000Y-121870000D03*
X147370000Y-121870000D03*
X147370000Y-119330000D03*
X147370000Y-116790000D03*
X147370000Y-114250000D03*
X147370000Y-111710000D03*
X147370000Y-109170000D03*
X147370000Y-106630000D03*
X147370000Y-104090000D03*
X147370000Y-101550000D03*
X147370000Y-99010000D03*
X147370000Y-96470000D03*
X147370000Y-93930000D03*
X147370000Y-91390000D03*
X147370000Y-88850000D03*
X147370000Y-86310000D03*
X147370000Y-83770000D03*
X147370000Y-81230000D03*
X147370000Y-78690000D03*
X147370000Y-76150000D03*
X147370000Y-73610000D03*
X147370000Y-71070000D03*
X147370000Y-68530000D03*
X147370000Y-65990000D03*
X147370000Y-63450000D03*
%TD*%
D11*
%TO.C,MK3*%
X92769400Y-134865000D03*
%TD*%
D19*
%TO.C,R25*%
X181814900Y-97085400D03*
X180239900Y-97085400D03*
%TD*%
D41*
%TO.C,U10*%
X114875000Y-107765000D03*
X114875000Y-109035000D03*
X114875000Y-110305000D03*
X114875000Y-111575000D03*
X114875000Y-112845000D03*
X114875000Y-114115000D03*
X114875000Y-115385000D03*
X114875000Y-116655000D03*
X114875000Y-117925000D03*
X114875000Y-119195000D03*
X114875000Y-120465000D03*
X114875000Y-121735000D03*
X124175000Y-121735000D03*
X124175000Y-120465000D03*
X124175000Y-119195000D03*
X124175000Y-117925000D03*
X124175000Y-116655000D03*
X124175000Y-115385000D03*
X124175000Y-114115000D03*
X124175000Y-112845000D03*
X124175000Y-111575000D03*
X124175000Y-110305000D03*
X124175000Y-109035000D03*
X124175000Y-107765000D03*
%TD*%
D13*
%TO.C,J11*%
X127650000Y-54055000D03*
D17*
X124650000Y-58375000D03*
D18*
X127650000Y-58375000D03*
X130650000Y-58375000D03*
%TD*%
D36*
%TO.C,C17*%
X177722800Y-114459000D03*
X175972800Y-114459000D03*
%TD*%
D12*
%TO.C,R17*%
X150325000Y-88900000D03*
X151900000Y-88900000D03*
%TD*%
D13*
%TO.C,J9*%
X165147500Y-54055000D03*
X172847500Y-54055000D03*
D42*
X162987500Y-58375000D03*
D21*
X165987500Y-58375000D03*
X168987500Y-58375000D03*
X171987500Y-58375000D03*
X174987500Y-58375000D03*
X162987500Y-61375000D03*
X165987500Y-61375000D03*
X168987500Y-61375000D03*
X171987500Y-61375000D03*
X174987500Y-61375000D03*
%TD*%
D33*
%TO.C,D3*%
X183655000Y-102775000D03*
X180435000Y-102775000D03*
%TD*%
D43*
%TO.C,C15*%
X168661400Y-103892600D03*
X165961400Y-103892600D03*
%TD*%
D13*
%TO.C,J12*%
X146175000Y-134509200D03*
D31*
X147675000Y-130189200D03*
D18*
X144675000Y-130189200D03*
%TD*%
D19*
%TO.C,R11*%
X129587500Y-91440800D03*
X128012500Y-91440800D03*
%TD*%
D36*
%TO.C,C12*%
X157430000Y-112025000D03*
X155680000Y-112025000D03*
%TD*%
D44*
%TO.C,U7*%
X168385800Y-108723600D03*
X168385800Y-109673600D03*
X168385800Y-110623600D03*
X171085800Y-110623600D03*
X171085800Y-108723600D03*
%TD*%
D11*
%TO.C,MK4*%
X200422400Y-134865000D03*
%TD*%
D45*
%TO.C,C14*%
X157205000Y-110000000D03*
X157205000Y-107300000D03*
%TD*%
D10*
%TO.C,C11*%
X168535800Y-94345000D03*
X170285800Y-94345000D03*
%TD*%
D32*
%TO.C,D2*%
X177580000Y-123300000D03*
X177580000Y-125400000D03*
%TD*%
D19*
%TO.C,R20*%
X177391100Y-117481600D03*
X175816100Y-117481600D03*
%TD*%
D16*
%TO.C,R28*%
X177319000Y-90100300D03*
X177319000Y-91675300D03*
%TD*%
D19*
%TO.C,R21*%
X181292900Y-114433600D03*
X179717900Y-114433600D03*
%TD*%
D30*
%TO.C,C6*%
X172834600Y-105811600D03*
X172834600Y-107561600D03*
%TD*%
D33*
%TO.C,D6*%
X161947800Y-104984800D03*
X158727800Y-104984800D03*
%TD*%
%TO.C,D4*%
X180470200Y-105035600D03*
X183690200Y-105035600D03*
%TD*%
D16*
%TO.C,R13*%
X105950000Y-104154500D03*
X105950000Y-105729500D03*
%TD*%
D23*
%TO.C,R8*%
X105950000Y-93537500D03*
X105950000Y-91962500D03*
%TD*%
D16*
%TO.C,R5*%
X105897200Y-77825900D03*
X105897200Y-79400900D03*
%TD*%
D13*
%TO.C,J1*%
X93030000Y-77640000D03*
X93030000Y-63940000D03*
D20*
X97350000Y-79800000D03*
D21*
X97350000Y-76800000D03*
X97350000Y-73800000D03*
X97350000Y-70800000D03*
X97350000Y-67800000D03*
X97350000Y-64800000D03*
X97350000Y-61800000D03*
X100350000Y-79800000D03*
X100350000Y-76800000D03*
X100350000Y-73800000D03*
X100350000Y-70800000D03*
X100350000Y-67800000D03*
X100350000Y-64800000D03*
X100350000Y-61800000D03*
%TD*%
M02*
