M48
; DRILL file {KiCad 7.0.6} date Tue Jan  9 11:47:14 2024
; FORMAT={-:-/ absolute / inch / decimal}
; #@! TF.CreationDate,2024-01-09T11:47:14-08:00
; #@! TF.GenerationSoftware,Kicad,Pcbnew,7.0.6
; #@! TF.FileFunction,NonPlated,1,4,NPTH
FMAT,2
INCH
; #@! TA.AperFunction,NonPlated,NPTH,ComponentDrill
T1C0.1181
; #@! TA.AperFunction,NonPlated,NPTH,ComponentDrill
T2C0.1260
%
G90
G05
T1
X3.6626Y-2.5173
X3.6626Y-3.0567
X3.6626Y-3.5663
X3.6626Y-4.2238
X3.6626Y-4.7334
X3.6626Y-4.9185
X4.3109Y-5.2956
X4.4921Y-2.1281
X4.614Y-5.2956
X5.0256Y-2.1281
X5.7549Y-5.2956
X5.9695Y-2.1281
X6.5019Y-2.1281
X6.7409Y-5.2956
X6.805Y-2.1281
X7.3031Y-2.1281
X7.4882Y-2.1281
X7.875Y-2.6585
X7.875Y-2.9616
X7.875Y-3.4945
X7.875Y-3.7976
X7.875Y-4.3446
X7.875Y-4.8839
T2
X3.6523Y-2.1174
X3.6523Y-5.3096
X7.8906Y-2.1174
X7.8906Y-5.3096
T0
M30
