M48
; DRILL file {KiCad 7.0.6} date Tue Jan  9 11:47:14 2024
; FORMAT={-:-/ absolute / inch / decimal}
; #@! TF.CreationDate,2024-01-09T11:47:14-08:00
; #@! TF.GenerationSoftware,Kicad,Pcbnew,7.0.6
; #@! TF.FileFunction,Plated,1,4,PTH
FMAT,2
INCH
; #@! TA.AperFunction,Plated,PTH,ViaDrill
T1C0.0157
; #@! TA.AperFunction,Plated,PTH,ComponentDrill
T2C0.0394
; #@! TA.AperFunction,Plated,PTH,ComponentDrill
T3C0.0402
%
G90
G05
T1
X4.2087Y-4.3474
X4.2195Y-2.687
X4.2218Y-2.8773
X4.2244Y-2.4452
X4.2291Y-3.8334
X4.235Y-3.5529
X4.2468Y-3.194
X4.2766Y-2.5128
X4.4232Y-2.8848
X4.4469Y-4.7963
X4.6467Y-2.5605
X4.6949Y-2.6565
X4.9656Y-3.6437
X4.9685Y-4.1959
X4.9724Y-4.0561
X5.0069Y-4.6959
X6.0463Y-3.5551
X6.1134Y-4.1831
X6.1774Y-4.0472
X6.4323Y-4.9469
X6.5219Y-4.4518
X6.5789Y-4.2126
X6.5898Y-3.6152
X6.6055Y-4.5807
X6.6557Y-3.7805
X6.6683Y-2.9488
X6.6821Y-3.5423
X6.6941Y-4.1555
X6.6988Y-2.7165
X6.7423Y-4.438
X6.8398Y-3.6555
X6.8703Y-4.2766
X6.9018Y-3.6673
X6.9035Y-3.4547
X6.9618Y-3.6683
X7.0002Y-4.436
X7.0415Y-3.6191
X7.0484Y-4.688
X7.1685Y-3.7303
X7.2827Y-3.9813
X7.3533Y-2.9281
X7.3742Y-4.1417
X7.4146Y-4.5709
T2
X5.202Y-2.498
X5.202Y-2.598
X5.202Y-2.698
X5.202Y-2.798
X5.202Y-2.898
X5.202Y-2.998
X5.202Y-3.098
X5.202Y-3.198
X5.202Y-3.298
X5.202Y-3.398
X5.202Y-3.498
X5.202Y-3.598
X5.202Y-3.698
X5.202Y-3.798
X5.202Y-3.898
X5.202Y-3.998
X5.202Y-4.098
X5.202Y-4.198
X5.202Y-4.298
X5.202Y-4.398
X5.202Y-4.498
X5.202Y-4.598
X5.202Y-4.698
X5.202Y-4.798
X5.802Y-2.498
X5.802Y-2.598
X5.802Y-2.698
X5.802Y-2.798
X5.802Y-2.898
X5.802Y-2.998
X5.802Y-3.098
X5.802Y-3.198
X5.802Y-3.298
X5.802Y-3.398
X5.802Y-3.498
X5.802Y-3.598
X5.802Y-3.698
X5.802Y-3.798
X5.802Y-3.898
X5.802Y-3.998
X5.802Y-4.098
X5.802Y-4.198
X5.802Y-4.298
X5.802Y-4.398
X5.802Y-4.498
X5.802Y-4.598
X5.802Y-4.698
X5.802Y-4.798
T3
X3.8327Y-2.4331
X3.8327Y-2.5512
X3.8327Y-2.6693
X3.8327Y-2.7874
X3.8327Y-2.9055
X3.8327Y-3.0236
X3.8327Y-3.1417
X3.8327Y-3.4821
X3.8327Y-3.6002
X3.8327Y-3.7183
X3.8327Y-3.8364
X3.8327Y-3.9545
X3.8327Y-4.0726
X3.8327Y-4.1907
X3.8327Y-4.3088
X3.8327Y-4.6492
X3.8327Y-4.7673
X3.8327Y-4.8854
X3.8327Y-5.0035
X3.9508Y-2.4331
X3.9508Y-2.5512
X3.9508Y-2.6693
X3.9508Y-2.7874
X3.9508Y-2.9055
X3.9508Y-3.0236
X3.9508Y-3.1417
X3.9508Y-3.4821
X3.9508Y-3.6002
X3.9508Y-3.7183
X3.9508Y-3.8364
X3.9508Y-3.9545
X3.9508Y-4.0726
X3.9508Y-4.1907
X3.9508Y-4.3088
X3.9508Y-4.6492
X3.9508Y-4.7673
X3.9508Y-4.8854
X3.9508Y-5.0035
X4.2266Y-5.0074
X4.2266Y-5.1256
X4.3447Y-5.0074
X4.3447Y-5.1256
X4.4331Y-2.2982
X4.4628Y-5.0074
X4.4628Y-5.1256
X4.5512Y-2.2982
X4.5809Y-5.0074
X4.5809Y-5.1256
X4.699Y-5.0074
X4.699Y-5.1256
X4.9075Y-2.2982
X5.0256Y-2.2982
X5.1437Y-2.2982
X5.6959Y-5.1256
X5.814Y-5.1256
X5.8514Y-2.2982
X5.9695Y-2.2982
X6.0876Y-2.2982
X6.4168Y-2.2982
X6.4168Y-2.4163
X6.5349Y-2.2982
X6.5349Y-2.4163
X6.6228Y-5.1256
X6.6531Y-2.2982
X6.6531Y-2.4163
X6.7409Y-5.1256
X6.7712Y-2.2982
X6.7712Y-2.4163
X6.859Y-5.1256
X6.8893Y-2.2982
X6.8893Y-2.4163
X7.2185Y-2.2982
X7.3366Y-2.2982
X7.4547Y-2.2982
X7.5728Y-2.2982
X7.7049Y-2.5738
X7.7049Y-2.6919
X7.7049Y-2.81
X7.7049Y-2.9281
X7.7049Y-3.0463
X7.7049Y-3.4098
X7.7049Y-3.5279
X7.7049Y-3.646
X7.7049Y-3.7641
X7.7049Y-3.8823
X7.7049Y-4.2599
X7.7049Y-4.378
X7.7049Y-4.4961
X7.7049Y-4.6143
X7.7049Y-4.7324
X7.7049Y-4.8505
X7.7049Y-4.9686
T0
M30
