%TF.GenerationSoftware,KiCad,Pcbnew,7.0.6*%
%TF.CreationDate,2024-01-09T11:46:40-08:00*%
%TF.ProjectId,microcontroller_board,6d696372-6f63-46f6-9e74-726f6c6c6572,rev?*%
%TF.SameCoordinates,Original*%
%TF.FileFunction,Soldermask,Bot*%
%TF.FilePolarity,Negative*%
%FSLAX46Y46*%
G04 Gerber Fmt 4.6, Leading zero omitted, Abs format (unit mm)*
G04 Created by KiCad (PCBNEW 7.0.6) date 2024-01-09 11:46:40*
%MOMM*%
%LPD*%
G01*
G04 APERTURE LIST*
G04 Aperture macros list*
%AMRoundRect*
0 Rectangle with rounded corners*
0 $1 Rounding radius*
0 $2 $3 $4 $5 $6 $7 $8 $9 X,Y pos of 4 corners*
0 Add a 4 corners polygon primitive as box body*
4,1,4,$2,$3,$4,$5,$6,$7,$8,$9,$2,$3,0*
0 Add four circle primitives for the rounded corners*
1,1,$1+$1,$2,$3*
1,1,$1+$1,$4,$5*
1,1,$1+$1,$6,$7*
1,1,$1+$1,$8,$9*
0 Add four rect primitives between the rounded corners*
20,1,$1+$1,$2,$3,$4,$5,0*
20,1,$1+$1,$4,$5,$6,$7,0*
20,1,$1+$1,$6,$7,$8,$9,0*
20,1,$1+$1,$8,$9,$2,$3,0*%
G04 Aperture macros list end*
%ADD10C,3.200000*%
%ADD11C,3.000000*%
%ADD12RoundRect,0.250001X-0.759999X0.499999X-0.759999X-0.499999X0.759999X-0.499999X0.759999X0.499999X0*%
%ADD13O,2.020000X1.500000*%
%ADD14RoundRect,0.250001X-0.499999X-0.759999X0.499999X-0.759999X0.499999X0.759999X-0.499999X0.759999X0*%
%ADD15O,1.500000X2.020000*%
%ADD16RoundRect,0.250001X0.499999X-0.499999X0.499999X0.499999X-0.499999X0.499999X-0.499999X-0.499999X0*%
%ADD17C,1.500000*%
%ADD18RoundRect,0.250001X0.499999X0.759999X-0.499999X0.759999X-0.499999X-0.759999X0.499999X-0.759999X0*%
%ADD19RoundRect,0.250001X0.499999X0.499999X-0.499999X0.499999X-0.499999X-0.499999X0.499999X-0.499999X0*%
%ADD20R,1.700000X1.700000*%
%ADD21O,1.700000X1.700000*%
%ADD22RoundRect,0.250001X-0.499999X-0.499999X0.499999X-0.499999X0.499999X0.499999X-0.499999X0.499999X0*%
G04 APERTURE END LIST*
D10*
%TO.C,MK2*%
X200422400Y-53781000D03*
%TD*%
D11*
%TO.C,J7*%
X200025000Y-88759400D03*
X200025000Y-96459400D03*
D12*
X195705000Y-86609400D03*
D13*
X195705000Y-89609400D03*
X195705000Y-92609400D03*
X195705000Y-95609400D03*
X195705000Y-98609400D03*
%TD*%
D11*
%TO.C,J5*%
X185500000Y-54055000D03*
X190200000Y-54055000D03*
D14*
X183350000Y-58375000D03*
D15*
X186350000Y-58375000D03*
X189350000Y-58375000D03*
X192350000Y-58375000D03*
%TD*%
D11*
%TO.C,J2*%
X93030000Y-107284600D03*
X93030000Y-90584600D03*
D16*
X97350000Y-109444600D03*
D17*
X97350000Y-106444600D03*
X97350000Y-103444600D03*
X97350000Y-100444600D03*
X97350000Y-97444600D03*
X97350000Y-94444600D03*
X97350000Y-91444600D03*
X97350000Y-88444600D03*
X100350000Y-109444600D03*
X100350000Y-106444600D03*
X100350000Y-103444600D03*
X100350000Y-100444600D03*
X100350000Y-97444600D03*
X100350000Y-94444600D03*
X100350000Y-91444600D03*
X100350000Y-88444600D03*
%TD*%
D11*
%TO.C,J16*%
X151625000Y-54055000D03*
D14*
X148625000Y-58375000D03*
D15*
X151625000Y-58375000D03*
X154625000Y-58375000D03*
%TD*%
D11*
%TO.C,J14*%
X171219400Y-134509200D03*
D18*
X174219400Y-130189200D03*
D15*
X171219400Y-130189200D03*
X168219400Y-130189200D03*
%TD*%
D11*
%TO.C,J6*%
X200025000Y-67525000D03*
X200025000Y-75225000D03*
D12*
X195705000Y-65375000D03*
D13*
X195705000Y-68375000D03*
X195705000Y-71375000D03*
X195705000Y-74375000D03*
X195705000Y-77375000D03*
%TD*%
D10*
%TO.C,MK1*%
X92769400Y-53781000D03*
%TD*%
D11*
%TO.C,J8*%
X200025000Y-110352200D03*
X200025000Y-124052200D03*
D12*
X195705000Y-108202200D03*
D13*
X195705000Y-111202200D03*
X195705000Y-114202200D03*
X195705000Y-117202200D03*
X195705000Y-120202200D03*
X195705000Y-123202200D03*
X195705000Y-126202200D03*
%TD*%
D11*
%TO.C,J13*%
X114100000Y-54055000D03*
D14*
X112600000Y-58375000D03*
D15*
X115600000Y-58375000D03*
%TD*%
D11*
%TO.C,J10*%
X93030000Y-124929200D03*
X93030000Y-120229200D03*
D16*
X97350000Y-127089200D03*
D17*
X97350000Y-124089200D03*
X97350000Y-121089200D03*
X97350000Y-118089200D03*
X100350000Y-127089200D03*
X100350000Y-124089200D03*
X100350000Y-121089200D03*
X100350000Y-118089200D03*
%TD*%
D11*
%TO.C,J15*%
X117195600Y-134509200D03*
X109495600Y-134509200D03*
D19*
X119355600Y-130189200D03*
D17*
X116355600Y-130189200D03*
X113355600Y-130189200D03*
X110355600Y-130189200D03*
X107355600Y-130189200D03*
X119355600Y-127189200D03*
X116355600Y-127189200D03*
X113355600Y-127189200D03*
X110355600Y-127189200D03*
X107355600Y-127189200D03*
%TD*%
D20*
%TO.C,U1*%
X132130000Y-63450000D03*
D21*
X132130000Y-65990000D03*
X132130000Y-68530000D03*
X132130000Y-71070000D03*
X132130000Y-73610000D03*
X132130000Y-76150000D03*
X132130000Y-78690000D03*
X132130000Y-81230000D03*
X132130000Y-83770000D03*
X132130000Y-86310000D03*
X132130000Y-88850000D03*
X132130000Y-91390000D03*
X132130000Y-93930000D03*
X132130000Y-96470000D03*
X132130000Y-99010000D03*
X132130000Y-101550000D03*
X132130000Y-104090000D03*
X132130000Y-106630000D03*
X132130000Y-109170000D03*
X132130000Y-111710000D03*
X132130000Y-114250000D03*
X132130000Y-116790000D03*
X132130000Y-119330000D03*
X132130000Y-121870000D03*
X147370000Y-121870000D03*
X147370000Y-119330000D03*
X147370000Y-116790000D03*
X147370000Y-114250000D03*
X147370000Y-111710000D03*
X147370000Y-109170000D03*
X147370000Y-106630000D03*
X147370000Y-104090000D03*
X147370000Y-101550000D03*
X147370000Y-99010000D03*
X147370000Y-96470000D03*
X147370000Y-93930000D03*
X147370000Y-91390000D03*
X147370000Y-88850000D03*
X147370000Y-86310000D03*
X147370000Y-83770000D03*
X147370000Y-81230000D03*
X147370000Y-78690000D03*
X147370000Y-76150000D03*
X147370000Y-73610000D03*
X147370000Y-71070000D03*
X147370000Y-68530000D03*
X147370000Y-65990000D03*
X147370000Y-63450000D03*
%TD*%
D10*
%TO.C,MK3*%
X92769400Y-134865000D03*
%TD*%
D11*
%TO.C,J11*%
X127650000Y-54055000D03*
D14*
X124650000Y-58375000D03*
D15*
X127650000Y-58375000D03*
X130650000Y-58375000D03*
%TD*%
D11*
%TO.C,J9*%
X165147500Y-54055000D03*
X172847500Y-54055000D03*
D22*
X162987500Y-58375000D03*
D17*
X165987500Y-58375000D03*
X168987500Y-58375000D03*
X171987500Y-58375000D03*
X174987500Y-58375000D03*
X162987500Y-61375000D03*
X165987500Y-61375000D03*
X168987500Y-61375000D03*
X171987500Y-61375000D03*
X174987500Y-61375000D03*
%TD*%
D11*
%TO.C,J12*%
X146175000Y-134509200D03*
D18*
X147675000Y-130189200D03*
D15*
X144675000Y-130189200D03*
%TD*%
D10*
%TO.C,MK4*%
X200422400Y-134865000D03*
%TD*%
D11*
%TO.C,J1*%
X93030000Y-77640000D03*
X93030000Y-63940000D03*
D16*
X97350000Y-79800000D03*
D17*
X97350000Y-76800000D03*
X97350000Y-73800000D03*
X97350000Y-70800000D03*
X97350000Y-67800000D03*
X97350000Y-64800000D03*
X97350000Y-61800000D03*
X100350000Y-79800000D03*
X100350000Y-76800000D03*
X100350000Y-73800000D03*
X100350000Y-70800000D03*
X100350000Y-67800000D03*
X100350000Y-64800000D03*
X100350000Y-61800000D03*
%TD*%
M02*
