G04 #@! TF.GenerationSoftware,KiCad,Pcbnew,9.0.1*
G04 #@! TF.CreationDate,2025-06-05T12:53:06-07:00*
G04 #@! TF.ProjectId,chop_microcontroller_board,63686f70-5f6d-4696-9372-6f636f6e7472,rev?*
G04 #@! TF.SameCoordinates,Original*
G04 #@! TF.FileFunction,Legend,Top*
G04 #@! TF.FilePolarity,Positive*
%FSLAX46Y46*%
G04 Gerber Fmt 4.6, Leading zero omitted, Abs format (unit mm)*
G04 Created by KiCad (PCBNEW 9.0.1) date 2025-06-05 12:53:06*
%MOMM*%
%LPD*%
G01*
G04 APERTURE LIST*
G04 Aperture macros list*
%AMRoundRect*
0 Rectangle with rounded corners*
0 $1 Rounding radius*
0 $2 $3 $4 $5 $6 $7 $8 $9 X,Y pos of 4 corners*
0 Add a 4 corners polygon primitive as box body*
4,1,4,$2,$3,$4,$5,$6,$7,$8,$9,$2,$3,0*
0 Add four circle primitives for the rounded corners*
1,1,$1+$1,$2,$3*
1,1,$1+$1,$4,$5*
1,1,$1+$1,$6,$7*
1,1,$1+$1,$8,$9*
0 Add four rect primitives between the rounded corners*
20,1,$1+$1,$2,$3,$4,$5,0*
20,1,$1+$1,$4,$5,$6,$7,0*
20,1,$1+$1,$6,$7,$8,$9,0*
20,1,$1+$1,$8,$9,$2,$3,0*%
G04 Aperture macros list end*
%ADD10C,0.150000*%
%ADD11C,0.153000*%
%ADD12C,0.100000*%
%ADD13C,0.120000*%
%ADD14C,3.200000*%
%ADD15R,1.700000X1.700000*%
%ADD16O,1.700000X1.700000*%
%ADD17RoundRect,0.218750X0.218750X0.256250X-0.218750X0.256250X-0.218750X-0.256250X0.218750X-0.256250X0*%
%ADD18RoundRect,0.218750X-0.256250X0.218750X-0.256250X-0.218750X0.256250X-0.218750X0.256250X0.218750X0*%
%ADD19RoundRect,0.218750X-0.218750X-0.256250X0.218750X-0.256250X0.218750X0.256250X-0.218750X0.256250X0*%
%ADD20RoundRect,0.218750X0.256250X-0.218750X0.256250X0.218750X-0.256250X0.218750X-0.256250X-0.218750X0*%
%ADD21RoundRect,0.237500X0.287500X0.237500X-0.287500X0.237500X-0.287500X-0.237500X0.287500X-0.237500X0*%
%ADD22C,3.000000*%
%ADD23RoundRect,0.250001X-0.499999X-0.759999X0.499999X-0.759999X0.499999X0.759999X-0.499999X0.759999X0*%
%ADD24O,1.500000X2.020000*%
%ADD25RoundRect,0.250000X-0.625000X0.350000X-0.625000X-0.350000X0.625000X-0.350000X0.625000X0.350000X0*%
%ADD26O,1.750000X1.200000*%
%ADD27C,1.700000*%
%ADD28RoundRect,0.250000X-0.262500X-0.450000X0.262500X-0.450000X0.262500X0.450000X-0.262500X0.450000X0*%
%ADD29RoundRect,0.250001X-0.499999X0.499999X-0.499999X-0.499999X0.499999X-0.499999X0.499999X0.499999X0*%
%ADD30C,1.500000*%
%ADD31RoundRect,0.250001X0.499999X-0.499999X0.499999X0.499999X-0.499999X0.499999X-0.499999X-0.499999X0*%
%ADD32R,2.000000X2.000000*%
%ADD33C,2.000000*%
%ADD34R,3.000000X2.500000*%
%ADD35O,1.600000X2.000000*%
G04 APERTURE END LIST*
D10*
X95869819Y-116710839D02*
X94869819Y-116710839D01*
X95346009Y-116710839D02*
X95346009Y-116253696D01*
X95869819Y-116253696D02*
X94869819Y-116253696D01*
X94965057Y-115910840D02*
X94917438Y-115872744D01*
X94917438Y-115872744D02*
X94869819Y-115796554D01*
X94869819Y-115796554D02*
X94869819Y-115606078D01*
X94869819Y-115606078D02*
X94917438Y-115529887D01*
X94917438Y-115529887D02*
X94965057Y-115491792D01*
X94965057Y-115491792D02*
X95060295Y-115453697D01*
X95060295Y-115453697D02*
X95155533Y-115453697D01*
X95155533Y-115453697D02*
X95298390Y-115491792D01*
X95298390Y-115491792D02*
X95869819Y-115948935D01*
X95869819Y-115948935D02*
X95869819Y-115453697D01*
X95774580Y-114653696D02*
X95822200Y-114691792D01*
X95822200Y-114691792D02*
X95869819Y-114806077D01*
X95869819Y-114806077D02*
X95869819Y-114882268D01*
X95869819Y-114882268D02*
X95822200Y-114996554D01*
X95822200Y-114996554D02*
X95726961Y-115072744D01*
X95726961Y-115072744D02*
X95631723Y-115110839D01*
X95631723Y-115110839D02*
X95441247Y-115148935D01*
X95441247Y-115148935D02*
X95298390Y-115148935D01*
X95298390Y-115148935D02*
X95107914Y-115110839D01*
X95107914Y-115110839D02*
X95012676Y-115072744D01*
X95012676Y-115072744D02*
X94917438Y-114996554D01*
X94917438Y-114996554D02*
X94869819Y-114882268D01*
X94869819Y-114882268D02*
X94869819Y-114806077D01*
X94869819Y-114806077D02*
X94917438Y-114691792D01*
X94917438Y-114691792D02*
X94965057Y-114653696D01*
X102369819Y-114210839D02*
X101369819Y-114210839D01*
X101846009Y-114210839D02*
X101846009Y-113753696D01*
X102369819Y-113753696D02*
X101369819Y-113753696D01*
X101465057Y-113410840D02*
X101417438Y-113372744D01*
X101417438Y-113372744D02*
X101369819Y-113296554D01*
X101369819Y-113296554D02*
X101369819Y-113106078D01*
X101369819Y-113106078D02*
X101417438Y-113029887D01*
X101417438Y-113029887D02*
X101465057Y-112991792D01*
X101465057Y-112991792D02*
X101560295Y-112953697D01*
X101560295Y-112953697D02*
X101655533Y-112953697D01*
X101655533Y-112953697D02*
X101798390Y-112991792D01*
X101798390Y-112991792D02*
X102369819Y-113448935D01*
X102369819Y-113448935D02*
X102369819Y-112953697D01*
X102369819Y-112610839D02*
X101369819Y-112610839D01*
X101369819Y-112610839D02*
X101369819Y-112306077D01*
X101369819Y-112306077D02*
X101417438Y-112229887D01*
X101417438Y-112229887D02*
X101465057Y-112191792D01*
X101465057Y-112191792D02*
X101560295Y-112153696D01*
X101560295Y-112153696D02*
X101703152Y-112153696D01*
X101703152Y-112153696D02*
X101798390Y-112191792D01*
X101798390Y-112191792D02*
X101846009Y-112229887D01*
X101846009Y-112229887D02*
X101893628Y-112306077D01*
X101893628Y-112306077D02*
X101893628Y-112610839D01*
X95869819Y-110710839D02*
X94869819Y-110710839D01*
X94869819Y-110710839D02*
X95584104Y-110444173D01*
X95584104Y-110444173D02*
X94869819Y-110177506D01*
X94869819Y-110177506D02*
X95869819Y-110177506D01*
X94869819Y-109644172D02*
X94869819Y-109491791D01*
X94869819Y-109491791D02*
X94917438Y-109415601D01*
X94917438Y-109415601D02*
X95012676Y-109339410D01*
X95012676Y-109339410D02*
X95203152Y-109301315D01*
X95203152Y-109301315D02*
X95536485Y-109301315D01*
X95536485Y-109301315D02*
X95726961Y-109339410D01*
X95726961Y-109339410D02*
X95822200Y-109415601D01*
X95822200Y-109415601D02*
X95869819Y-109491791D01*
X95869819Y-109491791D02*
X95869819Y-109644172D01*
X95869819Y-109644172D02*
X95822200Y-109720363D01*
X95822200Y-109720363D02*
X95726961Y-109796553D01*
X95726961Y-109796553D02*
X95536485Y-109834649D01*
X95536485Y-109834649D02*
X95203152Y-109834649D01*
X95203152Y-109834649D02*
X95012676Y-109796553D01*
X95012676Y-109796553D02*
X94917438Y-109720363D01*
X94917438Y-109720363D02*
X94869819Y-109644172D01*
X95822200Y-108996554D02*
X95869819Y-108882268D01*
X95869819Y-108882268D02*
X95869819Y-108691792D01*
X95869819Y-108691792D02*
X95822200Y-108615601D01*
X95822200Y-108615601D02*
X95774580Y-108577506D01*
X95774580Y-108577506D02*
X95679342Y-108539411D01*
X95679342Y-108539411D02*
X95584104Y-108539411D01*
X95584104Y-108539411D02*
X95488866Y-108577506D01*
X95488866Y-108577506D02*
X95441247Y-108615601D01*
X95441247Y-108615601D02*
X95393628Y-108691792D01*
X95393628Y-108691792D02*
X95346009Y-108844173D01*
X95346009Y-108844173D02*
X95298390Y-108920363D01*
X95298390Y-108920363D02*
X95250771Y-108958458D01*
X95250771Y-108958458D02*
X95155533Y-108996554D01*
X95155533Y-108996554D02*
X95060295Y-108996554D01*
X95060295Y-108996554D02*
X94965057Y-108958458D01*
X94965057Y-108958458D02*
X94917438Y-108920363D01*
X94917438Y-108920363D02*
X94869819Y-108844173D01*
X94869819Y-108844173D02*
X94869819Y-108653696D01*
X94869819Y-108653696D02*
X94917438Y-108539411D01*
X95869819Y-108196553D02*
X94869819Y-108196553D01*
X102369819Y-110710839D02*
X101369819Y-110710839D01*
X101846009Y-110710839D02*
X101846009Y-110253696D01*
X102369819Y-110253696D02*
X101369819Y-110253696D01*
X102369819Y-109453697D02*
X102369819Y-109910840D01*
X102369819Y-109682268D02*
X101369819Y-109682268D01*
X101369819Y-109682268D02*
X101512676Y-109758459D01*
X101512676Y-109758459D02*
X101607914Y-109834649D01*
X101607914Y-109834649D02*
X101655533Y-109910840D01*
X102274580Y-108653696D02*
X102322200Y-108691792D01*
X102322200Y-108691792D02*
X102369819Y-108806077D01*
X102369819Y-108806077D02*
X102369819Y-108882268D01*
X102369819Y-108882268D02*
X102322200Y-108996554D01*
X102322200Y-108996554D02*
X102226961Y-109072744D01*
X102226961Y-109072744D02*
X102131723Y-109110839D01*
X102131723Y-109110839D02*
X101941247Y-109148935D01*
X101941247Y-109148935D02*
X101798390Y-109148935D01*
X101798390Y-109148935D02*
X101607914Y-109110839D01*
X101607914Y-109110839D02*
X101512676Y-109072744D01*
X101512676Y-109072744D02*
X101417438Y-108996554D01*
X101417438Y-108996554D02*
X101369819Y-108882268D01*
X101369819Y-108882268D02*
X101369819Y-108806077D01*
X101369819Y-108806077D02*
X101417438Y-108691792D01*
X101417438Y-108691792D02*
X101465057Y-108653696D01*
X102322200Y-107748935D02*
X102369819Y-107634649D01*
X102369819Y-107634649D02*
X102369819Y-107444173D01*
X102369819Y-107444173D02*
X102322200Y-107367982D01*
X102322200Y-107367982D02*
X102274580Y-107329887D01*
X102274580Y-107329887D02*
X102179342Y-107291792D01*
X102179342Y-107291792D02*
X102084104Y-107291792D01*
X102084104Y-107291792D02*
X101988866Y-107329887D01*
X101988866Y-107329887D02*
X101941247Y-107367982D01*
X101941247Y-107367982D02*
X101893628Y-107444173D01*
X101893628Y-107444173D02*
X101846009Y-107596554D01*
X101846009Y-107596554D02*
X101798390Y-107672744D01*
X101798390Y-107672744D02*
X101750771Y-107710839D01*
X101750771Y-107710839D02*
X101655533Y-107748935D01*
X101655533Y-107748935D02*
X101560295Y-107748935D01*
X101560295Y-107748935D02*
X101465057Y-107710839D01*
X101465057Y-107710839D02*
X101417438Y-107672744D01*
X101417438Y-107672744D02*
X101369819Y-107596554D01*
X101369819Y-107596554D02*
X101369819Y-107406077D01*
X101369819Y-107406077D02*
X101417438Y-107291792D01*
X102274580Y-106491791D02*
X102322200Y-106529887D01*
X102322200Y-106529887D02*
X102369819Y-106644172D01*
X102369819Y-106644172D02*
X102369819Y-106720363D01*
X102369819Y-106720363D02*
X102322200Y-106834649D01*
X102322200Y-106834649D02*
X102226961Y-106910839D01*
X102226961Y-106910839D02*
X102131723Y-106948934D01*
X102131723Y-106948934D02*
X101941247Y-106987030D01*
X101941247Y-106987030D02*
X101798390Y-106987030D01*
X101798390Y-106987030D02*
X101607914Y-106948934D01*
X101607914Y-106948934D02*
X101512676Y-106910839D01*
X101512676Y-106910839D02*
X101417438Y-106834649D01*
X101417438Y-106834649D02*
X101369819Y-106720363D01*
X101369819Y-106720363D02*
X101369819Y-106644172D01*
X101369819Y-106644172D02*
X101417438Y-106529887D01*
X101417438Y-106529887D02*
X101465057Y-106491791D01*
X102369819Y-106148934D02*
X101369819Y-106148934D01*
X102369819Y-105691791D02*
X101798390Y-106034649D01*
X101369819Y-105691791D02*
X101941247Y-106148934D01*
X102369819Y-119710839D02*
X101369819Y-119710839D01*
X101846009Y-119710839D02*
X101846009Y-119253696D01*
X102369819Y-119253696D02*
X101369819Y-119253696D01*
X101703152Y-118529887D02*
X102369819Y-118529887D01*
X101322200Y-118720363D02*
X102036485Y-118910840D01*
X102036485Y-118910840D02*
X102036485Y-118415601D01*
X102369819Y-118110839D02*
X101369819Y-118110839D01*
X101369819Y-118110839D02*
X101369819Y-117806077D01*
X101369819Y-117806077D02*
X101417438Y-117729887D01*
X101417438Y-117729887D02*
X101465057Y-117691792D01*
X101465057Y-117691792D02*
X101560295Y-117653696D01*
X101560295Y-117653696D02*
X101703152Y-117653696D01*
X101703152Y-117653696D02*
X101798390Y-117691792D01*
X101798390Y-117691792D02*
X101846009Y-117729887D01*
X101846009Y-117729887D02*
X101893628Y-117806077D01*
X101893628Y-117806077D02*
X101893628Y-118110839D01*
X102467438Y-117223778D02*
X101467438Y-117223778D01*
X101943628Y-117223778D02*
X101943628Y-116766635D01*
X102467438Y-116766635D02*
X101467438Y-116766635D01*
X101467438Y-116461874D02*
X101467438Y-115966636D01*
X101467438Y-115966636D02*
X101848390Y-116233302D01*
X101848390Y-116233302D02*
X101848390Y-116119017D01*
X101848390Y-116119017D02*
X101896009Y-116042826D01*
X101896009Y-116042826D02*
X101943628Y-116004731D01*
X101943628Y-116004731D02*
X102038866Y-115966636D01*
X102038866Y-115966636D02*
X102276961Y-115966636D01*
X102276961Y-115966636D02*
X102372199Y-116004731D01*
X102372199Y-116004731D02*
X102419819Y-116042826D01*
X102419819Y-116042826D02*
X102467438Y-116119017D01*
X102467438Y-116119017D02*
X102467438Y-116347588D01*
X102467438Y-116347588D02*
X102419819Y-116423779D01*
X102419819Y-116423779D02*
X102372199Y-116461874D01*
X102372199Y-115166635D02*
X102419819Y-115204731D01*
X102419819Y-115204731D02*
X102467438Y-115319016D01*
X102467438Y-115319016D02*
X102467438Y-115395207D01*
X102467438Y-115395207D02*
X102419819Y-115509493D01*
X102419819Y-115509493D02*
X102324580Y-115585683D01*
X102324580Y-115585683D02*
X102229342Y-115623778D01*
X102229342Y-115623778D02*
X102038866Y-115661874D01*
X102038866Y-115661874D02*
X101896009Y-115661874D01*
X101896009Y-115661874D02*
X101705533Y-115623778D01*
X101705533Y-115623778D02*
X101610295Y-115585683D01*
X101610295Y-115585683D02*
X101515057Y-115509493D01*
X101515057Y-115509493D02*
X101467438Y-115395207D01*
X101467438Y-115395207D02*
X101467438Y-115319016D01*
X101467438Y-115319016D02*
X101515057Y-115204731D01*
X101515057Y-115204731D02*
X101562676Y-115166635D01*
X95822200Y-125748935D02*
X95869819Y-125634649D01*
X95869819Y-125634649D02*
X95869819Y-125444173D01*
X95869819Y-125444173D02*
X95822200Y-125367982D01*
X95822200Y-125367982D02*
X95774580Y-125329887D01*
X95774580Y-125329887D02*
X95679342Y-125291792D01*
X95679342Y-125291792D02*
X95584104Y-125291792D01*
X95584104Y-125291792D02*
X95488866Y-125329887D01*
X95488866Y-125329887D02*
X95441247Y-125367982D01*
X95441247Y-125367982D02*
X95393628Y-125444173D01*
X95393628Y-125444173D02*
X95346009Y-125596554D01*
X95346009Y-125596554D02*
X95298390Y-125672744D01*
X95298390Y-125672744D02*
X95250771Y-125710839D01*
X95250771Y-125710839D02*
X95155533Y-125748935D01*
X95155533Y-125748935D02*
X95060295Y-125748935D01*
X95060295Y-125748935D02*
X94965057Y-125710839D01*
X94965057Y-125710839D02*
X94917438Y-125672744D01*
X94917438Y-125672744D02*
X94869819Y-125596554D01*
X94869819Y-125596554D02*
X94869819Y-125406077D01*
X94869819Y-125406077D02*
X94917438Y-125291792D01*
X95346009Y-124682268D02*
X95346009Y-124948934D01*
X95869819Y-124948934D02*
X94869819Y-124948934D01*
X94869819Y-124948934D02*
X94869819Y-124567982D01*
X95774580Y-123806077D02*
X95822200Y-123844173D01*
X95822200Y-123844173D02*
X95869819Y-123958458D01*
X95869819Y-123958458D02*
X95869819Y-124034649D01*
X95869819Y-124034649D02*
X95822200Y-124148935D01*
X95822200Y-124148935D02*
X95726961Y-124225125D01*
X95726961Y-124225125D02*
X95631723Y-124263220D01*
X95631723Y-124263220D02*
X95441247Y-124301316D01*
X95441247Y-124301316D02*
X95298390Y-124301316D01*
X95298390Y-124301316D02*
X95107914Y-124263220D01*
X95107914Y-124263220D02*
X95012676Y-124225125D01*
X95012676Y-124225125D02*
X94917438Y-124148935D01*
X94917438Y-124148935D02*
X94869819Y-124034649D01*
X94869819Y-124034649D02*
X94869819Y-123958458D01*
X94869819Y-123958458D02*
X94917438Y-123844173D01*
X94917438Y-123844173D02*
X94965057Y-123806077D01*
X95869819Y-119710839D02*
X94869819Y-119710839D01*
X95346009Y-119710839D02*
X95346009Y-119253696D01*
X95869819Y-119253696D02*
X94869819Y-119253696D01*
X94869819Y-118948935D02*
X94869819Y-118453697D01*
X94869819Y-118453697D02*
X95250771Y-118720363D01*
X95250771Y-118720363D02*
X95250771Y-118606078D01*
X95250771Y-118606078D02*
X95298390Y-118529887D01*
X95298390Y-118529887D02*
X95346009Y-118491792D01*
X95346009Y-118491792D02*
X95441247Y-118453697D01*
X95441247Y-118453697D02*
X95679342Y-118453697D01*
X95679342Y-118453697D02*
X95774580Y-118491792D01*
X95774580Y-118491792D02*
X95822200Y-118529887D01*
X95822200Y-118529887D02*
X95869819Y-118606078D01*
X95869819Y-118606078D02*
X95869819Y-118834649D01*
X95869819Y-118834649D02*
X95822200Y-118910840D01*
X95822200Y-118910840D02*
X95774580Y-118948935D01*
X95869819Y-118110839D02*
X94869819Y-118110839D01*
X94869819Y-118110839D02*
X94869819Y-117806077D01*
X94869819Y-117806077D02*
X94917438Y-117729887D01*
X94917438Y-117729887D02*
X94965057Y-117691792D01*
X94965057Y-117691792D02*
X95060295Y-117653696D01*
X95060295Y-117653696D02*
X95203152Y-117653696D01*
X95203152Y-117653696D02*
X95298390Y-117691792D01*
X95298390Y-117691792D02*
X95346009Y-117729887D01*
X95346009Y-117729887D02*
X95393628Y-117806077D01*
X95393628Y-117806077D02*
X95393628Y-118110839D01*
X95869819Y-113710839D02*
X94869819Y-113710839D01*
X95346009Y-113710839D02*
X95346009Y-113253696D01*
X95869819Y-113253696D02*
X94869819Y-113253696D01*
X95869819Y-112453697D02*
X95869819Y-112910840D01*
X95869819Y-112682268D02*
X94869819Y-112682268D01*
X94869819Y-112682268D02*
X95012676Y-112758459D01*
X95012676Y-112758459D02*
X95107914Y-112834649D01*
X95107914Y-112834649D02*
X95155533Y-112910840D01*
X95869819Y-112110839D02*
X94869819Y-112110839D01*
X94869819Y-112110839D02*
X94869819Y-111806077D01*
X94869819Y-111806077D02*
X94917438Y-111729887D01*
X94917438Y-111729887D02*
X94965057Y-111691792D01*
X94965057Y-111691792D02*
X95060295Y-111653696D01*
X95060295Y-111653696D02*
X95203152Y-111653696D01*
X95203152Y-111653696D02*
X95298390Y-111691792D01*
X95298390Y-111691792D02*
X95346009Y-111729887D01*
X95346009Y-111729887D02*
X95393628Y-111806077D01*
X95393628Y-111806077D02*
X95393628Y-112110839D01*
X95869819Y-122710839D02*
X94869819Y-122710839D01*
X95346009Y-122710839D02*
X95346009Y-122253696D01*
X95869819Y-122253696D02*
X94869819Y-122253696D01*
X95203152Y-121529887D02*
X95869819Y-121529887D01*
X94822200Y-121720363D02*
X95536485Y-121910840D01*
X95536485Y-121910840D02*
X95536485Y-121415601D01*
X95774580Y-120653696D02*
X95822200Y-120691792D01*
X95822200Y-120691792D02*
X95869819Y-120806077D01*
X95869819Y-120806077D02*
X95869819Y-120882268D01*
X95869819Y-120882268D02*
X95822200Y-120996554D01*
X95822200Y-120996554D02*
X95726961Y-121072744D01*
X95726961Y-121072744D02*
X95631723Y-121110839D01*
X95631723Y-121110839D02*
X95441247Y-121148935D01*
X95441247Y-121148935D02*
X95298390Y-121148935D01*
X95298390Y-121148935D02*
X95107914Y-121110839D01*
X95107914Y-121110839D02*
X95012676Y-121072744D01*
X95012676Y-121072744D02*
X94917438Y-120996554D01*
X94917438Y-120996554D02*
X94869819Y-120882268D01*
X94869819Y-120882268D02*
X94869819Y-120806077D01*
X94869819Y-120806077D02*
X94917438Y-120691792D01*
X94917438Y-120691792D02*
X94965057Y-120653696D01*
X208768076Y-82098819D02*
X208768076Y-81098819D01*
X208768076Y-81098819D02*
X209101409Y-81813104D01*
X209101409Y-81813104D02*
X209434742Y-81098819D01*
X209434742Y-81098819D02*
X209434742Y-82098819D01*
X209910933Y-82098819D02*
X209910933Y-81098819D01*
X210482361Y-82098819D02*
X210053790Y-81527390D01*
X210482361Y-81098819D02*
X209910933Y-81670247D01*
X210863314Y-81194057D02*
X210910933Y-81146438D01*
X210910933Y-81146438D02*
X211006171Y-81098819D01*
X211006171Y-81098819D02*
X211244266Y-81098819D01*
X211244266Y-81098819D02*
X211339504Y-81146438D01*
X211339504Y-81146438D02*
X211387123Y-81194057D01*
X211387123Y-81194057D02*
X211434742Y-81289295D01*
X211434742Y-81289295D02*
X211434742Y-81384533D01*
X211434742Y-81384533D02*
X211387123Y-81527390D01*
X211387123Y-81527390D02*
X210815695Y-82098819D01*
X210815695Y-82098819D02*
X211434742Y-82098819D01*
X148857142Y-95454819D02*
X148523809Y-94978628D01*
X148285714Y-95454819D02*
X148285714Y-94454819D01*
X148285714Y-94454819D02*
X148666666Y-94454819D01*
X148666666Y-94454819D02*
X148761904Y-94502438D01*
X148761904Y-94502438D02*
X148809523Y-94550057D01*
X148809523Y-94550057D02*
X148857142Y-94645295D01*
X148857142Y-94645295D02*
X148857142Y-94788152D01*
X148857142Y-94788152D02*
X148809523Y-94883390D01*
X148809523Y-94883390D02*
X148761904Y-94931009D01*
X148761904Y-94931009D02*
X148666666Y-94978628D01*
X148666666Y-94978628D02*
X148285714Y-94978628D01*
X149809523Y-95454819D02*
X149238095Y-95454819D01*
X149523809Y-95454819D02*
X149523809Y-94454819D01*
X149523809Y-94454819D02*
X149428571Y-94597676D01*
X149428571Y-94597676D02*
X149333333Y-94692914D01*
X149333333Y-94692914D02*
X149238095Y-94740533D01*
X150666666Y-94454819D02*
X150476190Y-94454819D01*
X150476190Y-94454819D02*
X150380952Y-94502438D01*
X150380952Y-94502438D02*
X150333333Y-94550057D01*
X150333333Y-94550057D02*
X150238095Y-94692914D01*
X150238095Y-94692914D02*
X150190476Y-94883390D01*
X150190476Y-94883390D02*
X150190476Y-95264342D01*
X150190476Y-95264342D02*
X150238095Y-95359580D01*
X150238095Y-95359580D02*
X150285714Y-95407200D01*
X150285714Y-95407200D02*
X150380952Y-95454819D01*
X150380952Y-95454819D02*
X150571428Y-95454819D01*
X150571428Y-95454819D02*
X150666666Y-95407200D01*
X150666666Y-95407200D02*
X150714285Y-95359580D01*
X150714285Y-95359580D02*
X150761904Y-95264342D01*
X150761904Y-95264342D02*
X150761904Y-95026247D01*
X150761904Y-95026247D02*
X150714285Y-94931009D01*
X150714285Y-94931009D02*
X150666666Y-94883390D01*
X150666666Y-94883390D02*
X150571428Y-94835771D01*
X150571428Y-94835771D02*
X150380952Y-94835771D01*
X150380952Y-94835771D02*
X150285714Y-94883390D01*
X150285714Y-94883390D02*
X150238095Y-94931009D01*
X150238095Y-94931009D02*
X150190476Y-95026247D01*
X106884819Y-118166666D02*
X106408628Y-118499999D01*
X106884819Y-118738094D02*
X105884819Y-118738094D01*
X105884819Y-118738094D02*
X105884819Y-118357142D01*
X105884819Y-118357142D02*
X105932438Y-118261904D01*
X105932438Y-118261904D02*
X105980057Y-118214285D01*
X105980057Y-118214285D02*
X106075295Y-118166666D01*
X106075295Y-118166666D02*
X106218152Y-118166666D01*
X106218152Y-118166666D02*
X106313390Y-118214285D01*
X106313390Y-118214285D02*
X106361009Y-118261904D01*
X106361009Y-118261904D02*
X106408628Y-118357142D01*
X106408628Y-118357142D02*
X106408628Y-118738094D01*
X105884819Y-117833332D02*
X105884819Y-117214285D01*
X105884819Y-117214285D02*
X106265771Y-117547618D01*
X106265771Y-117547618D02*
X106265771Y-117404761D01*
X106265771Y-117404761D02*
X106313390Y-117309523D01*
X106313390Y-117309523D02*
X106361009Y-117261904D01*
X106361009Y-117261904D02*
X106456247Y-117214285D01*
X106456247Y-117214285D02*
X106694342Y-117214285D01*
X106694342Y-117214285D02*
X106789580Y-117261904D01*
X106789580Y-117261904D02*
X106837200Y-117309523D01*
X106837200Y-117309523D02*
X106884819Y-117404761D01*
X106884819Y-117404761D02*
X106884819Y-117690475D01*
X106884819Y-117690475D02*
X106837200Y-117785713D01*
X106837200Y-117785713D02*
X106789580Y-117833332D01*
X108357142Y-104524819D02*
X108023809Y-104048628D01*
X107785714Y-104524819D02*
X107785714Y-103524819D01*
X107785714Y-103524819D02*
X108166666Y-103524819D01*
X108166666Y-103524819D02*
X108261904Y-103572438D01*
X108261904Y-103572438D02*
X108309523Y-103620057D01*
X108309523Y-103620057D02*
X108357142Y-103715295D01*
X108357142Y-103715295D02*
X108357142Y-103858152D01*
X108357142Y-103858152D02*
X108309523Y-103953390D01*
X108309523Y-103953390D02*
X108261904Y-104001009D01*
X108261904Y-104001009D02*
X108166666Y-104048628D01*
X108166666Y-104048628D02*
X107785714Y-104048628D01*
X108690476Y-103524819D02*
X109309523Y-103524819D01*
X109309523Y-103524819D02*
X108976190Y-103905771D01*
X108976190Y-103905771D02*
X109119047Y-103905771D01*
X109119047Y-103905771D02*
X109214285Y-103953390D01*
X109214285Y-103953390D02*
X109261904Y-104001009D01*
X109261904Y-104001009D02*
X109309523Y-104096247D01*
X109309523Y-104096247D02*
X109309523Y-104334342D01*
X109309523Y-104334342D02*
X109261904Y-104429580D01*
X109261904Y-104429580D02*
X109214285Y-104477200D01*
X109214285Y-104477200D02*
X109119047Y-104524819D01*
X109119047Y-104524819D02*
X108833333Y-104524819D01*
X108833333Y-104524819D02*
X108738095Y-104477200D01*
X108738095Y-104477200D02*
X108690476Y-104429580D01*
X109928571Y-103524819D02*
X110023809Y-103524819D01*
X110023809Y-103524819D02*
X110119047Y-103572438D01*
X110119047Y-103572438D02*
X110166666Y-103620057D01*
X110166666Y-103620057D02*
X110214285Y-103715295D01*
X110214285Y-103715295D02*
X110261904Y-103905771D01*
X110261904Y-103905771D02*
X110261904Y-104143866D01*
X110261904Y-104143866D02*
X110214285Y-104334342D01*
X110214285Y-104334342D02*
X110166666Y-104429580D01*
X110166666Y-104429580D02*
X110119047Y-104477200D01*
X110119047Y-104477200D02*
X110023809Y-104524819D01*
X110023809Y-104524819D02*
X109928571Y-104524819D01*
X109928571Y-104524819D02*
X109833333Y-104477200D01*
X109833333Y-104477200D02*
X109785714Y-104429580D01*
X109785714Y-104429580D02*
X109738095Y-104334342D01*
X109738095Y-104334342D02*
X109690476Y-104143866D01*
X109690476Y-104143866D02*
X109690476Y-103905771D01*
X109690476Y-103905771D02*
X109738095Y-103715295D01*
X109738095Y-103715295D02*
X109785714Y-103620057D01*
X109785714Y-103620057D02*
X109833333Y-103572438D01*
X109833333Y-103572438D02*
X109928571Y-103524819D01*
X105524819Y-113381266D02*
X105048628Y-113714599D01*
X105524819Y-113952694D02*
X104524819Y-113952694D01*
X104524819Y-113952694D02*
X104524819Y-113571742D01*
X104524819Y-113571742D02*
X104572438Y-113476504D01*
X104572438Y-113476504D02*
X104620057Y-113428885D01*
X104620057Y-113428885D02*
X104715295Y-113381266D01*
X104715295Y-113381266D02*
X104858152Y-113381266D01*
X104858152Y-113381266D02*
X104953390Y-113428885D01*
X104953390Y-113428885D02*
X105001009Y-113476504D01*
X105001009Y-113476504D02*
X105048628Y-113571742D01*
X105048628Y-113571742D02*
X105048628Y-113952694D01*
X104620057Y-113000313D02*
X104572438Y-112952694D01*
X104572438Y-112952694D02*
X104524819Y-112857456D01*
X104524819Y-112857456D02*
X104524819Y-112619361D01*
X104524819Y-112619361D02*
X104572438Y-112524123D01*
X104572438Y-112524123D02*
X104620057Y-112476504D01*
X104620057Y-112476504D02*
X104715295Y-112428885D01*
X104715295Y-112428885D02*
X104810533Y-112428885D01*
X104810533Y-112428885D02*
X104953390Y-112476504D01*
X104953390Y-112476504D02*
X105524819Y-113047932D01*
X105524819Y-113047932D02*
X105524819Y-112428885D01*
X106333333Y-103859580D02*
X106285714Y-103907200D01*
X106285714Y-103907200D02*
X106142857Y-103954819D01*
X106142857Y-103954819D02*
X106047619Y-103954819D01*
X106047619Y-103954819D02*
X105904762Y-103907200D01*
X105904762Y-103907200D02*
X105809524Y-103811961D01*
X105809524Y-103811961D02*
X105761905Y-103716723D01*
X105761905Y-103716723D02*
X105714286Y-103526247D01*
X105714286Y-103526247D02*
X105714286Y-103383390D01*
X105714286Y-103383390D02*
X105761905Y-103192914D01*
X105761905Y-103192914D02*
X105809524Y-103097676D01*
X105809524Y-103097676D02*
X105904762Y-103002438D01*
X105904762Y-103002438D02*
X106047619Y-102954819D01*
X106047619Y-102954819D02*
X106142857Y-102954819D01*
X106142857Y-102954819D02*
X106285714Y-103002438D01*
X106285714Y-103002438D02*
X106333333Y-103050057D01*
X106666667Y-102954819D02*
X107285714Y-102954819D01*
X107285714Y-102954819D02*
X106952381Y-103335771D01*
X106952381Y-103335771D02*
X107095238Y-103335771D01*
X107095238Y-103335771D02*
X107190476Y-103383390D01*
X107190476Y-103383390D02*
X107238095Y-103431009D01*
X107238095Y-103431009D02*
X107285714Y-103526247D01*
X107285714Y-103526247D02*
X107285714Y-103764342D01*
X107285714Y-103764342D02*
X107238095Y-103859580D01*
X107238095Y-103859580D02*
X107190476Y-103907200D01*
X107190476Y-103907200D02*
X107095238Y-103954819D01*
X107095238Y-103954819D02*
X106809524Y-103954819D01*
X106809524Y-103954819D02*
X106714286Y-103907200D01*
X106714286Y-103907200D02*
X106666667Y-103859580D01*
X158166666Y-71954819D02*
X158166666Y-72669104D01*
X158166666Y-72669104D02*
X158119047Y-72811961D01*
X158119047Y-72811961D02*
X158023809Y-72907200D01*
X158023809Y-72907200D02*
X157880952Y-72954819D01*
X157880952Y-72954819D02*
X157785714Y-72954819D01*
X158547619Y-71954819D02*
X159214285Y-71954819D01*
X159214285Y-71954819D02*
X158785714Y-72954819D01*
X96504819Y-95309523D02*
X97219104Y-95309523D01*
X97219104Y-95309523D02*
X97361961Y-95357142D01*
X97361961Y-95357142D02*
X97457200Y-95452380D01*
X97457200Y-95452380D02*
X97504819Y-95595237D01*
X97504819Y-95595237D02*
X97504819Y-95690475D01*
X97504819Y-94309523D02*
X97504819Y-94880951D01*
X97504819Y-94595237D02*
X96504819Y-94595237D01*
X96504819Y-94595237D02*
X96647676Y-94690475D01*
X96647676Y-94690475D02*
X96742914Y-94785713D01*
X96742914Y-94785713D02*
X96790533Y-94880951D01*
X96838152Y-93452380D02*
X97504819Y-93452380D01*
X96457200Y-93690475D02*
X97171485Y-93928570D01*
X97171485Y-93928570D02*
X97171485Y-93309523D01*
X180466666Y-82454819D02*
X180466666Y-83169104D01*
X180466666Y-83169104D02*
X180419047Y-83311961D01*
X180419047Y-83311961D02*
X180323809Y-83407200D01*
X180323809Y-83407200D02*
X180180952Y-83454819D01*
X180180952Y-83454819D02*
X180085714Y-83454819D01*
X181371428Y-82454819D02*
X181180952Y-82454819D01*
X181180952Y-82454819D02*
X181085714Y-82502438D01*
X181085714Y-82502438D02*
X181038095Y-82550057D01*
X181038095Y-82550057D02*
X180942857Y-82692914D01*
X180942857Y-82692914D02*
X180895238Y-82883390D01*
X180895238Y-82883390D02*
X180895238Y-83264342D01*
X180895238Y-83264342D02*
X180942857Y-83359580D01*
X180942857Y-83359580D02*
X180990476Y-83407200D01*
X180990476Y-83407200D02*
X181085714Y-83454819D01*
X181085714Y-83454819D02*
X181276190Y-83454819D01*
X181276190Y-83454819D02*
X181371428Y-83407200D01*
X181371428Y-83407200D02*
X181419047Y-83359580D01*
X181419047Y-83359580D02*
X181466666Y-83264342D01*
X181466666Y-83264342D02*
X181466666Y-83026247D01*
X181466666Y-83026247D02*
X181419047Y-82931009D01*
X181419047Y-82931009D02*
X181371428Y-82883390D01*
X181371428Y-82883390D02*
X181276190Y-82835771D01*
X181276190Y-82835771D02*
X181085714Y-82835771D01*
X181085714Y-82835771D02*
X180990476Y-82883390D01*
X180990476Y-82883390D02*
X180942857Y-82931009D01*
X180942857Y-82931009D02*
X180895238Y-83026247D01*
X106333333Y-96859580D02*
X106285714Y-96907200D01*
X106285714Y-96907200D02*
X106142857Y-96954819D01*
X106142857Y-96954819D02*
X106047619Y-96954819D01*
X106047619Y-96954819D02*
X105904762Y-96907200D01*
X105904762Y-96907200D02*
X105809524Y-96811961D01*
X105809524Y-96811961D02*
X105761905Y-96716723D01*
X105761905Y-96716723D02*
X105714286Y-96526247D01*
X105714286Y-96526247D02*
X105714286Y-96383390D01*
X105714286Y-96383390D02*
X105761905Y-96192914D01*
X105761905Y-96192914D02*
X105809524Y-96097676D01*
X105809524Y-96097676D02*
X105904762Y-96002438D01*
X105904762Y-96002438D02*
X106047619Y-95954819D01*
X106047619Y-95954819D02*
X106142857Y-95954819D01*
X106142857Y-95954819D02*
X106285714Y-96002438D01*
X106285714Y-96002438D02*
X106333333Y-96050057D01*
X107190476Y-96288152D02*
X107190476Y-96954819D01*
X106952381Y-95907200D02*
X106714286Y-96621485D01*
X106714286Y-96621485D02*
X107333333Y-96621485D01*
X107384819Y-109666666D02*
X106908628Y-109999999D01*
X107384819Y-110238094D02*
X106384819Y-110238094D01*
X106384819Y-110238094D02*
X106384819Y-109857142D01*
X106384819Y-109857142D02*
X106432438Y-109761904D01*
X106432438Y-109761904D02*
X106480057Y-109714285D01*
X106480057Y-109714285D02*
X106575295Y-109666666D01*
X106575295Y-109666666D02*
X106718152Y-109666666D01*
X106718152Y-109666666D02*
X106813390Y-109714285D01*
X106813390Y-109714285D02*
X106861009Y-109761904D01*
X106861009Y-109761904D02*
X106908628Y-109857142D01*
X106908628Y-109857142D02*
X106908628Y-110238094D01*
X107384819Y-108714285D02*
X107384819Y-109285713D01*
X107384819Y-108999999D02*
X106384819Y-108999999D01*
X106384819Y-108999999D02*
X106527676Y-109095237D01*
X106527676Y-109095237D02*
X106622914Y-109190475D01*
X106622914Y-109190475D02*
X106670533Y-109285713D01*
X97134476Y-77219619D02*
X97134476Y-76219619D01*
X97134476Y-76219619D02*
X97467809Y-76933904D01*
X97467809Y-76933904D02*
X97801142Y-76219619D01*
X97801142Y-76219619D02*
X97801142Y-77219619D01*
X98277333Y-77219619D02*
X98277333Y-76219619D01*
X98848761Y-77219619D02*
X98420190Y-76648190D01*
X98848761Y-76219619D02*
X98277333Y-76791047D01*
X99801142Y-77219619D02*
X99229714Y-77219619D01*
X99515428Y-77219619D02*
X99515428Y-76219619D01*
X99515428Y-76219619D02*
X99420190Y-76362476D01*
X99420190Y-76362476D02*
X99324952Y-76457714D01*
X99324952Y-76457714D02*
X99229714Y-76505333D01*
X106524819Y-120666666D02*
X106048628Y-120999999D01*
X106524819Y-121238094D02*
X105524819Y-121238094D01*
X105524819Y-121238094D02*
X105524819Y-120857142D01*
X105524819Y-120857142D02*
X105572438Y-120761904D01*
X105572438Y-120761904D02*
X105620057Y-120714285D01*
X105620057Y-120714285D02*
X105715295Y-120666666D01*
X105715295Y-120666666D02*
X105858152Y-120666666D01*
X105858152Y-120666666D02*
X105953390Y-120714285D01*
X105953390Y-120714285D02*
X106001009Y-120761904D01*
X106001009Y-120761904D02*
X106048628Y-120857142D01*
X106048628Y-120857142D02*
X106048628Y-121238094D01*
X105858152Y-119809523D02*
X106524819Y-119809523D01*
X105477200Y-120047618D02*
X106191485Y-120285713D01*
X106191485Y-120285713D02*
X106191485Y-119666666D01*
X159238095Y-81954819D02*
X159238095Y-82764342D01*
X159238095Y-82764342D02*
X159285714Y-82859580D01*
X159285714Y-82859580D02*
X159333333Y-82907200D01*
X159333333Y-82907200D02*
X159428571Y-82954819D01*
X159428571Y-82954819D02*
X159619047Y-82954819D01*
X159619047Y-82954819D02*
X159714285Y-82907200D01*
X159714285Y-82907200D02*
X159761904Y-82859580D01*
X159761904Y-82859580D02*
X159809523Y-82764342D01*
X159809523Y-82764342D02*
X159809523Y-81954819D01*
X160714285Y-82288152D02*
X160714285Y-82954819D01*
X160476190Y-81907200D02*
X160238095Y-82621485D01*
X160238095Y-82621485D02*
X160857142Y-82621485D01*
X137833333Y-119454819D02*
X137500000Y-118978628D01*
X137261905Y-119454819D02*
X137261905Y-118454819D01*
X137261905Y-118454819D02*
X137642857Y-118454819D01*
X137642857Y-118454819D02*
X137738095Y-118502438D01*
X137738095Y-118502438D02*
X137785714Y-118550057D01*
X137785714Y-118550057D02*
X137833333Y-118645295D01*
X137833333Y-118645295D02*
X137833333Y-118788152D01*
X137833333Y-118788152D02*
X137785714Y-118883390D01*
X137785714Y-118883390D02*
X137738095Y-118931009D01*
X137738095Y-118931009D02*
X137642857Y-118978628D01*
X137642857Y-118978628D02*
X137261905Y-118978628D01*
X138166667Y-118454819D02*
X138833333Y-118454819D01*
X138833333Y-118454819D02*
X138404762Y-119454819D01*
X145857142Y-119454819D02*
X145523809Y-118978628D01*
X145285714Y-119454819D02*
X145285714Y-118454819D01*
X145285714Y-118454819D02*
X145666666Y-118454819D01*
X145666666Y-118454819D02*
X145761904Y-118502438D01*
X145761904Y-118502438D02*
X145809523Y-118550057D01*
X145809523Y-118550057D02*
X145857142Y-118645295D01*
X145857142Y-118645295D02*
X145857142Y-118788152D01*
X145857142Y-118788152D02*
X145809523Y-118883390D01*
X145809523Y-118883390D02*
X145761904Y-118931009D01*
X145761904Y-118931009D02*
X145666666Y-118978628D01*
X145666666Y-118978628D02*
X145285714Y-118978628D01*
X146809523Y-119454819D02*
X146238095Y-119454819D01*
X146523809Y-119454819D02*
X146523809Y-118454819D01*
X146523809Y-118454819D02*
X146428571Y-118597676D01*
X146428571Y-118597676D02*
X146333333Y-118692914D01*
X146333333Y-118692914D02*
X146238095Y-118740533D01*
X147380952Y-118883390D02*
X147285714Y-118835771D01*
X147285714Y-118835771D02*
X147238095Y-118788152D01*
X147238095Y-118788152D02*
X147190476Y-118692914D01*
X147190476Y-118692914D02*
X147190476Y-118645295D01*
X147190476Y-118645295D02*
X147238095Y-118550057D01*
X147238095Y-118550057D02*
X147285714Y-118502438D01*
X147285714Y-118502438D02*
X147380952Y-118454819D01*
X147380952Y-118454819D02*
X147571428Y-118454819D01*
X147571428Y-118454819D02*
X147666666Y-118502438D01*
X147666666Y-118502438D02*
X147714285Y-118550057D01*
X147714285Y-118550057D02*
X147761904Y-118645295D01*
X147761904Y-118645295D02*
X147761904Y-118692914D01*
X147761904Y-118692914D02*
X147714285Y-118788152D01*
X147714285Y-118788152D02*
X147666666Y-118835771D01*
X147666666Y-118835771D02*
X147571428Y-118883390D01*
X147571428Y-118883390D02*
X147380952Y-118883390D01*
X147380952Y-118883390D02*
X147285714Y-118931009D01*
X147285714Y-118931009D02*
X147238095Y-118978628D01*
X147238095Y-118978628D02*
X147190476Y-119073866D01*
X147190476Y-119073866D02*
X147190476Y-119264342D01*
X147190476Y-119264342D02*
X147238095Y-119359580D01*
X147238095Y-119359580D02*
X147285714Y-119407200D01*
X147285714Y-119407200D02*
X147380952Y-119454819D01*
X147380952Y-119454819D02*
X147571428Y-119454819D01*
X147571428Y-119454819D02*
X147666666Y-119407200D01*
X147666666Y-119407200D02*
X147714285Y-119359580D01*
X147714285Y-119359580D02*
X147761904Y-119264342D01*
X147761904Y-119264342D02*
X147761904Y-119073866D01*
X147761904Y-119073866D02*
X147714285Y-118978628D01*
X147714285Y-118978628D02*
X147666666Y-118931009D01*
X147666666Y-118931009D02*
X147571428Y-118883390D01*
X133333333Y-115454819D02*
X133000000Y-114978628D01*
X132761905Y-115454819D02*
X132761905Y-114454819D01*
X132761905Y-114454819D02*
X133142857Y-114454819D01*
X133142857Y-114454819D02*
X133238095Y-114502438D01*
X133238095Y-114502438D02*
X133285714Y-114550057D01*
X133285714Y-114550057D02*
X133333333Y-114645295D01*
X133333333Y-114645295D02*
X133333333Y-114788152D01*
X133333333Y-114788152D02*
X133285714Y-114883390D01*
X133285714Y-114883390D02*
X133238095Y-114931009D01*
X133238095Y-114931009D02*
X133142857Y-114978628D01*
X133142857Y-114978628D02*
X132761905Y-114978628D01*
X134190476Y-114454819D02*
X134000000Y-114454819D01*
X134000000Y-114454819D02*
X133904762Y-114502438D01*
X133904762Y-114502438D02*
X133857143Y-114550057D01*
X133857143Y-114550057D02*
X133761905Y-114692914D01*
X133761905Y-114692914D02*
X133714286Y-114883390D01*
X133714286Y-114883390D02*
X133714286Y-115264342D01*
X133714286Y-115264342D02*
X133761905Y-115359580D01*
X133761905Y-115359580D02*
X133809524Y-115407200D01*
X133809524Y-115407200D02*
X133904762Y-115454819D01*
X133904762Y-115454819D02*
X134095238Y-115454819D01*
X134095238Y-115454819D02*
X134190476Y-115407200D01*
X134190476Y-115407200D02*
X134238095Y-115359580D01*
X134238095Y-115359580D02*
X134285714Y-115264342D01*
X134285714Y-115264342D02*
X134285714Y-115026247D01*
X134285714Y-115026247D02*
X134238095Y-114931009D01*
X134238095Y-114931009D02*
X134190476Y-114883390D01*
X134190476Y-114883390D02*
X134095238Y-114835771D01*
X134095238Y-114835771D02*
X133904762Y-114835771D01*
X133904762Y-114835771D02*
X133809524Y-114883390D01*
X133809524Y-114883390D02*
X133761905Y-114931009D01*
X133761905Y-114931009D02*
X133714286Y-115026247D01*
X202098980Y-86505276D02*
X201384695Y-86505276D01*
X201384695Y-86505276D02*
X201241838Y-86457657D01*
X201241838Y-86457657D02*
X201146600Y-86362419D01*
X201146600Y-86362419D02*
X201098980Y-86219562D01*
X201098980Y-86219562D02*
X201098980Y-86124324D01*
X201098980Y-87505276D02*
X201098980Y-86933848D01*
X201098980Y-87219562D02*
X202098980Y-87219562D01*
X202098980Y-87219562D02*
X201956123Y-87124324D01*
X201956123Y-87124324D02*
X201860885Y-87029086D01*
X201860885Y-87029086D02*
X201813266Y-86933848D01*
X202003742Y-87886229D02*
X202051361Y-87933848D01*
X202051361Y-87933848D02*
X202098980Y-88029086D01*
X202098980Y-88029086D02*
X202098980Y-88267181D01*
X202098980Y-88267181D02*
X202051361Y-88362419D01*
X202051361Y-88362419D02*
X202003742Y-88410038D01*
X202003742Y-88410038D02*
X201908504Y-88457657D01*
X201908504Y-88457657D02*
X201813266Y-88457657D01*
X201813266Y-88457657D02*
X201670409Y-88410038D01*
X201670409Y-88410038D02*
X201098980Y-87838610D01*
X201098980Y-87838610D02*
X201098980Y-88457657D01*
X108569642Y-107524819D02*
X108236309Y-107048628D01*
X107998214Y-107524819D02*
X107998214Y-106524819D01*
X107998214Y-106524819D02*
X108379166Y-106524819D01*
X108379166Y-106524819D02*
X108474404Y-106572438D01*
X108474404Y-106572438D02*
X108522023Y-106620057D01*
X108522023Y-106620057D02*
X108569642Y-106715295D01*
X108569642Y-106715295D02*
X108569642Y-106858152D01*
X108569642Y-106858152D02*
X108522023Y-106953390D01*
X108522023Y-106953390D02*
X108474404Y-107001009D01*
X108474404Y-107001009D02*
X108379166Y-107048628D01*
X108379166Y-107048628D02*
X107998214Y-107048628D01*
X108902976Y-106524819D02*
X109522023Y-106524819D01*
X109522023Y-106524819D02*
X109188690Y-106905771D01*
X109188690Y-106905771D02*
X109331547Y-106905771D01*
X109331547Y-106905771D02*
X109426785Y-106953390D01*
X109426785Y-106953390D02*
X109474404Y-107001009D01*
X109474404Y-107001009D02*
X109522023Y-107096247D01*
X109522023Y-107096247D02*
X109522023Y-107334342D01*
X109522023Y-107334342D02*
X109474404Y-107429580D01*
X109474404Y-107429580D02*
X109426785Y-107477200D01*
X109426785Y-107477200D02*
X109331547Y-107524819D01*
X109331547Y-107524819D02*
X109045833Y-107524819D01*
X109045833Y-107524819D02*
X108950595Y-107477200D01*
X108950595Y-107477200D02*
X108902976Y-107429580D01*
X109855357Y-106524819D02*
X110474404Y-106524819D01*
X110474404Y-106524819D02*
X110141071Y-106905771D01*
X110141071Y-106905771D02*
X110283928Y-106905771D01*
X110283928Y-106905771D02*
X110379166Y-106953390D01*
X110379166Y-106953390D02*
X110426785Y-107001009D01*
X110426785Y-107001009D02*
X110474404Y-107096247D01*
X110474404Y-107096247D02*
X110474404Y-107334342D01*
X110474404Y-107334342D02*
X110426785Y-107429580D01*
X110426785Y-107429580D02*
X110379166Y-107477200D01*
X110379166Y-107477200D02*
X110283928Y-107524819D01*
X110283928Y-107524819D02*
X109998214Y-107524819D01*
X109998214Y-107524819D02*
X109902976Y-107477200D01*
X109902976Y-107477200D02*
X109855357Y-107429580D01*
D11*
X131614663Y-110171904D02*
X132424186Y-110171904D01*
X132424186Y-110171904D02*
X132519424Y-110124285D01*
X132519424Y-110124285D02*
X132567044Y-110076666D01*
X132567044Y-110076666D02*
X132614663Y-109981428D01*
X132614663Y-109981428D02*
X132614663Y-109790952D01*
X132614663Y-109790952D02*
X132567044Y-109695714D01*
X132567044Y-109695714D02*
X132519424Y-109648095D01*
X132519424Y-109648095D02*
X132424186Y-109600476D01*
X132424186Y-109600476D02*
X131614663Y-109600476D01*
X132614663Y-108600476D02*
X132614663Y-109171904D01*
X132614663Y-108886190D02*
X131614663Y-108886190D01*
X131614663Y-108886190D02*
X131757520Y-108981428D01*
X131757520Y-108981428D02*
X131852758Y-109076666D01*
X131852758Y-109076666D02*
X131900377Y-109171904D01*
X122419456Y-97275853D02*
X122752789Y-97275853D01*
X122895646Y-97799663D02*
X122419456Y-97799663D01*
X122419456Y-97799663D02*
X122419456Y-96799663D01*
X122419456Y-96799663D02*
X122895646Y-96799663D01*
X123181361Y-97132996D02*
X123562313Y-97132996D01*
X123324218Y-96799663D02*
X123324218Y-97656805D01*
X123324218Y-97656805D02*
X123371837Y-97752044D01*
X123371837Y-97752044D02*
X123467075Y-97799663D01*
X123467075Y-97799663D02*
X123562313Y-97799663D01*
X123895647Y-97799663D02*
X123895647Y-96799663D01*
X124324218Y-97799663D02*
X124324218Y-97275853D01*
X124324218Y-97275853D02*
X124276599Y-97180615D01*
X124276599Y-97180615D02*
X124181361Y-97132996D01*
X124181361Y-97132996D02*
X124038504Y-97132996D01*
X124038504Y-97132996D02*
X123943266Y-97180615D01*
X123943266Y-97180615D02*
X123895647Y-97228234D01*
X125181361Y-97752044D02*
X125086123Y-97799663D01*
X125086123Y-97799663D02*
X124895647Y-97799663D01*
X124895647Y-97799663D02*
X124800409Y-97752044D01*
X124800409Y-97752044D02*
X124752790Y-97656805D01*
X124752790Y-97656805D02*
X124752790Y-97275853D01*
X124752790Y-97275853D02*
X124800409Y-97180615D01*
X124800409Y-97180615D02*
X124895647Y-97132996D01*
X124895647Y-97132996D02*
X125086123Y-97132996D01*
X125086123Y-97132996D02*
X125181361Y-97180615D01*
X125181361Y-97180615D02*
X125228980Y-97275853D01*
X125228980Y-97275853D02*
X125228980Y-97371091D01*
X125228980Y-97371091D02*
X124752790Y-97466329D01*
X125657552Y-97799663D02*
X125657552Y-97132996D01*
X125657552Y-97323472D02*
X125705171Y-97228234D01*
X125705171Y-97228234D02*
X125752790Y-97180615D01*
X125752790Y-97180615D02*
X125848028Y-97132996D01*
X125848028Y-97132996D02*
X125943266Y-97132996D01*
X126276600Y-97132996D02*
X126276600Y-97799663D01*
X126276600Y-97228234D02*
X126324219Y-97180615D01*
X126324219Y-97180615D02*
X126419457Y-97132996D01*
X126419457Y-97132996D02*
X126562314Y-97132996D01*
X126562314Y-97132996D02*
X126657552Y-97180615D01*
X126657552Y-97180615D02*
X126705171Y-97275853D01*
X126705171Y-97275853D02*
X126705171Y-97799663D01*
X127562314Y-97752044D02*
X127467076Y-97799663D01*
X127467076Y-97799663D02*
X127276600Y-97799663D01*
X127276600Y-97799663D02*
X127181362Y-97752044D01*
X127181362Y-97752044D02*
X127133743Y-97656805D01*
X127133743Y-97656805D02*
X127133743Y-97275853D01*
X127133743Y-97275853D02*
X127181362Y-97180615D01*
X127181362Y-97180615D02*
X127276600Y-97132996D01*
X127276600Y-97132996D02*
X127467076Y-97132996D01*
X127467076Y-97132996D02*
X127562314Y-97180615D01*
X127562314Y-97180615D02*
X127609933Y-97275853D01*
X127609933Y-97275853D02*
X127609933Y-97371091D01*
X127609933Y-97371091D02*
X127133743Y-97466329D01*
X127895648Y-97132996D02*
X128276600Y-97132996D01*
X128038505Y-96799663D02*
X128038505Y-97656805D01*
X128038505Y-97656805D02*
X128086124Y-97752044D01*
X128086124Y-97752044D02*
X128181362Y-97799663D01*
X128181362Y-97799663D02*
X128276600Y-97799663D01*
X118916666Y-108594663D02*
X118916666Y-107594663D01*
X118916666Y-107594663D02*
X119150000Y-108308948D01*
X119150000Y-108308948D02*
X119383333Y-107594663D01*
X119383333Y-107594663D02*
X119383333Y-108594663D01*
X119716666Y-108594663D02*
X119716666Y-107594663D01*
X120049999Y-108594663D02*
X120049999Y-107594663D01*
X120049999Y-107594663D02*
X120283333Y-108308948D01*
X120283333Y-108308948D02*
X120516666Y-107594663D01*
X120516666Y-107594663D02*
X120516666Y-108594663D01*
X120783333Y-107594663D02*
X121249999Y-108594663D01*
X121249999Y-107594663D02*
X120783333Y-108594663D01*
X121916666Y-108594663D02*
X121683333Y-108118472D01*
X121516666Y-108594663D02*
X121516666Y-107594663D01*
X121516666Y-107594663D02*
X121783333Y-107594663D01*
X121783333Y-107594663D02*
X121850000Y-107642282D01*
X121850000Y-107642282D02*
X121883333Y-107689901D01*
X121883333Y-107689901D02*
X121916666Y-107785139D01*
X121916666Y-107785139D02*
X121916666Y-107927996D01*
X121916666Y-107927996D02*
X121883333Y-108023234D01*
X121883333Y-108023234D02*
X121850000Y-108070853D01*
X121850000Y-108070853D02*
X121783333Y-108118472D01*
X121783333Y-108118472D02*
X121516666Y-108118472D01*
X122116666Y-107594663D02*
X122516666Y-107594663D01*
X122316666Y-108594663D02*
X122316666Y-107594663D01*
X123116666Y-108594663D02*
X122716666Y-108594663D01*
X122916666Y-108594663D02*
X122916666Y-107594663D01*
X122916666Y-107594663D02*
X122849999Y-107737520D01*
X122849999Y-107737520D02*
X122783333Y-107832758D01*
X122783333Y-107832758D02*
X122716666Y-107880377D01*
X123550000Y-107594663D02*
X123616666Y-107594663D01*
X123616666Y-107594663D02*
X123683333Y-107642282D01*
X123683333Y-107642282D02*
X123716666Y-107689901D01*
X123716666Y-107689901D02*
X123750000Y-107785139D01*
X123750000Y-107785139D02*
X123783333Y-107975615D01*
X123783333Y-107975615D02*
X123783333Y-108213710D01*
X123783333Y-108213710D02*
X123750000Y-108404186D01*
X123750000Y-108404186D02*
X123716666Y-108499424D01*
X123716666Y-108499424D02*
X123683333Y-108547044D01*
X123683333Y-108547044D02*
X123616666Y-108594663D01*
X123616666Y-108594663D02*
X123550000Y-108594663D01*
X123550000Y-108594663D02*
X123483333Y-108547044D01*
X123483333Y-108547044D02*
X123450000Y-108499424D01*
X123450000Y-108499424D02*
X123416666Y-108404186D01*
X123416666Y-108404186D02*
X123383333Y-108213710D01*
X123383333Y-108213710D02*
X123383333Y-107975615D01*
X123383333Y-107975615D02*
X123416666Y-107785139D01*
X123416666Y-107785139D02*
X123450000Y-107689901D01*
X123450000Y-107689901D02*
X123483333Y-107642282D01*
X123483333Y-107642282D02*
X123550000Y-107594663D01*
X124383333Y-107594663D02*
X124250000Y-107594663D01*
X124250000Y-107594663D02*
X124183333Y-107642282D01*
X124183333Y-107642282D02*
X124150000Y-107689901D01*
X124150000Y-107689901D02*
X124083333Y-107832758D01*
X124083333Y-107832758D02*
X124050000Y-108023234D01*
X124050000Y-108023234D02*
X124050000Y-108404186D01*
X124050000Y-108404186D02*
X124083333Y-108499424D01*
X124083333Y-108499424D02*
X124116667Y-108547044D01*
X124116667Y-108547044D02*
X124183333Y-108594663D01*
X124183333Y-108594663D02*
X124316667Y-108594663D01*
X124316667Y-108594663D02*
X124383333Y-108547044D01*
X124383333Y-108547044D02*
X124416667Y-108499424D01*
X124416667Y-108499424D02*
X124450000Y-108404186D01*
X124450000Y-108404186D02*
X124450000Y-108166091D01*
X124450000Y-108166091D02*
X124416667Y-108070853D01*
X124416667Y-108070853D02*
X124383333Y-108023234D01*
X124383333Y-108023234D02*
X124316667Y-107975615D01*
X124316667Y-107975615D02*
X124183333Y-107975615D01*
X124183333Y-107975615D02*
X124116667Y-108023234D01*
X124116667Y-108023234D02*
X124083333Y-108070853D01*
X124083333Y-108070853D02*
X124050000Y-108166091D01*
X124716667Y-107689901D02*
X124750000Y-107642282D01*
X124750000Y-107642282D02*
X124816667Y-107594663D01*
X124816667Y-107594663D02*
X124983334Y-107594663D01*
X124983334Y-107594663D02*
X125050000Y-107642282D01*
X125050000Y-107642282D02*
X125083334Y-107689901D01*
X125083334Y-107689901D02*
X125116667Y-107785139D01*
X125116667Y-107785139D02*
X125116667Y-107880377D01*
X125116667Y-107880377D02*
X125083334Y-108023234D01*
X125083334Y-108023234D02*
X124683334Y-108594663D01*
X124683334Y-108594663D02*
X125116667Y-108594663D01*
X120738095Y-82194663D02*
X120738095Y-83004186D01*
X120738095Y-83004186D02*
X120785714Y-83099424D01*
X120785714Y-83099424D02*
X120833333Y-83147044D01*
X120833333Y-83147044D02*
X120928571Y-83194663D01*
X120928571Y-83194663D02*
X121119047Y-83194663D01*
X121119047Y-83194663D02*
X121214285Y-83147044D01*
X121214285Y-83147044D02*
X121261904Y-83099424D01*
X121261904Y-83099424D02*
X121309523Y-83004186D01*
X121309523Y-83004186D02*
X121309523Y-82194663D01*
X121738095Y-83147044D02*
X121880952Y-83194663D01*
X121880952Y-83194663D02*
X122119047Y-83194663D01*
X122119047Y-83194663D02*
X122214285Y-83147044D01*
X122214285Y-83147044D02*
X122261904Y-83099424D01*
X122261904Y-83099424D02*
X122309523Y-83004186D01*
X122309523Y-83004186D02*
X122309523Y-82908948D01*
X122309523Y-82908948D02*
X122261904Y-82813710D01*
X122261904Y-82813710D02*
X122214285Y-82766091D01*
X122214285Y-82766091D02*
X122119047Y-82718472D01*
X122119047Y-82718472D02*
X121928571Y-82670853D01*
X121928571Y-82670853D02*
X121833333Y-82623234D01*
X121833333Y-82623234D02*
X121785714Y-82575615D01*
X121785714Y-82575615D02*
X121738095Y-82480377D01*
X121738095Y-82480377D02*
X121738095Y-82385139D01*
X121738095Y-82385139D02*
X121785714Y-82289901D01*
X121785714Y-82289901D02*
X121833333Y-82242282D01*
X121833333Y-82242282D02*
X121928571Y-82194663D01*
X121928571Y-82194663D02*
X122166666Y-82194663D01*
X122166666Y-82194663D02*
X122309523Y-82242282D01*
X123071428Y-82670853D02*
X123214285Y-82718472D01*
X123214285Y-82718472D02*
X123261904Y-82766091D01*
X123261904Y-82766091D02*
X123309523Y-82861329D01*
X123309523Y-82861329D02*
X123309523Y-83004186D01*
X123309523Y-83004186D02*
X123261904Y-83099424D01*
X123261904Y-83099424D02*
X123214285Y-83147044D01*
X123214285Y-83147044D02*
X123119047Y-83194663D01*
X123119047Y-83194663D02*
X122738095Y-83194663D01*
X122738095Y-83194663D02*
X122738095Y-82194663D01*
X122738095Y-82194663D02*
X123071428Y-82194663D01*
X123071428Y-82194663D02*
X123166666Y-82242282D01*
X123166666Y-82242282D02*
X123214285Y-82289901D01*
X123214285Y-82289901D02*
X123261904Y-82385139D01*
X123261904Y-82385139D02*
X123261904Y-82480377D01*
X123261904Y-82480377D02*
X123214285Y-82575615D01*
X123214285Y-82575615D02*
X123166666Y-82623234D01*
X123166666Y-82623234D02*
X123071428Y-82670853D01*
X123071428Y-82670853D02*
X122738095Y-82670853D01*
X122454663Y-136659047D02*
X121454663Y-136659047D01*
X121454663Y-136659047D02*
X122168948Y-136325714D01*
X122168948Y-136325714D02*
X121454663Y-135992381D01*
X121454663Y-135992381D02*
X122454663Y-135992381D01*
X122454663Y-135516190D02*
X121787996Y-135516190D01*
X121454663Y-135516190D02*
X121502282Y-135563809D01*
X121502282Y-135563809D02*
X121549901Y-135516190D01*
X121549901Y-135516190D02*
X121502282Y-135468571D01*
X121502282Y-135468571D02*
X121454663Y-135516190D01*
X121454663Y-135516190D02*
X121549901Y-135516190D01*
X122407044Y-134611429D02*
X122454663Y-134706667D01*
X122454663Y-134706667D02*
X122454663Y-134897143D01*
X122454663Y-134897143D02*
X122407044Y-134992381D01*
X122407044Y-134992381D02*
X122359424Y-135040000D01*
X122359424Y-135040000D02*
X122264186Y-135087619D01*
X122264186Y-135087619D02*
X121978472Y-135087619D01*
X121978472Y-135087619D02*
X121883234Y-135040000D01*
X121883234Y-135040000D02*
X121835615Y-134992381D01*
X121835615Y-134992381D02*
X121787996Y-134897143D01*
X121787996Y-134897143D02*
X121787996Y-134706667D01*
X121787996Y-134706667D02*
X121835615Y-134611429D01*
X122454663Y-134182857D02*
X121787996Y-134182857D01*
X121978472Y-134182857D02*
X121883234Y-134135238D01*
X121883234Y-134135238D02*
X121835615Y-134087619D01*
X121835615Y-134087619D02*
X121787996Y-133992381D01*
X121787996Y-133992381D02*
X121787996Y-133897143D01*
X122454663Y-133420952D02*
X122407044Y-133516190D01*
X122407044Y-133516190D02*
X122359424Y-133563809D01*
X122359424Y-133563809D02*
X122264186Y-133611428D01*
X122264186Y-133611428D02*
X121978472Y-133611428D01*
X121978472Y-133611428D02*
X121883234Y-133563809D01*
X121883234Y-133563809D02*
X121835615Y-133516190D01*
X121835615Y-133516190D02*
X121787996Y-133420952D01*
X121787996Y-133420952D02*
X121787996Y-133278095D01*
X121787996Y-133278095D02*
X121835615Y-133182857D01*
X121835615Y-133182857D02*
X121883234Y-133135238D01*
X121883234Y-133135238D02*
X121978472Y-133087619D01*
X121978472Y-133087619D02*
X122264186Y-133087619D01*
X122264186Y-133087619D02*
X122359424Y-133135238D01*
X122359424Y-133135238D02*
X122407044Y-133182857D01*
X122407044Y-133182857D02*
X122454663Y-133278095D01*
X122454663Y-133278095D02*
X122454663Y-133420952D01*
X122407044Y-131944761D02*
X122454663Y-131801904D01*
X122454663Y-131801904D02*
X122454663Y-131563809D01*
X122454663Y-131563809D02*
X122407044Y-131468571D01*
X122407044Y-131468571D02*
X122359424Y-131420952D01*
X122359424Y-131420952D02*
X122264186Y-131373333D01*
X122264186Y-131373333D02*
X122168948Y-131373333D01*
X122168948Y-131373333D02*
X122073710Y-131420952D01*
X122073710Y-131420952D02*
X122026091Y-131468571D01*
X122026091Y-131468571D02*
X121978472Y-131563809D01*
X121978472Y-131563809D02*
X121930853Y-131754285D01*
X121930853Y-131754285D02*
X121883234Y-131849523D01*
X121883234Y-131849523D02*
X121835615Y-131897142D01*
X121835615Y-131897142D02*
X121740377Y-131944761D01*
X121740377Y-131944761D02*
X121645139Y-131944761D01*
X121645139Y-131944761D02*
X121549901Y-131897142D01*
X121549901Y-131897142D02*
X121502282Y-131849523D01*
X121502282Y-131849523D02*
X121454663Y-131754285D01*
X121454663Y-131754285D02*
X121454663Y-131516190D01*
X121454663Y-131516190D02*
X121502282Y-131373333D01*
X122454663Y-130944761D02*
X121454663Y-130944761D01*
X121454663Y-130944761D02*
X121454663Y-130706666D01*
X121454663Y-130706666D02*
X121502282Y-130563809D01*
X121502282Y-130563809D02*
X121597520Y-130468571D01*
X121597520Y-130468571D02*
X121692758Y-130420952D01*
X121692758Y-130420952D02*
X121883234Y-130373333D01*
X121883234Y-130373333D02*
X122026091Y-130373333D01*
X122026091Y-130373333D02*
X122216567Y-130420952D01*
X122216567Y-130420952D02*
X122311805Y-130468571D01*
X122311805Y-130468571D02*
X122407044Y-130563809D01*
X122407044Y-130563809D02*
X122454663Y-130706666D01*
X122454663Y-130706666D02*
X122454663Y-130944761D01*
X119454663Y-94253723D02*
X120264186Y-94253723D01*
X120264186Y-94253723D02*
X120359424Y-94206104D01*
X120359424Y-94206104D02*
X120407044Y-94158485D01*
X120407044Y-94158485D02*
X120454663Y-94063247D01*
X120454663Y-94063247D02*
X120454663Y-93872771D01*
X120454663Y-93872771D02*
X120407044Y-93777533D01*
X120407044Y-93777533D02*
X120359424Y-93729914D01*
X120359424Y-93729914D02*
X120264186Y-93682295D01*
X120264186Y-93682295D02*
X119454663Y-93682295D01*
X120407044Y-93253723D02*
X120454663Y-93110866D01*
X120454663Y-93110866D02*
X120454663Y-92872771D01*
X120454663Y-92872771D02*
X120407044Y-92777533D01*
X120407044Y-92777533D02*
X120359424Y-92729914D01*
X120359424Y-92729914D02*
X120264186Y-92682295D01*
X120264186Y-92682295D02*
X120168948Y-92682295D01*
X120168948Y-92682295D02*
X120073710Y-92729914D01*
X120073710Y-92729914D02*
X120026091Y-92777533D01*
X120026091Y-92777533D02*
X119978472Y-92872771D01*
X119978472Y-92872771D02*
X119930853Y-93063247D01*
X119930853Y-93063247D02*
X119883234Y-93158485D01*
X119883234Y-93158485D02*
X119835615Y-93206104D01*
X119835615Y-93206104D02*
X119740377Y-93253723D01*
X119740377Y-93253723D02*
X119645139Y-93253723D01*
X119645139Y-93253723D02*
X119549901Y-93206104D01*
X119549901Y-93206104D02*
X119502282Y-93158485D01*
X119502282Y-93158485D02*
X119454663Y-93063247D01*
X119454663Y-93063247D02*
X119454663Y-92825152D01*
X119454663Y-92825152D02*
X119502282Y-92682295D01*
X119930853Y-91920390D02*
X119978472Y-91777533D01*
X119978472Y-91777533D02*
X120026091Y-91729914D01*
X120026091Y-91729914D02*
X120121329Y-91682295D01*
X120121329Y-91682295D02*
X120264186Y-91682295D01*
X120264186Y-91682295D02*
X120359424Y-91729914D01*
X120359424Y-91729914D02*
X120407044Y-91777533D01*
X120407044Y-91777533D02*
X120454663Y-91872771D01*
X120454663Y-91872771D02*
X120454663Y-92253723D01*
X120454663Y-92253723D02*
X119454663Y-92253723D01*
X119454663Y-92253723D02*
X119454663Y-91920390D01*
X119454663Y-91920390D02*
X119502282Y-91825152D01*
X119502282Y-91825152D02*
X119549901Y-91777533D01*
X119549901Y-91777533D02*
X119645139Y-91729914D01*
X119645139Y-91729914D02*
X119740377Y-91729914D01*
X119740377Y-91729914D02*
X119835615Y-91777533D01*
X119835615Y-91777533D02*
X119883234Y-91825152D01*
X119883234Y-91825152D02*
X119930853Y-91920390D01*
X119930853Y-91920390D02*
X119930853Y-92253723D01*
X120454663Y-90491818D02*
X119454663Y-90491818D01*
X119930853Y-90491818D02*
X119930853Y-89920390D01*
X120454663Y-89920390D02*
X119454663Y-89920390D01*
X120454663Y-89301342D02*
X120407044Y-89396580D01*
X120407044Y-89396580D02*
X120359424Y-89444199D01*
X120359424Y-89444199D02*
X120264186Y-89491818D01*
X120264186Y-89491818D02*
X119978472Y-89491818D01*
X119978472Y-89491818D02*
X119883234Y-89444199D01*
X119883234Y-89444199D02*
X119835615Y-89396580D01*
X119835615Y-89396580D02*
X119787996Y-89301342D01*
X119787996Y-89301342D02*
X119787996Y-89158485D01*
X119787996Y-89158485D02*
X119835615Y-89063247D01*
X119835615Y-89063247D02*
X119883234Y-89015628D01*
X119883234Y-89015628D02*
X119978472Y-88968009D01*
X119978472Y-88968009D02*
X120264186Y-88968009D01*
X120264186Y-88968009D02*
X120359424Y-89015628D01*
X120359424Y-89015628D02*
X120407044Y-89063247D01*
X120407044Y-89063247D02*
X120454663Y-89158485D01*
X120454663Y-89158485D02*
X120454663Y-89301342D01*
X120407044Y-88587056D02*
X120454663Y-88491818D01*
X120454663Y-88491818D02*
X120454663Y-88301342D01*
X120454663Y-88301342D02*
X120407044Y-88206104D01*
X120407044Y-88206104D02*
X120311805Y-88158485D01*
X120311805Y-88158485D02*
X120264186Y-88158485D01*
X120264186Y-88158485D02*
X120168948Y-88206104D01*
X120168948Y-88206104D02*
X120121329Y-88301342D01*
X120121329Y-88301342D02*
X120121329Y-88444199D01*
X120121329Y-88444199D02*
X120073710Y-88539437D01*
X120073710Y-88539437D02*
X119978472Y-88587056D01*
X119978472Y-88587056D02*
X119930853Y-88587056D01*
X119930853Y-88587056D02*
X119835615Y-88539437D01*
X119835615Y-88539437D02*
X119787996Y-88444199D01*
X119787996Y-88444199D02*
X119787996Y-88301342D01*
X119787996Y-88301342D02*
X119835615Y-88206104D01*
X119787996Y-87872770D02*
X119787996Y-87491818D01*
X119454663Y-87729913D02*
X120311805Y-87729913D01*
X120311805Y-87729913D02*
X120407044Y-87682294D01*
X120407044Y-87682294D02*
X120454663Y-87587056D01*
X120454663Y-87587056D02*
X120454663Y-87491818D01*
X120796666Y-106454663D02*
X120796666Y-105454663D01*
X120796666Y-105454663D02*
X120963333Y-105454663D01*
X120963333Y-105454663D02*
X121063333Y-105502282D01*
X121063333Y-105502282D02*
X121130000Y-105597520D01*
X121130000Y-105597520D02*
X121163333Y-105692758D01*
X121163333Y-105692758D02*
X121196666Y-105883234D01*
X121196666Y-105883234D02*
X121196666Y-106026091D01*
X121196666Y-106026091D02*
X121163333Y-106216567D01*
X121163333Y-106216567D02*
X121130000Y-106311805D01*
X121130000Y-106311805D02*
X121063333Y-106407044D01*
X121063333Y-106407044D02*
X120963333Y-106454663D01*
X120963333Y-106454663D02*
X120796666Y-106454663D01*
X121396666Y-105454663D02*
X121630000Y-106454663D01*
X121630000Y-106454663D02*
X121863333Y-105454663D01*
X122296666Y-105454663D02*
X122296666Y-106168948D01*
X122296666Y-106168948D02*
X122263333Y-106311805D01*
X122263333Y-106311805D02*
X122196666Y-106407044D01*
X122196666Y-106407044D02*
X122096666Y-106454663D01*
X122096666Y-106454663D02*
X122030000Y-106454663D01*
X122929999Y-105454663D02*
X122796666Y-105454663D01*
X122796666Y-105454663D02*
X122729999Y-105502282D01*
X122729999Y-105502282D02*
X122696666Y-105549901D01*
X122696666Y-105549901D02*
X122629999Y-105692758D01*
X122629999Y-105692758D02*
X122596666Y-105883234D01*
X122596666Y-105883234D02*
X122596666Y-106264186D01*
X122596666Y-106264186D02*
X122629999Y-106359424D01*
X122629999Y-106359424D02*
X122663333Y-106407044D01*
X122663333Y-106407044D02*
X122729999Y-106454663D01*
X122729999Y-106454663D02*
X122863333Y-106454663D01*
X122863333Y-106454663D02*
X122929999Y-106407044D01*
X122929999Y-106407044D02*
X122963333Y-106359424D01*
X122963333Y-106359424D02*
X122996666Y-106264186D01*
X122996666Y-106264186D02*
X122996666Y-106026091D01*
X122996666Y-106026091D02*
X122963333Y-105930853D01*
X122963333Y-105930853D02*
X122929999Y-105883234D01*
X122929999Y-105883234D02*
X122863333Y-105835615D01*
X122863333Y-105835615D02*
X122729999Y-105835615D01*
X122729999Y-105835615D02*
X122663333Y-105883234D01*
X122663333Y-105883234D02*
X122629999Y-105930853D01*
X122629999Y-105930853D02*
X122596666Y-106026091D01*
X123263333Y-106168948D02*
X123596666Y-106168948D01*
X123196666Y-106454663D02*
X123430000Y-105454663D01*
X123430000Y-105454663D02*
X123663333Y-106454663D01*
D10*
X97156276Y-136559619D02*
X97156276Y-135559619D01*
X97156276Y-135559619D02*
X97489609Y-136273904D01*
X97489609Y-136273904D02*
X97822942Y-135559619D01*
X97822942Y-135559619D02*
X97822942Y-136559619D01*
X98299133Y-136559619D02*
X98299133Y-135559619D01*
X98870561Y-136559619D02*
X98441990Y-135988190D01*
X98870561Y-135559619D02*
X98299133Y-136131047D01*
X99203895Y-135559619D02*
X99822942Y-135559619D01*
X99822942Y-135559619D02*
X99489609Y-135940571D01*
X99489609Y-135940571D02*
X99632466Y-135940571D01*
X99632466Y-135940571D02*
X99727704Y-135988190D01*
X99727704Y-135988190D02*
X99775323Y-136035809D01*
X99775323Y-136035809D02*
X99822942Y-136131047D01*
X99822942Y-136131047D02*
X99822942Y-136369142D01*
X99822942Y-136369142D02*
X99775323Y-136464380D01*
X99775323Y-136464380D02*
X99727704Y-136512000D01*
X99727704Y-136512000D02*
X99632466Y-136559619D01*
X99632466Y-136559619D02*
X99346752Y-136559619D01*
X99346752Y-136559619D02*
X99251514Y-136512000D01*
X99251514Y-136512000D02*
X99203895Y-136464380D01*
X148857142Y-92954819D02*
X148523809Y-92478628D01*
X148285714Y-92954819D02*
X148285714Y-91954819D01*
X148285714Y-91954819D02*
X148666666Y-91954819D01*
X148666666Y-91954819D02*
X148761904Y-92002438D01*
X148761904Y-92002438D02*
X148809523Y-92050057D01*
X148809523Y-92050057D02*
X148857142Y-92145295D01*
X148857142Y-92145295D02*
X148857142Y-92288152D01*
X148857142Y-92288152D02*
X148809523Y-92383390D01*
X148809523Y-92383390D02*
X148761904Y-92431009D01*
X148761904Y-92431009D02*
X148666666Y-92478628D01*
X148666666Y-92478628D02*
X148285714Y-92478628D01*
X149809523Y-92954819D02*
X149238095Y-92954819D01*
X149523809Y-92954819D02*
X149523809Y-91954819D01*
X149523809Y-91954819D02*
X149428571Y-92097676D01*
X149428571Y-92097676D02*
X149333333Y-92192914D01*
X149333333Y-92192914D02*
X149238095Y-92240533D01*
X150142857Y-91954819D02*
X150809523Y-91954819D01*
X150809523Y-91954819D02*
X150380952Y-92954819D01*
X210190476Y-119429819D02*
X210190476Y-118429819D01*
X210190476Y-118429819D02*
X210523809Y-119144104D01*
X210523809Y-119144104D02*
X210857142Y-118429819D01*
X210857142Y-118429819D02*
X210857142Y-119429819D01*
X211333333Y-119429819D02*
X211333333Y-118429819D01*
X211904761Y-119429819D02*
X211476190Y-118858390D01*
X211904761Y-118429819D02*
X211333333Y-119001247D01*
X212809523Y-118429819D02*
X212333333Y-118429819D01*
X212333333Y-118429819D02*
X212285714Y-118906009D01*
X212285714Y-118906009D02*
X212333333Y-118858390D01*
X212333333Y-118858390D02*
X212428571Y-118810771D01*
X212428571Y-118810771D02*
X212666666Y-118810771D01*
X212666666Y-118810771D02*
X212761904Y-118858390D01*
X212761904Y-118858390D02*
X212809523Y-118906009D01*
X212809523Y-118906009D02*
X212857142Y-119001247D01*
X212857142Y-119001247D02*
X212857142Y-119239342D01*
X212857142Y-119239342D02*
X212809523Y-119334580D01*
X212809523Y-119334580D02*
X212761904Y-119382200D01*
X212761904Y-119382200D02*
X212666666Y-119429819D01*
X212666666Y-119429819D02*
X212428571Y-119429819D01*
X212428571Y-119429819D02*
X212333333Y-119382200D01*
X212333333Y-119382200D02*
X212285714Y-119334580D01*
X210190476Y-131454819D02*
X210190476Y-130454819D01*
X210190476Y-130454819D02*
X210523809Y-131169104D01*
X210523809Y-131169104D02*
X210857142Y-130454819D01*
X210857142Y-130454819D02*
X210857142Y-131454819D01*
X211333333Y-131454819D02*
X211333333Y-130454819D01*
X211904761Y-131454819D02*
X211476190Y-130883390D01*
X211904761Y-130454819D02*
X211333333Y-131026247D01*
X212761904Y-130788152D02*
X212761904Y-131454819D01*
X212523809Y-130407200D02*
X212285714Y-131121485D01*
X212285714Y-131121485D02*
X212904761Y-131121485D01*
X146357142Y-122454819D02*
X146023809Y-121978628D01*
X145785714Y-122454819D02*
X145785714Y-121454819D01*
X145785714Y-121454819D02*
X146166666Y-121454819D01*
X146166666Y-121454819D02*
X146261904Y-121502438D01*
X146261904Y-121502438D02*
X146309523Y-121550057D01*
X146309523Y-121550057D02*
X146357142Y-121645295D01*
X146357142Y-121645295D02*
X146357142Y-121788152D01*
X146357142Y-121788152D02*
X146309523Y-121883390D01*
X146309523Y-121883390D02*
X146261904Y-121931009D01*
X146261904Y-121931009D02*
X146166666Y-121978628D01*
X146166666Y-121978628D02*
X145785714Y-121978628D01*
X146738095Y-121550057D02*
X146785714Y-121502438D01*
X146785714Y-121502438D02*
X146880952Y-121454819D01*
X146880952Y-121454819D02*
X147119047Y-121454819D01*
X147119047Y-121454819D02*
X147214285Y-121502438D01*
X147214285Y-121502438D02*
X147261904Y-121550057D01*
X147261904Y-121550057D02*
X147309523Y-121645295D01*
X147309523Y-121645295D02*
X147309523Y-121740533D01*
X147309523Y-121740533D02*
X147261904Y-121883390D01*
X147261904Y-121883390D02*
X146690476Y-122454819D01*
X146690476Y-122454819D02*
X147309523Y-122454819D01*
X147928571Y-121454819D02*
X148023809Y-121454819D01*
X148023809Y-121454819D02*
X148119047Y-121502438D01*
X148119047Y-121502438D02*
X148166666Y-121550057D01*
X148166666Y-121550057D02*
X148214285Y-121645295D01*
X148214285Y-121645295D02*
X148261904Y-121835771D01*
X148261904Y-121835771D02*
X148261904Y-122073866D01*
X148261904Y-122073866D02*
X148214285Y-122264342D01*
X148214285Y-122264342D02*
X148166666Y-122359580D01*
X148166666Y-122359580D02*
X148119047Y-122407200D01*
X148119047Y-122407200D02*
X148023809Y-122454819D01*
X148023809Y-122454819D02*
X147928571Y-122454819D01*
X147928571Y-122454819D02*
X147833333Y-122407200D01*
X147833333Y-122407200D02*
X147785714Y-122359580D01*
X147785714Y-122359580D02*
X147738095Y-122264342D01*
X147738095Y-122264342D02*
X147690476Y-122073866D01*
X147690476Y-122073866D02*
X147690476Y-121835771D01*
X147690476Y-121835771D02*
X147738095Y-121645295D01*
X147738095Y-121645295D02*
X147785714Y-121550057D01*
X147785714Y-121550057D02*
X147833333Y-121502438D01*
X147833333Y-121502438D02*
X147928571Y-121454819D01*
X146357142Y-120954819D02*
X146023809Y-120478628D01*
X145785714Y-120954819D02*
X145785714Y-119954819D01*
X145785714Y-119954819D02*
X146166666Y-119954819D01*
X146166666Y-119954819D02*
X146261904Y-120002438D01*
X146261904Y-120002438D02*
X146309523Y-120050057D01*
X146309523Y-120050057D02*
X146357142Y-120145295D01*
X146357142Y-120145295D02*
X146357142Y-120288152D01*
X146357142Y-120288152D02*
X146309523Y-120383390D01*
X146309523Y-120383390D02*
X146261904Y-120431009D01*
X146261904Y-120431009D02*
X146166666Y-120478628D01*
X146166666Y-120478628D02*
X145785714Y-120478628D01*
X147309523Y-120954819D02*
X146738095Y-120954819D01*
X147023809Y-120954819D02*
X147023809Y-119954819D01*
X147023809Y-119954819D02*
X146928571Y-120097676D01*
X146928571Y-120097676D02*
X146833333Y-120192914D01*
X146833333Y-120192914D02*
X146738095Y-120240533D01*
X147785714Y-120954819D02*
X147976190Y-120954819D01*
X147976190Y-120954819D02*
X148071428Y-120907200D01*
X148071428Y-120907200D02*
X148119047Y-120859580D01*
X148119047Y-120859580D02*
X148214285Y-120716723D01*
X148214285Y-120716723D02*
X148261904Y-120526247D01*
X148261904Y-120526247D02*
X148261904Y-120145295D01*
X148261904Y-120145295D02*
X148214285Y-120050057D01*
X148214285Y-120050057D02*
X148166666Y-120002438D01*
X148166666Y-120002438D02*
X148071428Y-119954819D01*
X148071428Y-119954819D02*
X147880952Y-119954819D01*
X147880952Y-119954819D02*
X147785714Y-120002438D01*
X147785714Y-120002438D02*
X147738095Y-120050057D01*
X147738095Y-120050057D02*
X147690476Y-120145295D01*
X147690476Y-120145295D02*
X147690476Y-120383390D01*
X147690476Y-120383390D02*
X147738095Y-120478628D01*
X147738095Y-120478628D02*
X147785714Y-120526247D01*
X147785714Y-120526247D02*
X147880952Y-120573866D01*
X147880952Y-120573866D02*
X148071428Y-120573866D01*
X148071428Y-120573866D02*
X148166666Y-120526247D01*
X148166666Y-120526247D02*
X148214285Y-120478628D01*
X148214285Y-120478628D02*
X148261904Y-120383390D01*
X107884819Y-124666666D02*
X107408628Y-124999999D01*
X107884819Y-125238094D02*
X106884819Y-125238094D01*
X106884819Y-125238094D02*
X106884819Y-124857142D01*
X106884819Y-124857142D02*
X106932438Y-124761904D01*
X106932438Y-124761904D02*
X106980057Y-124714285D01*
X106980057Y-124714285D02*
X107075295Y-124666666D01*
X107075295Y-124666666D02*
X107218152Y-124666666D01*
X107218152Y-124666666D02*
X107313390Y-124714285D01*
X107313390Y-124714285D02*
X107361009Y-124761904D01*
X107361009Y-124761904D02*
X107408628Y-124857142D01*
X107408628Y-124857142D02*
X107408628Y-125238094D01*
X106884819Y-123761904D02*
X106884819Y-124238094D01*
X106884819Y-124238094D02*
X107361009Y-124285713D01*
X107361009Y-124285713D02*
X107313390Y-124238094D01*
X107313390Y-124238094D02*
X107265771Y-124142856D01*
X107265771Y-124142856D02*
X107265771Y-123904761D01*
X107265771Y-123904761D02*
X107313390Y-123809523D01*
X107313390Y-123809523D02*
X107361009Y-123761904D01*
X107361009Y-123761904D02*
X107456247Y-123714285D01*
X107456247Y-123714285D02*
X107694342Y-123714285D01*
X107694342Y-123714285D02*
X107789580Y-123761904D01*
X107789580Y-123761904D02*
X107837200Y-123809523D01*
X107837200Y-123809523D02*
X107884819Y-123904761D01*
X107884819Y-123904761D02*
X107884819Y-124142856D01*
X107884819Y-124142856D02*
X107837200Y-124238094D01*
X107837200Y-124238094D02*
X107789580Y-124285713D01*
X99236019Y-104708923D02*
X99950304Y-104708923D01*
X99950304Y-104708923D02*
X100093161Y-104756542D01*
X100093161Y-104756542D02*
X100188400Y-104851780D01*
X100188400Y-104851780D02*
X100236019Y-104994637D01*
X100236019Y-104994637D02*
X100236019Y-105089875D01*
X100236019Y-103708923D02*
X100236019Y-104280351D01*
X100236019Y-103994637D02*
X99236019Y-103994637D01*
X99236019Y-103994637D02*
X99378876Y-104089875D01*
X99378876Y-104089875D02*
X99474114Y-104185113D01*
X99474114Y-104185113D02*
X99521733Y-104280351D01*
X100236019Y-102756542D02*
X100236019Y-103327970D01*
X100236019Y-103042256D02*
X99236019Y-103042256D01*
X99236019Y-103042256D02*
X99378876Y-103137494D01*
X99378876Y-103137494D02*
X99474114Y-103232732D01*
X99474114Y-103232732D02*
X99521733Y-103327970D01*
G04 #@! TO.C,U3*
D12*
X154350000Y-105400000D02*
X202650000Y-105400000D01*
X202650000Y-120600000D01*
X154350000Y-120600000D01*
X154350000Y-105400000D01*
D13*
G04 #@! TO.C,R16*
X146405279Y-94480000D02*
X146079721Y-94480000D01*
X146405279Y-95500000D02*
X146079721Y-95500000D01*
G04 #@! TO.C,R3*
X104490000Y-117837221D02*
X104490000Y-118162779D01*
X105510000Y-117837221D02*
X105510000Y-118162779D01*
G04 #@! TO.C,R30*
X108837221Y-104990000D02*
X109162779Y-104990000D01*
X108837221Y-106010000D02*
X109162779Y-106010000D01*
G04 #@! TO.C,R2*
X105990000Y-113377379D02*
X105990000Y-113051821D01*
X107010000Y-113377379D02*
X107010000Y-113051821D01*
D10*
G04 #@! TO.C,C3*
X104849000Y-100886600D02*
X105484000Y-100886600D01*
X104849000Y-102359800D02*
X104849000Y-100886600D01*
X105484000Y-102359800D02*
X104849000Y-102359800D01*
X107516000Y-102359800D02*
X108151000Y-102359800D01*
X108151000Y-100886600D02*
X107516000Y-100886600D01*
X108151000Y-102359800D02*
X108151000Y-100886600D01*
D13*
G04 #@! TO.C,J7*
X138065000Y-72470000D02*
X139065000Y-71470000D01*
X138065000Y-81590000D02*
X138065000Y-72470000D01*
X138065000Y-81590000D02*
X140490000Y-81590000D01*
X139065000Y-71470000D02*
X155935000Y-71470000D01*
X142510000Y-81590000D02*
X143848233Y-81590000D01*
X145151767Y-81590000D02*
X146848233Y-81590000D01*
X148151767Y-81590000D02*
X149848233Y-81590000D01*
X151151767Y-81590000D02*
X152848233Y-81590000D01*
X155935000Y-71470000D02*
X156935000Y-72470000D01*
X156935000Y-72470000D02*
X156935000Y-81590000D01*
X156935000Y-81590000D02*
X154151767Y-81590000D01*
G04 #@! TO.C,J14*
X88140000Y-91440000D02*
X88140000Y-97560000D01*
X88140000Y-94000000D02*
X92500000Y-94000000D01*
X88140000Y-97560000D02*
X95960000Y-97560000D01*
X90400000Y-92200000D02*
X90400000Y-93200000D01*
X90400000Y-92700000D02*
X88140000Y-92700000D01*
X90400000Y-93200000D02*
X88140000Y-93200000D01*
X90400000Y-93200000D02*
X92000000Y-93200000D01*
X90400000Y-95800000D02*
X92000000Y-95800000D01*
X90400000Y-96800000D02*
X90400000Y-95800000D01*
X92000000Y-92200000D02*
X90400000Y-92200000D01*
X92000000Y-93200000D02*
X92000000Y-92200000D01*
X92000000Y-95800000D02*
X92000000Y-96800000D01*
X92000000Y-96800000D02*
X90400000Y-96800000D01*
X92500000Y-94000000D02*
X92500000Y-95000000D01*
X92500000Y-95000000D02*
X88140000Y-95000000D01*
X94360000Y-91440000D02*
X94360000Y-92360000D01*
X94360000Y-92360000D02*
X95960000Y-92360000D01*
X94360000Y-92640000D02*
X94360000Y-92360000D01*
X94360000Y-92640000D02*
X95575000Y-92640000D01*
X94360000Y-96640000D02*
X94360000Y-96360000D01*
X94360000Y-97560000D02*
X94360000Y-96640000D01*
X95960000Y-91440000D02*
X88140000Y-91440000D01*
X95960000Y-92360000D02*
X95960000Y-91440000D01*
X95960000Y-96640000D02*
X94360000Y-96640000D01*
X95960000Y-97560000D02*
X95960000Y-96640000D01*
G04 #@! TO.C,J6*
X163215000Y-72290000D02*
X164215000Y-71290000D01*
X163215000Y-81410000D02*
X163215000Y-72290000D01*
X163215000Y-81410000D02*
X165640000Y-81410000D01*
X164215000Y-71290000D02*
X181085000Y-71290000D01*
X167660000Y-81410000D02*
X168998233Y-81410000D01*
X170301767Y-81410000D02*
X171998233Y-81410000D01*
X173301767Y-81410000D02*
X174998233Y-81410000D01*
X176301767Y-81410000D02*
X177998233Y-81410000D01*
X181085000Y-71290000D02*
X182085000Y-72290000D01*
X182085000Y-72290000D02*
X182085000Y-81410000D01*
X182085000Y-81410000D02*
X179301767Y-81410000D01*
D10*
G04 #@! TO.C,C4*
X104849000Y-98263400D02*
X105484000Y-98263400D01*
X104849000Y-99736600D02*
X104849000Y-98263400D01*
X105484000Y-99736600D02*
X104849000Y-99736600D01*
X107516000Y-99736600D02*
X108151000Y-99736600D01*
X108151000Y-98263400D02*
X107516000Y-98263400D01*
X108151000Y-99736600D02*
X108151000Y-98263400D01*
D13*
G04 #@! TO.C,R1*
X104990000Y-109337221D02*
X104990000Y-109662779D01*
X106010000Y-109337221D02*
X106010000Y-109662779D01*
G04 #@! TO.C,R4*
X106990000Y-120662779D02*
X106990000Y-120337221D01*
X108010000Y-120662779D02*
X108010000Y-120337221D01*
G04 #@! TO.C,U2*
D12*
X154350000Y-122400000D02*
X202650000Y-122400000D01*
X202650000Y-137600000D01*
X154350000Y-137600000D01*
X154350000Y-122400000D01*
D13*
G04 #@! TO.C,U4*
X158620000Y-83500000D02*
X160000000Y-83500000D01*
X158620000Y-84880000D02*
X158620000Y-83500000D01*
X158620000Y-86150000D02*
X158620000Y-93880000D01*
X158620000Y-86150000D02*
X161380000Y-86150000D01*
X158620000Y-93880000D02*
X161380000Y-93880000D01*
X161380000Y-86150000D02*
X161380000Y-93880000D01*
G04 #@! TO.C,R7*
X134837221Y-118500000D02*
X135162779Y-118500000D01*
X134837221Y-119520000D02*
X135162779Y-119520000D01*
G04 #@! TO.C,R18*
X150772936Y-116315000D02*
X151227064Y-116315000D01*
X150772936Y-117785000D02*
X151227064Y-117785000D01*
G04 #@! TO.C,R6*
X134837221Y-115990000D02*
X135162779Y-115990000D01*
X134837221Y-117010000D02*
X135162779Y-117010000D01*
G04 #@! TO.C,J12*
X203400000Y-86315000D02*
X212530000Y-86315000D01*
X203400000Y-102685000D02*
X203400000Y-86315000D01*
X212530000Y-86315000D02*
X213530000Y-87315000D01*
X212530000Y-102685000D02*
X203400000Y-102685000D01*
X213530000Y-87315000D02*
X213530000Y-101685000D01*
X213530000Y-101685000D02*
X212530000Y-102685000D01*
G04 #@! TO.C,R33*
X109049721Y-107990000D02*
X109375279Y-107990000D01*
X109049721Y-109010000D02*
X109375279Y-109010000D01*
D10*
G04 #@! TO.C,U1*
X113110000Y-78930000D02*
X130890000Y-78930000D01*
X113110000Y-139890000D02*
X113110000Y-78930000D01*
X115650000Y-101790000D02*
X115650000Y-114490000D01*
X115650000Y-114490000D02*
X128350000Y-114490000D01*
X115650000Y-127190000D02*
X115650000Y-139890000D01*
X116160800Y-85229200D02*
X118700800Y-85229200D01*
X116160800Y-97929200D02*
X116160800Y-85229200D01*
X116920000Y-138620000D02*
X116920000Y-139890000D01*
X118190000Y-77660000D02*
X125810000Y-77660000D01*
X118190000Y-78930000D02*
X118190000Y-77660000D01*
X118190000Y-84010000D02*
X118190000Y-78930000D01*
X118190000Y-84010000D02*
X125810000Y-84010000D01*
X118700800Y-85229200D02*
X118700800Y-87769200D01*
X118700800Y-85229200D02*
X118700800Y-97929200D01*
X118700800Y-87769200D02*
X116160800Y-87769200D01*
X118700800Y-97929200D02*
X116160800Y-97929200D01*
X120730000Y-119570000D02*
X123270000Y-119570000D01*
X120730000Y-123380000D02*
X120730000Y-119570000D01*
X122101600Y-92160000D02*
X122101600Y-96160000D01*
X122101600Y-96160000D02*
X128351600Y-96160000D01*
X123270000Y-119570000D02*
X123270000Y-123380000D01*
X123270000Y-123380000D02*
X120730000Y-123380000D01*
X125810000Y-77660000D02*
X125810000Y-78930000D01*
X125810000Y-84010000D02*
X125810000Y-78930000D01*
X127080000Y-138620000D02*
X116920000Y-138620000D01*
X127080000Y-139890000D02*
X127080000Y-138620000D01*
X128101600Y-92160000D02*
X122101600Y-92160000D01*
X128350000Y-101790000D02*
X115650000Y-101790000D01*
X128350000Y-114490000D02*
X128350000Y-101790000D01*
X128350000Y-127190000D02*
X115650000Y-127190000D01*
X128350000Y-139890000D02*
X128350000Y-127190000D01*
X128351600Y-92160000D02*
X128101600Y-92160000D01*
X128351600Y-96160000D02*
X128351600Y-92160000D01*
X130890000Y-78930000D02*
X130890000Y-139890000D01*
X130890000Y-139890000D02*
X113110000Y-139890000D01*
X122898026Y-121475000D02*
G75*
G02*
X121101974Y-121475000I-898026J0D01*
G01*
X121101974Y-121475000D02*
G75*
G02*
X122898026Y-121475000I898026J0D01*
G01*
D12*
X121926000Y-111591000D02*
X121545000Y-111845000D01*
X121291000Y-111591000D01*
X121672000Y-111337000D01*
X121926000Y-111591000D01*
G36*
X121926000Y-111591000D02*
G01*
X121545000Y-111845000D01*
X121291000Y-111591000D01*
X121672000Y-111337000D01*
X121926000Y-111591000D01*
G37*
X122053000Y-110829000D02*
X121672000Y-111083000D01*
X121418000Y-110829000D01*
X121799000Y-110575000D01*
X122053000Y-110829000D01*
G36*
X122053000Y-110829000D02*
G01*
X121672000Y-111083000D01*
X121418000Y-110829000D01*
X121799000Y-110575000D01*
X122053000Y-110829000D01*
G37*
X122307000Y-111972000D02*
X121926000Y-112226000D01*
X121672000Y-111972000D01*
X122053000Y-111718000D01*
X122307000Y-111972000D01*
G36*
X122307000Y-111972000D02*
G01*
X121926000Y-112226000D01*
X121672000Y-111972000D01*
X122053000Y-111718000D01*
X122307000Y-111972000D01*
G37*
X122434000Y-111210000D02*
X122053000Y-111464000D01*
X121799000Y-111210000D01*
X122180000Y-110956000D01*
X122434000Y-111210000D01*
G36*
X122434000Y-111210000D02*
G01*
X122053000Y-111464000D01*
X121799000Y-111210000D01*
X122180000Y-110956000D01*
X122434000Y-111210000D01*
G37*
X122561000Y-110448000D02*
X122180000Y-110702000D01*
X121926000Y-110448000D01*
X122307000Y-110194000D01*
X122561000Y-110448000D01*
G36*
X122561000Y-110448000D02*
G01*
X122180000Y-110702000D01*
X121926000Y-110448000D01*
X122307000Y-110194000D01*
X122561000Y-110448000D01*
G37*
X122688000Y-112353000D02*
X122307000Y-112607000D01*
X122053000Y-112353000D01*
X122434000Y-112099000D01*
X122688000Y-112353000D01*
G36*
X122688000Y-112353000D02*
G01*
X122307000Y-112607000D01*
X122053000Y-112353000D01*
X122434000Y-112099000D01*
X122688000Y-112353000D01*
G37*
X122942000Y-110829000D02*
X122561000Y-111083000D01*
X122307000Y-110829000D01*
X122688000Y-110575000D01*
X122942000Y-110829000D01*
G36*
X122942000Y-110829000D02*
G01*
X122561000Y-111083000D01*
X122307000Y-110829000D01*
X122688000Y-110575000D01*
X122942000Y-110829000D01*
G37*
X123069000Y-110067000D02*
X122688000Y-110321000D01*
X122434000Y-110067000D01*
X122815000Y-109813000D01*
X123069000Y-110067000D01*
G36*
X123069000Y-110067000D02*
G01*
X122688000Y-110321000D01*
X122434000Y-110067000D01*
X122815000Y-109813000D01*
X123069000Y-110067000D01*
G37*
D13*
G04 #@! TO.C,R17*
X146450279Y-91990000D02*
X146124721Y-91990000D01*
X146450279Y-93010000D02*
X146124721Y-93010000D01*
G04 #@! TO.C,R20*
X150272936Y-121765000D02*
X150727064Y-121765000D01*
X150272936Y-123235000D02*
X150727064Y-123235000D01*
G04 #@! TO.C,R19*
X150772936Y-119265000D02*
X151227064Y-119265000D01*
X150772936Y-120735000D02*
X151227064Y-120735000D01*
G04 #@! TO.C,R5*
X105490000Y-124337221D02*
X105490000Y-124662779D01*
X106510000Y-124337221D02*
X106510000Y-124662779D01*
G04 #@! TO.C,J11*
X88055000Y-104315000D02*
X89055000Y-103315000D01*
X88055000Y-127685000D02*
X88055000Y-104315000D01*
X89055000Y-103315000D02*
X98185000Y-103315000D01*
X89055000Y-128685000D02*
X88055000Y-127685000D01*
X98185000Y-103315000D02*
X98185000Y-128685000D01*
X98185000Y-128685000D02*
X89055000Y-128685000D01*
G04 #@! TD*
%LPC*%
D14*
G04 #@! TO.C,MK2*
X208000000Y-77500000D03*
G04 #@! TD*
D15*
G04 #@! TO.C,U3*
X159430000Y-106670000D03*
X159430000Y-109210000D03*
D16*
X159430000Y-111750000D03*
X159430000Y-114290000D03*
D15*
X197530000Y-111710000D03*
X197530000Y-114250000D03*
D16*
X197530000Y-116790000D03*
X197530000Y-119330000D03*
G04 #@! TD*
D17*
G04 #@! TO.C,R16*
X147030000Y-94990000D03*
X145455000Y-94990000D03*
G04 #@! TD*
D18*
G04 #@! TO.C,R3*
X105000000Y-117212500D03*
X105000000Y-118787500D03*
G04 #@! TD*
D19*
G04 #@! TO.C,R30*
X108212500Y-105500000D03*
X109787500Y-105500000D03*
G04 #@! TD*
D20*
G04 #@! TO.C,R2*
X106500000Y-114002100D03*
X106500000Y-112427100D03*
G04 #@! TD*
D21*
G04 #@! TO.C,C3*
X107375000Y-101623200D03*
X105625000Y-101623200D03*
G04 #@! TD*
D22*
G04 #@! TO.C,J7*
X143650000Y-76180000D03*
X151350000Y-76180000D03*
D23*
X141500000Y-80500000D03*
D24*
X144500000Y-80500000D03*
X147500000Y-80500000D03*
X150500000Y-80500000D03*
X153500000Y-80500000D03*
G04 #@! TD*
D25*
G04 #@! TO.C,J14*
X94500000Y-93500000D03*
D26*
X94500000Y-95500000D03*
G04 #@! TD*
D22*
G04 #@! TO.C,J6*
X168800000Y-76000000D03*
X176500000Y-76000000D03*
D23*
X166650000Y-80320000D03*
D24*
X169650000Y-80320000D03*
X172650000Y-80320000D03*
X175650000Y-80320000D03*
X178650000Y-80320000D03*
G04 #@! TD*
D21*
G04 #@! TO.C,C4*
X107375000Y-99000000D03*
X105625000Y-99000000D03*
G04 #@! TD*
D18*
G04 #@! TO.C,R1*
X105500000Y-108712500D03*
X105500000Y-110287500D03*
G04 #@! TD*
D14*
G04 #@! TO.C,MK1*
X92769400Y-77500000D03*
G04 #@! TD*
D20*
G04 #@! TO.C,R4*
X107500000Y-121287500D03*
X107500000Y-119712500D03*
G04 #@! TD*
D15*
G04 #@! TO.C,U2*
X159430000Y-123670000D03*
X159430000Y-126210000D03*
D16*
X159430000Y-128750000D03*
X159430000Y-131290000D03*
D15*
X197530000Y-128710000D03*
X197530000Y-131250000D03*
D16*
X197530000Y-133790000D03*
X197530000Y-136330000D03*
G04 #@! TD*
D15*
G04 #@! TO.C,U4*
X160000000Y-84880000D03*
D27*
X160000000Y-87420000D03*
X160000000Y-89960000D03*
X160000000Y-92500000D03*
G04 #@! TD*
D19*
G04 #@! TO.C,R7*
X134212500Y-119010000D03*
X135787500Y-119010000D03*
G04 #@! TD*
D28*
G04 #@! TO.C,R18*
X150087500Y-117050000D03*
X151912500Y-117050000D03*
G04 #@! TD*
D19*
G04 #@! TO.C,R6*
X134212500Y-116500000D03*
X135787500Y-116500000D03*
G04 #@! TD*
D22*
G04 #@! TO.C,J12*
X208820000Y-92160000D03*
X208820000Y-96860000D03*
D29*
X204500000Y-90000000D03*
D30*
X204500000Y-93000000D03*
X204500000Y-96000000D03*
X204500000Y-99000000D03*
X201500000Y-90000000D03*
X201500000Y-93000000D03*
X201500000Y-96000000D03*
X201500000Y-99000000D03*
G04 #@! TD*
D19*
G04 #@! TO.C,R33*
X108425000Y-108500000D03*
X110000000Y-108500000D03*
G04 #@! TD*
D15*
G04 #@! TO.C,U1*
X114380000Y-80200000D03*
D16*
X114380000Y-82740000D03*
X114380000Y-85280000D03*
X114380000Y-87820000D03*
X114380000Y-90360000D03*
X114380000Y-92900000D03*
X114380000Y-95440000D03*
X114380000Y-97980000D03*
X114380000Y-100520000D03*
X114380000Y-103060000D03*
X114380000Y-105600000D03*
X114380000Y-108140000D03*
X114380000Y-110680000D03*
X114380000Y-113220000D03*
X114380000Y-115760000D03*
X114380000Y-118300000D03*
X114380000Y-120840000D03*
X114380000Y-123380000D03*
X114380000Y-125920000D03*
X114380000Y-128460000D03*
X114380000Y-131000000D03*
X114380000Y-133540000D03*
X114380000Y-136080000D03*
X114380000Y-138620000D03*
X129620000Y-138620000D03*
X129620000Y-136080000D03*
X129620000Y-133540000D03*
X129620000Y-131000000D03*
X129620000Y-128460000D03*
X129620000Y-125920000D03*
X129620000Y-123380000D03*
X129620000Y-120840000D03*
X129620000Y-118300000D03*
X129620000Y-115760000D03*
X129620000Y-113220000D03*
X129620000Y-110680000D03*
X129620000Y-108140000D03*
X129620000Y-105600000D03*
X129620000Y-103060000D03*
X129620000Y-100520000D03*
X129620000Y-97980000D03*
X129620000Y-95440000D03*
X129620000Y-92900000D03*
X129620000Y-90360000D03*
X129620000Y-87820000D03*
X129620000Y-85280000D03*
X129620000Y-82740000D03*
X129620000Y-80200000D03*
G04 #@! TD*
D14*
G04 #@! TO.C,MK3*
X92769400Y-134865000D03*
G04 #@! TD*
D17*
G04 #@! TO.C,R17*
X147075000Y-92500000D03*
X145500000Y-92500000D03*
G04 #@! TD*
D14*
G04 #@! TO.C,MK5*
X208000000Y-122840000D03*
G04 #@! TD*
G04 #@! TO.C,MK4*
X208000000Y-134865000D03*
G04 #@! TD*
D28*
G04 #@! TO.C,R20*
X149587500Y-122500000D03*
X151412500Y-122500000D03*
G04 #@! TD*
G04 #@! TO.C,R19*
X150087500Y-120000000D03*
X151912500Y-120000000D03*
G04 #@! TD*
D18*
G04 #@! TO.C,R5*
X106000000Y-123712500D03*
X106000000Y-125287500D03*
G04 #@! TD*
D22*
G04 #@! TO.C,J11*
X92765000Y-122840000D03*
X92765000Y-109140000D03*
D31*
X97085000Y-125000000D03*
D30*
X97085000Y-122000000D03*
X97085000Y-119000000D03*
X97085000Y-116000000D03*
X97085000Y-113000000D03*
X97085000Y-110000000D03*
X97085000Y-107000000D03*
X100085000Y-125000000D03*
X100085000Y-122000000D03*
X100085000Y-119000000D03*
X100085000Y-116000000D03*
X100085000Y-113000000D03*
X100085000Y-110000000D03*
X100085000Y-107000000D03*
G04 #@! TD*
D32*
G04 #@! TO.C,J3*
X151250000Y-105000000D03*
D33*
X151250000Y-110000000D03*
X151250000Y-107500000D03*
D34*
X143750000Y-113100000D03*
X143750000Y-101900000D03*
D33*
X136750000Y-105000000D03*
X136750000Y-110000000D03*
G04 #@! TD*
D15*
G04 #@! TO.C,J8*
X185840000Y-77500000D03*
D27*
X188380000Y-77500000D03*
X190920000Y-77500000D03*
X193460000Y-77500000D03*
X196000000Y-77500000D03*
G04 #@! TD*
D35*
G04 #@! TO.C,J2*
X183620000Y-97400000D03*
X181080000Y-97400000D03*
X178540000Y-97400000D03*
X176000000Y-97400000D03*
G04 #@! TD*
%LPD*%
M02*
