G04 #@! TF.GenerationSoftware,KiCad,Pcbnew,9.0.1*
G04 #@! TF.CreationDate,2025-06-09T13:53:07-07:00*
G04 #@! TF.ProjectId,chop_microcontroller_board,63686f70-5f6d-4696-9372-6f636f6e7472,rev?*
G04 #@! TF.SameCoordinates,Original*
G04 #@! TF.FileFunction,Copper,L2,Inr*
G04 #@! TF.FilePolarity,Positive*
%FSLAX46Y46*%
G04 Gerber Fmt 4.6, Leading zero omitted, Abs format (unit mm)*
G04 Created by KiCad (PCBNEW 9.0.1) date 2025-06-09 13:53:07*
%MOMM*%
%LPD*%
G01*
G04 APERTURE LIST*
G04 Aperture macros list*
%AMRoundRect*
0 Rectangle with rounded corners*
0 $1 Rounding radius*
0 $2 $3 $4 $5 $6 $7 $8 $9 X,Y pos of 4 corners*
0 Add a 4 corners polygon primitive as box body*
4,1,4,$2,$3,$4,$5,$6,$7,$8,$9,$2,$3,0*
0 Add four circle primitives for the rounded corners*
1,1,$1+$1,$2,$3*
1,1,$1+$1,$4,$5*
1,1,$1+$1,$6,$7*
1,1,$1+$1,$8,$9*
0 Add four rect primitives between the rounded corners*
20,1,$1+$1,$2,$3,$4,$5,0*
20,1,$1+$1,$4,$5,$6,$7,0*
20,1,$1+$1,$6,$7,$8,$9,0*
20,1,$1+$1,$8,$9,$2,$3,0*%
G04 Aperture macros list end*
G04 #@! TA.AperFunction,ComponentPad*
%ADD10O,1.700000X1.700000*%
G04 #@! TD*
G04 #@! TA.AperFunction,ComponentPad*
%ADD11R,1.700000X1.700000*%
G04 #@! TD*
G04 #@! TA.AperFunction,ComponentPad*
%ADD12RoundRect,0.250001X-0.499999X-0.759999X0.499999X-0.759999X0.499999X0.759999X-0.499999X0.759999X0*%
G04 #@! TD*
G04 #@! TA.AperFunction,ComponentPad*
%ADD13O,1.500000X2.020000*%
G04 #@! TD*
G04 #@! TA.AperFunction,ComponentPad*
%ADD14RoundRect,0.250000X-0.625000X0.350000X-0.625000X-0.350000X0.625000X-0.350000X0.625000X0.350000X0*%
G04 #@! TD*
G04 #@! TA.AperFunction,ComponentPad*
%ADD15O,1.750000X1.200000*%
G04 #@! TD*
G04 #@! TA.AperFunction,ComponentPad*
%ADD16C,1.700000*%
G04 #@! TD*
G04 #@! TA.AperFunction,ComponentPad*
%ADD17RoundRect,0.250001X-0.499999X0.499999X-0.499999X-0.499999X0.499999X-0.499999X0.499999X0.499999X0*%
G04 #@! TD*
G04 #@! TA.AperFunction,ComponentPad*
%ADD18C,1.500000*%
G04 #@! TD*
G04 #@! TA.AperFunction,ComponentPad*
%ADD19RoundRect,0.250001X0.499999X-0.499999X0.499999X0.499999X-0.499999X0.499999X-0.499999X-0.499999X0*%
G04 #@! TD*
G04 #@! TA.AperFunction,ComponentPad*
%ADD20R,2.000000X2.000000*%
G04 #@! TD*
G04 #@! TA.AperFunction,ComponentPad*
%ADD21C,2.000000*%
G04 #@! TD*
G04 #@! TA.AperFunction,ComponentPad*
%ADD22R,3.000000X2.500000*%
G04 #@! TD*
G04 #@! TA.AperFunction,ComponentPad*
%ADD23O,1.600000X2.000000*%
G04 #@! TD*
G04 #@! TA.AperFunction,ViaPad*
%ADD24C,0.800000*%
G04 #@! TD*
G04 #@! TA.AperFunction,ViaPad*
%ADD25C,1.500000*%
G04 #@! TD*
G04 #@! TA.AperFunction,Conductor*
%ADD26C,0.250000*%
G04 #@! TD*
G04 APERTURE END LIST*
D10*
G04 #@! TO.N,+5V*
G04 #@! TO.C,U1*
X129620000Y-80200000D03*
G04 #@! TO.N,GNDREF*
X129620000Y-82740000D03*
G04 #@! TO.N,+3.3V*
X129620000Y-85280000D03*
G04 #@! TO.N,unconnected-(U1-23_A9_CRX1_MCLK1-Pad45)*
X129620000Y-87820000D03*
G04 #@! TO.N,/PUMP_PWM_IN*
X129620000Y-90360000D03*
G04 #@! TO.N,unconnected-(U1-21_A7_RX5_BCLK1-Pad43)*
X129620000Y-92900000D03*
G04 #@! TO.N,unconnected-(U1-20_A6_TX5_LRCLK1-Pad42)*
X129620000Y-95440000D03*
G04 #@! TO.N,/SCL*
X129620000Y-97980000D03*
G04 #@! TO.N,/SDA*
X129620000Y-100520000D03*
G04 #@! TO.N,unconnected-(U1-17_A3_TX4_SDA1-Pad39)*
X129620000Y-103060000D03*
G04 #@! TO.N,unconnected-(U1-16_A2_RX4_SCL1-Pad38)*
X129620000Y-105600000D03*
G04 #@! TO.N,ENC_SW*
X129620000Y-108140000D03*
G04 #@! TO.N,ENC_A*
X129620000Y-110680000D03*
G04 #@! TO.N,ENC_B*
X129620000Y-113220000D03*
G04 #@! TO.N,GNDREF*
X129620000Y-115760000D03*
G04 #@! TO.N,/ANALOG_FLOW*
X129620000Y-118300000D03*
G04 #@! TO.N,unconnected-(U1-40_A16-Pad32)*
X129620000Y-120840000D03*
G04 #@! TO.N,unconnected-(U1-39_MISO1_OUT1A-Pad31)*
X129620000Y-123380000D03*
G04 #@! TO.N,unconnected-(U1-38_CS1_IN1-Pad30)*
X129620000Y-125920000D03*
G04 #@! TO.N,unconnected-(U1-37_CS-Pad29)*
X129620000Y-128460000D03*
G04 #@! TO.N,unconnected-(U1-36_CS-Pad28)*
X129620000Y-131000000D03*
G04 #@! TO.N,unconnected-(U1-35_TX8-Pad27)*
X129620000Y-133540000D03*
G04 #@! TO.N,unconnected-(U1-34_RX8-Pad26)*
X129620000Y-136080000D03*
G04 #@! TO.N,/uPC_RTD_DRDY*
X129620000Y-138620000D03*
G04 #@! TO.N,/SAFETY_CS*
X114380000Y-138620000D03*
G04 #@! TO.N,/uPC_RTD_CS*
X114380000Y-136080000D03*
G04 #@! TO.N,/HL3_CS*
X114380000Y-133540000D03*
G04 #@! TO.N,/HL2_CS*
X114380000Y-131000000D03*
G04 #@! TO.N,/HL1_CS*
X114380000Y-128460000D03*
G04 #@! TO.N,/SCK_1*
X114380000Y-125920000D03*
G04 #@! TO.N,/MOSI_1*
X114380000Y-123380000D03*
G04 #@! TO.N,unconnected-(U1-25_A11_RX6_SDA2-Pad17)*
X114380000Y-120840000D03*
G04 #@! TO.N,Net-(U1-24_A10_TX6_SCL2)*
X114380000Y-118300000D03*
G04 #@! TO.N,unconnected-(U1-3V3-Pad15)*
X114380000Y-115760000D03*
G04 #@! TO.N,unconnected-(U1-12_MISO_MQSL-Pad14)*
X114380000Y-113220000D03*
G04 #@! TO.N,unconnected-(U1-11_MOSI_CTX1-Pad13)*
X114380000Y-110680000D03*
G04 #@! TO.N,unconnected-(U1-10_CS_MQSR-Pad12)*
X114380000Y-108140000D03*
G04 #@! TO.N,unconnected-(U1-9_OUT1C-Pad11)*
X114380000Y-105600000D03*
G04 #@! TO.N,unconnected-(U1-8_TX2_IN1-Pad10)*
X114380000Y-103060000D03*
G04 #@! TO.N,unconnected-(U1-7_RX2_OUT1A-Pad9)*
X114380000Y-100520000D03*
G04 #@! TO.N,unconnected-(U1-6_OUT1D-Pad8)*
X114380000Y-97980000D03*
G04 #@! TO.N,unconnected-(U1-5_IN2-Pad7)*
X114380000Y-95440000D03*
G04 #@! TO.N,/uPC_PWM_IN*
X114380000Y-92900000D03*
G04 #@! TO.N,/HL3_PWM_IN*
X114380000Y-90360000D03*
G04 #@! TO.N,/HL2_PWM_IN*
X114380000Y-87820000D03*
G04 #@! TO.N,/MISO_1*
X114380000Y-85280000D03*
G04 #@! TO.N,/HL1_PWM_IN*
X114380000Y-82740000D03*
D11*
G04 #@! TO.N,GNDREF*
X114380000Y-80200000D03*
G04 #@! TD*
G04 #@! TO.N,GNDREF*
G04 #@! TO.C,U3*
X159430000Y-106670000D03*
X159430000Y-109210000D03*
D10*
G04 #@! TO.N,+8.4V*
X159430000Y-111750000D03*
G04 #@! TO.N,unconnected-(U3-Vin-Pad4)*
X159430000Y-114290000D03*
D11*
G04 #@! TO.N,GNDREF*
X197530000Y-111710000D03*
X197530000Y-114250000D03*
D10*
G04 #@! TO.N,+12V*
X197530000Y-116790000D03*
G04 #@! TO.N,unconnected-(U3-Vout-Pad8)*
X197530000Y-119330000D03*
G04 #@! TD*
D12*
G04 #@! TO.N,+5V*
G04 #@! TO.C,J7*
X141500000Y-80500000D03*
D13*
G04 #@! TO.N,/SDA*
X144500000Y-80500000D03*
G04 #@! TO.N,/SCL*
X147500000Y-80500000D03*
G04 #@! TO.N,GNDREF*
X150500000Y-80500000D03*
G04 #@! TO.N,/PUMP_PWM_IN*
X153500000Y-80500000D03*
G04 #@! TD*
D14*
G04 #@! TO.N,+8.4V*
G04 #@! TO.C,J14*
X94500000Y-93500000D03*
D15*
G04 #@! TO.N,GNDREF*
X94500000Y-95500000D03*
G04 #@! TD*
D12*
G04 #@! TO.N,/ANALOG_FLOW*
G04 #@! TO.C,J6*
X166650000Y-80320000D03*
D13*
G04 #@! TO.N,+5V*
X169650000Y-80320000D03*
G04 #@! TO.N,GNDREF*
X172650000Y-80320000D03*
G04 #@! TO.N,/SDA*
X175650000Y-80320000D03*
G04 #@! TO.N,/SCL*
X178650000Y-80320000D03*
G04 #@! TD*
D11*
G04 #@! TO.N,GNDREF*
G04 #@! TO.C,U2*
X159430000Y-123670000D03*
X159430000Y-126210000D03*
D10*
G04 #@! TO.N,+12V*
X159430000Y-128750000D03*
G04 #@! TO.N,unconnected-(U2-Vin-Pad4)*
X159430000Y-131290000D03*
D11*
G04 #@! TO.N,GNDREF*
X197530000Y-128710000D03*
X197530000Y-131250000D03*
D10*
G04 #@! TO.N,+24V*
X197530000Y-133790000D03*
G04 #@! TO.N,unconnected-(U2-Vout-Pad8)*
X197530000Y-136330000D03*
G04 #@! TD*
D11*
G04 #@! TO.N,+5V*
G04 #@! TO.C,U4*
X160000000Y-84880000D03*
D16*
G04 #@! TO.N,GNDREF*
X160000000Y-87420000D03*
G04 #@! TO.N,+8.4V*
X160000000Y-89960000D03*
G04 #@! TO.N,unconnected-(U4-SHDN-Pad4)*
X160000000Y-92500000D03*
G04 #@! TD*
D17*
G04 #@! TO.N,+24V*
G04 #@! TO.C,J12*
X204500000Y-90000000D03*
D18*
G04 #@! TO.N,+12V*
X204500000Y-93000000D03*
G04 #@! TO.N,+3.3V*
X204500000Y-96000000D03*
G04 #@! TO.N,GNDREF*
X204500000Y-99000000D03*
G04 #@! TO.N,+24V*
X201500000Y-90000000D03*
G04 #@! TO.N,+12V*
X201500000Y-93000000D03*
G04 #@! TO.N,+3.3V*
X201500000Y-96000000D03*
G04 #@! TO.N,GNDREF*
X201500000Y-99000000D03*
G04 #@! TD*
D19*
G04 #@! TO.N,/SAFETY_CS*
G04 #@! TO.C,J11*
X97085000Y-125000000D03*
D18*
G04 #@! TO.N,/uPC_RTD_CS*
X97085000Y-122000000D03*
G04 #@! TO.N,/HL3_PWM_IN*
X97085000Y-119000000D03*
G04 #@! TO.N,/HL2_CS*
X97085000Y-116000000D03*
G04 #@! TO.N,/HL1_PWM_IN*
X97085000Y-113000000D03*
G04 #@! TO.N,/MOSI_1*
X97085000Y-110000000D03*
G04 #@! TO.N,/MISO_1*
X97085000Y-107000000D03*
G04 #@! TO.N,unconnected-(J11-Pin_8-Pad8)*
X100085000Y-125000000D03*
G04 #@! TO.N,/uPC_RTD_DRDY*
X100085000Y-122000000D03*
G04 #@! TO.N,/uPC_PWM_IN*
X100085000Y-119000000D03*
G04 #@! TO.N,/HL3_CS*
X100085000Y-116000000D03*
G04 #@! TO.N,/HL2_PWM_IN*
X100085000Y-113000000D03*
G04 #@! TO.N,/HL1_CS*
X100085000Y-110000000D03*
G04 #@! TO.N,/SCK_1*
X100085000Y-107000000D03*
G04 #@! TD*
D20*
G04 #@! TO.N,ENC_A*
G04 #@! TO.C,J3*
X151250000Y-105000000D03*
D21*
G04 #@! TO.N,ENC_B*
X151250000Y-110000000D03*
G04 #@! TO.N,GNDREF*
X151250000Y-107500000D03*
D22*
G04 #@! TO.N,N/C*
X143750000Y-113100000D03*
X143750000Y-101900000D03*
D21*
G04 #@! TO.N,ENC_SW*
X136750000Y-105000000D03*
G04 #@! TO.N,GNDREF*
X136750000Y-110000000D03*
G04 #@! TD*
D11*
G04 #@! TO.N,+5V*
G04 #@! TO.C,J8*
X185840000Y-77500000D03*
D16*
G04 #@! TO.N,GNDREF*
X188380000Y-77500000D03*
G04 #@! TO.N,/SCL*
X190920000Y-77500000D03*
G04 #@! TO.N,/SDA*
X193460000Y-77500000D03*
G04 #@! TO.N,unconnected-(J8-Pin_5-Pad5)*
X196000000Y-77500000D03*
G04 #@! TD*
D23*
G04 #@! TO.N,GNDREF*
G04 #@! TO.C,J2*
X183620000Y-97400000D03*
G04 #@! TO.N,+3.3V*
X181080000Y-97400000D03*
G04 #@! TO.N,/SDA*
X178540000Y-97400000D03*
G04 #@! TO.N,/SCL*
X176000000Y-97400000D03*
G04 #@! TD*
D24*
G04 #@! TO.N,GNDREF*
X110500000Y-110500000D03*
D25*
X136000000Y-123000000D03*
D24*
X109500000Y-102000000D03*
G04 #@! TO.N,+3.3V*
X107836600Y-117260900D03*
X107777800Y-112427100D03*
X103000000Y-102000000D03*
X107932653Y-126067347D03*
D25*
X146000000Y-117000000D03*
X142500000Y-95000000D03*
D24*
G04 #@! TO.N,+8.4V*
X134000000Y-113500000D03*
G04 #@! TD*
D26*
G04 #@! TO.N,/SCL*
X168000000Y-97810000D02*
X150810000Y-97810000D01*
X178650000Y-87160000D02*
X168000000Y-97810000D01*
X145500000Y-92500000D02*
X140973116Y-92500000D01*
X150810000Y-97810000D02*
X145500000Y-92500000D01*
X178650000Y-80320000D02*
X178650000Y-87160000D01*
X140973116Y-92500000D02*
X135493116Y-97980000D01*
X168000000Y-97810000D02*
X175590000Y-97810000D01*
X175590000Y-97810000D02*
X176000000Y-97400000D01*
X135493116Y-97980000D02*
X129620000Y-97980000D01*
X190920000Y-77500000D02*
X192000000Y-78580000D01*
X176600000Y-97400000D02*
X192000000Y-82000000D01*
X192000000Y-78580000D02*
X192000000Y-82000000D01*
X176000000Y-97400000D02*
X176600000Y-97400000D01*
G04 #@! TO.N,/PUMP_PWM_IN*
X152164000Y-79164000D02*
X140754486Y-79164000D01*
X153500000Y-80500000D02*
X152164000Y-79164000D01*
X134316000Y-85602486D02*
X134316000Y-85664000D01*
X140754486Y-79164000D02*
X134316000Y-85602486D01*
X134316000Y-85664000D02*
X129620000Y-90360000D01*
G04 #@! TO.N,/uPC_RTD_CS*
X101800000Y-123500000D02*
X114380000Y-136080000D01*
X97085000Y-122000000D02*
X98585000Y-123500000D01*
X98585000Y-123500000D02*
X101800000Y-123500000D01*
G04 #@! TO.N,/HL2_CS*
X114380000Y-130123116D02*
X114380000Y-131000000D01*
G04 #@! TO.N,/HL3_CS*
X99639306Y-120076000D02*
X98161000Y-118597694D01*
X100076000Y-120076000D02*
X99639306Y-120076000D01*
X114380000Y-133540000D02*
X113540000Y-133540000D01*
X113540000Y-133540000D02*
X100076000Y-120076000D01*
X98161000Y-118554306D02*
X96682694Y-117076000D01*
X98161000Y-118597694D02*
X98161000Y-118554306D01*
X96682694Y-117076000D02*
X96639306Y-117076000D01*
X96639306Y-117076000D02*
X96009000Y-116445694D01*
X96009000Y-116445694D02*
X96009000Y-115554306D01*
X96009000Y-115554306D02*
X97063306Y-114500000D01*
X97063306Y-114500000D02*
X98585000Y-114500000D01*
X98585000Y-114500000D02*
X100085000Y-116000000D01*
G04 #@! TD*
G04 #@! TA.AperFunction,Conductor*
G04 #@! TO.N,+3.3V*
G36*
X213936400Y-70694462D02*
G01*
X213990938Y-70749000D01*
X214010900Y-70823500D01*
X214010900Y-140304500D01*
X213990938Y-140379000D01*
X213936400Y-140433538D01*
X213861900Y-140453500D01*
X87804900Y-140453500D01*
X87730400Y-140433538D01*
X87675862Y-140379000D01*
X87655900Y-140304500D01*
X87655900Y-134743706D01*
X90918900Y-134743706D01*
X90918900Y-134986293D01*
X90950560Y-135226781D01*
X90950561Y-135226787D01*
X90950562Y-135226789D01*
X91010427Y-135450208D01*
X91013347Y-135461103D01*
X91106178Y-135685216D01*
X91150926Y-135762721D01*
X91227464Y-135895289D01*
X91375135Y-136087738D01*
X91546662Y-136259265D01*
X91739111Y-136406936D01*
X91949188Y-136528224D01*
X92173300Y-136621054D01*
X92407611Y-136683838D01*
X92407617Y-136683838D01*
X92407618Y-136683839D01*
X92473000Y-136692446D01*
X92648112Y-136715500D01*
X92890688Y-136715500D01*
X93131189Y-136683838D01*
X93365500Y-136621054D01*
X93589612Y-136528224D01*
X93799689Y-136406936D01*
X93992138Y-136259265D01*
X94163665Y-136087738D01*
X94311336Y-135895289D01*
X94432624Y-135685212D01*
X94525454Y-135461100D01*
X94588238Y-135226789D01*
X94619900Y-134986288D01*
X94619900Y-134743712D01*
X94588238Y-134503211D01*
X94525454Y-134268900D01*
X94432624Y-134044788D01*
X94311336Y-133834711D01*
X94163665Y-133642262D01*
X93992138Y-133470735D01*
X93799689Y-133323064D01*
X93710520Y-133271582D01*
X93589616Y-133201778D01*
X93589614Y-133201777D01*
X93589612Y-133201776D01*
X93458332Y-133147398D01*
X93365503Y-133108947D01*
X93365501Y-133108946D01*
X93365500Y-133108946D01*
X93131189Y-133046162D01*
X93131187Y-133046161D01*
X93131181Y-133046160D01*
X92890693Y-133014500D01*
X92890688Y-133014500D01*
X92648112Y-133014500D01*
X92648106Y-133014500D01*
X92407618Y-133046160D01*
X92173296Y-133108947D01*
X91949183Y-133201778D01*
X91739112Y-133323063D01*
X91739111Y-133323064D01*
X91546662Y-133470735D01*
X91546660Y-133470736D01*
X91546656Y-133470740D01*
X91375140Y-133642256D01*
X91375136Y-133642260D01*
X91375135Y-133642262D01*
X91372047Y-133646287D01*
X91227463Y-133834712D01*
X91106178Y-134044783D01*
X91013347Y-134268896D01*
X90950560Y-134503218D01*
X90918900Y-134743706D01*
X87655900Y-134743706D01*
X87655900Y-122725262D01*
X91014500Y-122725262D01*
X91014500Y-122954737D01*
X91044450Y-123182229D01*
X91044450Y-123182232D01*
X91103840Y-123403883D01*
X91103840Y-123403884D01*
X91191658Y-123615892D01*
X91217246Y-123660212D01*
X91274859Y-123760001D01*
X91306391Y-123814615D01*
X91306391Y-123814616D01*
X91446081Y-123996661D01*
X91608339Y-124158919D01*
X91790388Y-124298611D01*
X91989112Y-124413344D01*
X92168062Y-124487467D01*
X92201115Y-124501159D01*
X92271362Y-124519981D01*
X92422762Y-124560548D01*
X92422766Y-124560548D01*
X92422768Y-124560549D01*
X92478324Y-124567863D01*
X92650263Y-124590499D01*
X92650264Y-124590500D01*
X92650266Y-124590500D01*
X92879736Y-124590500D01*
X92879736Y-124590499D01*
X93107230Y-124560549D01*
X93107232Y-124560549D01*
X93107233Y-124560548D01*
X93107238Y-124560548D01*
X93328883Y-124501159D01*
X93328884Y-124501159D01*
X93328885Y-124501158D01*
X93328887Y-124501158D01*
X93540888Y-124413344D01*
X93739612Y-124298611D01*
X93921661Y-124158919D01*
X94083919Y-123996661D01*
X94223611Y-123814612D01*
X94338344Y-123615888D01*
X94426158Y-123403887D01*
X94485548Y-123182238D01*
X94515500Y-122954734D01*
X94515500Y-122725266D01*
X94485548Y-122497762D01*
X94444508Y-122344598D01*
X94426159Y-122276116D01*
X94426159Y-122276115D01*
X94404965Y-122224949D01*
X94338344Y-122064112D01*
X94223611Y-121865388D01*
X94223608Y-121865384D01*
X94223608Y-121865383D01*
X94083918Y-121683338D01*
X93921661Y-121521081D01*
X93739615Y-121381391D01*
X93699814Y-121358412D01*
X93647385Y-121328142D01*
X93540892Y-121266658D01*
X93540890Y-121266657D01*
X93540888Y-121266656D01*
X93474786Y-121239275D01*
X93328884Y-121178840D01*
X93107231Y-121119450D01*
X92879737Y-121089500D01*
X92879734Y-121089500D01*
X92650266Y-121089500D01*
X92650262Y-121089500D01*
X92422770Y-121119450D01*
X92422767Y-121119450D01*
X92201116Y-121178840D01*
X92201115Y-121178840D01*
X91989107Y-121266658D01*
X91790384Y-121381391D01*
X91790383Y-121381391D01*
X91608338Y-121521081D01*
X91446081Y-121683338D01*
X91306391Y-121865383D01*
X91306391Y-121865384D01*
X91191658Y-122064107D01*
X91103840Y-122276115D01*
X91103840Y-122276116D01*
X91044450Y-122497767D01*
X91044450Y-122497770D01*
X91014500Y-122725262D01*
X87655900Y-122725262D01*
X87655900Y-115492700D01*
X95383500Y-115492700D01*
X95383500Y-115505439D01*
X95383500Y-116507301D01*
X95407536Y-116628143D01*
X95407539Y-116628152D01*
X95454686Y-116741975D01*
X95454690Y-116741984D01*
X95475026Y-116772419D01*
X95475032Y-116772426D01*
X95479902Y-116779714D01*
X95523142Y-116844427D01*
X95610267Y-116931552D01*
X95610270Y-116931554D01*
X95614424Y-116935708D01*
X96149702Y-117470986D01*
X96149709Y-117470994D01*
X96153448Y-117474733D01*
X96240573Y-117561858D01*
X96343020Y-117630311D01*
X96343021Y-117630311D01*
X96343022Y-117630312D01*
X96343701Y-117630675D01*
X96344938Y-117631592D01*
X96349107Y-117634378D01*
X96348970Y-117634582D01*
X96378828Y-117656725D01*
X96378831Y-117656727D01*
X96435387Y-117713284D01*
X96473950Y-117780079D01*
X96473950Y-117857207D01*
X96435385Y-117924002D01*
X96417608Y-117939185D01*
X96270357Y-118046169D01*
X96131174Y-118185352D01*
X96131165Y-118185363D01*
X96015477Y-118344593D01*
X96015474Y-118344598D01*
X95926121Y-118519963D01*
X95926117Y-118519972D01*
X95926116Y-118519975D01*
X95865291Y-118707174D01*
X95834500Y-118901583D01*
X95834500Y-119098417D01*
X95865291Y-119292826D01*
X95926116Y-119480025D01*
X95926119Y-119480030D01*
X95926121Y-119480036D01*
X95927336Y-119482420D01*
X96015476Y-119655405D01*
X96131172Y-119814646D01*
X96270354Y-119953828D01*
X96429595Y-120069524D01*
X96604975Y-120158884D01*
X96792174Y-120219709D01*
X96986583Y-120250500D01*
X96986588Y-120250500D01*
X97183412Y-120250500D01*
X97183417Y-120250500D01*
X97377826Y-120219709D01*
X97565025Y-120158884D01*
X97740405Y-120069524D01*
X97899646Y-119953828D01*
X98038828Y-119814646D01*
X98127559Y-119692518D01*
X98187495Y-119643984D01*
X98263674Y-119631918D01*
X98335679Y-119659558D01*
X98353458Y-119674743D01*
X99240572Y-120561857D01*
X99343020Y-120630311D01*
X99417119Y-120661004D01*
X99478305Y-120707953D01*
X99507821Y-120779210D01*
X99497755Y-120855679D01*
X99450803Y-120916869D01*
X99434451Y-120927188D01*
X99434590Y-120927415D01*
X99429593Y-120930477D01*
X99270363Y-121046165D01*
X99270352Y-121046174D01*
X99131174Y-121185352D01*
X99131165Y-121185363D01*
X99015477Y-121344593D01*
X99015474Y-121344598D01*
X98926121Y-121519963D01*
X98926114Y-121519981D01*
X98917069Y-121547818D01*
X98865291Y-121707174D01*
X98834500Y-121901583D01*
X98834500Y-122098417D01*
X98865291Y-122292826D01*
X98926116Y-122480025D01*
X98926119Y-122480030D01*
X98926121Y-122480036D01*
X98994032Y-122613319D01*
X99010068Y-122688761D01*
X98986234Y-122762114D01*
X98928916Y-122813723D01*
X98853474Y-122829759D01*
X98780121Y-122805925D01*
X98755913Y-122786322D01*
X98352609Y-122383018D01*
X98314045Y-122316223D01*
X98310802Y-122254354D01*
X98335500Y-122098417D01*
X98335500Y-121901583D01*
X98304709Y-121707174D01*
X98243884Y-121519975D01*
X98154524Y-121344595D01*
X98038828Y-121185354D01*
X97899646Y-121046172D01*
X97740405Y-120930476D01*
X97713700Y-120916869D01*
X97565036Y-120841121D01*
X97565030Y-120841119D01*
X97565025Y-120841116D01*
X97377826Y-120780291D01*
X97183417Y-120749500D01*
X96986583Y-120749500D01*
X96792174Y-120780291D01*
X96604975Y-120841116D01*
X96604972Y-120841117D01*
X96604963Y-120841121D01*
X96429598Y-120930474D01*
X96429593Y-120930477D01*
X96270363Y-121046165D01*
X96270352Y-121046174D01*
X96131174Y-121185352D01*
X96131165Y-121185363D01*
X96015477Y-121344593D01*
X96015474Y-121344598D01*
X95926121Y-121519963D01*
X95926114Y-121519981D01*
X95917069Y-121547818D01*
X95865291Y-121707174D01*
X95834500Y-121901583D01*
X95834500Y-122098417D01*
X95865291Y-122292826D01*
X95926116Y-122480025D01*
X95926119Y-122480030D01*
X95926121Y-122480036D01*
X95936400Y-122500209D01*
X96015476Y-122655405D01*
X96131172Y-122814646D01*
X96270354Y-122953828D01*
X96429595Y-123069524D01*
X96604975Y-123158884D01*
X96792174Y-123219709D01*
X96986583Y-123250500D01*
X96986588Y-123250500D01*
X97183412Y-123250500D01*
X97183417Y-123250500D01*
X97339353Y-123225802D01*
X97416056Y-123233865D01*
X97468018Y-123267609D01*
X97695550Y-123495141D01*
X97734114Y-123561936D01*
X97734114Y-123639064D01*
X97695550Y-123705859D01*
X97628755Y-123744423D01*
X97590191Y-123749500D01*
X96534992Y-123749500D01*
X96466466Y-123756500D01*
X96432201Y-123760001D01*
X96265663Y-123815187D01*
X96116344Y-123907289D01*
X95992289Y-124031344D01*
X95900187Y-124180663D01*
X95845001Y-124347201D01*
X95845001Y-124347203D01*
X95834500Y-124449992D01*
X95834500Y-125550008D01*
X95839991Y-125603756D01*
X95845001Y-125652798D01*
X95872350Y-125735332D01*
X95900186Y-125819334D01*
X95992289Y-125968655D01*
X96116345Y-126092711D01*
X96265666Y-126184814D01*
X96432203Y-126239999D01*
X96534992Y-126250500D01*
X96534996Y-126250500D01*
X97635004Y-126250500D01*
X97635008Y-126250500D01*
X97737797Y-126239999D01*
X97904334Y-126184814D01*
X98053655Y-126092711D01*
X98177711Y-125968655D01*
X98269814Y-125819334D01*
X98324999Y-125652797D01*
X98335500Y-125550008D01*
X98335500Y-124449992D01*
X98324999Y-124347203D01*
X98312851Y-124310542D01*
X98308365Y-124233545D01*
X98342979Y-124164620D01*
X98407418Y-124122237D01*
X98483354Y-124117536D01*
X98523393Y-124125500D01*
X98523394Y-124125500D01*
X98883965Y-124125500D01*
X98958465Y-124145462D01*
X99013003Y-124200000D01*
X99032965Y-124274500D01*
X99016725Y-124342145D01*
X99015478Y-124344591D01*
X99015476Y-124344595D01*
X98926116Y-124519975D01*
X98865291Y-124707174D01*
X98834500Y-124901583D01*
X98834500Y-125098417D01*
X98865291Y-125292826D01*
X98926116Y-125480025D01*
X98926119Y-125480030D01*
X98926121Y-125480036D01*
X98961771Y-125550003D01*
X99015476Y-125655405D01*
X99131172Y-125814646D01*
X99270354Y-125953828D01*
X99429595Y-126069524D01*
X99604975Y-126158884D01*
X99792174Y-126219709D01*
X99986583Y-126250500D01*
X99986588Y-126250500D01*
X100183412Y-126250500D01*
X100183417Y-126250500D01*
X100377826Y-126219709D01*
X100565025Y-126158884D01*
X100740405Y-126069524D01*
X100899646Y-125953828D01*
X101038828Y-125814646D01*
X101154524Y-125655405D01*
X101243884Y-125480025D01*
X101304709Y-125292826D01*
X101335500Y-125098417D01*
X101335500Y-124901583D01*
X101304709Y-124707174D01*
X101243884Y-124519975D01*
X101154524Y-124344595D01*
X101154521Y-124344591D01*
X101153275Y-124342145D01*
X101146040Y-124308108D01*
X101137035Y-124274500D01*
X101138073Y-124270625D01*
X101137239Y-124266702D01*
X101147991Y-124233609D01*
X101156997Y-124200000D01*
X101159833Y-124197163D01*
X101161073Y-124193349D01*
X101186929Y-124170067D01*
X101211535Y-124145462D01*
X101215409Y-124144423D01*
X101218390Y-124141740D01*
X101286035Y-124125500D01*
X101479192Y-124125500D01*
X101553692Y-124145462D01*
X101584551Y-124169141D01*
X113026738Y-135611329D01*
X113065302Y-135678124D01*
X113065302Y-135755252D01*
X113063090Y-135762721D01*
X113062754Y-135763752D01*
X113055179Y-135811582D01*
X113029500Y-135973713D01*
X113029500Y-136186287D01*
X113062754Y-136396243D01*
X113128443Y-136598412D01*
X113224949Y-136787816D01*
X113349896Y-136959792D01*
X113500208Y-137110104D01*
X113578844Y-137167236D01*
X113664482Y-137229456D01*
X113713020Y-137289396D01*
X113725086Y-137365575D01*
X113697446Y-137437580D01*
X113664482Y-137470544D01*
X113500209Y-137589895D01*
X113500206Y-137589897D01*
X113349897Y-137740206D01*
X113349895Y-137740209D01*
X113224950Y-137912181D01*
X113224950Y-137912182D01*
X113224949Y-137912184D01*
X113128443Y-138101588D01*
X113062754Y-138303757D01*
X113029500Y-138513713D01*
X113029500Y-138726287D01*
X113062754Y-138936243D01*
X113128443Y-139138412D01*
X113224949Y-139327816D01*
X113349896Y-139499792D01*
X113500208Y-139650104D01*
X113672184Y-139775051D01*
X113861588Y-139871557D01*
X114063757Y-139937246D01*
X114273713Y-139970500D01*
X114273718Y-139970500D01*
X114486282Y-139970500D01*
X114486287Y-139970500D01*
X114696243Y-139937246D01*
X114898412Y-139871557D01*
X115087816Y-139775051D01*
X115259792Y-139650104D01*
X115410104Y-139499792D01*
X115535051Y-139327816D01*
X115631557Y-139138412D01*
X115697246Y-138936243D01*
X115730500Y-138726287D01*
X115730500Y-138513713D01*
X115697246Y-138303757D01*
X115631557Y-138101588D01*
X115535051Y-137912184D01*
X115410104Y-137740208D01*
X115259792Y-137589896D01*
X115095517Y-137470544D01*
X115046979Y-137410604D01*
X115034913Y-137334426D01*
X115062553Y-137262420D01*
X115095517Y-137229456D01*
X115122585Y-137209790D01*
X115259792Y-137110104D01*
X115410104Y-136959792D01*
X115535051Y-136787816D01*
X115631557Y-136598412D01*
X115697246Y-136396243D01*
X115730500Y-136186287D01*
X115730500Y-135973713D01*
X115697246Y-135763757D01*
X115631557Y-135561588D01*
X115535051Y-135372184D01*
X115410104Y-135200208D01*
X115259792Y-135049896D01*
X115095517Y-134930544D01*
X115046979Y-134870604D01*
X115034913Y-134794426D01*
X115062553Y-134722420D01*
X115095517Y-134689456D01*
X115122589Y-134669787D01*
X115259792Y-134570104D01*
X115410104Y-134419792D01*
X115535051Y-134247816D01*
X115631557Y-134058412D01*
X115697246Y-133856243D01*
X115730500Y-133646287D01*
X115730500Y-133433713D01*
X115697246Y-133223757D01*
X115631557Y-133021588D01*
X115535051Y-132832184D01*
X115410104Y-132660208D01*
X115259792Y-132509896D01*
X115095517Y-132390544D01*
X115046979Y-132330604D01*
X115034913Y-132254426D01*
X115062553Y-132182420D01*
X115095517Y-132149456D01*
X115102519Y-132144368D01*
X115259792Y-132030104D01*
X115410104Y-131879792D01*
X115535051Y-131707816D01*
X115631557Y-131518412D01*
X115697246Y-131316243D01*
X115730500Y-131106287D01*
X115730500Y-130893713D01*
X115697246Y-130683757D01*
X115631557Y-130481588D01*
X115535051Y-130292184D01*
X115410104Y-130120208D01*
X115259792Y-129969896D01*
X115095517Y-129850544D01*
X115046979Y-129790604D01*
X115034913Y-129714426D01*
X115062553Y-129642420D01*
X115095517Y-129609456D01*
X115102519Y-129604368D01*
X115259792Y-129490104D01*
X115410104Y-129339792D01*
X115535051Y-129167816D01*
X115631557Y-128978412D01*
X115697246Y-128776243D01*
X115730500Y-128566287D01*
X115730500Y-128353713D01*
X115697246Y-128143757D01*
X115631557Y-127941588D01*
X115535051Y-127752184D01*
X115410104Y-127580208D01*
X115259792Y-127429896D01*
X115095517Y-127310544D01*
X115046979Y-127250604D01*
X115034913Y-127174426D01*
X115062553Y-127102420D01*
X115095517Y-127069456D01*
X115102519Y-127064368D01*
X115259792Y-126950104D01*
X115410104Y-126799792D01*
X115535051Y-126627816D01*
X115631557Y-126438412D01*
X115697246Y-126236243D01*
X115730500Y-126026287D01*
X115730500Y-125813713D01*
X115697246Y-125603757D01*
X115631557Y-125401588D01*
X115535051Y-125212184D01*
X115410104Y-125040208D01*
X115259792Y-124889896D01*
X115095517Y-124770544D01*
X115046979Y-124710604D01*
X115034913Y-124634426D01*
X115062553Y-124562420D01*
X115095517Y-124529456D01*
X115131622Y-124503224D01*
X115259792Y-124410104D01*
X115410104Y-124259792D01*
X115535051Y-124087816D01*
X115631557Y-123898412D01*
X115697246Y-123696243D01*
X115730500Y-123486287D01*
X115730500Y-123273713D01*
X115697246Y-123063757D01*
X115631557Y-122861588D01*
X115535051Y-122672184D01*
X115522860Y-122655405D01*
X115466380Y-122577666D01*
X115410104Y-122500208D01*
X115259792Y-122349896D01*
X115113900Y-122243900D01*
X115095517Y-122230544D01*
X115046979Y-122170604D01*
X115034913Y-122094426D01*
X115062553Y-122022420D01*
X115095517Y-121989456D01*
X115102519Y-121984368D01*
X115259792Y-121870104D01*
X115410104Y-121719792D01*
X115535051Y-121547816D01*
X115631557Y-121358412D01*
X115697246Y-121156243D01*
X115730500Y-120946287D01*
X115730500Y-120733713D01*
X115697246Y-120523757D01*
X115631557Y-120321588D01*
X115535051Y-120132184D01*
X115410104Y-119960208D01*
X115259792Y-119809896D01*
X115095517Y-119690544D01*
X115046979Y-119630604D01*
X115034913Y-119554426D01*
X115062553Y-119482420D01*
X115095517Y-119449456D01*
X115102519Y-119444368D01*
X115259792Y-119330104D01*
X115410104Y-119179792D01*
X115535051Y-119007816D01*
X115631557Y-118818412D01*
X115697246Y-118616243D01*
X115730500Y-118406287D01*
X115730500Y-118193713D01*
X115697246Y-117983757D01*
X115631557Y-117781588D01*
X115535051Y-117592184D01*
X115410104Y-117420208D01*
X115259792Y-117269896D01*
X115095517Y-117150544D01*
X115046979Y-117090604D01*
X115034913Y-117014426D01*
X115062553Y-116942420D01*
X115095517Y-116909456D01*
X115102519Y-116904368D01*
X115259792Y-116790104D01*
X115410104Y-116639792D01*
X115535051Y-116467816D01*
X115631557Y-116278412D01*
X115697246Y-116076243D01*
X115730500Y-115866287D01*
X115730500Y-115653713D01*
X115697246Y-115443757D01*
X115631557Y-115241588D01*
X115535051Y-115052184D01*
X115410104Y-114880208D01*
X115259792Y-114729896D01*
X115095517Y-114610544D01*
X115046979Y-114550604D01*
X115034913Y-114474426D01*
X115062553Y-114402420D01*
X115095517Y-114369456D01*
X115102519Y-114364368D01*
X115259792Y-114250104D01*
X115410104Y-114099792D01*
X115535051Y-113927816D01*
X115631557Y-113738412D01*
X115697246Y-113536243D01*
X115730500Y-113326287D01*
X115730500Y-113113713D01*
X115697246Y-112903757D01*
X115631557Y-112701588D01*
X115535051Y-112512184D01*
X115410104Y-112340208D01*
X115259792Y-112189896D01*
X115095517Y-112070544D01*
X115046979Y-112010604D01*
X115034913Y-111934426D01*
X115062553Y-111862420D01*
X115095517Y-111829456D01*
X115133154Y-111802111D01*
X115259792Y-111710104D01*
X115410104Y-111559792D01*
X115535051Y-111387816D01*
X115631557Y-111198412D01*
X115697246Y-110996243D01*
X115730500Y-110786287D01*
X115730500Y-110573713D01*
X115697246Y-110363757D01*
X115631557Y-110161588D01*
X115535051Y-109972184D01*
X115410104Y-109800208D01*
X115259792Y-109649896D01*
X115095517Y-109530544D01*
X115046979Y-109470604D01*
X115034913Y-109394426D01*
X115062553Y-109322420D01*
X115095517Y-109289456D01*
X115102519Y-109284368D01*
X115259792Y-109170104D01*
X115410104Y-109019792D01*
X115535051Y-108847816D01*
X115631557Y-108658412D01*
X115697246Y-108456243D01*
X115730500Y-108246287D01*
X115730500Y-108033713D01*
X115697246Y-107823757D01*
X115631557Y-107621588D01*
X115535051Y-107432184D01*
X115410104Y-107260208D01*
X115259792Y-107109896D01*
X115095517Y-106990544D01*
X115046979Y-106930604D01*
X115034913Y-106854426D01*
X115062553Y-106782420D01*
X115095517Y-106749456D01*
X115144910Y-106713570D01*
X115259792Y-106630104D01*
X115410104Y-106479792D01*
X115535051Y-106307816D01*
X115631557Y-106118412D01*
X115697246Y-105916243D01*
X115730500Y-105706287D01*
X115730500Y-105493713D01*
X115697246Y-105283757D01*
X115631557Y-105081588D01*
X115535051Y-104892184D01*
X115410104Y-104720208D01*
X115259792Y-104569896D01*
X115095517Y-104450544D01*
X115046979Y-104390604D01*
X115034913Y-104314426D01*
X115062553Y-104242420D01*
X115095517Y-104209456D01*
X115102519Y-104204368D01*
X115259792Y-104090104D01*
X115410104Y-103939792D01*
X115535051Y-103767816D01*
X115631557Y-103578412D01*
X115697246Y-103376243D01*
X115730500Y-103166287D01*
X115730500Y-102953713D01*
X115697246Y-102743757D01*
X115631557Y-102541588D01*
X115535051Y-102352184D01*
X115410104Y-102180208D01*
X115259792Y-102029896D01*
X115096570Y-101911309D01*
X115095517Y-101910544D01*
X115046979Y-101850604D01*
X115034913Y-101774426D01*
X115062553Y-101702420D01*
X115095517Y-101669456D01*
X115102519Y-101664368D01*
X115259792Y-101550104D01*
X115410104Y-101399792D01*
X115535051Y-101227816D01*
X115631557Y-101038412D01*
X115697246Y-100836243D01*
X115730500Y-100626287D01*
X115730500Y-100413713D01*
X115697246Y-100203757D01*
X115631557Y-100001588D01*
X115535051Y-99812184D01*
X115410104Y-99640208D01*
X115259792Y-99489896D01*
X115095517Y-99370544D01*
X115046979Y-99310604D01*
X115034913Y-99234426D01*
X115062553Y-99162420D01*
X115095517Y-99129456D01*
X115102519Y-99124368D01*
X115259792Y-99010104D01*
X115410104Y-98859792D01*
X115535051Y-98687816D01*
X115631557Y-98498412D01*
X115697246Y-98296243D01*
X115730500Y-98086287D01*
X115730500Y-97873713D01*
X115697246Y-97663757D01*
X115631557Y-97461588D01*
X115535051Y-97272184D01*
X115518933Y-97250000D01*
X115487697Y-97207007D01*
X115410104Y-97100208D01*
X115259792Y-96949896D01*
X115095517Y-96830544D01*
X115046979Y-96770604D01*
X115034913Y-96694426D01*
X115062553Y-96622420D01*
X115095517Y-96589456D01*
X115106582Y-96581417D01*
X115259792Y-96470104D01*
X115410104Y-96319792D01*
X115535051Y-96147816D01*
X115631557Y-95958412D01*
X115697246Y-95756243D01*
X115730500Y-95546287D01*
X115730500Y-95333713D01*
X115697246Y-95123757D01*
X115631557Y-94921588D01*
X115535051Y-94732184D01*
X115410104Y-94560208D01*
X115259792Y-94409896D01*
X115095517Y-94290544D01*
X115046979Y-94230604D01*
X115034913Y-94154426D01*
X115062553Y-94082420D01*
X115095517Y-94049456D01*
X115102519Y-94044368D01*
X115259792Y-93930104D01*
X115410104Y-93779792D01*
X115535051Y-93607816D01*
X115631557Y-93418412D01*
X115697246Y-93216243D01*
X115730500Y-93006287D01*
X115730500Y-92793713D01*
X115697246Y-92583757D01*
X115631557Y-92381588D01*
X115535051Y-92192184D01*
X115528928Y-92183757D01*
X115510283Y-92158093D01*
X115410104Y-92020208D01*
X115259792Y-91869896D01*
X115095517Y-91750544D01*
X115046979Y-91690604D01*
X115034913Y-91614426D01*
X115062553Y-91542420D01*
X115095517Y-91509456D01*
X115102519Y-91504368D01*
X115259792Y-91390104D01*
X115410104Y-91239792D01*
X115535051Y-91067816D01*
X115631557Y-90878412D01*
X115697246Y-90676243D01*
X115730500Y-90466287D01*
X115730500Y-90253713D01*
X115697246Y-90043757D01*
X115631557Y-89841588D01*
X115535051Y-89652184D01*
X115528928Y-89643757D01*
X115510283Y-89618093D01*
X115410104Y-89480208D01*
X115259792Y-89329896D01*
X115095517Y-89210544D01*
X115046979Y-89150604D01*
X115034913Y-89074426D01*
X115062553Y-89002420D01*
X115095517Y-88969456D01*
X115149167Y-88930477D01*
X115259792Y-88850104D01*
X115410104Y-88699792D01*
X115535051Y-88527816D01*
X115631557Y-88338412D01*
X115697246Y-88136243D01*
X115730500Y-87926287D01*
X115730500Y-87713713D01*
X115697246Y-87503757D01*
X115631557Y-87301588D01*
X115535051Y-87112184D01*
X115528928Y-87103757D01*
X115510283Y-87078093D01*
X115410104Y-86940208D01*
X115259792Y-86789896D01*
X115095517Y-86670544D01*
X115046979Y-86610604D01*
X115034913Y-86534426D01*
X115062553Y-86462420D01*
X115095517Y-86429456D01*
X115134835Y-86400890D01*
X115259792Y-86310104D01*
X115410104Y-86159792D01*
X115535051Y-85987816D01*
X115631557Y-85798412D01*
X115697246Y-85596243D01*
X115730500Y-85386287D01*
X115730500Y-85173713D01*
X115697246Y-84963757D01*
X115631557Y-84761588D01*
X115535051Y-84572184D01*
X115410104Y-84400208D01*
X115259792Y-84249896D01*
X115095517Y-84130544D01*
X115046979Y-84070604D01*
X115034913Y-83994426D01*
X115062553Y-83922420D01*
X115095517Y-83889456D01*
X115118474Y-83872777D01*
X115259792Y-83770104D01*
X115410104Y-83619792D01*
X115535051Y-83447816D01*
X115631557Y-83258412D01*
X115697246Y-83056243D01*
X115730500Y-82846287D01*
X115730500Y-82633713D01*
X115697246Y-82423757D01*
X115631557Y-82221588D01*
X115535051Y-82032184D01*
X115410104Y-81860208D01*
X115324075Y-81774179D01*
X115285512Y-81707385D01*
X115285512Y-81630257D01*
X115324076Y-81563462D01*
X115377366Y-81529215D01*
X115408278Y-81517685D01*
X115472327Y-81493798D01*
X115472333Y-81493795D01*
X115577046Y-81415406D01*
X115587546Y-81407546D01*
X115673796Y-81292331D01*
X115724091Y-81157483D01*
X115727046Y-81130003D01*
X115730499Y-81097885D01*
X115730499Y-81097882D01*
X115730500Y-81097873D01*
X115730499Y-80093713D01*
X128269500Y-80093713D01*
X128269500Y-80306287D01*
X128302754Y-80516243D01*
X128368443Y-80718412D01*
X128464949Y-80907816D01*
X128589896Y-81079792D01*
X128740208Y-81230104D01*
X128818844Y-81287236D01*
X128904482Y-81349456D01*
X128953020Y-81409396D01*
X128965086Y-81485575D01*
X128937446Y-81557580D01*
X128904482Y-81590544D01*
X128740209Y-81709895D01*
X128740206Y-81709897D01*
X128589897Y-81860206D01*
X128589895Y-81860209D01*
X128464950Y-82032181D01*
X128464950Y-82032182D01*
X128464949Y-82032184D01*
X128368443Y-82221588D01*
X128302754Y-82423757D01*
X128269500Y-82633713D01*
X128269500Y-82846287D01*
X128302754Y-83056243D01*
X128368443Y-83258412D01*
X128464949Y-83447816D01*
X128589896Y-83619792D01*
X128740208Y-83770104D01*
X128764386Y-83787670D01*
X128904908Y-83889765D01*
X128953446Y-83949705D01*
X128965512Y-84025883D01*
X128937872Y-84097889D01*
X128904908Y-84130852D01*
X128740543Y-84250270D01*
X128740532Y-84250279D01*
X128590279Y-84400532D01*
X128590277Y-84400535D01*
X128465378Y-84572443D01*
X128465378Y-84572444D01*
X128368906Y-84761777D01*
X128303244Y-84963863D01*
X128303242Y-84963871D01*
X128292769Y-85030000D01*
X129186988Y-85030000D01*
X129154075Y-85087007D01*
X129120000Y-85214174D01*
X129120000Y-85345826D01*
X129154075Y-85472993D01*
X129186988Y-85530000D01*
X128292769Y-85530000D01*
X128303242Y-85596128D01*
X128303244Y-85596136D01*
X128368906Y-85798222D01*
X128465378Y-85987555D01*
X128465378Y-85987556D01*
X128590277Y-86159464D01*
X128590279Y-86159467D01*
X128740532Y-86309720D01*
X128740535Y-86309722D01*
X128904908Y-86429146D01*
X128953446Y-86489086D01*
X128965512Y-86565264D01*
X128937872Y-86637270D01*
X128904908Y-86670233D01*
X128740217Y-86789888D01*
X128740206Y-86789897D01*
X128589897Y-86940206D01*
X128589895Y-86940209D01*
X128464950Y-87112181D01*
X128464950Y-87112182D01*
X128368446Y-87301582D01*
X128368441Y-87301594D01*
X128302754Y-87503756D01*
X128296103Y-87545748D01*
X128269500Y-87713713D01*
X128269500Y-87926287D01*
X128302754Y-88136243D01*
X128368443Y-88338412D01*
X128464949Y-88527816D01*
X128589896Y-88699792D01*
X128740208Y-88850104D01*
X128818844Y-88907236D01*
X128904482Y-88969456D01*
X128953020Y-89029396D01*
X128965086Y-89105575D01*
X128937446Y-89177580D01*
X128904482Y-89210544D01*
X128740209Y-89329895D01*
X128740206Y-89329897D01*
X128589897Y-89480206D01*
X128589895Y-89480209D01*
X128464950Y-89652181D01*
X128464950Y-89652182D01*
X128368446Y-89841582D01*
X128368441Y-89841594D01*
X128302754Y-90043756D01*
X128296103Y-90085748D01*
X128269500Y-90253713D01*
X128269500Y-90466287D01*
X128302754Y-90676243D01*
X128368443Y-90878412D01*
X128432096Y-91003339D01*
X128464950Y-91067817D01*
X128464950Y-91067818D01*
X128483035Y-91092710D01*
X128589896Y-91239792D01*
X128740208Y-91390104D01*
X128818844Y-91447236D01*
X128904482Y-91509456D01*
X128953020Y-91569396D01*
X128965086Y-91645575D01*
X128937446Y-91717580D01*
X128904482Y-91750544D01*
X128740209Y-91869895D01*
X128740206Y-91869897D01*
X128589897Y-92020206D01*
X128589895Y-92020209D01*
X128464950Y-92192181D01*
X128464950Y-92192182D01*
X128368446Y-92381582D01*
X128368441Y-92381594D01*
X128302754Y-92583756D01*
X128296103Y-92625748D01*
X128269500Y-92793713D01*
X128269500Y-93006287D01*
X128302754Y-93216243D01*
X128368443Y-93418412D01*
X128399836Y-93480025D01*
X128464950Y-93607817D01*
X128464950Y-93607818D01*
X128499267Y-93655051D01*
X128589896Y-93779792D01*
X128740208Y-93930104D01*
X128772862Y-93953828D01*
X128904482Y-94049456D01*
X128953020Y-94109396D01*
X128965086Y-94185575D01*
X128937446Y-94257580D01*
X128904482Y-94290544D01*
X128740209Y-94409895D01*
X128740206Y-94409897D01*
X128589897Y-94560206D01*
X128589895Y-94560209D01*
X128464950Y-94732181D01*
X128464950Y-94732182D01*
X128464949Y-94732184D01*
X128368443Y-94921588D01*
X128302754Y-95123757D01*
X128269500Y-95333713D01*
X128269500Y-95546287D01*
X128302754Y-95756243D01*
X128368443Y-95958412D01*
X128462680Y-96143363D01*
X128464950Y-96147817D01*
X128464950Y-96147818D01*
X128515161Y-96216928D01*
X128589896Y-96319792D01*
X128740208Y-96470104D01*
X128807022Y-96518647D01*
X128904482Y-96589456D01*
X128953020Y-96649396D01*
X128965086Y-96725575D01*
X128937446Y-96797580D01*
X128904482Y-96830544D01*
X128740209Y-96949895D01*
X128740206Y-96949897D01*
X128589897Y-97100206D01*
X128589895Y-97100209D01*
X128464950Y-97272181D01*
X128464950Y-97272182D01*
X128368446Y-97461582D01*
X128368441Y-97461594D01*
X128325747Y-97592993D01*
X128302754Y-97663757D01*
X128269500Y-97873713D01*
X128269500Y-98086287D01*
X128302754Y-98296243D01*
X128368443Y-98498412D01*
X128464462Y-98686861D01*
X128464950Y-98687817D01*
X128464950Y-98687818D01*
X128482728Y-98712287D01*
X128589896Y-98859792D01*
X128740208Y-99010104D01*
X128818844Y-99067236D01*
X128904482Y-99129456D01*
X128953020Y-99189396D01*
X128965086Y-99265575D01*
X128937446Y-99337580D01*
X128904482Y-99370544D01*
X128740209Y-99489895D01*
X128740206Y-99489897D01*
X128589897Y-99640206D01*
X128589895Y-99640209D01*
X128464950Y-99812181D01*
X128464950Y-99812182D01*
X128368446Y-100001582D01*
X128368441Y-100001594D01*
X128302754Y-100203756D01*
X128300227Y-100219709D01*
X128269500Y-100413713D01*
X128269500Y-100626287D01*
X128302754Y-100836243D01*
X128368443Y-101038412D01*
X128451788Y-101201987D01*
X128464950Y-101227817D01*
X128464950Y-101227818D01*
X128527422Y-101313804D01*
X128589896Y-101399792D01*
X128740208Y-101550104D01*
X128818844Y-101607236D01*
X128904482Y-101669456D01*
X128953020Y-101729396D01*
X128965086Y-101805575D01*
X128937446Y-101877580D01*
X128904482Y-101910544D01*
X128740209Y-102029895D01*
X128740206Y-102029897D01*
X128589897Y-102180206D01*
X128589895Y-102180209D01*
X128464950Y-102352181D01*
X128464950Y-102352182D01*
X128368446Y-102541582D01*
X128368441Y-102541594D01*
X128317146Y-102699464D01*
X128302754Y-102743757D01*
X128269500Y-102953713D01*
X128269500Y-103166287D01*
X128302754Y-103376243D01*
X128368443Y-103578412D01*
X128464949Y-103767816D01*
X128589896Y-103939792D01*
X128740208Y-104090104D01*
X128818844Y-104147236D01*
X128904482Y-104209456D01*
X128953020Y-104269396D01*
X128965086Y-104345575D01*
X128937446Y-104417580D01*
X128904482Y-104450544D01*
X128740209Y-104569895D01*
X128740206Y-104569897D01*
X128589897Y-104720206D01*
X128589895Y-104720209D01*
X128464950Y-104892181D01*
X128464950Y-104892182D01*
X128368446Y-105081582D01*
X128368441Y-105081594D01*
X128302754Y-105283756D01*
X128296103Y-105325748D01*
X128269500Y-105493713D01*
X128269500Y-105706287D01*
X128302754Y-105916243D01*
X128368443Y-106118412D01*
X128464949Y-106307816D01*
X128589896Y-106479792D01*
X128740208Y-106630104D01*
X128750775Y-106637781D01*
X128904482Y-106749456D01*
X128953020Y-106809396D01*
X128965086Y-106885575D01*
X128937446Y-106957580D01*
X128904482Y-106990544D01*
X128740209Y-107109895D01*
X128740206Y-107109897D01*
X128589897Y-107260206D01*
X128589895Y-107260209D01*
X128464950Y-107432181D01*
X128464950Y-107432182D01*
X128368446Y-107621582D01*
X128368441Y-107621594D01*
X128302754Y-107823756D01*
X128298381Y-107851367D01*
X128269500Y-108033713D01*
X128269500Y-108246287D01*
X128302754Y-108456243D01*
X128368443Y-108658412D01*
X128461535Y-108841116D01*
X128464950Y-108847817D01*
X128464950Y-108847818D01*
X128525003Y-108930474D01*
X128589896Y-109019792D01*
X128740208Y-109170104D01*
X128800030Y-109213567D01*
X128904482Y-109289456D01*
X128953020Y-109349396D01*
X128965086Y-109425575D01*
X128937446Y-109497580D01*
X128904482Y-109530544D01*
X128740209Y-109649895D01*
X128740206Y-109649897D01*
X128589897Y-109800206D01*
X128589895Y-109800209D01*
X128464950Y-109972181D01*
X128464950Y-109972182D01*
X128368446Y-110161582D01*
X128368441Y-110161594D01*
X128304137Y-110359502D01*
X128302754Y-110363757D01*
X128269500Y-110573713D01*
X128269500Y-110786287D01*
X128302754Y-110996243D01*
X128368443Y-111198412D01*
X128453779Y-111365894D01*
X128464950Y-111387817D01*
X128464950Y-111387818D01*
X128498326Y-111433756D01*
X128589896Y-111559792D01*
X128740208Y-111710104D01*
X128818844Y-111767236D01*
X128904482Y-111829456D01*
X128953020Y-111889396D01*
X128965086Y-111965575D01*
X128937446Y-112037580D01*
X128904482Y-112070544D01*
X128740209Y-112189895D01*
X128740206Y-112189897D01*
X128589897Y-112340206D01*
X128589895Y-112340209D01*
X128464950Y-112512181D01*
X128464950Y-112512182D01*
X128368446Y-112701582D01*
X128368441Y-112701594D01*
X128302754Y-112903756D01*
X128299236Y-112925968D01*
X128269500Y-113113713D01*
X128269500Y-113326287D01*
X128302754Y-113536243D01*
X128368443Y-113738412D01*
X128464302Y-113926547D01*
X128464950Y-113927817D01*
X128464950Y-113927818D01*
X128496808Y-113971667D01*
X128589896Y-114099792D01*
X128740208Y-114250104D01*
X128806148Y-114298012D01*
X128904482Y-114369456D01*
X128953020Y-114429396D01*
X128965086Y-114505575D01*
X128937446Y-114577580D01*
X128904482Y-114610544D01*
X128740209Y-114729895D01*
X128740206Y-114729897D01*
X128589897Y-114880206D01*
X128589895Y-114880209D01*
X128464950Y-115052181D01*
X128464950Y-115052182D01*
X128368446Y-115241582D01*
X128368441Y-115241594D01*
X128345813Y-115311237D01*
X128302754Y-115443757D01*
X128269500Y-115653713D01*
X128269500Y-115866287D01*
X128302754Y-116076243D01*
X128368443Y-116278412D01*
X128375787Y-116292826D01*
X128464950Y-116467817D01*
X128464950Y-116467818D01*
X128469265Y-116473757D01*
X128589896Y-116639792D01*
X128740208Y-116790104D01*
X128773989Y-116814647D01*
X128904482Y-116909456D01*
X128953020Y-116969396D01*
X128965086Y-117045575D01*
X128937446Y-117117580D01*
X128904482Y-117150544D01*
X128740209Y-117269895D01*
X128740206Y-117269897D01*
X128589897Y-117420206D01*
X128589895Y-117420209D01*
X128464950Y-117592181D01*
X128464950Y-117592182D01*
X128368446Y-117781582D01*
X128368441Y-117781594D01*
X128306438Y-117972420D01*
X128302754Y-117983757D01*
X128269500Y-118193713D01*
X128269500Y-118406287D01*
X128302754Y-118616243D01*
X128368443Y-118818412D01*
X128368446Y-118818417D01*
X128464950Y-119007817D01*
X128464950Y-119007818D01*
X128469265Y-119013757D01*
X128589896Y-119179792D01*
X128740208Y-119330104D01*
X128818844Y-119387236D01*
X128904482Y-119449456D01*
X128953020Y-119509396D01*
X128965086Y-119585575D01*
X128937446Y-119657580D01*
X128904482Y-119690544D01*
X128740209Y-119809895D01*
X128740206Y-119809897D01*
X128589897Y-119960206D01*
X128589895Y-119960209D01*
X128464950Y-120132181D01*
X128464950Y-120132182D01*
X128368446Y-120321582D01*
X128368441Y-120321594D01*
X128302754Y-120523756D01*
X128296719Y-120561859D01*
X128269500Y-120733713D01*
X128269500Y-120946287D01*
X128302754Y-121156243D01*
X128368443Y-121358412D01*
X128464949Y-121547816D01*
X128589896Y-121719792D01*
X128740208Y-121870104D01*
X128783541Y-121901587D01*
X128904482Y-121989456D01*
X128953020Y-122049396D01*
X128965086Y-122125575D01*
X128937446Y-122197580D01*
X128904482Y-122230544D01*
X128740209Y-122349895D01*
X128740206Y-122349897D01*
X128589897Y-122500206D01*
X128589895Y-122500209D01*
X128464950Y-122672181D01*
X128464950Y-122672182D01*
X128368446Y-122861582D01*
X128368441Y-122861594D01*
X128302754Y-123063756D01*
X128301840Y-123069525D01*
X128269500Y-123273713D01*
X128269500Y-123486287D01*
X128302754Y-123696243D01*
X128368443Y-123898412D01*
X128455629Y-124069525D01*
X128464950Y-124087817D01*
X128464950Y-124087818D01*
X128516583Y-124158885D01*
X128589896Y-124259792D01*
X128740208Y-124410104D01*
X128744668Y-124413344D01*
X128904482Y-124529456D01*
X128953020Y-124589396D01*
X128965086Y-124665575D01*
X128937446Y-124737580D01*
X128904482Y-124770544D01*
X128740209Y-124889895D01*
X128740206Y-124889897D01*
X128589897Y-125040206D01*
X128589895Y-125040209D01*
X128464950Y-125212181D01*
X128464950Y-125212182D01*
X128368446Y-125401582D01*
X128368441Y-125401594D01*
X128342954Y-125480036D01*
X128302754Y-125603757D01*
X128269500Y-125813713D01*
X128269500Y-126026287D01*
X128302754Y-126236243D01*
X128368443Y-126438412D01*
X128464949Y-126627816D01*
X128589896Y-126799792D01*
X128740208Y-126950104D01*
X128818844Y-127007236D01*
X128904482Y-127069456D01*
X128953020Y-127129396D01*
X128965086Y-127205575D01*
X128937446Y-127277580D01*
X128904482Y-127310544D01*
X128740209Y-127429895D01*
X128740206Y-127429897D01*
X128589897Y-127580206D01*
X128589895Y-127580209D01*
X128464950Y-127752181D01*
X128464950Y-127752182D01*
X128464949Y-127752184D01*
X128368443Y-127941588D01*
X128302754Y-128143757D01*
X128269500Y-128353713D01*
X128269500Y-128566287D01*
X128302754Y-128776243D01*
X128368443Y-128978412D01*
X128464949Y-129167816D01*
X128589896Y-129339792D01*
X128740208Y-129490104D01*
X128818844Y-129547236D01*
X128904482Y-129609456D01*
X128953020Y-129669396D01*
X128965086Y-129745575D01*
X128937446Y-129817580D01*
X128904482Y-129850544D01*
X128740209Y-129969895D01*
X128740206Y-129969897D01*
X128589897Y-130120206D01*
X128589895Y-130120209D01*
X128464950Y-130292181D01*
X128464950Y-130292182D01*
X128464949Y-130292184D01*
X128368443Y-130481588D01*
X128302754Y-130683757D01*
X128269500Y-130893713D01*
X128269500Y-131106287D01*
X128302754Y-131316243D01*
X128368443Y-131518412D01*
X128464949Y-131707816D01*
X128589896Y-131879792D01*
X128740208Y-132030104D01*
X128818844Y-132087236D01*
X128904482Y-132149456D01*
X128953020Y-132209396D01*
X128965086Y-132285575D01*
X128937446Y-132357580D01*
X128904482Y-132390544D01*
X128740209Y-132509895D01*
X128740206Y-132509897D01*
X128589897Y-132660206D01*
X128589895Y-132660209D01*
X128464950Y-132832181D01*
X128464950Y-132832182D01*
X128368446Y-133021582D01*
X128368441Y-133021594D01*
X128340059Y-133108946D01*
X128302754Y-133223757D01*
X128269500Y-133433713D01*
X128269500Y-133646287D01*
X128302754Y-133856243D01*
X128368443Y-134058412D01*
X128464949Y-134247816D01*
X128589896Y-134419792D01*
X128740208Y-134570104D01*
X128818844Y-134627236D01*
X128904482Y-134689456D01*
X128953020Y-134749396D01*
X128965086Y-134825575D01*
X128937446Y-134897580D01*
X128904482Y-134930544D01*
X128740209Y-135049895D01*
X128740206Y-135049897D01*
X128589897Y-135200206D01*
X128589895Y-135200209D01*
X128464950Y-135372181D01*
X128464950Y-135372182D01*
X128368446Y-135561582D01*
X128368441Y-135561594D01*
X128302756Y-135763752D01*
X128302754Y-135763757D01*
X128269500Y-135973713D01*
X128269500Y-136186287D01*
X128302754Y-136396243D01*
X128368443Y-136598412D01*
X128464949Y-136787816D01*
X128589896Y-136959792D01*
X128740208Y-137110104D01*
X128818844Y-137167236D01*
X128904482Y-137229456D01*
X128953020Y-137289396D01*
X128965086Y-137365575D01*
X128937446Y-137437580D01*
X128904482Y-137470544D01*
X128740209Y-137589895D01*
X128740206Y-137589897D01*
X128589897Y-137740206D01*
X128589895Y-137740209D01*
X128464950Y-137912181D01*
X128464950Y-137912182D01*
X128464949Y-137912184D01*
X128368443Y-138101588D01*
X128302754Y-138303757D01*
X128269500Y-138513713D01*
X128269500Y-138726287D01*
X128302754Y-138936243D01*
X128368443Y-139138412D01*
X128464949Y-139327816D01*
X128589896Y-139499792D01*
X128740208Y-139650104D01*
X128912184Y-139775051D01*
X129101588Y-139871557D01*
X129303757Y-139937246D01*
X129513713Y-139970500D01*
X129513718Y-139970500D01*
X129726282Y-139970500D01*
X129726287Y-139970500D01*
X129936243Y-139937246D01*
X130138412Y-139871557D01*
X130327816Y-139775051D01*
X130499792Y-139650104D01*
X130650104Y-139499792D01*
X130775051Y-139327816D01*
X130871557Y-139138412D01*
X130937246Y-138936243D01*
X130970500Y-138726287D01*
X130970500Y-138513713D01*
X130937246Y-138303757D01*
X130871557Y-138101588D01*
X130775051Y-137912184D01*
X130650104Y-137740208D01*
X130499792Y-137589896D01*
X130335517Y-137470544D01*
X130286979Y-137410604D01*
X130274913Y-137334426D01*
X130302553Y-137262420D01*
X130335517Y-137229456D01*
X130362585Y-137209790D01*
X130499792Y-137110104D01*
X130650104Y-136959792D01*
X130775051Y-136787816D01*
X130871557Y-136598412D01*
X130937246Y-136396243D01*
X130970500Y-136186287D01*
X130970500Y-135973713D01*
X130937246Y-135763757D01*
X130871557Y-135561588D01*
X130775051Y-135372184D01*
X130650104Y-135200208D01*
X130499792Y-135049896D01*
X130335517Y-134930544D01*
X130286979Y-134870604D01*
X130274913Y-134794426D01*
X130302553Y-134722420D01*
X130335517Y-134689456D01*
X130362589Y-134669787D01*
X130499792Y-134570104D01*
X130650104Y-134419792D01*
X130775051Y-134247816D01*
X130871557Y-134058412D01*
X130937246Y-133856243D01*
X130970500Y-133646287D01*
X130970500Y-133433713D01*
X130937246Y-133223757D01*
X130871557Y-133021588D01*
X130775051Y-132832184D01*
X130650104Y-132660208D01*
X130499792Y-132509896D01*
X130335517Y-132390544D01*
X130286979Y-132330604D01*
X130274913Y-132254426D01*
X130302553Y-132182420D01*
X130335517Y-132149456D01*
X130342519Y-132144368D01*
X130499792Y-132030104D01*
X130650104Y-131879792D01*
X130775051Y-131707816D01*
X130871557Y-131518412D01*
X130937246Y-131316243D01*
X130970500Y-131106287D01*
X130970500Y-130893713D01*
X130937246Y-130683757D01*
X130871557Y-130481588D01*
X130775051Y-130292184D01*
X130650104Y-130120208D01*
X130499792Y-129969896D01*
X130335517Y-129850544D01*
X130286979Y-129790604D01*
X130274913Y-129714426D01*
X130302553Y-129642420D01*
X130335517Y-129609456D01*
X130342519Y-129604368D01*
X130499792Y-129490104D01*
X130650104Y-129339792D01*
X130775051Y-129167816D01*
X130871557Y-128978412D01*
X130937246Y-128776243D01*
X130970500Y-128566287D01*
X130970500Y-128353713D01*
X130937246Y-128143757D01*
X130871557Y-127941588D01*
X130775051Y-127752184D01*
X130650104Y-127580208D01*
X130499792Y-127429896D01*
X130335517Y-127310544D01*
X130286979Y-127250604D01*
X130274913Y-127174426D01*
X130302553Y-127102420D01*
X130335517Y-127069456D01*
X130342519Y-127064368D01*
X130499792Y-126950104D01*
X130650104Y-126799792D01*
X130775051Y-126627816D01*
X130871557Y-126438412D01*
X130937246Y-126236243D01*
X130970500Y-126026287D01*
X130970500Y-125813713D01*
X130937246Y-125603757D01*
X130871557Y-125401588D01*
X130775051Y-125212184D01*
X130650104Y-125040208D01*
X130499792Y-124889896D01*
X130335517Y-124770544D01*
X130286979Y-124710604D01*
X130274913Y-124634426D01*
X130302553Y-124562420D01*
X130335517Y-124529456D01*
X130371622Y-124503224D01*
X130499792Y-124410104D01*
X130650104Y-124259792D01*
X130775051Y-124087816D01*
X130871557Y-123898412D01*
X130937246Y-123696243D01*
X130970500Y-123486287D01*
X130970500Y-123273713D01*
X130937246Y-123063757D01*
X130935397Y-123058067D01*
X130897611Y-122941772D01*
X130888050Y-122912347D01*
X130884552Y-122901583D01*
X134749500Y-122901583D01*
X134749500Y-123098417D01*
X134780291Y-123292826D01*
X134841116Y-123480025D01*
X134841119Y-123480030D01*
X134841121Y-123480036D01*
X134882851Y-123561936D01*
X134930476Y-123655405D01*
X135046172Y-123814646D01*
X135185354Y-123953828D01*
X135344595Y-124069524D01*
X135448051Y-124122237D01*
X135491593Y-124144423D01*
X135519975Y-124158884D01*
X135707174Y-124219709D01*
X135901583Y-124250500D01*
X135901588Y-124250500D01*
X136098412Y-124250500D01*
X136098417Y-124250500D01*
X136292826Y-124219709D01*
X136480025Y-124158884D01*
X136655405Y-124069524D01*
X136814646Y-123953828D01*
X136953828Y-123814646D01*
X137069524Y-123655405D01*
X137158884Y-123480025D01*
X137219709Y-123292826D01*
X137250500Y-123098417D01*
X137250500Y-122901583D01*
X137236029Y-122810217D01*
X137233056Y-122791443D01*
X137229994Y-122772114D01*
X158079500Y-122772114D01*
X158079500Y-124567863D01*
X158079502Y-124567888D01*
X158085908Y-124627478D01*
X158085909Y-124627484D01*
X158136202Y-124762329D01*
X158136205Y-124762333D01*
X158202361Y-124850707D01*
X158231027Y-124922311D01*
X158220051Y-124998654D01*
X158202361Y-125029293D01*
X158136205Y-125117666D01*
X158136202Y-125117670D01*
X158085908Y-125252517D01*
X158079500Y-125312114D01*
X158079500Y-127107863D01*
X158079502Y-127107888D01*
X158085908Y-127167478D01*
X158085909Y-127167484D01*
X158136202Y-127302329D01*
X158136204Y-127302333D01*
X158222452Y-127417544D01*
X158222455Y-127417547D01*
X158337666Y-127503795D01*
X158337668Y-127503795D01*
X158337669Y-127503796D01*
X158432633Y-127539215D01*
X158495460Y-127583953D01*
X158527501Y-127654111D01*
X158520170Y-127730890D01*
X158485923Y-127784179D01*
X158399904Y-127870198D01*
X158399895Y-127870209D01*
X158274950Y-128042181D01*
X158274950Y-128042182D01*
X158178446Y-128231582D01*
X158178441Y-128231594D01*
X158138761Y-128353717D01*
X158112754Y-128433757D01*
X158079500Y-128643713D01*
X158079500Y-128856287D01*
X158112754Y-129066243D01*
X158178443Y-129268412D01*
X158274949Y-129457816D01*
X158399896Y-129629792D01*
X158550208Y-129780104D01*
X158580804Y-129802333D01*
X158714482Y-129899456D01*
X158763020Y-129959396D01*
X158775086Y-130035575D01*
X158747446Y-130107580D01*
X158714482Y-130140544D01*
X158550209Y-130259895D01*
X158550206Y-130259897D01*
X158399897Y-130410206D01*
X158399895Y-130410209D01*
X158274950Y-130582181D01*
X158274950Y-130582182D01*
X158178446Y-130771582D01*
X158178441Y-130771594D01*
X158138761Y-130893717D01*
X158112754Y-130973757D01*
X158079500Y-131183713D01*
X158079500Y-131396287D01*
X158112754Y-131606243D01*
X158178443Y-131808412D01*
X158274949Y-131997816D01*
X158399896Y-132169792D01*
X158550208Y-132320104D01*
X158722184Y-132445051D01*
X158911588Y-132541557D01*
X159113757Y-132607246D01*
X159323713Y-132640500D01*
X159323718Y-132640500D01*
X159536282Y-132640500D01*
X159536287Y-132640500D01*
X159746243Y-132607246D01*
X159948412Y-132541557D01*
X160137816Y-132445051D01*
X160309792Y-132320104D01*
X160460104Y-132169792D01*
X160585051Y-131997816D01*
X160681557Y-131808412D01*
X160747246Y-131606243D01*
X160780500Y-131396287D01*
X160780500Y-131183713D01*
X160747246Y-130973757D01*
X160681557Y-130771588D01*
X160585051Y-130582184D01*
X160460104Y-130410208D01*
X160309792Y-130259896D01*
X160145517Y-130140544D01*
X160096979Y-130080604D01*
X160084913Y-130004426D01*
X160112553Y-129932420D01*
X160145517Y-129899456D01*
X160157559Y-129890707D01*
X160309792Y-129780104D01*
X160460104Y-129629792D01*
X160585051Y-129457816D01*
X160681557Y-129268412D01*
X160747246Y-129066243D01*
X160780500Y-128856287D01*
X160780500Y-128643713D01*
X160747246Y-128433757D01*
X160681557Y-128231588D01*
X160585051Y-128042184D01*
X160460104Y-127870208D01*
X160402010Y-127812114D01*
X196179500Y-127812114D01*
X196179500Y-129607863D01*
X196179502Y-129607888D01*
X196185908Y-129667478D01*
X196185909Y-129667484D01*
X196236202Y-129802329D01*
X196236205Y-129802333D01*
X196302361Y-129890707D01*
X196331027Y-129962311D01*
X196320051Y-130038654D01*
X196302361Y-130069293D01*
X196236205Y-130157666D01*
X196236202Y-130157670D01*
X196185908Y-130292517D01*
X196179500Y-130352114D01*
X196179500Y-132147863D01*
X196179502Y-132147888D01*
X196185908Y-132207478D01*
X196185909Y-132207484D01*
X196236202Y-132342329D01*
X196236204Y-132342333D01*
X196322452Y-132457544D01*
X196322455Y-132457547D01*
X196437665Y-132543794D01*
X196437667Y-132543795D01*
X196437669Y-132543796D01*
X196532633Y-132579215D01*
X196595460Y-132623953D01*
X196627501Y-132694111D01*
X196620170Y-132770890D01*
X196585923Y-132824179D01*
X196499904Y-132910198D01*
X196499895Y-132910209D01*
X196374950Y-133082181D01*
X196374950Y-133082182D01*
X196374949Y-133082184D01*
X196278443Y-133271588D01*
X196212754Y-133473757D01*
X196179500Y-133683713D01*
X196179500Y-133896287D01*
X196212754Y-134106243D01*
X196278443Y-134308412D01*
X196335194Y-134419793D01*
X196374950Y-134497817D01*
X196374950Y-134497818D01*
X196427467Y-134570102D01*
X196499896Y-134669792D01*
X196650208Y-134820104D01*
X196719716Y-134870604D01*
X196814482Y-134939456D01*
X196863020Y-134999396D01*
X196875086Y-135075575D01*
X196847446Y-135147580D01*
X196814482Y-135180544D01*
X196650209Y-135299895D01*
X196650206Y-135299897D01*
X196499897Y-135450206D01*
X196499895Y-135450209D01*
X196374950Y-135622181D01*
X196374950Y-135622182D01*
X196374949Y-135622184D01*
X196278443Y-135811588D01*
X196212754Y-136013757D01*
X196179500Y-136223713D01*
X196179500Y-136436287D01*
X196212754Y-136646243D01*
X196278443Y-136848412D01*
X196374949Y-137037816D01*
X196499896Y-137209792D01*
X196650208Y-137360104D01*
X196822184Y-137485051D01*
X197011588Y-137581557D01*
X197213757Y-137647246D01*
X197423713Y-137680500D01*
X197423718Y-137680500D01*
X197636282Y-137680500D01*
X197636287Y-137680500D01*
X197846243Y-137647246D01*
X198048412Y-137581557D01*
X198237816Y-137485051D01*
X198409792Y-137360104D01*
X198560104Y-137209792D01*
X198685051Y-137037816D01*
X198781557Y-136848412D01*
X198847246Y-136646243D01*
X198880500Y-136436287D01*
X198880500Y-136223713D01*
X198847246Y-136013757D01*
X198781557Y-135811588D01*
X198685051Y-135622184D01*
X198677164Y-135611329D01*
X198641021Y-135561582D01*
X198560104Y-135450208D01*
X198409792Y-135299896D01*
X198245517Y-135180544D01*
X198196979Y-135120604D01*
X198184913Y-135044426D01*
X198212553Y-134972420D01*
X198245517Y-134939456D01*
X198265484Y-134924949D01*
X198409792Y-134820104D01*
X198486190Y-134743706D01*
X206149500Y-134743706D01*
X206149500Y-134986293D01*
X206181160Y-135226781D01*
X206181161Y-135226787D01*
X206181162Y-135226789D01*
X206241027Y-135450208D01*
X206243947Y-135461103D01*
X206336778Y-135685216D01*
X206381526Y-135762721D01*
X206458064Y-135895289D01*
X206605735Y-136087738D01*
X206777262Y-136259265D01*
X206969711Y-136406936D01*
X207179788Y-136528224D01*
X207403900Y-136621054D01*
X207638211Y-136683838D01*
X207638217Y-136683838D01*
X207638218Y-136683839D01*
X207703600Y-136692446D01*
X207878712Y-136715500D01*
X208121288Y-136715500D01*
X208361789Y-136683838D01*
X208596100Y-136621054D01*
X208820212Y-136528224D01*
X209030289Y-136406936D01*
X209222738Y-136259265D01*
X209394265Y-136087738D01*
X209541936Y-135895289D01*
X209663224Y-135685212D01*
X209756054Y-135461100D01*
X209818838Y-135226789D01*
X209850500Y-134986288D01*
X209850500Y-134743712D01*
X209818838Y-134503211D01*
X209756054Y-134268900D01*
X209663224Y-134044788D01*
X209541936Y-133834711D01*
X209394265Y-133642262D01*
X209222738Y-133470735D01*
X209030289Y-133323064D01*
X208941120Y-133271582D01*
X208820216Y-133201778D01*
X208820214Y-133201777D01*
X208820212Y-133201776D01*
X208688932Y-133147398D01*
X208596103Y-133108947D01*
X208596101Y-133108946D01*
X208596100Y-133108946D01*
X208361789Y-133046162D01*
X208361787Y-133046161D01*
X208361781Y-133046160D01*
X208121293Y-133014500D01*
X208121288Y-133014500D01*
X207878712Y-133014500D01*
X207878706Y-133014500D01*
X207638218Y-133046160D01*
X207403896Y-133108947D01*
X207179783Y-133201778D01*
X206969712Y-133323063D01*
X206969711Y-133323064D01*
X206777262Y-133470735D01*
X206777260Y-133470736D01*
X206777256Y-133470740D01*
X206605740Y-133642256D01*
X206605736Y-133642260D01*
X206605735Y-133642262D01*
X206602647Y-133646287D01*
X206458063Y-133834712D01*
X206336778Y-134044783D01*
X206243947Y-134268896D01*
X206181160Y-134503218D01*
X206149500Y-134743706D01*
X198486190Y-134743706D01*
X198560104Y-134669792D01*
X198685051Y-134497816D01*
X198781557Y-134308412D01*
X198847246Y-134106243D01*
X198880500Y-133896287D01*
X198880500Y-133683713D01*
X198847246Y-133473757D01*
X198781557Y-133271588D01*
X198685051Y-133082184D01*
X198560104Y-132910208D01*
X198474075Y-132824179D01*
X198435512Y-132757385D01*
X198435512Y-132680257D01*
X198474076Y-132613462D01*
X198527366Y-132579215D01*
X198571497Y-132562756D01*
X198622327Y-132543798D01*
X198622335Y-132543794D01*
X198708107Y-132479584D01*
X198737546Y-132457546D01*
X198823796Y-132342331D01*
X198874091Y-132207483D01*
X198878143Y-132169793D01*
X198880499Y-132147885D01*
X198880499Y-132147882D01*
X198880500Y-132147873D01*
X198880499Y-130352128D01*
X198874091Y-130292517D01*
X198859588Y-130253633D01*
X198823797Y-130157670D01*
X198823795Y-130157666D01*
X198757638Y-130069293D01*
X198728972Y-129997690D01*
X198739948Y-129921347D01*
X198757638Y-129890707D01*
X198823795Y-129802333D01*
X198823797Y-129802329D01*
X198873377Y-129669396D01*
X198874091Y-129667483D01*
X198878143Y-129629793D01*
X198880499Y-129607885D01*
X198880499Y-129607882D01*
X198880500Y-129607873D01*
X198880499Y-127812128D01*
X198874091Y-127752517D01*
X198831269Y-127637704D01*
X198823797Y-127617670D01*
X198823795Y-127617666D01*
X198737547Y-127502455D01*
X198737544Y-127502452D01*
X198622333Y-127416204D01*
X198622329Y-127416202D01*
X198487482Y-127365908D01*
X198427876Y-127359500D01*
X196632136Y-127359500D01*
X196632111Y-127359502D01*
X196572521Y-127365908D01*
X196572515Y-127365909D01*
X196437670Y-127416202D01*
X196437666Y-127416204D01*
X196322455Y-127502452D01*
X196322452Y-127502455D01*
X196236204Y-127617666D01*
X196236202Y-127617670D01*
X196185908Y-127752517D01*
X196179500Y-127812114D01*
X160402010Y-127812114D01*
X160372047Y-127782151D01*
X160370108Y-127780057D01*
X160353405Y-127748378D01*
X160335512Y-127717385D01*
X160335512Y-127714438D01*
X160334137Y-127711831D01*
X160335512Y-127676053D01*
X160335512Y-127640257D01*
X160336985Y-127637704D01*
X160337099Y-127634759D01*
X160356177Y-127604462D01*
X160374076Y-127573462D01*
X160376804Y-127571708D01*
X160378199Y-127569494D01*
X160389622Y-127563471D01*
X160427366Y-127539215D01*
X160458278Y-127527685D01*
X160522327Y-127503798D01*
X160522333Y-127503795D01*
X160621047Y-127429897D01*
X160637546Y-127417546D01*
X160717648Y-127310544D01*
X160723795Y-127302333D01*
X160723797Y-127302329D01*
X160758814Y-127208443D01*
X160774091Y-127167483D01*
X160778186Y-127129396D01*
X160780499Y-127107885D01*
X160780499Y-127107882D01*
X160780500Y-127107873D01*
X160780499Y-125312128D01*
X160774091Y-125252517D01*
X160759047Y-125212181D01*
X160723797Y-125117670D01*
X160723795Y-125117666D01*
X160657638Y-125029293D01*
X160628972Y-124957690D01*
X160639948Y-124881347D01*
X160657638Y-124850707D01*
X160723795Y-124762333D01*
X160723797Y-124762329D01*
X160750587Y-124690500D01*
X160774091Y-124627483D01*
X160778186Y-124589396D01*
X160780499Y-124567885D01*
X160780499Y-124567882D01*
X160780500Y-124567873D01*
X160780499Y-122772128D01*
X160779423Y-122762114D01*
X160775945Y-122729759D01*
X160774756Y-122718706D01*
X206149500Y-122718706D01*
X206149500Y-122961293D01*
X206181160Y-123201781D01*
X206181161Y-123201787D01*
X206181162Y-123201789D01*
X206235314Y-123403887D01*
X206243947Y-123436103D01*
X206282398Y-123528932D01*
X206334785Y-123655406D01*
X206336778Y-123660216D01*
X206363130Y-123705859D01*
X206458064Y-123870289D01*
X206605735Y-124062738D01*
X206777262Y-124234265D01*
X206969711Y-124381936D01*
X207179788Y-124503224D01*
X207403900Y-124596054D01*
X207638211Y-124658838D01*
X207638217Y-124658838D01*
X207638218Y-124658839D01*
X207689384Y-124665575D01*
X207878712Y-124690500D01*
X208121288Y-124690500D01*
X208361789Y-124658838D01*
X208596100Y-124596054D01*
X208820212Y-124503224D01*
X209030289Y-124381936D01*
X209222738Y-124234265D01*
X209394265Y-124062738D01*
X209541936Y-123870289D01*
X209663224Y-123660212D01*
X209756054Y-123436100D01*
X209818838Y-123201789D01*
X209850500Y-122961288D01*
X209850500Y-122718712D01*
X209818838Y-122478211D01*
X209756054Y-122243900D01*
X209663224Y-122019788D01*
X209541936Y-121809711D01*
X209394265Y-121617262D01*
X209222738Y-121445735D01*
X209030289Y-121298064D01*
X208960263Y-121257634D01*
X208820216Y-121176778D01*
X208820214Y-121176777D01*
X208820212Y-121176776D01*
X208609509Y-121089500D01*
X208596103Y-121083947D01*
X208596101Y-121083946D01*
X208596100Y-121083946D01*
X208361789Y-121021162D01*
X208361787Y-121021161D01*
X208361781Y-121021160D01*
X208121293Y-120989500D01*
X208121288Y-120989500D01*
X207878712Y-120989500D01*
X207878706Y-120989500D01*
X207638218Y-121021160D01*
X207403896Y-121083947D01*
X207179783Y-121176778D01*
X206969712Y-121298063D01*
X206969711Y-121298064D01*
X206777262Y-121445735D01*
X206777260Y-121445736D01*
X206777256Y-121445740D01*
X206605740Y-121617256D01*
X206605736Y-121617260D01*
X206605735Y-121617262D01*
X206536743Y-121707174D01*
X206458063Y-121809712D01*
X206336778Y-122019783D01*
X206243947Y-122243896D01*
X206181160Y-122478218D01*
X206149500Y-122718706D01*
X160774756Y-122718706D01*
X160774091Y-122712521D01*
X160774091Y-122712517D01*
X160737093Y-122613319D01*
X160723797Y-122577670D01*
X160723795Y-122577666D01*
X160637547Y-122462455D01*
X160637544Y-122462452D01*
X160522333Y-122376204D01*
X160522329Y-122376202D01*
X160387482Y-122325908D01*
X160327876Y-122319500D01*
X158532136Y-122319500D01*
X158532111Y-122319502D01*
X158472521Y-122325908D01*
X158472515Y-122325909D01*
X158337670Y-122376202D01*
X158337666Y-122376204D01*
X158222455Y-122462452D01*
X158222452Y-122462455D01*
X158136204Y-122577666D01*
X158136202Y-122577670D01*
X158085908Y-122712517D01*
X158079500Y-122772114D01*
X137229994Y-122772114D01*
X137228719Y-122764064D01*
X137219709Y-122707174D01*
X137158884Y-122519975D01*
X137069524Y-122344595D01*
X136953828Y-122185354D01*
X136814646Y-122046172D01*
X136655405Y-121930476D01*
X136536914Y-121870102D01*
X136480036Y-121841121D01*
X136480030Y-121841119D01*
X136480025Y-121841116D01*
X136292826Y-121780291D01*
X136098417Y-121749500D01*
X135901583Y-121749500D01*
X135707174Y-121780291D01*
X135519975Y-121841116D01*
X135519972Y-121841117D01*
X135519963Y-121841121D01*
X135344598Y-121930474D01*
X135344593Y-121930477D01*
X135185363Y-122046165D01*
X135185352Y-122046174D01*
X135046174Y-122185352D01*
X135046165Y-122185363D01*
X134930477Y-122344593D01*
X134930474Y-122344598D01*
X134841121Y-122519963D01*
X134841114Y-122519981D01*
X134808570Y-122620141D01*
X134780291Y-122707174D01*
X134749500Y-122901583D01*
X130884552Y-122901583D01*
X130871557Y-122861588D01*
X130775051Y-122672184D01*
X130762860Y-122655405D01*
X130706380Y-122577666D01*
X130650104Y-122500208D01*
X130499792Y-122349896D01*
X130353900Y-122243900D01*
X130335517Y-122230544D01*
X130286979Y-122170604D01*
X130274913Y-122094426D01*
X130302553Y-122022420D01*
X130335517Y-121989456D01*
X130342519Y-121984368D01*
X130499792Y-121870104D01*
X130650104Y-121719792D01*
X130775051Y-121547816D01*
X130871557Y-121358412D01*
X130937246Y-121156243D01*
X130970500Y-120946287D01*
X130970500Y-120733713D01*
X130937246Y-120523757D01*
X130871557Y-120321588D01*
X130775051Y-120132184D01*
X130650104Y-119960208D01*
X130499792Y-119809896D01*
X130335517Y-119690544D01*
X130286979Y-119630604D01*
X130274913Y-119554426D01*
X130302553Y-119482420D01*
X130335517Y-119449456D01*
X130342519Y-119444368D01*
X130499792Y-119330104D01*
X130650104Y-119179792D01*
X130775051Y-119007816D01*
X130871557Y-118818412D01*
X130937246Y-118616243D01*
X130970500Y-118406287D01*
X130970500Y-118193713D01*
X130937246Y-117983757D01*
X130871557Y-117781588D01*
X130775051Y-117592184D01*
X130650104Y-117420208D01*
X130499792Y-117269896D01*
X130335517Y-117150544D01*
X130286979Y-117090604D01*
X130274913Y-117014426D01*
X130302553Y-116942420D01*
X130335517Y-116909456D01*
X130342519Y-116904368D01*
X130499792Y-116790104D01*
X130650104Y-116639792D01*
X130775051Y-116467816D01*
X130871557Y-116278412D01*
X130937246Y-116076243D01*
X130970500Y-115866287D01*
X130970500Y-115653713D01*
X130937246Y-115443757D01*
X130871557Y-115241588D01*
X130775051Y-115052184D01*
X130650104Y-114880208D01*
X130499792Y-114729896D01*
X130335517Y-114610544D01*
X130286979Y-114550604D01*
X130274913Y-114474426D01*
X130302553Y-114402420D01*
X130335517Y-114369456D01*
X130342519Y-114364368D01*
X130499792Y-114250104D01*
X130650104Y-114099792D01*
X130775051Y-113927816D01*
X130871557Y-113738412D01*
X130937246Y-113536243D01*
X130957034Y-113411308D01*
X133099500Y-113411308D01*
X133099500Y-113588691D01*
X133134105Y-113762663D01*
X133134106Y-113762667D01*
X133201986Y-113926546D01*
X133201987Y-113926548D01*
X133297522Y-114069525D01*
X133300536Y-114074035D01*
X133425965Y-114199464D01*
X133425968Y-114199466D01*
X133573451Y-114298012D01*
X133573453Y-114298013D01*
X133737334Y-114365894D01*
X133911309Y-114400500D01*
X134088691Y-114400500D01*
X134262666Y-114365894D01*
X134426547Y-114298013D01*
X134574035Y-114199464D01*
X134699464Y-114074035D01*
X134798013Y-113926547D01*
X134865894Y-113762666D01*
X134900500Y-113588691D01*
X134900500Y-113411309D01*
X134865894Y-113237334D01*
X134798013Y-113073453D01*
X134795233Y-113069293D01*
X134699466Y-112925968D01*
X134699462Y-112925963D01*
X134574036Y-112800537D01*
X134574031Y-112800533D01*
X134426548Y-112701987D01*
X134426546Y-112701986D01*
X134262667Y-112634106D01*
X134262663Y-112634105D01*
X134088691Y-112599500D01*
X133911309Y-112599500D01*
X133737336Y-112634105D01*
X133737332Y-112634106D01*
X133573453Y-112701986D01*
X133573451Y-112701987D01*
X133425968Y-112800533D01*
X133425963Y-112800537D01*
X133300537Y-112925963D01*
X133300533Y-112925968D01*
X133201987Y-113073451D01*
X133201986Y-113073453D01*
X133134106Y-113237332D01*
X133134105Y-113237336D01*
X133099500Y-113411308D01*
X130957034Y-113411308D01*
X130970500Y-113326287D01*
X130970500Y-113113713D01*
X130937246Y-112903757D01*
X130871557Y-112701588D01*
X130775051Y-112512184D01*
X130650104Y-112340208D01*
X130499792Y-112189896D01*
X130335517Y-112070544D01*
X130321802Y-112053607D01*
X130304565Y-112040283D01*
X130297950Y-112024153D01*
X130286979Y-112010604D01*
X130283570Y-111989083D01*
X130275303Y-111968922D01*
X130277640Y-111951644D01*
X130274913Y-111934426D01*
X130282721Y-111914082D01*
X130285643Y-111892490D01*
X130296068Y-111879314D01*
X130302553Y-111862420D01*
X130332814Y-111831468D01*
X130334186Y-111830422D01*
X130373149Y-111802114D01*
X141749500Y-111802114D01*
X141749500Y-114397863D01*
X141749502Y-114397888D01*
X141755908Y-114457478D01*
X141755909Y-114457484D01*
X141806202Y-114592329D01*
X141806204Y-114592333D01*
X141892452Y-114707544D01*
X141892455Y-114707547D01*
X142007666Y-114793795D01*
X142007670Y-114793797D01*
X142142517Y-114844091D01*
X142202114Y-114850499D01*
X142202118Y-114850499D01*
X142202127Y-114850500D01*
X145297872Y-114850499D01*
X145357483Y-114844091D01*
X145453447Y-114808298D01*
X145492329Y-114793797D01*
X145492333Y-114793795D01*
X145551503Y-114749500D01*
X145607546Y-114707546D01*
X145680162Y-114610544D01*
X145693795Y-114592333D01*
X145693797Y-114592329D01*
X145731963Y-114490000D01*
X145744091Y-114457483D01*
X145750218Y-114400500D01*
X145750499Y-114397885D01*
X145750499Y-114397882D01*
X145750500Y-114397873D01*
X145750499Y-111802128D01*
X145744091Y-111742517D01*
X145707240Y-111643713D01*
X145693797Y-111607670D01*
X145693795Y-111607666D01*
X145607547Y-111492455D01*
X145607544Y-111492452D01*
X145492333Y-111406204D01*
X145492329Y-111406202D01*
X145357482Y-111355908D01*
X145297876Y-111349500D01*
X142202136Y-111349500D01*
X142202111Y-111349502D01*
X142142521Y-111355908D01*
X142142515Y-111355909D01*
X142007670Y-111406202D01*
X142007666Y-111406204D01*
X141892455Y-111492452D01*
X141892452Y-111492455D01*
X141806204Y-111607666D01*
X141806202Y-111607670D01*
X141755908Y-111742517D01*
X141749500Y-111802114D01*
X130373149Y-111802114D01*
X130499792Y-111710104D01*
X130650104Y-111559792D01*
X130775051Y-111387816D01*
X130871557Y-111198412D01*
X130937246Y-110996243D01*
X130970500Y-110786287D01*
X130970500Y-110573713D01*
X130937246Y-110363757D01*
X130871557Y-110161588D01*
X130775051Y-109972184D01*
X130709462Y-109881908D01*
X135249500Y-109881908D01*
X135249500Y-110118092D01*
X135286447Y-110351368D01*
X135359432Y-110575992D01*
X135466657Y-110786433D01*
X135605483Y-110977510D01*
X135772490Y-111144517D01*
X135963567Y-111283343D01*
X136174008Y-111390568D01*
X136398632Y-111463553D01*
X136631908Y-111500500D01*
X136631913Y-111500500D01*
X136868087Y-111500500D01*
X136868092Y-111500500D01*
X137101368Y-111463553D01*
X137325992Y-111390568D01*
X137536433Y-111283343D01*
X137727510Y-111144517D01*
X137894517Y-110977510D01*
X138033343Y-110786433D01*
X138140568Y-110575992D01*
X138213553Y-110351368D01*
X138250500Y-110118092D01*
X138250500Y-109881908D01*
X138213553Y-109648632D01*
X138140568Y-109424008D01*
X138033343Y-109213567D01*
X137894517Y-109022490D01*
X137727510Y-108855483D01*
X137536433Y-108716657D01*
X137325992Y-108609432D01*
X137101368Y-108536447D01*
X136868092Y-108499500D01*
X136631908Y-108499500D01*
X136398632Y-108536447D01*
X136174008Y-108609432D01*
X136174002Y-108609434D01*
X136174002Y-108609435D01*
X135963565Y-108716658D01*
X135772499Y-108855476D01*
X135772488Y-108855485D01*
X135605485Y-109022488D01*
X135605476Y-109022499D01*
X135487156Y-109185352D01*
X135466657Y-109213567D01*
X135359432Y-109424008D01*
X135286447Y-109648632D01*
X135249500Y-109881908D01*
X130709462Y-109881908D01*
X130650104Y-109800208D01*
X130499792Y-109649896D01*
X130335517Y-109530544D01*
X130286979Y-109470604D01*
X130274913Y-109394426D01*
X130302553Y-109322420D01*
X130335517Y-109289456D01*
X130342519Y-109284368D01*
X130499792Y-109170104D01*
X130650104Y-109019792D01*
X130775051Y-108847816D01*
X130871557Y-108658412D01*
X130937246Y-108456243D01*
X130970500Y-108246287D01*
X130970500Y-108033713D01*
X130937246Y-107823757D01*
X130871557Y-107621588D01*
X130775051Y-107432184D01*
X130650104Y-107260208D01*
X130499792Y-107109896D01*
X130335517Y-106990544D01*
X130286979Y-106930604D01*
X130274913Y-106854426D01*
X130302553Y-106782420D01*
X130335517Y-106749456D01*
X130384910Y-106713570D01*
X130499792Y-106630104D01*
X130650104Y-106479792D01*
X130775051Y-106307816D01*
X130871557Y-106118412D01*
X130937246Y-105916243D01*
X130970500Y-105706287D01*
X130970500Y-105493713D01*
X130937246Y-105283757D01*
X130871557Y-105081588D01*
X130775051Y-104892184D01*
X130767585Y-104881908D01*
X135249500Y-104881908D01*
X135249500Y-105118092D01*
X135286447Y-105351368D01*
X135359432Y-105575992D01*
X135466657Y-105786433D01*
X135605483Y-105977510D01*
X135772490Y-106144517D01*
X135963567Y-106283343D01*
X136174008Y-106390568D01*
X136398632Y-106463553D01*
X136631908Y-106500500D01*
X136631913Y-106500500D01*
X136868087Y-106500500D01*
X136868092Y-106500500D01*
X137101368Y-106463553D01*
X137325992Y-106390568D01*
X137536433Y-106283343D01*
X137727510Y-106144517D01*
X137894517Y-105977510D01*
X138033343Y-105786433D01*
X138140568Y-105575992D01*
X138213553Y-105351368D01*
X138250500Y-105118092D01*
X138250500Y-104881908D01*
X138213553Y-104648632D01*
X138140568Y-104424008D01*
X138033343Y-104213567D01*
X137894517Y-104022490D01*
X137824141Y-103952114D01*
X149749500Y-103952114D01*
X149749500Y-106047863D01*
X149749502Y-106047888D01*
X149755908Y-106107478D01*
X149755909Y-106107484D01*
X149806202Y-106242329D01*
X149806204Y-106242333D01*
X149892452Y-106357544D01*
X149892455Y-106357547D01*
X149990468Y-106430920D01*
X150038145Y-106491547D01*
X150049121Y-106567890D01*
X150021720Y-106637779D01*
X149966655Y-106713570D01*
X149877553Y-106888443D01*
X149859432Y-106924008D01*
X149786447Y-107148632D01*
X149749500Y-107381908D01*
X149749500Y-107618092D01*
X149786447Y-107851368D01*
X149859432Y-108075992D01*
X149966657Y-108286433D01*
X150105483Y-108477510D01*
X150272490Y-108644517D01*
X150272493Y-108644519D01*
X150272615Y-108644641D01*
X150311179Y-108711436D01*
X150311179Y-108788564D01*
X150272615Y-108855359D01*
X150272493Y-108855480D01*
X150272490Y-108855483D01*
X150108183Y-109019790D01*
X150105485Y-109022488D01*
X150105476Y-109022499D01*
X149987156Y-109185352D01*
X149966657Y-109213567D01*
X149859432Y-109424008D01*
X149786447Y-109648632D01*
X149749500Y-109881908D01*
X149749500Y-110118092D01*
X149786447Y-110351368D01*
X149859432Y-110575992D01*
X149966657Y-110786433D01*
X150105483Y-110977510D01*
X150272490Y-111144517D01*
X150463567Y-111283343D01*
X150674008Y-111390568D01*
X150898632Y-111463553D01*
X151131908Y-111500500D01*
X151131913Y-111500500D01*
X151368087Y-111500500D01*
X151368092Y-111500500D01*
X151601368Y-111463553D01*
X151825992Y-111390568D01*
X152036433Y-111283343D01*
X152227510Y-111144517D01*
X152394517Y-110977510D01*
X152533343Y-110786433D01*
X152640568Y-110575992D01*
X152713553Y-110351368D01*
X152750500Y-110118092D01*
X152750500Y-109881908D01*
X152713553Y-109648632D01*
X152640568Y-109424008D01*
X152533343Y-109213567D01*
X152394517Y-109022490D01*
X152227510Y-108855483D01*
X152227506Y-108855480D01*
X152227385Y-108855359D01*
X152188821Y-108788564D01*
X152188821Y-108711436D01*
X152227385Y-108644641D01*
X152227506Y-108644519D01*
X152227510Y-108644517D01*
X152394517Y-108477510D01*
X152533343Y-108286433D01*
X152640568Y-108075992D01*
X152713553Y-107851368D01*
X152750500Y-107618092D01*
X152750500Y-107381908D01*
X152713553Y-107148632D01*
X152640568Y-106924008D01*
X152533343Y-106713567D01*
X152478278Y-106637777D01*
X152450639Y-106565775D01*
X152462704Y-106489597D01*
X152509528Y-106430921D01*
X152607546Y-106357546D01*
X152650671Y-106299938D01*
X152693795Y-106242333D01*
X152693797Y-106242329D01*
X152740013Y-106118417D01*
X152744091Y-106107483D01*
X152745823Y-106091370D01*
X152750499Y-106047885D01*
X152750500Y-106047867D01*
X152750500Y-105772114D01*
X158079500Y-105772114D01*
X158079500Y-107567863D01*
X158079502Y-107567888D01*
X158085908Y-107627478D01*
X158085909Y-107627484D01*
X158136202Y-107762329D01*
X158136205Y-107762333D01*
X158202361Y-107850707D01*
X158231027Y-107922311D01*
X158220051Y-107998654D01*
X158202361Y-108029293D01*
X158136205Y-108117666D01*
X158136202Y-108117670D01*
X158085908Y-108252517D01*
X158079500Y-108312114D01*
X158079500Y-110107863D01*
X158079502Y-110107888D01*
X158085908Y-110167478D01*
X158085909Y-110167484D01*
X158136202Y-110302329D01*
X158136204Y-110302333D01*
X158222452Y-110417544D01*
X158222455Y-110417547D01*
X158337666Y-110503795D01*
X158337668Y-110503795D01*
X158337669Y-110503796D01*
X158432633Y-110539215D01*
X158495460Y-110583953D01*
X158527501Y-110654111D01*
X158520170Y-110730890D01*
X158485923Y-110784179D01*
X158399904Y-110870198D01*
X158399895Y-110870209D01*
X158274950Y-111042181D01*
X158274950Y-111042182D01*
X158178446Y-111231582D01*
X158178441Y-111231594D01*
X158121707Y-111406204D01*
X158112754Y-111433757D01*
X158079500Y-111643713D01*
X158079500Y-111856287D01*
X158112754Y-112066243D01*
X158178443Y-112268412D01*
X158274949Y-112457816D01*
X158399896Y-112629792D01*
X158550208Y-112780104D01*
X158580804Y-112802333D01*
X158714482Y-112899456D01*
X158763020Y-112959396D01*
X158775086Y-113035575D01*
X158747446Y-113107580D01*
X158714482Y-113140544D01*
X158550209Y-113259895D01*
X158550206Y-113259897D01*
X158399897Y-113410206D01*
X158399895Y-113410209D01*
X158274950Y-113582181D01*
X158274950Y-113582182D01*
X158178446Y-113771582D01*
X158178441Y-113771594D01*
X158127681Y-113927818D01*
X158112754Y-113973757D01*
X158079500Y-114183713D01*
X158079500Y-114396287D01*
X158112754Y-114606243D01*
X158178443Y-114808412D01*
X158274949Y-114997816D01*
X158399896Y-115169792D01*
X158550208Y-115320104D01*
X158722184Y-115445051D01*
X158911588Y-115541557D01*
X159113757Y-115607246D01*
X159323713Y-115640500D01*
X159323718Y-115640500D01*
X159536282Y-115640500D01*
X159536287Y-115640500D01*
X159746243Y-115607246D01*
X159948412Y-115541557D01*
X160137816Y-115445051D01*
X160309792Y-115320104D01*
X160460104Y-115169792D01*
X160585051Y-114997816D01*
X160681557Y-114808412D01*
X160747246Y-114606243D01*
X160780500Y-114396287D01*
X160780500Y-114183713D01*
X160747246Y-113973757D01*
X160681557Y-113771588D01*
X160585051Y-113582184D01*
X160460104Y-113410208D01*
X160309792Y-113259896D01*
X160145517Y-113140544D01*
X160096979Y-113080604D01*
X160084913Y-113004426D01*
X160112553Y-112932420D01*
X160145517Y-112899456D01*
X160157559Y-112890707D01*
X160309792Y-112780104D01*
X160460104Y-112629792D01*
X160585051Y-112457816D01*
X160681557Y-112268412D01*
X160747246Y-112066243D01*
X160780500Y-111856287D01*
X160780500Y-111643713D01*
X160747246Y-111433757D01*
X160681557Y-111231588D01*
X160585051Y-111042184D01*
X160460104Y-110870208D01*
X160402010Y-110812114D01*
X196179500Y-110812114D01*
X196179500Y-112607863D01*
X196179502Y-112607888D01*
X196185908Y-112667478D01*
X196185909Y-112667484D01*
X196236202Y-112802329D01*
X196236205Y-112802333D01*
X196302361Y-112890707D01*
X196331027Y-112962311D01*
X196320051Y-113038654D01*
X196302361Y-113069293D01*
X196236205Y-113157666D01*
X196236202Y-113157670D01*
X196185908Y-113292517D01*
X196179500Y-113352114D01*
X196179500Y-115147863D01*
X196179502Y-115147888D01*
X196185908Y-115207478D01*
X196185909Y-115207484D01*
X196236202Y-115342329D01*
X196236204Y-115342333D01*
X196322452Y-115457544D01*
X196322455Y-115457547D01*
X196437665Y-115543794D01*
X196437667Y-115543795D01*
X196437669Y-115543796D01*
X196532633Y-115579215D01*
X196595460Y-115623953D01*
X196627501Y-115694111D01*
X196620170Y-115770890D01*
X196585923Y-115824179D01*
X196499904Y-115910198D01*
X196499895Y-115910209D01*
X196374950Y-116082181D01*
X196374950Y-116082182D01*
X196278446Y-116271582D01*
X196278441Y-116271594D01*
X196214684Y-116467818D01*
X196212754Y-116473757D01*
X196179500Y-116683713D01*
X196179500Y-116896287D01*
X196212754Y-117106243D01*
X196278443Y-117308412D01*
X196374949Y-117497816D01*
X196499896Y-117669792D01*
X196650208Y-117820104D01*
X196728844Y-117877236D01*
X196814482Y-117939456D01*
X196863020Y-117999396D01*
X196875086Y-118075575D01*
X196847446Y-118147580D01*
X196814482Y-118180544D01*
X196650209Y-118299895D01*
X196650206Y-118299897D01*
X196499897Y-118450206D01*
X196499895Y-118450209D01*
X196374950Y-118622181D01*
X196374950Y-118622182D01*
X196278446Y-118811582D01*
X196278441Y-118811594D01*
X196214684Y-119007818D01*
X196212754Y-119013757D01*
X196179500Y-119223713D01*
X196179500Y-119436287D01*
X196212754Y-119646243D01*
X196278443Y-119848412D01*
X196367402Y-120023005D01*
X196374950Y-120037817D01*
X196374950Y-120037818D01*
X196412717Y-120089800D01*
X196499896Y-120209792D01*
X196650208Y-120360104D01*
X196822184Y-120485051D01*
X197011588Y-120581557D01*
X197213757Y-120647246D01*
X197423713Y-120680500D01*
X197423718Y-120680500D01*
X197636282Y-120680500D01*
X197636287Y-120680500D01*
X197846243Y-120647246D01*
X198048412Y-120581557D01*
X198237816Y-120485051D01*
X198409792Y-120360104D01*
X198560104Y-120209792D01*
X198685051Y-120037816D01*
X198781557Y-119848412D01*
X198847246Y-119646243D01*
X198880500Y-119436287D01*
X198880500Y-119223713D01*
X198847246Y-119013757D01*
X198781557Y-118811588D01*
X198685051Y-118622184D01*
X198560104Y-118450208D01*
X198409792Y-118299896D01*
X198252150Y-118185363D01*
X198245517Y-118180544D01*
X198196979Y-118120604D01*
X198184913Y-118044426D01*
X198212553Y-117972420D01*
X198245517Y-117939456D01*
X198252519Y-117934368D01*
X198409792Y-117820104D01*
X198560104Y-117669792D01*
X198685051Y-117497816D01*
X198781557Y-117308412D01*
X198847246Y-117106243D01*
X198880500Y-116896287D01*
X198880500Y-116683713D01*
X198847246Y-116473757D01*
X198781557Y-116271588D01*
X198685051Y-116082184D01*
X198560104Y-115910208D01*
X198474075Y-115824179D01*
X198435512Y-115757385D01*
X198435512Y-115680257D01*
X198474076Y-115613462D01*
X198527366Y-115579215D01*
X198558278Y-115567685D01*
X198622327Y-115543798D01*
X198622335Y-115543794D01*
X198699141Y-115486296D01*
X198737546Y-115457546D01*
X198822099Y-115344598D01*
X198823795Y-115342333D01*
X198823797Y-115342329D01*
X198861368Y-115241594D01*
X198874091Y-115207483D01*
X198878143Y-115169793D01*
X198880499Y-115147885D01*
X198880499Y-115147882D01*
X198880500Y-115147873D01*
X198880499Y-113352128D01*
X198874091Y-113292517D01*
X198853508Y-113237332D01*
X198823797Y-113157670D01*
X198823795Y-113157666D01*
X198757638Y-113069293D01*
X198728972Y-112997690D01*
X198739948Y-112921347D01*
X198757638Y-112890707D01*
X198823795Y-112802333D01*
X198823797Y-112802329D01*
X198861368Y-112701594D01*
X198874091Y-112667483D01*
X198878143Y-112629793D01*
X198880499Y-112607885D01*
X198880499Y-112607882D01*
X198880500Y-112607873D01*
X198880499Y-110812128D01*
X198874091Y-110752517D01*
X198831269Y-110637704D01*
X198823797Y-110617670D01*
X198823795Y-110617666D01*
X198737547Y-110502455D01*
X198737544Y-110502452D01*
X198622333Y-110416204D01*
X198622329Y-110416202D01*
X198487482Y-110365908D01*
X198427876Y-110359500D01*
X196632136Y-110359500D01*
X196632111Y-110359502D01*
X196572521Y-110365908D01*
X196572515Y-110365909D01*
X196437670Y-110416202D01*
X196437666Y-110416204D01*
X196322455Y-110502452D01*
X196322452Y-110502455D01*
X196236204Y-110617666D01*
X196236202Y-110617670D01*
X196185908Y-110752517D01*
X196179500Y-110812114D01*
X160402010Y-110812114D01*
X160372047Y-110782151D01*
X160370108Y-110780057D01*
X160353405Y-110748378D01*
X160335512Y-110717385D01*
X160335512Y-110714438D01*
X160334137Y-110711831D01*
X160335512Y-110676053D01*
X160335512Y-110640257D01*
X160336985Y-110637704D01*
X160337099Y-110634759D01*
X160356177Y-110604462D01*
X160374076Y-110573462D01*
X160376804Y-110571708D01*
X160378199Y-110569494D01*
X160389622Y-110563471D01*
X160427366Y-110539215D01*
X160458278Y-110527685D01*
X160522327Y-110503798D01*
X160522333Y-110503795D01*
X160582280Y-110458918D01*
X160637546Y-110417546D01*
X160723796Y-110302331D01*
X160774091Y-110167483D01*
X160775823Y-110151370D01*
X160780499Y-110107885D01*
X160780499Y-110107882D01*
X160780500Y-110107873D01*
X160780499Y-108312128D01*
X160774091Y-108252517D01*
X160739169Y-108158885D01*
X160723797Y-108117670D01*
X160723795Y-108117666D01*
X160657638Y-108029293D01*
X160628972Y-107957690D01*
X160639948Y-107881347D01*
X160657638Y-107850707D01*
X160723795Y-107762333D01*
X160723797Y-107762329D01*
X160763678Y-107655401D01*
X160774091Y-107627483D01*
X160775823Y-107611370D01*
X160780499Y-107567885D01*
X160780499Y-107567882D01*
X160780500Y-107567873D01*
X160780499Y-105772128D01*
X160774091Y-105712517D01*
X160759588Y-105673633D01*
X160723797Y-105577670D01*
X160723795Y-105577666D01*
X160637547Y-105462455D01*
X160637544Y-105462452D01*
X160522333Y-105376204D01*
X160522329Y-105376202D01*
X160387482Y-105325908D01*
X160327876Y-105319500D01*
X158532136Y-105319500D01*
X158532111Y-105319502D01*
X158472521Y-105325908D01*
X158472515Y-105325909D01*
X158337670Y-105376202D01*
X158337666Y-105376204D01*
X158222455Y-105462452D01*
X158222452Y-105462455D01*
X158136204Y-105577666D01*
X158136202Y-105577670D01*
X158085908Y-105712517D01*
X158079500Y-105772114D01*
X152750500Y-105772114D01*
X152750500Y-105768136D01*
X152750499Y-103952136D01*
X152750499Y-103952128D01*
X152744091Y-103892517D01*
X152729588Y-103853633D01*
X152693797Y-103757670D01*
X152693795Y-103757666D01*
X152607547Y-103642455D01*
X152607544Y-103642452D01*
X152492333Y-103556204D01*
X152492329Y-103556202D01*
X152357482Y-103505908D01*
X152297876Y-103499500D01*
X150202136Y-103499500D01*
X150202111Y-103499502D01*
X150142521Y-103505908D01*
X150142515Y-103505909D01*
X150007670Y-103556202D01*
X150007666Y-103556204D01*
X149892455Y-103642452D01*
X149892452Y-103642455D01*
X149806204Y-103757666D01*
X149806202Y-103757670D01*
X149755908Y-103892517D01*
X149749500Y-103952114D01*
X137824141Y-103952114D01*
X137727510Y-103855483D01*
X137536433Y-103716657D01*
X137325992Y-103609432D01*
X137101368Y-103536447D01*
X136868092Y-103499500D01*
X136631908Y-103499500D01*
X136398632Y-103536447D01*
X136222131Y-103593796D01*
X136174008Y-103609432D01*
X136174002Y-103609434D01*
X136174002Y-103609435D01*
X135963565Y-103716658D01*
X135772499Y-103855476D01*
X135772488Y-103855485D01*
X135605485Y-104022488D01*
X135605476Y-104022499D01*
X135466658Y-104213565D01*
X135466657Y-104213567D01*
X135359432Y-104424008D01*
X135286447Y-104648632D01*
X135249500Y-104881908D01*
X130767585Y-104881908D01*
X130650104Y-104720208D01*
X130499792Y-104569896D01*
X130335517Y-104450544D01*
X130286979Y-104390604D01*
X130274913Y-104314426D01*
X130302553Y-104242420D01*
X130335517Y-104209456D01*
X130342519Y-104204368D01*
X130499792Y-104090104D01*
X130650104Y-103939792D01*
X130775051Y-103767816D01*
X130871557Y-103578412D01*
X130937246Y-103376243D01*
X130970500Y-103166287D01*
X130970500Y-102953713D01*
X130937246Y-102743757D01*
X130871557Y-102541588D01*
X130775051Y-102352184D01*
X130650104Y-102180208D01*
X130499792Y-102029896D01*
X130336570Y-101911309D01*
X130335517Y-101910544D01*
X130286979Y-101850604D01*
X130274913Y-101774426D01*
X130302553Y-101702420D01*
X130335517Y-101669456D01*
X130342519Y-101664368D01*
X130499792Y-101550104D01*
X130650104Y-101399792D01*
X130775051Y-101227816D01*
X130871557Y-101038412D01*
X130937246Y-100836243D01*
X130970500Y-100626287D01*
X130970500Y-100602114D01*
X141749500Y-100602114D01*
X141749500Y-103197863D01*
X141749502Y-103197888D01*
X141755908Y-103257478D01*
X141755909Y-103257484D01*
X141806202Y-103392329D01*
X141806204Y-103392333D01*
X141892452Y-103507544D01*
X141892455Y-103507547D01*
X142007666Y-103593795D01*
X142007670Y-103593797D01*
X142142517Y-103644091D01*
X142202114Y-103650499D01*
X142202118Y-103650499D01*
X142202127Y-103650500D01*
X145297872Y-103650499D01*
X145357483Y-103644091D01*
X145453447Y-103608298D01*
X145492329Y-103593797D01*
X145492333Y-103593795D01*
X145568939Y-103536447D01*
X145607546Y-103507546D01*
X145693796Y-103392331D01*
X145699797Y-103376243D01*
X145714174Y-103337693D01*
X145744091Y-103257483D01*
X145745823Y-103241370D01*
X145750499Y-103197885D01*
X145750499Y-103197882D01*
X145750500Y-103197873D01*
X145750499Y-100602128D01*
X145744091Y-100542517D01*
X145696052Y-100413717D01*
X145693797Y-100407670D01*
X145693795Y-100407666D01*
X145607547Y-100292455D01*
X145607544Y-100292452D01*
X145492333Y-100206204D01*
X145492329Y-100206202D01*
X145357482Y-100155908D01*
X145297876Y-100149500D01*
X142202136Y-100149500D01*
X142202111Y-100149502D01*
X142142521Y-100155908D01*
X142142515Y-100155909D01*
X142007670Y-100206202D01*
X142007666Y-100206204D01*
X141892455Y-100292452D01*
X141892452Y-100292455D01*
X141806204Y-100407666D01*
X141806202Y-100407670D01*
X141755908Y-100542517D01*
X141749500Y-100602114D01*
X130970500Y-100602114D01*
X130970500Y-100413713D01*
X130937246Y-100203757D01*
X130871557Y-100001588D01*
X130775051Y-99812184D01*
X130650104Y-99640208D01*
X130499792Y-99489896D01*
X130335517Y-99370544D01*
X130286979Y-99310604D01*
X130274913Y-99234426D01*
X130302553Y-99162420D01*
X130335517Y-99129456D01*
X130342519Y-99124368D01*
X130499792Y-99010104D01*
X130608313Y-98901583D01*
X200249500Y-98901583D01*
X200249500Y-99098417D01*
X200280291Y-99292826D01*
X200341116Y-99480025D01*
X200341119Y-99480030D01*
X200341121Y-99480036D01*
X200422732Y-99640206D01*
X200430476Y-99655405D01*
X200546172Y-99814646D01*
X200685354Y-99953828D01*
X200844595Y-100069524D01*
X201019975Y-100158884D01*
X201207174Y-100219709D01*
X201401583Y-100250500D01*
X201401588Y-100250500D01*
X201598412Y-100250500D01*
X201598417Y-100250500D01*
X201792826Y-100219709D01*
X201980025Y-100158884D01*
X202155405Y-100069524D01*
X202314646Y-99953828D01*
X202453828Y-99814646D01*
X202569524Y-99655405D01*
X202658884Y-99480025D01*
X202719709Y-99292826D01*
X202750500Y-99098417D01*
X202750500Y-98901583D01*
X203249500Y-98901583D01*
X203249500Y-99098417D01*
X203280291Y-99292826D01*
X203341116Y-99480025D01*
X203341119Y-99480030D01*
X203341121Y-99480036D01*
X203422732Y-99640206D01*
X203430476Y-99655405D01*
X203546172Y-99814646D01*
X203685354Y-99953828D01*
X203844595Y-100069524D01*
X204019975Y-100158884D01*
X204207174Y-100219709D01*
X204401583Y-100250500D01*
X204401588Y-100250500D01*
X204598412Y-100250500D01*
X204598417Y-100250500D01*
X204792826Y-100219709D01*
X204980025Y-100158884D01*
X205155405Y-100069524D01*
X205314646Y-99953828D01*
X205453828Y-99814646D01*
X205569524Y-99655405D01*
X205658884Y-99480025D01*
X205719709Y-99292826D01*
X205750500Y-99098417D01*
X205750500Y-98901583D01*
X205719709Y-98707174D01*
X205658884Y-98519975D01*
X205569524Y-98344595D01*
X205453828Y-98185354D01*
X205314646Y-98046172D01*
X205155405Y-97930476D01*
X205085618Y-97894918D01*
X204980036Y-97841121D01*
X204980030Y-97841119D01*
X204980025Y-97841116D01*
X204792826Y-97780291D01*
X204598417Y-97749500D01*
X204401583Y-97749500D01*
X204207174Y-97780291D01*
X204019975Y-97841116D01*
X204019972Y-97841117D01*
X204019963Y-97841121D01*
X203844598Y-97930474D01*
X203844593Y-97930477D01*
X203685363Y-98046165D01*
X203685352Y-98046174D01*
X203546174Y-98185352D01*
X203546165Y-98185363D01*
X203430477Y-98344593D01*
X203430474Y-98344598D01*
X203341121Y-98519963D01*
X203341114Y-98519981D01*
X203321434Y-98580549D01*
X203280291Y-98707174D01*
X203249500Y-98901583D01*
X202750500Y-98901583D01*
X202719709Y-98707174D01*
X202658884Y-98519975D01*
X202569524Y-98344595D01*
X202453828Y-98185354D01*
X202314646Y-98046172D01*
X202155405Y-97930476D01*
X202085618Y-97894918D01*
X201980036Y-97841121D01*
X201980030Y-97841119D01*
X201980025Y-97841116D01*
X201792826Y-97780291D01*
X201598417Y-97749500D01*
X201401583Y-97749500D01*
X201207174Y-97780291D01*
X201019975Y-97841116D01*
X201019972Y-97841117D01*
X201019963Y-97841121D01*
X200844598Y-97930474D01*
X200844593Y-97930477D01*
X200685363Y-98046165D01*
X200685352Y-98046174D01*
X200546174Y-98185352D01*
X200546165Y-98185363D01*
X200430477Y-98344593D01*
X200430474Y-98344598D01*
X200341121Y-98519963D01*
X200341114Y-98519981D01*
X200321434Y-98580549D01*
X200280291Y-98707174D01*
X200249500Y-98901583D01*
X130608313Y-98901583D01*
X130650104Y-98859792D01*
X130775051Y-98687816D01*
X130775538Y-98686859D01*
X130775849Y-98686514D01*
X130778110Y-98682825D01*
X130778793Y-98683243D01*
X130827143Y-98629542D01*
X130900495Y-98605705D01*
X130908300Y-98605500D01*
X135554723Y-98605500D01*
X135622764Y-98591966D01*
X135675568Y-98581463D01*
X135708908Y-98567652D01*
X135789402Y-98534312D01*
X135840621Y-98500087D01*
X135840625Y-98500085D01*
X135891843Y-98465862D01*
X135891842Y-98465862D01*
X135891849Y-98465858D01*
X135978974Y-98378733D01*
X135978974Y-98378731D01*
X135987460Y-98370246D01*
X135987465Y-98370239D01*
X141188565Y-93169141D01*
X141255360Y-93130577D01*
X141293924Y-93125500D01*
X145179192Y-93125500D01*
X145253692Y-93145462D01*
X145284551Y-93169141D01*
X150324139Y-98208729D01*
X150324142Y-98208733D01*
X150411267Y-98295858D01*
X150462490Y-98330084D01*
X150470445Y-98335400D01*
X150470448Y-98335402D01*
X150513709Y-98364309D01*
X150513712Y-98364311D01*
X150513713Y-98364311D01*
X150513714Y-98364312D01*
X150594207Y-98397652D01*
X150627548Y-98411463D01*
X150687971Y-98423481D01*
X150748393Y-98435500D01*
X150748394Y-98435500D01*
X167938393Y-98435500D01*
X167938394Y-98435500D01*
X174934597Y-98435500D01*
X175009097Y-98455462D01*
X175039956Y-98479141D01*
X175152779Y-98591964D01*
X175152787Y-98591971D01*
X175317797Y-98711856D01*
X175318390Y-98712287D01*
X175500781Y-98805220D01*
X175695466Y-98868477D01*
X175897648Y-98900500D01*
X175897653Y-98900500D01*
X176102347Y-98900500D01*
X176102352Y-98900500D01*
X176304534Y-98868477D01*
X176499219Y-98805220D01*
X176681610Y-98712287D01*
X176847219Y-98591966D01*
X176991966Y-98447219D01*
X177112287Y-98281610D01*
X177137240Y-98232636D01*
X177188848Y-98175319D01*
X177262202Y-98151485D01*
X177337644Y-98167521D01*
X177394962Y-98219129D01*
X177402760Y-98232637D01*
X177427712Y-98281609D01*
X177548028Y-98447212D01*
X177548035Y-98447220D01*
X177692779Y-98591964D01*
X177692787Y-98591971D01*
X177857797Y-98711856D01*
X177858390Y-98712287D01*
X178040781Y-98805220D01*
X178235466Y-98868477D01*
X178437648Y-98900500D01*
X178437653Y-98900500D01*
X178642347Y-98900500D01*
X178642352Y-98900500D01*
X178844534Y-98868477D01*
X179039219Y-98805220D01*
X179221610Y-98712287D01*
X179387219Y-98591966D01*
X179531966Y-98447219D01*
X179652287Y-98281610D01*
X179677520Y-98232086D01*
X179729128Y-98174770D01*
X179802481Y-98150935D01*
X179877924Y-98166971D01*
X179935241Y-98218579D01*
X179943040Y-98232086D01*
X179968143Y-98281354D01*
X180088412Y-98446889D01*
X180233110Y-98591587D01*
X180398645Y-98711856D01*
X180580967Y-98804753D01*
X180580979Y-98804759D01*
X180775577Y-98867988D01*
X180830000Y-98876607D01*
X180830000Y-97833012D01*
X180887007Y-97865925D01*
X181014174Y-97900000D01*
X181145826Y-97900000D01*
X181272993Y-97865925D01*
X181330000Y-97833012D01*
X181330000Y-98876606D01*
X181384422Y-98867988D01*
X181579020Y-98804759D01*
X181579032Y-98804753D01*
X181761354Y-98711856D01*
X181926889Y-98591587D01*
X182071587Y-98446889D01*
X182191856Y-98281354D01*
X182216958Y-98232088D01*
X182268566Y-98174770D01*
X182341919Y-98150935D01*
X182417362Y-98166970D01*
X182474680Y-98218578D01*
X182482478Y-98232085D01*
X182507712Y-98281609D01*
X182628028Y-98447212D01*
X182628035Y-98447220D01*
X182772779Y-98591964D01*
X182772787Y-98591971D01*
X182937797Y-98711856D01*
X182938390Y-98712287D01*
X183120781Y-98805220D01*
X183315466Y-98868477D01*
X183517648Y-98900500D01*
X183517653Y-98900500D01*
X183722347Y-98900500D01*
X183722352Y-98900500D01*
X183924534Y-98868477D01*
X184119219Y-98805220D01*
X184301610Y-98712287D01*
X184467219Y-98591966D01*
X184611966Y-98447219D01*
X184732287Y-98281610D01*
X184825220Y-98099219D01*
X184888477Y-97904534D01*
X184920500Y-97702352D01*
X184920500Y-97097648D01*
X184888477Y-96895466D01*
X184825220Y-96700781D01*
X184732287Y-96518390D01*
X184731837Y-96517770D01*
X184611971Y-96352787D01*
X184611964Y-96352779D01*
X184467220Y-96208035D01*
X184467212Y-96208028D01*
X184301612Y-96087714D01*
X184185455Y-96028529D01*
X184185453Y-96028527D01*
X184119229Y-95994785D01*
X184119228Y-95994784D01*
X184119219Y-95994780D01*
X183924534Y-95931523D01*
X183735781Y-95901627D01*
X200250000Y-95901627D01*
X200250000Y-96098372D01*
X200280779Y-96292708D01*
X200341578Y-96479826D01*
X200341585Y-96479843D01*
X200430905Y-96655145D01*
X200456320Y-96690124D01*
X201008871Y-96137572D01*
X201024755Y-96196853D01*
X201091898Y-96313147D01*
X201186853Y-96408102D01*
X201303147Y-96475245D01*
X201362425Y-96491128D01*
X200809874Y-97043678D01*
X200844861Y-97069098D01*
X201020155Y-97158414D01*
X201020173Y-97158421D01*
X201207291Y-97219220D01*
X201401628Y-97250000D01*
X201598372Y-97250000D01*
X201792708Y-97219220D01*
X201979826Y-97158421D01*
X201979844Y-97158414D01*
X202155138Y-97069098D01*
X202190123Y-97043678D01*
X201637574Y-96491128D01*
X201696853Y-96475245D01*
X201813147Y-96408102D01*
X201908102Y-96313147D01*
X201975245Y-96196853D01*
X201991128Y-96137573D01*
X202543678Y-96690123D01*
X202569098Y-96655138D01*
X202658414Y-96479844D01*
X202658421Y-96479826D01*
X202719220Y-96292708D01*
X202750000Y-96098372D01*
X202750000Y-95901627D01*
X203250000Y-95901627D01*
X203250000Y-96098372D01*
X203280779Y-96292708D01*
X203341578Y-96479826D01*
X203341585Y-96479843D01*
X203430905Y-96655145D01*
X203456320Y-96690124D01*
X204008871Y-96137572D01*
X204024755Y-96196853D01*
X204091898Y-96313147D01*
X204186853Y-96408102D01*
X204303147Y-96475245D01*
X204362425Y-96491128D01*
X203809874Y-97043678D01*
X203844861Y-97069098D01*
X204020155Y-97158414D01*
X204020173Y-97158421D01*
X204207291Y-97219220D01*
X204401628Y-97250000D01*
X204598372Y-97250000D01*
X204792708Y-97219220D01*
X204979826Y-97158421D01*
X204979844Y-97158414D01*
X205155138Y-97069098D01*
X205190123Y-97043678D01*
X204891708Y-96745262D01*
X207069500Y-96745262D01*
X207069500Y-96974737D01*
X207099450Y-97202229D01*
X207099450Y-97202232D01*
X207158840Y-97423883D01*
X207158840Y-97423884D01*
X207246658Y-97635892D01*
X207361391Y-97834615D01*
X207361391Y-97834616D01*
X207434949Y-97930477D01*
X207501081Y-98016661D01*
X207663339Y-98178919D01*
X207845388Y-98318611D01*
X208044112Y-98433344D01*
X208223062Y-98507467D01*
X208256115Y-98521159D01*
X208352095Y-98546876D01*
X208477762Y-98580548D01*
X208477766Y-98580548D01*
X208477768Y-98580549D01*
X208547692Y-98589754D01*
X208705263Y-98610499D01*
X208705264Y-98610500D01*
X208705266Y-98610500D01*
X208934736Y-98610500D01*
X208934736Y-98610499D01*
X209162230Y-98580549D01*
X209162232Y-98580549D01*
X209162233Y-98580548D01*
X209162238Y-98580548D01*
X209383883Y-98521159D01*
X209383884Y-98521159D01*
X209383885Y-98521158D01*
X209383887Y-98521158D01*
X209595888Y-98433344D01*
X209794612Y-98318611D01*
X209976661Y-98178919D01*
X210138919Y-98016661D01*
X210278611Y-97834612D01*
X210393344Y-97635888D01*
X210481158Y-97423887D01*
X210540548Y-97202238D01*
X210570500Y-96974734D01*
X210570500Y-96745266D01*
X210540548Y-96517762D01*
X210481158Y-96296113D01*
X210393344Y-96084112D01*
X210278611Y-95885388D01*
X210278608Y-95885384D01*
X210278608Y-95885383D01*
X210138918Y-95703338D01*
X209976661Y-95541081D01*
X209794615Y-95401391D01*
X209595892Y-95286658D01*
X209595890Y-95286657D01*
X209595888Y-95286656D01*
X209529786Y-95259275D01*
X209383884Y-95198840D01*
X209162231Y-95139450D01*
X208934737Y-95109500D01*
X208934734Y-95109500D01*
X208705266Y-95109500D01*
X208705262Y-95109500D01*
X208477770Y-95139450D01*
X208477767Y-95139450D01*
X208256116Y-95198840D01*
X208256115Y-95198840D01*
X208044107Y-95286658D01*
X207845384Y-95401391D01*
X207845383Y-95401391D01*
X207663338Y-95541081D01*
X207501081Y-95703338D01*
X207361391Y-95885383D01*
X207361391Y-95885384D01*
X207246658Y-96084107D01*
X207158840Y-96296115D01*
X207158840Y-96296116D01*
X207099450Y-96517767D01*
X207099450Y-96517770D01*
X207069500Y-96745262D01*
X204891708Y-96745262D01*
X204637574Y-96491128D01*
X204696853Y-96475245D01*
X204813147Y-96408102D01*
X204908102Y-96313147D01*
X204975245Y-96196853D01*
X204991128Y-96137573D01*
X205543678Y-96690123D01*
X205569098Y-96655138D01*
X205658414Y-96479844D01*
X205658421Y-96479826D01*
X205719220Y-96292708D01*
X205750000Y-96098372D01*
X205750000Y-95901627D01*
X205719220Y-95707291D01*
X205658421Y-95520173D01*
X205658414Y-95520155D01*
X205569098Y-95344861D01*
X205543678Y-95309874D01*
X204991128Y-95862424D01*
X204975245Y-95803147D01*
X204908102Y-95686853D01*
X204813147Y-95591898D01*
X204696853Y-95524755D01*
X204637572Y-95508871D01*
X205190124Y-94956320D01*
X205190124Y-94956319D01*
X205155145Y-94930905D01*
X204979843Y-94841585D01*
X204979826Y-94841578D01*
X204792708Y-94780779D01*
X204598372Y-94750000D01*
X204401628Y-94750000D01*
X204207291Y-94780779D01*
X204020173Y-94841578D01*
X204020155Y-94841585D01*
X203844860Y-94930901D01*
X203844859Y-94930902D01*
X203809874Y-94956319D01*
X204362425Y-95508871D01*
X204303147Y-95524755D01*
X204186853Y-95591898D01*
X204091898Y-95686853D01*
X204024755Y-95803147D01*
X204008871Y-95862425D01*
X203456319Y-95309874D01*
X203430902Y-95344859D01*
X203430901Y-95344860D01*
X203341585Y-95520155D01*
X203341578Y-95520173D01*
X203280779Y-95707291D01*
X203250000Y-95901627D01*
X202750000Y-95901627D01*
X202719220Y-95707291D01*
X202658421Y-95520173D01*
X202658414Y-95520155D01*
X202569098Y-95344861D01*
X202543678Y-95309874D01*
X201991128Y-95862424D01*
X201975245Y-95803147D01*
X201908102Y-95686853D01*
X201813147Y-95591898D01*
X201696853Y-95524755D01*
X201637572Y-95508871D01*
X202190124Y-94956320D01*
X202190124Y-94956319D01*
X202155145Y-94930905D01*
X201979843Y-94841585D01*
X201979826Y-94841578D01*
X201792708Y-94780779D01*
X201598372Y-94750000D01*
X201401628Y-94750000D01*
X201207291Y-94780779D01*
X201020173Y-94841578D01*
X201020155Y-94841585D01*
X200844860Y-94930901D01*
X200844859Y-94930902D01*
X200809874Y-94956319D01*
X201362425Y-95508871D01*
X201303147Y-95524755D01*
X201186853Y-95591898D01*
X201091898Y-95686853D01*
X201024755Y-95803147D01*
X201008871Y-95862425D01*
X200456319Y-95309874D01*
X200430902Y-95344859D01*
X200430901Y-95344860D01*
X200341585Y-95520155D01*
X200341578Y-95520173D01*
X200280779Y-95707291D01*
X200250000Y-95901627D01*
X183735781Y-95901627D01*
X183722352Y-95899500D01*
X183517648Y-95899500D01*
X183372750Y-95922450D01*
X183315465Y-95931523D01*
X183120787Y-95994778D01*
X183120775Y-95994782D01*
X182938387Y-96087714D01*
X182772787Y-96208028D01*
X182772779Y-96208035D01*
X182628035Y-96352779D01*
X182628028Y-96352787D01*
X182507714Y-96518388D01*
X182482478Y-96567915D01*
X182430868Y-96625231D01*
X182357515Y-96649064D01*
X182282072Y-96633027D01*
X182224756Y-96581417D01*
X182216959Y-96567912D01*
X182191858Y-96518647D01*
X182071587Y-96353110D01*
X181926889Y-96208412D01*
X181761354Y-96088143D01*
X181579032Y-95995246D01*
X181579020Y-95995241D01*
X181384417Y-95932010D01*
X181330000Y-95923391D01*
X181330000Y-96966988D01*
X181272993Y-96934075D01*
X181145826Y-96900000D01*
X181014174Y-96900000D01*
X180887007Y-96934075D01*
X180830000Y-96966988D01*
X180830000Y-95923391D01*
X180775582Y-95932010D01*
X180580979Y-95995241D01*
X180580967Y-95995246D01*
X180398645Y-96088143D01*
X180233110Y-96208412D01*
X180088412Y-96353110D01*
X179968141Y-96518648D01*
X179943039Y-96567914D01*
X179891430Y-96625231D01*
X179818077Y-96649064D01*
X179742634Y-96633027D01*
X179685317Y-96581418D01*
X179677520Y-96567913D01*
X179652287Y-96518390D01*
X179651837Y-96517770D01*
X179531971Y-96352787D01*
X179531964Y-96352779D01*
X179387220Y-96208035D01*
X179387212Y-96208028D01*
X179221609Y-96087712D01*
X179122968Y-96037451D01*
X179065651Y-95985842D01*
X179041818Y-95912489D01*
X179057855Y-95837046D01*
X179085252Y-95799336D01*
X181983005Y-92901583D01*
X200249500Y-92901583D01*
X200249500Y-93098417D01*
X200280291Y-93292826D01*
X200341116Y-93480025D01*
X200341119Y-93480030D01*
X200341121Y-93480036D01*
X200366631Y-93530102D01*
X200430476Y-93655405D01*
X200546172Y-93814646D01*
X200685354Y-93953828D01*
X200844595Y-94069524D01*
X200922849Y-94109396D01*
X201011225Y-94154426D01*
X201019975Y-94158884D01*
X201207174Y-94219709D01*
X201401583Y-94250500D01*
X201401588Y-94250500D01*
X201598412Y-94250500D01*
X201598417Y-94250500D01*
X201792826Y-94219709D01*
X201980025Y-94158884D01*
X202155405Y-94069524D01*
X202314646Y-93953828D01*
X202453828Y-93814646D01*
X202569524Y-93655405D01*
X202658884Y-93480025D01*
X202719709Y-93292826D01*
X202750500Y-93098417D01*
X202750500Y-92901583D01*
X203249500Y-92901583D01*
X203249500Y-93098417D01*
X203280291Y-93292826D01*
X203341116Y-93480025D01*
X203341119Y-93480030D01*
X203341121Y-93480036D01*
X203366631Y-93530102D01*
X203430476Y-93655405D01*
X203546172Y-93814646D01*
X203685354Y-93953828D01*
X203844595Y-94069524D01*
X203922849Y-94109396D01*
X204011225Y-94154426D01*
X204019975Y-94158884D01*
X204207174Y-94219709D01*
X204401583Y-94250500D01*
X204401588Y-94250500D01*
X204598412Y-94250500D01*
X204598417Y-94250500D01*
X204792826Y-94219709D01*
X204980025Y-94158884D01*
X205155405Y-94069524D01*
X205314646Y-93953828D01*
X205453828Y-93814646D01*
X205569524Y-93655405D01*
X205658884Y-93480025D01*
X205719709Y-93292826D01*
X205750500Y-93098417D01*
X205750500Y-92901583D01*
X205719709Y-92707174D01*
X205658884Y-92519975D01*
X205569524Y-92344595D01*
X205453828Y-92185354D01*
X205314646Y-92046172D01*
X205313393Y-92045262D01*
X207069500Y-92045262D01*
X207069500Y-92274737D01*
X207099450Y-92502229D01*
X207099450Y-92502232D01*
X207158840Y-92723883D01*
X207158840Y-92723884D01*
X207197097Y-92816243D01*
X207232446Y-92901583D01*
X207246658Y-92935892D01*
X207282056Y-92997203D01*
X207359059Y-93130577D01*
X207361391Y-93134615D01*
X207361391Y-93134616D01*
X207482791Y-93292825D01*
X207501081Y-93316661D01*
X207663339Y-93478919D01*
X207845388Y-93618611D01*
X208044112Y-93733344D01*
X208223062Y-93807467D01*
X208256115Y-93821159D01*
X208352095Y-93846876D01*
X208477762Y-93880548D01*
X208477766Y-93880548D01*
X208477768Y-93880549D01*
X208547692Y-93889754D01*
X208705263Y-93910499D01*
X208705264Y-93910500D01*
X208705266Y-93910500D01*
X208934736Y-93910500D01*
X208934736Y-93910499D01*
X209162230Y-93880549D01*
X209162232Y-93880549D01*
X209162233Y-93880548D01*
X209162238Y-93880548D01*
X209383883Y-93821159D01*
X209383884Y-93821159D01*
X209383885Y-93821158D01*
X209383887Y-93821158D01*
X209595888Y-93733344D01*
X209794612Y-93618611D01*
X209976661Y-93478919D01*
X210138919Y-93316661D01*
X210278611Y-93134612D01*
X210393344Y-92935888D01*
X210481158Y-92723887D01*
X210540548Y-92502238D01*
X210570500Y-92274734D01*
X210570500Y-92045266D01*
X210540548Y-91817762D01*
X210490238Y-91630000D01*
X210481159Y-91596116D01*
X210481159Y-91596115D01*
X210467467Y-91563062D01*
X210393344Y-91384112D01*
X210278611Y-91185388D01*
X210278608Y-91185384D01*
X210278608Y-91185383D01*
X210138918Y-91003338D01*
X209976661Y-90841081D01*
X209794615Y-90701391D01*
X209751057Y-90676243D01*
X209702385Y-90648142D01*
X209595892Y-90586658D01*
X209595890Y-90586657D01*
X209595888Y-90586656D01*
X209507400Y-90550003D01*
X209383884Y-90498840D01*
X209162231Y-90439450D01*
X208934737Y-90409500D01*
X208934734Y-90409500D01*
X208705266Y-90409500D01*
X208705262Y-90409500D01*
X208477770Y-90439450D01*
X208477767Y-90439450D01*
X208256116Y-90498840D01*
X208256115Y-90498840D01*
X208044107Y-90586658D01*
X207845384Y-90701391D01*
X207845383Y-90701391D01*
X207663338Y-90841081D01*
X207501081Y-91003338D01*
X207361391Y-91185383D01*
X207361391Y-91185384D01*
X207246658Y-91384107D01*
X207158840Y-91596115D01*
X207158840Y-91596116D01*
X207099450Y-91817767D01*
X207099450Y-91817770D01*
X207069500Y-92045262D01*
X205313393Y-92045262D01*
X205155405Y-91930476D01*
X205092719Y-91898536D01*
X204980036Y-91841121D01*
X204980030Y-91841119D01*
X204980025Y-91841116D01*
X204792826Y-91780291D01*
X204598417Y-91749500D01*
X204401583Y-91749500D01*
X204207174Y-91780291D01*
X204019975Y-91841116D01*
X204019972Y-91841117D01*
X204019963Y-91841121D01*
X203844598Y-91930474D01*
X203844593Y-91930477D01*
X203685363Y-92046165D01*
X203685352Y-92046174D01*
X203546174Y-92185352D01*
X203546165Y-92185363D01*
X203430477Y-92344593D01*
X203430474Y-92344598D01*
X203341121Y-92519963D01*
X203341117Y-92519972D01*
X203341116Y-92519975D01*
X203280291Y-92707174D01*
X203249500Y-92901583D01*
X202750500Y-92901583D01*
X202719709Y-92707174D01*
X202658884Y-92519975D01*
X202569524Y-92344595D01*
X202453828Y-92185354D01*
X202314646Y-92046172D01*
X202155405Y-91930476D01*
X202092719Y-91898536D01*
X201980036Y-91841121D01*
X201980030Y-91841119D01*
X201980025Y-91841116D01*
X201792826Y-91780291D01*
X201598417Y-91749500D01*
X201401583Y-91749500D01*
X201207174Y-91780291D01*
X201019975Y-91841116D01*
X201019972Y-91841117D01*
X201019963Y-91841121D01*
X200844598Y-91930474D01*
X200844593Y-91930477D01*
X200685363Y-92046165D01*
X200685352Y-92046174D01*
X200546174Y-92185352D01*
X200546165Y-92185363D01*
X200430477Y-92344593D01*
X200430474Y-92344598D01*
X200341121Y-92519963D01*
X200341117Y-92519972D01*
X200341116Y-92519975D01*
X200280291Y-92707174D01*
X200249500Y-92901583D01*
X181983005Y-92901583D01*
X184983005Y-89901583D01*
X200249500Y-89901583D01*
X200249500Y-90098417D01*
X200280291Y-90292826D01*
X200341116Y-90480025D01*
X200341119Y-90480030D01*
X200341121Y-90480036D01*
X200376771Y-90550003D01*
X200430476Y-90655405D01*
X200546172Y-90814646D01*
X200685354Y-90953828D01*
X200844595Y-91069524D01*
X201019975Y-91158884D01*
X201207174Y-91219709D01*
X201401583Y-91250500D01*
X201401588Y-91250500D01*
X201598412Y-91250500D01*
X201598417Y-91250500D01*
X201792826Y-91219709D01*
X201980025Y-91158884D01*
X202155405Y-91069524D01*
X202314646Y-90953828D01*
X202453828Y-90814646D01*
X202569524Y-90655405D01*
X202658884Y-90480025D01*
X202719709Y-90292826D01*
X202750500Y-90098417D01*
X202750500Y-89901583D01*
X202719709Y-89707174D01*
X202658884Y-89519975D01*
X202638622Y-89480209D01*
X202623226Y-89449992D01*
X203249500Y-89449992D01*
X203249500Y-90550008D01*
X203253244Y-90586656D01*
X203260001Y-90652798D01*
X203264978Y-90667816D01*
X203313629Y-90814636D01*
X203315187Y-90819336D01*
X203327805Y-90839792D01*
X203407289Y-90968655D01*
X203531345Y-91092711D01*
X203680666Y-91184814D01*
X203847203Y-91239999D01*
X203949992Y-91250500D01*
X203949996Y-91250500D01*
X205050004Y-91250500D01*
X205050008Y-91250500D01*
X205152797Y-91239999D01*
X205319334Y-91184814D01*
X205468655Y-91092711D01*
X205592711Y-90968655D01*
X205684814Y-90819334D01*
X205739999Y-90652797D01*
X205750500Y-90550008D01*
X205750500Y-89449992D01*
X205739999Y-89347203D01*
X205684814Y-89180666D01*
X205592711Y-89031345D01*
X205468655Y-88907289D01*
X205319336Y-88815187D01*
X205319335Y-88815186D01*
X205319334Y-88815186D01*
X205205847Y-88777580D01*
X205152798Y-88760001D01*
X205152799Y-88760001D01*
X205118534Y-88756500D01*
X205050008Y-88749500D01*
X203949992Y-88749500D01*
X203881466Y-88756500D01*
X203847201Y-88760001D01*
X203680663Y-88815187D01*
X203531344Y-88907289D01*
X203407289Y-89031344D01*
X203315187Y-89180663D01*
X203260001Y-89347201D01*
X203260001Y-89347203D01*
X203249500Y-89449992D01*
X202623226Y-89449992D01*
X202618941Y-89441582D01*
X202569524Y-89344595D01*
X202453828Y-89185354D01*
X202314646Y-89046172D01*
X202155405Y-88930476D01*
X202109898Y-88907289D01*
X201980036Y-88841121D01*
X201980030Y-88841119D01*
X201980025Y-88841116D01*
X201792826Y-88780291D01*
X201598417Y-88749500D01*
X201401583Y-88749500D01*
X201207174Y-88780291D01*
X201019975Y-88841116D01*
X201019972Y-88841117D01*
X201019963Y-88841121D01*
X200844598Y-88930474D01*
X200844593Y-88930477D01*
X200685363Y-89046165D01*
X200685352Y-89046174D01*
X200546174Y-89185352D01*
X200546165Y-89185363D01*
X200430477Y-89344593D01*
X200430474Y-89344598D01*
X200341121Y-89519963D01*
X200341117Y-89519972D01*
X200341116Y-89519975D01*
X200280291Y-89707174D01*
X200249500Y-89901583D01*
X184983005Y-89901583D01*
X192398729Y-82485860D01*
X192398733Y-82485858D01*
X192485858Y-82398733D01*
X192554311Y-82296286D01*
X192554312Y-82296285D01*
X192601463Y-82182451D01*
X192625500Y-82061607D01*
X192625500Y-81938393D01*
X192625500Y-78833648D01*
X192645462Y-78759148D01*
X192700000Y-78704610D01*
X192774500Y-78684648D01*
X192842143Y-78700887D01*
X192941588Y-78751557D01*
X193143757Y-78817246D01*
X193353713Y-78850500D01*
X193353718Y-78850500D01*
X193566282Y-78850500D01*
X193566287Y-78850500D01*
X193776243Y-78817246D01*
X193978412Y-78751557D01*
X194167816Y-78655051D01*
X194339792Y-78530104D01*
X194490104Y-78379792D01*
X194609456Y-78215517D01*
X194669396Y-78166979D01*
X194745574Y-78154913D01*
X194817580Y-78182553D01*
X194850544Y-78215517D01*
X194969896Y-78379792D01*
X195120208Y-78530104D01*
X195292184Y-78655051D01*
X195481588Y-78751557D01*
X195683757Y-78817246D01*
X195893713Y-78850500D01*
X195893718Y-78850500D01*
X196106282Y-78850500D01*
X196106287Y-78850500D01*
X196316243Y-78817246D01*
X196518412Y-78751557D01*
X196707816Y-78655051D01*
X196879792Y-78530104D01*
X197030104Y-78379792D01*
X197155051Y-78207816D01*
X197251557Y-78018412D01*
X197317246Y-77816243D01*
X197350500Y-77606287D01*
X197350500Y-77393713D01*
X197348123Y-77378706D01*
X206149500Y-77378706D01*
X206149500Y-77621293D01*
X206181160Y-77861781D01*
X206181161Y-77861787D01*
X206181162Y-77861789D01*
X206223129Y-78018412D01*
X206243947Y-78096103D01*
X206336778Y-78320216D01*
X206381622Y-78397888D01*
X206458064Y-78530289D01*
X206605735Y-78722738D01*
X206777262Y-78894265D01*
X206969711Y-79041936D01*
X207179788Y-79163224D01*
X207403900Y-79256054D01*
X207638211Y-79318838D01*
X207638217Y-79318838D01*
X207638218Y-79318839D01*
X207703600Y-79327446D01*
X207878712Y-79350500D01*
X208121288Y-79350500D01*
X208361789Y-79318838D01*
X208596100Y-79256054D01*
X208820212Y-79163224D01*
X209030289Y-79041936D01*
X209222738Y-78894265D01*
X209394265Y-78722738D01*
X209541936Y-78530289D01*
X209663224Y-78320212D01*
X209756054Y-78096100D01*
X209818838Y-77861789D01*
X209850500Y-77621288D01*
X209850500Y-77378712D01*
X209818838Y-77138211D01*
X209756054Y-76903900D01*
X209663224Y-76679788D01*
X209541936Y-76469711D01*
X209394265Y-76277262D01*
X209222738Y-76105735D01*
X209030289Y-75958064D01*
X208904192Y-75885262D01*
X208820216Y-75836778D01*
X208820214Y-75836777D01*
X208820212Y-75836776D01*
X208688932Y-75782398D01*
X208596103Y-75743947D01*
X208596101Y-75743946D01*
X208596100Y-75743946D01*
X208361789Y-75681162D01*
X208361787Y-75681161D01*
X208361781Y-75681160D01*
X208121293Y-75649500D01*
X208121288Y-75649500D01*
X207878712Y-75649500D01*
X207878706Y-75649500D01*
X207638218Y-75681160D01*
X207403896Y-75743947D01*
X207179783Y-75836778D01*
X206969712Y-75958063D01*
X206969711Y-75958064D01*
X206777262Y-76105735D01*
X206777260Y-76105736D01*
X206777256Y-76105740D01*
X206605740Y-76277256D01*
X206605736Y-76277260D01*
X206605735Y-76277262D01*
X206592328Y-76294735D01*
X206458063Y-76469712D01*
X206336778Y-76679783D01*
X206243947Y-76903896D01*
X206181160Y-77138218D01*
X206149500Y-77378706D01*
X197348123Y-77378706D01*
X197317246Y-77183757D01*
X197251557Y-76981588D01*
X197155051Y-76792184D01*
X197030104Y-76620208D01*
X196879792Y-76469896D01*
X196707816Y-76344949D01*
X196518412Y-76248443D01*
X196316243Y-76182754D01*
X196106287Y-76149500D01*
X195893713Y-76149500D01*
X195718749Y-76177211D01*
X195683756Y-76182754D01*
X195481594Y-76248441D01*
X195481588Y-76248443D01*
X195481582Y-76248445D01*
X195481582Y-76248446D01*
X195292182Y-76344950D01*
X195292181Y-76344950D01*
X195120209Y-76469895D01*
X195120206Y-76469897D01*
X194969897Y-76620206D01*
X194969895Y-76620209D01*
X194850544Y-76784482D01*
X194790604Y-76833020D01*
X194714425Y-76845086D01*
X194642420Y-76817446D01*
X194609456Y-76784482D01*
X194533387Y-76679783D01*
X194490104Y-76620208D01*
X194339792Y-76469896D01*
X194167816Y-76344949D01*
X193978412Y-76248443D01*
X193776243Y-76182754D01*
X193566287Y-76149500D01*
X193353713Y-76149500D01*
X193178749Y-76177211D01*
X193143756Y-76182754D01*
X192941594Y-76248441D01*
X192941588Y-76248443D01*
X192941582Y-76248445D01*
X192941582Y-76248446D01*
X192752182Y-76344950D01*
X192752181Y-76344950D01*
X192580209Y-76469895D01*
X192580206Y-76469897D01*
X192429897Y-76620206D01*
X192429895Y-76620209D01*
X192310544Y-76784482D01*
X192250604Y-76833020D01*
X192174425Y-76845086D01*
X192102420Y-76817446D01*
X192069456Y-76784482D01*
X191993387Y-76679783D01*
X191950104Y-76620208D01*
X191799792Y-76469896D01*
X191627816Y-76344949D01*
X191438412Y-76248443D01*
X191236243Y-76182754D01*
X191026287Y-76149500D01*
X190813713Y-76149500D01*
X190638749Y-76177211D01*
X190603756Y-76182754D01*
X190401594Y-76248441D01*
X190401588Y-76248443D01*
X190401582Y-76248445D01*
X190401582Y-76248446D01*
X190212182Y-76344950D01*
X190212181Y-76344950D01*
X190040209Y-76469895D01*
X190040206Y-76469897D01*
X189889897Y-76620206D01*
X189889895Y-76620209D01*
X189770544Y-76784482D01*
X189710604Y-76833020D01*
X189634425Y-76845086D01*
X189562420Y-76817446D01*
X189529456Y-76784482D01*
X189453387Y-76679783D01*
X189410104Y-76620208D01*
X189259792Y-76469896D01*
X189087816Y-76344949D01*
X188898412Y-76248443D01*
X188696243Y-76182754D01*
X188486287Y-76149500D01*
X188273713Y-76149500D01*
X188098749Y-76177211D01*
X188063756Y-76182754D01*
X187861594Y-76248441D01*
X187861588Y-76248443D01*
X187861582Y-76248445D01*
X187861582Y-76248446D01*
X187672182Y-76344950D01*
X187672181Y-76344950D01*
X187500209Y-76469895D01*
X187500198Y-76469904D01*
X187414179Y-76555923D01*
X187347384Y-76594487D01*
X187270256Y-76594487D01*
X187203462Y-76555922D01*
X187169215Y-76502633D01*
X187157008Y-76469904D01*
X187133796Y-76407669D01*
X187133795Y-76407668D01*
X187133795Y-76407666D01*
X187047547Y-76292455D01*
X187047544Y-76292452D01*
X186932333Y-76206204D01*
X186932329Y-76206202D01*
X186797482Y-76155908D01*
X186737876Y-76149500D01*
X184942136Y-76149500D01*
X184942111Y-76149502D01*
X184882521Y-76155908D01*
X184882515Y-76155909D01*
X184747670Y-76206202D01*
X184747666Y-76206204D01*
X184632455Y-76292452D01*
X184632452Y-76292455D01*
X184546204Y-76407666D01*
X184546202Y-76407670D01*
X184495908Y-76542517D01*
X184489500Y-76602114D01*
X184489500Y-78397863D01*
X184489502Y-78397888D01*
X184495908Y-78457478D01*
X184495909Y-78457484D01*
X184546202Y-78592329D01*
X184546204Y-78592333D01*
X184632452Y-78707544D01*
X184632455Y-78707547D01*
X184747666Y-78793795D01*
X184747670Y-78793797D01*
X184882517Y-78844091D01*
X184942114Y-78850499D01*
X184942118Y-78850499D01*
X184942127Y-78850500D01*
X186737872Y-78850499D01*
X186797483Y-78844091D01*
X186893447Y-78808298D01*
X186932329Y-78793797D01*
X186932333Y-78793795D01*
X187027252Y-78722738D01*
X187047546Y-78707546D01*
X187133796Y-78592331D01*
X187133797Y-78592329D01*
X187133798Y-78592327D01*
X187169215Y-78497367D01*
X187213953Y-78434540D01*
X187284110Y-78402498D01*
X187360889Y-78409829D01*
X187414180Y-78444076D01*
X187500208Y-78530104D01*
X187672184Y-78655051D01*
X187861588Y-78751557D01*
X188063757Y-78817246D01*
X188273713Y-78850500D01*
X188273718Y-78850500D01*
X188486282Y-78850500D01*
X188486287Y-78850500D01*
X188696243Y-78817246D01*
X188898412Y-78751557D01*
X189087816Y-78655051D01*
X189259792Y-78530104D01*
X189410104Y-78379792D01*
X189529456Y-78215517D01*
X189589396Y-78166979D01*
X189665574Y-78154913D01*
X189737580Y-78182553D01*
X189770544Y-78215517D01*
X189889896Y-78379792D01*
X190040208Y-78530104D01*
X190212184Y-78655051D01*
X190401588Y-78751557D01*
X190603757Y-78817246D01*
X190813713Y-78850500D01*
X190813718Y-78850500D01*
X191026282Y-78850500D01*
X191026287Y-78850500D01*
X191202192Y-78822639D01*
X191278897Y-78830702D01*
X191341295Y-78876036D01*
X191372666Y-78946496D01*
X191374500Y-78969805D01*
X191374500Y-81679191D01*
X191354538Y-81753691D01*
X191330859Y-81784550D01*
X176972045Y-96143363D01*
X176905250Y-96181927D01*
X176828122Y-96181927D01*
X176779108Y-96158549D01*
X176681610Y-96087713D01*
X176641239Y-96067143D01*
X176499224Y-95994782D01*
X176499220Y-95994780D01*
X176499219Y-95994780D01*
X176304534Y-95931523D01*
X176102352Y-95899500D01*
X175897648Y-95899500D01*
X175752750Y-95922450D01*
X175695465Y-95931523D01*
X175500787Y-95994778D01*
X175500775Y-95994782D01*
X175318387Y-96087714D01*
X175152787Y-96208028D01*
X175152779Y-96208035D01*
X175008035Y-96352779D01*
X175008028Y-96352787D01*
X174887714Y-96518387D01*
X174794782Y-96700775D01*
X174794778Y-96700787D01*
X174780327Y-96745264D01*
X174731523Y-96895466D01*
X174708049Y-97043678D01*
X174705652Y-97058809D01*
X174674281Y-97129269D01*
X174611883Y-97174604D01*
X174558486Y-97184500D01*
X169869808Y-97184500D01*
X169795308Y-97164538D01*
X169740770Y-97110000D01*
X169720808Y-97035500D01*
X169740770Y-96961000D01*
X169764449Y-96930141D01*
X174313008Y-92381582D01*
X179135857Y-87558734D01*
X179204311Y-87456286D01*
X179251463Y-87342452D01*
X179275500Y-87221607D01*
X179275500Y-87098394D01*
X179275500Y-81747170D01*
X179295462Y-81672670D01*
X179336920Y-81626627D01*
X179347532Y-81618916D01*
X179464646Y-81533828D01*
X179603828Y-81394646D01*
X179719524Y-81235405D01*
X179808884Y-81060025D01*
X179869709Y-80872826D01*
X179900500Y-80678417D01*
X179900500Y-79961583D01*
X179869709Y-79767174D01*
X179808884Y-79579975D01*
X179719524Y-79404595D01*
X179603828Y-79245354D01*
X179464646Y-79106172D01*
X179305405Y-78990476D01*
X179222916Y-78948446D01*
X179130036Y-78901121D01*
X179130030Y-78901119D01*
X179130025Y-78901116D01*
X178942826Y-78840291D01*
X178748417Y-78809500D01*
X178551583Y-78809500D01*
X178364757Y-78839090D01*
X178357174Y-78840291D01*
X178191079Y-78894259D01*
X178169975Y-78901116D01*
X178169972Y-78901117D01*
X178169963Y-78901121D01*
X177994598Y-78990474D01*
X177994593Y-78990477D01*
X177835363Y-79106165D01*
X177835352Y-79106174D01*
X177696174Y-79245352D01*
X177696165Y-79245363D01*
X177580477Y-79404593D01*
X177580474Y-79404598D01*
X177491121Y-79579963D01*
X177491117Y-79579972D01*
X177491116Y-79579975D01*
X177430291Y-79767174D01*
X177399500Y-79961583D01*
X177399500Y-80678417D01*
X177430291Y-80872826D01*
X177491116Y-81060025D01*
X177491119Y-81060030D01*
X177491121Y-81060036D01*
X177575179Y-81225010D01*
X177580476Y-81235405D01*
X177696172Y-81394646D01*
X177835354Y-81533828D01*
X177940669Y-81610344D01*
X177963080Y-81626627D01*
X178011618Y-81686567D01*
X178024500Y-81747170D01*
X178024500Y-86839191D01*
X178004538Y-86913691D01*
X177980859Y-86944550D01*
X167784551Y-97140859D01*
X167717756Y-97179423D01*
X167679192Y-97184500D01*
X151130808Y-97184500D01*
X151056308Y-97164538D01*
X151025449Y-97140859D01*
X145989539Y-92104949D01*
X145985860Y-92101270D01*
X145985858Y-92101267D01*
X145898733Y-92014142D01*
X145847509Y-91979915D01*
X145839660Y-91974670D01*
X145796290Y-91945690D01*
X145796287Y-91945688D01*
X145759555Y-91930474D01*
X145715792Y-91912347D01*
X145682452Y-91898537D01*
X145682450Y-91898536D01*
X145622029Y-91886518D01*
X145622029Y-91886517D01*
X145561608Y-91874500D01*
X145561607Y-91874500D01*
X145561606Y-91874500D01*
X141034722Y-91874500D01*
X140911509Y-91874500D01*
X140911508Y-91874500D01*
X140851086Y-91886517D01*
X140851087Y-91886518D01*
X140790665Y-91898536D01*
X140790663Y-91898537D01*
X140676834Y-91945686D01*
X140676822Y-91945693D01*
X140574386Y-92014139D01*
X140574379Y-92014145D01*
X140487255Y-92101270D01*
X135277667Y-97310859D01*
X135210872Y-97349423D01*
X135172308Y-97354500D01*
X130908300Y-97354500D01*
X130833800Y-97334538D01*
X130779262Y-97280000D01*
X130775546Y-97273156D01*
X130775051Y-97272184D01*
X130736571Y-97219220D01*
X130650109Y-97100214D01*
X130650102Y-97100206D01*
X130499793Y-96949897D01*
X130499792Y-96949896D01*
X130335517Y-96830544D01*
X130286979Y-96770604D01*
X130274913Y-96694426D01*
X130302553Y-96622420D01*
X130335517Y-96589456D01*
X130346582Y-96581417D01*
X130499792Y-96470104D01*
X130650104Y-96319792D01*
X130775051Y-96147816D01*
X130871557Y-95958412D01*
X130937246Y-95756243D01*
X130970500Y-95546287D01*
X130970500Y-95333713D01*
X130937246Y-95123757D01*
X130871557Y-94921588D01*
X130775051Y-94732184D01*
X130650104Y-94560208D01*
X130499792Y-94409896D01*
X130335517Y-94290544D01*
X130286979Y-94230604D01*
X130274913Y-94154426D01*
X130302553Y-94082420D01*
X130335517Y-94049456D01*
X130342519Y-94044368D01*
X130499792Y-93930104D01*
X130650104Y-93779792D01*
X130775051Y-93607816D01*
X130871557Y-93418412D01*
X130937246Y-93216243D01*
X130970500Y-93006287D01*
X130970500Y-92793713D01*
X130937246Y-92583757D01*
X130871557Y-92381588D01*
X130775051Y-92192184D01*
X130768928Y-92183757D01*
X130750283Y-92158093D01*
X130650104Y-92020208D01*
X130499792Y-91869896D01*
X130335517Y-91750544D01*
X130286979Y-91690604D01*
X130274913Y-91614426D01*
X130302553Y-91542420D01*
X130335517Y-91509456D01*
X130342519Y-91504368D01*
X130499792Y-91390104D01*
X130650104Y-91239792D01*
X130775051Y-91067816D01*
X130871557Y-90878412D01*
X130937246Y-90676243D01*
X130970500Y-90466287D01*
X130970500Y-90253713D01*
X130937246Y-90043757D01*
X130936914Y-90042737D01*
X130936890Y-90042277D01*
X130935881Y-90038073D01*
X130936660Y-90037885D01*
X130932873Y-89965718D01*
X130967884Y-89896994D01*
X130973241Y-89891347D01*
X134714729Y-86149860D01*
X134714733Y-86149858D01*
X134801858Y-86062733D01*
X134870311Y-85960286D01*
X134870312Y-85960285D01*
X134878428Y-85940688D01*
X134910725Y-85892349D01*
X136820960Y-83982114D01*
X158649500Y-83982114D01*
X158649500Y-85777863D01*
X158649502Y-85777888D01*
X158655908Y-85837478D01*
X158655909Y-85837484D01*
X158706202Y-85972329D01*
X158706204Y-85972333D01*
X158792452Y-86087544D01*
X158792455Y-86087547D01*
X158907666Y-86173795D01*
X158907668Y-86173795D01*
X158907669Y-86173796D01*
X159002633Y-86209215D01*
X159065460Y-86253953D01*
X159097501Y-86324111D01*
X159090170Y-86400890D01*
X159055923Y-86454179D01*
X158969904Y-86540198D01*
X158969895Y-86540209D01*
X158844950Y-86712181D01*
X158844950Y-86712182D01*
X158748446Y-86901582D01*
X158748441Y-86901594D01*
X158682754Y-87103756D01*
X158681419Y-87112184D01*
X158649500Y-87313713D01*
X158649500Y-87526287D01*
X158682754Y-87736243D01*
X158748443Y-87938412D01*
X158748446Y-87938417D01*
X158844950Y-88127817D01*
X158844950Y-88127818D01*
X158874663Y-88168714D01*
X158969896Y-88299792D01*
X159120208Y-88450104D01*
X159198844Y-88507236D01*
X159284482Y-88569456D01*
X159333020Y-88629396D01*
X159345086Y-88705575D01*
X159317446Y-88777580D01*
X159284482Y-88810544D01*
X159120209Y-88929895D01*
X159120206Y-88929897D01*
X158969897Y-89080206D01*
X158969895Y-89080209D01*
X158844950Y-89252181D01*
X158844950Y-89252182D01*
X158748446Y-89441582D01*
X158748441Y-89441594D01*
X158682754Y-89643756D01*
X158681419Y-89652184D01*
X158649500Y-89853713D01*
X158649500Y-90066287D01*
X158682754Y-90276243D01*
X158748443Y-90478412D01*
X158838625Y-90655405D01*
X158844950Y-90667817D01*
X158844950Y-90667818D01*
X158869341Y-90701389D01*
X158969896Y-90839792D01*
X159120208Y-90990104D01*
X159138425Y-91003339D01*
X159284482Y-91109456D01*
X159333020Y-91169396D01*
X159345086Y-91245575D01*
X159317446Y-91317580D01*
X159284482Y-91350544D01*
X159120209Y-91469895D01*
X159120206Y-91469897D01*
X158969897Y-91620206D01*
X158969895Y-91620209D01*
X158844950Y-91792181D01*
X158844950Y-91792182D01*
X158748446Y-91981582D01*
X158748441Y-91981594D01*
X158682754Y-92183756D01*
X158681419Y-92192184D01*
X158649500Y-92393713D01*
X158649500Y-92606287D01*
X158682754Y-92816243D01*
X158748443Y-93018412D01*
X158825243Y-93169141D01*
X158844950Y-93207817D01*
X158844950Y-93207818D01*
X158906711Y-93292825D01*
X158969896Y-93379792D01*
X159120208Y-93530104D01*
X159292184Y-93655051D01*
X159481588Y-93751557D01*
X159683757Y-93817246D01*
X159893713Y-93850500D01*
X159893718Y-93850500D01*
X160106282Y-93850500D01*
X160106287Y-93850500D01*
X160316243Y-93817246D01*
X160518412Y-93751557D01*
X160707816Y-93655051D01*
X160879792Y-93530104D01*
X161030104Y-93379792D01*
X161155051Y-93207816D01*
X161251557Y-93018412D01*
X161317246Y-92816243D01*
X161350500Y-92606287D01*
X161350500Y-92393713D01*
X161317246Y-92183757D01*
X161251557Y-91981588D01*
X161155051Y-91792184D01*
X161030104Y-91620208D01*
X160879792Y-91469896D01*
X160715517Y-91350544D01*
X160666979Y-91290604D01*
X160654913Y-91214426D01*
X160682553Y-91142420D01*
X160715517Y-91109456D01*
X160722519Y-91104368D01*
X160879792Y-90990104D01*
X161030104Y-90839792D01*
X161155051Y-90667816D01*
X161251557Y-90478412D01*
X161317246Y-90276243D01*
X161350500Y-90066287D01*
X161350500Y-89853713D01*
X161317246Y-89643757D01*
X161251557Y-89441588D01*
X161155051Y-89252184D01*
X161030104Y-89080208D01*
X160879792Y-88929896D01*
X160736044Y-88825458D01*
X160715517Y-88810544D01*
X160666979Y-88750604D01*
X160654913Y-88674426D01*
X160682553Y-88602420D01*
X160715517Y-88569456D01*
X160722519Y-88564368D01*
X160879792Y-88450104D01*
X161030104Y-88299792D01*
X161155051Y-88127816D01*
X161251557Y-87938412D01*
X161317246Y-87736243D01*
X161350500Y-87526287D01*
X161350500Y-87313713D01*
X161317246Y-87103757D01*
X161251557Y-86901588D01*
X161155051Y-86712184D01*
X161030104Y-86540208D01*
X160944075Y-86454179D01*
X160905512Y-86387385D01*
X160905512Y-86310257D01*
X160944076Y-86243462D01*
X160997366Y-86209215D01*
X161028278Y-86197685D01*
X161092327Y-86173798D01*
X161092333Y-86173795D01*
X161149938Y-86130671D01*
X161207546Y-86087546D01*
X161250671Y-86029938D01*
X161293795Y-85972333D01*
X161293797Y-85972329D01*
X161323628Y-85892346D01*
X161344091Y-85837483D01*
X161348292Y-85798412D01*
X161350499Y-85777885D01*
X161350499Y-85777882D01*
X161350500Y-85777873D01*
X161350499Y-83982128D01*
X161344091Y-83922517D01*
X161325539Y-83872777D01*
X161293797Y-83787670D01*
X161293795Y-83787666D01*
X161207547Y-83672455D01*
X161207544Y-83672452D01*
X161092333Y-83586204D01*
X161092329Y-83586202D01*
X160957482Y-83535908D01*
X160897876Y-83529500D01*
X159102136Y-83529500D01*
X159102111Y-83529502D01*
X159042521Y-83535908D01*
X159042515Y-83535909D01*
X158907670Y-83586202D01*
X158907666Y-83586204D01*
X158792455Y-83672452D01*
X158792452Y-83672455D01*
X158706204Y-83787666D01*
X158706202Y-83787670D01*
X158655908Y-83922517D01*
X158649500Y-83982114D01*
X136820960Y-83982114D01*
X139995143Y-80807932D01*
X140061936Y-80769370D01*
X140139064Y-80769370D01*
X140205859Y-80807934D01*
X140244423Y-80874729D01*
X140249500Y-80913293D01*
X140249500Y-81310008D01*
X140253530Y-81349456D01*
X140260001Y-81412798D01*
X140278956Y-81470000D01*
X140315186Y-81579334D01*
X140407289Y-81728655D01*
X140531345Y-81852711D01*
X140680666Y-81944814D01*
X140847203Y-81999999D01*
X140949992Y-82010500D01*
X140949996Y-82010500D01*
X142050004Y-82010500D01*
X142050008Y-82010500D01*
X142152797Y-81999999D01*
X142319334Y-81944814D01*
X142468655Y-81852711D01*
X142592711Y-81728655D01*
X142684814Y-81579334D01*
X142739999Y-81412797D01*
X142750500Y-81310008D01*
X142750500Y-79938500D01*
X142770462Y-79864000D01*
X142825000Y-79809462D01*
X142899500Y-79789500D01*
X143130807Y-79789500D01*
X143205307Y-79809462D01*
X143259845Y-79864000D01*
X143279807Y-79938500D01*
X143277973Y-79961808D01*
X143249500Y-80141583D01*
X143249500Y-80858417D01*
X143280291Y-81052826D01*
X143341116Y-81240025D01*
X143341119Y-81240030D01*
X143341121Y-81240036D01*
X143399724Y-81355051D01*
X143430476Y-81415405D01*
X143546172Y-81574646D01*
X143685354Y-81713828D01*
X143844595Y-81829524D01*
X144019975Y-81918884D01*
X144207174Y-81979709D01*
X144401583Y-82010500D01*
X144401588Y-82010500D01*
X144598412Y-82010500D01*
X144598417Y-82010500D01*
X144792826Y-81979709D01*
X144980025Y-81918884D01*
X145155405Y-81829524D01*
X145314646Y-81713828D01*
X145453828Y-81574646D01*
X145569524Y-81415405D01*
X145658884Y-81240025D01*
X145719709Y-81052826D01*
X145750500Y-80858417D01*
X145750500Y-80141583D01*
X145722027Y-79961808D01*
X145723269Y-79949983D01*
X145720193Y-79938500D01*
X145727242Y-79912190D01*
X145730090Y-79885102D01*
X145737077Y-79875484D01*
X145740155Y-79864000D01*
X145759416Y-79844738D01*
X145775425Y-79822705D01*
X145786285Y-79817869D01*
X145794693Y-79809462D01*
X145821002Y-79802412D01*
X145845885Y-79791334D01*
X145869193Y-79789500D01*
X146130807Y-79789500D01*
X146205307Y-79809462D01*
X146259845Y-79864000D01*
X146279807Y-79938500D01*
X146277973Y-79961808D01*
X146249500Y-80141583D01*
X146249500Y-80858417D01*
X146280291Y-81052826D01*
X146341116Y-81240025D01*
X146341119Y-81240030D01*
X146341121Y-81240036D01*
X146399724Y-81355051D01*
X146430476Y-81415405D01*
X146546172Y-81574646D01*
X146685354Y-81713828D01*
X146844595Y-81829524D01*
X147019975Y-81918884D01*
X147207174Y-81979709D01*
X147401583Y-82010500D01*
X147401588Y-82010500D01*
X147598412Y-82010500D01*
X147598417Y-82010500D01*
X147792826Y-81979709D01*
X147980025Y-81918884D01*
X148155405Y-81829524D01*
X148314646Y-81713828D01*
X148453828Y-81574646D01*
X148569524Y-81415405D01*
X148658884Y-81240025D01*
X148719709Y-81052826D01*
X148750500Y-80858417D01*
X148750500Y-80141583D01*
X148722027Y-79961808D01*
X148723269Y-79949983D01*
X148720193Y-79938500D01*
X148727242Y-79912190D01*
X148730090Y-79885102D01*
X148737077Y-79875484D01*
X148740155Y-79864000D01*
X148759416Y-79844738D01*
X148775425Y-79822705D01*
X148786285Y-79817869D01*
X148794693Y-79809462D01*
X148821002Y-79802412D01*
X148845885Y-79791334D01*
X148869193Y-79789500D01*
X149130807Y-79789500D01*
X149205307Y-79809462D01*
X149259845Y-79864000D01*
X149279807Y-79938500D01*
X149277973Y-79961808D01*
X149249500Y-80141583D01*
X149249500Y-80858417D01*
X149280291Y-81052826D01*
X149341116Y-81240025D01*
X149341119Y-81240030D01*
X149341121Y-81240036D01*
X149399724Y-81355051D01*
X149430476Y-81415405D01*
X149546172Y-81574646D01*
X149685354Y-81713828D01*
X149844595Y-81829524D01*
X150019975Y-81918884D01*
X150207174Y-81979709D01*
X150401583Y-82010500D01*
X150401588Y-82010500D01*
X150598412Y-82010500D01*
X150598417Y-82010500D01*
X150792826Y-81979709D01*
X150980025Y-81918884D01*
X151155405Y-81829524D01*
X151314646Y-81713828D01*
X151453828Y-81574646D01*
X151569524Y-81415405D01*
X151658884Y-81240025D01*
X151719709Y-81052826D01*
X151750500Y-80858417D01*
X151750500Y-80141583D01*
X151726919Y-79992698D01*
X151734982Y-79915996D01*
X151780317Y-79853598D01*
X151850777Y-79822227D01*
X151927482Y-79830290D01*
X151979444Y-79864034D01*
X152205859Y-80090449D01*
X152244423Y-80157244D01*
X152249500Y-80195808D01*
X152249500Y-80858417D01*
X152280291Y-81052826D01*
X152341116Y-81240025D01*
X152341119Y-81240030D01*
X152341121Y-81240036D01*
X152399724Y-81355051D01*
X152430476Y-81415405D01*
X152546172Y-81574646D01*
X152685354Y-81713828D01*
X152844595Y-81829524D01*
X153019975Y-81918884D01*
X153207174Y-81979709D01*
X153401583Y-82010500D01*
X153401588Y-82010500D01*
X153598412Y-82010500D01*
X153598417Y-82010500D01*
X153792826Y-81979709D01*
X153980025Y-81918884D01*
X154155405Y-81829524D01*
X154314646Y-81713828D01*
X154453828Y-81574646D01*
X154569524Y-81415405D01*
X154658884Y-81240025D01*
X154719709Y-81052826D01*
X154750500Y-80858417D01*
X154750500Y-80141583D01*
X154719709Y-79947174D01*
X154658884Y-79759975D01*
X154569524Y-79584595D01*
X154515321Y-79509992D01*
X165399500Y-79509992D01*
X165399500Y-81130008D01*
X165402307Y-81157482D01*
X165410001Y-81232798D01*
X165429728Y-81292329D01*
X165463629Y-81394636D01*
X165465187Y-81399336D01*
X165545298Y-81529215D01*
X165557289Y-81548655D01*
X165681345Y-81672711D01*
X165830666Y-81764814D01*
X165997203Y-81819999D01*
X166099992Y-81830500D01*
X166099996Y-81830500D01*
X167200004Y-81830500D01*
X167200008Y-81830500D01*
X167302797Y-81819999D01*
X167469334Y-81764814D01*
X167618655Y-81672711D01*
X167742711Y-81548655D01*
X167834814Y-81399334D01*
X167889999Y-81232797D01*
X167900500Y-81130008D01*
X167900500Y-79961583D01*
X168399500Y-79961583D01*
X168399500Y-80678417D01*
X168430291Y-80872826D01*
X168491116Y-81060025D01*
X168491119Y-81060030D01*
X168491121Y-81060036D01*
X168575179Y-81225010D01*
X168580476Y-81235405D01*
X168696172Y-81394646D01*
X168835354Y-81533828D01*
X168994595Y-81649524D01*
X169169975Y-81738884D01*
X169357174Y-81799709D01*
X169551583Y-81830500D01*
X169551588Y-81830500D01*
X169748412Y-81830500D01*
X169748417Y-81830500D01*
X169942826Y-81799709D01*
X170130025Y-81738884D01*
X170305405Y-81649524D01*
X170464646Y-81533828D01*
X170603828Y-81394646D01*
X170719524Y-81235405D01*
X170808884Y-81060025D01*
X170869709Y-80872826D01*
X170900500Y-80678417D01*
X170900500Y-79961583D01*
X171399500Y-79961583D01*
X171399500Y-80678417D01*
X171430291Y-80872826D01*
X171491116Y-81060025D01*
X171491119Y-81060030D01*
X171491121Y-81060036D01*
X171575179Y-81225010D01*
X171580476Y-81235405D01*
X171696172Y-81394646D01*
X171835354Y-81533828D01*
X171994595Y-81649524D01*
X172169975Y-81738884D01*
X172357174Y-81799709D01*
X172551583Y-81830500D01*
X172551588Y-81830500D01*
X172748412Y-81830500D01*
X172748417Y-81830500D01*
X172942826Y-81799709D01*
X173130025Y-81738884D01*
X173305405Y-81649524D01*
X173464646Y-81533828D01*
X173603828Y-81394646D01*
X173719524Y-81235405D01*
X173808884Y-81060025D01*
X173869709Y-80872826D01*
X173900500Y-80678417D01*
X173900500Y-79961583D01*
X174399500Y-79961583D01*
X174399500Y-80678417D01*
X174430291Y-80872826D01*
X174491116Y-81060025D01*
X174491119Y-81060030D01*
X174491121Y-81060036D01*
X174575179Y-81225010D01*
X174580476Y-81235405D01*
X174696172Y-81394646D01*
X174835354Y-81533828D01*
X174994595Y-81649524D01*
X175169975Y-81738884D01*
X175357174Y-81799709D01*
X175551583Y-81830500D01*
X175551588Y-81830500D01*
X175748412Y-81830500D01*
X175748417Y-81830500D01*
X175942826Y-81799709D01*
X176130025Y-81738884D01*
X176305405Y-81649524D01*
X176464646Y-81533828D01*
X176603828Y-81394646D01*
X176719524Y-81235405D01*
X176808884Y-81060025D01*
X176869709Y-80872826D01*
X176900500Y-80678417D01*
X176900500Y-79961583D01*
X176869709Y-79767174D01*
X176808884Y-79579975D01*
X176719524Y-79404595D01*
X176603828Y-79245354D01*
X176464646Y-79106172D01*
X176305405Y-78990476D01*
X176222916Y-78948446D01*
X176130036Y-78901121D01*
X176130030Y-78901119D01*
X176130025Y-78901116D01*
X175942826Y-78840291D01*
X175748417Y-78809500D01*
X175551583Y-78809500D01*
X175364757Y-78839090D01*
X175357174Y-78840291D01*
X175191079Y-78894259D01*
X175169975Y-78901116D01*
X175169972Y-78901117D01*
X175169963Y-78901121D01*
X174994598Y-78990474D01*
X174994593Y-78990477D01*
X174835363Y-79106165D01*
X174835352Y-79106174D01*
X174696174Y-79245352D01*
X174696165Y-79245363D01*
X174580477Y-79404593D01*
X174580474Y-79404598D01*
X174491121Y-79579963D01*
X174491117Y-79579972D01*
X174491116Y-79579975D01*
X174430291Y-79767174D01*
X174399500Y-79961583D01*
X173900500Y-79961583D01*
X173869709Y-79767174D01*
X173808884Y-79579975D01*
X173719524Y-79404595D01*
X173603828Y-79245354D01*
X173464646Y-79106172D01*
X173305405Y-78990476D01*
X173222916Y-78948446D01*
X173130036Y-78901121D01*
X173130030Y-78901119D01*
X173130025Y-78901116D01*
X172942826Y-78840291D01*
X172748417Y-78809500D01*
X172551583Y-78809500D01*
X172364757Y-78839090D01*
X172357174Y-78840291D01*
X172191079Y-78894259D01*
X172169975Y-78901116D01*
X172169972Y-78901117D01*
X172169963Y-78901121D01*
X171994598Y-78990474D01*
X171994593Y-78990477D01*
X171835363Y-79106165D01*
X171835352Y-79106174D01*
X171696174Y-79245352D01*
X171696165Y-79245363D01*
X171580477Y-79404593D01*
X171580474Y-79404598D01*
X171491121Y-79579963D01*
X171491117Y-79579972D01*
X171491116Y-79579975D01*
X171430291Y-79767174D01*
X171399500Y-79961583D01*
X170900500Y-79961583D01*
X170869709Y-79767174D01*
X170808884Y-79579975D01*
X170719524Y-79404595D01*
X170603828Y-79245354D01*
X170464646Y-79106172D01*
X170305405Y-78990476D01*
X170222916Y-78948446D01*
X170130036Y-78901121D01*
X170130030Y-78901119D01*
X170130025Y-78901116D01*
X169942826Y-78840291D01*
X169748417Y-78809500D01*
X169551583Y-78809500D01*
X169364757Y-78839090D01*
X169357174Y-78840291D01*
X169191079Y-78894259D01*
X169169975Y-78901116D01*
X169169972Y-78901117D01*
X169169963Y-78901121D01*
X168994598Y-78990474D01*
X168994593Y-78990477D01*
X168835363Y-79106165D01*
X168835352Y-79106174D01*
X168696174Y-79245352D01*
X168696165Y-79245363D01*
X168580477Y-79404593D01*
X168580474Y-79404598D01*
X168491121Y-79579963D01*
X168491117Y-79579972D01*
X168491116Y-79579975D01*
X168430291Y-79767174D01*
X168399500Y-79961583D01*
X167900500Y-79961583D01*
X167900500Y-79509992D01*
X167889999Y-79407203D01*
X167834814Y-79240666D01*
X167742711Y-79091345D01*
X167618655Y-78967289D01*
X167519622Y-78906204D01*
X167469336Y-78875187D01*
X167469335Y-78875186D01*
X167469334Y-78875186D01*
X167343981Y-78833648D01*
X167302798Y-78820001D01*
X167302799Y-78820001D01*
X167268534Y-78816500D01*
X167200008Y-78809500D01*
X166099992Y-78809500D01*
X166031466Y-78816500D01*
X165997201Y-78820001D01*
X165830663Y-78875187D01*
X165681344Y-78967289D01*
X165557289Y-79091344D01*
X165465187Y-79240663D01*
X165410001Y-79407201D01*
X165410001Y-79407203D01*
X165399500Y-79509992D01*
X154515321Y-79509992D01*
X154453828Y-79425354D01*
X154314646Y-79286172D01*
X154155405Y-79170476D01*
X154141166Y-79163221D01*
X153980036Y-79081121D01*
X153980030Y-79081119D01*
X153980025Y-79081116D01*
X153792826Y-79020291D01*
X153598417Y-78989500D01*
X153401583Y-78989500D01*
X153268682Y-79010549D01*
X153207178Y-79020290D01*
X153207175Y-79020290D01*
X153207174Y-79020291D01*
X153177724Y-79029860D01*
X153065852Y-79066209D01*
X152988829Y-79070245D01*
X152920108Y-79035229D01*
X152914450Y-79029860D01*
X152653666Y-78769076D01*
X152649860Y-78765270D01*
X152649858Y-78765267D01*
X152562733Y-78678142D01*
X152508055Y-78641607D01*
X152500358Y-78636464D01*
X152500356Y-78636462D01*
X152460290Y-78609690D01*
X152460287Y-78609688D01*
X152418386Y-78592333D01*
X152379792Y-78576347D01*
X152346452Y-78562537D01*
X152346450Y-78562536D01*
X152286029Y-78550518D01*
X152286029Y-78550517D01*
X152225608Y-78538500D01*
X152225607Y-78538500D01*
X152225606Y-78538500D01*
X140816093Y-78538500D01*
X140692879Y-78538500D01*
X140692878Y-78538500D01*
X140632456Y-78550517D01*
X140632457Y-78550518D01*
X140572035Y-78562536D01*
X140572033Y-78562537D01*
X140458204Y-78609686D01*
X140458192Y-78609693D01*
X140355756Y-78678139D01*
X140355749Y-78678145D01*
X137089083Y-81944812D01*
X133917270Y-85116625D01*
X133917267Y-85116628D01*
X133830142Y-85203753D01*
X133795915Y-85254976D01*
X133761688Y-85306200D01*
X133761686Y-85306203D01*
X133761684Y-85306208D01*
X133753566Y-85325806D01*
X133721270Y-85374138D01*
X131224859Y-87870550D01*
X131158064Y-87909114D01*
X131080936Y-87909114D01*
X131014141Y-87870550D01*
X130975577Y-87803755D01*
X130970500Y-87765191D01*
X130970500Y-87713717D01*
X130970500Y-87713713D01*
X130937246Y-87503757D01*
X130871557Y-87301588D01*
X130775051Y-87112184D01*
X130768928Y-87103757D01*
X130750283Y-87078093D01*
X130650104Y-86940208D01*
X130499792Y-86789896D01*
X130392826Y-86712181D01*
X130335091Y-86670234D01*
X130286553Y-86610294D01*
X130274487Y-86534115D01*
X130302127Y-86462110D01*
X130335092Y-86429146D01*
X130499459Y-86309727D01*
X130499467Y-86309720D01*
X130649720Y-86159467D01*
X130649722Y-86159464D01*
X130774621Y-85987556D01*
X130774621Y-85987555D01*
X130871093Y-85798222D01*
X130936755Y-85596136D01*
X130936757Y-85596128D01*
X130947231Y-85530000D01*
X130053012Y-85530000D01*
X130085925Y-85472993D01*
X130120000Y-85345826D01*
X130120000Y-85214174D01*
X130085925Y-85087007D01*
X130053012Y-85030000D01*
X130947230Y-85030000D01*
X130936757Y-84963871D01*
X130936755Y-84963863D01*
X130871093Y-84761777D01*
X130774621Y-84572444D01*
X130774621Y-84572443D01*
X130649722Y-84400535D01*
X130649720Y-84400532D01*
X130499467Y-84250279D01*
X130499464Y-84250277D01*
X130335091Y-84130853D01*
X130286553Y-84070913D01*
X130274487Y-83994734D01*
X130302127Y-83922729D01*
X130335092Y-83889765D01*
X130499785Y-83770109D01*
X130499784Y-83770109D01*
X130499792Y-83770104D01*
X130650104Y-83619792D01*
X130775051Y-83447816D01*
X130871557Y-83258412D01*
X130937246Y-83056243D01*
X130970500Y-82846287D01*
X130970500Y-82633713D01*
X130937246Y-82423757D01*
X130871557Y-82221588D01*
X130775051Y-82032184D01*
X130650104Y-81860208D01*
X130499792Y-81709896D01*
X130335517Y-81590544D01*
X130286979Y-81530604D01*
X130274913Y-81454426D01*
X130302553Y-81382420D01*
X130335517Y-81349456D01*
X130342519Y-81344368D01*
X130499792Y-81230104D01*
X130650104Y-81079792D01*
X130775051Y-80907816D01*
X130871557Y-80718412D01*
X130937246Y-80516243D01*
X130970500Y-80306287D01*
X130970500Y-80093713D01*
X130937246Y-79883757D01*
X130871557Y-79681588D01*
X130775051Y-79492184D01*
X130650104Y-79320208D01*
X130499792Y-79169896D01*
X130327816Y-79044949D01*
X130138412Y-78948443D01*
X129936243Y-78882754D01*
X129726287Y-78849500D01*
X129513713Y-78849500D01*
X129338749Y-78877211D01*
X129303756Y-78882754D01*
X129107580Y-78946496D01*
X129101588Y-78948443D01*
X129101582Y-78948445D01*
X129101582Y-78948446D01*
X128912182Y-79044950D01*
X128912181Y-79044950D01*
X128740209Y-79169895D01*
X128740206Y-79169897D01*
X128589897Y-79320206D01*
X128589895Y-79320209D01*
X128464950Y-79492181D01*
X128464950Y-79492182D01*
X128368446Y-79681582D01*
X128368441Y-79681594D01*
X128320127Y-79830290D01*
X128302754Y-79883757D01*
X128269500Y-80093713D01*
X115730499Y-80093713D01*
X115730499Y-79302128D01*
X115724091Y-79242517D01*
X115697222Y-79170477D01*
X115673797Y-79107670D01*
X115673795Y-79107666D01*
X115587547Y-78992455D01*
X115587544Y-78992452D01*
X115472333Y-78906204D01*
X115472329Y-78906202D01*
X115337482Y-78855908D01*
X115277876Y-78849500D01*
X113482136Y-78849500D01*
X113482111Y-78849502D01*
X113422521Y-78855908D01*
X113422515Y-78855909D01*
X113287670Y-78906202D01*
X113287666Y-78906204D01*
X113172455Y-78992452D01*
X113172452Y-78992455D01*
X113086204Y-79107666D01*
X113086202Y-79107670D01*
X113035908Y-79242517D01*
X113029500Y-79302114D01*
X113029500Y-81097863D01*
X113029502Y-81097888D01*
X113035908Y-81157478D01*
X113035909Y-81157484D01*
X113086202Y-81292329D01*
X113086204Y-81292333D01*
X113172452Y-81407544D01*
X113172455Y-81407547D01*
X113287666Y-81493795D01*
X113287668Y-81493795D01*
X113287669Y-81493796D01*
X113382633Y-81529215D01*
X113445460Y-81573953D01*
X113477501Y-81644111D01*
X113470170Y-81720890D01*
X113435923Y-81774179D01*
X113349904Y-81860198D01*
X113349895Y-81860209D01*
X113224950Y-82032181D01*
X113224950Y-82032182D01*
X113224949Y-82032184D01*
X113128443Y-82221588D01*
X113062754Y-82423757D01*
X113029500Y-82633713D01*
X113029500Y-82846287D01*
X113062754Y-83056243D01*
X113128443Y-83258412D01*
X113224949Y-83447816D01*
X113349896Y-83619792D01*
X113500208Y-83770104D01*
X113524386Y-83787670D01*
X113664482Y-83889456D01*
X113713020Y-83949396D01*
X113725086Y-84025575D01*
X113697446Y-84097580D01*
X113664482Y-84130544D01*
X113500209Y-84249895D01*
X113500206Y-84249897D01*
X113349897Y-84400206D01*
X113349895Y-84400209D01*
X113224950Y-84572181D01*
X113224950Y-84572182D01*
X113128446Y-84761582D01*
X113128441Y-84761594D01*
X113090001Y-84879901D01*
X113062754Y-84963757D01*
X113029500Y-85173713D01*
X113029500Y-85386287D01*
X113062754Y-85596243D01*
X113128443Y-85798412D01*
X113224949Y-85987816D01*
X113349896Y-86159792D01*
X113500208Y-86310104D01*
X113578844Y-86367236D01*
X113664482Y-86429456D01*
X113713020Y-86489396D01*
X113725086Y-86565575D01*
X113697446Y-86637580D01*
X113664482Y-86670544D01*
X113500209Y-86789895D01*
X113500206Y-86789897D01*
X113349897Y-86940206D01*
X113349895Y-86940209D01*
X113224950Y-87112181D01*
X113224950Y-87112182D01*
X113128446Y-87301582D01*
X113128441Y-87301594D01*
X113062754Y-87503756D01*
X113056103Y-87545748D01*
X113029500Y-87713713D01*
X113029500Y-87926287D01*
X113062754Y-88136243D01*
X113128443Y-88338412D01*
X113224949Y-88527816D01*
X113349896Y-88699792D01*
X113500208Y-88850104D01*
X113578844Y-88907236D01*
X113664482Y-88969456D01*
X113713020Y-89029396D01*
X113725086Y-89105575D01*
X113697446Y-89177580D01*
X113664482Y-89210544D01*
X113500209Y-89329895D01*
X113500206Y-89329897D01*
X113349897Y-89480206D01*
X113349895Y-89480209D01*
X113224950Y-89652181D01*
X113224950Y-89652182D01*
X113128446Y-89841582D01*
X113128441Y-89841594D01*
X113062754Y-90043756D01*
X113056103Y-90085748D01*
X113029500Y-90253713D01*
X113029500Y-90466287D01*
X113062754Y-90676243D01*
X113128443Y-90878412D01*
X113192096Y-91003339D01*
X113224950Y-91067817D01*
X113224950Y-91067818D01*
X113243035Y-91092710D01*
X113349896Y-91239792D01*
X113500208Y-91390104D01*
X113578844Y-91447236D01*
X113664482Y-91509456D01*
X113713020Y-91569396D01*
X113725086Y-91645575D01*
X113697446Y-91717580D01*
X113664482Y-91750544D01*
X113500209Y-91869895D01*
X113500206Y-91869897D01*
X113349897Y-92020206D01*
X113349895Y-92020209D01*
X113224950Y-92192181D01*
X113224950Y-92192182D01*
X113128446Y-92381582D01*
X113128441Y-92381594D01*
X113062754Y-92583756D01*
X113056103Y-92625748D01*
X113029500Y-92793713D01*
X113029500Y-93006287D01*
X113062754Y-93216243D01*
X113128443Y-93418412D01*
X113159836Y-93480025D01*
X113224950Y-93607817D01*
X113224950Y-93607818D01*
X113259267Y-93655051D01*
X113349896Y-93779792D01*
X113500208Y-93930104D01*
X113532862Y-93953828D01*
X113664482Y-94049456D01*
X113713020Y-94109396D01*
X113725086Y-94185575D01*
X113697446Y-94257580D01*
X113664482Y-94290544D01*
X113500209Y-94409895D01*
X113500206Y-94409897D01*
X113349897Y-94560206D01*
X113349895Y-94560209D01*
X113224950Y-94732181D01*
X113224950Y-94732182D01*
X113224949Y-94732184D01*
X113128443Y-94921588D01*
X113062754Y-95123757D01*
X113029500Y-95333713D01*
X113029500Y-95546287D01*
X113062754Y-95756243D01*
X113128443Y-95958412D01*
X113222680Y-96143363D01*
X113224950Y-96147817D01*
X113224950Y-96147818D01*
X113275161Y-96216928D01*
X113349896Y-96319792D01*
X113500208Y-96470104D01*
X113567022Y-96518647D01*
X113664482Y-96589456D01*
X113713020Y-96649396D01*
X113725086Y-96725575D01*
X113697446Y-96797580D01*
X113664482Y-96830544D01*
X113500209Y-96949895D01*
X113500206Y-96949897D01*
X113349897Y-97100206D01*
X113349895Y-97100209D01*
X113224950Y-97272181D01*
X113224950Y-97272182D01*
X113128446Y-97461582D01*
X113128441Y-97461594D01*
X113085747Y-97592993D01*
X113062754Y-97663757D01*
X113029500Y-97873713D01*
X113029500Y-98086287D01*
X113062754Y-98296243D01*
X113128443Y-98498412D01*
X113224462Y-98686861D01*
X113224950Y-98687817D01*
X113224950Y-98687818D01*
X113242728Y-98712287D01*
X113349896Y-98859792D01*
X113500208Y-99010104D01*
X113578844Y-99067236D01*
X113664482Y-99129456D01*
X113713020Y-99189396D01*
X113725086Y-99265575D01*
X113697446Y-99337580D01*
X113664482Y-99370544D01*
X113500209Y-99489895D01*
X113500206Y-99489897D01*
X113349897Y-99640206D01*
X113349895Y-99640209D01*
X113224950Y-99812181D01*
X113224950Y-99812182D01*
X113128446Y-100001582D01*
X113128441Y-100001594D01*
X113062754Y-100203756D01*
X113060227Y-100219709D01*
X113029500Y-100413713D01*
X113029500Y-100626287D01*
X113062754Y-100836243D01*
X113128443Y-101038412D01*
X113211788Y-101201987D01*
X113224950Y-101227817D01*
X113224950Y-101227818D01*
X113287422Y-101313804D01*
X113349896Y-101399792D01*
X113500208Y-101550104D01*
X113578844Y-101607236D01*
X113664482Y-101669456D01*
X113713020Y-101729396D01*
X113725086Y-101805575D01*
X113697446Y-101877580D01*
X113664482Y-101910544D01*
X113500209Y-102029895D01*
X113500206Y-102029897D01*
X113349897Y-102180206D01*
X113349895Y-102180209D01*
X113224950Y-102352181D01*
X113224950Y-102352182D01*
X113128446Y-102541582D01*
X113128441Y-102541594D01*
X113077146Y-102699464D01*
X113062754Y-102743757D01*
X113029500Y-102953713D01*
X113029500Y-103166287D01*
X113062754Y-103376243D01*
X113128443Y-103578412D01*
X113224949Y-103767816D01*
X113349896Y-103939792D01*
X113500208Y-104090104D01*
X113578844Y-104147236D01*
X113664482Y-104209456D01*
X113713020Y-104269396D01*
X113725086Y-104345575D01*
X113697446Y-104417580D01*
X113664482Y-104450544D01*
X113500209Y-104569895D01*
X113500206Y-104569897D01*
X113349897Y-104720206D01*
X113349895Y-104720209D01*
X113224950Y-104892181D01*
X113224950Y-104892182D01*
X113128446Y-105081582D01*
X113128441Y-105081594D01*
X113062754Y-105283756D01*
X113056103Y-105325748D01*
X113029500Y-105493713D01*
X113029500Y-105706287D01*
X113062754Y-105916243D01*
X113128443Y-106118412D01*
X113224949Y-106307816D01*
X113349896Y-106479792D01*
X113500208Y-106630104D01*
X113510775Y-106637781D01*
X113664482Y-106749456D01*
X113713020Y-106809396D01*
X113725086Y-106885575D01*
X113697446Y-106957580D01*
X113664482Y-106990544D01*
X113500209Y-107109895D01*
X113500206Y-107109897D01*
X113349897Y-107260206D01*
X113349895Y-107260209D01*
X113224950Y-107432181D01*
X113224950Y-107432182D01*
X113128446Y-107621582D01*
X113128441Y-107621594D01*
X113062754Y-107823756D01*
X113058381Y-107851367D01*
X113029500Y-108033713D01*
X113029500Y-108246287D01*
X113062754Y-108456243D01*
X113128443Y-108658412D01*
X113221535Y-108841116D01*
X113224950Y-108847817D01*
X113224950Y-108847818D01*
X113285003Y-108930474D01*
X113349896Y-109019792D01*
X113500208Y-109170104D01*
X113560030Y-109213567D01*
X113664482Y-109289456D01*
X113713020Y-109349396D01*
X113725086Y-109425575D01*
X113697446Y-109497580D01*
X113664482Y-109530544D01*
X113500209Y-109649895D01*
X113500206Y-109649897D01*
X113349897Y-109800206D01*
X113349895Y-109800209D01*
X113224950Y-109972181D01*
X113224950Y-109972182D01*
X113128446Y-110161582D01*
X113128441Y-110161594D01*
X113064137Y-110359502D01*
X113062754Y-110363757D01*
X113029500Y-110573713D01*
X113029500Y-110786287D01*
X113062754Y-110996243D01*
X113128443Y-111198412D01*
X113213779Y-111365894D01*
X113224950Y-111387817D01*
X113224950Y-111387818D01*
X113258326Y-111433756D01*
X113349896Y-111559792D01*
X113500208Y-111710104D01*
X113578844Y-111767236D01*
X113664482Y-111829456D01*
X113713020Y-111889396D01*
X113725086Y-111965575D01*
X113697446Y-112037580D01*
X113664482Y-112070544D01*
X113500209Y-112189895D01*
X113500206Y-112189897D01*
X113349897Y-112340206D01*
X113349895Y-112340209D01*
X113224950Y-112512181D01*
X113224950Y-112512182D01*
X113128446Y-112701582D01*
X113128441Y-112701594D01*
X113062754Y-112903756D01*
X113059236Y-112925968D01*
X113029500Y-113113713D01*
X113029500Y-113326287D01*
X113062754Y-113536243D01*
X113128443Y-113738412D01*
X113224302Y-113926547D01*
X113224950Y-113927817D01*
X113224950Y-113927818D01*
X113256808Y-113971667D01*
X113349896Y-114099792D01*
X113500208Y-114250104D01*
X113566148Y-114298012D01*
X113664482Y-114369456D01*
X113713020Y-114429396D01*
X113725086Y-114505575D01*
X113697446Y-114577580D01*
X113664482Y-114610544D01*
X113500209Y-114729895D01*
X113500206Y-114729897D01*
X113349897Y-114880206D01*
X113349895Y-114880209D01*
X113224950Y-115052181D01*
X113224950Y-115052182D01*
X113128446Y-115241582D01*
X113128441Y-115241594D01*
X113105813Y-115311237D01*
X113062754Y-115443757D01*
X113029500Y-115653713D01*
X113029500Y-115866287D01*
X113062754Y-116076243D01*
X113128443Y-116278412D01*
X113135787Y-116292826D01*
X113224950Y-116467817D01*
X113224950Y-116467818D01*
X113229265Y-116473757D01*
X113349896Y-116639792D01*
X113500208Y-116790104D01*
X113533989Y-116814647D01*
X113664482Y-116909456D01*
X113713020Y-116969396D01*
X113725086Y-117045575D01*
X113697446Y-117117580D01*
X113664482Y-117150544D01*
X113500209Y-117269895D01*
X113500206Y-117269897D01*
X113349897Y-117420206D01*
X113349895Y-117420209D01*
X113224950Y-117592181D01*
X113224950Y-117592182D01*
X113128446Y-117781582D01*
X113128441Y-117781594D01*
X113066438Y-117972420D01*
X113062754Y-117983757D01*
X113029500Y-118193713D01*
X113029500Y-118406287D01*
X113062754Y-118616243D01*
X113128443Y-118818412D01*
X113128446Y-118818417D01*
X113224950Y-119007817D01*
X113224950Y-119007818D01*
X113229265Y-119013757D01*
X113349896Y-119179792D01*
X113500208Y-119330104D01*
X113578844Y-119387236D01*
X113664482Y-119449456D01*
X113713020Y-119509396D01*
X113725086Y-119585575D01*
X113697446Y-119657580D01*
X113664482Y-119690544D01*
X113500209Y-119809895D01*
X113500206Y-119809897D01*
X113349897Y-119960206D01*
X113349895Y-119960209D01*
X113224950Y-120132181D01*
X113224950Y-120132182D01*
X113128446Y-120321582D01*
X113128441Y-120321594D01*
X113062754Y-120523756D01*
X113056719Y-120561859D01*
X113029500Y-120733713D01*
X113029500Y-120946287D01*
X113062754Y-121156243D01*
X113128443Y-121358412D01*
X113224949Y-121547816D01*
X113349896Y-121719792D01*
X113500208Y-121870104D01*
X113543541Y-121901587D01*
X113664482Y-121989456D01*
X113713020Y-122049396D01*
X113725086Y-122125575D01*
X113697446Y-122197580D01*
X113664482Y-122230544D01*
X113500209Y-122349895D01*
X113500206Y-122349897D01*
X113349897Y-122500206D01*
X113349895Y-122500209D01*
X113224950Y-122672181D01*
X113224950Y-122672182D01*
X113128446Y-122861582D01*
X113128441Y-122861594D01*
X113062754Y-123063756D01*
X113061840Y-123069525D01*
X113029500Y-123273713D01*
X113029500Y-123486287D01*
X113062754Y-123696243D01*
X113128443Y-123898412D01*
X113215629Y-124069525D01*
X113224950Y-124087817D01*
X113224950Y-124087818D01*
X113276583Y-124158885D01*
X113349896Y-124259792D01*
X113500208Y-124410104D01*
X113504668Y-124413344D01*
X113664482Y-124529456D01*
X113713020Y-124589396D01*
X113725086Y-124665575D01*
X113697446Y-124737580D01*
X113664482Y-124770544D01*
X113500209Y-124889895D01*
X113500206Y-124889897D01*
X113349897Y-125040206D01*
X113349895Y-125040209D01*
X113224950Y-125212181D01*
X113224950Y-125212182D01*
X113128446Y-125401582D01*
X113128441Y-125401594D01*
X113102954Y-125480036D01*
X113062754Y-125603757D01*
X113029500Y-125813713D01*
X113029500Y-126026287D01*
X113062754Y-126236243D01*
X113128443Y-126438412D01*
X113224949Y-126627816D01*
X113349896Y-126799792D01*
X113500208Y-126950104D01*
X113578844Y-127007236D01*
X113664482Y-127069456D01*
X113713020Y-127129396D01*
X113725086Y-127205575D01*
X113697446Y-127277580D01*
X113664482Y-127310544D01*
X113500209Y-127429895D01*
X113500206Y-127429897D01*
X113349897Y-127580206D01*
X113349895Y-127580209D01*
X113224950Y-127752181D01*
X113224950Y-127752182D01*
X113224949Y-127752184D01*
X113128443Y-127941588D01*
X113062754Y-128143757D01*
X113029500Y-128353713D01*
X113029500Y-128566287D01*
X113062754Y-128776243D01*
X113128443Y-128978412D01*
X113224949Y-129167816D01*
X113349896Y-129339792D01*
X113500208Y-129490104D01*
X113578844Y-129547236D01*
X113664482Y-129609456D01*
X113713020Y-129669396D01*
X113725086Y-129745575D01*
X113697446Y-129817580D01*
X113664482Y-129850544D01*
X113500209Y-129969895D01*
X113500206Y-129969897D01*
X113349897Y-130120206D01*
X113349895Y-130120209D01*
X113224950Y-130292181D01*
X113224950Y-130292182D01*
X113224949Y-130292184D01*
X113128443Y-130481588D01*
X113062754Y-130683757D01*
X113029500Y-130893713D01*
X113029500Y-131106287D01*
X113062754Y-131316243D01*
X113128443Y-131518412D01*
X113224949Y-131707816D01*
X113349896Y-131879792D01*
X113500208Y-132030104D01*
X113578844Y-132087236D01*
X113664482Y-132149456D01*
X113713020Y-132209396D01*
X113725086Y-132285575D01*
X113697446Y-132357580D01*
X113664482Y-132390544D01*
X113541929Y-132479584D01*
X113469924Y-132507224D01*
X113393745Y-132495158D01*
X113348990Y-132464399D01*
X100974390Y-120089800D01*
X100935826Y-120023005D01*
X100935826Y-119945877D01*
X100974387Y-119879086D01*
X101038828Y-119814646D01*
X101154524Y-119655405D01*
X101243884Y-119480025D01*
X101304709Y-119292826D01*
X101335500Y-119098417D01*
X101335500Y-118901583D01*
X101304709Y-118707174D01*
X101243884Y-118519975D01*
X101154524Y-118344595D01*
X101038828Y-118185354D01*
X100899646Y-118046172D01*
X100740405Y-117930476D01*
X100727699Y-117924002D01*
X100565036Y-117841121D01*
X100565030Y-117841119D01*
X100565025Y-117841116D01*
X100377826Y-117780291D01*
X100183417Y-117749500D01*
X99986583Y-117749500D01*
X99792174Y-117780291D01*
X99604975Y-117841116D01*
X99604972Y-117841117D01*
X99604963Y-117841121D01*
X99429598Y-117930474D01*
X99429593Y-117930477D01*
X99270363Y-118046165D01*
X99270352Y-118046174D01*
X99131169Y-118185357D01*
X99024185Y-118332608D01*
X99014945Y-118340089D01*
X99009002Y-118350385D01*
X98985413Y-118364003D01*
X98964245Y-118381146D01*
X98952502Y-118383005D01*
X98942207Y-118388950D01*
X98914970Y-118388950D01*
X98888066Y-118393211D01*
X98876966Y-118388950D01*
X98865079Y-118388950D01*
X98841491Y-118375332D01*
X98816061Y-118365570D01*
X98798284Y-118350387D01*
X98741727Y-118293831D01*
X98719582Y-118263970D01*
X98719378Y-118264107D01*
X98716592Y-118259938D01*
X98715675Y-118258701D01*
X98715312Y-118258022D01*
X98715311Y-118258020D01*
X98646858Y-118155573D01*
X98559733Y-118068448D01*
X98559732Y-118068447D01*
X97759743Y-117268458D01*
X97721179Y-117201663D01*
X97721179Y-117124535D01*
X97759743Y-117057740D01*
X97777508Y-117042566D01*
X97899646Y-116953828D01*
X98038828Y-116814646D01*
X98154524Y-116655405D01*
X98243884Y-116480025D01*
X98304709Y-116292826D01*
X98335500Y-116098417D01*
X98335500Y-115901583D01*
X98304709Y-115707174D01*
X98243884Y-115519975D01*
X98175967Y-115386679D01*
X98159931Y-115311237D01*
X98183765Y-115237884D01*
X98241083Y-115186275D01*
X98316525Y-115170239D01*
X98389878Y-115194073D01*
X98414086Y-115213676D01*
X98817390Y-115616981D01*
X98855954Y-115683776D01*
X98859197Y-115745647D01*
X98855199Y-115770890D01*
X98834500Y-115901583D01*
X98834500Y-116098417D01*
X98865291Y-116292826D01*
X98926116Y-116480025D01*
X98926119Y-116480030D01*
X98926121Y-116480036D01*
X99001585Y-116628143D01*
X99015476Y-116655405D01*
X99131172Y-116814646D01*
X99270354Y-116953828D01*
X99429595Y-117069524D01*
X99604975Y-117158884D01*
X99792174Y-117219709D01*
X99986583Y-117250500D01*
X99986588Y-117250500D01*
X100183412Y-117250500D01*
X100183417Y-117250500D01*
X100377826Y-117219709D01*
X100565025Y-117158884D01*
X100740405Y-117069524D01*
X100899646Y-116953828D01*
X101038828Y-116814646D01*
X101154524Y-116655405D01*
X101243884Y-116480025D01*
X101304709Y-116292826D01*
X101335500Y-116098417D01*
X101335500Y-115901583D01*
X101304709Y-115707174D01*
X101243884Y-115519975D01*
X101154524Y-115344595D01*
X101038828Y-115185354D01*
X100899646Y-115046172D01*
X100740405Y-114930476D01*
X100641748Y-114880208D01*
X100565036Y-114841121D01*
X100565030Y-114841119D01*
X100565025Y-114841116D01*
X100377826Y-114780291D01*
X100183417Y-114749500D01*
X99986583Y-114749500D01*
X99902887Y-114762755D01*
X99830647Y-114774197D01*
X99753942Y-114766134D01*
X99701981Y-114732390D01*
X99520195Y-114550604D01*
X99298675Y-114329085D01*
X99260112Y-114262291D01*
X99260112Y-114185163D01*
X99298676Y-114118368D01*
X99365471Y-114079804D01*
X99442599Y-114079804D01*
X99471679Y-114090967D01*
X99525457Y-114118368D01*
X99604975Y-114158884D01*
X99792174Y-114219709D01*
X99986583Y-114250500D01*
X99986588Y-114250500D01*
X100183412Y-114250500D01*
X100183417Y-114250500D01*
X100377826Y-114219709D01*
X100565025Y-114158884D01*
X100740405Y-114069524D01*
X100899646Y-113953828D01*
X101038828Y-113814646D01*
X101154524Y-113655405D01*
X101243884Y-113480025D01*
X101304709Y-113292826D01*
X101335500Y-113098417D01*
X101335500Y-112901583D01*
X101304709Y-112707174D01*
X101243884Y-112519975D01*
X101154524Y-112344595D01*
X101038828Y-112185354D01*
X100899646Y-112046172D01*
X100740405Y-111930476D01*
X100665853Y-111892490D01*
X100565036Y-111841121D01*
X100565030Y-111841119D01*
X100565025Y-111841116D01*
X100377826Y-111780291D01*
X100183417Y-111749500D01*
X99986583Y-111749500D01*
X99792174Y-111780291D01*
X99640861Y-111829456D01*
X99604975Y-111841116D01*
X99604972Y-111841117D01*
X99604963Y-111841121D01*
X99429598Y-111930474D01*
X99429593Y-111930477D01*
X99270363Y-112046165D01*
X99270352Y-112046174D01*
X99131174Y-112185352D01*
X99131165Y-112185363D01*
X99015477Y-112344593D01*
X99015474Y-112344598D01*
X98926121Y-112519963D01*
X98926117Y-112519972D01*
X98926116Y-112519975D01*
X98865291Y-112707174D01*
X98834500Y-112901583D01*
X98834500Y-113098417D01*
X98865291Y-113292826D01*
X98926116Y-113480025D01*
X98926119Y-113480030D01*
X98926121Y-113480036D01*
X99015473Y-113655400D01*
X99015476Y-113655405D01*
X99064407Y-113722752D01*
X99092047Y-113794758D01*
X99079981Y-113870936D01*
X99031443Y-113930876D01*
X98959437Y-113958516D01*
X98886844Y-113947991D01*
X98881289Y-113945690D01*
X98881286Y-113945688D01*
X98800792Y-113912347D01*
X98767452Y-113898537D01*
X98706599Y-113886433D01*
X98700888Y-113885297D01*
X98700881Y-113885295D01*
X98646607Y-113874500D01*
X98646606Y-113874500D01*
X98286035Y-113874500D01*
X98211535Y-113854538D01*
X98156997Y-113800000D01*
X98137035Y-113725500D01*
X98153275Y-113657855D01*
X98154523Y-113655406D01*
X98154524Y-113655405D01*
X98243884Y-113480025D01*
X98304709Y-113292826D01*
X98335500Y-113098417D01*
X98335500Y-112901583D01*
X98304709Y-112707174D01*
X98243884Y-112519975D01*
X98154524Y-112344595D01*
X98038828Y-112185354D01*
X97899646Y-112046172D01*
X97740405Y-111930476D01*
X97665853Y-111892490D01*
X97565036Y-111841121D01*
X97565030Y-111841119D01*
X97565025Y-111841116D01*
X97377826Y-111780291D01*
X97183417Y-111749500D01*
X96986583Y-111749500D01*
X96792174Y-111780291D01*
X96640861Y-111829456D01*
X96604975Y-111841116D01*
X96604972Y-111841117D01*
X96604963Y-111841121D01*
X96429598Y-111930474D01*
X96429593Y-111930477D01*
X96270363Y-112046165D01*
X96270352Y-112046174D01*
X96131174Y-112185352D01*
X96131165Y-112185363D01*
X96015477Y-112344593D01*
X96015474Y-112344598D01*
X95926121Y-112519963D01*
X95926117Y-112519972D01*
X95926116Y-112519975D01*
X95865291Y-112707174D01*
X95834500Y-112901583D01*
X95834500Y-113098417D01*
X95865291Y-113292826D01*
X95926116Y-113480025D01*
X95926119Y-113480030D01*
X95926121Y-113480036D01*
X95954760Y-113536243D01*
X96015476Y-113655405D01*
X96131172Y-113814646D01*
X96270354Y-113953828D01*
X96297784Y-113973757D01*
X96392477Y-114042556D01*
X96441015Y-114102496D01*
X96453081Y-114178674D01*
X96425440Y-114250679D01*
X96410256Y-114268458D01*
X95612593Y-115066121D01*
X95612582Y-115066132D01*
X95610270Y-115068445D01*
X95610267Y-115068448D01*
X95523142Y-115155573D01*
X95509071Y-115176632D01*
X95502756Y-115186082D01*
X95502752Y-115186087D01*
X95454689Y-115258018D01*
X95454682Y-115258032D01*
X95444806Y-115281874D01*
X95444802Y-115281887D01*
X95441235Y-115290500D01*
X95407537Y-115371854D01*
X95383500Y-115492700D01*
X87655900Y-115492700D01*
X87655900Y-109025262D01*
X91014500Y-109025262D01*
X91014500Y-109254737D01*
X91044450Y-109482229D01*
X91044450Y-109482232D01*
X91103840Y-109703883D01*
X91103840Y-109703884D01*
X91143740Y-109800209D01*
X91185732Y-109901587D01*
X91191658Y-109915892D01*
X91224156Y-109972180D01*
X91302492Y-110107863D01*
X91306391Y-110114615D01*
X91306391Y-110114616D01*
X91443138Y-110292826D01*
X91446081Y-110296661D01*
X91608339Y-110458919D01*
X91666826Y-110503798D01*
X91757940Y-110573713D01*
X91790388Y-110598611D01*
X91989112Y-110713344D01*
X92150171Y-110780057D01*
X92201115Y-110801159D01*
X92297095Y-110826876D01*
X92422762Y-110860548D01*
X92422766Y-110860548D01*
X92422768Y-110860549D01*
X92492692Y-110869754D01*
X92650263Y-110890499D01*
X92650264Y-110890500D01*
X92650266Y-110890500D01*
X92879736Y-110890500D01*
X92879736Y-110890499D01*
X93107230Y-110860549D01*
X93107232Y-110860549D01*
X93107233Y-110860548D01*
X93107238Y-110860548D01*
X93328883Y-110801159D01*
X93328884Y-110801159D01*
X93328885Y-110801158D01*
X93328887Y-110801158D01*
X93540888Y-110713344D01*
X93739612Y-110598611D01*
X93921661Y-110458919D01*
X94083919Y-110296661D01*
X94223611Y-110114612D01*
X94338344Y-109915888D01*
X94344269Y-109901583D01*
X95834500Y-109901583D01*
X95834500Y-110098417D01*
X95865291Y-110292826D01*
X95926116Y-110480025D01*
X95926119Y-110480030D01*
X95926121Y-110480036D01*
X95986538Y-110598611D01*
X96015476Y-110655405D01*
X96131172Y-110814646D01*
X96270354Y-110953828D01*
X96429595Y-111069524D01*
X96604975Y-111158884D01*
X96792174Y-111219709D01*
X96986583Y-111250500D01*
X96986588Y-111250500D01*
X97183412Y-111250500D01*
X97183417Y-111250500D01*
X97377826Y-111219709D01*
X97565025Y-111158884D01*
X97740405Y-111069524D01*
X97899646Y-110953828D01*
X98038828Y-110814646D01*
X98154524Y-110655405D01*
X98243884Y-110480025D01*
X98304709Y-110292826D01*
X98335500Y-110098417D01*
X98335500Y-109901583D01*
X98834500Y-109901583D01*
X98834500Y-110098417D01*
X98865291Y-110292826D01*
X98926116Y-110480025D01*
X98926119Y-110480030D01*
X98926121Y-110480036D01*
X98986538Y-110598611D01*
X99015476Y-110655405D01*
X99131172Y-110814646D01*
X99270354Y-110953828D01*
X99429595Y-111069524D01*
X99604975Y-111158884D01*
X99792174Y-111219709D01*
X99986583Y-111250500D01*
X99986588Y-111250500D01*
X100183412Y-111250500D01*
X100183417Y-111250500D01*
X100377826Y-111219709D01*
X100565025Y-111158884D01*
X100740405Y-111069524D01*
X100899646Y-110953828D01*
X101038828Y-110814646D01*
X101154524Y-110655405D01*
X101243884Y-110480025D01*
X101266212Y-110411308D01*
X109599500Y-110411308D01*
X109599500Y-110588691D01*
X109634105Y-110762663D01*
X109634106Y-110762667D01*
X109701986Y-110926546D01*
X109701987Y-110926548D01*
X109797522Y-111069525D01*
X109800536Y-111074035D01*
X109925965Y-111199464D01*
X109925968Y-111199466D01*
X110073451Y-111298012D01*
X110073453Y-111298013D01*
X110237334Y-111365894D01*
X110411309Y-111400500D01*
X110588691Y-111400500D01*
X110762666Y-111365894D01*
X110926547Y-111298013D01*
X111074035Y-111199464D01*
X111199464Y-111074035D01*
X111298013Y-110926547D01*
X111365894Y-110762666D01*
X111400500Y-110588691D01*
X111400500Y-110411309D01*
X111390194Y-110359500D01*
X111365894Y-110237336D01*
X111365893Y-110237332D01*
X111298013Y-110073453D01*
X111298012Y-110073451D01*
X111199466Y-109925968D01*
X111199462Y-109925963D01*
X111074036Y-109800537D01*
X111074031Y-109800533D01*
X110926548Y-109701987D01*
X110926546Y-109701986D01*
X110762667Y-109634106D01*
X110762663Y-109634105D01*
X110588691Y-109599500D01*
X110411309Y-109599500D01*
X110237336Y-109634105D01*
X110237332Y-109634106D01*
X110073453Y-109701986D01*
X110073451Y-109701987D01*
X109925968Y-109800533D01*
X109925963Y-109800537D01*
X109800537Y-109925963D01*
X109800533Y-109925968D01*
X109701987Y-110073451D01*
X109701986Y-110073453D01*
X109634106Y-110237332D01*
X109634105Y-110237336D01*
X109599500Y-110411308D01*
X101266212Y-110411308D01*
X101304709Y-110292826D01*
X101335500Y-110098417D01*
X101335500Y-109901583D01*
X101304709Y-109707174D01*
X101243884Y-109519975D01*
X101154524Y-109344595D01*
X101038828Y-109185354D01*
X100899646Y-109046172D01*
X100740405Y-108930476D01*
X100730010Y-108925179D01*
X100565036Y-108841121D01*
X100565030Y-108841119D01*
X100565025Y-108841116D01*
X100377826Y-108780291D01*
X100183417Y-108749500D01*
X99986583Y-108749500D01*
X99792174Y-108780291D01*
X99604975Y-108841116D01*
X99604972Y-108841117D01*
X99604963Y-108841121D01*
X99429598Y-108930474D01*
X99429593Y-108930477D01*
X99270363Y-109046165D01*
X99270352Y-109046174D01*
X99131174Y-109185352D01*
X99131165Y-109185363D01*
X99015477Y-109344593D01*
X99015474Y-109344598D01*
X98926121Y-109519963D01*
X98926117Y-109519972D01*
X98926116Y-109519975D01*
X98865291Y-109707174D01*
X98834500Y-109901583D01*
X98335500Y-109901583D01*
X98304709Y-109707174D01*
X98243884Y-109519975D01*
X98154524Y-109344595D01*
X98038828Y-109185354D01*
X97899646Y-109046172D01*
X97740405Y-108930476D01*
X97730010Y-108925179D01*
X97565036Y-108841121D01*
X97565030Y-108841119D01*
X97565025Y-108841116D01*
X97377826Y-108780291D01*
X97183417Y-108749500D01*
X96986583Y-108749500D01*
X96792174Y-108780291D01*
X96604975Y-108841116D01*
X96604972Y-108841117D01*
X96604963Y-108841121D01*
X96429598Y-108930474D01*
X96429593Y-108930477D01*
X96270363Y-109046165D01*
X96270352Y-109046174D01*
X96131174Y-109185352D01*
X96131165Y-109185363D01*
X96015477Y-109344593D01*
X96015474Y-109344598D01*
X95926121Y-109519963D01*
X95926117Y-109519972D01*
X95926116Y-109519975D01*
X95865291Y-109707174D01*
X95834500Y-109901583D01*
X94344269Y-109901583D01*
X94426158Y-109703887D01*
X94426668Y-109701986D01*
X94454128Y-109599500D01*
X94485548Y-109482238D01*
X94515500Y-109254734D01*
X94515500Y-109025266D01*
X94485548Y-108797762D01*
X94426158Y-108576113D01*
X94338344Y-108364112D01*
X94223611Y-108165388D01*
X94223608Y-108165384D01*
X94223608Y-108165383D01*
X94114312Y-108022948D01*
X94083919Y-107983339D01*
X93921661Y-107821081D01*
X93845097Y-107762331D01*
X93739615Y-107681391D01*
X93540892Y-107566658D01*
X93540890Y-107566657D01*
X93540888Y-107566656D01*
X93474786Y-107539275D01*
X93328884Y-107478840D01*
X93107231Y-107419450D01*
X92879737Y-107389500D01*
X92879734Y-107389500D01*
X92650266Y-107389500D01*
X92650262Y-107389500D01*
X92422770Y-107419450D01*
X92422767Y-107419450D01*
X92201116Y-107478840D01*
X92201115Y-107478840D01*
X91989107Y-107566658D01*
X91790384Y-107681391D01*
X91790383Y-107681391D01*
X91608338Y-107821081D01*
X91446081Y-107983338D01*
X91306391Y-108165383D01*
X91306391Y-108165384D01*
X91191658Y-108364107D01*
X91103840Y-108576115D01*
X91103840Y-108576116D01*
X91044450Y-108797767D01*
X91044450Y-108797770D01*
X91014500Y-109025262D01*
X87655900Y-109025262D01*
X87655900Y-106901583D01*
X95834500Y-106901583D01*
X95834500Y-107098417D01*
X95865291Y-107292826D01*
X95926116Y-107480025D01*
X95926119Y-107480030D01*
X95926121Y-107480036D01*
X96001247Y-107627478D01*
X96015476Y-107655405D01*
X96131172Y-107814646D01*
X96270354Y-107953828D01*
X96429595Y-108069524D01*
X96604975Y-108158884D01*
X96792174Y-108219709D01*
X96986583Y-108250500D01*
X96986588Y-108250500D01*
X97183412Y-108250500D01*
X97183417Y-108250500D01*
X97377826Y-108219709D01*
X97565025Y-108158884D01*
X97740405Y-108069524D01*
X97899646Y-107953828D01*
X98038828Y-107814646D01*
X98154524Y-107655405D01*
X98243884Y-107480025D01*
X98304709Y-107292826D01*
X98335500Y-107098417D01*
X98335500Y-106901583D01*
X98834500Y-106901583D01*
X98834500Y-107098417D01*
X98865291Y-107292826D01*
X98926116Y-107480025D01*
X98926119Y-107480030D01*
X98926121Y-107480036D01*
X99001247Y-107627478D01*
X99015476Y-107655405D01*
X99131172Y-107814646D01*
X99270354Y-107953828D01*
X99429595Y-108069524D01*
X99604975Y-108158884D01*
X99792174Y-108219709D01*
X99986583Y-108250500D01*
X99986588Y-108250500D01*
X100183412Y-108250500D01*
X100183417Y-108250500D01*
X100377826Y-108219709D01*
X100565025Y-108158884D01*
X100740405Y-108069524D01*
X100899646Y-107953828D01*
X101038828Y-107814646D01*
X101154524Y-107655405D01*
X101243884Y-107480025D01*
X101304709Y-107292826D01*
X101335500Y-107098417D01*
X101335500Y-106901583D01*
X101304709Y-106707174D01*
X101243884Y-106519975D01*
X101154524Y-106344595D01*
X101038828Y-106185354D01*
X100899646Y-106046172D01*
X100740405Y-105930476D01*
X100712471Y-105916243D01*
X100565036Y-105841121D01*
X100565030Y-105841119D01*
X100565025Y-105841116D01*
X100377826Y-105780291D01*
X100183417Y-105749500D01*
X99986583Y-105749500D01*
X99792174Y-105780291D01*
X99604975Y-105841116D01*
X99604972Y-105841117D01*
X99604963Y-105841121D01*
X99429598Y-105930474D01*
X99429593Y-105930477D01*
X99270363Y-106046165D01*
X99270352Y-106046174D01*
X99131174Y-106185352D01*
X99131165Y-106185363D01*
X99015477Y-106344593D01*
X99015474Y-106344598D01*
X98926121Y-106519963D01*
X98926117Y-106519972D01*
X98926116Y-106519975D01*
X98865291Y-106707174D01*
X98834500Y-106901583D01*
X98335500Y-106901583D01*
X98304709Y-106707174D01*
X98243884Y-106519975D01*
X98154524Y-106344595D01*
X98038828Y-106185354D01*
X97899646Y-106046172D01*
X97740405Y-105930476D01*
X97712471Y-105916243D01*
X97565036Y-105841121D01*
X97565030Y-105841119D01*
X97565025Y-105841116D01*
X97377826Y-105780291D01*
X97183417Y-105749500D01*
X96986583Y-105749500D01*
X96792174Y-105780291D01*
X96604975Y-105841116D01*
X96604972Y-105841117D01*
X96604963Y-105841121D01*
X96429598Y-105930474D01*
X96429593Y-105930477D01*
X96270363Y-106046165D01*
X96270352Y-106046174D01*
X96131174Y-106185352D01*
X96131165Y-106185363D01*
X96015477Y-106344593D01*
X96015474Y-106344598D01*
X95926121Y-106519963D01*
X95926117Y-106519972D01*
X95926116Y-106519975D01*
X95865291Y-106707174D01*
X95834500Y-106901583D01*
X87655900Y-106901583D01*
X87655900Y-101911308D01*
X108599500Y-101911308D01*
X108599500Y-102088691D01*
X108634105Y-102262663D01*
X108634106Y-102262667D01*
X108701986Y-102426546D01*
X108701987Y-102426548D01*
X108778851Y-102541582D01*
X108800536Y-102574035D01*
X108925965Y-102699464D01*
X108925968Y-102699466D01*
X109073451Y-102798012D01*
X109073453Y-102798013D01*
X109237334Y-102865894D01*
X109411309Y-102900500D01*
X109588691Y-102900500D01*
X109762666Y-102865894D01*
X109926547Y-102798013D01*
X110074035Y-102699464D01*
X110199464Y-102574035D01*
X110298013Y-102426547D01*
X110365894Y-102262666D01*
X110400500Y-102088691D01*
X110400500Y-101911309D01*
X110365894Y-101737334D01*
X110298013Y-101573453D01*
X110282410Y-101550102D01*
X110199466Y-101425968D01*
X110199462Y-101425963D01*
X110074036Y-101300537D01*
X110074031Y-101300533D01*
X109926548Y-101201987D01*
X109926546Y-101201986D01*
X109762667Y-101134106D01*
X109762663Y-101134105D01*
X109588691Y-101099500D01*
X109411309Y-101099500D01*
X109237336Y-101134105D01*
X109237332Y-101134106D01*
X109073453Y-101201986D01*
X109073451Y-101201987D01*
X108925968Y-101300533D01*
X108925963Y-101300537D01*
X108800537Y-101425963D01*
X108800533Y-101425968D01*
X108701987Y-101573451D01*
X108701986Y-101573453D01*
X108634106Y-101737332D01*
X108634105Y-101737336D01*
X108599500Y-101911308D01*
X87655900Y-101911308D01*
X87655900Y-93099995D01*
X93124500Y-93099995D01*
X93124500Y-93900003D01*
X93127575Y-93930102D01*
X93135001Y-94002797D01*
X93190186Y-94169334D01*
X93282288Y-94318656D01*
X93406344Y-94442712D01*
X93443634Y-94465713D01*
X93496561Y-94521811D01*
X93514349Y-94596859D01*
X93492230Y-94670748D01*
X93470772Y-94697886D01*
X93385583Y-94783075D01*
X93283771Y-94923206D01*
X93205130Y-95077549D01*
X93205125Y-95077561D01*
X93151597Y-95242299D01*
X93144572Y-95286658D01*
X93124500Y-95413389D01*
X93124500Y-95586611D01*
X93133977Y-95646445D01*
X93151597Y-95757700D01*
X93165125Y-95799333D01*
X93205127Y-95922445D01*
X93244643Y-95999999D01*
X93283771Y-96076793D01*
X93379120Y-96208028D01*
X93385586Y-96216928D01*
X93508072Y-96339414D01*
X93508075Y-96339416D01*
X93602612Y-96408102D01*
X93648212Y-96441232D01*
X93802555Y-96519873D01*
X93967299Y-96573402D01*
X94138389Y-96600500D01*
X94138393Y-96600500D01*
X94861607Y-96600500D01*
X94861611Y-96600500D01*
X95032701Y-96573402D01*
X95197445Y-96519873D01*
X95351788Y-96441232D01*
X95491928Y-96339414D01*
X95614414Y-96216928D01*
X95716232Y-96076788D01*
X95794873Y-95922445D01*
X95848402Y-95757701D01*
X95875500Y-95586611D01*
X95875500Y-95413389D01*
X95848402Y-95242299D01*
X95794873Y-95077555D01*
X95716232Y-94923212D01*
X95715056Y-94921594D01*
X95614416Y-94783075D01*
X95614414Y-94783072D01*
X95529226Y-94697884D01*
X95490664Y-94631092D01*
X95490664Y-94553964D01*
X95529228Y-94487169D01*
X95556365Y-94465713D01*
X95593656Y-94442712D01*
X95717712Y-94318656D01*
X95809814Y-94169334D01*
X95864999Y-94002797D01*
X95875500Y-93900009D01*
X95875499Y-93099992D01*
X95864999Y-92997203D01*
X95809814Y-92830666D01*
X95717712Y-92681344D01*
X95593656Y-92557288D01*
X95444334Y-92465186D01*
X95361065Y-92437593D01*
X95277798Y-92410001D01*
X95260665Y-92408250D01*
X95175009Y-92399500D01*
X95175004Y-92399500D01*
X93824996Y-92399500D01*
X93722202Y-92410001D01*
X93555666Y-92465186D01*
X93406343Y-92557288D01*
X93282288Y-92681343D01*
X93190186Y-92830666D01*
X93135001Y-92997201D01*
X93135001Y-92997202D01*
X93135001Y-92997203D01*
X93124662Y-93098412D01*
X93124500Y-93099995D01*
X87655900Y-93099995D01*
X87655900Y-77378706D01*
X90918900Y-77378706D01*
X90918900Y-77621293D01*
X90950560Y-77861781D01*
X90950561Y-77861787D01*
X90950562Y-77861789D01*
X90992529Y-78018412D01*
X91013347Y-78096103D01*
X91106178Y-78320216D01*
X91151022Y-78397888D01*
X91227464Y-78530289D01*
X91375135Y-78722738D01*
X91546662Y-78894265D01*
X91739111Y-79041936D01*
X91949188Y-79163224D01*
X92173300Y-79256054D01*
X92407611Y-79318838D01*
X92407617Y-79318838D01*
X92407618Y-79318839D01*
X92473000Y-79327446D01*
X92648112Y-79350500D01*
X92890688Y-79350500D01*
X93131189Y-79318838D01*
X93365500Y-79256054D01*
X93589612Y-79163224D01*
X93799689Y-79041936D01*
X93992138Y-78894265D01*
X94163665Y-78722738D01*
X94311336Y-78530289D01*
X94432624Y-78320212D01*
X94525454Y-78096100D01*
X94588238Y-77861789D01*
X94619900Y-77621288D01*
X94619900Y-77378712D01*
X94588238Y-77138211D01*
X94525454Y-76903900D01*
X94432624Y-76679788D01*
X94311336Y-76469711D01*
X94163665Y-76277262D01*
X93992138Y-76105735D01*
X93939392Y-76065262D01*
X141899500Y-76065262D01*
X141899500Y-76294737D01*
X141929450Y-76522229D01*
X141929450Y-76522232D01*
X141988840Y-76743883D01*
X141988840Y-76743884D01*
X142076658Y-76955892D01*
X142191391Y-77154615D01*
X142191391Y-77154616D01*
X142317466Y-77318918D01*
X142331081Y-77336661D01*
X142493339Y-77498919D01*
X142675388Y-77638611D01*
X142874112Y-77753344D01*
X143025963Y-77816243D01*
X143086115Y-77841159D01*
X143182095Y-77866876D01*
X143307762Y-77900548D01*
X143307766Y-77900548D01*
X143307768Y-77900549D01*
X143377692Y-77909754D01*
X143535263Y-77930499D01*
X143535264Y-77930500D01*
X143535266Y-77930500D01*
X143764736Y-77930500D01*
X143764736Y-77930499D01*
X143992230Y-77900549D01*
X143992232Y-77900549D01*
X143992233Y-77900548D01*
X143992238Y-77900548D01*
X144213883Y-77841159D01*
X144213884Y-77841159D01*
X144213885Y-77841158D01*
X144213887Y-77841158D01*
X144425888Y-77753344D01*
X144624612Y-77638611D01*
X144806661Y-77498919D01*
X144968919Y-77336661D01*
X145108611Y-77154612D01*
X145223344Y-76955888D01*
X145311158Y-76743887D01*
X145370548Y-76522238D01*
X145400500Y-76294734D01*
X145400500Y-76065266D01*
X145400499Y-76065262D01*
X149599500Y-76065262D01*
X149599500Y-76294737D01*
X149629450Y-76522229D01*
X149629450Y-76522232D01*
X149688840Y-76743883D01*
X149688840Y-76743884D01*
X149776658Y-76955892D01*
X149891391Y-77154615D01*
X149891391Y-77154616D01*
X150017466Y-77318918D01*
X150031081Y-77336661D01*
X150193339Y-77498919D01*
X150375388Y-77638611D01*
X150574112Y-77753344D01*
X150725963Y-77816243D01*
X150786115Y-77841159D01*
X150882095Y-77866876D01*
X151007762Y-77900548D01*
X151007766Y-77900548D01*
X151007768Y-77900549D01*
X151077692Y-77909754D01*
X151235263Y-77930499D01*
X151235264Y-77930500D01*
X151235266Y-77930500D01*
X151464736Y-77930500D01*
X151464736Y-77930499D01*
X151692230Y-77900549D01*
X151692232Y-77900549D01*
X151692233Y-77900548D01*
X151692238Y-77900548D01*
X151913883Y-77841159D01*
X151913884Y-77841159D01*
X151913885Y-77841158D01*
X151913887Y-77841158D01*
X152125888Y-77753344D01*
X152324612Y-77638611D01*
X152506661Y-77498919D01*
X152668919Y-77336661D01*
X152808611Y-77154612D01*
X152923344Y-76955888D01*
X153011158Y-76743887D01*
X153070548Y-76522238D01*
X153100500Y-76294734D01*
X153100500Y-76065266D01*
X153090188Y-75986947D01*
X153078721Y-75899837D01*
X153078721Y-75899836D01*
X153076802Y-75885262D01*
X167049500Y-75885262D01*
X167049500Y-76114737D01*
X167079450Y-76342229D01*
X167079450Y-76342232D01*
X167138840Y-76563883D01*
X167138840Y-76563884D01*
X167162170Y-76620206D01*
X167213399Y-76743884D01*
X167226658Y-76775892D01*
X167341391Y-76974615D01*
X167341391Y-76974616D01*
X167390296Y-77038349D01*
X167481081Y-77156661D01*
X167643339Y-77318919D01*
X167825388Y-77458611D01*
X168024112Y-77573344D01*
X168181673Y-77638608D01*
X168236115Y-77661159D01*
X168332095Y-77686876D01*
X168457762Y-77720548D01*
X168457766Y-77720548D01*
X168457768Y-77720549D01*
X168527692Y-77729754D01*
X168685263Y-77750499D01*
X168685264Y-77750500D01*
X168685266Y-77750500D01*
X168914736Y-77750500D01*
X168914736Y-77750499D01*
X169142230Y-77720549D01*
X169142232Y-77720549D01*
X169142233Y-77720548D01*
X169142238Y-77720548D01*
X169363883Y-77661159D01*
X169363884Y-77661159D01*
X169363885Y-77661158D01*
X169363887Y-77661158D01*
X169575888Y-77573344D01*
X169774612Y-77458611D01*
X169956661Y-77318919D01*
X170118919Y-77156661D01*
X170249551Y-76986418D01*
X170258608Y-76974616D01*
X170258608Y-76974615D01*
X170258611Y-76974612D01*
X170373344Y-76775888D01*
X170461158Y-76563887D01*
X170520548Y-76342238D01*
X170550500Y-76114734D01*
X170550500Y-75885266D01*
X170550499Y-75885262D01*
X174749500Y-75885262D01*
X174749500Y-76114737D01*
X174779450Y-76342229D01*
X174779450Y-76342232D01*
X174838840Y-76563883D01*
X174838840Y-76563884D01*
X174862170Y-76620206D01*
X174913399Y-76743884D01*
X174926658Y-76775892D01*
X175041391Y-76974615D01*
X175041391Y-76974616D01*
X175090296Y-77038349D01*
X175181081Y-77156661D01*
X175343339Y-77318919D01*
X175525388Y-77458611D01*
X175724112Y-77573344D01*
X175881673Y-77638608D01*
X175936115Y-77661159D01*
X176032095Y-77686876D01*
X176157762Y-77720548D01*
X176157766Y-77720548D01*
X176157768Y-77720549D01*
X176227692Y-77729754D01*
X176385263Y-77750499D01*
X176385264Y-77750500D01*
X176385266Y-77750500D01*
X176614736Y-77750500D01*
X176614736Y-77750499D01*
X176842230Y-77720549D01*
X176842232Y-77720549D01*
X176842233Y-77720548D01*
X176842238Y-77720548D01*
X177063883Y-77661159D01*
X177063884Y-77661159D01*
X177063885Y-77661158D01*
X177063887Y-77661158D01*
X177275888Y-77573344D01*
X177474612Y-77458611D01*
X177656661Y-77318919D01*
X177818919Y-77156661D01*
X177949551Y-76986418D01*
X177958608Y-76974616D01*
X177958608Y-76974615D01*
X177958611Y-76974612D01*
X178073344Y-76775888D01*
X178161158Y-76563887D01*
X178220548Y-76342238D01*
X178250500Y-76114734D01*
X178250500Y-75885266D01*
X178220548Y-75657762D01*
X178161158Y-75436113D01*
X178073344Y-75224112D01*
X177958611Y-75025388D01*
X177958608Y-75025384D01*
X177958608Y-75025383D01*
X177818918Y-74843338D01*
X177656661Y-74681081D01*
X177474615Y-74541391D01*
X177275892Y-74426658D01*
X177275890Y-74426657D01*
X177275888Y-74426656D01*
X177209786Y-74399275D01*
X177063884Y-74338840D01*
X176842231Y-74279450D01*
X176614737Y-74249500D01*
X176614734Y-74249500D01*
X176385266Y-74249500D01*
X176385262Y-74249500D01*
X176157770Y-74279450D01*
X176157767Y-74279450D01*
X175936116Y-74338840D01*
X175936115Y-74338840D01*
X175724107Y-74426658D01*
X175525384Y-74541391D01*
X175525383Y-74541391D01*
X175343338Y-74681081D01*
X175181081Y-74843338D01*
X175041391Y-75025383D01*
X175041391Y-75025384D01*
X174926658Y-75224107D01*
X174838840Y-75436115D01*
X174838840Y-75436116D01*
X174779450Y-75657767D01*
X174779450Y-75657770D01*
X174749500Y-75885262D01*
X170550499Y-75885262D01*
X170520548Y-75657762D01*
X170461158Y-75436113D01*
X170373344Y-75224112D01*
X170258611Y-75025388D01*
X170258608Y-75025384D01*
X170258608Y-75025383D01*
X170118918Y-74843338D01*
X169956661Y-74681081D01*
X169774615Y-74541391D01*
X169575892Y-74426658D01*
X169575890Y-74426657D01*
X169575888Y-74426656D01*
X169509786Y-74399275D01*
X169363884Y-74338840D01*
X169142231Y-74279450D01*
X168914737Y-74249500D01*
X168914734Y-74249500D01*
X168685266Y-74249500D01*
X168685262Y-74249500D01*
X168457770Y-74279450D01*
X168457767Y-74279450D01*
X168236116Y-74338840D01*
X168236115Y-74338840D01*
X168024107Y-74426658D01*
X167825384Y-74541391D01*
X167825383Y-74541391D01*
X167643338Y-74681081D01*
X167481081Y-74843338D01*
X167341391Y-75025383D01*
X167341391Y-75025384D01*
X167226658Y-75224107D01*
X167138840Y-75436115D01*
X167138840Y-75436116D01*
X167079450Y-75657767D01*
X167079450Y-75657770D01*
X167049500Y-75885262D01*
X153076802Y-75885262D01*
X153070550Y-75837772D01*
X153070549Y-75837767D01*
X153070283Y-75836776D01*
X153011158Y-75616113D01*
X152923344Y-75404112D01*
X152808611Y-75205388D01*
X152808608Y-75205384D01*
X152808608Y-75205383D01*
X152668918Y-75023338D01*
X152506661Y-74861081D01*
X152324615Y-74721391D01*
X152125892Y-74606658D01*
X152125890Y-74606657D01*
X152125888Y-74606656D01*
X152059786Y-74579275D01*
X151913884Y-74518840D01*
X151692231Y-74459450D01*
X151464737Y-74429500D01*
X151464734Y-74429500D01*
X151235266Y-74429500D01*
X151235262Y-74429500D01*
X151007770Y-74459450D01*
X151007767Y-74459450D01*
X150786116Y-74518840D01*
X150786115Y-74518840D01*
X150574107Y-74606658D01*
X150375384Y-74721391D01*
X150375383Y-74721391D01*
X150193338Y-74861081D01*
X150031081Y-75023338D01*
X149891391Y-75205383D01*
X149891391Y-75205384D01*
X149776658Y-75404107D01*
X149688840Y-75616115D01*
X149688840Y-75616116D01*
X149629450Y-75837767D01*
X149629450Y-75837770D01*
X149599500Y-76065262D01*
X145400499Y-76065262D01*
X145370548Y-75837762D01*
X145311158Y-75616113D01*
X145223344Y-75404112D01*
X145108611Y-75205388D01*
X145108608Y-75205384D01*
X145108608Y-75205383D01*
X144968918Y-75023338D01*
X144806661Y-74861081D01*
X144624615Y-74721391D01*
X144425892Y-74606658D01*
X144425890Y-74606657D01*
X144425888Y-74606656D01*
X144359786Y-74579275D01*
X144213884Y-74518840D01*
X143992231Y-74459450D01*
X143764737Y-74429500D01*
X143764734Y-74429500D01*
X143535266Y-74429500D01*
X143535262Y-74429500D01*
X143307770Y-74459450D01*
X143307767Y-74459450D01*
X143086116Y-74518840D01*
X143086115Y-74518840D01*
X142874107Y-74606658D01*
X142675384Y-74721391D01*
X142675383Y-74721391D01*
X142493338Y-74861081D01*
X142331081Y-75023338D01*
X142191391Y-75205383D01*
X142191391Y-75205384D01*
X142076658Y-75404107D01*
X141988840Y-75616115D01*
X141988840Y-75616116D01*
X141929450Y-75837767D01*
X141929450Y-75837770D01*
X141899500Y-76065262D01*
X93939392Y-76065262D01*
X93799689Y-75958064D01*
X93673592Y-75885262D01*
X93589616Y-75836778D01*
X93589614Y-75836777D01*
X93589612Y-75836776D01*
X93458332Y-75782398D01*
X93365503Y-75743947D01*
X93365501Y-75743946D01*
X93365500Y-75743946D01*
X93131189Y-75681162D01*
X93131187Y-75681161D01*
X93131181Y-75681160D01*
X92890693Y-75649500D01*
X92890688Y-75649500D01*
X92648112Y-75649500D01*
X92648106Y-75649500D01*
X92407618Y-75681160D01*
X92173296Y-75743947D01*
X91949183Y-75836778D01*
X91739112Y-75958063D01*
X91739111Y-75958064D01*
X91546662Y-76105735D01*
X91546660Y-76105736D01*
X91546656Y-76105740D01*
X91375140Y-76277256D01*
X91375136Y-76277260D01*
X91375135Y-76277262D01*
X91361728Y-76294735D01*
X91227463Y-76469712D01*
X91106178Y-76679783D01*
X91013347Y-76903896D01*
X90950560Y-77138218D01*
X90918900Y-77378706D01*
X87655900Y-77378706D01*
X87655900Y-70823500D01*
X87675862Y-70749000D01*
X87730400Y-70694462D01*
X87804900Y-70674500D01*
X213861900Y-70674500D01*
X213936400Y-70694462D01*
G37*
G04 #@! TD.AperFunction*
G04 #@! TD*
M02*
