G04 #@! TF.GenerationSoftware,KiCad,Pcbnew,9.0.1*
G04 #@! TF.CreationDate,2025-06-05T12:53:06-07:00*
G04 #@! TF.ProjectId,chop_microcontroller_board,63686f70-5f6d-4696-9372-6f636f6e7472,rev?*
G04 #@! TF.SameCoordinates,Original*
G04 #@! TF.FileFunction,Legend,Bot*
G04 #@! TF.FilePolarity,Positive*
%FSLAX46Y46*%
G04 Gerber Fmt 4.6, Leading zero omitted, Abs format (unit mm)*
G04 Created by KiCad (PCBNEW 9.0.1) date 2025-06-05 12:53:06*
%MOMM*%
%LPD*%
G01*
G04 APERTURE LIST*
G04 Aperture macros list*
%AMRoundRect*
0 Rectangle with rounded corners*
0 $1 Rounding radius*
0 $2 $3 $4 $5 $6 $7 $8 $9 X,Y pos of 4 corners*
0 Add a 4 corners polygon primitive as box body*
4,1,4,$2,$3,$4,$5,$6,$7,$8,$9,$2,$3,0*
0 Add four circle primitives for the rounded corners*
1,1,$1+$1,$2,$3*
1,1,$1+$1,$4,$5*
1,1,$1+$1,$6,$7*
1,1,$1+$1,$8,$9*
0 Add four rect primitives between the rounded corners*
20,1,$1+$1,$2,$3,$4,$5,0*
20,1,$1+$1,$4,$5,$6,$7,0*
20,1,$1+$1,$6,$7,$8,$9,0*
20,1,$1+$1,$8,$9,$2,$3,0*%
G04 Aperture macros list end*
%ADD10C,0.150000*%
%ADD11C,0.120000*%
%ADD12C,3.200000*%
%ADD13R,1.700000X1.700000*%
%ADD14O,1.700000X1.700000*%
%ADD15C,3.000000*%
%ADD16RoundRect,0.250001X-0.499999X-0.759999X0.499999X-0.759999X0.499999X0.759999X-0.499999X0.759999X0*%
%ADD17O,1.500000X2.020000*%
%ADD18RoundRect,0.250000X-0.625000X0.350000X-0.625000X-0.350000X0.625000X-0.350000X0.625000X0.350000X0*%
%ADD19O,1.750000X1.200000*%
%ADD20C,1.700000*%
%ADD21RoundRect,0.250001X-0.499999X0.499999X-0.499999X-0.499999X0.499999X-0.499999X0.499999X0.499999X0*%
%ADD22C,1.500000*%
%ADD23RoundRect,0.250001X0.499999X-0.499999X0.499999X0.499999X-0.499999X0.499999X-0.499999X-0.499999X0*%
%ADD24R,2.000000X2.000000*%
%ADD25C,2.000000*%
%ADD26R,3.000000X2.500000*%
%ADD27O,1.600000X2.000000*%
G04 APERTURE END LIST*
D10*
X148783333Y-99754819D02*
X148783333Y-100469104D01*
X148783333Y-100469104D02*
X148830952Y-100611961D01*
X148830952Y-100611961D02*
X148926190Y-100707200D01*
X148926190Y-100707200D02*
X149069047Y-100754819D01*
X149069047Y-100754819D02*
X149164285Y-100754819D01*
X148402380Y-99754819D02*
X147783333Y-99754819D01*
X147783333Y-99754819D02*
X148116666Y-100135771D01*
X148116666Y-100135771D02*
X147973809Y-100135771D01*
X147973809Y-100135771D02*
X147878571Y-100183390D01*
X147878571Y-100183390D02*
X147830952Y-100231009D01*
X147830952Y-100231009D02*
X147783333Y-100326247D01*
X147783333Y-100326247D02*
X147783333Y-100564342D01*
X147783333Y-100564342D02*
X147830952Y-100659580D01*
X147830952Y-100659580D02*
X147878571Y-100707200D01*
X147878571Y-100707200D02*
X147973809Y-100754819D01*
X147973809Y-100754819D02*
X148259523Y-100754819D01*
X148259523Y-100754819D02*
X148354761Y-100707200D01*
X148354761Y-100707200D02*
X148402380Y-100659580D01*
X182914819Y-77166666D02*
X183629104Y-77166666D01*
X183629104Y-77166666D02*
X183771961Y-77119047D01*
X183771961Y-77119047D02*
X183867200Y-77023809D01*
X183867200Y-77023809D02*
X183914819Y-76880952D01*
X183914819Y-76880952D02*
X183914819Y-76785714D01*
X183343390Y-77785714D02*
X183295771Y-77690476D01*
X183295771Y-77690476D02*
X183248152Y-77642857D01*
X183248152Y-77642857D02*
X183152914Y-77595238D01*
X183152914Y-77595238D02*
X183105295Y-77595238D01*
X183105295Y-77595238D02*
X183010057Y-77642857D01*
X183010057Y-77642857D02*
X182962438Y-77690476D01*
X182962438Y-77690476D02*
X182914819Y-77785714D01*
X182914819Y-77785714D02*
X182914819Y-77976190D01*
X182914819Y-77976190D02*
X182962438Y-78071428D01*
X182962438Y-78071428D02*
X183010057Y-78119047D01*
X183010057Y-78119047D02*
X183105295Y-78166666D01*
X183105295Y-78166666D02*
X183152914Y-78166666D01*
X183152914Y-78166666D02*
X183248152Y-78119047D01*
X183248152Y-78119047D02*
X183295771Y-78071428D01*
X183295771Y-78071428D02*
X183343390Y-77976190D01*
X183343390Y-77976190D02*
X183343390Y-77785714D01*
X183343390Y-77785714D02*
X183391009Y-77690476D01*
X183391009Y-77690476D02*
X183438628Y-77642857D01*
X183438628Y-77642857D02*
X183533866Y-77595238D01*
X183533866Y-77595238D02*
X183724342Y-77595238D01*
X183724342Y-77595238D02*
X183819580Y-77642857D01*
X183819580Y-77642857D02*
X183867200Y-77690476D01*
X183867200Y-77690476D02*
X183914819Y-77785714D01*
X183914819Y-77785714D02*
X183914819Y-77976190D01*
X183914819Y-77976190D02*
X183867200Y-78071428D01*
X183867200Y-78071428D02*
X183819580Y-78119047D01*
X183819580Y-78119047D02*
X183724342Y-78166666D01*
X183724342Y-78166666D02*
X183533866Y-78166666D01*
X183533866Y-78166666D02*
X183438628Y-78119047D01*
X183438628Y-78119047D02*
X183391009Y-78071428D01*
X183391009Y-78071428D02*
X183343390Y-77976190D01*
X178413333Y-107708819D02*
X178413333Y-108423104D01*
X178413333Y-108423104D02*
X178460952Y-108565961D01*
X178460952Y-108565961D02*
X178556190Y-108661200D01*
X178556190Y-108661200D02*
X178699047Y-108708819D01*
X178699047Y-108708819D02*
X178794285Y-108708819D01*
X177984761Y-107804057D02*
X177937142Y-107756438D01*
X177937142Y-107756438D02*
X177841904Y-107708819D01*
X177841904Y-107708819D02*
X177603809Y-107708819D01*
X177603809Y-107708819D02*
X177508571Y-107756438D01*
X177508571Y-107756438D02*
X177460952Y-107804057D01*
X177460952Y-107804057D02*
X177413333Y-107899295D01*
X177413333Y-107899295D02*
X177413333Y-107994533D01*
X177413333Y-107994533D02*
X177460952Y-108137390D01*
X177460952Y-108137390D02*
X178032380Y-108708819D01*
X178032380Y-108708819D02*
X177413333Y-108708819D01*
D11*
G04 #@! TO.C,J3*
X137050000Y-101200000D02*
X137050000Y-103800000D01*
X137050000Y-106200000D02*
X137050000Y-108800000D01*
X137050000Y-111200000D02*
X137050000Y-113800000D01*
X137050000Y-113800000D02*
X141950000Y-113800000D01*
X141950000Y-101200000D02*
X137050000Y-101200000D01*
X143750000Y-107000000D02*
X143750000Y-108000000D01*
X144250000Y-107500000D02*
X143250000Y-107500000D01*
X145550000Y-113800000D02*
X150450000Y-113800000D01*
X145650000Y-101200000D02*
X150450000Y-101200000D01*
X150450000Y-101200000D02*
X150450000Y-103700000D01*
X150450000Y-113800000D02*
X150450000Y-111000000D01*
X150950000Y-103400000D02*
X151250000Y-103700000D01*
X151250000Y-103700000D02*
X151550000Y-103400000D01*
X151550000Y-103400000D02*
X150950000Y-103400000D01*
X146750000Y-107500000D02*
G75*
G02*
X140750000Y-107500000I-3000000J0D01*
G01*
X140750000Y-107500000D02*
G75*
G02*
X146750000Y-107500000I3000000J0D01*
G01*
G04 #@! TO.C,J8*
X184460000Y-76120000D02*
X184460000Y-77500000D01*
X185840000Y-76120000D02*
X184460000Y-76120000D01*
X187110000Y-76120000D02*
X187110000Y-78880000D01*
X187110000Y-76120000D02*
X197380000Y-76120000D01*
X187110000Y-78880000D02*
X197380000Y-78880000D01*
X197380000Y-76120000D02*
X197380000Y-78880000D01*
G04 #@! TO.C,J2*
X166000000Y-95700000D02*
X166000000Y-123000000D01*
X166000000Y-123000000D02*
X193400000Y-123000000D01*
X166538000Y-98983000D02*
X166792000Y-98995000D01*
X166538000Y-115620000D02*
X166538000Y-98983000D01*
X169878000Y-98995000D02*
X166792000Y-98995000D01*
X169878000Y-115595000D02*
X166538000Y-115620000D01*
X169878000Y-115595000D02*
X192978000Y-115595000D01*
X174920000Y-96189000D02*
X174920000Y-98602000D01*
X174920000Y-98602000D02*
X184699000Y-98602000D01*
X184699000Y-96189000D02*
X174920000Y-96189000D01*
X184699000Y-96189000D02*
X184699000Y-98602000D01*
X192978000Y-98995000D02*
X169878000Y-98995000D01*
X192978000Y-115595000D02*
X192978000Y-98995000D01*
X193400000Y-95700000D02*
X166000000Y-95700000D01*
X193400000Y-123000000D02*
X193400000Y-95700000D01*
G04 #@! TD*
%LPC*%
D12*
G04 #@! TO.C,MK2*
X208000000Y-77500000D03*
G04 #@! TD*
D13*
G04 #@! TO.C,U3*
X159430000Y-106670000D03*
X159430000Y-109210000D03*
D14*
X159430000Y-111750000D03*
X159430000Y-114290000D03*
D13*
X197530000Y-111710000D03*
X197530000Y-114250000D03*
D14*
X197530000Y-116790000D03*
X197530000Y-119330000D03*
G04 #@! TD*
D15*
G04 #@! TO.C,J7*
X143650000Y-76180000D03*
X151350000Y-76180000D03*
D16*
X141500000Y-80500000D03*
D17*
X144500000Y-80500000D03*
X147500000Y-80500000D03*
X150500000Y-80500000D03*
X153500000Y-80500000D03*
G04 #@! TD*
D18*
G04 #@! TO.C,J14*
X94500000Y-93500000D03*
D19*
X94500000Y-95500000D03*
G04 #@! TD*
D15*
G04 #@! TO.C,J6*
X168800000Y-76000000D03*
X176500000Y-76000000D03*
D16*
X166650000Y-80320000D03*
D17*
X169650000Y-80320000D03*
X172650000Y-80320000D03*
X175650000Y-80320000D03*
X178650000Y-80320000D03*
G04 #@! TD*
D12*
G04 #@! TO.C,MK1*
X92769400Y-77500000D03*
G04 #@! TD*
D13*
G04 #@! TO.C,U2*
X159430000Y-123670000D03*
X159430000Y-126210000D03*
D14*
X159430000Y-128750000D03*
X159430000Y-131290000D03*
D13*
X197530000Y-128710000D03*
X197530000Y-131250000D03*
D14*
X197530000Y-133790000D03*
X197530000Y-136330000D03*
G04 #@! TD*
D13*
G04 #@! TO.C,U4*
X160000000Y-84880000D03*
D20*
X160000000Y-87420000D03*
X160000000Y-89960000D03*
X160000000Y-92500000D03*
G04 #@! TD*
D15*
G04 #@! TO.C,J12*
X208820000Y-92160000D03*
X208820000Y-96860000D03*
D21*
X204500000Y-90000000D03*
D22*
X204500000Y-93000000D03*
X204500000Y-96000000D03*
X204500000Y-99000000D03*
X201500000Y-90000000D03*
X201500000Y-93000000D03*
X201500000Y-96000000D03*
X201500000Y-99000000D03*
G04 #@! TD*
D13*
G04 #@! TO.C,U1*
X114380000Y-80200000D03*
D14*
X114380000Y-82740000D03*
X114380000Y-85280000D03*
X114380000Y-87820000D03*
X114380000Y-90360000D03*
X114380000Y-92900000D03*
X114380000Y-95440000D03*
X114380000Y-97980000D03*
X114380000Y-100520000D03*
X114380000Y-103060000D03*
X114380000Y-105600000D03*
X114380000Y-108140000D03*
X114380000Y-110680000D03*
X114380000Y-113220000D03*
X114380000Y-115760000D03*
X114380000Y-118300000D03*
X114380000Y-120840000D03*
X114380000Y-123380000D03*
X114380000Y-125920000D03*
X114380000Y-128460000D03*
X114380000Y-131000000D03*
X114380000Y-133540000D03*
X114380000Y-136080000D03*
X114380000Y-138620000D03*
X129620000Y-138620000D03*
X129620000Y-136080000D03*
X129620000Y-133540000D03*
X129620000Y-131000000D03*
X129620000Y-128460000D03*
X129620000Y-125920000D03*
X129620000Y-123380000D03*
X129620000Y-120840000D03*
X129620000Y-118300000D03*
X129620000Y-115760000D03*
X129620000Y-113220000D03*
X129620000Y-110680000D03*
X129620000Y-108140000D03*
X129620000Y-105600000D03*
X129620000Y-103060000D03*
X129620000Y-100520000D03*
X129620000Y-97980000D03*
X129620000Y-95440000D03*
X129620000Y-92900000D03*
X129620000Y-90360000D03*
X129620000Y-87820000D03*
X129620000Y-85280000D03*
X129620000Y-82740000D03*
X129620000Y-80200000D03*
G04 #@! TD*
D12*
G04 #@! TO.C,MK3*
X92769400Y-134865000D03*
G04 #@! TD*
G04 #@! TO.C,MK5*
X208000000Y-122840000D03*
G04 #@! TD*
G04 #@! TO.C,MK4*
X208000000Y-134865000D03*
G04 #@! TD*
D15*
G04 #@! TO.C,J11*
X92765000Y-122840000D03*
X92765000Y-109140000D03*
D23*
X97085000Y-125000000D03*
D22*
X97085000Y-122000000D03*
X97085000Y-119000000D03*
X97085000Y-116000000D03*
X97085000Y-113000000D03*
X97085000Y-110000000D03*
X97085000Y-107000000D03*
X100085000Y-125000000D03*
X100085000Y-122000000D03*
X100085000Y-119000000D03*
X100085000Y-116000000D03*
X100085000Y-113000000D03*
X100085000Y-110000000D03*
X100085000Y-107000000D03*
G04 #@! TD*
D24*
G04 #@! TO.C,J3*
X151250000Y-105000000D03*
D25*
X151250000Y-110000000D03*
X151250000Y-107500000D03*
D26*
X143750000Y-113100000D03*
X143750000Y-101900000D03*
D25*
X136750000Y-105000000D03*
X136750000Y-110000000D03*
G04 #@! TD*
D13*
G04 #@! TO.C,J8*
X185840000Y-77500000D03*
D20*
X188380000Y-77500000D03*
X190920000Y-77500000D03*
X193460000Y-77500000D03*
X196000000Y-77500000D03*
G04 #@! TD*
D27*
G04 #@! TO.C,J2*
X183620000Y-97400000D03*
X181080000Y-97400000D03*
X178540000Y-97400000D03*
X176000000Y-97400000D03*
G04 #@! TD*
%LPD*%
M02*
