M48
; DRILL file {KiCad 9.0.1} date 2025-06-09T13:53:20-0700
; FORMAT={-:-/ absolute / metric / decimal}
; #@! TF.CreationDate,2025-06-09T13:53:20-07:00
; #@! TF.GenerationSoftware,Kicad,Pcbnew,9.0.1
; #@! TF.FileFunction,Plated,1,4,PTH
FMAT,2
METRIC
; #@! TA.AperFunction,Plated,PTH,ViaDrill
T1C0.400
; #@! TA.AperFunction,Plated,PTH,ComponentDrill
T2C0.750
; #@! TA.AperFunction,Plated,PTH,ViaDrill
T3C1.000
; #@! TA.AperFunction,Plated,PTH,ComponentDrill
T4C1.000
; #@! TA.AperFunction,Plated,PTH,ComponentDrill
T5C1.020
; #@! TA.AperFunction,Plated,PTH,ComponentDrill
T6C2.000
%
G90
G05
T1
X103.0Y-102.0
X107.778Y-112.427
X107.837Y-117.261
X107.933Y-126.067
X109.5Y-102.0
X110.5Y-110.5
X134.0Y-113.5
T2
X94.5Y-93.5
X94.5Y-95.5
T3
X136.0Y-123.0
X142.5Y-95.0
X146.0Y-117.0
T4
X114.38Y-80.2
X114.38Y-82.74
X114.38Y-85.28
X114.38Y-87.82
X114.38Y-90.36
X114.38Y-92.9
X114.38Y-95.44
X114.38Y-97.98
X114.38Y-100.52
X114.38Y-103.06
X114.38Y-105.6
X114.38Y-108.14
X114.38Y-110.68
X114.38Y-113.22
X114.38Y-115.76
X114.38Y-118.3
X114.38Y-120.84
X114.38Y-123.38
X114.38Y-125.92
X114.38Y-128.46
X114.38Y-131.0
X114.38Y-133.54
X114.38Y-136.08
X114.38Y-138.62
X129.62Y-80.2
X129.62Y-82.74
X129.62Y-85.28
X129.62Y-87.82
X129.62Y-90.36
X129.62Y-92.9
X129.62Y-95.44
X129.62Y-97.98
X129.62Y-100.52
X129.62Y-103.06
X129.62Y-105.6
X129.62Y-108.14
X129.62Y-110.68
X129.62Y-113.22
X129.62Y-115.76
X129.62Y-118.3
X129.62Y-120.84
X129.62Y-123.38
X129.62Y-125.92
X129.62Y-128.46
X129.62Y-131.0
X129.62Y-133.54
X129.62Y-136.08
X129.62Y-138.62
X136.75Y-105.0
X136.75Y-110.0
X151.25Y-105.0
X151.25Y-107.5
X151.25Y-110.0
X159.43Y-106.67
X159.43Y-109.21
X159.43Y-111.75
X159.43Y-114.29
X159.43Y-123.67
X159.43Y-126.21
X159.43Y-128.75
X159.43Y-131.29
X160.0Y-84.88
X160.0Y-87.42
X160.0Y-89.96
X160.0Y-92.5
X176.0Y-97.4
X178.54Y-97.4
X181.08Y-97.4
X183.62Y-97.4
X185.84Y-77.5
X188.38Y-77.5
X190.92Y-77.5
X193.46Y-77.5
X196.0Y-77.5
X197.53Y-111.71
X197.53Y-114.25
X197.53Y-116.79
X197.53Y-119.33
X197.53Y-128.71
X197.53Y-131.25
X197.53Y-133.79
X197.53Y-136.33
T5
X97.085Y-107.0
X97.085Y-110.0
X97.085Y-113.0
X97.085Y-116.0
X97.085Y-119.0
X97.085Y-122.0
X97.085Y-125.0
X100.085Y-107.0
X100.085Y-110.0
X100.085Y-113.0
X100.085Y-116.0
X100.085Y-119.0
X100.085Y-122.0
X100.085Y-125.0
X141.5Y-80.5
X144.5Y-80.5
X147.5Y-80.5
X150.5Y-80.5
X153.5Y-80.5
X166.65Y-80.32
X169.65Y-80.32
X172.65Y-80.32
X175.65Y-80.32
X178.65Y-80.32
X201.5Y-90.0
X201.5Y-93.0
X201.5Y-96.0
X201.5Y-99.0
X204.5Y-90.0
X204.5Y-93.0
X204.5Y-96.0
X204.5Y-99.0
T6
X144.0Y-101.9G85X143.5Y-101.9
G05
X144.0Y-113.1G85X143.5Y-113.1
G05
M30
