%TF.GenerationSoftware,KiCad,Pcbnew,9.0.1*%
%TF.CreationDate,2025-06-05T13:09:51-07:00*%
%TF.ProjectId,chop-controller-heat,63686f70-2d63-46f6-9e74-726f6c6c6572,rev?*%
%TF.SameCoordinates,Original*%
%TF.FileFunction,Drillmap*%
%TF.FilePolarity,Positive*%
%FSLAX45Y45*%
G04 Gerber Fmt 4.5, Leading zero omitted, Abs format (unit mm)*
G04 Created by KiCad (PCBNEW 9.0.1) date 2025-06-05 13:09:51*
%MOMM*%
%LPD*%
G01*
G04 APERTURE LIST*
%ADD10C,0.200000*%
%ADD11C,0.100000*%
%ADD12C,0.102000*%
%ADD13C,0.109000*%
%ADD14C,0.130000*%
G04 APERTURE END LIST*
D10*
X8502664Y-4891532D02*
X21138264Y-4891532D01*
X21138264Y-10469532D01*
X8502664Y-10469532D01*
X8502664Y-4891532D01*
D11*
X10514664Y-6608132D02*
X10554664Y-6648132D01*
X10554664Y-6608132D02*
X10514664Y-6648132D01*
X11307144Y-7446332D02*
X11347144Y-7486332D01*
X11347144Y-7446332D02*
X11307144Y-7486332D01*
X11683064Y-7141532D02*
X11723064Y-7181532D01*
X11723064Y-7141532D02*
X11683064Y-7181532D01*
X12495864Y-7090732D02*
X12535864Y-7130732D01*
X12535864Y-7090732D02*
X12495864Y-7130732D01*
X13054664Y-6989132D02*
X13094664Y-7029132D01*
X13094664Y-6989132D02*
X13054664Y-7029132D01*
X13054664Y-7928932D02*
X13094664Y-7968932D01*
X13094664Y-7928932D02*
X13054664Y-7968932D01*
X13054664Y-8055932D02*
X13094664Y-8095932D01*
X13094664Y-8055932D02*
X13054664Y-8095932D01*
X13054664Y-8155883D02*
X13094664Y-8195883D01*
X13094664Y-8155883D02*
X13054664Y-8195883D01*
X13054664Y-8259132D02*
X13094664Y-8299132D01*
X13094664Y-8259132D02*
X13054664Y-8299132D01*
X13054664Y-8360732D02*
X13094664Y-8400732D01*
X13094664Y-8360732D02*
X13054664Y-8400732D01*
X13054664Y-8462332D02*
X13094664Y-8502332D01*
X13094664Y-8462332D02*
X13054664Y-8502332D01*
X13054664Y-8563932D02*
X13094664Y-8603932D01*
X13094664Y-8563932D02*
X13054664Y-8603932D01*
X13054664Y-8741732D02*
X13094664Y-8781732D01*
X13094664Y-8741732D02*
X13054664Y-8781732D01*
X13125784Y-7375212D02*
X13165784Y-7415212D01*
X13165784Y-7375212D02*
X13125784Y-7415212D01*
X13257864Y-7192332D02*
X13297864Y-7232332D01*
X13297864Y-7192332D02*
X13257864Y-7232332D01*
X13626164Y-7408232D02*
X13666164Y-7448232D01*
X13666164Y-7408232D02*
X13626164Y-7448232D01*
X13816664Y-7954332D02*
X13856664Y-7994332D01*
X13856664Y-7954332D02*
X13816664Y-7994332D01*
X14030024Y-7227892D02*
X14070024Y-7267892D01*
X14070024Y-7227892D02*
X14030024Y-7267892D01*
X14807264Y-7243132D02*
X14847264Y-7283132D01*
X14847264Y-7243132D02*
X14807264Y-7283132D01*
X15112064Y-7624132D02*
X15152064Y-7664132D01*
X15152064Y-7624132D02*
X15112064Y-7664132D01*
X15366064Y-6533200D02*
X15406064Y-6573200D01*
X15406064Y-6533200D02*
X15366064Y-6573200D01*
X16229664Y-7217732D02*
X16269664Y-7257732D01*
X16269664Y-7217732D02*
X16229664Y-7257732D01*
X16305864Y-7065332D02*
X16345864Y-7105332D01*
X16345864Y-7065332D02*
X16305864Y-7105332D01*
X16382064Y-7725732D02*
X16422064Y-7765732D01*
X16422064Y-7725732D02*
X16382064Y-7765732D01*
X16412544Y-6486212D02*
X16452544Y-6526212D01*
X16452544Y-6486212D02*
X16412544Y-6526212D01*
X16686864Y-7903532D02*
X16726864Y-7943532D01*
X16726864Y-7903532D02*
X16686864Y-7943532D01*
X17032304Y-7222812D02*
X17072304Y-7262812D01*
X17072304Y-7222812D02*
X17032304Y-7262812D01*
X17829864Y-7370132D02*
X17869864Y-7410132D01*
X17869864Y-7370132D02*
X17829864Y-7410132D01*
X17936544Y-7867972D02*
X17976544Y-7907972D01*
X17976544Y-7867972D02*
X17936544Y-7907972D01*
X18414064Y-6658932D02*
X18454064Y-6698932D01*
X18454064Y-6658932D02*
X18414064Y-6698932D01*
X18490264Y-7420932D02*
X18530264Y-7460932D01*
X18530264Y-7420932D02*
X18490264Y-7460932D01*
X19125264Y-7395532D02*
X19165264Y-7435532D01*
X19165264Y-7395532D02*
X19125264Y-7435532D01*
X19303064Y-6354132D02*
X19343064Y-6394132D01*
X19343064Y-6354132D02*
X19303064Y-6394132D01*
X19328464Y-6816412D02*
X19368464Y-6856412D01*
X19368464Y-6816412D02*
X19328464Y-6856412D01*
X11145764Y-8482332D02*
G75*
G02*
X11070764Y-8482332I-37500J0D01*
G01*
X11070764Y-8482332D02*
G75*
G02*
X11145764Y-8482332I37500J0D01*
G01*
X11145764Y-8609332D02*
G75*
G02*
X11070764Y-8609332I-37500J0D01*
G01*
X11070764Y-8609332D02*
G75*
G02*
X11145764Y-8609332I37500J0D01*
G01*
X11145764Y-8736332D02*
G75*
G02*
X11070764Y-8736332I-37500J0D01*
G01*
X11070764Y-8736332D02*
G75*
G02*
X11145764Y-8736332I37500J0D01*
G01*
X12032264Y-8848732D02*
X12032264Y-8928732D01*
X11992264Y-8888732D02*
X12072264Y-8888732D01*
X12160264Y-7211432D02*
X12160264Y-7291432D01*
X12120264Y-7251432D02*
X12200264Y-7251432D01*
X12160264Y-7465432D02*
X12160264Y-7545432D01*
X12120264Y-7505432D02*
X12200264Y-7505432D01*
X12160264Y-7719432D02*
X12160264Y-7799432D01*
X12120264Y-7759432D02*
X12200264Y-7759432D01*
X12286264Y-8848732D02*
X12286264Y-8928732D01*
X12246264Y-8888732D02*
X12326264Y-8888732D01*
X12540264Y-8848732D02*
X12540264Y-8928732D01*
X12500264Y-8888732D02*
X12580264Y-8888732D01*
X11702219Y-6632688D02*
X11702219Y-6561977D01*
X11631508Y-6561977D01*
X11631508Y-6632688D01*
X11702219Y-6632688D01*
X12902219Y-6632688D02*
X12902219Y-6561977D01*
X12831508Y-6561977D01*
X12831508Y-6632688D01*
X12902219Y-6632688D01*
D12*
X9504680Y-6252280D02*
X9555680Y-6201280D01*
X9504680Y-6150280D01*
X9453680Y-6201280D01*
X9504680Y-6252280D01*
X9504680Y-6552280D02*
X9555680Y-6501280D01*
X9504680Y-6450280D01*
X9453680Y-6501280D01*
X9504680Y-6552280D01*
X9504680Y-6852280D02*
X9555680Y-6801280D01*
X9504680Y-6750280D01*
X9453680Y-6801280D01*
X9504680Y-6852280D01*
X9504680Y-7152280D02*
X9555680Y-7101280D01*
X9504680Y-7050280D01*
X9453680Y-7101280D01*
X9504680Y-7152280D01*
X9504680Y-7452280D02*
X9555680Y-7401280D01*
X9504680Y-7350280D01*
X9453680Y-7401280D01*
X9504680Y-7452280D01*
X9504680Y-7752280D02*
X9555680Y-7701280D01*
X9504680Y-7650280D01*
X9453680Y-7701280D01*
X9504680Y-7752280D01*
X9504680Y-8052280D02*
X9555680Y-8001280D01*
X9504680Y-7950280D01*
X9453680Y-8001280D01*
X9504680Y-8052280D01*
X9804680Y-6252280D02*
X9855680Y-6201280D01*
X9804680Y-6150280D01*
X9753680Y-6201280D01*
X9804680Y-6252280D01*
X9804680Y-6552280D02*
X9855680Y-6501280D01*
X9804680Y-6450280D01*
X9753680Y-6501280D01*
X9804680Y-6552280D01*
X9804680Y-6852280D02*
X9855680Y-6801280D01*
X9804680Y-6750280D01*
X9753680Y-6801280D01*
X9804680Y-6852280D01*
X9804680Y-7152280D02*
X9855680Y-7101280D01*
X9804680Y-7050280D01*
X9753680Y-7101280D01*
X9804680Y-7152280D01*
X9804680Y-7452280D02*
X9855680Y-7401280D01*
X9804680Y-7350280D01*
X9753680Y-7401280D01*
X9804680Y-7452280D01*
X9804680Y-7752280D02*
X9855680Y-7701280D01*
X9804680Y-7650280D01*
X9753680Y-7701280D01*
X9804680Y-7752280D01*
X9804680Y-8052280D02*
X9855680Y-8001280D01*
X9804680Y-7950280D01*
X9753680Y-8001280D01*
X9804680Y-8052280D01*
X19880400Y-7231000D02*
X19931400Y-7180000D01*
X19880400Y-7129000D01*
X19829400Y-7180000D01*
X19880400Y-7231000D01*
X19880400Y-7531000D02*
X19931400Y-7480000D01*
X19880400Y-7429000D01*
X19829400Y-7480000D01*
X19880400Y-7531000D01*
X19880400Y-7831000D02*
X19931400Y-7780000D01*
X19880400Y-7729000D01*
X19829400Y-7780000D01*
X19880400Y-7831000D01*
X19880400Y-8131000D02*
X19931400Y-8080000D01*
X19880400Y-8029000D01*
X19829400Y-8080000D01*
X19880400Y-8131000D01*
X20180400Y-7231000D02*
X20231400Y-7180000D01*
X20180400Y-7129000D01*
X20129400Y-7180000D01*
X20180400Y-7231000D01*
X20180400Y-7531000D02*
X20231400Y-7480000D01*
X20180400Y-7429000D01*
X20129400Y-7480000D01*
X20180400Y-7531000D01*
X20180400Y-7831000D02*
X20231400Y-7780000D01*
X20180400Y-7729000D01*
X20129400Y-7780000D01*
X20180400Y-7831000D01*
X20180400Y-8131000D02*
X20231400Y-8080000D01*
X20180400Y-8029000D01*
X20129400Y-8080000D01*
X20180400Y-8131000D01*
D13*
X10715064Y-6206432D02*
X10824064Y-6315432D01*
X10824064Y-6206432D02*
X10715064Y-6315432D01*
X10824064Y-6260932D02*
G75*
G02*
X10715064Y-6260932I-54500J0D01*
G01*
X10715064Y-6260932D02*
G75*
G02*
X10824064Y-6260932I54500J0D01*
G01*
X10969064Y-6206432D02*
X11078064Y-6315432D01*
X11078064Y-6206432D02*
X10969064Y-6315432D01*
X11078064Y-6260932D02*
G75*
G02*
X10969064Y-6260932I-54500J0D01*
G01*
X10969064Y-6260932D02*
G75*
G02*
X11078064Y-6260932I54500J0D01*
G01*
X13425264Y-6238832D02*
X13534264Y-6347832D01*
X13534264Y-6238832D02*
X13425264Y-6347832D01*
X13534264Y-6293332D02*
G75*
G02*
X13425264Y-6293332I-54500J0D01*
G01*
X13425264Y-6293332D02*
G75*
G02*
X13534264Y-6293332I54500J0D01*
G01*
X13679264Y-6238832D02*
X13788264Y-6347832D01*
X13788264Y-6238832D02*
X13679264Y-6347832D01*
X13788264Y-6293332D02*
G75*
G02*
X13679264Y-6293332I-54500J0D01*
G01*
X13679264Y-6293332D02*
G75*
G02*
X13788264Y-6293332I54500J0D01*
G01*
X13936264Y-6238832D02*
X14045264Y-6347832D01*
X14045264Y-6238832D02*
X13936264Y-6347832D01*
X14045264Y-6293332D02*
G75*
G02*
X13936264Y-6293332I-54500J0D01*
G01*
X13936264Y-6293332D02*
G75*
G02*
X14045264Y-6293332I54500J0D01*
G01*
X14190264Y-6238832D02*
X14299264Y-6347832D01*
X14299264Y-6238832D02*
X14190264Y-6347832D01*
X14299264Y-6293332D02*
G75*
G02*
X14190264Y-6293332I-54500J0D01*
G01*
X14190264Y-6293332D02*
G75*
G02*
X14299264Y-6293332I54500J0D01*
G01*
X14948864Y-6238832D02*
X15057864Y-6347832D01*
X15057864Y-6238832D02*
X14948864Y-6347832D01*
X15057864Y-6293332D02*
G75*
G02*
X14948864Y-6293332I-54500J0D01*
G01*
X14948864Y-6293332D02*
G75*
G02*
X15057864Y-6293332I54500J0D01*
G01*
X15202864Y-6238832D02*
X15311864Y-6347832D01*
X15311864Y-6238832D02*
X15202864Y-6347832D01*
X15311864Y-6293332D02*
G75*
G02*
X15202864Y-6293332I-54500J0D01*
G01*
X15202864Y-6293332D02*
G75*
G02*
X15311864Y-6293332I54500J0D01*
G01*
X15459864Y-6238832D02*
X15568864Y-6347832D01*
X15568864Y-6238832D02*
X15459864Y-6347832D01*
X15568864Y-6293332D02*
G75*
G02*
X15459864Y-6293332I-54500J0D01*
G01*
X15459864Y-6293332D02*
G75*
G02*
X15568864Y-6293332I54500J0D01*
G01*
X15713864Y-6238832D02*
X15822864Y-6347832D01*
X15822864Y-6238832D02*
X15713864Y-6347832D01*
X15822864Y-6293332D02*
G75*
G02*
X15713864Y-6293332I-54500J0D01*
G01*
X15713864Y-6293332D02*
G75*
G02*
X15822864Y-6293332I54500J0D01*
G01*
X16493589Y-6243907D02*
X16602589Y-6352907D01*
X16602589Y-6243907D02*
X16493589Y-6352907D01*
X16602589Y-6298407D02*
G75*
G02*
X16493589Y-6298407I-54500J0D01*
G01*
X16493589Y-6298407D02*
G75*
G02*
X16602589Y-6298407I54500J0D01*
G01*
X16747589Y-6243907D02*
X16856589Y-6352907D01*
X16856589Y-6243907D02*
X16747589Y-6352907D01*
X16856589Y-6298407D02*
G75*
G02*
X16747589Y-6298407I-54500J0D01*
G01*
X16747589Y-6298407D02*
G75*
G02*
X16856589Y-6298407I54500J0D01*
G01*
X17004589Y-6243907D02*
X17113589Y-6352907D01*
X17113589Y-6243907D02*
X17004589Y-6352907D01*
X17113589Y-6298407D02*
G75*
G02*
X17004589Y-6298407I-54500J0D01*
G01*
X17004589Y-6298407D02*
G75*
G02*
X17113589Y-6298407I54500J0D01*
G01*
X17258589Y-6243907D02*
X17367589Y-6352907D01*
X17367589Y-6243907D02*
X17258589Y-6352907D01*
X17367589Y-6298407D02*
G75*
G02*
X17258589Y-6298407I-54500J0D01*
G01*
X17258589Y-6298407D02*
G75*
G02*
X17367589Y-6298407I54500J0D01*
G01*
X18029889Y-6243907D02*
X18138889Y-6352907D01*
X18138889Y-6243907D02*
X18029889Y-6352907D01*
X18138889Y-6298407D02*
G75*
G02*
X18029889Y-6298407I-54500J0D01*
G01*
X18029889Y-6298407D02*
G75*
G02*
X18138889Y-6298407I54500J0D01*
G01*
X18283889Y-6243907D02*
X18392889Y-6352907D01*
X18392889Y-6243907D02*
X18283889Y-6352907D01*
X18392889Y-6298407D02*
G75*
G02*
X18283889Y-6298407I-54500J0D01*
G01*
X18283889Y-6298407D02*
G75*
G02*
X18392889Y-6298407I54500J0D01*
G01*
X18540889Y-6243907D02*
X18649889Y-6352907D01*
X18649889Y-6243907D02*
X18540889Y-6352907D01*
X18649889Y-6298407D02*
G75*
G02*
X18540889Y-6298407I-54500J0D01*
G01*
X18540889Y-6298407D02*
G75*
G02*
X18649889Y-6298407I54500J0D01*
G01*
X18794889Y-6243907D02*
X18903889Y-6352907D01*
X18903889Y-6243907D02*
X18794889Y-6352907D01*
X18903889Y-6298407D02*
G75*
G02*
X18794889Y-6298407I-54500J0D01*
G01*
X18794889Y-6298407D02*
G75*
G02*
X18903889Y-6298407I54500J0D01*
G01*
D14*
X11596864Y-5307332D02*
X11726864Y-5437332D01*
X11726864Y-5307332D02*
X11596864Y-5437332D01*
X11661864Y-5307332D02*
X11661864Y-5437332D01*
X11596864Y-5372332D02*
X11726864Y-5372332D01*
X12196864Y-6727332D02*
X12326864Y-6857332D01*
X12326864Y-6727332D02*
X12196864Y-6857332D01*
X12261864Y-6727332D02*
X12261864Y-6857332D01*
X12196864Y-6792332D02*
X12326864Y-6792332D01*
X12801864Y-5312332D02*
X12931864Y-5442332D01*
X12931864Y-5312332D02*
X12801864Y-5442332D01*
X12866864Y-5312332D02*
X12866864Y-5442332D01*
X12801864Y-5377332D02*
X12931864Y-5377332D01*
D10*
X8753441Y-10791016D02*
X8753441Y-10591016D01*
X8753441Y-10591016D02*
X8801060Y-10591016D01*
X8801060Y-10591016D02*
X8829631Y-10600540D01*
X8829631Y-10600540D02*
X8848679Y-10619588D01*
X8848679Y-10619588D02*
X8858203Y-10638635D01*
X8858203Y-10638635D02*
X8867726Y-10676730D01*
X8867726Y-10676730D02*
X8867726Y-10705302D01*
X8867726Y-10705302D02*
X8858203Y-10743397D01*
X8858203Y-10743397D02*
X8848679Y-10762445D01*
X8848679Y-10762445D02*
X8829631Y-10781492D01*
X8829631Y-10781492D02*
X8801060Y-10791016D01*
X8801060Y-10791016D02*
X8753441Y-10791016D01*
X8953441Y-10791016D02*
X8953441Y-10657683D01*
X8953441Y-10695778D02*
X8962964Y-10676730D01*
X8962964Y-10676730D02*
X8972488Y-10667207D01*
X8972488Y-10667207D02*
X8991536Y-10657683D01*
X8991536Y-10657683D02*
X9010584Y-10657683D01*
X9077250Y-10791016D02*
X9077250Y-10657683D01*
X9077250Y-10591016D02*
X9067726Y-10600540D01*
X9067726Y-10600540D02*
X9077250Y-10610064D01*
X9077250Y-10610064D02*
X9086774Y-10600540D01*
X9086774Y-10600540D02*
X9077250Y-10591016D01*
X9077250Y-10591016D02*
X9077250Y-10610064D01*
X9201060Y-10791016D02*
X9182012Y-10781492D01*
X9182012Y-10781492D02*
X9172488Y-10762445D01*
X9172488Y-10762445D02*
X9172488Y-10591016D01*
X9305822Y-10791016D02*
X9286774Y-10781492D01*
X9286774Y-10781492D02*
X9277250Y-10762445D01*
X9277250Y-10762445D02*
X9277250Y-10591016D01*
X9534393Y-10791016D02*
X9534393Y-10591016D01*
X9534393Y-10591016D02*
X9601060Y-10733873D01*
X9601060Y-10733873D02*
X9667726Y-10591016D01*
X9667726Y-10591016D02*
X9667726Y-10791016D01*
X9848679Y-10791016D02*
X9848679Y-10686254D01*
X9848679Y-10686254D02*
X9839155Y-10667207D01*
X9839155Y-10667207D02*
X9820107Y-10657683D01*
X9820107Y-10657683D02*
X9782012Y-10657683D01*
X9782012Y-10657683D02*
X9762964Y-10667207D01*
X9848679Y-10781492D02*
X9829631Y-10791016D01*
X9829631Y-10791016D02*
X9782012Y-10791016D01*
X9782012Y-10791016D02*
X9762964Y-10781492D01*
X9762964Y-10781492D02*
X9753441Y-10762445D01*
X9753441Y-10762445D02*
X9753441Y-10743397D01*
X9753441Y-10743397D02*
X9762964Y-10724349D01*
X9762964Y-10724349D02*
X9782012Y-10714826D01*
X9782012Y-10714826D02*
X9829631Y-10714826D01*
X9829631Y-10714826D02*
X9848679Y-10705302D01*
X9943917Y-10657683D02*
X9943917Y-10857683D01*
X9943917Y-10667207D02*
X9962964Y-10657683D01*
X9962964Y-10657683D02*
X10001060Y-10657683D01*
X10001060Y-10657683D02*
X10020107Y-10667207D01*
X10020107Y-10667207D02*
X10029631Y-10676730D01*
X10029631Y-10676730D02*
X10039155Y-10695778D01*
X10039155Y-10695778D02*
X10039155Y-10752921D01*
X10039155Y-10752921D02*
X10029631Y-10771968D01*
X10029631Y-10771968D02*
X10020107Y-10781492D01*
X10020107Y-10781492D02*
X10001060Y-10791016D01*
X10001060Y-10791016D02*
X9962964Y-10791016D01*
X9962964Y-10791016D02*
X9943917Y-10781492D01*
X10124869Y-10771968D02*
X10134393Y-10781492D01*
X10134393Y-10781492D02*
X10124869Y-10791016D01*
X10124869Y-10791016D02*
X10115345Y-10781492D01*
X10115345Y-10781492D02*
X10124869Y-10771968D01*
X10124869Y-10771968D02*
X10124869Y-10791016D01*
X10124869Y-10667207D02*
X10134393Y-10676730D01*
X10134393Y-10676730D02*
X10124869Y-10686254D01*
X10124869Y-10686254D02*
X10115345Y-10676730D01*
X10115345Y-10676730D02*
X10124869Y-10667207D01*
X10124869Y-10667207D02*
X10124869Y-10686254D01*
D11*
X8452664Y-11099532D02*
X8492664Y-11139532D01*
X8492664Y-11099532D02*
X8452664Y-11139532D01*
D10*
X8791536Y-11011016D02*
X8810584Y-11011016D01*
X8810584Y-11011016D02*
X8829631Y-11020540D01*
X8829631Y-11020540D02*
X8839155Y-11030064D01*
X8839155Y-11030064D02*
X8848679Y-11049111D01*
X8848679Y-11049111D02*
X8858203Y-11087207D01*
X8858203Y-11087207D02*
X8858203Y-11134826D01*
X8858203Y-11134826D02*
X8848679Y-11172921D01*
X8848679Y-11172921D02*
X8839155Y-11191968D01*
X8839155Y-11191968D02*
X8829631Y-11201492D01*
X8829631Y-11201492D02*
X8810584Y-11211016D01*
X8810584Y-11211016D02*
X8791536Y-11211016D01*
X8791536Y-11211016D02*
X8772488Y-11201492D01*
X8772488Y-11201492D02*
X8762964Y-11191968D01*
X8762964Y-11191968D02*
X8753441Y-11172921D01*
X8753441Y-11172921D02*
X8743917Y-11134826D01*
X8743917Y-11134826D02*
X8743917Y-11087207D01*
X8743917Y-11087207D02*
X8753441Y-11049111D01*
X8753441Y-11049111D02*
X8762964Y-11030064D01*
X8762964Y-11030064D02*
X8772488Y-11020540D01*
X8772488Y-11020540D02*
X8791536Y-11011016D01*
X8943917Y-11191968D02*
X8953441Y-11201492D01*
X8953441Y-11201492D02*
X8943917Y-11211016D01*
X8943917Y-11211016D02*
X8934393Y-11201492D01*
X8934393Y-11201492D02*
X8943917Y-11191968D01*
X8943917Y-11191968D02*
X8943917Y-11211016D01*
X9124869Y-11077683D02*
X9124869Y-11211016D01*
X9077250Y-11001492D02*
X9029631Y-11144349D01*
X9029631Y-11144349D02*
X9153441Y-11144349D01*
X9267726Y-11011016D02*
X9286774Y-11011016D01*
X9286774Y-11011016D02*
X9305822Y-11020540D01*
X9305822Y-11020540D02*
X9315345Y-11030064D01*
X9315345Y-11030064D02*
X9324869Y-11049111D01*
X9324869Y-11049111D02*
X9334393Y-11087207D01*
X9334393Y-11087207D02*
X9334393Y-11134826D01*
X9334393Y-11134826D02*
X9324869Y-11172921D01*
X9324869Y-11172921D02*
X9315345Y-11191968D01*
X9315345Y-11191968D02*
X9305822Y-11201492D01*
X9305822Y-11201492D02*
X9286774Y-11211016D01*
X9286774Y-11211016D02*
X9267726Y-11211016D01*
X9267726Y-11211016D02*
X9248679Y-11201492D01*
X9248679Y-11201492D02*
X9239155Y-11191968D01*
X9239155Y-11191968D02*
X9229631Y-11172921D01*
X9229631Y-11172921D02*
X9220107Y-11134826D01*
X9220107Y-11134826D02*
X9220107Y-11087207D01*
X9220107Y-11087207D02*
X9229631Y-11049111D01*
X9229631Y-11049111D02*
X9239155Y-11030064D01*
X9239155Y-11030064D02*
X9248679Y-11020540D01*
X9248679Y-11020540D02*
X9267726Y-11011016D01*
X9458203Y-11011016D02*
X9477250Y-11011016D01*
X9477250Y-11011016D02*
X9496298Y-11020540D01*
X9496298Y-11020540D02*
X9505822Y-11030064D01*
X9505822Y-11030064D02*
X9515345Y-11049111D01*
X9515345Y-11049111D02*
X9524869Y-11087207D01*
X9524869Y-11087207D02*
X9524869Y-11134826D01*
X9524869Y-11134826D02*
X9515345Y-11172921D01*
X9515345Y-11172921D02*
X9505822Y-11191968D01*
X9505822Y-11191968D02*
X9496298Y-11201492D01*
X9496298Y-11201492D02*
X9477250Y-11211016D01*
X9477250Y-11211016D02*
X9458203Y-11211016D01*
X9458203Y-11211016D02*
X9439155Y-11201492D01*
X9439155Y-11201492D02*
X9429631Y-11191968D01*
X9429631Y-11191968D02*
X9420107Y-11172921D01*
X9420107Y-11172921D02*
X9410584Y-11134826D01*
X9410584Y-11134826D02*
X9410584Y-11087207D01*
X9410584Y-11087207D02*
X9420107Y-11049111D01*
X9420107Y-11049111D02*
X9429631Y-11030064D01*
X9429631Y-11030064D02*
X9439155Y-11020540D01*
X9439155Y-11020540D02*
X9458203Y-11011016D01*
X9610584Y-11211016D02*
X9610584Y-11077683D01*
X9610584Y-11096730D02*
X9620107Y-11087207D01*
X9620107Y-11087207D02*
X9639155Y-11077683D01*
X9639155Y-11077683D02*
X9667726Y-11077683D01*
X9667726Y-11077683D02*
X9686774Y-11087207D01*
X9686774Y-11087207D02*
X9696298Y-11106254D01*
X9696298Y-11106254D02*
X9696298Y-11211016D01*
X9696298Y-11106254D02*
X9705822Y-11087207D01*
X9705822Y-11087207D02*
X9724869Y-11077683D01*
X9724869Y-11077683D02*
X9753441Y-11077683D01*
X9753441Y-11077683D02*
X9772488Y-11087207D01*
X9772488Y-11087207D02*
X9782012Y-11106254D01*
X9782012Y-11106254D02*
X9782012Y-11211016D01*
X9877250Y-11211016D02*
X9877250Y-11077683D01*
X9877250Y-11096730D02*
X9886774Y-11087207D01*
X9886774Y-11087207D02*
X9905822Y-11077683D01*
X9905822Y-11077683D02*
X9934393Y-11077683D01*
X9934393Y-11077683D02*
X9953441Y-11087207D01*
X9953441Y-11087207D02*
X9962965Y-11106254D01*
X9962965Y-11106254D02*
X9962965Y-11211016D01*
X9962965Y-11106254D02*
X9972488Y-11087207D01*
X9972488Y-11087207D02*
X9991536Y-11077683D01*
X9991536Y-11077683D02*
X10020107Y-11077683D01*
X10020107Y-11077683D02*
X10039155Y-11087207D01*
X10039155Y-11087207D02*
X10048679Y-11106254D01*
X10048679Y-11106254D02*
X10048679Y-11211016D01*
X10439155Y-11001492D02*
X10267727Y-11258635D01*
X10696298Y-11011016D02*
X10715346Y-11011016D01*
X10715346Y-11011016D02*
X10734393Y-11020540D01*
X10734393Y-11020540D02*
X10743917Y-11030064D01*
X10743917Y-11030064D02*
X10753441Y-11049111D01*
X10753441Y-11049111D02*
X10762965Y-11087207D01*
X10762965Y-11087207D02*
X10762965Y-11134826D01*
X10762965Y-11134826D02*
X10753441Y-11172921D01*
X10753441Y-11172921D02*
X10743917Y-11191968D01*
X10743917Y-11191968D02*
X10734393Y-11201492D01*
X10734393Y-11201492D02*
X10715346Y-11211016D01*
X10715346Y-11211016D02*
X10696298Y-11211016D01*
X10696298Y-11211016D02*
X10677250Y-11201492D01*
X10677250Y-11201492D02*
X10667727Y-11191968D01*
X10667727Y-11191968D02*
X10658203Y-11172921D01*
X10658203Y-11172921D02*
X10648679Y-11134826D01*
X10648679Y-11134826D02*
X10648679Y-11087207D01*
X10648679Y-11087207D02*
X10658203Y-11049111D01*
X10658203Y-11049111D02*
X10667727Y-11030064D01*
X10667727Y-11030064D02*
X10677250Y-11020540D01*
X10677250Y-11020540D02*
X10696298Y-11011016D01*
X10848679Y-11191968D02*
X10858203Y-11201492D01*
X10858203Y-11201492D02*
X10848679Y-11211016D01*
X10848679Y-11211016D02*
X10839155Y-11201492D01*
X10839155Y-11201492D02*
X10848679Y-11191968D01*
X10848679Y-11191968D02*
X10848679Y-11211016D01*
X10982012Y-11011016D02*
X11001060Y-11011016D01*
X11001060Y-11011016D02*
X11020108Y-11020540D01*
X11020108Y-11020540D02*
X11029631Y-11030064D01*
X11029631Y-11030064D02*
X11039155Y-11049111D01*
X11039155Y-11049111D02*
X11048679Y-11087207D01*
X11048679Y-11087207D02*
X11048679Y-11134826D01*
X11048679Y-11134826D02*
X11039155Y-11172921D01*
X11039155Y-11172921D02*
X11029631Y-11191968D01*
X11029631Y-11191968D02*
X11020108Y-11201492D01*
X11020108Y-11201492D02*
X11001060Y-11211016D01*
X11001060Y-11211016D02*
X10982012Y-11211016D01*
X10982012Y-11211016D02*
X10962965Y-11201492D01*
X10962965Y-11201492D02*
X10953441Y-11191968D01*
X10953441Y-11191968D02*
X10943917Y-11172921D01*
X10943917Y-11172921D02*
X10934393Y-11134826D01*
X10934393Y-11134826D02*
X10934393Y-11087207D01*
X10934393Y-11087207D02*
X10943917Y-11049111D01*
X10943917Y-11049111D02*
X10953441Y-11030064D01*
X10953441Y-11030064D02*
X10962965Y-11020540D01*
X10962965Y-11020540D02*
X10982012Y-11011016D01*
X11239155Y-11211016D02*
X11124869Y-11211016D01*
X11182012Y-11211016D02*
X11182012Y-11011016D01*
X11182012Y-11011016D02*
X11162965Y-11039588D01*
X11162965Y-11039588D02*
X11143917Y-11058635D01*
X11143917Y-11058635D02*
X11124869Y-11068159D01*
X11420107Y-11011016D02*
X11324869Y-11011016D01*
X11324869Y-11011016D02*
X11315346Y-11106254D01*
X11315346Y-11106254D02*
X11324869Y-11096730D01*
X11324869Y-11096730D02*
X11343917Y-11087207D01*
X11343917Y-11087207D02*
X11391536Y-11087207D01*
X11391536Y-11087207D02*
X11410584Y-11096730D01*
X11410584Y-11096730D02*
X11420107Y-11106254D01*
X11420107Y-11106254D02*
X11429631Y-11125302D01*
X11429631Y-11125302D02*
X11429631Y-11172921D01*
X11429631Y-11172921D02*
X11420107Y-11191968D01*
X11420107Y-11191968D02*
X11410584Y-11201492D01*
X11410584Y-11201492D02*
X11391536Y-11211016D01*
X11391536Y-11211016D02*
X11343917Y-11211016D01*
X11343917Y-11211016D02*
X11324869Y-11201492D01*
X11324869Y-11201492D02*
X11315346Y-11191968D01*
X11496298Y-11011016D02*
X11629631Y-11011016D01*
X11629631Y-11011016D02*
X11543917Y-11211016D01*
X11696298Y-11011016D02*
X11696298Y-11049111D01*
X11772488Y-11011016D02*
X11772488Y-11049111D01*
X12067727Y-11287206D02*
X12058203Y-11277683D01*
X12058203Y-11277683D02*
X12039155Y-11249111D01*
X12039155Y-11249111D02*
X12029631Y-11230064D01*
X12029631Y-11230064D02*
X12020108Y-11201492D01*
X12020108Y-11201492D02*
X12010584Y-11153873D01*
X12010584Y-11153873D02*
X12010584Y-11115778D01*
X12010584Y-11115778D02*
X12020108Y-11068159D01*
X12020108Y-11068159D02*
X12029631Y-11039588D01*
X12029631Y-11039588D02*
X12039155Y-11020540D01*
X12039155Y-11020540D02*
X12058203Y-10991968D01*
X12058203Y-10991968D02*
X12067727Y-10982445D01*
X12124869Y-11011016D02*
X12248679Y-11011016D01*
X12248679Y-11011016D02*
X12182012Y-11087207D01*
X12182012Y-11087207D02*
X12210584Y-11087207D01*
X12210584Y-11087207D02*
X12229631Y-11096730D01*
X12229631Y-11096730D02*
X12239155Y-11106254D01*
X12239155Y-11106254D02*
X12248679Y-11125302D01*
X12248679Y-11125302D02*
X12248679Y-11172921D01*
X12248679Y-11172921D02*
X12239155Y-11191968D01*
X12239155Y-11191968D02*
X12229631Y-11201492D01*
X12229631Y-11201492D02*
X12210584Y-11211016D01*
X12210584Y-11211016D02*
X12153441Y-11211016D01*
X12153441Y-11211016D02*
X12134393Y-11201492D01*
X12134393Y-11201492D02*
X12124869Y-11191968D01*
X12420108Y-11077683D02*
X12420108Y-11211016D01*
X12372488Y-11001492D02*
X12324869Y-11144349D01*
X12324869Y-11144349D02*
X12448679Y-11144349D01*
X12677250Y-11211016D02*
X12677250Y-11011016D01*
X12762965Y-11211016D02*
X12762965Y-11106254D01*
X12762965Y-11106254D02*
X12753441Y-11087207D01*
X12753441Y-11087207D02*
X12734393Y-11077683D01*
X12734393Y-11077683D02*
X12705822Y-11077683D01*
X12705822Y-11077683D02*
X12686774Y-11087207D01*
X12686774Y-11087207D02*
X12677250Y-11096730D01*
X12886774Y-11211016D02*
X12867727Y-11201492D01*
X12867727Y-11201492D02*
X12858203Y-11191968D01*
X12858203Y-11191968D02*
X12848679Y-11172921D01*
X12848679Y-11172921D02*
X12848679Y-11115778D01*
X12848679Y-11115778D02*
X12858203Y-11096730D01*
X12858203Y-11096730D02*
X12867727Y-11087207D01*
X12867727Y-11087207D02*
X12886774Y-11077683D01*
X12886774Y-11077683D02*
X12915346Y-11077683D01*
X12915346Y-11077683D02*
X12934393Y-11087207D01*
X12934393Y-11087207D02*
X12943917Y-11096730D01*
X12943917Y-11096730D02*
X12953441Y-11115778D01*
X12953441Y-11115778D02*
X12953441Y-11172921D01*
X12953441Y-11172921D02*
X12943917Y-11191968D01*
X12943917Y-11191968D02*
X12934393Y-11201492D01*
X12934393Y-11201492D02*
X12915346Y-11211016D01*
X12915346Y-11211016D02*
X12886774Y-11211016D01*
X13067727Y-11211016D02*
X13048679Y-11201492D01*
X13048679Y-11201492D02*
X13039155Y-11182445D01*
X13039155Y-11182445D02*
X13039155Y-11011016D01*
X13220108Y-11201492D02*
X13201060Y-11211016D01*
X13201060Y-11211016D02*
X13162965Y-11211016D01*
X13162965Y-11211016D02*
X13143917Y-11201492D01*
X13143917Y-11201492D02*
X13134393Y-11182445D01*
X13134393Y-11182445D02*
X13134393Y-11106254D01*
X13134393Y-11106254D02*
X13143917Y-11087207D01*
X13143917Y-11087207D02*
X13162965Y-11077683D01*
X13162965Y-11077683D02*
X13201060Y-11077683D01*
X13201060Y-11077683D02*
X13220108Y-11087207D01*
X13220108Y-11087207D02*
X13229631Y-11106254D01*
X13229631Y-11106254D02*
X13229631Y-11125302D01*
X13229631Y-11125302D02*
X13134393Y-11144349D01*
X13305822Y-11201492D02*
X13324870Y-11211016D01*
X13324870Y-11211016D02*
X13362965Y-11211016D01*
X13362965Y-11211016D02*
X13382012Y-11201492D01*
X13382012Y-11201492D02*
X13391536Y-11182445D01*
X13391536Y-11182445D02*
X13391536Y-11172921D01*
X13391536Y-11172921D02*
X13382012Y-11153873D01*
X13382012Y-11153873D02*
X13362965Y-11144349D01*
X13362965Y-11144349D02*
X13334393Y-11144349D01*
X13334393Y-11144349D02*
X13315346Y-11134826D01*
X13315346Y-11134826D02*
X13305822Y-11115778D01*
X13305822Y-11115778D02*
X13305822Y-11106254D01*
X13305822Y-11106254D02*
X13315346Y-11087207D01*
X13315346Y-11087207D02*
X13334393Y-11077683D01*
X13334393Y-11077683D02*
X13362965Y-11077683D01*
X13362965Y-11077683D02*
X13382012Y-11087207D01*
X13458203Y-11287206D02*
X13467727Y-11277683D01*
X13467727Y-11277683D02*
X13486774Y-11249111D01*
X13486774Y-11249111D02*
X13496298Y-11230064D01*
X13496298Y-11230064D02*
X13505822Y-11201492D01*
X13505822Y-11201492D02*
X13515346Y-11153873D01*
X13515346Y-11153873D02*
X13515346Y-11115778D01*
X13515346Y-11115778D02*
X13505822Y-11068159D01*
X13505822Y-11068159D02*
X13496298Y-11039588D01*
X13496298Y-11039588D02*
X13486774Y-11020540D01*
X13486774Y-11020540D02*
X13467727Y-10991968D01*
X13467727Y-10991968D02*
X13458203Y-10982445D01*
D11*
X8492664Y-11383532D02*
G75*
G02*
X8417664Y-11383532I-37500J0D01*
G01*
X8417664Y-11383532D02*
G75*
G02*
X8492664Y-11383532I37500J0D01*
G01*
D10*
X8791536Y-11275016D02*
X8810584Y-11275016D01*
X8810584Y-11275016D02*
X8829631Y-11284540D01*
X8829631Y-11284540D02*
X8839155Y-11294064D01*
X8839155Y-11294064D02*
X8848679Y-11313111D01*
X8848679Y-11313111D02*
X8858203Y-11351206D01*
X8858203Y-11351206D02*
X8858203Y-11398826D01*
X8858203Y-11398826D02*
X8848679Y-11436921D01*
X8848679Y-11436921D02*
X8839155Y-11455968D01*
X8839155Y-11455968D02*
X8829631Y-11465492D01*
X8829631Y-11465492D02*
X8810584Y-11475016D01*
X8810584Y-11475016D02*
X8791536Y-11475016D01*
X8791536Y-11475016D02*
X8772488Y-11465492D01*
X8772488Y-11465492D02*
X8762964Y-11455968D01*
X8762964Y-11455968D02*
X8753441Y-11436921D01*
X8753441Y-11436921D02*
X8743917Y-11398826D01*
X8743917Y-11398826D02*
X8743917Y-11351206D01*
X8743917Y-11351206D02*
X8753441Y-11313111D01*
X8753441Y-11313111D02*
X8762964Y-11294064D01*
X8762964Y-11294064D02*
X8772488Y-11284540D01*
X8772488Y-11284540D02*
X8791536Y-11275016D01*
X8943917Y-11455968D02*
X8953441Y-11465492D01*
X8953441Y-11465492D02*
X8943917Y-11475016D01*
X8943917Y-11475016D02*
X8934393Y-11465492D01*
X8934393Y-11465492D02*
X8943917Y-11455968D01*
X8943917Y-11455968D02*
X8943917Y-11475016D01*
X9020107Y-11275016D02*
X9153441Y-11275016D01*
X9153441Y-11275016D02*
X9067726Y-11475016D01*
X9324869Y-11275016D02*
X9229631Y-11275016D01*
X9229631Y-11275016D02*
X9220107Y-11370254D01*
X9220107Y-11370254D02*
X9229631Y-11360730D01*
X9229631Y-11360730D02*
X9248679Y-11351206D01*
X9248679Y-11351206D02*
X9296298Y-11351206D01*
X9296298Y-11351206D02*
X9315345Y-11360730D01*
X9315345Y-11360730D02*
X9324869Y-11370254D01*
X9324869Y-11370254D02*
X9334393Y-11389302D01*
X9334393Y-11389302D02*
X9334393Y-11436921D01*
X9334393Y-11436921D02*
X9324869Y-11455968D01*
X9324869Y-11455968D02*
X9315345Y-11465492D01*
X9315345Y-11465492D02*
X9296298Y-11475016D01*
X9296298Y-11475016D02*
X9248679Y-11475016D01*
X9248679Y-11475016D02*
X9229631Y-11465492D01*
X9229631Y-11465492D02*
X9220107Y-11455968D01*
X9458203Y-11275016D02*
X9477250Y-11275016D01*
X9477250Y-11275016D02*
X9496298Y-11284540D01*
X9496298Y-11284540D02*
X9505822Y-11294064D01*
X9505822Y-11294064D02*
X9515345Y-11313111D01*
X9515345Y-11313111D02*
X9524869Y-11351206D01*
X9524869Y-11351206D02*
X9524869Y-11398826D01*
X9524869Y-11398826D02*
X9515345Y-11436921D01*
X9515345Y-11436921D02*
X9505822Y-11455968D01*
X9505822Y-11455968D02*
X9496298Y-11465492D01*
X9496298Y-11465492D02*
X9477250Y-11475016D01*
X9477250Y-11475016D02*
X9458203Y-11475016D01*
X9458203Y-11475016D02*
X9439155Y-11465492D01*
X9439155Y-11465492D02*
X9429631Y-11455968D01*
X9429631Y-11455968D02*
X9420107Y-11436921D01*
X9420107Y-11436921D02*
X9410584Y-11398826D01*
X9410584Y-11398826D02*
X9410584Y-11351206D01*
X9410584Y-11351206D02*
X9420107Y-11313111D01*
X9420107Y-11313111D02*
X9429631Y-11294064D01*
X9429631Y-11294064D02*
X9439155Y-11284540D01*
X9439155Y-11284540D02*
X9458203Y-11275016D01*
X9610584Y-11475016D02*
X9610584Y-11341683D01*
X9610584Y-11360730D02*
X9620107Y-11351206D01*
X9620107Y-11351206D02*
X9639155Y-11341683D01*
X9639155Y-11341683D02*
X9667726Y-11341683D01*
X9667726Y-11341683D02*
X9686774Y-11351206D01*
X9686774Y-11351206D02*
X9696298Y-11370254D01*
X9696298Y-11370254D02*
X9696298Y-11475016D01*
X9696298Y-11370254D02*
X9705822Y-11351206D01*
X9705822Y-11351206D02*
X9724869Y-11341683D01*
X9724869Y-11341683D02*
X9753441Y-11341683D01*
X9753441Y-11341683D02*
X9772488Y-11351206D01*
X9772488Y-11351206D02*
X9782012Y-11370254D01*
X9782012Y-11370254D02*
X9782012Y-11475016D01*
X9877250Y-11475016D02*
X9877250Y-11341683D01*
X9877250Y-11360730D02*
X9886774Y-11351206D01*
X9886774Y-11351206D02*
X9905822Y-11341683D01*
X9905822Y-11341683D02*
X9934393Y-11341683D01*
X9934393Y-11341683D02*
X9953441Y-11351206D01*
X9953441Y-11351206D02*
X9962965Y-11370254D01*
X9962965Y-11370254D02*
X9962965Y-11475016D01*
X9962965Y-11370254D02*
X9972488Y-11351206D01*
X9972488Y-11351206D02*
X9991536Y-11341683D01*
X9991536Y-11341683D02*
X10020107Y-11341683D01*
X10020107Y-11341683D02*
X10039155Y-11351206D01*
X10039155Y-11351206D02*
X10048679Y-11370254D01*
X10048679Y-11370254D02*
X10048679Y-11475016D01*
X10439155Y-11265492D02*
X10267727Y-11522635D01*
X10696298Y-11275016D02*
X10715346Y-11275016D01*
X10715346Y-11275016D02*
X10734393Y-11284540D01*
X10734393Y-11284540D02*
X10743917Y-11294064D01*
X10743917Y-11294064D02*
X10753441Y-11313111D01*
X10753441Y-11313111D02*
X10762965Y-11351206D01*
X10762965Y-11351206D02*
X10762965Y-11398826D01*
X10762965Y-11398826D02*
X10753441Y-11436921D01*
X10753441Y-11436921D02*
X10743917Y-11455968D01*
X10743917Y-11455968D02*
X10734393Y-11465492D01*
X10734393Y-11465492D02*
X10715346Y-11475016D01*
X10715346Y-11475016D02*
X10696298Y-11475016D01*
X10696298Y-11475016D02*
X10677250Y-11465492D01*
X10677250Y-11465492D02*
X10667727Y-11455968D01*
X10667727Y-11455968D02*
X10658203Y-11436921D01*
X10658203Y-11436921D02*
X10648679Y-11398826D01*
X10648679Y-11398826D02*
X10648679Y-11351206D01*
X10648679Y-11351206D02*
X10658203Y-11313111D01*
X10658203Y-11313111D02*
X10667727Y-11294064D01*
X10667727Y-11294064D02*
X10677250Y-11284540D01*
X10677250Y-11284540D02*
X10696298Y-11275016D01*
X10848679Y-11455968D02*
X10858203Y-11465492D01*
X10858203Y-11465492D02*
X10848679Y-11475016D01*
X10848679Y-11475016D02*
X10839155Y-11465492D01*
X10839155Y-11465492D02*
X10848679Y-11455968D01*
X10848679Y-11455968D02*
X10848679Y-11475016D01*
X10982012Y-11275016D02*
X11001060Y-11275016D01*
X11001060Y-11275016D02*
X11020108Y-11284540D01*
X11020108Y-11284540D02*
X11029631Y-11294064D01*
X11029631Y-11294064D02*
X11039155Y-11313111D01*
X11039155Y-11313111D02*
X11048679Y-11351206D01*
X11048679Y-11351206D02*
X11048679Y-11398826D01*
X11048679Y-11398826D02*
X11039155Y-11436921D01*
X11039155Y-11436921D02*
X11029631Y-11455968D01*
X11029631Y-11455968D02*
X11020108Y-11465492D01*
X11020108Y-11465492D02*
X11001060Y-11475016D01*
X11001060Y-11475016D02*
X10982012Y-11475016D01*
X10982012Y-11475016D02*
X10962965Y-11465492D01*
X10962965Y-11465492D02*
X10953441Y-11455968D01*
X10953441Y-11455968D02*
X10943917Y-11436921D01*
X10943917Y-11436921D02*
X10934393Y-11398826D01*
X10934393Y-11398826D02*
X10934393Y-11351206D01*
X10934393Y-11351206D02*
X10943917Y-11313111D01*
X10943917Y-11313111D02*
X10953441Y-11294064D01*
X10953441Y-11294064D02*
X10962965Y-11284540D01*
X10962965Y-11284540D02*
X10982012Y-11275016D01*
X11124869Y-11294064D02*
X11134393Y-11284540D01*
X11134393Y-11284540D02*
X11153441Y-11275016D01*
X11153441Y-11275016D02*
X11201060Y-11275016D01*
X11201060Y-11275016D02*
X11220107Y-11284540D01*
X11220107Y-11284540D02*
X11229631Y-11294064D01*
X11229631Y-11294064D02*
X11239155Y-11313111D01*
X11239155Y-11313111D02*
X11239155Y-11332159D01*
X11239155Y-11332159D02*
X11229631Y-11360730D01*
X11229631Y-11360730D02*
X11115346Y-11475016D01*
X11115346Y-11475016D02*
X11239155Y-11475016D01*
X11334393Y-11475016D02*
X11372488Y-11475016D01*
X11372488Y-11475016D02*
X11391536Y-11465492D01*
X11391536Y-11465492D02*
X11401060Y-11455968D01*
X11401060Y-11455968D02*
X11420107Y-11427397D01*
X11420107Y-11427397D02*
X11429631Y-11389302D01*
X11429631Y-11389302D02*
X11429631Y-11313111D01*
X11429631Y-11313111D02*
X11420107Y-11294064D01*
X11420107Y-11294064D02*
X11410584Y-11284540D01*
X11410584Y-11284540D02*
X11391536Y-11275016D01*
X11391536Y-11275016D02*
X11353441Y-11275016D01*
X11353441Y-11275016D02*
X11334393Y-11284540D01*
X11334393Y-11284540D02*
X11324869Y-11294064D01*
X11324869Y-11294064D02*
X11315346Y-11313111D01*
X11315346Y-11313111D02*
X11315346Y-11360730D01*
X11315346Y-11360730D02*
X11324869Y-11379778D01*
X11324869Y-11379778D02*
X11334393Y-11389302D01*
X11334393Y-11389302D02*
X11353441Y-11398826D01*
X11353441Y-11398826D02*
X11391536Y-11398826D01*
X11391536Y-11398826D02*
X11410584Y-11389302D01*
X11410584Y-11389302D02*
X11420107Y-11379778D01*
X11420107Y-11379778D02*
X11429631Y-11360730D01*
X11610584Y-11275016D02*
X11515346Y-11275016D01*
X11515346Y-11275016D02*
X11505822Y-11370254D01*
X11505822Y-11370254D02*
X11515346Y-11360730D01*
X11515346Y-11360730D02*
X11534393Y-11351206D01*
X11534393Y-11351206D02*
X11582012Y-11351206D01*
X11582012Y-11351206D02*
X11601060Y-11360730D01*
X11601060Y-11360730D02*
X11610584Y-11370254D01*
X11610584Y-11370254D02*
X11620107Y-11389302D01*
X11620107Y-11389302D02*
X11620107Y-11436921D01*
X11620107Y-11436921D02*
X11610584Y-11455968D01*
X11610584Y-11455968D02*
X11601060Y-11465492D01*
X11601060Y-11465492D02*
X11582012Y-11475016D01*
X11582012Y-11475016D02*
X11534393Y-11475016D01*
X11534393Y-11475016D02*
X11515346Y-11465492D01*
X11515346Y-11465492D02*
X11505822Y-11455968D01*
X11696298Y-11275016D02*
X11696298Y-11313111D01*
X11772488Y-11275016D02*
X11772488Y-11313111D01*
X12067727Y-11551206D02*
X12058203Y-11541683D01*
X12058203Y-11541683D02*
X12039155Y-11513111D01*
X12039155Y-11513111D02*
X12029631Y-11494064D01*
X12029631Y-11494064D02*
X12020108Y-11465492D01*
X12020108Y-11465492D02*
X12010584Y-11417873D01*
X12010584Y-11417873D02*
X12010584Y-11379778D01*
X12010584Y-11379778D02*
X12020108Y-11332159D01*
X12020108Y-11332159D02*
X12029631Y-11303587D01*
X12029631Y-11303587D02*
X12039155Y-11284540D01*
X12039155Y-11284540D02*
X12058203Y-11255968D01*
X12058203Y-11255968D02*
X12067727Y-11246445D01*
X12124869Y-11275016D02*
X12248679Y-11275016D01*
X12248679Y-11275016D02*
X12182012Y-11351206D01*
X12182012Y-11351206D02*
X12210584Y-11351206D01*
X12210584Y-11351206D02*
X12229631Y-11360730D01*
X12229631Y-11360730D02*
X12239155Y-11370254D01*
X12239155Y-11370254D02*
X12248679Y-11389302D01*
X12248679Y-11389302D02*
X12248679Y-11436921D01*
X12248679Y-11436921D02*
X12239155Y-11455968D01*
X12239155Y-11455968D02*
X12229631Y-11465492D01*
X12229631Y-11465492D02*
X12210584Y-11475016D01*
X12210584Y-11475016D02*
X12153441Y-11475016D01*
X12153441Y-11475016D02*
X12134393Y-11465492D01*
X12134393Y-11465492D02*
X12124869Y-11455968D01*
X12486774Y-11475016D02*
X12486774Y-11275016D01*
X12572489Y-11475016D02*
X12572489Y-11370254D01*
X12572489Y-11370254D02*
X12562965Y-11351206D01*
X12562965Y-11351206D02*
X12543917Y-11341683D01*
X12543917Y-11341683D02*
X12515346Y-11341683D01*
X12515346Y-11341683D02*
X12496298Y-11351206D01*
X12496298Y-11351206D02*
X12486774Y-11360730D01*
X12696298Y-11475016D02*
X12677250Y-11465492D01*
X12677250Y-11465492D02*
X12667727Y-11455968D01*
X12667727Y-11455968D02*
X12658203Y-11436921D01*
X12658203Y-11436921D02*
X12658203Y-11379778D01*
X12658203Y-11379778D02*
X12667727Y-11360730D01*
X12667727Y-11360730D02*
X12677250Y-11351206D01*
X12677250Y-11351206D02*
X12696298Y-11341683D01*
X12696298Y-11341683D02*
X12724870Y-11341683D01*
X12724870Y-11341683D02*
X12743917Y-11351206D01*
X12743917Y-11351206D02*
X12753441Y-11360730D01*
X12753441Y-11360730D02*
X12762965Y-11379778D01*
X12762965Y-11379778D02*
X12762965Y-11436921D01*
X12762965Y-11436921D02*
X12753441Y-11455968D01*
X12753441Y-11455968D02*
X12743917Y-11465492D01*
X12743917Y-11465492D02*
X12724870Y-11475016D01*
X12724870Y-11475016D02*
X12696298Y-11475016D01*
X12877250Y-11475016D02*
X12858203Y-11465492D01*
X12858203Y-11465492D02*
X12848679Y-11446445D01*
X12848679Y-11446445D02*
X12848679Y-11275016D01*
X13029631Y-11465492D02*
X13010584Y-11475016D01*
X13010584Y-11475016D02*
X12972489Y-11475016D01*
X12972489Y-11475016D02*
X12953441Y-11465492D01*
X12953441Y-11465492D02*
X12943917Y-11446445D01*
X12943917Y-11446445D02*
X12943917Y-11370254D01*
X12943917Y-11370254D02*
X12953441Y-11351206D01*
X12953441Y-11351206D02*
X12972489Y-11341683D01*
X12972489Y-11341683D02*
X13010584Y-11341683D01*
X13010584Y-11341683D02*
X13029631Y-11351206D01*
X13029631Y-11351206D02*
X13039155Y-11370254D01*
X13039155Y-11370254D02*
X13039155Y-11389302D01*
X13039155Y-11389302D02*
X12943917Y-11408349D01*
X13115346Y-11465492D02*
X13134393Y-11475016D01*
X13134393Y-11475016D02*
X13172489Y-11475016D01*
X13172489Y-11475016D02*
X13191536Y-11465492D01*
X13191536Y-11465492D02*
X13201060Y-11446445D01*
X13201060Y-11446445D02*
X13201060Y-11436921D01*
X13201060Y-11436921D02*
X13191536Y-11417873D01*
X13191536Y-11417873D02*
X13172489Y-11408349D01*
X13172489Y-11408349D02*
X13143917Y-11408349D01*
X13143917Y-11408349D02*
X13124870Y-11398826D01*
X13124870Y-11398826D02*
X13115346Y-11379778D01*
X13115346Y-11379778D02*
X13115346Y-11370254D01*
X13115346Y-11370254D02*
X13124870Y-11351206D01*
X13124870Y-11351206D02*
X13143917Y-11341683D01*
X13143917Y-11341683D02*
X13172489Y-11341683D01*
X13172489Y-11341683D02*
X13191536Y-11351206D01*
X13267727Y-11551206D02*
X13277251Y-11541683D01*
X13277251Y-11541683D02*
X13296298Y-11513111D01*
X13296298Y-11513111D02*
X13305822Y-11494064D01*
X13305822Y-11494064D02*
X13315346Y-11465492D01*
X13315346Y-11465492D02*
X13324870Y-11417873D01*
X13324870Y-11417873D02*
X13324870Y-11379778D01*
X13324870Y-11379778D02*
X13315346Y-11332159D01*
X13315346Y-11332159D02*
X13305822Y-11303587D01*
X13305822Y-11303587D02*
X13296298Y-11284540D01*
X13296298Y-11284540D02*
X13277251Y-11255968D01*
X13277251Y-11255968D02*
X13267727Y-11246445D01*
D11*
X8452664Y-11607532D02*
X8452664Y-11687532D01*
X8412664Y-11647532D02*
X8492664Y-11647532D01*
D10*
X8791536Y-11539016D02*
X8810584Y-11539016D01*
X8810584Y-11539016D02*
X8829631Y-11548540D01*
X8829631Y-11548540D02*
X8839155Y-11558064D01*
X8839155Y-11558064D02*
X8848679Y-11577111D01*
X8848679Y-11577111D02*
X8858203Y-11615206D01*
X8858203Y-11615206D02*
X8858203Y-11662826D01*
X8858203Y-11662826D02*
X8848679Y-11700921D01*
X8848679Y-11700921D02*
X8839155Y-11719968D01*
X8839155Y-11719968D02*
X8829631Y-11729492D01*
X8829631Y-11729492D02*
X8810584Y-11739016D01*
X8810584Y-11739016D02*
X8791536Y-11739016D01*
X8791536Y-11739016D02*
X8772488Y-11729492D01*
X8772488Y-11729492D02*
X8762964Y-11719968D01*
X8762964Y-11719968D02*
X8753441Y-11700921D01*
X8753441Y-11700921D02*
X8743917Y-11662826D01*
X8743917Y-11662826D02*
X8743917Y-11615206D01*
X8743917Y-11615206D02*
X8753441Y-11577111D01*
X8753441Y-11577111D02*
X8762964Y-11558064D01*
X8762964Y-11558064D02*
X8772488Y-11548540D01*
X8772488Y-11548540D02*
X8791536Y-11539016D01*
X8943917Y-11719968D02*
X8953441Y-11729492D01*
X8953441Y-11729492D02*
X8943917Y-11739016D01*
X8943917Y-11739016D02*
X8934393Y-11729492D01*
X8934393Y-11729492D02*
X8943917Y-11719968D01*
X8943917Y-11719968D02*
X8943917Y-11739016D01*
X9067726Y-11624730D02*
X9048679Y-11615206D01*
X9048679Y-11615206D02*
X9039155Y-11605683D01*
X9039155Y-11605683D02*
X9029631Y-11586635D01*
X9029631Y-11586635D02*
X9029631Y-11577111D01*
X9029631Y-11577111D02*
X9039155Y-11558064D01*
X9039155Y-11558064D02*
X9048679Y-11548540D01*
X9048679Y-11548540D02*
X9067726Y-11539016D01*
X9067726Y-11539016D02*
X9105822Y-11539016D01*
X9105822Y-11539016D02*
X9124869Y-11548540D01*
X9124869Y-11548540D02*
X9134393Y-11558064D01*
X9134393Y-11558064D02*
X9143917Y-11577111D01*
X9143917Y-11577111D02*
X9143917Y-11586635D01*
X9143917Y-11586635D02*
X9134393Y-11605683D01*
X9134393Y-11605683D02*
X9124869Y-11615206D01*
X9124869Y-11615206D02*
X9105822Y-11624730D01*
X9105822Y-11624730D02*
X9067726Y-11624730D01*
X9067726Y-11624730D02*
X9048679Y-11634254D01*
X9048679Y-11634254D02*
X9039155Y-11643778D01*
X9039155Y-11643778D02*
X9029631Y-11662826D01*
X9029631Y-11662826D02*
X9029631Y-11700921D01*
X9029631Y-11700921D02*
X9039155Y-11719968D01*
X9039155Y-11719968D02*
X9048679Y-11729492D01*
X9048679Y-11729492D02*
X9067726Y-11739016D01*
X9067726Y-11739016D02*
X9105822Y-11739016D01*
X9105822Y-11739016D02*
X9124869Y-11729492D01*
X9124869Y-11729492D02*
X9134393Y-11719968D01*
X9134393Y-11719968D02*
X9143917Y-11700921D01*
X9143917Y-11700921D02*
X9143917Y-11662826D01*
X9143917Y-11662826D02*
X9134393Y-11643778D01*
X9134393Y-11643778D02*
X9124869Y-11634254D01*
X9124869Y-11634254D02*
X9105822Y-11624730D01*
X9267726Y-11539016D02*
X9286774Y-11539016D01*
X9286774Y-11539016D02*
X9305822Y-11548540D01*
X9305822Y-11548540D02*
X9315345Y-11558064D01*
X9315345Y-11558064D02*
X9324869Y-11577111D01*
X9324869Y-11577111D02*
X9334393Y-11615206D01*
X9334393Y-11615206D02*
X9334393Y-11662826D01*
X9334393Y-11662826D02*
X9324869Y-11700921D01*
X9324869Y-11700921D02*
X9315345Y-11719968D01*
X9315345Y-11719968D02*
X9305822Y-11729492D01*
X9305822Y-11729492D02*
X9286774Y-11739016D01*
X9286774Y-11739016D02*
X9267726Y-11739016D01*
X9267726Y-11739016D02*
X9248679Y-11729492D01*
X9248679Y-11729492D02*
X9239155Y-11719968D01*
X9239155Y-11719968D02*
X9229631Y-11700921D01*
X9229631Y-11700921D02*
X9220107Y-11662826D01*
X9220107Y-11662826D02*
X9220107Y-11615206D01*
X9220107Y-11615206D02*
X9229631Y-11577111D01*
X9229631Y-11577111D02*
X9239155Y-11558064D01*
X9239155Y-11558064D02*
X9248679Y-11548540D01*
X9248679Y-11548540D02*
X9267726Y-11539016D01*
X9458203Y-11539016D02*
X9477250Y-11539016D01*
X9477250Y-11539016D02*
X9496298Y-11548540D01*
X9496298Y-11548540D02*
X9505822Y-11558064D01*
X9505822Y-11558064D02*
X9515345Y-11577111D01*
X9515345Y-11577111D02*
X9524869Y-11615206D01*
X9524869Y-11615206D02*
X9524869Y-11662826D01*
X9524869Y-11662826D02*
X9515345Y-11700921D01*
X9515345Y-11700921D02*
X9505822Y-11719968D01*
X9505822Y-11719968D02*
X9496298Y-11729492D01*
X9496298Y-11729492D02*
X9477250Y-11739016D01*
X9477250Y-11739016D02*
X9458203Y-11739016D01*
X9458203Y-11739016D02*
X9439155Y-11729492D01*
X9439155Y-11729492D02*
X9429631Y-11719968D01*
X9429631Y-11719968D02*
X9420107Y-11700921D01*
X9420107Y-11700921D02*
X9410584Y-11662826D01*
X9410584Y-11662826D02*
X9410584Y-11615206D01*
X9410584Y-11615206D02*
X9420107Y-11577111D01*
X9420107Y-11577111D02*
X9429631Y-11558064D01*
X9429631Y-11558064D02*
X9439155Y-11548540D01*
X9439155Y-11548540D02*
X9458203Y-11539016D01*
X9610584Y-11739016D02*
X9610584Y-11605683D01*
X9610584Y-11624730D02*
X9620107Y-11615206D01*
X9620107Y-11615206D02*
X9639155Y-11605683D01*
X9639155Y-11605683D02*
X9667726Y-11605683D01*
X9667726Y-11605683D02*
X9686774Y-11615206D01*
X9686774Y-11615206D02*
X9696298Y-11634254D01*
X9696298Y-11634254D02*
X9696298Y-11739016D01*
X9696298Y-11634254D02*
X9705822Y-11615206D01*
X9705822Y-11615206D02*
X9724869Y-11605683D01*
X9724869Y-11605683D02*
X9753441Y-11605683D01*
X9753441Y-11605683D02*
X9772488Y-11615206D01*
X9772488Y-11615206D02*
X9782012Y-11634254D01*
X9782012Y-11634254D02*
X9782012Y-11739016D01*
X9877250Y-11739016D02*
X9877250Y-11605683D01*
X9877250Y-11624730D02*
X9886774Y-11615206D01*
X9886774Y-11615206D02*
X9905822Y-11605683D01*
X9905822Y-11605683D02*
X9934393Y-11605683D01*
X9934393Y-11605683D02*
X9953441Y-11615206D01*
X9953441Y-11615206D02*
X9962965Y-11634254D01*
X9962965Y-11634254D02*
X9962965Y-11739016D01*
X9962965Y-11634254D02*
X9972488Y-11615206D01*
X9972488Y-11615206D02*
X9991536Y-11605683D01*
X9991536Y-11605683D02*
X10020107Y-11605683D01*
X10020107Y-11605683D02*
X10039155Y-11615206D01*
X10039155Y-11615206D02*
X10048679Y-11634254D01*
X10048679Y-11634254D02*
X10048679Y-11739016D01*
X10439155Y-11529492D02*
X10267727Y-11786635D01*
X10696298Y-11539016D02*
X10715346Y-11539016D01*
X10715346Y-11539016D02*
X10734393Y-11548540D01*
X10734393Y-11548540D02*
X10743917Y-11558064D01*
X10743917Y-11558064D02*
X10753441Y-11577111D01*
X10753441Y-11577111D02*
X10762965Y-11615206D01*
X10762965Y-11615206D02*
X10762965Y-11662826D01*
X10762965Y-11662826D02*
X10753441Y-11700921D01*
X10753441Y-11700921D02*
X10743917Y-11719968D01*
X10743917Y-11719968D02*
X10734393Y-11729492D01*
X10734393Y-11729492D02*
X10715346Y-11739016D01*
X10715346Y-11739016D02*
X10696298Y-11739016D01*
X10696298Y-11739016D02*
X10677250Y-11729492D01*
X10677250Y-11729492D02*
X10667727Y-11719968D01*
X10667727Y-11719968D02*
X10658203Y-11700921D01*
X10658203Y-11700921D02*
X10648679Y-11662826D01*
X10648679Y-11662826D02*
X10648679Y-11615206D01*
X10648679Y-11615206D02*
X10658203Y-11577111D01*
X10658203Y-11577111D02*
X10667727Y-11558064D01*
X10667727Y-11558064D02*
X10677250Y-11548540D01*
X10677250Y-11548540D02*
X10696298Y-11539016D01*
X10848679Y-11719968D02*
X10858203Y-11729492D01*
X10858203Y-11729492D02*
X10848679Y-11739016D01*
X10848679Y-11739016D02*
X10839155Y-11729492D01*
X10839155Y-11729492D02*
X10848679Y-11719968D01*
X10848679Y-11719968D02*
X10848679Y-11739016D01*
X10982012Y-11539016D02*
X11001060Y-11539016D01*
X11001060Y-11539016D02*
X11020108Y-11548540D01*
X11020108Y-11548540D02*
X11029631Y-11558064D01*
X11029631Y-11558064D02*
X11039155Y-11577111D01*
X11039155Y-11577111D02*
X11048679Y-11615206D01*
X11048679Y-11615206D02*
X11048679Y-11662826D01*
X11048679Y-11662826D02*
X11039155Y-11700921D01*
X11039155Y-11700921D02*
X11029631Y-11719968D01*
X11029631Y-11719968D02*
X11020108Y-11729492D01*
X11020108Y-11729492D02*
X11001060Y-11739016D01*
X11001060Y-11739016D02*
X10982012Y-11739016D01*
X10982012Y-11739016D02*
X10962965Y-11729492D01*
X10962965Y-11729492D02*
X10953441Y-11719968D01*
X10953441Y-11719968D02*
X10943917Y-11700921D01*
X10943917Y-11700921D02*
X10934393Y-11662826D01*
X10934393Y-11662826D02*
X10934393Y-11615206D01*
X10934393Y-11615206D02*
X10943917Y-11577111D01*
X10943917Y-11577111D02*
X10953441Y-11558064D01*
X10953441Y-11558064D02*
X10962965Y-11548540D01*
X10962965Y-11548540D02*
X10982012Y-11539016D01*
X11115346Y-11539016D02*
X11239155Y-11539016D01*
X11239155Y-11539016D02*
X11172488Y-11615206D01*
X11172488Y-11615206D02*
X11201060Y-11615206D01*
X11201060Y-11615206D02*
X11220107Y-11624730D01*
X11220107Y-11624730D02*
X11229631Y-11634254D01*
X11229631Y-11634254D02*
X11239155Y-11653302D01*
X11239155Y-11653302D02*
X11239155Y-11700921D01*
X11239155Y-11700921D02*
X11229631Y-11719968D01*
X11229631Y-11719968D02*
X11220107Y-11729492D01*
X11220107Y-11729492D02*
X11201060Y-11739016D01*
X11201060Y-11739016D02*
X11143917Y-11739016D01*
X11143917Y-11739016D02*
X11124869Y-11729492D01*
X11124869Y-11729492D02*
X11115346Y-11719968D01*
X11429631Y-11739016D02*
X11315346Y-11739016D01*
X11372488Y-11739016D02*
X11372488Y-11539016D01*
X11372488Y-11539016D02*
X11353441Y-11567587D01*
X11353441Y-11567587D02*
X11334393Y-11586635D01*
X11334393Y-11586635D02*
X11315346Y-11596159D01*
X11610584Y-11539016D02*
X11515346Y-11539016D01*
X11515346Y-11539016D02*
X11505822Y-11634254D01*
X11505822Y-11634254D02*
X11515346Y-11624730D01*
X11515346Y-11624730D02*
X11534393Y-11615206D01*
X11534393Y-11615206D02*
X11582012Y-11615206D01*
X11582012Y-11615206D02*
X11601060Y-11624730D01*
X11601060Y-11624730D02*
X11610584Y-11634254D01*
X11610584Y-11634254D02*
X11620107Y-11653302D01*
X11620107Y-11653302D02*
X11620107Y-11700921D01*
X11620107Y-11700921D02*
X11610584Y-11719968D01*
X11610584Y-11719968D02*
X11601060Y-11729492D01*
X11601060Y-11729492D02*
X11582012Y-11739016D01*
X11582012Y-11739016D02*
X11534393Y-11739016D01*
X11534393Y-11739016D02*
X11515346Y-11729492D01*
X11515346Y-11729492D02*
X11505822Y-11719968D01*
X11696298Y-11539016D02*
X11696298Y-11577111D01*
X11772488Y-11539016D02*
X11772488Y-11577111D01*
X12067727Y-11815206D02*
X12058203Y-11805683D01*
X12058203Y-11805683D02*
X12039155Y-11777111D01*
X12039155Y-11777111D02*
X12029631Y-11758064D01*
X12029631Y-11758064D02*
X12020108Y-11729492D01*
X12020108Y-11729492D02*
X12010584Y-11681873D01*
X12010584Y-11681873D02*
X12010584Y-11643778D01*
X12010584Y-11643778D02*
X12020108Y-11596159D01*
X12020108Y-11596159D02*
X12029631Y-11567587D01*
X12029631Y-11567587D02*
X12039155Y-11548540D01*
X12039155Y-11548540D02*
X12058203Y-11519968D01*
X12058203Y-11519968D02*
X12067727Y-11510445D01*
X12229631Y-11539016D02*
X12191536Y-11539016D01*
X12191536Y-11539016D02*
X12172488Y-11548540D01*
X12172488Y-11548540D02*
X12162965Y-11558064D01*
X12162965Y-11558064D02*
X12143917Y-11586635D01*
X12143917Y-11586635D02*
X12134393Y-11624730D01*
X12134393Y-11624730D02*
X12134393Y-11700921D01*
X12134393Y-11700921D02*
X12143917Y-11719968D01*
X12143917Y-11719968D02*
X12153441Y-11729492D01*
X12153441Y-11729492D02*
X12172488Y-11739016D01*
X12172488Y-11739016D02*
X12210584Y-11739016D01*
X12210584Y-11739016D02*
X12229631Y-11729492D01*
X12229631Y-11729492D02*
X12239155Y-11719968D01*
X12239155Y-11719968D02*
X12248679Y-11700921D01*
X12248679Y-11700921D02*
X12248679Y-11653302D01*
X12248679Y-11653302D02*
X12239155Y-11634254D01*
X12239155Y-11634254D02*
X12229631Y-11624730D01*
X12229631Y-11624730D02*
X12210584Y-11615206D01*
X12210584Y-11615206D02*
X12172488Y-11615206D01*
X12172488Y-11615206D02*
X12153441Y-11624730D01*
X12153441Y-11624730D02*
X12143917Y-11634254D01*
X12143917Y-11634254D02*
X12134393Y-11653302D01*
X12486774Y-11739016D02*
X12486774Y-11539016D01*
X12572489Y-11739016D02*
X12572489Y-11634254D01*
X12572489Y-11634254D02*
X12562965Y-11615206D01*
X12562965Y-11615206D02*
X12543917Y-11605683D01*
X12543917Y-11605683D02*
X12515346Y-11605683D01*
X12515346Y-11605683D02*
X12496298Y-11615206D01*
X12496298Y-11615206D02*
X12486774Y-11624730D01*
X12696298Y-11739016D02*
X12677250Y-11729492D01*
X12677250Y-11729492D02*
X12667727Y-11719968D01*
X12667727Y-11719968D02*
X12658203Y-11700921D01*
X12658203Y-11700921D02*
X12658203Y-11643778D01*
X12658203Y-11643778D02*
X12667727Y-11624730D01*
X12667727Y-11624730D02*
X12677250Y-11615206D01*
X12677250Y-11615206D02*
X12696298Y-11605683D01*
X12696298Y-11605683D02*
X12724870Y-11605683D01*
X12724870Y-11605683D02*
X12743917Y-11615206D01*
X12743917Y-11615206D02*
X12753441Y-11624730D01*
X12753441Y-11624730D02*
X12762965Y-11643778D01*
X12762965Y-11643778D02*
X12762965Y-11700921D01*
X12762965Y-11700921D02*
X12753441Y-11719968D01*
X12753441Y-11719968D02*
X12743917Y-11729492D01*
X12743917Y-11729492D02*
X12724870Y-11739016D01*
X12724870Y-11739016D02*
X12696298Y-11739016D01*
X12877250Y-11739016D02*
X12858203Y-11729492D01*
X12858203Y-11729492D02*
X12848679Y-11710445D01*
X12848679Y-11710445D02*
X12848679Y-11539016D01*
X13029631Y-11729492D02*
X13010584Y-11739016D01*
X13010584Y-11739016D02*
X12972489Y-11739016D01*
X12972489Y-11739016D02*
X12953441Y-11729492D01*
X12953441Y-11729492D02*
X12943917Y-11710445D01*
X12943917Y-11710445D02*
X12943917Y-11634254D01*
X12943917Y-11634254D02*
X12953441Y-11615206D01*
X12953441Y-11615206D02*
X12972489Y-11605683D01*
X12972489Y-11605683D02*
X13010584Y-11605683D01*
X13010584Y-11605683D02*
X13029631Y-11615206D01*
X13029631Y-11615206D02*
X13039155Y-11634254D01*
X13039155Y-11634254D02*
X13039155Y-11653302D01*
X13039155Y-11653302D02*
X12943917Y-11672349D01*
X13115346Y-11729492D02*
X13134393Y-11739016D01*
X13134393Y-11739016D02*
X13172489Y-11739016D01*
X13172489Y-11739016D02*
X13191536Y-11729492D01*
X13191536Y-11729492D02*
X13201060Y-11710445D01*
X13201060Y-11710445D02*
X13201060Y-11700921D01*
X13201060Y-11700921D02*
X13191536Y-11681873D01*
X13191536Y-11681873D02*
X13172489Y-11672349D01*
X13172489Y-11672349D02*
X13143917Y-11672349D01*
X13143917Y-11672349D02*
X13124870Y-11662826D01*
X13124870Y-11662826D02*
X13115346Y-11643778D01*
X13115346Y-11643778D02*
X13115346Y-11634254D01*
X13115346Y-11634254D02*
X13124870Y-11615206D01*
X13124870Y-11615206D02*
X13143917Y-11605683D01*
X13143917Y-11605683D02*
X13172489Y-11605683D01*
X13172489Y-11605683D02*
X13191536Y-11615206D01*
X13267727Y-11815206D02*
X13277251Y-11805683D01*
X13277251Y-11805683D02*
X13296298Y-11777111D01*
X13296298Y-11777111D02*
X13305822Y-11758064D01*
X13305822Y-11758064D02*
X13315346Y-11729492D01*
X13315346Y-11729492D02*
X13324870Y-11681873D01*
X13324870Y-11681873D02*
X13324870Y-11643778D01*
X13324870Y-11643778D02*
X13315346Y-11596159D01*
X13315346Y-11596159D02*
X13305822Y-11567587D01*
X13305822Y-11567587D02*
X13296298Y-11548540D01*
X13296298Y-11548540D02*
X13277251Y-11519968D01*
X13277251Y-11519968D02*
X13267727Y-11510445D01*
D11*
X8478020Y-11946888D02*
X8478020Y-11876177D01*
X8407308Y-11876177D01*
X8407308Y-11946888D01*
X8478020Y-11946888D01*
D10*
X8858203Y-12003016D02*
X8743917Y-12003016D01*
X8801060Y-12003016D02*
X8801060Y-11803016D01*
X8801060Y-11803016D02*
X8782012Y-11831587D01*
X8782012Y-11831587D02*
X8762964Y-11850635D01*
X8762964Y-11850635D02*
X8743917Y-11860159D01*
X8943917Y-11983968D02*
X8953441Y-11993492D01*
X8953441Y-11993492D02*
X8943917Y-12003016D01*
X8943917Y-12003016D02*
X8934393Y-11993492D01*
X8934393Y-11993492D02*
X8943917Y-11983968D01*
X8943917Y-11983968D02*
X8943917Y-12003016D01*
X9077250Y-11803016D02*
X9096298Y-11803016D01*
X9096298Y-11803016D02*
X9115345Y-11812540D01*
X9115345Y-11812540D02*
X9124869Y-11822064D01*
X9124869Y-11822064D02*
X9134393Y-11841111D01*
X9134393Y-11841111D02*
X9143917Y-11879206D01*
X9143917Y-11879206D02*
X9143917Y-11926826D01*
X9143917Y-11926826D02*
X9134393Y-11964921D01*
X9134393Y-11964921D02*
X9124869Y-11983968D01*
X9124869Y-11983968D02*
X9115345Y-11993492D01*
X9115345Y-11993492D02*
X9096298Y-12003016D01*
X9096298Y-12003016D02*
X9077250Y-12003016D01*
X9077250Y-12003016D02*
X9058203Y-11993492D01*
X9058203Y-11993492D02*
X9048679Y-11983968D01*
X9048679Y-11983968D02*
X9039155Y-11964921D01*
X9039155Y-11964921D02*
X9029631Y-11926826D01*
X9029631Y-11926826D02*
X9029631Y-11879206D01*
X9029631Y-11879206D02*
X9039155Y-11841111D01*
X9039155Y-11841111D02*
X9048679Y-11822064D01*
X9048679Y-11822064D02*
X9058203Y-11812540D01*
X9058203Y-11812540D02*
X9077250Y-11803016D01*
X9267726Y-11803016D02*
X9286774Y-11803016D01*
X9286774Y-11803016D02*
X9305822Y-11812540D01*
X9305822Y-11812540D02*
X9315345Y-11822064D01*
X9315345Y-11822064D02*
X9324869Y-11841111D01*
X9324869Y-11841111D02*
X9334393Y-11879206D01*
X9334393Y-11879206D02*
X9334393Y-11926826D01*
X9334393Y-11926826D02*
X9324869Y-11964921D01*
X9324869Y-11964921D02*
X9315345Y-11983968D01*
X9315345Y-11983968D02*
X9305822Y-11993492D01*
X9305822Y-11993492D02*
X9286774Y-12003016D01*
X9286774Y-12003016D02*
X9267726Y-12003016D01*
X9267726Y-12003016D02*
X9248679Y-11993492D01*
X9248679Y-11993492D02*
X9239155Y-11983968D01*
X9239155Y-11983968D02*
X9229631Y-11964921D01*
X9229631Y-11964921D02*
X9220107Y-11926826D01*
X9220107Y-11926826D02*
X9220107Y-11879206D01*
X9220107Y-11879206D02*
X9229631Y-11841111D01*
X9229631Y-11841111D02*
X9239155Y-11822064D01*
X9239155Y-11822064D02*
X9248679Y-11812540D01*
X9248679Y-11812540D02*
X9267726Y-11803016D01*
X9458203Y-11803016D02*
X9477250Y-11803016D01*
X9477250Y-11803016D02*
X9496298Y-11812540D01*
X9496298Y-11812540D02*
X9505822Y-11822064D01*
X9505822Y-11822064D02*
X9515345Y-11841111D01*
X9515345Y-11841111D02*
X9524869Y-11879206D01*
X9524869Y-11879206D02*
X9524869Y-11926826D01*
X9524869Y-11926826D02*
X9515345Y-11964921D01*
X9515345Y-11964921D02*
X9505822Y-11983968D01*
X9505822Y-11983968D02*
X9496298Y-11993492D01*
X9496298Y-11993492D02*
X9477250Y-12003016D01*
X9477250Y-12003016D02*
X9458203Y-12003016D01*
X9458203Y-12003016D02*
X9439155Y-11993492D01*
X9439155Y-11993492D02*
X9429631Y-11983968D01*
X9429631Y-11983968D02*
X9420107Y-11964921D01*
X9420107Y-11964921D02*
X9410584Y-11926826D01*
X9410584Y-11926826D02*
X9410584Y-11879206D01*
X9410584Y-11879206D02*
X9420107Y-11841111D01*
X9420107Y-11841111D02*
X9429631Y-11822064D01*
X9429631Y-11822064D02*
X9439155Y-11812540D01*
X9439155Y-11812540D02*
X9458203Y-11803016D01*
X9610584Y-12003016D02*
X9610584Y-11869683D01*
X9610584Y-11888730D02*
X9620107Y-11879206D01*
X9620107Y-11879206D02*
X9639155Y-11869683D01*
X9639155Y-11869683D02*
X9667726Y-11869683D01*
X9667726Y-11869683D02*
X9686774Y-11879206D01*
X9686774Y-11879206D02*
X9696298Y-11898254D01*
X9696298Y-11898254D02*
X9696298Y-12003016D01*
X9696298Y-11898254D02*
X9705822Y-11879206D01*
X9705822Y-11879206D02*
X9724869Y-11869683D01*
X9724869Y-11869683D02*
X9753441Y-11869683D01*
X9753441Y-11869683D02*
X9772488Y-11879206D01*
X9772488Y-11879206D02*
X9782012Y-11898254D01*
X9782012Y-11898254D02*
X9782012Y-12003016D01*
X9877250Y-12003016D02*
X9877250Y-11869683D01*
X9877250Y-11888730D02*
X9886774Y-11879206D01*
X9886774Y-11879206D02*
X9905822Y-11869683D01*
X9905822Y-11869683D02*
X9934393Y-11869683D01*
X9934393Y-11869683D02*
X9953441Y-11879206D01*
X9953441Y-11879206D02*
X9962965Y-11898254D01*
X9962965Y-11898254D02*
X9962965Y-12003016D01*
X9962965Y-11898254D02*
X9972488Y-11879206D01*
X9972488Y-11879206D02*
X9991536Y-11869683D01*
X9991536Y-11869683D02*
X10020107Y-11869683D01*
X10020107Y-11869683D02*
X10039155Y-11879206D01*
X10039155Y-11879206D02*
X10048679Y-11898254D01*
X10048679Y-11898254D02*
X10048679Y-12003016D01*
X10439155Y-11793492D02*
X10267727Y-12050635D01*
X10696298Y-11803016D02*
X10715346Y-11803016D01*
X10715346Y-11803016D02*
X10734393Y-11812540D01*
X10734393Y-11812540D02*
X10743917Y-11822064D01*
X10743917Y-11822064D02*
X10753441Y-11841111D01*
X10753441Y-11841111D02*
X10762965Y-11879206D01*
X10762965Y-11879206D02*
X10762965Y-11926826D01*
X10762965Y-11926826D02*
X10753441Y-11964921D01*
X10753441Y-11964921D02*
X10743917Y-11983968D01*
X10743917Y-11983968D02*
X10734393Y-11993492D01*
X10734393Y-11993492D02*
X10715346Y-12003016D01*
X10715346Y-12003016D02*
X10696298Y-12003016D01*
X10696298Y-12003016D02*
X10677250Y-11993492D01*
X10677250Y-11993492D02*
X10667727Y-11983968D01*
X10667727Y-11983968D02*
X10658203Y-11964921D01*
X10658203Y-11964921D02*
X10648679Y-11926826D01*
X10648679Y-11926826D02*
X10648679Y-11879206D01*
X10648679Y-11879206D02*
X10658203Y-11841111D01*
X10658203Y-11841111D02*
X10667727Y-11822064D01*
X10667727Y-11822064D02*
X10677250Y-11812540D01*
X10677250Y-11812540D02*
X10696298Y-11803016D01*
X10848679Y-11983968D02*
X10858203Y-11993492D01*
X10858203Y-11993492D02*
X10848679Y-12003016D01*
X10848679Y-12003016D02*
X10839155Y-11993492D01*
X10839155Y-11993492D02*
X10848679Y-11983968D01*
X10848679Y-11983968D02*
X10848679Y-12003016D01*
X10982012Y-11803016D02*
X11001060Y-11803016D01*
X11001060Y-11803016D02*
X11020108Y-11812540D01*
X11020108Y-11812540D02*
X11029631Y-11822064D01*
X11029631Y-11822064D02*
X11039155Y-11841111D01*
X11039155Y-11841111D02*
X11048679Y-11879206D01*
X11048679Y-11879206D02*
X11048679Y-11926826D01*
X11048679Y-11926826D02*
X11039155Y-11964921D01*
X11039155Y-11964921D02*
X11029631Y-11983968D01*
X11029631Y-11983968D02*
X11020108Y-11993492D01*
X11020108Y-11993492D02*
X11001060Y-12003016D01*
X11001060Y-12003016D02*
X10982012Y-12003016D01*
X10982012Y-12003016D02*
X10962965Y-11993492D01*
X10962965Y-11993492D02*
X10953441Y-11983968D01*
X10953441Y-11983968D02*
X10943917Y-11964921D01*
X10943917Y-11964921D02*
X10934393Y-11926826D01*
X10934393Y-11926826D02*
X10934393Y-11879206D01*
X10934393Y-11879206D02*
X10943917Y-11841111D01*
X10943917Y-11841111D02*
X10953441Y-11822064D01*
X10953441Y-11822064D02*
X10962965Y-11812540D01*
X10962965Y-11812540D02*
X10982012Y-11803016D01*
X11115346Y-11803016D02*
X11239155Y-11803016D01*
X11239155Y-11803016D02*
X11172488Y-11879206D01*
X11172488Y-11879206D02*
X11201060Y-11879206D01*
X11201060Y-11879206D02*
X11220107Y-11888730D01*
X11220107Y-11888730D02*
X11229631Y-11898254D01*
X11229631Y-11898254D02*
X11239155Y-11917302D01*
X11239155Y-11917302D02*
X11239155Y-11964921D01*
X11239155Y-11964921D02*
X11229631Y-11983968D01*
X11229631Y-11983968D02*
X11220107Y-11993492D01*
X11220107Y-11993492D02*
X11201060Y-12003016D01*
X11201060Y-12003016D02*
X11143917Y-12003016D01*
X11143917Y-12003016D02*
X11124869Y-11993492D01*
X11124869Y-11993492D02*
X11115346Y-11983968D01*
X11334393Y-12003016D02*
X11372488Y-12003016D01*
X11372488Y-12003016D02*
X11391536Y-11993492D01*
X11391536Y-11993492D02*
X11401060Y-11983968D01*
X11401060Y-11983968D02*
X11420107Y-11955397D01*
X11420107Y-11955397D02*
X11429631Y-11917302D01*
X11429631Y-11917302D02*
X11429631Y-11841111D01*
X11429631Y-11841111D02*
X11420107Y-11822064D01*
X11420107Y-11822064D02*
X11410584Y-11812540D01*
X11410584Y-11812540D02*
X11391536Y-11803016D01*
X11391536Y-11803016D02*
X11353441Y-11803016D01*
X11353441Y-11803016D02*
X11334393Y-11812540D01*
X11334393Y-11812540D02*
X11324869Y-11822064D01*
X11324869Y-11822064D02*
X11315346Y-11841111D01*
X11315346Y-11841111D02*
X11315346Y-11888730D01*
X11315346Y-11888730D02*
X11324869Y-11907778D01*
X11324869Y-11907778D02*
X11334393Y-11917302D01*
X11334393Y-11917302D02*
X11353441Y-11926826D01*
X11353441Y-11926826D02*
X11391536Y-11926826D01*
X11391536Y-11926826D02*
X11410584Y-11917302D01*
X11410584Y-11917302D02*
X11420107Y-11907778D01*
X11420107Y-11907778D02*
X11429631Y-11888730D01*
X11601060Y-11869683D02*
X11601060Y-12003016D01*
X11553441Y-11793492D02*
X11505822Y-11936349D01*
X11505822Y-11936349D02*
X11629631Y-11936349D01*
X11696298Y-11803016D02*
X11696298Y-11841111D01*
X11772488Y-11803016D02*
X11772488Y-11841111D01*
X12067727Y-12079206D02*
X12058203Y-12069683D01*
X12058203Y-12069683D02*
X12039155Y-12041111D01*
X12039155Y-12041111D02*
X12029631Y-12022064D01*
X12029631Y-12022064D02*
X12020108Y-11993492D01*
X12020108Y-11993492D02*
X12010584Y-11945873D01*
X12010584Y-11945873D02*
X12010584Y-11907778D01*
X12010584Y-11907778D02*
X12020108Y-11860159D01*
X12020108Y-11860159D02*
X12029631Y-11831587D01*
X12029631Y-11831587D02*
X12039155Y-11812540D01*
X12039155Y-11812540D02*
X12058203Y-11783968D01*
X12058203Y-11783968D02*
X12067727Y-11774445D01*
X12134393Y-11822064D02*
X12143917Y-11812540D01*
X12143917Y-11812540D02*
X12162965Y-11803016D01*
X12162965Y-11803016D02*
X12210584Y-11803016D01*
X12210584Y-11803016D02*
X12229631Y-11812540D01*
X12229631Y-11812540D02*
X12239155Y-11822064D01*
X12239155Y-11822064D02*
X12248679Y-11841111D01*
X12248679Y-11841111D02*
X12248679Y-11860159D01*
X12248679Y-11860159D02*
X12239155Y-11888730D01*
X12239155Y-11888730D02*
X12124869Y-12003016D01*
X12124869Y-12003016D02*
X12248679Y-12003016D01*
X12486774Y-12003016D02*
X12486774Y-11803016D01*
X12572489Y-12003016D02*
X12572489Y-11898254D01*
X12572489Y-11898254D02*
X12562965Y-11879206D01*
X12562965Y-11879206D02*
X12543917Y-11869683D01*
X12543917Y-11869683D02*
X12515346Y-11869683D01*
X12515346Y-11869683D02*
X12496298Y-11879206D01*
X12496298Y-11879206D02*
X12486774Y-11888730D01*
X12696298Y-12003016D02*
X12677250Y-11993492D01*
X12677250Y-11993492D02*
X12667727Y-11983968D01*
X12667727Y-11983968D02*
X12658203Y-11964921D01*
X12658203Y-11964921D02*
X12658203Y-11907778D01*
X12658203Y-11907778D02*
X12667727Y-11888730D01*
X12667727Y-11888730D02*
X12677250Y-11879206D01*
X12677250Y-11879206D02*
X12696298Y-11869683D01*
X12696298Y-11869683D02*
X12724870Y-11869683D01*
X12724870Y-11869683D02*
X12743917Y-11879206D01*
X12743917Y-11879206D02*
X12753441Y-11888730D01*
X12753441Y-11888730D02*
X12762965Y-11907778D01*
X12762965Y-11907778D02*
X12762965Y-11964921D01*
X12762965Y-11964921D02*
X12753441Y-11983968D01*
X12753441Y-11983968D02*
X12743917Y-11993492D01*
X12743917Y-11993492D02*
X12724870Y-12003016D01*
X12724870Y-12003016D02*
X12696298Y-12003016D01*
X12877250Y-12003016D02*
X12858203Y-11993492D01*
X12858203Y-11993492D02*
X12848679Y-11974445D01*
X12848679Y-11974445D02*
X12848679Y-11803016D01*
X13029631Y-11993492D02*
X13010584Y-12003016D01*
X13010584Y-12003016D02*
X12972489Y-12003016D01*
X12972489Y-12003016D02*
X12953441Y-11993492D01*
X12953441Y-11993492D02*
X12943917Y-11974445D01*
X12943917Y-11974445D02*
X12943917Y-11898254D01*
X12943917Y-11898254D02*
X12953441Y-11879206D01*
X12953441Y-11879206D02*
X12972489Y-11869683D01*
X12972489Y-11869683D02*
X13010584Y-11869683D01*
X13010584Y-11869683D02*
X13029631Y-11879206D01*
X13029631Y-11879206D02*
X13039155Y-11898254D01*
X13039155Y-11898254D02*
X13039155Y-11917302D01*
X13039155Y-11917302D02*
X12943917Y-11936349D01*
X13115346Y-11993492D02*
X13134393Y-12003016D01*
X13134393Y-12003016D02*
X13172489Y-12003016D01*
X13172489Y-12003016D02*
X13191536Y-11993492D01*
X13191536Y-11993492D02*
X13201060Y-11974445D01*
X13201060Y-11974445D02*
X13201060Y-11964921D01*
X13201060Y-11964921D02*
X13191536Y-11945873D01*
X13191536Y-11945873D02*
X13172489Y-11936349D01*
X13172489Y-11936349D02*
X13143917Y-11936349D01*
X13143917Y-11936349D02*
X13124870Y-11926826D01*
X13124870Y-11926826D02*
X13115346Y-11907778D01*
X13115346Y-11907778D02*
X13115346Y-11898254D01*
X13115346Y-11898254D02*
X13124870Y-11879206D01*
X13124870Y-11879206D02*
X13143917Y-11869683D01*
X13143917Y-11869683D02*
X13172489Y-11869683D01*
X13172489Y-11869683D02*
X13191536Y-11879206D01*
X13267727Y-12079206D02*
X13277251Y-12069683D01*
X13277251Y-12069683D02*
X13296298Y-12041111D01*
X13296298Y-12041111D02*
X13305822Y-12022064D01*
X13305822Y-12022064D02*
X13315346Y-11993492D01*
X13315346Y-11993492D02*
X13324870Y-11945873D01*
X13324870Y-11945873D02*
X13324870Y-11907778D01*
X13324870Y-11907778D02*
X13315346Y-11860159D01*
X13315346Y-11860159D02*
X13305822Y-11831587D01*
X13305822Y-11831587D02*
X13296298Y-11812540D01*
X13296298Y-11812540D02*
X13277251Y-11783968D01*
X13277251Y-11783968D02*
X13267727Y-11774445D01*
D12*
X8441664Y-12226532D02*
X8492664Y-12175532D01*
X8441664Y-12124532D01*
X8390664Y-12175532D01*
X8441664Y-12226532D01*
D10*
X8858203Y-12267016D02*
X8743917Y-12267016D01*
X8801060Y-12267016D02*
X8801060Y-12067016D01*
X8801060Y-12067016D02*
X8782012Y-12095587D01*
X8782012Y-12095587D02*
X8762964Y-12114635D01*
X8762964Y-12114635D02*
X8743917Y-12124159D01*
X8943917Y-12247968D02*
X8953441Y-12257492D01*
X8953441Y-12257492D02*
X8943917Y-12267016D01*
X8943917Y-12267016D02*
X8934393Y-12257492D01*
X8934393Y-12257492D02*
X8943917Y-12247968D01*
X8943917Y-12247968D02*
X8943917Y-12267016D01*
X9077250Y-12067016D02*
X9096298Y-12067016D01*
X9096298Y-12067016D02*
X9115345Y-12076540D01*
X9115345Y-12076540D02*
X9124869Y-12086064D01*
X9124869Y-12086064D02*
X9134393Y-12105111D01*
X9134393Y-12105111D02*
X9143917Y-12143206D01*
X9143917Y-12143206D02*
X9143917Y-12190826D01*
X9143917Y-12190826D02*
X9134393Y-12228921D01*
X9134393Y-12228921D02*
X9124869Y-12247968D01*
X9124869Y-12247968D02*
X9115345Y-12257492D01*
X9115345Y-12257492D02*
X9096298Y-12267016D01*
X9096298Y-12267016D02*
X9077250Y-12267016D01*
X9077250Y-12267016D02*
X9058203Y-12257492D01*
X9058203Y-12257492D02*
X9048679Y-12247968D01*
X9048679Y-12247968D02*
X9039155Y-12228921D01*
X9039155Y-12228921D02*
X9029631Y-12190826D01*
X9029631Y-12190826D02*
X9029631Y-12143206D01*
X9029631Y-12143206D02*
X9039155Y-12105111D01*
X9039155Y-12105111D02*
X9048679Y-12086064D01*
X9048679Y-12086064D02*
X9058203Y-12076540D01*
X9058203Y-12076540D02*
X9077250Y-12067016D01*
X9220107Y-12086064D02*
X9229631Y-12076540D01*
X9229631Y-12076540D02*
X9248679Y-12067016D01*
X9248679Y-12067016D02*
X9296298Y-12067016D01*
X9296298Y-12067016D02*
X9315345Y-12076540D01*
X9315345Y-12076540D02*
X9324869Y-12086064D01*
X9324869Y-12086064D02*
X9334393Y-12105111D01*
X9334393Y-12105111D02*
X9334393Y-12124159D01*
X9334393Y-12124159D02*
X9324869Y-12152730D01*
X9324869Y-12152730D02*
X9210584Y-12267016D01*
X9210584Y-12267016D02*
X9334393Y-12267016D01*
X9458203Y-12067016D02*
X9477250Y-12067016D01*
X9477250Y-12067016D02*
X9496298Y-12076540D01*
X9496298Y-12076540D02*
X9505822Y-12086064D01*
X9505822Y-12086064D02*
X9515345Y-12105111D01*
X9515345Y-12105111D02*
X9524869Y-12143206D01*
X9524869Y-12143206D02*
X9524869Y-12190826D01*
X9524869Y-12190826D02*
X9515345Y-12228921D01*
X9515345Y-12228921D02*
X9505822Y-12247968D01*
X9505822Y-12247968D02*
X9496298Y-12257492D01*
X9496298Y-12257492D02*
X9477250Y-12267016D01*
X9477250Y-12267016D02*
X9458203Y-12267016D01*
X9458203Y-12267016D02*
X9439155Y-12257492D01*
X9439155Y-12257492D02*
X9429631Y-12247968D01*
X9429631Y-12247968D02*
X9420107Y-12228921D01*
X9420107Y-12228921D02*
X9410584Y-12190826D01*
X9410584Y-12190826D02*
X9410584Y-12143206D01*
X9410584Y-12143206D02*
X9420107Y-12105111D01*
X9420107Y-12105111D02*
X9429631Y-12086064D01*
X9429631Y-12086064D02*
X9439155Y-12076540D01*
X9439155Y-12076540D02*
X9458203Y-12067016D01*
X9610584Y-12267016D02*
X9610584Y-12133683D01*
X9610584Y-12152730D02*
X9620107Y-12143206D01*
X9620107Y-12143206D02*
X9639155Y-12133683D01*
X9639155Y-12133683D02*
X9667726Y-12133683D01*
X9667726Y-12133683D02*
X9686774Y-12143206D01*
X9686774Y-12143206D02*
X9696298Y-12162254D01*
X9696298Y-12162254D02*
X9696298Y-12267016D01*
X9696298Y-12162254D02*
X9705822Y-12143206D01*
X9705822Y-12143206D02*
X9724869Y-12133683D01*
X9724869Y-12133683D02*
X9753441Y-12133683D01*
X9753441Y-12133683D02*
X9772488Y-12143206D01*
X9772488Y-12143206D02*
X9782012Y-12162254D01*
X9782012Y-12162254D02*
X9782012Y-12267016D01*
X9877250Y-12267016D02*
X9877250Y-12133683D01*
X9877250Y-12152730D02*
X9886774Y-12143206D01*
X9886774Y-12143206D02*
X9905822Y-12133683D01*
X9905822Y-12133683D02*
X9934393Y-12133683D01*
X9934393Y-12133683D02*
X9953441Y-12143206D01*
X9953441Y-12143206D02*
X9962965Y-12162254D01*
X9962965Y-12162254D02*
X9962965Y-12267016D01*
X9962965Y-12162254D02*
X9972488Y-12143206D01*
X9972488Y-12143206D02*
X9991536Y-12133683D01*
X9991536Y-12133683D02*
X10020107Y-12133683D01*
X10020107Y-12133683D02*
X10039155Y-12143206D01*
X10039155Y-12143206D02*
X10048679Y-12162254D01*
X10048679Y-12162254D02*
X10048679Y-12267016D01*
X10439155Y-12057492D02*
X10267727Y-12314635D01*
X10696298Y-12067016D02*
X10715346Y-12067016D01*
X10715346Y-12067016D02*
X10734393Y-12076540D01*
X10734393Y-12076540D02*
X10743917Y-12086064D01*
X10743917Y-12086064D02*
X10753441Y-12105111D01*
X10753441Y-12105111D02*
X10762965Y-12143206D01*
X10762965Y-12143206D02*
X10762965Y-12190826D01*
X10762965Y-12190826D02*
X10753441Y-12228921D01*
X10753441Y-12228921D02*
X10743917Y-12247968D01*
X10743917Y-12247968D02*
X10734393Y-12257492D01*
X10734393Y-12257492D02*
X10715346Y-12267016D01*
X10715346Y-12267016D02*
X10696298Y-12267016D01*
X10696298Y-12267016D02*
X10677250Y-12257492D01*
X10677250Y-12257492D02*
X10667727Y-12247968D01*
X10667727Y-12247968D02*
X10658203Y-12228921D01*
X10658203Y-12228921D02*
X10648679Y-12190826D01*
X10648679Y-12190826D02*
X10648679Y-12143206D01*
X10648679Y-12143206D02*
X10658203Y-12105111D01*
X10658203Y-12105111D02*
X10667727Y-12086064D01*
X10667727Y-12086064D02*
X10677250Y-12076540D01*
X10677250Y-12076540D02*
X10696298Y-12067016D01*
X10848679Y-12247968D02*
X10858203Y-12257492D01*
X10858203Y-12257492D02*
X10848679Y-12267016D01*
X10848679Y-12267016D02*
X10839155Y-12257492D01*
X10839155Y-12257492D02*
X10848679Y-12247968D01*
X10848679Y-12247968D02*
X10848679Y-12267016D01*
X10982012Y-12067016D02*
X11001060Y-12067016D01*
X11001060Y-12067016D02*
X11020108Y-12076540D01*
X11020108Y-12076540D02*
X11029631Y-12086064D01*
X11029631Y-12086064D02*
X11039155Y-12105111D01*
X11039155Y-12105111D02*
X11048679Y-12143206D01*
X11048679Y-12143206D02*
X11048679Y-12190826D01*
X11048679Y-12190826D02*
X11039155Y-12228921D01*
X11039155Y-12228921D02*
X11029631Y-12247968D01*
X11029631Y-12247968D02*
X11020108Y-12257492D01*
X11020108Y-12257492D02*
X11001060Y-12267016D01*
X11001060Y-12267016D02*
X10982012Y-12267016D01*
X10982012Y-12267016D02*
X10962965Y-12257492D01*
X10962965Y-12257492D02*
X10953441Y-12247968D01*
X10953441Y-12247968D02*
X10943917Y-12228921D01*
X10943917Y-12228921D02*
X10934393Y-12190826D01*
X10934393Y-12190826D02*
X10934393Y-12143206D01*
X10934393Y-12143206D02*
X10943917Y-12105111D01*
X10943917Y-12105111D02*
X10953441Y-12086064D01*
X10953441Y-12086064D02*
X10962965Y-12076540D01*
X10962965Y-12076540D02*
X10982012Y-12067016D01*
X11220107Y-12133683D02*
X11220107Y-12267016D01*
X11172488Y-12057492D02*
X11124869Y-12200349D01*
X11124869Y-12200349D02*
X11248679Y-12200349D01*
X11362965Y-12067016D02*
X11382012Y-12067016D01*
X11382012Y-12067016D02*
X11401060Y-12076540D01*
X11401060Y-12076540D02*
X11410584Y-12086064D01*
X11410584Y-12086064D02*
X11420107Y-12105111D01*
X11420107Y-12105111D02*
X11429631Y-12143206D01*
X11429631Y-12143206D02*
X11429631Y-12190826D01*
X11429631Y-12190826D02*
X11420107Y-12228921D01*
X11420107Y-12228921D02*
X11410584Y-12247968D01*
X11410584Y-12247968D02*
X11401060Y-12257492D01*
X11401060Y-12257492D02*
X11382012Y-12267016D01*
X11382012Y-12267016D02*
X11362965Y-12267016D01*
X11362965Y-12267016D02*
X11343917Y-12257492D01*
X11343917Y-12257492D02*
X11334393Y-12247968D01*
X11334393Y-12247968D02*
X11324869Y-12228921D01*
X11324869Y-12228921D02*
X11315346Y-12190826D01*
X11315346Y-12190826D02*
X11315346Y-12143206D01*
X11315346Y-12143206D02*
X11324869Y-12105111D01*
X11324869Y-12105111D02*
X11334393Y-12086064D01*
X11334393Y-12086064D02*
X11343917Y-12076540D01*
X11343917Y-12076540D02*
X11362965Y-12067016D01*
X11505822Y-12086064D02*
X11515346Y-12076540D01*
X11515346Y-12076540D02*
X11534393Y-12067016D01*
X11534393Y-12067016D02*
X11582012Y-12067016D01*
X11582012Y-12067016D02*
X11601060Y-12076540D01*
X11601060Y-12076540D02*
X11610584Y-12086064D01*
X11610584Y-12086064D02*
X11620107Y-12105111D01*
X11620107Y-12105111D02*
X11620107Y-12124159D01*
X11620107Y-12124159D02*
X11610584Y-12152730D01*
X11610584Y-12152730D02*
X11496298Y-12267016D01*
X11496298Y-12267016D02*
X11620107Y-12267016D01*
X11696298Y-12067016D02*
X11696298Y-12105111D01*
X11772488Y-12067016D02*
X11772488Y-12105111D01*
X12067727Y-12343206D02*
X12058203Y-12333683D01*
X12058203Y-12333683D02*
X12039155Y-12305111D01*
X12039155Y-12305111D02*
X12029631Y-12286064D01*
X12029631Y-12286064D02*
X12020108Y-12257492D01*
X12020108Y-12257492D02*
X12010584Y-12209873D01*
X12010584Y-12209873D02*
X12010584Y-12171778D01*
X12010584Y-12171778D02*
X12020108Y-12124159D01*
X12020108Y-12124159D02*
X12029631Y-12095587D01*
X12029631Y-12095587D02*
X12039155Y-12076540D01*
X12039155Y-12076540D02*
X12058203Y-12047968D01*
X12058203Y-12047968D02*
X12067727Y-12038445D01*
X12134393Y-12086064D02*
X12143917Y-12076540D01*
X12143917Y-12076540D02*
X12162965Y-12067016D01*
X12162965Y-12067016D02*
X12210584Y-12067016D01*
X12210584Y-12067016D02*
X12229631Y-12076540D01*
X12229631Y-12076540D02*
X12239155Y-12086064D01*
X12239155Y-12086064D02*
X12248679Y-12105111D01*
X12248679Y-12105111D02*
X12248679Y-12124159D01*
X12248679Y-12124159D02*
X12239155Y-12152730D01*
X12239155Y-12152730D02*
X12124869Y-12267016D01*
X12124869Y-12267016D02*
X12248679Y-12267016D01*
X12324869Y-12086064D02*
X12334393Y-12076540D01*
X12334393Y-12076540D02*
X12353441Y-12067016D01*
X12353441Y-12067016D02*
X12401060Y-12067016D01*
X12401060Y-12067016D02*
X12420108Y-12076540D01*
X12420108Y-12076540D02*
X12429631Y-12086064D01*
X12429631Y-12086064D02*
X12439155Y-12105111D01*
X12439155Y-12105111D02*
X12439155Y-12124159D01*
X12439155Y-12124159D02*
X12429631Y-12152730D01*
X12429631Y-12152730D02*
X12315346Y-12267016D01*
X12315346Y-12267016D02*
X12439155Y-12267016D01*
X12677250Y-12267016D02*
X12677250Y-12067016D01*
X12762965Y-12267016D02*
X12762965Y-12162254D01*
X12762965Y-12162254D02*
X12753441Y-12143206D01*
X12753441Y-12143206D02*
X12734393Y-12133683D01*
X12734393Y-12133683D02*
X12705822Y-12133683D01*
X12705822Y-12133683D02*
X12686774Y-12143206D01*
X12686774Y-12143206D02*
X12677250Y-12152730D01*
X12886774Y-12267016D02*
X12867727Y-12257492D01*
X12867727Y-12257492D02*
X12858203Y-12247968D01*
X12858203Y-12247968D02*
X12848679Y-12228921D01*
X12848679Y-12228921D02*
X12848679Y-12171778D01*
X12848679Y-12171778D02*
X12858203Y-12152730D01*
X12858203Y-12152730D02*
X12867727Y-12143206D01*
X12867727Y-12143206D02*
X12886774Y-12133683D01*
X12886774Y-12133683D02*
X12915346Y-12133683D01*
X12915346Y-12133683D02*
X12934393Y-12143206D01*
X12934393Y-12143206D02*
X12943917Y-12152730D01*
X12943917Y-12152730D02*
X12953441Y-12171778D01*
X12953441Y-12171778D02*
X12953441Y-12228921D01*
X12953441Y-12228921D02*
X12943917Y-12247968D01*
X12943917Y-12247968D02*
X12934393Y-12257492D01*
X12934393Y-12257492D02*
X12915346Y-12267016D01*
X12915346Y-12267016D02*
X12886774Y-12267016D01*
X13067727Y-12267016D02*
X13048679Y-12257492D01*
X13048679Y-12257492D02*
X13039155Y-12238445D01*
X13039155Y-12238445D02*
X13039155Y-12067016D01*
X13220108Y-12257492D02*
X13201060Y-12267016D01*
X13201060Y-12267016D02*
X13162965Y-12267016D01*
X13162965Y-12267016D02*
X13143917Y-12257492D01*
X13143917Y-12257492D02*
X13134393Y-12238445D01*
X13134393Y-12238445D02*
X13134393Y-12162254D01*
X13134393Y-12162254D02*
X13143917Y-12143206D01*
X13143917Y-12143206D02*
X13162965Y-12133683D01*
X13162965Y-12133683D02*
X13201060Y-12133683D01*
X13201060Y-12133683D02*
X13220108Y-12143206D01*
X13220108Y-12143206D02*
X13229631Y-12162254D01*
X13229631Y-12162254D02*
X13229631Y-12181302D01*
X13229631Y-12181302D02*
X13134393Y-12200349D01*
X13305822Y-12257492D02*
X13324870Y-12267016D01*
X13324870Y-12267016D02*
X13362965Y-12267016D01*
X13362965Y-12267016D02*
X13382012Y-12257492D01*
X13382012Y-12257492D02*
X13391536Y-12238445D01*
X13391536Y-12238445D02*
X13391536Y-12228921D01*
X13391536Y-12228921D02*
X13382012Y-12209873D01*
X13382012Y-12209873D02*
X13362965Y-12200349D01*
X13362965Y-12200349D02*
X13334393Y-12200349D01*
X13334393Y-12200349D02*
X13315346Y-12190826D01*
X13315346Y-12190826D02*
X13305822Y-12171778D01*
X13305822Y-12171778D02*
X13305822Y-12162254D01*
X13305822Y-12162254D02*
X13315346Y-12143206D01*
X13315346Y-12143206D02*
X13334393Y-12133683D01*
X13334393Y-12133683D02*
X13362965Y-12133683D01*
X13362965Y-12133683D02*
X13382012Y-12143206D01*
X13458203Y-12343206D02*
X13467727Y-12333683D01*
X13467727Y-12333683D02*
X13486774Y-12305111D01*
X13486774Y-12305111D02*
X13496298Y-12286064D01*
X13496298Y-12286064D02*
X13505822Y-12257492D01*
X13505822Y-12257492D02*
X13515346Y-12209873D01*
X13515346Y-12209873D02*
X13515346Y-12171778D01*
X13515346Y-12171778D02*
X13505822Y-12124159D01*
X13505822Y-12124159D02*
X13496298Y-12095587D01*
X13496298Y-12095587D02*
X13486774Y-12076540D01*
X13486774Y-12076540D02*
X13467727Y-12047968D01*
X13467727Y-12047968D02*
X13458203Y-12038445D01*
D13*
X8383664Y-12385032D02*
X8492664Y-12494032D01*
X8492664Y-12385032D02*
X8383664Y-12494032D01*
X8492664Y-12439532D02*
G75*
G02*
X8383664Y-12439532I-54500J0D01*
G01*
X8383664Y-12439532D02*
G75*
G02*
X8492664Y-12439532I54500J0D01*
G01*
D10*
X8858203Y-12531016D02*
X8743917Y-12531016D01*
X8801060Y-12531016D02*
X8801060Y-12331016D01*
X8801060Y-12331016D02*
X8782012Y-12359587D01*
X8782012Y-12359587D02*
X8762964Y-12378635D01*
X8762964Y-12378635D02*
X8743917Y-12388159D01*
X8943917Y-12511968D02*
X8953441Y-12521492D01*
X8953441Y-12521492D02*
X8943917Y-12531016D01*
X8943917Y-12531016D02*
X8934393Y-12521492D01*
X8934393Y-12521492D02*
X8943917Y-12511968D01*
X8943917Y-12511968D02*
X8943917Y-12531016D01*
X9077250Y-12331016D02*
X9096298Y-12331016D01*
X9096298Y-12331016D02*
X9115345Y-12340540D01*
X9115345Y-12340540D02*
X9124869Y-12350064D01*
X9124869Y-12350064D02*
X9134393Y-12369111D01*
X9134393Y-12369111D02*
X9143917Y-12407206D01*
X9143917Y-12407206D02*
X9143917Y-12454826D01*
X9143917Y-12454826D02*
X9134393Y-12492921D01*
X9134393Y-12492921D02*
X9124869Y-12511968D01*
X9124869Y-12511968D02*
X9115345Y-12521492D01*
X9115345Y-12521492D02*
X9096298Y-12531016D01*
X9096298Y-12531016D02*
X9077250Y-12531016D01*
X9077250Y-12531016D02*
X9058203Y-12521492D01*
X9058203Y-12521492D02*
X9048679Y-12511968D01*
X9048679Y-12511968D02*
X9039155Y-12492921D01*
X9039155Y-12492921D02*
X9029631Y-12454826D01*
X9029631Y-12454826D02*
X9029631Y-12407206D01*
X9029631Y-12407206D02*
X9039155Y-12369111D01*
X9039155Y-12369111D02*
X9048679Y-12350064D01*
X9048679Y-12350064D02*
X9058203Y-12340540D01*
X9058203Y-12340540D02*
X9077250Y-12331016D01*
X9239155Y-12531016D02*
X9277250Y-12531016D01*
X9277250Y-12531016D02*
X9296298Y-12521492D01*
X9296298Y-12521492D02*
X9305822Y-12511968D01*
X9305822Y-12511968D02*
X9324869Y-12483397D01*
X9324869Y-12483397D02*
X9334393Y-12445302D01*
X9334393Y-12445302D02*
X9334393Y-12369111D01*
X9334393Y-12369111D02*
X9324869Y-12350064D01*
X9324869Y-12350064D02*
X9315345Y-12340540D01*
X9315345Y-12340540D02*
X9296298Y-12331016D01*
X9296298Y-12331016D02*
X9258203Y-12331016D01*
X9258203Y-12331016D02*
X9239155Y-12340540D01*
X9239155Y-12340540D02*
X9229631Y-12350064D01*
X9229631Y-12350064D02*
X9220107Y-12369111D01*
X9220107Y-12369111D02*
X9220107Y-12416730D01*
X9220107Y-12416730D02*
X9229631Y-12435778D01*
X9229631Y-12435778D02*
X9239155Y-12445302D01*
X9239155Y-12445302D02*
X9258203Y-12454826D01*
X9258203Y-12454826D02*
X9296298Y-12454826D01*
X9296298Y-12454826D02*
X9315345Y-12445302D01*
X9315345Y-12445302D02*
X9324869Y-12435778D01*
X9324869Y-12435778D02*
X9334393Y-12416730D01*
X9458203Y-12331016D02*
X9477250Y-12331016D01*
X9477250Y-12331016D02*
X9496298Y-12340540D01*
X9496298Y-12340540D02*
X9505822Y-12350064D01*
X9505822Y-12350064D02*
X9515345Y-12369111D01*
X9515345Y-12369111D02*
X9524869Y-12407206D01*
X9524869Y-12407206D02*
X9524869Y-12454826D01*
X9524869Y-12454826D02*
X9515345Y-12492921D01*
X9515345Y-12492921D02*
X9505822Y-12511968D01*
X9505822Y-12511968D02*
X9496298Y-12521492D01*
X9496298Y-12521492D02*
X9477250Y-12531016D01*
X9477250Y-12531016D02*
X9458203Y-12531016D01*
X9458203Y-12531016D02*
X9439155Y-12521492D01*
X9439155Y-12521492D02*
X9429631Y-12511968D01*
X9429631Y-12511968D02*
X9420107Y-12492921D01*
X9420107Y-12492921D02*
X9410584Y-12454826D01*
X9410584Y-12454826D02*
X9410584Y-12407206D01*
X9410584Y-12407206D02*
X9420107Y-12369111D01*
X9420107Y-12369111D02*
X9429631Y-12350064D01*
X9429631Y-12350064D02*
X9439155Y-12340540D01*
X9439155Y-12340540D02*
X9458203Y-12331016D01*
X9610584Y-12531016D02*
X9610584Y-12397683D01*
X9610584Y-12416730D02*
X9620107Y-12407206D01*
X9620107Y-12407206D02*
X9639155Y-12397683D01*
X9639155Y-12397683D02*
X9667726Y-12397683D01*
X9667726Y-12397683D02*
X9686774Y-12407206D01*
X9686774Y-12407206D02*
X9696298Y-12426254D01*
X9696298Y-12426254D02*
X9696298Y-12531016D01*
X9696298Y-12426254D02*
X9705822Y-12407206D01*
X9705822Y-12407206D02*
X9724869Y-12397683D01*
X9724869Y-12397683D02*
X9753441Y-12397683D01*
X9753441Y-12397683D02*
X9772488Y-12407206D01*
X9772488Y-12407206D02*
X9782012Y-12426254D01*
X9782012Y-12426254D02*
X9782012Y-12531016D01*
X9877250Y-12531016D02*
X9877250Y-12397683D01*
X9877250Y-12416730D02*
X9886774Y-12407206D01*
X9886774Y-12407206D02*
X9905822Y-12397683D01*
X9905822Y-12397683D02*
X9934393Y-12397683D01*
X9934393Y-12397683D02*
X9953441Y-12407206D01*
X9953441Y-12407206D02*
X9962965Y-12426254D01*
X9962965Y-12426254D02*
X9962965Y-12531016D01*
X9962965Y-12426254D02*
X9972488Y-12407206D01*
X9972488Y-12407206D02*
X9991536Y-12397683D01*
X9991536Y-12397683D02*
X10020107Y-12397683D01*
X10020107Y-12397683D02*
X10039155Y-12407206D01*
X10039155Y-12407206D02*
X10048679Y-12426254D01*
X10048679Y-12426254D02*
X10048679Y-12531016D01*
X10439155Y-12321492D02*
X10267727Y-12578635D01*
X10696298Y-12331016D02*
X10715346Y-12331016D01*
X10715346Y-12331016D02*
X10734393Y-12340540D01*
X10734393Y-12340540D02*
X10743917Y-12350064D01*
X10743917Y-12350064D02*
X10753441Y-12369111D01*
X10753441Y-12369111D02*
X10762965Y-12407206D01*
X10762965Y-12407206D02*
X10762965Y-12454826D01*
X10762965Y-12454826D02*
X10753441Y-12492921D01*
X10753441Y-12492921D02*
X10743917Y-12511968D01*
X10743917Y-12511968D02*
X10734393Y-12521492D01*
X10734393Y-12521492D02*
X10715346Y-12531016D01*
X10715346Y-12531016D02*
X10696298Y-12531016D01*
X10696298Y-12531016D02*
X10677250Y-12521492D01*
X10677250Y-12521492D02*
X10667727Y-12511968D01*
X10667727Y-12511968D02*
X10658203Y-12492921D01*
X10658203Y-12492921D02*
X10648679Y-12454826D01*
X10648679Y-12454826D02*
X10648679Y-12407206D01*
X10648679Y-12407206D02*
X10658203Y-12369111D01*
X10658203Y-12369111D02*
X10667727Y-12350064D01*
X10667727Y-12350064D02*
X10677250Y-12340540D01*
X10677250Y-12340540D02*
X10696298Y-12331016D01*
X10848679Y-12511968D02*
X10858203Y-12521492D01*
X10858203Y-12521492D02*
X10848679Y-12531016D01*
X10848679Y-12531016D02*
X10839155Y-12521492D01*
X10839155Y-12521492D02*
X10848679Y-12511968D01*
X10848679Y-12511968D02*
X10848679Y-12531016D01*
X10982012Y-12331016D02*
X11001060Y-12331016D01*
X11001060Y-12331016D02*
X11020108Y-12340540D01*
X11020108Y-12340540D02*
X11029631Y-12350064D01*
X11029631Y-12350064D02*
X11039155Y-12369111D01*
X11039155Y-12369111D02*
X11048679Y-12407206D01*
X11048679Y-12407206D02*
X11048679Y-12454826D01*
X11048679Y-12454826D02*
X11039155Y-12492921D01*
X11039155Y-12492921D02*
X11029631Y-12511968D01*
X11029631Y-12511968D02*
X11020108Y-12521492D01*
X11020108Y-12521492D02*
X11001060Y-12531016D01*
X11001060Y-12531016D02*
X10982012Y-12531016D01*
X10982012Y-12531016D02*
X10962965Y-12521492D01*
X10962965Y-12521492D02*
X10953441Y-12511968D01*
X10953441Y-12511968D02*
X10943917Y-12492921D01*
X10943917Y-12492921D02*
X10934393Y-12454826D01*
X10934393Y-12454826D02*
X10934393Y-12407206D01*
X10934393Y-12407206D02*
X10943917Y-12369111D01*
X10943917Y-12369111D02*
X10953441Y-12350064D01*
X10953441Y-12350064D02*
X10962965Y-12340540D01*
X10962965Y-12340540D02*
X10982012Y-12331016D01*
X11220107Y-12397683D02*
X11220107Y-12531016D01*
X11172488Y-12321492D02*
X11124869Y-12464349D01*
X11124869Y-12464349D02*
X11248679Y-12464349D01*
X11315346Y-12350064D02*
X11324869Y-12340540D01*
X11324869Y-12340540D02*
X11343917Y-12331016D01*
X11343917Y-12331016D02*
X11391536Y-12331016D01*
X11391536Y-12331016D02*
X11410584Y-12340540D01*
X11410584Y-12340540D02*
X11420107Y-12350064D01*
X11420107Y-12350064D02*
X11429631Y-12369111D01*
X11429631Y-12369111D02*
X11429631Y-12388159D01*
X11429631Y-12388159D02*
X11420107Y-12416730D01*
X11420107Y-12416730D02*
X11305822Y-12531016D01*
X11305822Y-12531016D02*
X11429631Y-12531016D01*
X11524869Y-12531016D02*
X11562965Y-12531016D01*
X11562965Y-12531016D02*
X11582012Y-12521492D01*
X11582012Y-12521492D02*
X11591536Y-12511968D01*
X11591536Y-12511968D02*
X11610584Y-12483397D01*
X11610584Y-12483397D02*
X11620107Y-12445302D01*
X11620107Y-12445302D02*
X11620107Y-12369111D01*
X11620107Y-12369111D02*
X11610584Y-12350064D01*
X11610584Y-12350064D02*
X11601060Y-12340540D01*
X11601060Y-12340540D02*
X11582012Y-12331016D01*
X11582012Y-12331016D02*
X11543917Y-12331016D01*
X11543917Y-12331016D02*
X11524869Y-12340540D01*
X11524869Y-12340540D02*
X11515346Y-12350064D01*
X11515346Y-12350064D02*
X11505822Y-12369111D01*
X11505822Y-12369111D02*
X11505822Y-12416730D01*
X11505822Y-12416730D02*
X11515346Y-12435778D01*
X11515346Y-12435778D02*
X11524869Y-12445302D01*
X11524869Y-12445302D02*
X11543917Y-12454826D01*
X11543917Y-12454826D02*
X11582012Y-12454826D01*
X11582012Y-12454826D02*
X11601060Y-12445302D01*
X11601060Y-12445302D02*
X11610584Y-12435778D01*
X11610584Y-12435778D02*
X11620107Y-12416730D01*
X11696298Y-12331016D02*
X11696298Y-12369111D01*
X11772488Y-12331016D02*
X11772488Y-12369111D01*
X12067727Y-12607206D02*
X12058203Y-12597683D01*
X12058203Y-12597683D02*
X12039155Y-12569111D01*
X12039155Y-12569111D02*
X12029631Y-12550064D01*
X12029631Y-12550064D02*
X12020108Y-12521492D01*
X12020108Y-12521492D02*
X12010584Y-12473873D01*
X12010584Y-12473873D02*
X12010584Y-12435778D01*
X12010584Y-12435778D02*
X12020108Y-12388159D01*
X12020108Y-12388159D02*
X12029631Y-12359587D01*
X12029631Y-12359587D02*
X12039155Y-12340540D01*
X12039155Y-12340540D02*
X12058203Y-12311968D01*
X12058203Y-12311968D02*
X12067727Y-12302445D01*
X12248679Y-12531016D02*
X12134393Y-12531016D01*
X12191536Y-12531016D02*
X12191536Y-12331016D01*
X12191536Y-12331016D02*
X12172488Y-12359587D01*
X12172488Y-12359587D02*
X12153441Y-12378635D01*
X12153441Y-12378635D02*
X12134393Y-12388159D01*
X12362965Y-12416730D02*
X12343917Y-12407206D01*
X12343917Y-12407206D02*
X12334393Y-12397683D01*
X12334393Y-12397683D02*
X12324869Y-12378635D01*
X12324869Y-12378635D02*
X12324869Y-12369111D01*
X12324869Y-12369111D02*
X12334393Y-12350064D01*
X12334393Y-12350064D02*
X12343917Y-12340540D01*
X12343917Y-12340540D02*
X12362965Y-12331016D01*
X12362965Y-12331016D02*
X12401060Y-12331016D01*
X12401060Y-12331016D02*
X12420108Y-12340540D01*
X12420108Y-12340540D02*
X12429631Y-12350064D01*
X12429631Y-12350064D02*
X12439155Y-12369111D01*
X12439155Y-12369111D02*
X12439155Y-12378635D01*
X12439155Y-12378635D02*
X12429631Y-12397683D01*
X12429631Y-12397683D02*
X12420108Y-12407206D01*
X12420108Y-12407206D02*
X12401060Y-12416730D01*
X12401060Y-12416730D02*
X12362965Y-12416730D01*
X12362965Y-12416730D02*
X12343917Y-12426254D01*
X12343917Y-12426254D02*
X12334393Y-12435778D01*
X12334393Y-12435778D02*
X12324869Y-12454826D01*
X12324869Y-12454826D02*
X12324869Y-12492921D01*
X12324869Y-12492921D02*
X12334393Y-12511968D01*
X12334393Y-12511968D02*
X12343917Y-12521492D01*
X12343917Y-12521492D02*
X12362965Y-12531016D01*
X12362965Y-12531016D02*
X12401060Y-12531016D01*
X12401060Y-12531016D02*
X12420108Y-12521492D01*
X12420108Y-12521492D02*
X12429631Y-12511968D01*
X12429631Y-12511968D02*
X12439155Y-12492921D01*
X12439155Y-12492921D02*
X12439155Y-12454826D01*
X12439155Y-12454826D02*
X12429631Y-12435778D01*
X12429631Y-12435778D02*
X12420108Y-12426254D01*
X12420108Y-12426254D02*
X12401060Y-12416730D01*
X12677250Y-12531016D02*
X12677250Y-12331016D01*
X12762965Y-12531016D02*
X12762965Y-12426254D01*
X12762965Y-12426254D02*
X12753441Y-12407206D01*
X12753441Y-12407206D02*
X12734393Y-12397683D01*
X12734393Y-12397683D02*
X12705822Y-12397683D01*
X12705822Y-12397683D02*
X12686774Y-12407206D01*
X12686774Y-12407206D02*
X12677250Y-12416730D01*
X12886774Y-12531016D02*
X12867727Y-12521492D01*
X12867727Y-12521492D02*
X12858203Y-12511968D01*
X12858203Y-12511968D02*
X12848679Y-12492921D01*
X12848679Y-12492921D02*
X12848679Y-12435778D01*
X12848679Y-12435778D02*
X12858203Y-12416730D01*
X12858203Y-12416730D02*
X12867727Y-12407206D01*
X12867727Y-12407206D02*
X12886774Y-12397683D01*
X12886774Y-12397683D02*
X12915346Y-12397683D01*
X12915346Y-12397683D02*
X12934393Y-12407206D01*
X12934393Y-12407206D02*
X12943917Y-12416730D01*
X12943917Y-12416730D02*
X12953441Y-12435778D01*
X12953441Y-12435778D02*
X12953441Y-12492921D01*
X12953441Y-12492921D02*
X12943917Y-12511968D01*
X12943917Y-12511968D02*
X12934393Y-12521492D01*
X12934393Y-12521492D02*
X12915346Y-12531016D01*
X12915346Y-12531016D02*
X12886774Y-12531016D01*
X13067727Y-12531016D02*
X13048679Y-12521492D01*
X13048679Y-12521492D02*
X13039155Y-12502445D01*
X13039155Y-12502445D02*
X13039155Y-12331016D01*
X13220108Y-12521492D02*
X13201060Y-12531016D01*
X13201060Y-12531016D02*
X13162965Y-12531016D01*
X13162965Y-12531016D02*
X13143917Y-12521492D01*
X13143917Y-12521492D02*
X13134393Y-12502445D01*
X13134393Y-12502445D02*
X13134393Y-12426254D01*
X13134393Y-12426254D02*
X13143917Y-12407206D01*
X13143917Y-12407206D02*
X13162965Y-12397683D01*
X13162965Y-12397683D02*
X13201060Y-12397683D01*
X13201060Y-12397683D02*
X13220108Y-12407206D01*
X13220108Y-12407206D02*
X13229631Y-12426254D01*
X13229631Y-12426254D02*
X13229631Y-12445302D01*
X13229631Y-12445302D02*
X13134393Y-12464349D01*
X13305822Y-12521492D02*
X13324870Y-12531016D01*
X13324870Y-12531016D02*
X13362965Y-12531016D01*
X13362965Y-12531016D02*
X13382012Y-12521492D01*
X13382012Y-12521492D02*
X13391536Y-12502445D01*
X13391536Y-12502445D02*
X13391536Y-12492921D01*
X13391536Y-12492921D02*
X13382012Y-12473873D01*
X13382012Y-12473873D02*
X13362965Y-12464349D01*
X13362965Y-12464349D02*
X13334393Y-12464349D01*
X13334393Y-12464349D02*
X13315346Y-12454826D01*
X13315346Y-12454826D02*
X13305822Y-12435778D01*
X13305822Y-12435778D02*
X13305822Y-12426254D01*
X13305822Y-12426254D02*
X13315346Y-12407206D01*
X13315346Y-12407206D02*
X13334393Y-12397683D01*
X13334393Y-12397683D02*
X13362965Y-12397683D01*
X13362965Y-12397683D02*
X13382012Y-12407206D01*
X13458203Y-12607206D02*
X13467727Y-12597683D01*
X13467727Y-12597683D02*
X13486774Y-12569111D01*
X13486774Y-12569111D02*
X13496298Y-12550064D01*
X13496298Y-12550064D02*
X13505822Y-12521492D01*
X13505822Y-12521492D02*
X13515346Y-12473873D01*
X13515346Y-12473873D02*
X13515346Y-12435778D01*
X13515346Y-12435778D02*
X13505822Y-12388159D01*
X13505822Y-12388159D02*
X13496298Y-12359587D01*
X13496298Y-12359587D02*
X13486774Y-12340540D01*
X13486774Y-12340540D02*
X13467727Y-12311968D01*
X13467727Y-12311968D02*
X13458203Y-12302445D01*
D14*
X8362664Y-12638532D02*
X8492664Y-12768532D01*
X8492664Y-12638532D02*
X8362664Y-12768532D01*
X8427664Y-12638532D02*
X8427664Y-12768532D01*
X8362664Y-12703532D02*
X8492664Y-12703532D01*
D10*
X8858203Y-12795016D02*
X8743917Y-12795016D01*
X8801060Y-12795016D02*
X8801060Y-12595016D01*
X8801060Y-12595016D02*
X8782012Y-12623587D01*
X8782012Y-12623587D02*
X8762964Y-12642635D01*
X8762964Y-12642635D02*
X8743917Y-12652159D01*
X8943917Y-12775968D02*
X8953441Y-12785492D01*
X8953441Y-12785492D02*
X8943917Y-12795016D01*
X8943917Y-12795016D02*
X8934393Y-12785492D01*
X8934393Y-12785492D02*
X8943917Y-12775968D01*
X8943917Y-12775968D02*
X8943917Y-12795016D01*
X9020107Y-12595016D02*
X9143917Y-12595016D01*
X9143917Y-12595016D02*
X9077250Y-12671206D01*
X9077250Y-12671206D02*
X9105822Y-12671206D01*
X9105822Y-12671206D02*
X9124869Y-12680730D01*
X9124869Y-12680730D02*
X9134393Y-12690254D01*
X9134393Y-12690254D02*
X9143917Y-12709302D01*
X9143917Y-12709302D02*
X9143917Y-12756921D01*
X9143917Y-12756921D02*
X9134393Y-12775968D01*
X9134393Y-12775968D02*
X9124869Y-12785492D01*
X9124869Y-12785492D02*
X9105822Y-12795016D01*
X9105822Y-12795016D02*
X9048679Y-12795016D01*
X9048679Y-12795016D02*
X9029631Y-12785492D01*
X9029631Y-12785492D02*
X9020107Y-12775968D01*
X9267726Y-12595016D02*
X9286774Y-12595016D01*
X9286774Y-12595016D02*
X9305822Y-12604540D01*
X9305822Y-12604540D02*
X9315345Y-12614064D01*
X9315345Y-12614064D02*
X9324869Y-12633111D01*
X9324869Y-12633111D02*
X9334393Y-12671206D01*
X9334393Y-12671206D02*
X9334393Y-12718826D01*
X9334393Y-12718826D02*
X9324869Y-12756921D01*
X9324869Y-12756921D02*
X9315345Y-12775968D01*
X9315345Y-12775968D02*
X9305822Y-12785492D01*
X9305822Y-12785492D02*
X9286774Y-12795016D01*
X9286774Y-12795016D02*
X9267726Y-12795016D01*
X9267726Y-12795016D02*
X9248679Y-12785492D01*
X9248679Y-12785492D02*
X9239155Y-12775968D01*
X9239155Y-12775968D02*
X9229631Y-12756921D01*
X9229631Y-12756921D02*
X9220107Y-12718826D01*
X9220107Y-12718826D02*
X9220107Y-12671206D01*
X9220107Y-12671206D02*
X9229631Y-12633111D01*
X9229631Y-12633111D02*
X9239155Y-12614064D01*
X9239155Y-12614064D02*
X9248679Y-12604540D01*
X9248679Y-12604540D02*
X9267726Y-12595016D01*
X9458203Y-12595016D02*
X9477250Y-12595016D01*
X9477250Y-12595016D02*
X9496298Y-12604540D01*
X9496298Y-12604540D02*
X9505822Y-12614064D01*
X9505822Y-12614064D02*
X9515345Y-12633111D01*
X9515345Y-12633111D02*
X9524869Y-12671206D01*
X9524869Y-12671206D02*
X9524869Y-12718826D01*
X9524869Y-12718826D02*
X9515345Y-12756921D01*
X9515345Y-12756921D02*
X9505822Y-12775968D01*
X9505822Y-12775968D02*
X9496298Y-12785492D01*
X9496298Y-12785492D02*
X9477250Y-12795016D01*
X9477250Y-12795016D02*
X9458203Y-12795016D01*
X9458203Y-12795016D02*
X9439155Y-12785492D01*
X9439155Y-12785492D02*
X9429631Y-12775968D01*
X9429631Y-12775968D02*
X9420107Y-12756921D01*
X9420107Y-12756921D02*
X9410584Y-12718826D01*
X9410584Y-12718826D02*
X9410584Y-12671206D01*
X9410584Y-12671206D02*
X9420107Y-12633111D01*
X9420107Y-12633111D02*
X9429631Y-12614064D01*
X9429631Y-12614064D02*
X9439155Y-12604540D01*
X9439155Y-12604540D02*
X9458203Y-12595016D01*
X9610584Y-12795016D02*
X9610584Y-12661683D01*
X9610584Y-12680730D02*
X9620107Y-12671206D01*
X9620107Y-12671206D02*
X9639155Y-12661683D01*
X9639155Y-12661683D02*
X9667726Y-12661683D01*
X9667726Y-12661683D02*
X9686774Y-12671206D01*
X9686774Y-12671206D02*
X9696298Y-12690254D01*
X9696298Y-12690254D02*
X9696298Y-12795016D01*
X9696298Y-12690254D02*
X9705822Y-12671206D01*
X9705822Y-12671206D02*
X9724869Y-12661683D01*
X9724869Y-12661683D02*
X9753441Y-12661683D01*
X9753441Y-12661683D02*
X9772488Y-12671206D01*
X9772488Y-12671206D02*
X9782012Y-12690254D01*
X9782012Y-12690254D02*
X9782012Y-12795016D01*
X9877250Y-12795016D02*
X9877250Y-12661683D01*
X9877250Y-12680730D02*
X9886774Y-12671206D01*
X9886774Y-12671206D02*
X9905822Y-12661683D01*
X9905822Y-12661683D02*
X9934393Y-12661683D01*
X9934393Y-12661683D02*
X9953441Y-12671206D01*
X9953441Y-12671206D02*
X9962965Y-12690254D01*
X9962965Y-12690254D02*
X9962965Y-12795016D01*
X9962965Y-12690254D02*
X9972488Y-12671206D01*
X9972488Y-12671206D02*
X9991536Y-12661683D01*
X9991536Y-12661683D02*
X10020107Y-12661683D01*
X10020107Y-12661683D02*
X10039155Y-12671206D01*
X10039155Y-12671206D02*
X10048679Y-12690254D01*
X10048679Y-12690254D02*
X10048679Y-12795016D01*
X10439155Y-12585492D02*
X10267727Y-12842635D01*
X10696298Y-12595016D02*
X10715346Y-12595016D01*
X10715346Y-12595016D02*
X10734393Y-12604540D01*
X10734393Y-12604540D02*
X10743917Y-12614064D01*
X10743917Y-12614064D02*
X10753441Y-12633111D01*
X10753441Y-12633111D02*
X10762965Y-12671206D01*
X10762965Y-12671206D02*
X10762965Y-12718826D01*
X10762965Y-12718826D02*
X10753441Y-12756921D01*
X10753441Y-12756921D02*
X10743917Y-12775968D01*
X10743917Y-12775968D02*
X10734393Y-12785492D01*
X10734393Y-12785492D02*
X10715346Y-12795016D01*
X10715346Y-12795016D02*
X10696298Y-12795016D01*
X10696298Y-12795016D02*
X10677250Y-12785492D01*
X10677250Y-12785492D02*
X10667727Y-12775968D01*
X10667727Y-12775968D02*
X10658203Y-12756921D01*
X10658203Y-12756921D02*
X10648679Y-12718826D01*
X10648679Y-12718826D02*
X10648679Y-12671206D01*
X10648679Y-12671206D02*
X10658203Y-12633111D01*
X10658203Y-12633111D02*
X10667727Y-12614064D01*
X10667727Y-12614064D02*
X10677250Y-12604540D01*
X10677250Y-12604540D02*
X10696298Y-12595016D01*
X10848679Y-12775968D02*
X10858203Y-12785492D01*
X10858203Y-12785492D02*
X10848679Y-12795016D01*
X10848679Y-12795016D02*
X10839155Y-12785492D01*
X10839155Y-12785492D02*
X10848679Y-12775968D01*
X10848679Y-12775968D02*
X10848679Y-12795016D01*
X10982012Y-12595016D02*
X11001060Y-12595016D01*
X11001060Y-12595016D02*
X11020108Y-12604540D01*
X11020108Y-12604540D02*
X11029631Y-12614064D01*
X11029631Y-12614064D02*
X11039155Y-12633111D01*
X11039155Y-12633111D02*
X11048679Y-12671206D01*
X11048679Y-12671206D02*
X11048679Y-12718826D01*
X11048679Y-12718826D02*
X11039155Y-12756921D01*
X11039155Y-12756921D02*
X11029631Y-12775968D01*
X11029631Y-12775968D02*
X11020108Y-12785492D01*
X11020108Y-12785492D02*
X11001060Y-12795016D01*
X11001060Y-12795016D02*
X10982012Y-12795016D01*
X10982012Y-12795016D02*
X10962965Y-12785492D01*
X10962965Y-12785492D02*
X10953441Y-12775968D01*
X10953441Y-12775968D02*
X10943917Y-12756921D01*
X10943917Y-12756921D02*
X10934393Y-12718826D01*
X10934393Y-12718826D02*
X10934393Y-12671206D01*
X10934393Y-12671206D02*
X10943917Y-12633111D01*
X10943917Y-12633111D02*
X10953441Y-12614064D01*
X10953441Y-12614064D02*
X10962965Y-12604540D01*
X10962965Y-12604540D02*
X10982012Y-12595016D01*
X11229631Y-12595016D02*
X11134393Y-12595016D01*
X11134393Y-12595016D02*
X11124869Y-12690254D01*
X11124869Y-12690254D02*
X11134393Y-12680730D01*
X11134393Y-12680730D02*
X11153441Y-12671206D01*
X11153441Y-12671206D02*
X11201060Y-12671206D01*
X11201060Y-12671206D02*
X11220107Y-12680730D01*
X11220107Y-12680730D02*
X11229631Y-12690254D01*
X11229631Y-12690254D02*
X11239155Y-12709302D01*
X11239155Y-12709302D02*
X11239155Y-12756921D01*
X11239155Y-12756921D02*
X11229631Y-12775968D01*
X11229631Y-12775968D02*
X11220107Y-12785492D01*
X11220107Y-12785492D02*
X11201060Y-12795016D01*
X11201060Y-12795016D02*
X11153441Y-12795016D01*
X11153441Y-12795016D02*
X11134393Y-12785492D01*
X11134393Y-12785492D02*
X11124869Y-12775968D01*
X11429631Y-12795016D02*
X11315346Y-12795016D01*
X11372488Y-12795016D02*
X11372488Y-12595016D01*
X11372488Y-12595016D02*
X11353441Y-12623587D01*
X11353441Y-12623587D02*
X11334393Y-12642635D01*
X11334393Y-12642635D02*
X11315346Y-12652159D01*
X11505822Y-12614064D02*
X11515346Y-12604540D01*
X11515346Y-12604540D02*
X11534393Y-12595016D01*
X11534393Y-12595016D02*
X11582012Y-12595016D01*
X11582012Y-12595016D02*
X11601060Y-12604540D01*
X11601060Y-12604540D02*
X11610584Y-12614064D01*
X11610584Y-12614064D02*
X11620107Y-12633111D01*
X11620107Y-12633111D02*
X11620107Y-12652159D01*
X11620107Y-12652159D02*
X11610584Y-12680730D01*
X11610584Y-12680730D02*
X11496298Y-12795016D01*
X11496298Y-12795016D02*
X11620107Y-12795016D01*
X11696298Y-12595016D02*
X11696298Y-12633111D01*
X11772488Y-12595016D02*
X11772488Y-12633111D01*
X12067727Y-12871206D02*
X12058203Y-12861683D01*
X12058203Y-12861683D02*
X12039155Y-12833111D01*
X12039155Y-12833111D02*
X12029631Y-12814064D01*
X12029631Y-12814064D02*
X12020108Y-12785492D01*
X12020108Y-12785492D02*
X12010584Y-12737873D01*
X12010584Y-12737873D02*
X12010584Y-12699778D01*
X12010584Y-12699778D02*
X12020108Y-12652159D01*
X12020108Y-12652159D02*
X12029631Y-12623587D01*
X12029631Y-12623587D02*
X12039155Y-12604540D01*
X12039155Y-12604540D02*
X12058203Y-12575968D01*
X12058203Y-12575968D02*
X12067727Y-12566445D01*
X12124869Y-12595016D02*
X12248679Y-12595016D01*
X12248679Y-12595016D02*
X12182012Y-12671206D01*
X12182012Y-12671206D02*
X12210584Y-12671206D01*
X12210584Y-12671206D02*
X12229631Y-12680730D01*
X12229631Y-12680730D02*
X12239155Y-12690254D01*
X12239155Y-12690254D02*
X12248679Y-12709302D01*
X12248679Y-12709302D02*
X12248679Y-12756921D01*
X12248679Y-12756921D02*
X12239155Y-12775968D01*
X12239155Y-12775968D02*
X12229631Y-12785492D01*
X12229631Y-12785492D02*
X12210584Y-12795016D01*
X12210584Y-12795016D02*
X12153441Y-12795016D01*
X12153441Y-12795016D02*
X12134393Y-12785492D01*
X12134393Y-12785492D02*
X12124869Y-12775968D01*
X12486774Y-12795016D02*
X12486774Y-12595016D01*
X12572489Y-12795016D02*
X12572489Y-12690254D01*
X12572489Y-12690254D02*
X12562965Y-12671206D01*
X12562965Y-12671206D02*
X12543917Y-12661683D01*
X12543917Y-12661683D02*
X12515346Y-12661683D01*
X12515346Y-12661683D02*
X12496298Y-12671206D01*
X12496298Y-12671206D02*
X12486774Y-12680730D01*
X12696298Y-12795016D02*
X12677250Y-12785492D01*
X12677250Y-12785492D02*
X12667727Y-12775968D01*
X12667727Y-12775968D02*
X12658203Y-12756921D01*
X12658203Y-12756921D02*
X12658203Y-12699778D01*
X12658203Y-12699778D02*
X12667727Y-12680730D01*
X12667727Y-12680730D02*
X12677250Y-12671206D01*
X12677250Y-12671206D02*
X12696298Y-12661683D01*
X12696298Y-12661683D02*
X12724870Y-12661683D01*
X12724870Y-12661683D02*
X12743917Y-12671206D01*
X12743917Y-12671206D02*
X12753441Y-12680730D01*
X12753441Y-12680730D02*
X12762965Y-12699778D01*
X12762965Y-12699778D02*
X12762965Y-12756921D01*
X12762965Y-12756921D02*
X12753441Y-12775968D01*
X12753441Y-12775968D02*
X12743917Y-12785492D01*
X12743917Y-12785492D02*
X12724870Y-12795016D01*
X12724870Y-12795016D02*
X12696298Y-12795016D01*
X12877250Y-12795016D02*
X12858203Y-12785492D01*
X12858203Y-12785492D02*
X12848679Y-12766445D01*
X12848679Y-12766445D02*
X12848679Y-12595016D01*
X13029631Y-12785492D02*
X13010584Y-12795016D01*
X13010584Y-12795016D02*
X12972489Y-12795016D01*
X12972489Y-12795016D02*
X12953441Y-12785492D01*
X12953441Y-12785492D02*
X12943917Y-12766445D01*
X12943917Y-12766445D02*
X12943917Y-12690254D01*
X12943917Y-12690254D02*
X12953441Y-12671206D01*
X12953441Y-12671206D02*
X12972489Y-12661683D01*
X12972489Y-12661683D02*
X13010584Y-12661683D01*
X13010584Y-12661683D02*
X13029631Y-12671206D01*
X13029631Y-12671206D02*
X13039155Y-12690254D01*
X13039155Y-12690254D02*
X13039155Y-12709302D01*
X13039155Y-12709302D02*
X12943917Y-12728349D01*
X13115346Y-12785492D02*
X13134393Y-12795016D01*
X13134393Y-12795016D02*
X13172489Y-12795016D01*
X13172489Y-12795016D02*
X13191536Y-12785492D01*
X13191536Y-12785492D02*
X13201060Y-12766445D01*
X13201060Y-12766445D02*
X13201060Y-12756921D01*
X13201060Y-12756921D02*
X13191536Y-12737873D01*
X13191536Y-12737873D02*
X13172489Y-12728349D01*
X13172489Y-12728349D02*
X13143917Y-12728349D01*
X13143917Y-12728349D02*
X13124870Y-12718826D01*
X13124870Y-12718826D02*
X13115346Y-12699778D01*
X13115346Y-12699778D02*
X13115346Y-12690254D01*
X13115346Y-12690254D02*
X13124870Y-12671206D01*
X13124870Y-12671206D02*
X13143917Y-12661683D01*
X13143917Y-12661683D02*
X13172489Y-12661683D01*
X13172489Y-12661683D02*
X13191536Y-12671206D01*
X13267727Y-12871206D02*
X13277251Y-12861683D01*
X13277251Y-12861683D02*
X13296298Y-12833111D01*
X13296298Y-12833111D02*
X13305822Y-12814064D01*
X13305822Y-12814064D02*
X13315346Y-12785492D01*
X13315346Y-12785492D02*
X13324870Y-12737873D01*
X13324870Y-12737873D02*
X13324870Y-12699778D01*
X13324870Y-12699778D02*
X13315346Y-12652159D01*
X13315346Y-12652159D02*
X13305822Y-12623587D01*
X13305822Y-12623587D02*
X13296298Y-12604540D01*
X13296298Y-12604540D02*
X13277251Y-12575968D01*
X13277251Y-12575968D02*
X13267727Y-12566445D01*
M02*
