%TF.GenerationSoftware,KiCad,Pcbnew,9.0.1*%
%TF.CreationDate,2025-06-05T13:09:00-07:00*%
%TF.ProjectId,chop-controller-heat,63686f70-2d63-46f6-9e74-726f6c6c6572,rev?*%
%TF.SameCoordinates,Original*%
%TF.FileFunction,Soldermask,Bot*%
%TF.FilePolarity,Negative*%
%FSLAX46Y46*%
G04 Gerber Fmt 4.6, Leading zero omitted, Abs format (unit mm)*
G04 Created by KiCad (PCBNEW 9.0.1) date 2025-06-05 13:09:00*
%MOMM*%
%LPD*%
G01*
G04 APERTURE LIST*
G04 Aperture macros list*
%AMRoundRect*
0 Rectangle with rounded corners*
0 $1 Rounding radius*
0 $2 $3 $4 $5 $6 $7 $8 $9 X,Y pos of 4 corners*
0 Add a 4 corners polygon primitive as box body*
4,1,4,$2,$3,$4,$5,$6,$7,$8,$9,$2,$3,0*
0 Add four circle primitives for the rounded corners*
1,1,$1+$1,$2,$3*
1,1,$1+$1,$4,$5*
1,1,$1+$1,$6,$7*
1,1,$1+$1,$8,$9*
0 Add four rect primitives between the rounded corners*
20,1,$1+$1,$2,$3,$4,$5,0*
20,1,$1+$1,$4,$5,$6,$7,0*
20,1,$1+$1,$6,$7,$8,$9,0*
20,1,$1+$1,$8,$9,$2,$3,0*%
G04 Aperture macros list end*
%ADD10R,1.500000X1.050000*%
%ADD11O,1.500000X1.050000*%
%ADD12C,3.200000*%
%ADD13C,3.000000*%
%ADD14RoundRect,0.250001X0.499999X-0.499999X0.499999X0.499999X-0.499999X0.499999X-0.499999X-0.499999X0*%
%ADD15C,1.500000*%
%ADD16C,1.440000*%
%ADD17C,3.400000*%
%ADD18RoundRect,0.250560X-0.619440X-0.619440X0.619440X-0.619440X0.619440X0.619440X-0.619440X0.619440X0*%
%ADD19C,1.740000*%
%ADD20RoundRect,0.250001X-0.499999X0.499999X-0.499999X-0.499999X0.499999X-0.499999X0.499999X0.499999X0*%
%ADD21C,2.500000*%
%ADD22RoundRect,0.250560X0.619440X0.619440X-0.619440X0.619440X-0.619440X-0.619440X0.619440X-0.619440X0*%
G04 APERTURE END LIST*
D10*
%TO.C,U18*%
X111082638Y-84823323D03*
D11*
X111082638Y-86093323D03*
X111082638Y-87363323D03*
%TD*%
D12*
%TO.C,MK4*%
X90726800Y-99362000D03*
%TD*%
%TO.C,MK2*%
X205957400Y-54022000D03*
%TD*%
D13*
%TO.C,J11*%
X90726800Y-77852800D03*
X90726800Y-64152800D03*
D14*
X95046800Y-80012800D03*
D15*
X95046800Y-77012800D03*
X95046800Y-74012800D03*
X95046800Y-71012800D03*
X95046800Y-68012800D03*
X95046800Y-65012800D03*
X95046800Y-62012800D03*
X98046800Y-80012800D03*
X98046800Y-77012800D03*
X98046800Y-74012800D03*
X98046800Y-71012800D03*
X98046800Y-68012800D03*
X98046800Y-65012800D03*
X98046800Y-62012800D03*
%TD*%
D16*
%TO.C,RV1*%
X121602638Y-77594323D03*
X121602638Y-75054323D03*
X121602638Y-72514323D03*
%TD*%
D17*
%TO.C,J2*%
X148763638Y-54293323D03*
X158923638Y-54293323D03*
D18*
X150033638Y-62933323D03*
D19*
X152573638Y-62933323D03*
X155143638Y-62933323D03*
X157683638Y-62933323D03*
%TD*%
D12*
%TO.C,MK3*%
X205957400Y-99362000D03*
%TD*%
D17*
%TO.C,J13*%
X106425638Y-53969323D03*
X111505638Y-53969323D03*
D18*
X107695638Y-62609323D03*
D19*
X110235638Y-62609323D03*
%TD*%
D13*
%TO.C,J12*%
X206124000Y-73960000D03*
X206124000Y-78660000D03*
D20*
X201804000Y-71800000D03*
D15*
X201804000Y-74800000D03*
X201804000Y-77800000D03*
X201804000Y-80800000D03*
X198804000Y-71800000D03*
X198804000Y-74800000D03*
X198804000Y-77800000D03*
X198804000Y-80800000D03*
%TD*%
D16*
%TO.C,RV2*%
X120322638Y-88887323D03*
X122862638Y-88887323D03*
X125402638Y-88887323D03*
%TD*%
D12*
%TO.C,MK1*%
X90726800Y-54022000D03*
%TD*%
D13*
%TO.C,K1*%
X122618638Y-67923323D03*
D21*
X128668638Y-65973323D03*
D13*
X128668638Y-53773323D03*
X116618638Y-53723323D03*
D21*
X116668638Y-65973323D03*
%TD*%
D17*
%TO.C,J4*%
X179573888Y-54344073D03*
X189733888Y-54344073D03*
D18*
X180843888Y-62984073D03*
D19*
X183383888Y-62984073D03*
X185953888Y-62984073D03*
X188493888Y-62984073D03*
%TD*%
D17*
%TO.C,J3*%
X174400888Y-54344073D03*
X164240888Y-54344073D03*
D22*
X173130888Y-62984073D03*
D19*
X170590888Y-62984073D03*
X168020888Y-62984073D03*
X165480888Y-62984073D03*
%TD*%
D17*
%TO.C,J1*%
X143717638Y-54293323D03*
X133557638Y-54293323D03*
D22*
X142447638Y-62933323D03*
D19*
X139907638Y-62933323D03*
X137337638Y-62933323D03*
X134797638Y-62933323D03*
%TD*%
M02*
