M48
; DRILL file {KiCad 9.0.1} date 2025-06-05T13:09:51-0700
; FORMAT={-:-/ absolute / metric / decimal}
; #@! TF.CreationDate,2025-06-05T13:09:51-07:00
; #@! TF.GenerationSoftware,Kicad,Pcbnew,9.0.1
; #@! TF.FileFunction,Plated,1,4,PTH
FMAT,2
METRIC
; #@! TA.AperFunction,Plated,PTH,ViaDrill
T1C0.400
; #@! TA.AperFunction,Plated,PTH,ComponentDrill
T2C0.750
; #@! TA.AperFunction,Plated,PTH,ComponentDrill
T3C0.800
; #@! TA.AperFunction,Plated,PTH,ComponentDrill
T4C1.000
; #@! TA.AperFunction,Plated,PTH,ComponentDrill
T5C1.020
; #@! TA.AperFunction,Plated,PTH,ComponentDrill
T6C1.090
; #@! TA.AperFunction,Plated,PTH,ComponentDrill
T7C1.300
%
G90
G05
T1
X105.347Y-66.281
X113.271Y-74.663
X117.031Y-71.615
X125.159Y-71.107
X130.747Y-70.091
X130.747Y-79.489
X130.747Y-80.759
X130.747Y-81.759
X130.747Y-82.791
X130.747Y-83.807
X130.747Y-84.823
X130.747Y-85.839
X130.747Y-87.617
X131.458Y-73.952
X132.779Y-72.123
X136.462Y-74.282
X138.367Y-79.743
X140.5Y-72.479
X148.273Y-72.631
X151.321Y-76.441
X153.861Y-65.532
X162.497Y-72.377
X163.259Y-70.853
X164.021Y-77.457
X164.325Y-65.062
X167.069Y-79.235
X170.523Y-72.428
X178.499Y-73.901
X179.565Y-78.88
X184.341Y-66.789
X185.103Y-74.409
X191.453Y-74.155
X193.231Y-63.741
X193.485Y-68.364
T2
X111.083Y-84.823
X111.083Y-86.093
X111.083Y-87.363
T3
X120.323Y-88.887
X121.603Y-72.514
X121.603Y-75.054
X121.603Y-77.594
X122.863Y-88.887
X125.403Y-88.887
T4
X116.669Y-65.973
X128.669Y-65.973
T5
X95.047Y-62.013
X95.047Y-65.013
X95.047Y-68.013
X95.047Y-71.013
X95.047Y-74.013
X95.047Y-77.013
X95.047Y-80.013
X98.047Y-62.013
X98.047Y-65.013
X98.047Y-68.013
X98.047Y-71.013
X98.047Y-74.013
X98.047Y-77.013
X98.047Y-80.013
X198.804Y-71.8
X198.804Y-74.8
X198.804Y-77.8
X198.804Y-80.8
X201.804Y-71.8
X201.804Y-74.8
X201.804Y-77.8
X201.804Y-80.8
T6
X107.696Y-62.609
X110.236Y-62.609
X134.798Y-62.933
X137.338Y-62.933
X139.908Y-62.933
X142.448Y-62.933
X150.034Y-62.933
X152.574Y-62.933
X155.144Y-62.933
X157.684Y-62.933
X165.481Y-62.984
X168.021Y-62.984
X170.591Y-62.984
X173.131Y-62.984
X180.844Y-62.984
X183.384Y-62.984
X185.954Y-62.984
X188.494Y-62.984
T7
X116.619Y-53.723
X122.619Y-67.923
X128.669Y-53.773
M30
