%TF.GenerationSoftware,KiCad,Pcbnew,9.0.1*%
%TF.CreationDate,2025-06-09T13:50:39-07:00*%
%TF.ProjectId,chop_battery_board,63686f70-5f62-4617-9474-6572795f626f,rev?*%
%TF.SameCoordinates,Original*%
%TF.FileFunction,Copper,L2,Inr*%
%TF.FilePolarity,Positive*%
%FSLAX46Y46*%
G04 Gerber Fmt 4.6, Leading zero omitted, Abs format (unit mm)*
G04 Created by KiCad (PCBNEW 9.0.1) date 2025-06-09 13:50:39*
%MOMM*%
%LPD*%
G01*
G04 APERTURE LIST*
G04 Aperture macros list*
%AMRoundRect*
0 Rectangle with rounded corners*
0 $1 Rounding radius*
0 $2 $3 $4 $5 $6 $7 $8 $9 X,Y pos of 4 corners*
0 Add a 4 corners polygon primitive as box body*
4,1,4,$2,$3,$4,$5,$6,$7,$8,$9,$2,$3,0*
0 Add four circle primitives for the rounded corners*
1,1,$1+$1,$2,$3*
1,1,$1+$1,$4,$5*
1,1,$1+$1,$6,$7*
1,1,$1+$1,$8,$9*
0 Add four rect primitives between the rounded corners*
20,1,$1+$1,$2,$3,$4,$5,0*
20,1,$1+$1,$4,$5,$6,$7,0*
20,1,$1+$1,$6,$7,$8,$9,0*
20,1,$1+$1,$8,$9,$2,$3,0*%
G04 Aperture macros list end*
%TA.AperFunction,ComponentPad*%
%ADD10C,1.850000*%
%TD*%
%TA.AperFunction,ComponentPad*%
%ADD11R,2.600000X2.600000*%
%TD*%
%TA.AperFunction,ComponentPad*%
%ADD12C,2.600000*%
%TD*%
%TA.AperFunction,ComponentPad*%
%ADD13RoundRect,0.250000X0.750000X-0.600000X0.750000X0.600000X-0.750000X0.600000X-0.750000X-0.600000X0*%
%TD*%
%TA.AperFunction,ComponentPad*%
%ADD14O,2.000000X1.700000*%
%TD*%
%TA.AperFunction,ComponentPad*%
%ADD15RoundRect,0.250000X-0.350000X-0.625000X0.350000X-0.625000X0.350000X0.625000X-0.350000X0.625000X0*%
%TD*%
%TA.AperFunction,ComponentPad*%
%ADD16O,1.200000X1.750000*%
%TD*%
%TA.AperFunction,ViaPad*%
%ADD17C,0.800000*%
%TD*%
G04 APERTURE END LIST*
D10*
%TO.N,Net-(SW1-A-Pad1)*%
%TO.C,SW1*%
X157085000Y-117429706D03*
%TO.N,Net-(J13-Pin_2)*%
X157085000Y-122129706D03*
%TO.N,Net-(R5-Pad2)*%
X157085000Y-126829706D03*
%TO.N,GND*%
X161915000Y-126829706D03*
%TO.N,Net-(D2-A)*%
X161915000Y-122129706D03*
%TO.N,Net-(SW1-A-Pad1)*%
X161915000Y-117429706D03*
%TD*%
D11*
%TO.N,/ChargerVoltage*%
%TO.C,J1*%
X189250000Y-125300000D03*
D12*
%TO.N,GND*%
X189250000Y-131300000D03*
%TO.N,N/C*%
X184550000Y-128300000D03*
%TD*%
D13*
%TO.N,Net-(D2-A)*%
%TO.C,J14*%
X203467500Y-121750000D03*
D14*
%TO.N,GND*%
X203467500Y-119250000D03*
%TD*%
D15*
%TO.N,GND*%
%TO.C,J13*%
X160500000Y-110450000D03*
D16*
%TO.N,Net-(J13-Pin_2)*%
X162500000Y-110450000D03*
%TD*%
D17*
%TO.N,GND*%
X182000000Y-120000000D03*
X171500000Y-125500000D03*
%TD*%
%TA.AperFunction,Conductor*%
%TO.N,GND*%
G36*
X210948408Y-103420233D02*
G01*
X211002946Y-103474771D01*
X211022908Y-103549271D01*
X211022908Y-139530271D01*
X211002946Y-139604771D01*
X210948408Y-139659309D01*
X210873908Y-139679271D01*
X140316908Y-139679271D01*
X140242408Y-139659309D01*
X140187870Y-139604771D01*
X140167908Y-139530271D01*
X140167908Y-131878706D01*
X145649500Y-131878706D01*
X145649500Y-132121293D01*
X145681160Y-132361781D01*
X145681161Y-132361787D01*
X145681162Y-132361789D01*
X145743946Y-132596100D01*
X145836776Y-132820212D01*
X145958064Y-133030289D01*
X146105735Y-133222738D01*
X146277262Y-133394265D01*
X146469711Y-133541936D01*
X146679788Y-133663224D01*
X146903900Y-133756054D01*
X147138211Y-133818838D01*
X147138217Y-133818838D01*
X147138218Y-133818839D01*
X147203600Y-133827446D01*
X147378712Y-133850500D01*
X147621288Y-133850500D01*
X147861789Y-133818838D01*
X148096100Y-133756054D01*
X148320212Y-133663224D01*
X148530289Y-133541936D01*
X148722738Y-133394265D01*
X148894265Y-133222738D01*
X149041936Y-133030289D01*
X149163224Y-132820212D01*
X149256054Y-132596100D01*
X149318838Y-132361789D01*
X149350500Y-132121288D01*
X149350500Y-131878712D01*
X149318838Y-131638211D01*
X149256054Y-131403900D01*
X149164147Y-131182016D01*
X187450000Y-131182016D01*
X187450000Y-131417983D01*
X187480796Y-131651901D01*
X187480798Y-131651914D01*
X187541868Y-131879832D01*
X187632162Y-132097823D01*
X187632165Y-132097829D01*
X187750141Y-132302168D01*
X187812721Y-132383724D01*
X188534152Y-131662292D01*
X188541049Y-131678942D01*
X188628599Y-131809970D01*
X188740030Y-131921401D01*
X188871058Y-132008951D01*
X188887705Y-132015846D01*
X188166274Y-132737277D01*
X188247831Y-132799858D01*
X188452170Y-132917834D01*
X188452176Y-132917837D01*
X188670167Y-133008131D01*
X188898085Y-133069201D01*
X188898098Y-133069203D01*
X189132016Y-133099999D01*
X189132020Y-133100000D01*
X189367980Y-133100000D01*
X189367983Y-133099999D01*
X189601901Y-133069203D01*
X189601914Y-133069201D01*
X189829832Y-133008131D01*
X190047823Y-132917837D01*
X190047825Y-132917836D01*
X190252172Y-132799856D01*
X190333725Y-132737278D01*
X189612293Y-132015846D01*
X189628942Y-132008951D01*
X189759970Y-131921401D01*
X189871401Y-131809970D01*
X189958951Y-131678942D01*
X189965847Y-131662293D01*
X190687278Y-132383724D01*
X190749856Y-132302172D01*
X190867836Y-132097825D01*
X190867837Y-132097823D01*
X190925461Y-131958706D01*
X202323500Y-131958706D01*
X202323500Y-132201293D01*
X202355160Y-132441781D01*
X202355161Y-132441787D01*
X202355162Y-132441789D01*
X202417946Y-132676100D01*
X202510776Y-132900212D01*
X202632064Y-133110289D01*
X202779735Y-133302738D01*
X202951262Y-133474265D01*
X203143711Y-133621936D01*
X203353788Y-133743224D01*
X203577900Y-133836054D01*
X203812211Y-133898838D01*
X203812217Y-133898838D01*
X203812218Y-133898839D01*
X203877600Y-133907446D01*
X204052712Y-133930500D01*
X204295288Y-133930500D01*
X204535789Y-133898838D01*
X204770100Y-133836054D01*
X204994212Y-133743224D01*
X205204289Y-133621936D01*
X205396738Y-133474265D01*
X205568265Y-133302738D01*
X205715936Y-133110289D01*
X205837224Y-132900212D01*
X205930054Y-132676100D01*
X205992838Y-132441789D01*
X206024500Y-132201288D01*
X206024500Y-131958712D01*
X205992838Y-131718211D01*
X205930054Y-131483900D01*
X205837224Y-131259788D01*
X205715936Y-131049711D01*
X205568265Y-130857262D01*
X205396738Y-130685735D01*
X205204289Y-130538064D01*
X205065723Y-130458063D01*
X204994216Y-130416778D01*
X204994214Y-130416777D01*
X204994212Y-130416776D01*
X204862932Y-130362398D01*
X204770103Y-130323947D01*
X204770101Y-130323946D01*
X204770100Y-130323946D01*
X204535789Y-130261162D01*
X204535787Y-130261161D01*
X204535781Y-130261160D01*
X204295293Y-130229500D01*
X204295288Y-130229500D01*
X204052712Y-130229500D01*
X204052706Y-130229500D01*
X203812218Y-130261160D01*
X203577896Y-130323947D01*
X203353783Y-130416778D01*
X203143712Y-130538063D01*
X203143711Y-130538064D01*
X202951262Y-130685735D01*
X202951260Y-130685736D01*
X202951256Y-130685740D01*
X202779740Y-130857256D01*
X202632063Y-131049712D01*
X202510778Y-131259783D01*
X202417947Y-131483896D01*
X202355160Y-131718218D01*
X202323500Y-131958706D01*
X190925461Y-131958706D01*
X190951097Y-131896815D01*
X190951097Y-131896814D01*
X190958132Y-131879829D01*
X191019201Y-131651914D01*
X191019203Y-131651901D01*
X191049999Y-131417983D01*
X191050000Y-131417979D01*
X191050000Y-131182020D01*
X191049999Y-131182016D01*
X191019203Y-130948098D01*
X191019201Y-130948085D01*
X190958131Y-130720167D01*
X190867837Y-130502176D01*
X190867834Y-130502170D01*
X190749858Y-130297831D01*
X190687277Y-130216274D01*
X189965846Y-130937705D01*
X189958951Y-130921058D01*
X189871401Y-130790030D01*
X189759970Y-130678599D01*
X189628942Y-130591049D01*
X189612292Y-130584152D01*
X190333724Y-129862721D01*
X190333725Y-129862721D01*
X190252168Y-129800141D01*
X190047829Y-129682165D01*
X190047823Y-129682162D01*
X189829832Y-129591868D01*
X189601914Y-129530798D01*
X189601901Y-129530796D01*
X189367983Y-129500000D01*
X189132016Y-129500000D01*
X188898098Y-129530796D01*
X188898085Y-129530798D01*
X188670167Y-129591868D01*
X188452176Y-129682162D01*
X188452170Y-129682165D01*
X188247828Y-129800143D01*
X188247827Y-129800144D01*
X188166274Y-129862721D01*
X188887706Y-130584153D01*
X188871058Y-130591049D01*
X188740030Y-130678599D01*
X188628599Y-130790030D01*
X188541049Y-130921058D01*
X188534153Y-130937706D01*
X187812721Y-130216274D01*
X187750144Y-130297827D01*
X187750143Y-130297828D01*
X187632165Y-130502170D01*
X187632162Y-130502176D01*
X187541868Y-130720167D01*
X187480798Y-130948085D01*
X187480796Y-130948098D01*
X187450000Y-131182016D01*
X149164147Y-131182016D01*
X149163224Y-131179788D01*
X149041936Y-130969711D01*
X148894265Y-130777262D01*
X148722738Y-130605735D01*
X148530289Y-130458064D01*
X148458776Y-130416776D01*
X148320216Y-130336778D01*
X148320214Y-130336777D01*
X148320212Y-130336776D01*
X148188932Y-130282398D01*
X148096103Y-130243947D01*
X148096101Y-130243946D01*
X148096100Y-130243946D01*
X147861789Y-130181162D01*
X147861787Y-130181161D01*
X147861781Y-130181160D01*
X147621293Y-130149500D01*
X147621288Y-130149500D01*
X147378712Y-130149500D01*
X147378706Y-130149500D01*
X147138218Y-130181160D01*
X146903896Y-130243947D01*
X146679783Y-130336778D01*
X146469712Y-130458063D01*
X146469711Y-130458064D01*
X146277262Y-130605735D01*
X146277260Y-130605736D01*
X146277256Y-130605740D01*
X146105740Y-130777256D01*
X145958063Y-130969712D01*
X145836778Y-131179783D01*
X145743947Y-131403896D01*
X145681160Y-131638218D01*
X145649500Y-131878706D01*
X140167908Y-131878706D01*
X140167908Y-126717517D01*
X155659500Y-126717517D01*
X155659500Y-126941895D01*
X155690356Y-127136713D01*
X155694600Y-127163510D01*
X155763937Y-127376910D01*
X155827646Y-127501943D01*
X155865673Y-127576576D01*
X155865804Y-127576832D01*
X155865804Y-127576833D01*
X155931746Y-127667594D01*
X155997689Y-127758357D01*
X156156349Y-127917017D01*
X156337875Y-128048903D01*
X156467789Y-128115098D01*
X156537795Y-128150768D01*
X156537797Y-128150768D01*
X156537798Y-128150769D01*
X156751195Y-128220106D01*
X156972811Y-128255206D01*
X156972816Y-128255206D01*
X157197184Y-128255206D01*
X157197189Y-128255206D01*
X157418805Y-128220106D01*
X157632202Y-128150769D01*
X157832125Y-128048903D01*
X158013651Y-127917017D01*
X158172311Y-127758357D01*
X158304197Y-127576831D01*
X158406063Y-127376908D01*
X158475400Y-127163511D01*
X158510500Y-126941895D01*
X158510500Y-126717560D01*
X160490000Y-126717560D01*
X160490000Y-126941851D01*
X160525088Y-127163390D01*
X160594402Y-127376717D01*
X160594403Y-127376721D01*
X160696232Y-127576569D01*
X160696236Y-127576576D01*
X160746034Y-127645117D01*
X161432037Y-126959114D01*
X161449075Y-127022699D01*
X161514901Y-127136713D01*
X161607993Y-127229805D01*
X161722007Y-127295631D01*
X161785590Y-127312668D01*
X161099587Y-127998670D01*
X161168138Y-128048475D01*
X161367984Y-128150301D01*
X161367988Y-128150303D01*
X161581315Y-128219617D01*
X161802855Y-128254706D01*
X162027145Y-128254706D01*
X162248684Y-128219617D01*
X162364510Y-128181983D01*
X182749500Y-128181983D01*
X182749500Y-128418016D01*
X182780305Y-128652006D01*
X182841395Y-128879996D01*
X182931719Y-129098056D01*
X183034463Y-129276013D01*
X183049727Y-129302450D01*
X183193408Y-129489699D01*
X183360301Y-129656592D01*
X183547550Y-129800273D01*
X183646205Y-129857231D01*
X183751943Y-129918280D01*
X183751946Y-129918281D01*
X183751951Y-129918284D01*
X183970007Y-130008606D01*
X184197986Y-130069693D01*
X184197992Y-130069693D01*
X184197993Y-130069694D01*
X184261603Y-130078068D01*
X184431989Y-130100500D01*
X184668011Y-130100500D01*
X184902014Y-130069693D01*
X185129993Y-130008606D01*
X185348049Y-129918284D01*
X185552450Y-129800273D01*
X185739699Y-129656592D01*
X185906592Y-129489699D01*
X186050273Y-129302450D01*
X186168284Y-129098049D01*
X186258606Y-128879993D01*
X186319693Y-128652014D01*
X186350500Y-128418011D01*
X186350500Y-128181989D01*
X186319693Y-127947986D01*
X186258606Y-127720007D01*
X186168284Y-127501951D01*
X186168281Y-127501946D01*
X186168280Y-127501943D01*
X186107231Y-127396205D01*
X186050273Y-127297550D01*
X185906592Y-127110301D01*
X185739699Y-126943408D01*
X185552450Y-126799727D01*
X185526013Y-126784463D01*
X185348056Y-126681719D01*
X185129996Y-126591395D01*
X185129994Y-126591394D01*
X185129993Y-126591394D01*
X184902014Y-126530307D01*
X184902012Y-126530306D01*
X184902006Y-126530305D01*
X184668016Y-126499500D01*
X184668011Y-126499500D01*
X184431989Y-126499500D01*
X184431983Y-126499500D01*
X184197993Y-126530305D01*
X183970003Y-126591395D01*
X183751943Y-126681719D01*
X183547551Y-126799726D01*
X183492030Y-126842329D01*
X183360301Y-126943408D01*
X183360299Y-126943409D01*
X183360295Y-126943413D01*
X183193413Y-127110295D01*
X183193409Y-127110299D01*
X183193408Y-127110301D01*
X183102901Y-127228251D01*
X183049726Y-127297551D01*
X182931719Y-127501943D01*
X182841395Y-127720003D01*
X182780305Y-127947993D01*
X182749500Y-128181983D01*
X162364510Y-128181983D01*
X162462011Y-128150303D01*
X162462015Y-128150301D01*
X162661860Y-128048476D01*
X162661868Y-128048470D01*
X162730411Y-127998671D01*
X162730411Y-127998670D01*
X162044409Y-127312668D01*
X162107993Y-127295631D01*
X162222007Y-127229805D01*
X162315099Y-127136713D01*
X162380925Y-127022699D01*
X162397962Y-126959115D01*
X163083964Y-127645117D01*
X163083965Y-127645117D01*
X163133767Y-127576570D01*
X163235595Y-127376721D01*
X163235597Y-127376717D01*
X163304911Y-127163390D01*
X163340000Y-126941851D01*
X163340000Y-126717560D01*
X163304911Y-126496021D01*
X163235597Y-126282694D01*
X163235595Y-126282690D01*
X163133769Y-126082844D01*
X163083964Y-126014293D01*
X162397962Y-126700295D01*
X162380925Y-126636713D01*
X162315099Y-126522699D01*
X162222007Y-126429607D01*
X162107993Y-126363781D01*
X162044408Y-126346743D01*
X162730411Y-125660740D01*
X162730411Y-125660739D01*
X162661870Y-125610942D01*
X162661863Y-125610938D01*
X162462015Y-125509109D01*
X162462011Y-125509108D01*
X162248684Y-125439794D01*
X162027145Y-125404706D01*
X161802855Y-125404706D01*
X161581315Y-125439794D01*
X161367988Y-125509108D01*
X161367984Y-125509109D01*
X161168136Y-125610937D01*
X161099587Y-125660739D01*
X161785591Y-126346743D01*
X161722007Y-126363781D01*
X161607993Y-126429607D01*
X161514901Y-126522699D01*
X161449075Y-126636713D01*
X161432037Y-126700297D01*
X160746033Y-126014293D01*
X160696231Y-126082842D01*
X160594403Y-126282690D01*
X160594402Y-126282694D01*
X160525088Y-126496021D01*
X160490000Y-126717560D01*
X158510500Y-126717560D01*
X158510500Y-126717517D01*
X158475400Y-126495901D01*
X158406063Y-126282504D01*
X158406062Y-126282503D01*
X158406062Y-126282501D01*
X158370392Y-126212495D01*
X158304197Y-126082581D01*
X158172311Y-125901055D01*
X158013651Y-125742395D01*
X157832125Y-125610509D01*
X157767167Y-125577411D01*
X157632204Y-125508643D01*
X157489937Y-125462418D01*
X157418805Y-125439306D01*
X157197189Y-125404206D01*
X156972811Y-125404206D01*
X156751195Y-125439306D01*
X156537795Y-125508643D01*
X156337873Y-125610510D01*
X156337872Y-125610510D01*
X156156350Y-125742394D01*
X156156347Y-125742396D01*
X155997690Y-125901053D01*
X155997688Y-125901056D01*
X155865804Y-126082578D01*
X155865804Y-126082579D01*
X155763937Y-126282501D01*
X155737528Y-126363781D01*
X155694600Y-126495901D01*
X155659500Y-126717517D01*
X140167908Y-126717517D01*
X140167908Y-123952114D01*
X187449500Y-123952114D01*
X187449500Y-126647863D01*
X187449502Y-126647888D01*
X187455908Y-126707478D01*
X187455909Y-126707484D01*
X187506202Y-126842329D01*
X187506204Y-126842333D01*
X187592452Y-126957544D01*
X187592455Y-126957547D01*
X187707666Y-127043795D01*
X187707670Y-127043797D01*
X187842517Y-127094091D01*
X187902114Y-127100499D01*
X187902118Y-127100499D01*
X187902127Y-127100500D01*
X190597872Y-127100499D01*
X190657483Y-127094091D01*
X190753447Y-127058298D01*
X190792329Y-127043797D01*
X190792333Y-127043795D01*
X190849938Y-127000671D01*
X190907546Y-126957546D01*
X190993796Y-126842331D01*
X191044091Y-126707483D01*
X191046861Y-126681716D01*
X191050499Y-126647885D01*
X191050499Y-126647882D01*
X191050500Y-126647873D01*
X191050499Y-123952128D01*
X191044091Y-123892517D01*
X191029588Y-123853633D01*
X190993797Y-123757670D01*
X190993795Y-123757666D01*
X190907547Y-123642455D01*
X190907544Y-123642452D01*
X190792333Y-123556204D01*
X190792329Y-123556202D01*
X190657482Y-123505908D01*
X190597876Y-123499500D01*
X187902136Y-123499500D01*
X187902111Y-123499502D01*
X187842521Y-123505908D01*
X187842515Y-123505909D01*
X187707670Y-123556202D01*
X187707666Y-123556204D01*
X187592455Y-123642452D01*
X187592452Y-123642455D01*
X187506204Y-123757666D01*
X187506202Y-123757670D01*
X187455908Y-123892517D01*
X187449500Y-123952114D01*
X140167908Y-123952114D01*
X140167908Y-122017517D01*
X155659500Y-122017517D01*
X155659500Y-122241895D01*
X155694600Y-122463510D01*
X155763937Y-122676910D01*
X155832705Y-122811873D01*
X155865803Y-122876831D01*
X155997689Y-123058357D01*
X156156349Y-123217017D01*
X156337875Y-123348903D01*
X156467789Y-123415098D01*
X156537795Y-123450768D01*
X156537797Y-123450768D01*
X156537798Y-123450769D01*
X156751195Y-123520106D01*
X156972811Y-123555206D01*
X156972816Y-123555206D01*
X157197184Y-123555206D01*
X157197189Y-123555206D01*
X157418805Y-123520106D01*
X157632202Y-123450769D01*
X157832125Y-123348903D01*
X158013651Y-123217017D01*
X158172311Y-123058357D01*
X158304197Y-122876831D01*
X158406063Y-122676908D01*
X158475400Y-122463511D01*
X158510500Y-122241895D01*
X158510500Y-122017517D01*
X160489500Y-122017517D01*
X160489500Y-122241895D01*
X160524600Y-122463510D01*
X160593937Y-122676910D01*
X160662705Y-122811873D01*
X160695803Y-122876831D01*
X160827689Y-123058357D01*
X160986349Y-123217017D01*
X161167875Y-123348903D01*
X161297789Y-123415098D01*
X161367795Y-123450768D01*
X161367797Y-123450768D01*
X161367798Y-123450769D01*
X161581195Y-123520106D01*
X161802811Y-123555206D01*
X161802816Y-123555206D01*
X162027184Y-123555206D01*
X162027189Y-123555206D01*
X162248805Y-123520106D01*
X162462202Y-123450769D01*
X162662125Y-123348903D01*
X162843651Y-123217017D01*
X163002311Y-123058357D01*
X163134197Y-122876831D01*
X163236063Y-122676908D01*
X163305400Y-122463511D01*
X163340500Y-122241895D01*
X163340500Y-122017517D01*
X163305400Y-121795901D01*
X163236063Y-121582504D01*
X163236062Y-121582503D01*
X163236062Y-121582501D01*
X163200392Y-121512495D01*
X163134197Y-121382581D01*
X163002311Y-121201055D01*
X162901251Y-121099995D01*
X201967000Y-121099995D01*
X201967000Y-122400003D01*
X201967001Y-122400008D01*
X201977501Y-122502797D01*
X202032686Y-122669334D01*
X202124788Y-122818656D01*
X202248844Y-122942712D01*
X202398166Y-123034814D01*
X202564703Y-123089999D01*
X202667491Y-123100500D01*
X204267508Y-123100499D01*
X204370297Y-123089999D01*
X204536834Y-123034814D01*
X204686156Y-122942712D01*
X204810212Y-122818656D01*
X204902314Y-122669334D01*
X204957499Y-122502797D01*
X204968000Y-122400009D01*
X204967999Y-121099992D01*
X204957499Y-120997203D01*
X204902314Y-120830666D01*
X204810212Y-120681344D01*
X204686156Y-120557288D01*
X204557849Y-120478148D01*
X204504923Y-120422049D01*
X204487135Y-120347001D01*
X204509255Y-120273112D01*
X204530714Y-120245974D01*
X204647214Y-120129474D01*
X204647222Y-120129464D01*
X204772121Y-119957556D01*
X204772121Y-119957555D01*
X204868593Y-119768222D01*
X204934255Y-119566136D01*
X204934257Y-119566128D01*
X204944731Y-119500000D01*
X203900512Y-119500000D01*
X203933425Y-119442993D01*
X203967500Y-119315826D01*
X203967500Y-119184174D01*
X203933425Y-119057007D01*
X203900512Y-119000000D01*
X204944730Y-119000000D01*
X204934257Y-118933871D01*
X204934255Y-118933863D01*
X204868593Y-118731777D01*
X204772121Y-118542444D01*
X204772121Y-118542443D01*
X204647222Y-118370535D01*
X204647220Y-118370532D01*
X204496967Y-118220279D01*
X204496964Y-118220277D01*
X204325055Y-118095378D01*
X204135720Y-117998906D01*
X203933628Y-117933242D01*
X203723742Y-117900000D01*
X203717500Y-117900000D01*
X203717500Y-118816988D01*
X203660493Y-118784075D01*
X203533326Y-118750000D01*
X203401674Y-118750000D01*
X203274507Y-118784075D01*
X203217500Y-118816988D01*
X203217500Y-117900000D01*
X203211258Y-117900000D01*
X203001371Y-117933242D01*
X202799279Y-117998906D01*
X202609944Y-118095378D01*
X202609943Y-118095378D01*
X202438035Y-118220277D01*
X202438032Y-118220279D01*
X202287779Y-118370532D01*
X202287777Y-118370535D01*
X202162878Y-118542443D01*
X202162878Y-118542444D01*
X202066406Y-118731777D01*
X202000744Y-118933863D01*
X202000742Y-118933871D01*
X201990269Y-119000000D01*
X203034488Y-119000000D01*
X203001575Y-119057007D01*
X202967500Y-119184174D01*
X202967500Y-119315826D01*
X203001575Y-119442993D01*
X203034488Y-119500000D01*
X201990269Y-119500000D01*
X202000742Y-119566128D01*
X202000744Y-119566136D01*
X202066406Y-119768222D01*
X202162878Y-119957555D01*
X202162878Y-119957556D01*
X202287777Y-120129464D01*
X202287779Y-120129467D01*
X202404286Y-120245974D01*
X202442850Y-120312769D01*
X202442850Y-120389897D01*
X202404286Y-120456692D01*
X202377148Y-120478150D01*
X202248843Y-120557288D01*
X202124788Y-120681343D01*
X202032686Y-120830666D01*
X201977501Y-120997201D01*
X201967000Y-121099995D01*
X162901251Y-121099995D01*
X162843651Y-121042395D01*
X162662125Y-120910509D01*
X162597167Y-120877411D01*
X162462204Y-120808643D01*
X162319937Y-120762418D01*
X162248805Y-120739306D01*
X162027189Y-120704206D01*
X161802811Y-120704206D01*
X161581195Y-120739306D01*
X161367795Y-120808643D01*
X161167873Y-120910510D01*
X161167872Y-120910510D01*
X160986350Y-121042394D01*
X160986347Y-121042396D01*
X160827690Y-121201053D01*
X160827688Y-121201056D01*
X160695804Y-121382578D01*
X160695804Y-121382579D01*
X160593937Y-121582501D01*
X160524600Y-121795901D01*
X160489500Y-122017517D01*
X158510500Y-122017517D01*
X158475400Y-121795901D01*
X158406063Y-121582504D01*
X158406062Y-121582503D01*
X158406062Y-121582501D01*
X158370392Y-121512495D01*
X158304197Y-121382581D01*
X158172311Y-121201055D01*
X158013651Y-121042395D01*
X157832125Y-120910509D01*
X157767167Y-120877411D01*
X157632204Y-120808643D01*
X157489937Y-120762418D01*
X157418805Y-120739306D01*
X157197189Y-120704206D01*
X156972811Y-120704206D01*
X156751195Y-120739306D01*
X156537795Y-120808643D01*
X156337873Y-120910510D01*
X156337872Y-120910510D01*
X156156350Y-121042394D01*
X156156347Y-121042396D01*
X155997690Y-121201053D01*
X155997688Y-121201056D01*
X155865804Y-121382578D01*
X155865804Y-121382579D01*
X155763937Y-121582501D01*
X155694600Y-121795901D01*
X155659500Y-122017517D01*
X140167908Y-122017517D01*
X140167908Y-117317517D01*
X155659500Y-117317517D01*
X155659500Y-117541895D01*
X155694600Y-117763510D01*
X155763937Y-117976910D01*
X155865804Y-118176832D01*
X155865804Y-118176833D01*
X155931746Y-118267594D01*
X155997689Y-118358357D01*
X156156349Y-118517017D01*
X156337875Y-118648903D01*
X156467789Y-118715098D01*
X156537795Y-118750768D01*
X156537797Y-118750768D01*
X156537798Y-118750769D01*
X156751195Y-118820106D01*
X156972811Y-118855206D01*
X156972816Y-118855206D01*
X157197184Y-118855206D01*
X157197189Y-118855206D01*
X157418805Y-118820106D01*
X157632202Y-118750769D01*
X157832125Y-118648903D01*
X158013651Y-118517017D01*
X158172311Y-118358357D01*
X158304197Y-118176831D01*
X158406063Y-117976908D01*
X158475400Y-117763511D01*
X158510500Y-117541895D01*
X158510500Y-117317517D01*
X160489500Y-117317517D01*
X160489500Y-117541895D01*
X160524600Y-117763510D01*
X160593937Y-117976910D01*
X160695804Y-118176832D01*
X160695804Y-118176833D01*
X160761746Y-118267594D01*
X160827689Y-118358357D01*
X160986349Y-118517017D01*
X161167875Y-118648903D01*
X161297789Y-118715098D01*
X161367795Y-118750768D01*
X161367797Y-118750768D01*
X161367798Y-118750769D01*
X161581195Y-118820106D01*
X161802811Y-118855206D01*
X161802816Y-118855206D01*
X162027184Y-118855206D01*
X162027189Y-118855206D01*
X162248805Y-118820106D01*
X162462202Y-118750769D01*
X162662125Y-118648903D01*
X162843651Y-118517017D01*
X163002311Y-118358357D01*
X163134197Y-118176831D01*
X163236063Y-117976908D01*
X163305400Y-117763511D01*
X163340500Y-117541895D01*
X163340500Y-117317517D01*
X163305400Y-117095901D01*
X163236063Y-116882504D01*
X163236062Y-116882503D01*
X163236062Y-116882501D01*
X163200392Y-116812495D01*
X163134197Y-116682581D01*
X163002311Y-116501055D01*
X162843651Y-116342395D01*
X162662125Y-116210509D01*
X162597167Y-116177411D01*
X162462204Y-116108643D01*
X162319937Y-116062418D01*
X162248805Y-116039306D01*
X162027189Y-116004206D01*
X161802811Y-116004206D01*
X161581195Y-116039306D01*
X161367795Y-116108643D01*
X161167873Y-116210510D01*
X161167872Y-116210510D01*
X160986350Y-116342394D01*
X160986347Y-116342396D01*
X160827690Y-116501053D01*
X160827688Y-116501056D01*
X160695804Y-116682578D01*
X160695804Y-116682579D01*
X160593937Y-116882501D01*
X160524600Y-117095901D01*
X160489500Y-117317517D01*
X158510500Y-117317517D01*
X158475400Y-117095901D01*
X158406063Y-116882504D01*
X158406062Y-116882503D01*
X158406062Y-116882501D01*
X158370392Y-116812495D01*
X158304197Y-116682581D01*
X158172311Y-116501055D01*
X158013651Y-116342395D01*
X157832125Y-116210509D01*
X157767167Y-116177411D01*
X157632204Y-116108643D01*
X157489937Y-116062418D01*
X157418805Y-116039306D01*
X157197189Y-116004206D01*
X156972811Y-116004206D01*
X156751195Y-116039306D01*
X156537795Y-116108643D01*
X156337873Y-116210510D01*
X156337872Y-116210510D01*
X156156350Y-116342394D01*
X156156347Y-116342396D01*
X155997690Y-116501053D01*
X155997688Y-116501056D01*
X155865804Y-116682578D01*
X155865804Y-116682579D01*
X155763937Y-116882501D01*
X155694600Y-117095901D01*
X155659500Y-117317517D01*
X140167908Y-117317517D01*
X140167908Y-109878706D01*
X145649500Y-109878706D01*
X145649500Y-110121293D01*
X145681160Y-110361781D01*
X145743947Y-110596103D01*
X145778804Y-110680255D01*
X145836776Y-110820212D01*
X145958064Y-111030289D01*
X146105735Y-111222738D01*
X146277262Y-111394265D01*
X146469711Y-111541936D01*
X146679788Y-111663224D01*
X146903900Y-111756054D01*
X147138211Y-111818838D01*
X147138217Y-111818838D01*
X147138218Y-111818839D01*
X147185009Y-111824999D01*
X147378712Y-111850500D01*
X147621288Y-111850500D01*
X147861789Y-111818838D01*
X148096100Y-111756054D01*
X148320212Y-111663224D01*
X148530289Y-111541936D01*
X148722738Y-111394265D01*
X148894265Y-111222738D01*
X149041936Y-111030289D01*
X149163224Y-110820212D01*
X149256054Y-110596100D01*
X149318838Y-110361789D01*
X149350500Y-110121288D01*
X149350500Y-109878712D01*
X149350499Y-109878704D01*
X149338911Y-109790675D01*
X149336849Y-109775010D01*
X159400000Y-109775010D01*
X159400000Y-110200000D01*
X160219670Y-110200000D01*
X160199925Y-110219745D01*
X160150556Y-110305255D01*
X160125000Y-110400630D01*
X160125000Y-110499370D01*
X160150556Y-110594745D01*
X160199925Y-110680255D01*
X160219670Y-110700000D01*
X159400001Y-110700000D01*
X159400001Y-111124973D01*
X159410494Y-111227696D01*
X159465642Y-111394121D01*
X159557680Y-111543340D01*
X159681659Y-111667319D01*
X159830878Y-111759357D01*
X159997302Y-111814505D01*
X159997311Y-111814507D01*
X160100015Y-111824999D01*
X160250000Y-111824999D01*
X160250000Y-110730330D01*
X160269745Y-110750075D01*
X160355255Y-110799444D01*
X160450630Y-110825000D01*
X160549370Y-110825000D01*
X160644745Y-110799444D01*
X160730255Y-110750075D01*
X160750000Y-110730330D01*
X160750000Y-111824999D01*
X160899974Y-111824999D01*
X161002696Y-111814505D01*
X161169121Y-111759357D01*
X161318340Y-111667319D01*
X161442319Y-111543340D01*
X161442322Y-111543336D01*
X161465347Y-111506006D01*
X161521446Y-111453076D01*
X161596495Y-111435287D01*
X161670383Y-111457406D01*
X161697519Y-111478861D01*
X161783072Y-111564414D01*
X161783075Y-111564416D01*
X161919071Y-111663224D01*
X161923212Y-111666232D01*
X162077555Y-111744873D01*
X162242299Y-111798402D01*
X162413389Y-111825500D01*
X162413393Y-111825500D01*
X162586607Y-111825500D01*
X162586611Y-111825500D01*
X162757701Y-111798402D01*
X162922445Y-111744873D01*
X163076788Y-111666232D01*
X163216928Y-111564414D01*
X163339414Y-111441928D01*
X163441232Y-111301788D01*
X163519873Y-111147445D01*
X163573402Y-110982701D01*
X163600500Y-110811611D01*
X163600500Y-110088389D01*
X163573402Y-109917299D01*
X163560862Y-109878706D01*
X202323500Y-109878706D01*
X202323500Y-110121293D01*
X202355160Y-110361781D01*
X202417947Y-110596103D01*
X202452804Y-110680255D01*
X202510776Y-110820212D01*
X202632064Y-111030289D01*
X202779735Y-111222738D01*
X202951262Y-111394265D01*
X203143711Y-111541936D01*
X203353788Y-111663224D01*
X203577900Y-111756054D01*
X203812211Y-111818838D01*
X203812217Y-111818838D01*
X203812218Y-111818839D01*
X203859009Y-111824999D01*
X204052712Y-111850500D01*
X204295288Y-111850500D01*
X204535789Y-111818838D01*
X204770100Y-111756054D01*
X204994212Y-111663224D01*
X205204289Y-111541936D01*
X205396738Y-111394265D01*
X205568265Y-111222738D01*
X205715936Y-111030289D01*
X205837224Y-110820212D01*
X205930054Y-110596100D01*
X205992838Y-110361789D01*
X206024500Y-110121288D01*
X206024500Y-109878712D01*
X205992838Y-109638211D01*
X205930054Y-109403900D01*
X205837224Y-109179788D01*
X205715936Y-108969711D01*
X205568265Y-108777262D01*
X205396738Y-108605735D01*
X205204289Y-108458064D01*
X205134263Y-108417634D01*
X204994216Y-108336778D01*
X204994214Y-108336777D01*
X204994212Y-108336776D01*
X204862932Y-108282398D01*
X204770103Y-108243947D01*
X204770101Y-108243946D01*
X204770100Y-108243946D01*
X204535789Y-108181162D01*
X204535787Y-108181161D01*
X204535781Y-108181160D01*
X204295293Y-108149500D01*
X204295288Y-108149500D01*
X204052712Y-108149500D01*
X204052706Y-108149500D01*
X203812218Y-108181160D01*
X203577896Y-108243947D01*
X203353783Y-108336778D01*
X203143712Y-108458063D01*
X203143711Y-108458064D01*
X202951262Y-108605735D01*
X202951260Y-108605736D01*
X202951256Y-108605740D01*
X202779740Y-108777256D01*
X202632063Y-108969712D01*
X202510778Y-109179783D01*
X202417947Y-109403896D01*
X202355160Y-109638218D01*
X202323500Y-109878706D01*
X163560862Y-109878706D01*
X163519873Y-109752555D01*
X163441232Y-109598212D01*
X163339414Y-109458072D01*
X163216928Y-109335586D01*
X163216924Y-109335583D01*
X163076793Y-109233771D01*
X163076790Y-109233769D01*
X163076788Y-109233768D01*
X162922445Y-109155127D01*
X162874821Y-109139653D01*
X162757700Y-109101597D01*
X162656012Y-109085492D01*
X162586611Y-109074500D01*
X162413389Y-109074500D01*
X162347037Y-109085009D01*
X162242299Y-109101597D01*
X162077561Y-109155125D01*
X162077555Y-109155127D01*
X162077549Y-109155129D01*
X162077549Y-109155130D01*
X161923206Y-109233771D01*
X161783075Y-109335583D01*
X161783062Y-109335595D01*
X161697523Y-109421134D01*
X161630728Y-109459698D01*
X161553600Y-109459698D01*
X161486806Y-109421133D01*
X161465347Y-109393994D01*
X161442320Y-109356660D01*
X161318340Y-109232680D01*
X161169121Y-109140642D01*
X161002697Y-109085494D01*
X161002688Y-109085492D01*
X160899989Y-109075000D01*
X160750000Y-109075000D01*
X160750000Y-110169670D01*
X160730255Y-110149925D01*
X160644745Y-110100556D01*
X160549370Y-110075000D01*
X160450630Y-110075000D01*
X160355255Y-110100556D01*
X160269745Y-110149925D01*
X160250000Y-110169670D01*
X160250000Y-109075000D01*
X160100026Y-109075000D01*
X159997303Y-109085494D01*
X159830878Y-109140642D01*
X159681659Y-109232680D01*
X159557680Y-109356659D01*
X159465642Y-109505878D01*
X159410494Y-109672302D01*
X159410492Y-109672311D01*
X159400000Y-109775010D01*
X149336849Y-109775010D01*
X149318839Y-109638218D01*
X149318838Y-109638217D01*
X149318838Y-109638211D01*
X149256054Y-109403900D01*
X149163224Y-109179788D01*
X149041936Y-108969711D01*
X148894265Y-108777262D01*
X148722738Y-108605735D01*
X148530289Y-108458064D01*
X148460263Y-108417634D01*
X148320216Y-108336778D01*
X148320214Y-108336777D01*
X148320212Y-108336776D01*
X148188932Y-108282398D01*
X148096103Y-108243947D01*
X148096101Y-108243946D01*
X148096100Y-108243946D01*
X147861789Y-108181162D01*
X147861787Y-108181161D01*
X147861781Y-108181160D01*
X147621293Y-108149500D01*
X147621288Y-108149500D01*
X147378712Y-108149500D01*
X147378706Y-108149500D01*
X147138218Y-108181160D01*
X146903896Y-108243947D01*
X146679783Y-108336778D01*
X146469712Y-108458063D01*
X146469711Y-108458064D01*
X146277262Y-108605735D01*
X146277260Y-108605736D01*
X146277256Y-108605740D01*
X146105740Y-108777256D01*
X145958063Y-108969712D01*
X145836778Y-109179783D01*
X145743947Y-109403896D01*
X145681160Y-109638218D01*
X145649500Y-109878706D01*
X140167908Y-109878706D01*
X140167908Y-103549271D01*
X140187870Y-103474771D01*
X140242408Y-103420233D01*
X140316908Y-103400271D01*
X210873908Y-103400271D01*
X210948408Y-103420233D01*
G37*
%TD.AperFunction*%
%TD*%
M02*
