%TF.GenerationSoftware,KiCad,Pcbnew,9.0.1*%
%TF.CreationDate,2025-06-09T13:50:41-07:00*%
%TF.ProjectId,chop_battery_board,63686f70-5f62-4617-9474-6572795f626f,rev?*%
%TF.SameCoordinates,Original*%
%TF.FileFunction,Soldermask,Top*%
%TF.FilePolarity,Negative*%
%FSLAX46Y46*%
G04 Gerber Fmt 4.6, Leading zero omitted, Abs format (unit mm)*
G04 Created by KiCad (PCBNEW 9.0.1) date 2025-06-09 13:50:41*
%MOMM*%
%LPD*%
G01*
G04 APERTURE LIST*
G04 Aperture macros list*
%AMRoundRect*
0 Rectangle with rounded corners*
0 $1 Rounding radius*
0 $2 $3 $4 $5 $6 $7 $8 $9 X,Y pos of 4 corners*
0 Add a 4 corners polygon primitive as box body*
4,1,4,$2,$3,$4,$5,$6,$7,$8,$9,$2,$3,0*
0 Add four circle primitives for the rounded corners*
1,1,$1+$1,$2,$3*
1,1,$1+$1,$4,$5*
1,1,$1+$1,$6,$7*
1,1,$1+$1,$8,$9*
0 Add four rect primitives between the rounded corners*
20,1,$1+$1,$2,$3,$4,$5,0*
20,1,$1+$1,$4,$5,$6,$7,0*
20,1,$1+$1,$6,$7,$8,$9,0*
20,1,$1+$1,$8,$9,$2,$3,0*%
G04 Aperture macros list end*
%ADD10RoundRect,0.218750X-0.218750X-0.256250X0.218750X-0.256250X0.218750X0.256250X-0.218750X0.256250X0*%
%ADD11RoundRect,0.200000X-0.200000X-0.275000X0.200000X-0.275000X0.200000X0.275000X-0.200000X0.275000X0*%
%ADD12C,3.200000*%
%ADD13R,2.710000X3.400000*%
%ADD14RoundRect,0.150000X-0.737500X-0.150000X0.737500X-0.150000X0.737500X0.150000X-0.737500X0.150000X0*%
%ADD15RoundRect,0.200000X0.200000X0.275000X-0.200000X0.275000X-0.200000X-0.275000X0.200000X-0.275000X0*%
%ADD16RoundRect,0.180556X-0.469444X-0.699444X0.469444X-0.699444X0.469444X0.699444X-0.469444X0.699444X0*%
%ADD17C,1.850000*%
%ADD18R,2.600000X2.600000*%
%ADD19C,2.600000*%
%ADD20RoundRect,0.250000X0.750000X-0.600000X0.750000X0.600000X-0.750000X0.600000X-0.750000X-0.600000X0*%
%ADD21O,2.000000X1.700000*%
%ADD22RoundRect,0.250000X-0.350000X-0.625000X0.350000X-0.625000X0.350000X0.625000X-0.350000X0.625000X0*%
%ADD23O,1.200000X1.750000*%
G04 APERTURE END LIST*
D10*
%TO.C,D2*%
X173425000Y-117000000D03*
X175000000Y-117000000D03*
%TD*%
%TO.C,D3*%
X173425000Y-123500000D03*
X175000000Y-123500000D03*
%TD*%
D11*
%TO.C,R4*%
X169675000Y-123500000D03*
X171325000Y-123500000D03*
%TD*%
D12*
%TO.C,MK3*%
X147500000Y-132000000D03*
%TD*%
D11*
%TO.C,R7*%
X149850000Y-119000000D03*
X151500000Y-119000000D03*
%TD*%
%TO.C,R3*%
X173675000Y-113000000D03*
X175325000Y-113000000D03*
%TD*%
D12*
%TO.C,MK1*%
X147500000Y-110000000D03*
%TD*%
D13*
%TO.C,U1*%
X188437500Y-117405000D03*
D14*
X185875000Y-115500000D03*
X185875000Y-116770000D03*
X185875000Y-118040000D03*
X185875000Y-119310000D03*
X191000000Y-119310000D03*
X191000000Y-118040000D03*
X191000000Y-116770000D03*
X191000000Y-115500000D03*
%TD*%
D12*
%TO.C,MK4*%
X204174000Y-132080000D03*
%TD*%
D15*
%TO.C,R9*%
X197000000Y-127500000D03*
X195350000Y-127500000D03*
%TD*%
D11*
%TO.C,R5*%
X149850000Y-116500000D03*
X151500000Y-116500000D03*
%TD*%
D16*
%TO.C,D1*%
X176240000Y-131000000D03*
X180500000Y-131000000D03*
%TD*%
D12*
%TO.C,MK2*%
X204174000Y-110000000D03*
%TD*%
D15*
%TO.C,R6*%
X151500000Y-121500000D03*
X149850000Y-121500000D03*
%TD*%
D17*
%TO.C,SW1*%
X157085000Y-117429706D03*
X157085000Y-122129706D03*
X157085000Y-126829706D03*
X161915000Y-126829706D03*
X161915000Y-122129706D03*
X161915000Y-117429706D03*
%TD*%
D11*
%TO.C,R8*%
X156675000Y-130500000D03*
X158325000Y-130500000D03*
%TD*%
D18*
%TO.C,J1*%
X189250000Y-125300000D03*
D19*
X189250000Y-131300000D03*
X184550000Y-128300000D03*
%TD*%
D20*
%TO.C,J14*%
X203467500Y-121750000D03*
D21*
X203467500Y-119250000D03*
%TD*%
D22*
%TO.C,J13*%
X160500000Y-110450000D03*
D23*
X162500000Y-110450000D03*
%TD*%
M02*
