%TF.GenerationSoftware,KiCad,Pcbnew,9.0.1*%
%TF.CreationDate,2025-06-09T13:50:40-07:00*%
%TF.ProjectId,chop_battery_board,63686f70-5f62-4617-9474-6572795f626f,rev?*%
%TF.SameCoordinates,Original*%
%TF.FileFunction,Copper,L4,Bot*%
%TF.FilePolarity,Positive*%
%FSLAX46Y46*%
G04 Gerber Fmt 4.6, Leading zero omitted, Abs format (unit mm)*
G04 Created by KiCad (PCBNEW 9.0.1) date 2025-06-09 13:50:40*
%MOMM*%
%LPD*%
G01*
G04 APERTURE LIST*
G04 Aperture macros list*
%AMRoundRect*
0 Rectangle with rounded corners*
0 $1 Rounding radius*
0 $2 $3 $4 $5 $6 $7 $8 $9 X,Y pos of 4 corners*
0 Add a 4 corners polygon primitive as box body*
4,1,4,$2,$3,$4,$5,$6,$7,$8,$9,$2,$3,0*
0 Add four circle primitives for the rounded corners*
1,1,$1+$1,$2,$3*
1,1,$1+$1,$4,$5*
1,1,$1+$1,$6,$7*
1,1,$1+$1,$8,$9*
0 Add four rect primitives between the rounded corners*
20,1,$1+$1,$2,$3,$4,$5,0*
20,1,$1+$1,$4,$5,$6,$7,0*
20,1,$1+$1,$6,$7,$8,$9,0*
20,1,$1+$1,$8,$9,$2,$3,0*%
G04 Aperture macros list end*
%TA.AperFunction,ComponentPad*%
%ADD10C,1.850000*%
%TD*%
%TA.AperFunction,ComponentPad*%
%ADD11R,2.600000X2.600000*%
%TD*%
%TA.AperFunction,ComponentPad*%
%ADD12C,2.600000*%
%TD*%
%TA.AperFunction,ComponentPad*%
%ADD13RoundRect,0.250000X0.750000X-0.600000X0.750000X0.600000X-0.750000X0.600000X-0.750000X-0.600000X0*%
%TD*%
%TA.AperFunction,ComponentPad*%
%ADD14O,2.000000X1.700000*%
%TD*%
%TA.AperFunction,ComponentPad*%
%ADD15RoundRect,0.250000X-0.350000X-0.625000X0.350000X-0.625000X0.350000X0.625000X-0.350000X0.625000X0*%
%TD*%
%TA.AperFunction,ComponentPad*%
%ADD16O,1.200000X1.750000*%
%TD*%
%TA.AperFunction,ViaPad*%
%ADD17C,0.800000*%
%TD*%
G04 APERTURE END LIST*
D10*
%TO.P,SW1,1,A*%
%TO.N,Net-(SW1-A-Pad1)*%
X157085000Y-117429706D03*
%TO.P,SW1,2,B*%
%TO.N,Net-(J13-Pin_2)*%
X157085000Y-122129706D03*
%TO.P,SW1,3,C*%
%TO.N,Net-(R5-Pad2)*%
X157085000Y-126829706D03*
%TO.P,SW1,4,A*%
%TO.N,GND*%
X161915000Y-126829706D03*
%TO.P,SW1,5,B*%
%TO.N,Net-(D2-A)*%
X161915000Y-122129706D03*
%TO.P,SW1,6,C*%
%TO.N,Net-(SW1-A-Pad1)*%
X161915000Y-117429706D03*
%TD*%
D11*
%TO.P,J1,1*%
%TO.N,/ChargerVoltage*%
X189250000Y-125300000D03*
D12*
%TO.P,J1,2*%
%TO.N,GND*%
X189250000Y-131300000D03*
%TO.P,J1,3*%
%TO.N,N/C*%
X184550000Y-128300000D03*
%TD*%
D13*
%TO.P,J14,1,Pin_1*%
%TO.N,Net-(D2-A)*%
X203467500Y-121750000D03*
D14*
%TO.P,J14,2,Pin_2*%
%TO.N,GND*%
X203467500Y-119250000D03*
%TD*%
D15*
%TO.P,J13,1,Pin_1*%
%TO.N,GND*%
X160500000Y-110450000D03*
D16*
%TO.P,J13,2,Pin_2*%
%TO.N,Net-(J13-Pin_2)*%
X162500000Y-110450000D03*
%TD*%
D17*
%TO.N,GND*%
X182000000Y-120000000D03*
X171500000Y-125500000D03*
%TD*%
%TA.AperFunction,Conductor*%
%TO.N,Net-(J13-Pin_2)*%
G36*
X210948408Y-103420233D02*
G01*
X211002946Y-103474771D01*
X211022908Y-103549271D01*
X211022908Y-139530271D01*
X211002946Y-139604771D01*
X210948408Y-139659309D01*
X210873908Y-139679271D01*
X140316908Y-139679271D01*
X140242408Y-139659309D01*
X140187870Y-139604771D01*
X140167908Y-139530271D01*
X140167908Y-131878706D01*
X145649500Y-131878706D01*
X145649500Y-132121293D01*
X145681160Y-132361781D01*
X145743947Y-132596103D01*
X145836778Y-132820216D01*
X145893398Y-132918284D01*
X145958064Y-133030289D01*
X146105735Y-133222738D01*
X146277262Y-133394265D01*
X146469711Y-133541936D01*
X146679788Y-133663224D01*
X146903900Y-133756054D01*
X147138211Y-133818838D01*
X147138217Y-133818838D01*
X147138218Y-133818839D01*
X147203600Y-133827446D01*
X147378712Y-133850500D01*
X147621288Y-133850500D01*
X147861789Y-133818838D01*
X148096100Y-133756054D01*
X148320212Y-133663224D01*
X148530289Y-133541936D01*
X148722738Y-133394265D01*
X148894265Y-133222738D01*
X149041936Y-133030289D01*
X149163224Y-132820212D01*
X149256054Y-132596100D01*
X149318838Y-132361789D01*
X149350500Y-132121288D01*
X149350500Y-131878712D01*
X149318838Y-131638211D01*
X149256054Y-131403900D01*
X149164133Y-131181983D01*
X187449500Y-131181983D01*
X187449500Y-131418016D01*
X187480305Y-131652006D01*
X187480306Y-131652012D01*
X187480307Y-131652014D01*
X187498046Y-131718218D01*
X187541395Y-131879996D01*
X187631719Y-132098056D01*
X187691321Y-132201288D01*
X187749727Y-132302450D01*
X187893408Y-132489699D01*
X188060301Y-132656592D01*
X188247550Y-132800273D01*
X188346205Y-132857231D01*
X188451943Y-132918280D01*
X188451946Y-132918281D01*
X188451951Y-132918284D01*
X188670007Y-133008606D01*
X188897986Y-133069693D01*
X188897992Y-133069693D01*
X188897993Y-133069694D01*
X188961603Y-133078068D01*
X189131989Y-133100500D01*
X189368011Y-133100500D01*
X189602014Y-133069693D01*
X189829993Y-133008606D01*
X190048049Y-132918284D01*
X190252450Y-132800273D01*
X190439699Y-132656592D01*
X190606592Y-132489699D01*
X190750273Y-132302450D01*
X190868284Y-132098049D01*
X190926002Y-131958706D01*
X202323500Y-131958706D01*
X202323500Y-132201293D01*
X202355160Y-132441781D01*
X202417947Y-132676103D01*
X202510778Y-132900216D01*
X202521210Y-132918284D01*
X202632064Y-133110289D01*
X202779735Y-133302738D01*
X202951262Y-133474265D01*
X203143711Y-133621936D01*
X203353788Y-133743224D01*
X203577900Y-133836054D01*
X203812211Y-133898838D01*
X203812217Y-133898838D01*
X203812218Y-133898839D01*
X203877600Y-133907446D01*
X204052712Y-133930500D01*
X204295288Y-133930500D01*
X204535789Y-133898838D01*
X204770100Y-133836054D01*
X204994212Y-133743224D01*
X205204289Y-133621936D01*
X205396738Y-133474265D01*
X205568265Y-133302738D01*
X205715936Y-133110289D01*
X205837224Y-132900212D01*
X205930054Y-132676100D01*
X205992838Y-132441789D01*
X206024500Y-132201288D01*
X206024500Y-131958712D01*
X205992838Y-131718211D01*
X205930054Y-131483900D01*
X205837224Y-131259788D01*
X205715936Y-131049711D01*
X205568265Y-130857262D01*
X205396738Y-130685735D01*
X205204289Y-130538064D01*
X205065723Y-130458063D01*
X204994216Y-130416778D01*
X204994214Y-130416777D01*
X204994212Y-130416776D01*
X204862932Y-130362398D01*
X204770103Y-130323947D01*
X204770101Y-130323946D01*
X204770100Y-130323946D01*
X204535789Y-130261162D01*
X204535787Y-130261161D01*
X204535781Y-130261160D01*
X204295293Y-130229500D01*
X204295288Y-130229500D01*
X204052712Y-130229500D01*
X204052706Y-130229500D01*
X203812218Y-130261160D01*
X203577896Y-130323947D01*
X203353783Y-130416778D01*
X203143712Y-130538063D01*
X203143711Y-130538064D01*
X202951262Y-130685735D01*
X202951260Y-130685736D01*
X202951256Y-130685740D01*
X202779740Y-130857256D01*
X202632063Y-131049712D01*
X202510778Y-131259783D01*
X202417947Y-131483896D01*
X202355160Y-131718218D01*
X202323500Y-131958706D01*
X190926002Y-131958706D01*
X190958606Y-131879993D01*
X191019693Y-131652014D01*
X191050500Y-131418011D01*
X191050500Y-131181989D01*
X191019693Y-130947986D01*
X190958606Y-130720007D01*
X190868284Y-130501951D01*
X190868281Y-130501946D01*
X190868280Y-130501943D01*
X190765513Y-130323947D01*
X190750273Y-130297550D01*
X190606592Y-130110301D01*
X190439699Y-129943408D01*
X190252450Y-129799727D01*
X190226013Y-129784463D01*
X190048056Y-129681719D01*
X189829996Y-129591395D01*
X189829994Y-129591394D01*
X189829993Y-129591394D01*
X189602014Y-129530307D01*
X189602012Y-129530306D01*
X189602006Y-129530305D01*
X189368016Y-129499500D01*
X189368011Y-129499500D01*
X189131989Y-129499500D01*
X189131983Y-129499500D01*
X188897993Y-129530305D01*
X188670003Y-129591395D01*
X188451943Y-129681719D01*
X188247551Y-129799726D01*
X188247550Y-129799727D01*
X188060301Y-129943408D01*
X188060299Y-129943409D01*
X188060295Y-129943413D01*
X187893413Y-130110295D01*
X187749726Y-130297551D01*
X187631719Y-130501943D01*
X187541395Y-130720003D01*
X187480305Y-130947993D01*
X187449500Y-131181983D01*
X149164133Y-131181983D01*
X149163224Y-131179788D01*
X149041936Y-130969711D01*
X148894265Y-130777262D01*
X148722738Y-130605735D01*
X148530289Y-130458064D01*
X148458776Y-130416776D01*
X148320216Y-130336778D01*
X148320214Y-130336777D01*
X148320212Y-130336776D01*
X148188932Y-130282398D01*
X148096103Y-130243947D01*
X148096101Y-130243946D01*
X148096100Y-130243946D01*
X147861789Y-130181162D01*
X147861787Y-130181161D01*
X147861781Y-130181160D01*
X147621293Y-130149500D01*
X147621288Y-130149500D01*
X147378712Y-130149500D01*
X147378706Y-130149500D01*
X147138218Y-130181160D01*
X146903896Y-130243947D01*
X146679783Y-130336778D01*
X146469712Y-130458063D01*
X146469711Y-130458064D01*
X146277262Y-130605735D01*
X146277260Y-130605736D01*
X146277256Y-130605740D01*
X146105740Y-130777256D01*
X145958063Y-130969712D01*
X145836778Y-131179783D01*
X145743947Y-131403896D01*
X145681160Y-131638218D01*
X145649500Y-131878706D01*
X140167908Y-131878706D01*
X140167908Y-126717517D01*
X155659500Y-126717517D01*
X155659500Y-126941895D01*
X155694600Y-127163510D01*
X155763937Y-127376910D01*
X155827646Y-127501943D01*
X155865803Y-127576831D01*
X155997689Y-127758357D01*
X156156349Y-127917017D01*
X156337875Y-128048903D01*
X156467789Y-128115098D01*
X156537795Y-128150768D01*
X156537797Y-128150768D01*
X156537798Y-128150769D01*
X156751195Y-128220106D01*
X156972811Y-128255206D01*
X156972816Y-128255206D01*
X157197184Y-128255206D01*
X157197189Y-128255206D01*
X157418805Y-128220106D01*
X157632202Y-128150769D01*
X157832125Y-128048903D01*
X158013651Y-127917017D01*
X158172311Y-127758357D01*
X158304197Y-127576831D01*
X158406063Y-127376908D01*
X158475400Y-127163511D01*
X158510500Y-126941895D01*
X158510500Y-126717517D01*
X160489500Y-126717517D01*
X160489500Y-126941895D01*
X160524600Y-127163510D01*
X160593937Y-127376910D01*
X160657646Y-127501943D01*
X160695803Y-127576831D01*
X160827689Y-127758357D01*
X160986349Y-127917017D01*
X161167875Y-128048903D01*
X161297789Y-128115098D01*
X161367795Y-128150768D01*
X161367797Y-128150768D01*
X161367798Y-128150769D01*
X161581195Y-128220106D01*
X161802811Y-128255206D01*
X161802816Y-128255206D01*
X162027184Y-128255206D01*
X162027189Y-128255206D01*
X162248805Y-128220106D01*
X162366135Y-128181983D01*
X182749500Y-128181983D01*
X182749500Y-128418016D01*
X182780305Y-128652006D01*
X182841395Y-128879996D01*
X182931719Y-129098056D01*
X183034463Y-129276013D01*
X183049727Y-129302450D01*
X183193408Y-129489699D01*
X183360301Y-129656592D01*
X183547550Y-129800273D01*
X183646205Y-129857231D01*
X183751943Y-129918280D01*
X183751946Y-129918281D01*
X183751951Y-129918284D01*
X183970007Y-130008606D01*
X184197986Y-130069693D01*
X184197992Y-130069693D01*
X184197993Y-130069694D01*
X184261603Y-130078068D01*
X184431989Y-130100500D01*
X184668011Y-130100500D01*
X184902014Y-130069693D01*
X185129993Y-130008606D01*
X185348049Y-129918284D01*
X185552450Y-129800273D01*
X185739699Y-129656592D01*
X185906592Y-129489699D01*
X186050273Y-129302450D01*
X186168284Y-129098049D01*
X186258606Y-128879993D01*
X186319693Y-128652014D01*
X186350500Y-128418011D01*
X186350500Y-128181989D01*
X186319693Y-127947986D01*
X186258606Y-127720007D01*
X186168284Y-127501951D01*
X186168281Y-127501946D01*
X186168280Y-127501943D01*
X186107231Y-127396205D01*
X186050273Y-127297550D01*
X185906592Y-127110301D01*
X185739699Y-126943408D01*
X185552450Y-126799727D01*
X185526013Y-126784463D01*
X185348056Y-126681719D01*
X185129996Y-126591395D01*
X185129994Y-126591394D01*
X185129993Y-126591394D01*
X184902014Y-126530307D01*
X184902012Y-126530306D01*
X184902006Y-126530305D01*
X184668016Y-126499500D01*
X184668011Y-126499500D01*
X184431989Y-126499500D01*
X184431983Y-126499500D01*
X184197993Y-126530305D01*
X183970003Y-126591395D01*
X183751943Y-126681719D01*
X183547551Y-126799726D01*
X183547550Y-126799727D01*
X183360301Y-126943408D01*
X183360299Y-126943409D01*
X183360295Y-126943413D01*
X183193413Y-127110295D01*
X183193409Y-127110299D01*
X183193408Y-127110301D01*
X183152579Y-127163511D01*
X183049726Y-127297551D01*
X182931719Y-127501943D01*
X182841395Y-127720003D01*
X182780305Y-127947993D01*
X182749500Y-128181983D01*
X162366135Y-128181983D01*
X162462202Y-128150769D01*
X162662125Y-128048903D01*
X162843651Y-127917017D01*
X163002311Y-127758357D01*
X163134197Y-127576831D01*
X163236063Y-127376908D01*
X163305400Y-127163511D01*
X163340500Y-126941895D01*
X163340500Y-126717517D01*
X163305400Y-126495901D01*
X163236063Y-126282504D01*
X163236062Y-126282503D01*
X163236062Y-126282501D01*
X163193751Y-126199462D01*
X163134197Y-126082581D01*
X163002311Y-125901055D01*
X162843651Y-125742395D01*
X162662125Y-125610509D01*
X162515935Y-125536021D01*
X162462204Y-125508643D01*
X162319937Y-125462418D01*
X162248805Y-125439306D01*
X162072030Y-125411308D01*
X170599500Y-125411308D01*
X170599500Y-125588691D01*
X170634105Y-125762663D01*
X170634106Y-125762667D01*
X170701986Y-125926546D01*
X170701987Y-125926548D01*
X170800533Y-126074031D01*
X170800536Y-126074035D01*
X170925965Y-126199464D01*
X170925968Y-126199466D01*
X171073451Y-126298012D01*
X171073453Y-126298013D01*
X171237334Y-126365894D01*
X171411309Y-126400500D01*
X171588691Y-126400500D01*
X171762666Y-126365894D01*
X171926547Y-126298013D01*
X172074035Y-126199464D01*
X172199464Y-126074035D01*
X172298013Y-125926547D01*
X172365894Y-125762666D01*
X172400500Y-125588691D01*
X172400500Y-125411309D01*
X172365894Y-125237334D01*
X172298013Y-125073453D01*
X172199464Y-124925965D01*
X172074035Y-124800536D01*
X172074031Y-124800533D01*
X171926548Y-124701987D01*
X171926546Y-124701986D01*
X171762667Y-124634106D01*
X171762663Y-124634105D01*
X171588691Y-124599500D01*
X171411309Y-124599500D01*
X171237336Y-124634105D01*
X171237332Y-124634106D01*
X171073453Y-124701986D01*
X171073451Y-124701987D01*
X170925968Y-124800533D01*
X170925963Y-124800537D01*
X170800537Y-124925963D01*
X170800533Y-124925968D01*
X170701987Y-125073451D01*
X170701986Y-125073453D01*
X170634106Y-125237332D01*
X170634105Y-125237336D01*
X170599500Y-125411308D01*
X162072030Y-125411308D01*
X162027189Y-125404206D01*
X161802811Y-125404206D01*
X161581195Y-125439306D01*
X161367795Y-125508643D01*
X161167873Y-125610510D01*
X161167872Y-125610510D01*
X160986350Y-125742394D01*
X160986347Y-125742396D01*
X160827690Y-125901053D01*
X160827688Y-125901056D01*
X160695804Y-126082578D01*
X160695804Y-126082579D01*
X160593937Y-126282501D01*
X160524600Y-126495901D01*
X160489500Y-126717517D01*
X158510500Y-126717517D01*
X158475400Y-126495901D01*
X158406063Y-126282504D01*
X158406062Y-126282503D01*
X158406062Y-126282501D01*
X158363751Y-126199462D01*
X158304197Y-126082581D01*
X158172311Y-125901055D01*
X158013651Y-125742395D01*
X157832125Y-125610509D01*
X157767167Y-125577411D01*
X157632204Y-125508643D01*
X157489937Y-125462418D01*
X157418805Y-125439306D01*
X157197189Y-125404206D01*
X156972811Y-125404206D01*
X156751195Y-125439306D01*
X156537795Y-125508643D01*
X156337873Y-125610510D01*
X156337872Y-125610510D01*
X156156350Y-125742394D01*
X156156347Y-125742396D01*
X155997690Y-125901053D01*
X155997688Y-125901056D01*
X155865804Y-126082578D01*
X155865804Y-126082579D01*
X155763937Y-126282501D01*
X155694600Y-126495901D01*
X155659500Y-126717517D01*
X140167908Y-126717517D01*
X140167908Y-123952114D01*
X187449500Y-123952114D01*
X187449500Y-126647863D01*
X187449502Y-126647888D01*
X187455908Y-126707478D01*
X187455909Y-126707484D01*
X187506202Y-126842329D01*
X187506204Y-126842333D01*
X187592452Y-126957544D01*
X187592455Y-126957547D01*
X187707666Y-127043795D01*
X187707670Y-127043797D01*
X187842517Y-127094091D01*
X187902114Y-127100499D01*
X187902118Y-127100499D01*
X187902127Y-127100500D01*
X190597872Y-127100499D01*
X190657483Y-127094091D01*
X190753447Y-127058298D01*
X190792329Y-127043797D01*
X190792333Y-127043795D01*
X190849938Y-127000671D01*
X190907546Y-126957546D01*
X190993796Y-126842331D01*
X191044091Y-126707483D01*
X191046861Y-126681716D01*
X191050499Y-126647885D01*
X191050499Y-126647882D01*
X191050500Y-126647873D01*
X191050499Y-123952128D01*
X191044091Y-123892517D01*
X191029588Y-123853633D01*
X190993797Y-123757670D01*
X190993795Y-123757666D01*
X190907547Y-123642455D01*
X190907544Y-123642452D01*
X190792333Y-123556204D01*
X190792329Y-123556202D01*
X190657482Y-123505908D01*
X190597876Y-123499500D01*
X187902136Y-123499500D01*
X187902111Y-123499502D01*
X187842521Y-123505908D01*
X187842515Y-123505909D01*
X187707670Y-123556202D01*
X187707666Y-123556204D01*
X187592455Y-123642452D01*
X187592452Y-123642455D01*
X187506204Y-123757666D01*
X187506202Y-123757670D01*
X187455908Y-123892517D01*
X187449500Y-123952114D01*
X140167908Y-123952114D01*
X140167908Y-122017560D01*
X155660000Y-122017560D01*
X155660000Y-122241851D01*
X155695088Y-122463390D01*
X155764402Y-122676717D01*
X155764403Y-122676721D01*
X155866232Y-122876569D01*
X155866236Y-122876576D01*
X155916034Y-122945117D01*
X156602037Y-122259114D01*
X156619075Y-122322699D01*
X156684901Y-122436713D01*
X156777993Y-122529805D01*
X156892007Y-122595631D01*
X156955590Y-122612668D01*
X156269587Y-123298670D01*
X156338138Y-123348475D01*
X156537984Y-123450301D01*
X156537988Y-123450303D01*
X156751315Y-123519617D01*
X156972855Y-123554706D01*
X157197145Y-123554706D01*
X157418684Y-123519617D01*
X157632011Y-123450303D01*
X157632015Y-123450301D01*
X157831864Y-123348473D01*
X157900411Y-123298671D01*
X157900411Y-123298670D01*
X157214409Y-122612668D01*
X157277993Y-122595631D01*
X157392007Y-122529805D01*
X157485099Y-122436713D01*
X157550925Y-122322699D01*
X157567962Y-122259115D01*
X158253964Y-122945117D01*
X158253965Y-122945117D01*
X158303767Y-122876570D01*
X158405595Y-122676721D01*
X158405597Y-122676717D01*
X158474911Y-122463390D01*
X158510000Y-122241851D01*
X158510000Y-122017560D01*
X158509993Y-122017517D01*
X160489500Y-122017517D01*
X160489500Y-122241895D01*
X160520356Y-122436713D01*
X160524600Y-122463510D01*
X160593937Y-122676910D01*
X160662705Y-122811873D01*
X160695673Y-122876576D01*
X160695804Y-122876832D01*
X160695804Y-122876833D01*
X160761746Y-122967594D01*
X160827689Y-123058357D01*
X160986349Y-123217017D01*
X161167875Y-123348903D01*
X161297789Y-123415098D01*
X161367795Y-123450768D01*
X161367797Y-123450768D01*
X161367798Y-123450769D01*
X161581195Y-123520106D01*
X161802811Y-123555206D01*
X161802816Y-123555206D01*
X162027184Y-123555206D01*
X162027189Y-123555206D01*
X162248805Y-123520106D01*
X162462202Y-123450769D01*
X162662125Y-123348903D01*
X162843651Y-123217017D01*
X163002311Y-123058357D01*
X163134197Y-122876831D01*
X163236063Y-122676908D01*
X163305400Y-122463511D01*
X163340500Y-122241895D01*
X163340500Y-122017517D01*
X163305400Y-121795901D01*
X163236063Y-121582504D01*
X163236062Y-121582503D01*
X163236062Y-121582501D01*
X163200392Y-121512495D01*
X163134197Y-121382581D01*
X163002311Y-121201055D01*
X162843651Y-121042395D01*
X162662125Y-120910509D01*
X162597167Y-120877411D01*
X162462204Y-120808643D01*
X162319937Y-120762418D01*
X162248805Y-120739306D01*
X162027189Y-120704206D01*
X161802811Y-120704206D01*
X161581195Y-120739306D01*
X161367795Y-120808643D01*
X161167873Y-120910510D01*
X161167872Y-120910510D01*
X160986350Y-121042394D01*
X160986347Y-121042396D01*
X160827690Y-121201053D01*
X160827688Y-121201056D01*
X160695804Y-121382578D01*
X160695804Y-121382579D01*
X160593937Y-121582501D01*
X160567528Y-121663781D01*
X160524600Y-121795901D01*
X160489500Y-122017517D01*
X158509993Y-122017517D01*
X158474911Y-121796021D01*
X158405597Y-121582694D01*
X158405595Y-121582690D01*
X158303769Y-121382844D01*
X158253964Y-121314293D01*
X157567962Y-122000295D01*
X157550925Y-121936713D01*
X157485099Y-121822699D01*
X157392007Y-121729607D01*
X157277993Y-121663781D01*
X157214408Y-121646743D01*
X157900411Y-120960740D01*
X157900411Y-120960739D01*
X157831870Y-120910942D01*
X157831863Y-120910938D01*
X157632015Y-120809109D01*
X157632011Y-120809108D01*
X157418684Y-120739794D01*
X157197145Y-120704706D01*
X156972855Y-120704706D01*
X156751315Y-120739794D01*
X156537988Y-120809108D01*
X156537984Y-120809109D01*
X156338136Y-120910937D01*
X156269587Y-120960739D01*
X156955591Y-121646743D01*
X156892007Y-121663781D01*
X156777993Y-121729607D01*
X156684901Y-121822699D01*
X156619075Y-121936713D01*
X156602037Y-122000297D01*
X155916033Y-121314293D01*
X155866231Y-121382842D01*
X155764403Y-121582690D01*
X155764402Y-121582694D01*
X155695088Y-121796021D01*
X155660000Y-122017560D01*
X140167908Y-122017560D01*
X140167908Y-119911308D01*
X181099500Y-119911308D01*
X181099500Y-120088691D01*
X181134105Y-120262663D01*
X181134106Y-120262667D01*
X181201986Y-120426546D01*
X181201987Y-120426548D01*
X181289346Y-120557288D01*
X181300536Y-120574035D01*
X181425965Y-120699464D01*
X181425968Y-120699466D01*
X181573451Y-120798012D01*
X181573453Y-120798013D01*
X181737334Y-120865894D01*
X181911309Y-120900500D01*
X182088691Y-120900500D01*
X182262666Y-120865894D01*
X182426547Y-120798013D01*
X182574035Y-120699464D01*
X182699464Y-120574035D01*
X182798013Y-120426547D01*
X182865894Y-120262666D01*
X182900500Y-120088691D01*
X182900500Y-119911309D01*
X182865894Y-119737334D01*
X182798013Y-119573453D01*
X182793195Y-119566243D01*
X182699466Y-119425968D01*
X182699462Y-119425963D01*
X182574036Y-119300537D01*
X182574028Y-119300531D01*
X182515985Y-119261747D01*
X182426549Y-119201987D01*
X182426546Y-119201986D01*
X182285861Y-119143713D01*
X201967000Y-119143713D01*
X201967000Y-119356287D01*
X202000254Y-119566243D01*
X202065943Y-119768412D01*
X202138752Y-119911308D01*
X202162450Y-119957817D01*
X202162450Y-119957818D01*
X202287395Y-120129790D01*
X202287397Y-120129793D01*
X202403848Y-120246244D01*
X202442412Y-120313039D01*
X202442412Y-120390167D01*
X202403848Y-120456962D01*
X202376710Y-120478420D01*
X202248843Y-120557288D01*
X202124788Y-120681343D01*
X202032686Y-120830666D01*
X201977501Y-120997201D01*
X201967000Y-121099995D01*
X201967000Y-122400003D01*
X201973488Y-122463510D01*
X201977501Y-122502797D01*
X202032686Y-122669334D01*
X202124788Y-122818656D01*
X202248844Y-122942712D01*
X202398166Y-123034814D01*
X202564703Y-123089999D01*
X202667491Y-123100500D01*
X204267508Y-123100499D01*
X204370297Y-123089999D01*
X204536834Y-123034814D01*
X204686156Y-122942712D01*
X204810212Y-122818656D01*
X204902314Y-122669334D01*
X204957499Y-122502797D01*
X204968000Y-122400009D01*
X204967999Y-121099992D01*
X204957499Y-120997203D01*
X204902314Y-120830666D01*
X204810212Y-120681344D01*
X204686156Y-120557288D01*
X204558287Y-120478418D01*
X204505360Y-120422319D01*
X204487573Y-120347270D01*
X204509693Y-120273382D01*
X204531152Y-120246244D01*
X204647596Y-120129800D01*
X204647604Y-120129792D01*
X204772551Y-119957816D01*
X204869057Y-119768412D01*
X204934746Y-119566243D01*
X204968000Y-119356287D01*
X204968000Y-119143713D01*
X204934746Y-118933757D01*
X204869057Y-118731588D01*
X204772551Y-118542184D01*
X204647604Y-118370208D01*
X204497292Y-118219896D01*
X204325316Y-118094949D01*
X204135912Y-117998443D01*
X203933743Y-117932754D01*
X203723787Y-117899500D01*
X203211213Y-117899500D01*
X203036249Y-117927211D01*
X203001256Y-117932754D01*
X202865359Y-117976910D01*
X202799088Y-117998443D01*
X202799082Y-117998445D01*
X202799082Y-117998446D01*
X202609682Y-118094950D01*
X202609681Y-118094950D01*
X202437709Y-118219895D01*
X202437706Y-118219897D01*
X202287397Y-118370206D01*
X202287395Y-118370209D01*
X202162450Y-118542181D01*
X202162450Y-118542182D01*
X202065946Y-118731582D01*
X202065941Y-118731594D01*
X202037182Y-118820106D01*
X202000254Y-118933757D01*
X201967000Y-119143713D01*
X182285861Y-119143713D01*
X182262667Y-119134106D01*
X182262663Y-119134105D01*
X182088691Y-119099500D01*
X181911309Y-119099500D01*
X181737336Y-119134105D01*
X181737332Y-119134106D01*
X181573453Y-119201986D01*
X181573451Y-119201987D01*
X181425968Y-119300533D01*
X181425963Y-119300537D01*
X181300537Y-119425963D01*
X181300533Y-119425968D01*
X181201987Y-119573451D01*
X181201986Y-119573453D01*
X181134106Y-119737332D01*
X181134105Y-119737336D01*
X181099500Y-119911308D01*
X140167908Y-119911308D01*
X140167908Y-117317517D01*
X155659500Y-117317517D01*
X155659500Y-117541895D01*
X155694600Y-117763510D01*
X155763937Y-117976910D01*
X155824082Y-118094949D01*
X155865803Y-118176831D01*
X155997689Y-118358357D01*
X156156349Y-118517017D01*
X156337875Y-118648903D01*
X156467789Y-118715098D01*
X156537795Y-118750768D01*
X156537797Y-118750768D01*
X156537798Y-118750769D01*
X156751195Y-118820106D01*
X156972811Y-118855206D01*
X156972816Y-118855206D01*
X157197184Y-118855206D01*
X157197189Y-118855206D01*
X157418805Y-118820106D01*
X157632202Y-118750769D01*
X157832125Y-118648903D01*
X158013651Y-118517017D01*
X158172311Y-118358357D01*
X158304197Y-118176831D01*
X158406063Y-117976908D01*
X158475400Y-117763511D01*
X158510500Y-117541895D01*
X158510500Y-117317517D01*
X160489500Y-117317517D01*
X160489500Y-117541895D01*
X160524600Y-117763510D01*
X160593937Y-117976910D01*
X160654082Y-118094949D01*
X160695803Y-118176831D01*
X160827689Y-118358357D01*
X160986349Y-118517017D01*
X161167875Y-118648903D01*
X161297789Y-118715098D01*
X161367795Y-118750768D01*
X161367797Y-118750768D01*
X161367798Y-118750769D01*
X161581195Y-118820106D01*
X161802811Y-118855206D01*
X161802816Y-118855206D01*
X162027184Y-118855206D01*
X162027189Y-118855206D01*
X162248805Y-118820106D01*
X162462202Y-118750769D01*
X162662125Y-118648903D01*
X162843651Y-118517017D01*
X163002311Y-118358357D01*
X163134197Y-118176831D01*
X163236063Y-117976908D01*
X163305400Y-117763511D01*
X163340500Y-117541895D01*
X163340500Y-117317517D01*
X163305400Y-117095901D01*
X163236063Y-116882504D01*
X163236062Y-116882503D01*
X163236062Y-116882501D01*
X163200392Y-116812495D01*
X163134197Y-116682581D01*
X163002311Y-116501055D01*
X162843651Y-116342395D01*
X162662125Y-116210509D01*
X162597167Y-116177411D01*
X162462204Y-116108643D01*
X162319937Y-116062418D01*
X162248805Y-116039306D01*
X162027189Y-116004206D01*
X161802811Y-116004206D01*
X161581195Y-116039306D01*
X161367795Y-116108643D01*
X161167873Y-116210510D01*
X161167872Y-116210510D01*
X160986350Y-116342394D01*
X160986347Y-116342396D01*
X160827690Y-116501053D01*
X160827688Y-116501056D01*
X160695804Y-116682578D01*
X160695804Y-116682579D01*
X160593937Y-116882501D01*
X160524600Y-117095901D01*
X160489500Y-117317517D01*
X158510500Y-117317517D01*
X158475400Y-117095901D01*
X158406063Y-116882504D01*
X158406062Y-116882503D01*
X158406062Y-116882501D01*
X158370392Y-116812495D01*
X158304197Y-116682581D01*
X158172311Y-116501055D01*
X158013651Y-116342395D01*
X157832125Y-116210509D01*
X157767167Y-116177411D01*
X157632204Y-116108643D01*
X157489937Y-116062418D01*
X157418805Y-116039306D01*
X157197189Y-116004206D01*
X156972811Y-116004206D01*
X156751195Y-116039306D01*
X156537795Y-116108643D01*
X156337873Y-116210510D01*
X156337872Y-116210510D01*
X156156350Y-116342394D01*
X156156347Y-116342396D01*
X155997690Y-116501053D01*
X155997688Y-116501056D01*
X155865804Y-116682578D01*
X155865804Y-116682579D01*
X155763937Y-116882501D01*
X155694600Y-117095901D01*
X155659500Y-117317517D01*
X140167908Y-117317517D01*
X140167908Y-109878706D01*
X145649500Y-109878706D01*
X145649500Y-110121293D01*
X145681160Y-110361781D01*
X145681161Y-110361787D01*
X145681162Y-110361789D01*
X145743946Y-110596100D01*
X145836776Y-110820212D01*
X145958064Y-111030289D01*
X146105735Y-111222738D01*
X146277262Y-111394265D01*
X146469711Y-111541936D01*
X146679788Y-111663224D01*
X146903900Y-111756054D01*
X147138211Y-111818838D01*
X147138217Y-111818838D01*
X147138218Y-111818839D01*
X147188807Y-111825499D01*
X147378712Y-111850500D01*
X147621288Y-111850500D01*
X147861789Y-111818838D01*
X148096100Y-111756054D01*
X148320212Y-111663224D01*
X148530289Y-111541936D01*
X148722738Y-111394265D01*
X148894265Y-111222738D01*
X149041936Y-111030289D01*
X149163224Y-110820212D01*
X149256054Y-110596100D01*
X149318838Y-110361789D01*
X149350500Y-110121288D01*
X149350500Y-109878712D01*
X149350499Y-109878704D01*
X149338907Y-109790645D01*
X149336847Y-109774995D01*
X159399500Y-109774995D01*
X159399500Y-111125003D01*
X159399501Y-111125008D01*
X159410001Y-111227797D01*
X159465186Y-111394334D01*
X159557288Y-111543656D01*
X159681344Y-111667712D01*
X159830666Y-111759814D01*
X159997203Y-111814999D01*
X160099991Y-111825500D01*
X160900008Y-111825499D01*
X161002797Y-111814999D01*
X161169334Y-111759814D01*
X161318656Y-111667712D01*
X161442712Y-111543656D01*
X161465982Y-111505928D01*
X161522082Y-111453002D01*
X161597130Y-111435214D01*
X161671019Y-111457334D01*
X161698157Y-111478792D01*
X161783396Y-111564031D01*
X161783399Y-111564033D01*
X161923473Y-111665802D01*
X162077744Y-111744409D01*
X162242411Y-111797912D01*
X162250000Y-111799114D01*
X162250000Y-110730330D01*
X162269745Y-110750075D01*
X162355255Y-110799444D01*
X162450630Y-110825000D01*
X162549370Y-110825000D01*
X162644745Y-110799444D01*
X162730255Y-110750075D01*
X162750000Y-110730330D01*
X162750000Y-111799114D01*
X162757588Y-111797912D01*
X162922255Y-111744409D01*
X163076526Y-111665802D01*
X163076527Y-111665802D01*
X163216600Y-111564033D01*
X163216603Y-111564031D01*
X163339031Y-111441603D01*
X163339033Y-111441600D01*
X163440802Y-111301527D01*
X163440802Y-111301526D01*
X163519409Y-111147253D01*
X163572913Y-110982586D01*
X163600000Y-110811567D01*
X163600000Y-110700000D01*
X162780330Y-110700000D01*
X162800075Y-110680255D01*
X162849444Y-110594745D01*
X162875000Y-110499370D01*
X162875000Y-110400630D01*
X162849444Y-110305255D01*
X162800075Y-110219745D01*
X162780330Y-110200000D01*
X163600000Y-110200000D01*
X163600000Y-110088432D01*
X163572913Y-109917414D01*
X163560336Y-109878706D01*
X202323500Y-109878706D01*
X202323500Y-110121293D01*
X202355160Y-110361781D01*
X202355161Y-110361787D01*
X202355162Y-110361789D01*
X202417946Y-110596100D01*
X202510776Y-110820212D01*
X202632064Y-111030289D01*
X202779735Y-111222738D01*
X202951262Y-111394265D01*
X203143711Y-111541936D01*
X203353788Y-111663224D01*
X203577900Y-111756054D01*
X203812211Y-111818838D01*
X203812217Y-111818838D01*
X203812218Y-111818839D01*
X203862807Y-111825499D01*
X204052712Y-111850500D01*
X204295288Y-111850500D01*
X204535789Y-111818838D01*
X204770100Y-111756054D01*
X204994212Y-111663224D01*
X205204289Y-111541936D01*
X205396738Y-111394265D01*
X205568265Y-111222738D01*
X205715936Y-111030289D01*
X205837224Y-110820212D01*
X205930054Y-110596100D01*
X205992838Y-110361789D01*
X206024500Y-110121288D01*
X206024500Y-109878712D01*
X205992838Y-109638211D01*
X205930054Y-109403900D01*
X205837224Y-109179788D01*
X205715936Y-108969711D01*
X205568265Y-108777262D01*
X205396738Y-108605735D01*
X205204289Y-108458064D01*
X205134263Y-108417634D01*
X204994216Y-108336778D01*
X204994214Y-108336777D01*
X204994212Y-108336776D01*
X204862932Y-108282398D01*
X204770103Y-108243947D01*
X204770101Y-108243946D01*
X204770100Y-108243946D01*
X204535789Y-108181162D01*
X204535787Y-108181161D01*
X204535781Y-108181160D01*
X204295293Y-108149500D01*
X204295288Y-108149500D01*
X204052712Y-108149500D01*
X204052706Y-108149500D01*
X203812218Y-108181160D01*
X203577896Y-108243947D01*
X203353783Y-108336778D01*
X203143712Y-108458063D01*
X203143711Y-108458064D01*
X202951262Y-108605735D01*
X202951260Y-108605736D01*
X202951256Y-108605740D01*
X202779740Y-108777256D01*
X202632063Y-108969712D01*
X202510778Y-109179783D01*
X202417947Y-109403896D01*
X202355160Y-109638218D01*
X202323500Y-109878706D01*
X163560336Y-109878706D01*
X163519409Y-109752744D01*
X163440802Y-109598473D01*
X163440802Y-109598472D01*
X163339033Y-109458399D01*
X163339031Y-109458396D01*
X163216603Y-109335968D01*
X163216600Y-109335966D01*
X163076526Y-109234197D01*
X162922253Y-109155590D01*
X162757586Y-109102086D01*
X162750000Y-109100884D01*
X162750000Y-110169670D01*
X162730255Y-110149925D01*
X162644745Y-110100556D01*
X162549370Y-110075000D01*
X162450630Y-110075000D01*
X162355255Y-110100556D01*
X162269745Y-110149925D01*
X162250000Y-110169670D01*
X162250000Y-109100884D01*
X162249999Y-109100884D01*
X162242414Y-109102086D01*
X162242412Y-109102086D01*
X162077746Y-109155590D01*
X161923473Y-109234197D01*
X161923472Y-109234197D01*
X161783399Y-109335966D01*
X161783396Y-109335968D01*
X161698157Y-109421208D01*
X161631362Y-109459772D01*
X161554234Y-109459772D01*
X161487439Y-109421208D01*
X161465981Y-109394070D01*
X161442711Y-109356343D01*
X161318656Y-109232288D01*
X161233531Y-109179783D01*
X161169334Y-109140186D01*
X161050729Y-109100884D01*
X161002798Y-109085001D01*
X160985665Y-109083250D01*
X160900009Y-109074500D01*
X160900004Y-109074500D01*
X160099996Y-109074500D01*
X159997202Y-109085001D01*
X159830666Y-109140186D01*
X159681343Y-109232288D01*
X159557288Y-109356343D01*
X159465186Y-109505666D01*
X159410001Y-109672201D01*
X159399500Y-109774995D01*
X149336847Y-109774995D01*
X149318839Y-109638218D01*
X149318838Y-109638217D01*
X149318838Y-109638211D01*
X149256054Y-109403900D01*
X149163224Y-109179788D01*
X149041936Y-108969711D01*
X148894265Y-108777262D01*
X148722738Y-108605735D01*
X148530289Y-108458064D01*
X148460263Y-108417634D01*
X148320216Y-108336778D01*
X148320214Y-108336777D01*
X148320212Y-108336776D01*
X148188932Y-108282398D01*
X148096103Y-108243947D01*
X148096101Y-108243946D01*
X148096100Y-108243946D01*
X147861789Y-108181162D01*
X147861787Y-108181161D01*
X147861781Y-108181160D01*
X147621293Y-108149500D01*
X147621288Y-108149500D01*
X147378712Y-108149500D01*
X147378706Y-108149500D01*
X147138218Y-108181160D01*
X146903896Y-108243947D01*
X146679783Y-108336778D01*
X146469712Y-108458063D01*
X146469711Y-108458064D01*
X146277262Y-108605735D01*
X146277260Y-108605736D01*
X146277256Y-108605740D01*
X146105740Y-108777256D01*
X145958063Y-108969712D01*
X145836778Y-109179783D01*
X145743947Y-109403896D01*
X145681160Y-109638218D01*
X145649500Y-109878706D01*
X140167908Y-109878706D01*
X140167908Y-103549271D01*
X140187870Y-103474771D01*
X140242408Y-103420233D01*
X140316908Y-103400271D01*
X210873908Y-103400271D01*
X210948408Y-103420233D01*
G37*
%TD.AperFunction*%
%TD*%
M02*
