%TF.GenerationSoftware,KiCad,Pcbnew,9.0.1*%
%TF.CreationDate,2025-06-05T12:59:16-07:00*%
%TF.ProjectId,chop_battery_board,63686f70-5f62-4617-9474-6572795f626f,rev?*%
%TF.SameCoordinates,Original*%
%TF.FileFunction,Legend,Top*%
%TF.FilePolarity,Positive*%
%FSLAX46Y46*%
G04 Gerber Fmt 4.6, Leading zero omitted, Abs format (unit mm)*
G04 Created by KiCad (PCBNEW 9.0.1) date 2025-06-05 12:59:16*
%MOMM*%
%LPD*%
G01*
G04 APERTURE LIST*
G04 Aperture macros list*
%AMRoundRect*
0 Rectangle with rounded corners*
0 $1 Rounding radius*
0 $2 $3 $4 $5 $6 $7 $8 $9 X,Y pos of 4 corners*
0 Add a 4 corners polygon primitive as box body*
4,1,4,$2,$3,$4,$5,$6,$7,$8,$9,$2,$3,0*
0 Add four circle primitives for the rounded corners*
1,1,$1+$1,$2,$3*
1,1,$1+$1,$4,$5*
1,1,$1+$1,$6,$7*
1,1,$1+$1,$8,$9*
0 Add four rect primitives between the rounded corners*
20,1,$1+$1,$2,$3,$4,$5,0*
20,1,$1+$1,$4,$5,$6,$7,0*
20,1,$1+$1,$6,$7,$8,$9,0*
20,1,$1+$1,$8,$9,$2,$3,0*%
G04 Aperture macros list end*
%ADD10C,0.150000*%
%ADD11C,0.120000*%
%ADD12RoundRect,0.218750X-0.218750X-0.256250X0.218750X-0.256250X0.218750X0.256250X-0.218750X0.256250X0*%
%ADD13RoundRect,0.200000X-0.200000X-0.275000X0.200000X-0.275000X0.200000X0.275000X-0.200000X0.275000X0*%
%ADD14C,3.200000*%
%ADD15R,2.710000X3.400000*%
%ADD16RoundRect,0.150000X-0.737500X-0.150000X0.737500X-0.150000X0.737500X0.150000X-0.737500X0.150000X0*%
%ADD17RoundRect,0.180556X-0.469444X-0.699444X0.469444X-0.699444X0.469444X0.699444X-0.469444X0.699444X0*%
%ADD18C,1.850000*%
%ADD19R,2.600000X2.600000*%
%ADD20C,2.600000*%
%ADD21RoundRect,0.250000X0.750000X-0.600000X0.750000X0.600000X-0.750000X0.600000X-0.750000X-0.600000X0*%
%ADD22O,2.000000X1.700000*%
%ADD23RoundRect,0.250000X-0.350000X-0.625000X0.350000X-0.625000X0.350000X0.625000X-0.350000X0.625000X0*%
%ADD24O,1.200000X1.750000*%
G04 APERTURE END LIST*
D10*
X170261905Y-117454819D02*
X170261905Y-116454819D01*
X170261905Y-116454819D02*
X170500000Y-116454819D01*
X170500000Y-116454819D02*
X170642857Y-116502438D01*
X170642857Y-116502438D02*
X170738095Y-116597676D01*
X170738095Y-116597676D02*
X170785714Y-116692914D01*
X170785714Y-116692914D02*
X170833333Y-116883390D01*
X170833333Y-116883390D02*
X170833333Y-117026247D01*
X170833333Y-117026247D02*
X170785714Y-117216723D01*
X170785714Y-117216723D02*
X170738095Y-117311961D01*
X170738095Y-117311961D02*
X170642857Y-117407200D01*
X170642857Y-117407200D02*
X170500000Y-117454819D01*
X170500000Y-117454819D02*
X170261905Y-117454819D01*
X171214286Y-116550057D02*
X171261905Y-116502438D01*
X171261905Y-116502438D02*
X171357143Y-116454819D01*
X171357143Y-116454819D02*
X171595238Y-116454819D01*
X171595238Y-116454819D02*
X171690476Y-116502438D01*
X171690476Y-116502438D02*
X171738095Y-116550057D01*
X171738095Y-116550057D02*
X171785714Y-116645295D01*
X171785714Y-116645295D02*
X171785714Y-116740533D01*
X171785714Y-116740533D02*
X171738095Y-116883390D01*
X171738095Y-116883390D02*
X171166667Y-117454819D01*
X171166667Y-117454819D02*
X171785714Y-117454819D01*
X173261905Y-125954819D02*
X173261905Y-124954819D01*
X173261905Y-124954819D02*
X173500000Y-124954819D01*
X173500000Y-124954819D02*
X173642857Y-125002438D01*
X173642857Y-125002438D02*
X173738095Y-125097676D01*
X173738095Y-125097676D02*
X173785714Y-125192914D01*
X173785714Y-125192914D02*
X173833333Y-125383390D01*
X173833333Y-125383390D02*
X173833333Y-125526247D01*
X173833333Y-125526247D02*
X173785714Y-125716723D01*
X173785714Y-125716723D02*
X173738095Y-125811961D01*
X173738095Y-125811961D02*
X173642857Y-125907200D01*
X173642857Y-125907200D02*
X173500000Y-125954819D01*
X173500000Y-125954819D02*
X173261905Y-125954819D01*
X174166667Y-124954819D02*
X174785714Y-124954819D01*
X174785714Y-124954819D02*
X174452381Y-125335771D01*
X174452381Y-125335771D02*
X174595238Y-125335771D01*
X174595238Y-125335771D02*
X174690476Y-125383390D01*
X174690476Y-125383390D02*
X174738095Y-125431009D01*
X174738095Y-125431009D02*
X174785714Y-125526247D01*
X174785714Y-125526247D02*
X174785714Y-125764342D01*
X174785714Y-125764342D02*
X174738095Y-125859580D01*
X174738095Y-125859580D02*
X174690476Y-125907200D01*
X174690476Y-125907200D02*
X174595238Y-125954819D01*
X174595238Y-125954819D02*
X174309524Y-125954819D01*
X174309524Y-125954819D02*
X174214286Y-125907200D01*
X174214286Y-125907200D02*
X174166667Y-125859580D01*
X170333333Y-122524819D02*
X170000000Y-122048628D01*
X169761905Y-122524819D02*
X169761905Y-121524819D01*
X169761905Y-121524819D02*
X170142857Y-121524819D01*
X170142857Y-121524819D02*
X170238095Y-121572438D01*
X170238095Y-121572438D02*
X170285714Y-121620057D01*
X170285714Y-121620057D02*
X170333333Y-121715295D01*
X170333333Y-121715295D02*
X170333333Y-121858152D01*
X170333333Y-121858152D02*
X170285714Y-121953390D01*
X170285714Y-121953390D02*
X170238095Y-122001009D01*
X170238095Y-122001009D02*
X170142857Y-122048628D01*
X170142857Y-122048628D02*
X169761905Y-122048628D01*
X171190476Y-121858152D02*
X171190476Y-122524819D01*
X170952381Y-121477200D02*
X170714286Y-122191485D01*
X170714286Y-122191485D02*
X171333333Y-122191485D01*
X146190476Y-128254819D02*
X146190476Y-127254819D01*
X146190476Y-127254819D02*
X146523809Y-127969104D01*
X146523809Y-127969104D02*
X146857142Y-127254819D01*
X146857142Y-127254819D02*
X146857142Y-128254819D01*
X147333333Y-128254819D02*
X147333333Y-127254819D01*
X147904761Y-128254819D02*
X147476190Y-127683390D01*
X147904761Y-127254819D02*
X147333333Y-127826247D01*
X148238095Y-127254819D02*
X148857142Y-127254819D01*
X148857142Y-127254819D02*
X148523809Y-127635771D01*
X148523809Y-127635771D02*
X148666666Y-127635771D01*
X148666666Y-127635771D02*
X148761904Y-127683390D01*
X148761904Y-127683390D02*
X148809523Y-127731009D01*
X148809523Y-127731009D02*
X148857142Y-127826247D01*
X148857142Y-127826247D02*
X148857142Y-128064342D01*
X148857142Y-128064342D02*
X148809523Y-128159580D01*
X148809523Y-128159580D02*
X148761904Y-128207200D01*
X148761904Y-128207200D02*
X148666666Y-128254819D01*
X148666666Y-128254819D02*
X148380952Y-128254819D01*
X148380952Y-128254819D02*
X148285714Y-128207200D01*
X148285714Y-128207200D02*
X148238095Y-128159580D01*
X174333333Y-112024819D02*
X174000000Y-111548628D01*
X173761905Y-112024819D02*
X173761905Y-111024819D01*
X173761905Y-111024819D02*
X174142857Y-111024819D01*
X174142857Y-111024819D02*
X174238095Y-111072438D01*
X174238095Y-111072438D02*
X174285714Y-111120057D01*
X174285714Y-111120057D02*
X174333333Y-111215295D01*
X174333333Y-111215295D02*
X174333333Y-111358152D01*
X174333333Y-111358152D02*
X174285714Y-111453390D01*
X174285714Y-111453390D02*
X174238095Y-111501009D01*
X174238095Y-111501009D02*
X174142857Y-111548628D01*
X174142857Y-111548628D02*
X173761905Y-111548628D01*
X174666667Y-111024819D02*
X175285714Y-111024819D01*
X175285714Y-111024819D02*
X174952381Y-111405771D01*
X174952381Y-111405771D02*
X175095238Y-111405771D01*
X175095238Y-111405771D02*
X175190476Y-111453390D01*
X175190476Y-111453390D02*
X175238095Y-111501009D01*
X175238095Y-111501009D02*
X175285714Y-111596247D01*
X175285714Y-111596247D02*
X175285714Y-111834342D01*
X175285714Y-111834342D02*
X175238095Y-111929580D01*
X175238095Y-111929580D02*
X175190476Y-111977200D01*
X175190476Y-111977200D02*
X175095238Y-112024819D01*
X175095238Y-112024819D02*
X174809524Y-112024819D01*
X174809524Y-112024819D02*
X174714286Y-111977200D01*
X174714286Y-111977200D02*
X174666667Y-111929580D01*
X146190476Y-106254819D02*
X146190476Y-105254819D01*
X146190476Y-105254819D02*
X146523809Y-105969104D01*
X146523809Y-105969104D02*
X146857142Y-105254819D01*
X146857142Y-105254819D02*
X146857142Y-106254819D01*
X147333333Y-106254819D02*
X147333333Y-105254819D01*
X147904761Y-106254819D02*
X147476190Y-105683390D01*
X147904761Y-105254819D02*
X147333333Y-105826247D01*
X148857142Y-106254819D02*
X148285714Y-106254819D01*
X148571428Y-106254819D02*
X148571428Y-105254819D01*
X148571428Y-105254819D02*
X148476190Y-105397676D01*
X148476190Y-105397676D02*
X148380952Y-105492914D01*
X148380952Y-105492914D02*
X148285714Y-105540533D01*
X187675595Y-113459819D02*
X187675595Y-114269342D01*
X187675595Y-114269342D02*
X187723214Y-114364580D01*
X187723214Y-114364580D02*
X187770833Y-114412200D01*
X187770833Y-114412200D02*
X187866071Y-114459819D01*
X187866071Y-114459819D02*
X188056547Y-114459819D01*
X188056547Y-114459819D02*
X188151785Y-114412200D01*
X188151785Y-114412200D02*
X188199404Y-114364580D01*
X188199404Y-114364580D02*
X188247023Y-114269342D01*
X188247023Y-114269342D02*
X188247023Y-113459819D01*
X189247023Y-114459819D02*
X188675595Y-114459819D01*
X188961309Y-114459819D02*
X188961309Y-113459819D01*
X188961309Y-113459819D02*
X188866071Y-113602676D01*
X188866071Y-113602676D02*
X188770833Y-113697914D01*
X188770833Y-113697914D02*
X188675595Y-113745533D01*
X202864476Y-128334819D02*
X202864476Y-127334819D01*
X202864476Y-127334819D02*
X203197809Y-128049104D01*
X203197809Y-128049104D02*
X203531142Y-127334819D01*
X203531142Y-127334819D02*
X203531142Y-128334819D01*
X204007333Y-128334819D02*
X204007333Y-127334819D01*
X204578761Y-128334819D02*
X204150190Y-127763390D01*
X204578761Y-127334819D02*
X204007333Y-127906247D01*
X205435904Y-127668152D02*
X205435904Y-128334819D01*
X205197809Y-127287200D02*
X204959714Y-128001485D01*
X204959714Y-128001485D02*
X205578761Y-128001485D01*
X177501905Y-128954819D02*
X177501905Y-127954819D01*
X177501905Y-127954819D02*
X177740000Y-127954819D01*
X177740000Y-127954819D02*
X177882857Y-128002438D01*
X177882857Y-128002438D02*
X177978095Y-128097676D01*
X177978095Y-128097676D02*
X178025714Y-128192914D01*
X178025714Y-128192914D02*
X178073333Y-128383390D01*
X178073333Y-128383390D02*
X178073333Y-128526247D01*
X178073333Y-128526247D02*
X178025714Y-128716723D01*
X178025714Y-128716723D02*
X177978095Y-128811961D01*
X177978095Y-128811961D02*
X177882857Y-128907200D01*
X177882857Y-128907200D02*
X177740000Y-128954819D01*
X177740000Y-128954819D02*
X177501905Y-128954819D01*
X179025714Y-128954819D02*
X178454286Y-128954819D01*
X178740000Y-128954819D02*
X178740000Y-127954819D01*
X178740000Y-127954819D02*
X178644762Y-128097676D01*
X178644762Y-128097676D02*
X178549524Y-128192914D01*
X178549524Y-128192914D02*
X178454286Y-128240533D01*
X202864476Y-106254819D02*
X202864476Y-105254819D01*
X202864476Y-105254819D02*
X203197809Y-105969104D01*
X203197809Y-105969104D02*
X203531142Y-105254819D01*
X203531142Y-105254819D02*
X203531142Y-106254819D01*
X204007333Y-106254819D02*
X204007333Y-105254819D01*
X204578761Y-106254819D02*
X204150190Y-105683390D01*
X204578761Y-105254819D02*
X204007333Y-105826247D01*
X204959714Y-105350057D02*
X205007333Y-105302438D01*
X205007333Y-105302438D02*
X205102571Y-105254819D01*
X205102571Y-105254819D02*
X205340666Y-105254819D01*
X205340666Y-105254819D02*
X205435904Y-105302438D01*
X205435904Y-105302438D02*
X205483523Y-105350057D01*
X205483523Y-105350057D02*
X205531142Y-105445295D01*
X205531142Y-105445295D02*
X205531142Y-105540533D01*
X205531142Y-105540533D02*
X205483523Y-105683390D01*
X205483523Y-105683390D02*
X204912095Y-106254819D01*
X204912095Y-106254819D02*
X205531142Y-106254819D01*
X158166667Y-114836906D02*
X158309524Y-114884525D01*
X158309524Y-114884525D02*
X158547619Y-114884525D01*
X158547619Y-114884525D02*
X158642857Y-114836906D01*
X158642857Y-114836906D02*
X158690476Y-114789286D01*
X158690476Y-114789286D02*
X158738095Y-114694048D01*
X158738095Y-114694048D02*
X158738095Y-114598810D01*
X158738095Y-114598810D02*
X158690476Y-114503572D01*
X158690476Y-114503572D02*
X158642857Y-114455953D01*
X158642857Y-114455953D02*
X158547619Y-114408334D01*
X158547619Y-114408334D02*
X158357143Y-114360715D01*
X158357143Y-114360715D02*
X158261905Y-114313096D01*
X158261905Y-114313096D02*
X158214286Y-114265477D01*
X158214286Y-114265477D02*
X158166667Y-114170239D01*
X158166667Y-114170239D02*
X158166667Y-114075001D01*
X158166667Y-114075001D02*
X158214286Y-113979763D01*
X158214286Y-113979763D02*
X158261905Y-113932144D01*
X158261905Y-113932144D02*
X158357143Y-113884525D01*
X158357143Y-113884525D02*
X158595238Y-113884525D01*
X158595238Y-113884525D02*
X158738095Y-113932144D01*
X159071429Y-113884525D02*
X159309524Y-114884525D01*
X159309524Y-114884525D02*
X159500000Y-114170239D01*
X159500000Y-114170239D02*
X159690476Y-114884525D01*
X159690476Y-114884525D02*
X159928572Y-113884525D01*
X160833333Y-114884525D02*
X160261905Y-114884525D01*
X160547619Y-114884525D02*
X160547619Y-113884525D01*
X160547619Y-113884525D02*
X160452381Y-114027382D01*
X160452381Y-114027382D02*
X160357143Y-114122620D01*
X160357143Y-114122620D02*
X160261905Y-114170239D01*
X153209048Y-117003572D02*
X153970953Y-117003572D01*
X153590000Y-117384525D02*
X153590000Y-116622620D01*
D11*
%TO.C,D2*%
X172727500Y-116265000D02*
X172727500Y-117735000D01*
X172727500Y-117735000D02*
X175012500Y-117735000D01*
X175012500Y-116265000D02*
X172727500Y-116265000D01*
%TO.C,D3*%
X172727500Y-122765000D02*
X172727500Y-124235000D01*
X172727500Y-124235000D02*
X175012500Y-124235000D01*
X175012500Y-122765000D02*
X172727500Y-122765000D01*
%TO.C,R4*%
X170262742Y-122977500D02*
X170737258Y-122977500D01*
X170262742Y-124022500D02*
X170737258Y-124022500D01*
%TO.C,R3*%
X174262742Y-112477500D02*
X174737258Y-112477500D01*
X174262742Y-113522500D02*
X174737258Y-113522500D01*
%TO.C,U1*%
X186726916Y-114845000D02*
X186487500Y-114845000D01*
X186726916Y-119965000D02*
X186487500Y-119965000D01*
X190148084Y-114845000D02*
X190387500Y-114845000D01*
X190148084Y-119965000D02*
X190387500Y-119965000D01*
X185737500Y-114940000D02*
X185497500Y-114610000D01*
X185977500Y-114610000D01*
X185737500Y-114940000D01*
G36*
X185737500Y-114940000D02*
G01*
X185497500Y-114610000D01*
X185977500Y-114610000D01*
X185737500Y-114940000D01*
G37*
%TO.C,D1*%
X174730000Y-129350000D02*
X174730000Y-132650000D01*
X174730000Y-129350000D02*
X180240000Y-129350000D01*
X174730000Y-132650000D02*
X180240000Y-132650000D01*
%TO.C,SW1*%
X154290000Y-115559706D02*
X154290000Y-128779706D01*
X154290000Y-128779706D02*
X164710000Y-128779706D01*
X158992000Y-115559706D02*
X154290000Y-115559706D01*
X164710000Y-115559706D02*
X160008000Y-115559706D01*
X164710000Y-128779706D02*
X164710000Y-115559706D01*
X159500000Y-115559706D02*
X159300000Y-115220295D01*
X159700000Y-115220295D01*
X159500000Y-115559706D01*
G36*
X159500000Y-115559706D02*
G01*
X159300000Y-115220295D01*
X159700000Y-115220295D01*
X159500000Y-115559706D01*
G37*
%TD*%
%LPC*%
D12*
%TO.C,D2*%
X173425000Y-117000000D03*
X175000000Y-117000000D03*
%TD*%
%TO.C,D3*%
X173425000Y-123500000D03*
X175000000Y-123500000D03*
%TD*%
D13*
%TO.C,R4*%
X169675000Y-123500000D03*
X171325000Y-123500000D03*
%TD*%
D14*
%TO.C,MK3*%
X147500000Y-132000000D03*
%TD*%
D13*
%TO.C,R3*%
X173675000Y-113000000D03*
X175325000Y-113000000D03*
%TD*%
D14*
%TO.C,MK1*%
X147500000Y-110000000D03*
%TD*%
D15*
%TO.C,U1*%
X188437500Y-117405000D03*
D16*
X185875000Y-115500000D03*
X185875000Y-116770000D03*
X185875000Y-118040000D03*
X185875000Y-119310000D03*
X191000000Y-119310000D03*
X191000000Y-118040000D03*
X191000000Y-116770000D03*
X191000000Y-115500000D03*
%TD*%
D14*
%TO.C,MK4*%
X204174000Y-132080000D03*
%TD*%
D17*
%TO.C,D1*%
X176240000Y-131000000D03*
X180500000Y-131000000D03*
%TD*%
D14*
%TO.C,MK2*%
X204174000Y-110000000D03*
%TD*%
D18*
%TO.C,SW1*%
X157085000Y-117429706D03*
X157085000Y-122129706D03*
X157085000Y-126829706D03*
X161915000Y-126829706D03*
X161915000Y-122129706D03*
X161915000Y-117429706D03*
%TD*%
D19*
%TO.C,J1*%
X189250000Y-125300000D03*
D20*
X189250000Y-131300000D03*
X184550000Y-128300000D03*
%TD*%
D21*
%TO.C,J14*%
X203467500Y-121750000D03*
D22*
X203467500Y-119250000D03*
%TD*%
D23*
%TO.C,J13*%
X160500000Y-110450000D03*
D24*
X162500000Y-110450000D03*
%TD*%
%LPD*%
M02*
