%TF.GenerationSoftware,KiCad,Pcbnew,9.0.1*%
%TF.CreationDate,2025-06-09T13:50:40-07:00*%
%TF.ProjectId,chop_battery_board,63686f70-5f62-4617-9474-6572795f626f,rev?*%
%TF.SameCoordinates,Original*%
%TF.FileFunction,Copper,L3,Inr*%
%TF.FilePolarity,Positive*%
%FSLAX46Y46*%
G04 Gerber Fmt 4.6, Leading zero omitted, Abs format (unit mm)*
G04 Created by KiCad (PCBNEW 9.0.1) date 2025-06-09 13:50:40*
%MOMM*%
%LPD*%
G01*
G04 APERTURE LIST*
G04 Aperture macros list*
%AMRoundRect*
0 Rectangle with rounded corners*
0 $1 Rounding radius*
0 $2 $3 $4 $5 $6 $7 $8 $9 X,Y pos of 4 corners*
0 Add a 4 corners polygon primitive as box body*
4,1,4,$2,$3,$4,$5,$6,$7,$8,$9,$2,$3,0*
0 Add four circle primitives for the rounded corners*
1,1,$1+$1,$2,$3*
1,1,$1+$1,$4,$5*
1,1,$1+$1,$6,$7*
1,1,$1+$1,$8,$9*
0 Add four rect primitives between the rounded corners*
20,1,$1+$1,$2,$3,$4,$5,0*
20,1,$1+$1,$4,$5,$6,$7,0*
20,1,$1+$1,$6,$7,$8,$9,0*
20,1,$1+$1,$8,$9,$2,$3,0*%
G04 Aperture macros list end*
%TA.AperFunction,ComponentPad*%
%ADD10C,1.850000*%
%TD*%
%TA.AperFunction,ComponentPad*%
%ADD11R,2.600000X2.600000*%
%TD*%
%TA.AperFunction,ComponentPad*%
%ADD12C,2.600000*%
%TD*%
%TA.AperFunction,ComponentPad*%
%ADD13RoundRect,0.250000X0.750000X-0.600000X0.750000X0.600000X-0.750000X0.600000X-0.750000X-0.600000X0*%
%TD*%
%TA.AperFunction,ComponentPad*%
%ADD14O,2.000000X1.700000*%
%TD*%
%TA.AperFunction,ComponentPad*%
%ADD15RoundRect,0.250000X-0.350000X-0.625000X0.350000X-0.625000X0.350000X0.625000X-0.350000X0.625000X0*%
%TD*%
%TA.AperFunction,ComponentPad*%
%ADD16O,1.200000X1.750000*%
%TD*%
%TA.AperFunction,ViaPad*%
%ADD17C,0.800000*%
%TD*%
G04 APERTURE END LIST*
D10*
%TO.N,Net-(SW1-A-Pad1)*%
%TO.C,SW1*%
X157085000Y-117429706D03*
%TO.N,Net-(J13-Pin_2)*%
X157085000Y-122129706D03*
%TO.N,Net-(R5-Pad2)*%
X157085000Y-126829706D03*
%TO.N,GND*%
X161915000Y-126829706D03*
%TO.N,Net-(D2-A)*%
X161915000Y-122129706D03*
%TO.N,Net-(SW1-A-Pad1)*%
X161915000Y-117429706D03*
%TD*%
D11*
%TO.N,/ChargerVoltage*%
%TO.C,J1*%
X189250000Y-125300000D03*
D12*
%TO.N,GND*%
X189250000Y-131300000D03*
%TO.N,N/C*%
X184550000Y-128300000D03*
%TD*%
D13*
%TO.N,Net-(D2-A)*%
%TO.C,J14*%
X203467500Y-121750000D03*
D14*
%TO.N,GND*%
X203467500Y-119250000D03*
%TD*%
D15*
%TO.N,GND*%
%TO.C,J13*%
X160500000Y-110450000D03*
D16*
%TO.N,Net-(J13-Pin_2)*%
X162500000Y-110450000D03*
%TD*%
D17*
%TO.N,GND*%
X182000000Y-120000000D03*
X171500000Y-125500000D03*
%TD*%
%TA.AperFunction,Conductor*%
%TO.N,/ChargerVoltage*%
G36*
X210965947Y-103419956D02*
G01*
X211011702Y-103472760D01*
X211022908Y-103524271D01*
X211022908Y-139555271D01*
X211003223Y-139622310D01*
X210950419Y-139668065D01*
X210898908Y-139679271D01*
X140291908Y-139679271D01*
X140224869Y-139659586D01*
X140179114Y-139606782D01*
X140167908Y-139555271D01*
X140167908Y-131878711D01*
X145649500Y-131878711D01*
X145649500Y-132121288D01*
X145681161Y-132361785D01*
X145743947Y-132596104D01*
X145828515Y-132800269D01*
X145836776Y-132820212D01*
X145958064Y-133030289D01*
X145958066Y-133030292D01*
X145958067Y-133030293D01*
X146105733Y-133222736D01*
X146105739Y-133222743D01*
X146277256Y-133394260D01*
X146277262Y-133394265D01*
X146469711Y-133541936D01*
X146679788Y-133663224D01*
X146903900Y-133756054D01*
X147138211Y-133818838D01*
X147318586Y-133842584D01*
X147378711Y-133850500D01*
X147378712Y-133850500D01*
X147621289Y-133850500D01*
X147669388Y-133844167D01*
X147861789Y-133818838D01*
X148096100Y-133756054D01*
X148320212Y-133663224D01*
X148530289Y-133541936D01*
X148722738Y-133394265D01*
X148894265Y-133222738D01*
X149041936Y-133030289D01*
X149163224Y-132820212D01*
X149256054Y-132596100D01*
X149318838Y-132361789D01*
X149350500Y-132121288D01*
X149350500Y-131878712D01*
X149318838Y-131638211D01*
X149256054Y-131403900D01*
X149176402Y-131211604D01*
X149164139Y-131181995D01*
X187449500Y-131181995D01*
X187449500Y-131418004D01*
X187449501Y-131418020D01*
X187478489Y-131638211D01*
X187480307Y-131652014D01*
X187498045Y-131718214D01*
X187541394Y-131879993D01*
X187631714Y-132098045D01*
X187631719Y-132098056D01*
X187691321Y-132201288D01*
X187749727Y-132302450D01*
X187749729Y-132302453D01*
X187749730Y-132302454D01*
X187893406Y-132489697D01*
X187893412Y-132489704D01*
X188060295Y-132656587D01*
X188060302Y-132656593D01*
X188170306Y-132741001D01*
X188247550Y-132800273D01*
X188378918Y-132876118D01*
X188451943Y-132918280D01*
X188451948Y-132918282D01*
X188451951Y-132918284D01*
X188670007Y-133008606D01*
X188897986Y-133069693D01*
X189131989Y-133100500D01*
X189131996Y-133100500D01*
X189368004Y-133100500D01*
X189368011Y-133100500D01*
X189602014Y-133069693D01*
X189829993Y-133008606D01*
X190048049Y-132918284D01*
X190252450Y-132800273D01*
X190439699Y-132656592D01*
X190606592Y-132489699D01*
X190750273Y-132302450D01*
X190868284Y-132098049D01*
X190926000Y-131958711D01*
X202323500Y-131958711D01*
X202323500Y-132201288D01*
X202355161Y-132441785D01*
X202417947Y-132676104D01*
X202510773Y-132900205D01*
X202510777Y-132900214D01*
X202521210Y-132918284D01*
X202632064Y-133110289D01*
X202632066Y-133110292D01*
X202632067Y-133110293D01*
X202779733Y-133302736D01*
X202779739Y-133302743D01*
X202951256Y-133474260D01*
X202951263Y-133474266D01*
X203039453Y-133541936D01*
X203143711Y-133621936D01*
X203353788Y-133743224D01*
X203577900Y-133836054D01*
X203812211Y-133898838D01*
X203992586Y-133922584D01*
X204052711Y-133930500D01*
X204052712Y-133930500D01*
X204295289Y-133930500D01*
X204343388Y-133924167D01*
X204535789Y-133898838D01*
X204770100Y-133836054D01*
X204994212Y-133743224D01*
X205204289Y-133621936D01*
X205396738Y-133474265D01*
X205568265Y-133302738D01*
X205715936Y-133110289D01*
X205837224Y-132900212D01*
X205930054Y-132676100D01*
X205992838Y-132441789D01*
X206024500Y-132201288D01*
X206024500Y-131958712D01*
X205992838Y-131718211D01*
X205930054Y-131483900D01*
X205837224Y-131259788D01*
X205715936Y-131049711D01*
X205568265Y-130857262D01*
X205568260Y-130857256D01*
X205396743Y-130685739D01*
X205396736Y-130685733D01*
X205204293Y-130538067D01*
X205204292Y-130538066D01*
X205204289Y-130538064D01*
X204994212Y-130416776D01*
X204994205Y-130416773D01*
X204770104Y-130323947D01*
X204535785Y-130261161D01*
X204295289Y-130229500D01*
X204295288Y-130229500D01*
X204052712Y-130229500D01*
X204052711Y-130229500D01*
X203812214Y-130261161D01*
X203577895Y-130323947D01*
X203353794Y-130416773D01*
X203353785Y-130416777D01*
X203143706Y-130538067D01*
X202951263Y-130685733D01*
X202951256Y-130685739D01*
X202779739Y-130857256D01*
X202779733Y-130857263D01*
X202632067Y-131049706D01*
X202510777Y-131259785D01*
X202510773Y-131259794D01*
X202417947Y-131483895D01*
X202355161Y-131718214D01*
X202323500Y-131958711D01*
X190926000Y-131958711D01*
X190958606Y-131879993D01*
X191019693Y-131652014D01*
X191050500Y-131418011D01*
X191050500Y-131181989D01*
X191019693Y-130947986D01*
X190958606Y-130720007D01*
X190868284Y-130501951D01*
X190868282Y-130501948D01*
X190868280Y-130501943D01*
X190819106Y-130416773D01*
X190750273Y-130297550D01*
X190691001Y-130220306D01*
X190606593Y-130110302D01*
X190606587Y-130110295D01*
X190439704Y-129943412D01*
X190439697Y-129943406D01*
X190252454Y-129799730D01*
X190252453Y-129799729D01*
X190252450Y-129799727D01*
X190170957Y-129752677D01*
X190048056Y-129681719D01*
X190048045Y-129681714D01*
X189829993Y-129591394D01*
X189602010Y-129530306D01*
X189368020Y-129499501D01*
X189368017Y-129499500D01*
X189368011Y-129499500D01*
X189131989Y-129499500D01*
X189131983Y-129499500D01*
X189131979Y-129499501D01*
X188897989Y-129530306D01*
X188670006Y-129591394D01*
X188451954Y-129681714D01*
X188451943Y-129681719D01*
X188247545Y-129799730D01*
X188060302Y-129943406D01*
X188060295Y-129943412D01*
X187893412Y-130110295D01*
X187893406Y-130110302D01*
X187749730Y-130297545D01*
X187631719Y-130501943D01*
X187631714Y-130501954D01*
X187541394Y-130720006D01*
X187480306Y-130947989D01*
X187449501Y-131181979D01*
X187449500Y-131181995D01*
X149164139Y-131181995D01*
X149163229Y-131179799D01*
X149163226Y-131179793D01*
X149163224Y-131179788D01*
X149041936Y-130969711D01*
X148894265Y-130777262D01*
X148894260Y-130777256D01*
X148722743Y-130605739D01*
X148722736Y-130605733D01*
X148530293Y-130458067D01*
X148530292Y-130458066D01*
X148530289Y-130458064D01*
X148320212Y-130336776D01*
X148289238Y-130323946D01*
X148096104Y-130243947D01*
X147861785Y-130181161D01*
X147621289Y-130149500D01*
X147621288Y-130149500D01*
X147378712Y-130149500D01*
X147378711Y-130149500D01*
X147138214Y-130181161D01*
X146903895Y-130243947D01*
X146679794Y-130336773D01*
X146679785Y-130336777D01*
X146469706Y-130458067D01*
X146277263Y-130605733D01*
X146277256Y-130605739D01*
X146105739Y-130777256D01*
X146105733Y-130777263D01*
X145958067Y-130969706D01*
X145836777Y-131179785D01*
X145836773Y-131179794D01*
X145743947Y-131403895D01*
X145681161Y-131638214D01*
X145649500Y-131878711D01*
X140167908Y-131878711D01*
X140167908Y-126717511D01*
X155659500Y-126717511D01*
X155659500Y-126941900D01*
X155694599Y-127163511D01*
X155763938Y-127376912D01*
X155865805Y-127576834D01*
X155997683Y-127758350D01*
X155997687Y-127758355D01*
X156156350Y-127917018D01*
X156156355Y-127917022D01*
X156198974Y-127947986D01*
X156337875Y-128048903D01*
X156465264Y-128113811D01*
X156537793Y-128150767D01*
X156537795Y-128150767D01*
X156537798Y-128150769D01*
X156633883Y-128181989D01*
X156751194Y-128220106D01*
X156972806Y-128255206D01*
X156972811Y-128255206D01*
X157197194Y-128255206D01*
X157418805Y-128220106D01*
X157632202Y-128150769D01*
X157832125Y-128048903D01*
X158013651Y-127917017D01*
X158172311Y-127758357D01*
X158304197Y-127576831D01*
X158406063Y-127376908D01*
X158475400Y-127163511D01*
X158510500Y-126941900D01*
X158510500Y-126717511D01*
X160489500Y-126717511D01*
X160489500Y-126941900D01*
X160524599Y-127163511D01*
X160593938Y-127376912D01*
X160695805Y-127576834D01*
X160827683Y-127758350D01*
X160827687Y-127758355D01*
X160986350Y-127917018D01*
X160986355Y-127917022D01*
X161028974Y-127947986D01*
X161167875Y-128048903D01*
X161295264Y-128113811D01*
X161367793Y-128150767D01*
X161367795Y-128150767D01*
X161367798Y-128150769D01*
X161463883Y-128181989D01*
X161581194Y-128220106D01*
X161802806Y-128255206D01*
X161802811Y-128255206D01*
X162027194Y-128255206D01*
X162248805Y-128220106D01*
X162366098Y-128181995D01*
X182749500Y-128181995D01*
X182749500Y-128418004D01*
X182749501Y-128418020D01*
X182780306Y-128652010D01*
X182841394Y-128879993D01*
X182931714Y-129098045D01*
X182931719Y-129098056D01*
X183002677Y-129220957D01*
X183049727Y-129302450D01*
X183049729Y-129302453D01*
X183049730Y-129302454D01*
X183193406Y-129489697D01*
X183193412Y-129489704D01*
X183360295Y-129656587D01*
X183360302Y-129656593D01*
X183393043Y-129681716D01*
X183547550Y-129800273D01*
X183678918Y-129876118D01*
X183751943Y-129918280D01*
X183751948Y-129918282D01*
X183751951Y-129918284D01*
X183970007Y-130008606D01*
X184197986Y-130069693D01*
X184431989Y-130100500D01*
X184431996Y-130100500D01*
X184668004Y-130100500D01*
X184668011Y-130100500D01*
X184902014Y-130069693D01*
X185129993Y-130008606D01*
X185348049Y-129918284D01*
X185552450Y-129800273D01*
X185739699Y-129656592D01*
X185906592Y-129489699D01*
X186050273Y-129302450D01*
X186168284Y-129098049D01*
X186258606Y-128879993D01*
X186319693Y-128652014D01*
X186350500Y-128418011D01*
X186350500Y-128181989D01*
X186319693Y-127947986D01*
X186258606Y-127720007D01*
X186168284Y-127501951D01*
X186168282Y-127501948D01*
X186168280Y-127501943D01*
X186126118Y-127428918D01*
X186050273Y-127297550D01*
X185991001Y-127220306D01*
X185906593Y-127110302D01*
X185906587Y-127110295D01*
X185739704Y-126943412D01*
X185739697Y-126943406D01*
X185552454Y-126799730D01*
X185552453Y-126799729D01*
X185552450Y-126799727D01*
X185470957Y-126752677D01*
X185348056Y-126681719D01*
X185348045Y-126681714D01*
X185129993Y-126591394D01*
X184902010Y-126530306D01*
X184668020Y-126499501D01*
X184668017Y-126499500D01*
X184668011Y-126499500D01*
X184431989Y-126499500D01*
X184431983Y-126499500D01*
X184431979Y-126499501D01*
X184197989Y-126530306D01*
X183970006Y-126591394D01*
X183751954Y-126681714D01*
X183751943Y-126681719D01*
X183547545Y-126799730D01*
X183360302Y-126943406D01*
X183360295Y-126943412D01*
X183193412Y-127110295D01*
X183193406Y-127110302D01*
X183049730Y-127297545D01*
X182931719Y-127501943D01*
X182931714Y-127501954D01*
X182841394Y-127720006D01*
X182780306Y-127947989D01*
X182749501Y-128181979D01*
X182749500Y-128181995D01*
X162366098Y-128181995D01*
X162462202Y-128150769D01*
X162662125Y-128048903D01*
X162843651Y-127917017D01*
X163002311Y-127758357D01*
X163134197Y-127576831D01*
X163236063Y-127376908D01*
X163305400Y-127163511D01*
X163340500Y-126941900D01*
X163340500Y-126717511D01*
X163305400Y-126495900D01*
X163236061Y-126282499D01*
X163143072Y-126100000D01*
X163134197Y-126082581D01*
X163080702Y-126008951D01*
X163002316Y-125901061D01*
X163002312Y-125901056D01*
X162843649Y-125742393D01*
X162843644Y-125742389D01*
X162662128Y-125610511D01*
X162662127Y-125610510D01*
X162662125Y-125610509D01*
X162476055Y-125515701D01*
X162476054Y-125515700D01*
X162462208Y-125508645D01*
X162248805Y-125439305D01*
X162072010Y-125411304D01*
X170599500Y-125411304D01*
X170599500Y-125588695D01*
X170634103Y-125762658D01*
X170634106Y-125762667D01*
X170701983Y-125926540D01*
X170701990Y-125926553D01*
X170800535Y-126074034D01*
X170800538Y-126074038D01*
X170925961Y-126199461D01*
X170925965Y-126199464D01*
X171073446Y-126298009D01*
X171073459Y-126298016D01*
X171196363Y-126348923D01*
X171237334Y-126365894D01*
X171237336Y-126365894D01*
X171237341Y-126365896D01*
X171411304Y-126400499D01*
X171411307Y-126400500D01*
X171411309Y-126400500D01*
X171588693Y-126400500D01*
X171588694Y-126400499D01*
X171646682Y-126388964D01*
X171762658Y-126365896D01*
X171762661Y-126365894D01*
X171762666Y-126365894D01*
X171926547Y-126298013D01*
X172074035Y-126199464D01*
X172199464Y-126074035D01*
X172298013Y-125926547D01*
X172365894Y-125762666D01*
X172369927Y-125742395D01*
X172400499Y-125588695D01*
X172400500Y-125588693D01*
X172400500Y-125411306D01*
X172400499Y-125411304D01*
X172365896Y-125237341D01*
X172365893Y-125237332D01*
X172298016Y-125073459D01*
X172298009Y-125073446D01*
X172199464Y-124925965D01*
X172199461Y-124925961D01*
X172074038Y-124800538D01*
X172074034Y-124800535D01*
X171926553Y-124701990D01*
X171926540Y-124701983D01*
X171762667Y-124634106D01*
X171762658Y-124634103D01*
X171588694Y-124599500D01*
X171588691Y-124599500D01*
X171411309Y-124599500D01*
X171411306Y-124599500D01*
X171237341Y-124634103D01*
X171237332Y-124634106D01*
X171073459Y-124701983D01*
X171073446Y-124701990D01*
X170925965Y-124800535D01*
X170925961Y-124800538D01*
X170800538Y-124925961D01*
X170800535Y-124925965D01*
X170701990Y-125073446D01*
X170701983Y-125073459D01*
X170634106Y-125237332D01*
X170634103Y-125237341D01*
X170599500Y-125411304D01*
X162072010Y-125411304D01*
X162027194Y-125404206D01*
X162027189Y-125404206D01*
X161802811Y-125404206D01*
X161802806Y-125404206D01*
X161581194Y-125439305D01*
X161367793Y-125508644D01*
X161167871Y-125610511D01*
X160986355Y-125742389D01*
X160986350Y-125742393D01*
X160827687Y-125901056D01*
X160827683Y-125901061D01*
X160695805Y-126082577D01*
X160593938Y-126282499D01*
X160524599Y-126495900D01*
X160489500Y-126717511D01*
X158510500Y-126717511D01*
X158475400Y-126495900D01*
X158406061Y-126282499D01*
X158313072Y-126100000D01*
X158304197Y-126082581D01*
X158250702Y-126008951D01*
X158172316Y-125901061D01*
X158172312Y-125901056D01*
X158013649Y-125742393D01*
X158013644Y-125742389D01*
X157832128Y-125610511D01*
X157832127Y-125610510D01*
X157832125Y-125610509D01*
X157713370Y-125550000D01*
X157632206Y-125508644D01*
X157418805Y-125439305D01*
X157197194Y-125404206D01*
X157197189Y-125404206D01*
X156972811Y-125404206D01*
X156972806Y-125404206D01*
X156751194Y-125439305D01*
X156537793Y-125508644D01*
X156337871Y-125610511D01*
X156156355Y-125742389D01*
X156156350Y-125742393D01*
X155997687Y-125901056D01*
X155997683Y-125901061D01*
X155865805Y-126082577D01*
X155763938Y-126282499D01*
X155694599Y-126495900D01*
X155659500Y-126717511D01*
X140167908Y-126717511D01*
X140167908Y-123952155D01*
X187450000Y-123952155D01*
X187450000Y-125050000D01*
X188487639Y-125050000D01*
X188480743Y-125066649D01*
X188450000Y-125221207D01*
X188450000Y-125378793D01*
X188480743Y-125533351D01*
X188487639Y-125550000D01*
X187450000Y-125550000D01*
X187450000Y-126647844D01*
X187456401Y-126707372D01*
X187456403Y-126707379D01*
X187506645Y-126842086D01*
X187506649Y-126842093D01*
X187592809Y-126957187D01*
X187592812Y-126957190D01*
X187707906Y-127043350D01*
X187707913Y-127043354D01*
X187842620Y-127093596D01*
X187842627Y-127093598D01*
X187902155Y-127099999D01*
X187902172Y-127100000D01*
X189000000Y-127100000D01*
X189000000Y-126062360D01*
X189016649Y-126069257D01*
X189171207Y-126100000D01*
X189328793Y-126100000D01*
X189483351Y-126069257D01*
X189500000Y-126062360D01*
X189500000Y-127100000D01*
X190597828Y-127100000D01*
X190597844Y-127099999D01*
X190657372Y-127093598D01*
X190657379Y-127093596D01*
X190792086Y-127043354D01*
X190792093Y-127043350D01*
X190907187Y-126957190D01*
X190907190Y-126957187D01*
X190993350Y-126842093D01*
X190993354Y-126842086D01*
X191043596Y-126707379D01*
X191043598Y-126707372D01*
X191049999Y-126647844D01*
X191050000Y-126647827D01*
X191050000Y-125550000D01*
X190012361Y-125550000D01*
X190019257Y-125533351D01*
X190050000Y-125378793D01*
X190050000Y-125221207D01*
X190019257Y-125066649D01*
X190012361Y-125050000D01*
X191050000Y-125050000D01*
X191050000Y-123952172D01*
X191049999Y-123952155D01*
X191043598Y-123892627D01*
X191043596Y-123892620D01*
X190993354Y-123757913D01*
X190993350Y-123757906D01*
X190907190Y-123642812D01*
X190907187Y-123642809D01*
X190792093Y-123556649D01*
X190792086Y-123556645D01*
X190657379Y-123506403D01*
X190657372Y-123506401D01*
X190597844Y-123500000D01*
X189500000Y-123500000D01*
X189500000Y-124537639D01*
X189483351Y-124530743D01*
X189328793Y-124500000D01*
X189171207Y-124500000D01*
X189016649Y-124530743D01*
X189000000Y-124537639D01*
X189000000Y-123500000D01*
X187902155Y-123500000D01*
X187842627Y-123506401D01*
X187842620Y-123506403D01*
X187707913Y-123556645D01*
X187707906Y-123556649D01*
X187592812Y-123642809D01*
X187592809Y-123642812D01*
X187506649Y-123757906D01*
X187506645Y-123757913D01*
X187456403Y-123892620D01*
X187456401Y-123892627D01*
X187450000Y-123952155D01*
X140167908Y-123952155D01*
X140167908Y-122017511D01*
X155659500Y-122017511D01*
X155659500Y-122241900D01*
X155694599Y-122463511D01*
X155763938Y-122676912D01*
X155865805Y-122876834D01*
X155997683Y-123058350D01*
X155997687Y-123058355D01*
X156156350Y-123217018D01*
X156156355Y-123217022D01*
X156314683Y-123332053D01*
X156337875Y-123348903D01*
X156465264Y-123413811D01*
X156537793Y-123450767D01*
X156537795Y-123450767D01*
X156537798Y-123450769D01*
X156652184Y-123487935D01*
X156751194Y-123520106D01*
X156972806Y-123555206D01*
X156972811Y-123555206D01*
X157197194Y-123555206D01*
X157418805Y-123520106D01*
X157460978Y-123506403D01*
X157632202Y-123450769D01*
X157832125Y-123348903D01*
X158013651Y-123217017D01*
X158172311Y-123058357D01*
X158304197Y-122876831D01*
X158406063Y-122676908D01*
X158475400Y-122463511D01*
X158485456Y-122400018D01*
X158510500Y-122241900D01*
X158510500Y-122017511D01*
X160489500Y-122017511D01*
X160489500Y-122241900D01*
X160524599Y-122463511D01*
X160593938Y-122676912D01*
X160695805Y-122876834D01*
X160827683Y-123058350D01*
X160827687Y-123058355D01*
X160986350Y-123217018D01*
X160986355Y-123217022D01*
X161144683Y-123332053D01*
X161167875Y-123348903D01*
X161295264Y-123413811D01*
X161367793Y-123450767D01*
X161367795Y-123450767D01*
X161367798Y-123450769D01*
X161482184Y-123487935D01*
X161581194Y-123520106D01*
X161802806Y-123555206D01*
X161802811Y-123555206D01*
X162027194Y-123555206D01*
X162248805Y-123520106D01*
X162290978Y-123506403D01*
X162462202Y-123450769D01*
X162662125Y-123348903D01*
X162843651Y-123217017D01*
X163002311Y-123058357D01*
X163134197Y-122876831D01*
X163236063Y-122676908D01*
X163305400Y-122463511D01*
X163315456Y-122400018D01*
X163340500Y-122241900D01*
X163340500Y-122017511D01*
X163305400Y-121795900D01*
X163236061Y-121582499D01*
X163199105Y-121509970D01*
X163134197Y-121382581D01*
X163117347Y-121359389D01*
X163002316Y-121201061D01*
X163002312Y-121201056D01*
X162843649Y-121042393D01*
X162843644Y-121042389D01*
X162662128Y-120910511D01*
X162662127Y-120910510D01*
X162662125Y-120910509D01*
X162599692Y-120878698D01*
X162462206Y-120808644D01*
X162248805Y-120739305D01*
X162027194Y-120704206D01*
X162027189Y-120704206D01*
X161802811Y-120704206D01*
X161802806Y-120704206D01*
X161581194Y-120739305D01*
X161367793Y-120808644D01*
X161167871Y-120910511D01*
X160986355Y-121042389D01*
X160986350Y-121042393D01*
X160827687Y-121201056D01*
X160827683Y-121201061D01*
X160695805Y-121382577D01*
X160593938Y-121582499D01*
X160524599Y-121795900D01*
X160489500Y-122017511D01*
X158510500Y-122017511D01*
X158475400Y-121795900D01*
X158406061Y-121582499D01*
X158369105Y-121509970D01*
X158304197Y-121382581D01*
X158287347Y-121359389D01*
X158172316Y-121201061D01*
X158172312Y-121201056D01*
X158013649Y-121042393D01*
X158013644Y-121042389D01*
X157832128Y-120910511D01*
X157832127Y-120910510D01*
X157832125Y-120910509D01*
X157769692Y-120878698D01*
X157632206Y-120808644D01*
X157418805Y-120739305D01*
X157197194Y-120704206D01*
X157197189Y-120704206D01*
X156972811Y-120704206D01*
X156972806Y-120704206D01*
X156751194Y-120739305D01*
X156537793Y-120808644D01*
X156337871Y-120910511D01*
X156156355Y-121042389D01*
X156156350Y-121042393D01*
X155997687Y-121201056D01*
X155997683Y-121201061D01*
X155865805Y-121382577D01*
X155763938Y-121582499D01*
X155694599Y-121795900D01*
X155659500Y-122017511D01*
X140167908Y-122017511D01*
X140167908Y-119911304D01*
X181099500Y-119911304D01*
X181099500Y-120088695D01*
X181134103Y-120262658D01*
X181134106Y-120262667D01*
X181201983Y-120426540D01*
X181201990Y-120426553D01*
X181300535Y-120574034D01*
X181300538Y-120574038D01*
X181425961Y-120699461D01*
X181425965Y-120699464D01*
X181573446Y-120798009D01*
X181573459Y-120798016D01*
X181652285Y-120830666D01*
X181737334Y-120865894D01*
X181737336Y-120865894D01*
X181737341Y-120865896D01*
X181911304Y-120900499D01*
X181911307Y-120900500D01*
X181911309Y-120900500D01*
X182088693Y-120900500D01*
X182088694Y-120900499D01*
X182146682Y-120888964D01*
X182262658Y-120865896D01*
X182262661Y-120865894D01*
X182262666Y-120865894D01*
X182426547Y-120798013D01*
X182574035Y-120699464D01*
X182699464Y-120574035D01*
X182798013Y-120426547D01*
X182865894Y-120262666D01*
X182900500Y-120088691D01*
X182900500Y-119911309D01*
X182900500Y-119911306D01*
X182900499Y-119911304D01*
X182865896Y-119737341D01*
X182865893Y-119737332D01*
X182798016Y-119573459D01*
X182798009Y-119573446D01*
X182699464Y-119425965D01*
X182699461Y-119425961D01*
X182574038Y-119300538D01*
X182574034Y-119300535D01*
X182486346Y-119241943D01*
X182426553Y-119201990D01*
X182426540Y-119201983D01*
X182285861Y-119143713D01*
X201967000Y-119143713D01*
X201967000Y-119356287D01*
X202000254Y-119566243D01*
X202055847Y-119737341D01*
X202065944Y-119768414D01*
X202162451Y-119957820D01*
X202287390Y-120129786D01*
X202426205Y-120268601D01*
X202459690Y-120329924D01*
X202454706Y-120399616D01*
X202412834Y-120455549D01*
X202403621Y-120461821D01*
X202248842Y-120557289D01*
X202124789Y-120681342D01*
X202032687Y-120830663D01*
X202032685Y-120830668D01*
X202021012Y-120865896D01*
X201977501Y-120997203D01*
X201977501Y-120997204D01*
X201977500Y-120997204D01*
X201967000Y-121099983D01*
X201967000Y-122400001D01*
X201967001Y-122400018D01*
X201977500Y-122502796D01*
X201977501Y-122502799D01*
X202032685Y-122669331D01*
X202032687Y-122669336D01*
X202037360Y-122676912D01*
X202124788Y-122818656D01*
X202248844Y-122942712D01*
X202398166Y-123034814D01*
X202564703Y-123089999D01*
X202667491Y-123100500D01*
X204267508Y-123100499D01*
X204370297Y-123089999D01*
X204536834Y-123034814D01*
X204686156Y-122942712D01*
X204810212Y-122818656D01*
X204902314Y-122669334D01*
X204957499Y-122502797D01*
X204968000Y-122400009D01*
X204967999Y-121099992D01*
X204957499Y-120997203D01*
X204902314Y-120830666D01*
X204810212Y-120681344D01*
X204686156Y-120557288D01*
X204536834Y-120465186D01*
X204536833Y-120465185D01*
X204531378Y-120461821D01*
X204484654Y-120409873D01*
X204473431Y-120340910D01*
X204501275Y-120276828D01*
X204508772Y-120268623D01*
X204647604Y-120129792D01*
X204677466Y-120088691D01*
X204772548Y-119957820D01*
X204772547Y-119957820D01*
X204772551Y-119957816D01*
X204869057Y-119768412D01*
X204934746Y-119566243D01*
X204968000Y-119356287D01*
X204968000Y-119143713D01*
X204934746Y-118933757D01*
X204869057Y-118731588D01*
X204772551Y-118542184D01*
X204772549Y-118542181D01*
X204772548Y-118542179D01*
X204647609Y-118370213D01*
X204497286Y-118219890D01*
X204325320Y-118094951D01*
X204135914Y-117998444D01*
X204135913Y-117998443D01*
X204135912Y-117998443D01*
X203933743Y-117932754D01*
X203933741Y-117932753D01*
X203933740Y-117932753D01*
X203772457Y-117907208D01*
X203723787Y-117899500D01*
X203211213Y-117899500D01*
X203162542Y-117907208D01*
X203001260Y-117932753D01*
X202799085Y-117998444D01*
X202609679Y-118094951D01*
X202437713Y-118219890D01*
X202287390Y-118370213D01*
X202162451Y-118542179D01*
X202065944Y-118731585D01*
X202000253Y-118933760D01*
X201974003Y-119099500D01*
X201967000Y-119143713D01*
X182285861Y-119143713D01*
X182262667Y-119134106D01*
X182262658Y-119134103D01*
X182088694Y-119099500D01*
X182088691Y-119099500D01*
X181911309Y-119099500D01*
X181911306Y-119099500D01*
X181737341Y-119134103D01*
X181737332Y-119134106D01*
X181573459Y-119201983D01*
X181573446Y-119201990D01*
X181425965Y-119300535D01*
X181425961Y-119300538D01*
X181300538Y-119425961D01*
X181300535Y-119425965D01*
X181201990Y-119573446D01*
X181201983Y-119573459D01*
X181134106Y-119737332D01*
X181134103Y-119737341D01*
X181099500Y-119911304D01*
X140167908Y-119911304D01*
X140167908Y-117317511D01*
X155659500Y-117317511D01*
X155659500Y-117541900D01*
X155694599Y-117763511D01*
X155763938Y-117976912D01*
X155865805Y-118176834D01*
X155997683Y-118358350D01*
X155997687Y-118358355D01*
X156156350Y-118517018D01*
X156156355Y-118517022D01*
X156190988Y-118542184D01*
X156337875Y-118648903D01*
X156465264Y-118713811D01*
X156537793Y-118750767D01*
X156537795Y-118750767D01*
X156537798Y-118750769D01*
X156652184Y-118787935D01*
X156751194Y-118820106D01*
X156972806Y-118855206D01*
X156972811Y-118855206D01*
X157197194Y-118855206D01*
X157418805Y-118820106D01*
X157632202Y-118750769D01*
X157832125Y-118648903D01*
X158013651Y-118517017D01*
X158172311Y-118358357D01*
X158304197Y-118176831D01*
X158406063Y-117976908D01*
X158475400Y-117763511D01*
X158510500Y-117541900D01*
X158510500Y-117317511D01*
X160489500Y-117317511D01*
X160489500Y-117541900D01*
X160524599Y-117763511D01*
X160593938Y-117976912D01*
X160695805Y-118176834D01*
X160827683Y-118358350D01*
X160827687Y-118358355D01*
X160986350Y-118517018D01*
X160986355Y-118517022D01*
X161020988Y-118542184D01*
X161167875Y-118648903D01*
X161295264Y-118713811D01*
X161367793Y-118750767D01*
X161367795Y-118750767D01*
X161367798Y-118750769D01*
X161482184Y-118787935D01*
X161581194Y-118820106D01*
X161802806Y-118855206D01*
X161802811Y-118855206D01*
X162027194Y-118855206D01*
X162248805Y-118820106D01*
X162462202Y-118750769D01*
X162662125Y-118648903D01*
X162843651Y-118517017D01*
X163002311Y-118358357D01*
X163134197Y-118176831D01*
X163236063Y-117976908D01*
X163305400Y-117763511D01*
X163340500Y-117541900D01*
X163340500Y-117317511D01*
X163305400Y-117095900D01*
X163236061Y-116882499D01*
X163199105Y-116809970D01*
X163134197Y-116682581D01*
X163117347Y-116659389D01*
X163002316Y-116501061D01*
X163002312Y-116501056D01*
X162843649Y-116342393D01*
X162843644Y-116342389D01*
X162662128Y-116210511D01*
X162662127Y-116210510D01*
X162662125Y-116210509D01*
X162599692Y-116178698D01*
X162462206Y-116108644D01*
X162248805Y-116039305D01*
X162027194Y-116004206D01*
X162027189Y-116004206D01*
X161802811Y-116004206D01*
X161802806Y-116004206D01*
X161581194Y-116039305D01*
X161367793Y-116108644D01*
X161167871Y-116210511D01*
X160986355Y-116342389D01*
X160986350Y-116342393D01*
X160827687Y-116501056D01*
X160827683Y-116501061D01*
X160695805Y-116682577D01*
X160593938Y-116882499D01*
X160524599Y-117095900D01*
X160489500Y-117317511D01*
X158510500Y-117317511D01*
X158475400Y-117095900D01*
X158406061Y-116882499D01*
X158369105Y-116809970D01*
X158304197Y-116682581D01*
X158287347Y-116659389D01*
X158172316Y-116501061D01*
X158172312Y-116501056D01*
X158013649Y-116342393D01*
X158013644Y-116342389D01*
X157832128Y-116210511D01*
X157832127Y-116210510D01*
X157832125Y-116210509D01*
X157769692Y-116178698D01*
X157632206Y-116108644D01*
X157418805Y-116039305D01*
X157197194Y-116004206D01*
X157197189Y-116004206D01*
X156972811Y-116004206D01*
X156972806Y-116004206D01*
X156751194Y-116039305D01*
X156537793Y-116108644D01*
X156337871Y-116210511D01*
X156156355Y-116342389D01*
X156156350Y-116342393D01*
X155997687Y-116501056D01*
X155997683Y-116501061D01*
X155865805Y-116682577D01*
X155763938Y-116882499D01*
X155694599Y-117095900D01*
X155659500Y-117317511D01*
X140167908Y-117317511D01*
X140167908Y-109878711D01*
X145649500Y-109878711D01*
X145649500Y-110121288D01*
X145681161Y-110361785D01*
X145743947Y-110596104D01*
X145833213Y-110811610D01*
X145836776Y-110820212D01*
X145958064Y-111030289D01*
X145958066Y-111030292D01*
X145958067Y-111030293D01*
X146105733Y-111222736D01*
X146105739Y-111222743D01*
X146277256Y-111394260D01*
X146277263Y-111394266D01*
X146312767Y-111421509D01*
X146469711Y-111541936D01*
X146679788Y-111663224D01*
X146903900Y-111756054D01*
X147138211Y-111818838D01*
X147318586Y-111842584D01*
X147378711Y-111850500D01*
X147378712Y-111850500D01*
X147621289Y-111850500D01*
X147669388Y-111844167D01*
X147861789Y-111818838D01*
X148096100Y-111756054D01*
X148320212Y-111663224D01*
X148530289Y-111541936D01*
X148722738Y-111394265D01*
X148894265Y-111222738D01*
X149041936Y-111030289D01*
X149163224Y-110820212D01*
X149256054Y-110596100D01*
X149318838Y-110361789D01*
X149350500Y-110121288D01*
X149350500Y-109878712D01*
X149336844Y-109774983D01*
X159399500Y-109774983D01*
X159399500Y-111125001D01*
X159399501Y-111125018D01*
X159410000Y-111227796D01*
X159410001Y-111227799D01*
X159465185Y-111394331D01*
X159465187Y-111394336D01*
X159488870Y-111432732D01*
X159557288Y-111543656D01*
X159681344Y-111667712D01*
X159830666Y-111759814D01*
X159997203Y-111814999D01*
X160099991Y-111825500D01*
X160900008Y-111825499D01*
X160900016Y-111825498D01*
X160900019Y-111825498D01*
X160965215Y-111818838D01*
X161002797Y-111814999D01*
X161169334Y-111759814D01*
X161318656Y-111667712D01*
X161442712Y-111543656D01*
X161482310Y-111479456D01*
X161534258Y-111432732D01*
X161603220Y-111421509D01*
X161667303Y-111449352D01*
X161675530Y-111456872D01*
X161783072Y-111564414D01*
X161923212Y-111666232D01*
X162077555Y-111744873D01*
X162242299Y-111798402D01*
X162413389Y-111825500D01*
X162413390Y-111825500D01*
X162586610Y-111825500D01*
X162586611Y-111825500D01*
X162757701Y-111798402D01*
X162922445Y-111744873D01*
X163076788Y-111666232D01*
X163216928Y-111564414D01*
X163339414Y-111441928D01*
X163441232Y-111301788D01*
X163519873Y-111147445D01*
X163573402Y-110982701D01*
X163600500Y-110811611D01*
X163600500Y-110088389D01*
X163573402Y-109917299D01*
X163560864Y-109878711D01*
X202323500Y-109878711D01*
X202323500Y-110121288D01*
X202355161Y-110361785D01*
X202417947Y-110596104D01*
X202507213Y-110811610D01*
X202510776Y-110820212D01*
X202632064Y-111030289D01*
X202632066Y-111030292D01*
X202632067Y-111030293D01*
X202779733Y-111222736D01*
X202779739Y-111222743D01*
X202951256Y-111394260D01*
X202951263Y-111394266D01*
X202986767Y-111421509D01*
X203143711Y-111541936D01*
X203353788Y-111663224D01*
X203577900Y-111756054D01*
X203812211Y-111818838D01*
X203992586Y-111842584D01*
X204052711Y-111850500D01*
X204052712Y-111850500D01*
X204295289Y-111850500D01*
X204343388Y-111844167D01*
X204535789Y-111818838D01*
X204770100Y-111756054D01*
X204994212Y-111663224D01*
X205204289Y-111541936D01*
X205396738Y-111394265D01*
X205568265Y-111222738D01*
X205715936Y-111030289D01*
X205837224Y-110820212D01*
X205930054Y-110596100D01*
X205992838Y-110361789D01*
X206024500Y-110121288D01*
X206024500Y-109878712D01*
X205992838Y-109638211D01*
X205930054Y-109403900D01*
X205837224Y-109179788D01*
X205715936Y-108969711D01*
X205568265Y-108777262D01*
X205568260Y-108777256D01*
X205396743Y-108605739D01*
X205396736Y-108605733D01*
X205204293Y-108458067D01*
X205204292Y-108458066D01*
X205204289Y-108458064D01*
X204994212Y-108336776D01*
X204994205Y-108336773D01*
X204770104Y-108243947D01*
X204535785Y-108181161D01*
X204295289Y-108149500D01*
X204295288Y-108149500D01*
X204052712Y-108149500D01*
X204052711Y-108149500D01*
X203812214Y-108181161D01*
X203577895Y-108243947D01*
X203353794Y-108336773D01*
X203353785Y-108336777D01*
X203143706Y-108458067D01*
X202951263Y-108605733D01*
X202951256Y-108605739D01*
X202779739Y-108777256D01*
X202779733Y-108777263D01*
X202632067Y-108969706D01*
X202510777Y-109179785D01*
X202510773Y-109179794D01*
X202417947Y-109403895D01*
X202355161Y-109638214D01*
X202323500Y-109878711D01*
X163560864Y-109878711D01*
X163519873Y-109752555D01*
X163441232Y-109598212D01*
X163339414Y-109458072D01*
X163216928Y-109335586D01*
X163076788Y-109233768D01*
X162922445Y-109155127D01*
X162757701Y-109101598D01*
X162757699Y-109101597D01*
X162757698Y-109101597D01*
X162626271Y-109080781D01*
X162586611Y-109074500D01*
X162413389Y-109074500D01*
X162373728Y-109080781D01*
X162242302Y-109101597D01*
X162077552Y-109155128D01*
X161923211Y-109233768D01*
X161783073Y-109335585D01*
X161675530Y-109443128D01*
X161614207Y-109476612D01*
X161544515Y-109471628D01*
X161488582Y-109429756D01*
X161482310Y-109420543D01*
X161442712Y-109356344D01*
X161318656Y-109232288D01*
X161193559Y-109155128D01*
X161169336Y-109140187D01*
X161169331Y-109140185D01*
X161167862Y-109139698D01*
X161002797Y-109085001D01*
X161002795Y-109085000D01*
X160900010Y-109074500D01*
X160099998Y-109074500D01*
X160099980Y-109074501D01*
X159997203Y-109085000D01*
X159997200Y-109085001D01*
X159830668Y-109140185D01*
X159830663Y-109140187D01*
X159681342Y-109232289D01*
X159557289Y-109356342D01*
X159465187Y-109505663D01*
X159465186Y-109505666D01*
X159410001Y-109672203D01*
X159410001Y-109672204D01*
X159410000Y-109672204D01*
X159399500Y-109774983D01*
X149336844Y-109774983D01*
X149318838Y-109638211D01*
X149256054Y-109403900D01*
X149163224Y-109179788D01*
X149041936Y-108969711D01*
X148894265Y-108777262D01*
X148894260Y-108777256D01*
X148722743Y-108605739D01*
X148722736Y-108605733D01*
X148530293Y-108458067D01*
X148530292Y-108458066D01*
X148530289Y-108458064D01*
X148320212Y-108336776D01*
X148320205Y-108336773D01*
X148096104Y-108243947D01*
X147861785Y-108181161D01*
X147621289Y-108149500D01*
X147621288Y-108149500D01*
X147378712Y-108149500D01*
X147378711Y-108149500D01*
X147138214Y-108181161D01*
X146903895Y-108243947D01*
X146679794Y-108336773D01*
X146679785Y-108336777D01*
X146469706Y-108458067D01*
X146277263Y-108605733D01*
X146277256Y-108605739D01*
X146105739Y-108777256D01*
X146105733Y-108777263D01*
X145958067Y-108969706D01*
X145836777Y-109179785D01*
X145836773Y-109179794D01*
X145743947Y-109403895D01*
X145681161Y-109638214D01*
X145649500Y-109878711D01*
X140167908Y-109878711D01*
X140167908Y-103524271D01*
X140187593Y-103457232D01*
X140240397Y-103411477D01*
X140291908Y-103400271D01*
X210898908Y-103400271D01*
X210965947Y-103419956D01*
G37*
%TD.AperFunction*%
%TD*%
M02*
