%TF.GenerationSoftware,KiCad,Pcbnew,9.0.1*%
%TF.CreationDate,2025-06-05T12:59:36-07:00*%
%TF.ProjectId,chop_battery_board,63686f70-5f62-4617-9474-6572795f626f,rev?*%
%TF.SameCoordinates,Original*%
%TF.FileFunction,Drillmap*%
%TF.FilePolarity,Positive*%
%FSLAX45Y45*%
G04 Gerber Fmt 4.5, Leading zero omitted, Abs format (unit mm)*
G04 Created by KiCad (PCBNEW 9.0.1) date 2025-06-05 12:59:36*
%MOMM*%
%LPD*%
G01*
G04 APERTURE LIST*
%ADD10C,0.100000*%
%ADD11C,0.200000*%
%ADD12C,0.320000*%
G04 APERTURE END LIST*
D10*
X14016741Y-10339977D02*
X21102341Y-10339977D01*
X21102341Y-13967977D01*
X14016741Y-13967977D01*
X14016741Y-10339977D01*
D11*
D12*
X14590000Y-10840000D02*
X14910000Y-11160000D01*
X14910000Y-10840000D02*
X14590000Y-11160000D01*
X14590000Y-13040000D02*
X14910000Y-13360000D01*
X14910000Y-13040000D02*
X14590000Y-13360000D01*
X20257400Y-10840000D02*
X20577400Y-11160000D01*
X20577400Y-10840000D02*
X20257400Y-11160000D01*
X20257400Y-13048000D02*
X20577400Y-13368000D01*
X20577400Y-13048000D02*
X20257400Y-13368000D01*
D11*
X14272518Y-14284461D02*
X14272518Y-14084461D01*
X14272518Y-14084461D02*
X14320137Y-14084461D01*
X14320137Y-14084461D02*
X14348708Y-14093985D01*
X14348708Y-14093985D02*
X14367756Y-14113032D01*
X14367756Y-14113032D02*
X14377279Y-14132080D01*
X14377279Y-14132080D02*
X14386803Y-14170175D01*
X14386803Y-14170175D02*
X14386803Y-14198747D01*
X14386803Y-14198747D02*
X14377279Y-14236842D01*
X14377279Y-14236842D02*
X14367756Y-14255889D01*
X14367756Y-14255889D02*
X14348708Y-14274937D01*
X14348708Y-14274937D02*
X14320137Y-14284461D01*
X14320137Y-14284461D02*
X14272518Y-14284461D01*
X14472518Y-14284461D02*
X14472518Y-14151127D01*
X14472518Y-14189223D02*
X14482041Y-14170175D01*
X14482041Y-14170175D02*
X14491565Y-14160651D01*
X14491565Y-14160651D02*
X14510613Y-14151127D01*
X14510613Y-14151127D02*
X14529660Y-14151127D01*
X14596327Y-14284461D02*
X14596327Y-14151127D01*
X14596327Y-14084461D02*
X14586803Y-14093985D01*
X14586803Y-14093985D02*
X14596327Y-14103508D01*
X14596327Y-14103508D02*
X14605851Y-14093985D01*
X14605851Y-14093985D02*
X14596327Y-14084461D01*
X14596327Y-14084461D02*
X14596327Y-14103508D01*
X14720137Y-14284461D02*
X14701089Y-14274937D01*
X14701089Y-14274937D02*
X14691565Y-14255889D01*
X14691565Y-14255889D02*
X14691565Y-14084461D01*
X14824898Y-14284461D02*
X14805851Y-14274937D01*
X14805851Y-14274937D02*
X14796327Y-14255889D01*
X14796327Y-14255889D02*
X14796327Y-14084461D01*
X15053470Y-14284461D02*
X15053470Y-14084461D01*
X15053470Y-14084461D02*
X15120137Y-14227318D01*
X15120137Y-14227318D02*
X15186803Y-14084461D01*
X15186803Y-14084461D02*
X15186803Y-14284461D01*
X15367756Y-14284461D02*
X15367756Y-14179699D01*
X15367756Y-14179699D02*
X15358232Y-14160651D01*
X15358232Y-14160651D02*
X15339184Y-14151127D01*
X15339184Y-14151127D02*
X15301089Y-14151127D01*
X15301089Y-14151127D02*
X15282041Y-14160651D01*
X15367756Y-14274937D02*
X15348708Y-14284461D01*
X15348708Y-14284461D02*
X15301089Y-14284461D01*
X15301089Y-14284461D02*
X15282041Y-14274937D01*
X15282041Y-14274937D02*
X15272518Y-14255889D01*
X15272518Y-14255889D02*
X15272518Y-14236842D01*
X15272518Y-14236842D02*
X15282041Y-14217794D01*
X15282041Y-14217794D02*
X15301089Y-14208270D01*
X15301089Y-14208270D02*
X15348708Y-14208270D01*
X15348708Y-14208270D02*
X15367756Y-14198747D01*
X15462994Y-14151127D02*
X15462994Y-14351127D01*
X15462994Y-14160651D02*
X15482041Y-14151127D01*
X15482041Y-14151127D02*
X15520137Y-14151127D01*
X15520137Y-14151127D02*
X15539184Y-14160651D01*
X15539184Y-14160651D02*
X15548708Y-14170175D01*
X15548708Y-14170175D02*
X15558232Y-14189223D01*
X15558232Y-14189223D02*
X15558232Y-14246366D01*
X15558232Y-14246366D02*
X15548708Y-14265413D01*
X15548708Y-14265413D02*
X15539184Y-14274937D01*
X15539184Y-14274937D02*
X15520137Y-14284461D01*
X15520137Y-14284461D02*
X15482041Y-14284461D01*
X15482041Y-14284461D02*
X15462994Y-14274937D01*
X15643946Y-14265413D02*
X15653470Y-14274937D01*
X15653470Y-14274937D02*
X15643946Y-14284461D01*
X15643946Y-14284461D02*
X15634422Y-14274937D01*
X15634422Y-14274937D02*
X15643946Y-14265413D01*
X15643946Y-14265413D02*
X15643946Y-14284461D01*
X15643946Y-14160651D02*
X15653470Y-14170175D01*
X15653470Y-14170175D02*
X15643946Y-14179699D01*
X15643946Y-14179699D02*
X15634422Y-14170175D01*
X15634422Y-14170175D02*
X15643946Y-14160651D01*
X15643946Y-14160651D02*
X15643946Y-14179699D01*
X13811741Y-14512977D02*
X14011741Y-14712977D01*
X14011741Y-14512977D02*
X13811741Y-14712977D01*
X14253470Y-14504461D02*
X14377279Y-14504461D01*
X14377279Y-14504461D02*
X14310613Y-14580651D01*
X14310613Y-14580651D02*
X14339184Y-14580651D01*
X14339184Y-14580651D02*
X14358232Y-14590175D01*
X14358232Y-14590175D02*
X14367756Y-14599699D01*
X14367756Y-14599699D02*
X14377279Y-14618747D01*
X14377279Y-14618747D02*
X14377279Y-14666366D01*
X14377279Y-14666366D02*
X14367756Y-14685413D01*
X14367756Y-14685413D02*
X14358232Y-14694937D01*
X14358232Y-14694937D02*
X14339184Y-14704461D01*
X14339184Y-14704461D02*
X14282041Y-14704461D01*
X14282041Y-14704461D02*
X14262994Y-14694937D01*
X14262994Y-14694937D02*
X14253470Y-14685413D01*
X14462994Y-14685413D02*
X14472518Y-14694937D01*
X14472518Y-14694937D02*
X14462994Y-14704461D01*
X14462994Y-14704461D02*
X14453470Y-14694937D01*
X14453470Y-14694937D02*
X14462994Y-14685413D01*
X14462994Y-14685413D02*
X14462994Y-14704461D01*
X14548708Y-14523508D02*
X14558232Y-14513985D01*
X14558232Y-14513985D02*
X14577279Y-14504461D01*
X14577279Y-14504461D02*
X14624899Y-14504461D01*
X14624899Y-14504461D02*
X14643946Y-14513985D01*
X14643946Y-14513985D02*
X14653470Y-14523508D01*
X14653470Y-14523508D02*
X14662994Y-14542556D01*
X14662994Y-14542556D02*
X14662994Y-14561604D01*
X14662994Y-14561604D02*
X14653470Y-14590175D01*
X14653470Y-14590175D02*
X14539184Y-14704461D01*
X14539184Y-14704461D02*
X14662994Y-14704461D01*
X14786803Y-14504461D02*
X14805851Y-14504461D01*
X14805851Y-14504461D02*
X14824899Y-14513985D01*
X14824899Y-14513985D02*
X14834422Y-14523508D01*
X14834422Y-14523508D02*
X14843946Y-14542556D01*
X14843946Y-14542556D02*
X14853470Y-14580651D01*
X14853470Y-14580651D02*
X14853470Y-14628270D01*
X14853470Y-14628270D02*
X14843946Y-14666366D01*
X14843946Y-14666366D02*
X14834422Y-14685413D01*
X14834422Y-14685413D02*
X14824899Y-14694937D01*
X14824899Y-14694937D02*
X14805851Y-14704461D01*
X14805851Y-14704461D02*
X14786803Y-14704461D01*
X14786803Y-14704461D02*
X14767756Y-14694937D01*
X14767756Y-14694937D02*
X14758232Y-14685413D01*
X14758232Y-14685413D02*
X14748708Y-14666366D01*
X14748708Y-14666366D02*
X14739184Y-14628270D01*
X14739184Y-14628270D02*
X14739184Y-14580651D01*
X14739184Y-14580651D02*
X14748708Y-14542556D01*
X14748708Y-14542556D02*
X14758232Y-14523508D01*
X14758232Y-14523508D02*
X14767756Y-14513985D01*
X14767756Y-14513985D02*
X14786803Y-14504461D01*
X14977279Y-14504461D02*
X14996327Y-14504461D01*
X14996327Y-14504461D02*
X15015375Y-14513985D01*
X15015375Y-14513985D02*
X15024899Y-14523508D01*
X15024899Y-14523508D02*
X15034422Y-14542556D01*
X15034422Y-14542556D02*
X15043946Y-14580651D01*
X15043946Y-14580651D02*
X15043946Y-14628270D01*
X15043946Y-14628270D02*
X15034422Y-14666366D01*
X15034422Y-14666366D02*
X15024899Y-14685413D01*
X15024899Y-14685413D02*
X15015375Y-14694937D01*
X15015375Y-14694937D02*
X14996327Y-14704461D01*
X14996327Y-14704461D02*
X14977279Y-14704461D01*
X14977279Y-14704461D02*
X14958232Y-14694937D01*
X14958232Y-14694937D02*
X14948708Y-14685413D01*
X14948708Y-14685413D02*
X14939184Y-14666366D01*
X14939184Y-14666366D02*
X14929660Y-14628270D01*
X14929660Y-14628270D02*
X14929660Y-14580651D01*
X14929660Y-14580651D02*
X14939184Y-14542556D01*
X14939184Y-14542556D02*
X14948708Y-14523508D01*
X14948708Y-14523508D02*
X14958232Y-14513985D01*
X14958232Y-14513985D02*
X14977279Y-14504461D01*
X15129660Y-14704461D02*
X15129660Y-14571127D01*
X15129660Y-14590175D02*
X15139184Y-14580651D01*
X15139184Y-14580651D02*
X15158232Y-14571127D01*
X15158232Y-14571127D02*
X15186803Y-14571127D01*
X15186803Y-14571127D02*
X15205851Y-14580651D01*
X15205851Y-14580651D02*
X15215375Y-14599699D01*
X15215375Y-14599699D02*
X15215375Y-14704461D01*
X15215375Y-14599699D02*
X15224899Y-14580651D01*
X15224899Y-14580651D02*
X15243946Y-14571127D01*
X15243946Y-14571127D02*
X15272518Y-14571127D01*
X15272518Y-14571127D02*
X15291565Y-14580651D01*
X15291565Y-14580651D02*
X15301089Y-14599699D01*
X15301089Y-14599699D02*
X15301089Y-14704461D01*
X15396327Y-14704461D02*
X15396327Y-14571127D01*
X15396327Y-14590175D02*
X15405851Y-14580651D01*
X15405851Y-14580651D02*
X15424899Y-14571127D01*
X15424899Y-14571127D02*
X15453470Y-14571127D01*
X15453470Y-14571127D02*
X15472518Y-14580651D01*
X15472518Y-14580651D02*
X15482041Y-14599699D01*
X15482041Y-14599699D02*
X15482041Y-14704461D01*
X15482041Y-14599699D02*
X15491565Y-14580651D01*
X15491565Y-14580651D02*
X15510613Y-14571127D01*
X15510613Y-14571127D02*
X15539184Y-14571127D01*
X15539184Y-14571127D02*
X15558232Y-14580651D01*
X15558232Y-14580651D02*
X15567756Y-14599699D01*
X15567756Y-14599699D02*
X15567756Y-14704461D01*
X15958232Y-14494937D02*
X15786803Y-14752080D01*
X16215375Y-14504461D02*
X16234423Y-14504461D01*
X16234423Y-14504461D02*
X16253470Y-14513985D01*
X16253470Y-14513985D02*
X16262994Y-14523508D01*
X16262994Y-14523508D02*
X16272518Y-14542556D01*
X16272518Y-14542556D02*
X16282042Y-14580651D01*
X16282042Y-14580651D02*
X16282042Y-14628270D01*
X16282042Y-14628270D02*
X16272518Y-14666366D01*
X16272518Y-14666366D02*
X16262994Y-14685413D01*
X16262994Y-14685413D02*
X16253470Y-14694937D01*
X16253470Y-14694937D02*
X16234423Y-14704461D01*
X16234423Y-14704461D02*
X16215375Y-14704461D01*
X16215375Y-14704461D02*
X16196327Y-14694937D01*
X16196327Y-14694937D02*
X16186803Y-14685413D01*
X16186803Y-14685413D02*
X16177280Y-14666366D01*
X16177280Y-14666366D02*
X16167756Y-14628270D01*
X16167756Y-14628270D02*
X16167756Y-14580651D01*
X16167756Y-14580651D02*
X16177280Y-14542556D01*
X16177280Y-14542556D02*
X16186803Y-14523508D01*
X16186803Y-14523508D02*
X16196327Y-14513985D01*
X16196327Y-14513985D02*
X16215375Y-14504461D01*
X16367756Y-14685413D02*
X16377280Y-14694937D01*
X16377280Y-14694937D02*
X16367756Y-14704461D01*
X16367756Y-14704461D02*
X16358232Y-14694937D01*
X16358232Y-14694937D02*
X16367756Y-14685413D01*
X16367756Y-14685413D02*
X16367756Y-14704461D01*
X16567756Y-14704461D02*
X16453470Y-14704461D01*
X16510613Y-14704461D02*
X16510613Y-14504461D01*
X16510613Y-14504461D02*
X16491565Y-14533032D01*
X16491565Y-14533032D02*
X16472518Y-14552080D01*
X16472518Y-14552080D02*
X16453470Y-14561604D01*
X16643946Y-14523508D02*
X16653470Y-14513985D01*
X16653470Y-14513985D02*
X16672518Y-14504461D01*
X16672518Y-14504461D02*
X16720137Y-14504461D01*
X16720137Y-14504461D02*
X16739184Y-14513985D01*
X16739184Y-14513985D02*
X16748708Y-14523508D01*
X16748708Y-14523508D02*
X16758232Y-14542556D01*
X16758232Y-14542556D02*
X16758232Y-14561604D01*
X16758232Y-14561604D02*
X16748708Y-14590175D01*
X16748708Y-14590175D02*
X16634423Y-14704461D01*
X16634423Y-14704461D02*
X16758232Y-14704461D01*
X16929661Y-14504461D02*
X16891565Y-14504461D01*
X16891565Y-14504461D02*
X16872518Y-14513985D01*
X16872518Y-14513985D02*
X16862994Y-14523508D01*
X16862994Y-14523508D02*
X16843946Y-14552080D01*
X16843946Y-14552080D02*
X16834423Y-14590175D01*
X16834423Y-14590175D02*
X16834423Y-14666366D01*
X16834423Y-14666366D02*
X16843946Y-14685413D01*
X16843946Y-14685413D02*
X16853470Y-14694937D01*
X16853470Y-14694937D02*
X16872518Y-14704461D01*
X16872518Y-14704461D02*
X16910613Y-14704461D01*
X16910613Y-14704461D02*
X16929661Y-14694937D01*
X16929661Y-14694937D02*
X16939185Y-14685413D01*
X16939185Y-14685413D02*
X16948708Y-14666366D01*
X16948708Y-14666366D02*
X16948708Y-14618747D01*
X16948708Y-14618747D02*
X16939185Y-14599699D01*
X16939185Y-14599699D02*
X16929661Y-14590175D01*
X16929661Y-14590175D02*
X16910613Y-14580651D01*
X16910613Y-14580651D02*
X16872518Y-14580651D01*
X16872518Y-14580651D02*
X16853470Y-14590175D01*
X16853470Y-14590175D02*
X16843946Y-14599699D01*
X16843946Y-14599699D02*
X16834423Y-14618747D01*
X17072518Y-14504461D02*
X17091566Y-14504461D01*
X17091566Y-14504461D02*
X17110613Y-14513985D01*
X17110613Y-14513985D02*
X17120137Y-14523508D01*
X17120137Y-14523508D02*
X17129661Y-14542556D01*
X17129661Y-14542556D02*
X17139185Y-14580651D01*
X17139185Y-14580651D02*
X17139185Y-14628270D01*
X17139185Y-14628270D02*
X17129661Y-14666366D01*
X17129661Y-14666366D02*
X17120137Y-14685413D01*
X17120137Y-14685413D02*
X17110613Y-14694937D01*
X17110613Y-14694937D02*
X17091566Y-14704461D01*
X17091566Y-14704461D02*
X17072518Y-14704461D01*
X17072518Y-14704461D02*
X17053470Y-14694937D01*
X17053470Y-14694937D02*
X17043946Y-14685413D01*
X17043946Y-14685413D02*
X17034423Y-14666366D01*
X17034423Y-14666366D02*
X17024899Y-14628270D01*
X17024899Y-14628270D02*
X17024899Y-14580651D01*
X17024899Y-14580651D02*
X17034423Y-14542556D01*
X17034423Y-14542556D02*
X17043946Y-14523508D01*
X17043946Y-14523508D02*
X17053470Y-14513985D01*
X17053470Y-14513985D02*
X17072518Y-14504461D01*
X17215375Y-14504461D02*
X17215375Y-14542556D01*
X17291566Y-14504461D02*
X17291566Y-14542556D01*
X17586804Y-14780651D02*
X17577280Y-14771127D01*
X17577280Y-14771127D02*
X17558232Y-14742556D01*
X17558232Y-14742556D02*
X17548708Y-14723508D01*
X17548708Y-14723508D02*
X17539185Y-14694937D01*
X17539185Y-14694937D02*
X17529661Y-14647318D01*
X17529661Y-14647318D02*
X17529661Y-14609223D01*
X17529661Y-14609223D02*
X17539185Y-14561604D01*
X17539185Y-14561604D02*
X17548708Y-14533032D01*
X17548708Y-14533032D02*
X17558232Y-14513985D01*
X17558232Y-14513985D02*
X17577280Y-14485413D01*
X17577280Y-14485413D02*
X17586804Y-14475889D01*
X17748708Y-14571127D02*
X17748708Y-14704461D01*
X17701089Y-14494937D02*
X17653470Y-14637794D01*
X17653470Y-14637794D02*
X17777280Y-14637794D01*
X18005851Y-14704461D02*
X18005851Y-14504461D01*
X18091566Y-14704461D02*
X18091566Y-14599699D01*
X18091566Y-14599699D02*
X18082042Y-14580651D01*
X18082042Y-14580651D02*
X18062994Y-14571127D01*
X18062994Y-14571127D02*
X18034423Y-14571127D01*
X18034423Y-14571127D02*
X18015375Y-14580651D01*
X18015375Y-14580651D02*
X18005851Y-14590175D01*
X18215375Y-14704461D02*
X18196328Y-14694937D01*
X18196328Y-14694937D02*
X18186804Y-14685413D01*
X18186804Y-14685413D02*
X18177280Y-14666366D01*
X18177280Y-14666366D02*
X18177280Y-14609223D01*
X18177280Y-14609223D02*
X18186804Y-14590175D01*
X18186804Y-14590175D02*
X18196328Y-14580651D01*
X18196328Y-14580651D02*
X18215375Y-14571127D01*
X18215375Y-14571127D02*
X18243947Y-14571127D01*
X18243947Y-14571127D02*
X18262994Y-14580651D01*
X18262994Y-14580651D02*
X18272518Y-14590175D01*
X18272518Y-14590175D02*
X18282042Y-14609223D01*
X18282042Y-14609223D02*
X18282042Y-14666366D01*
X18282042Y-14666366D02*
X18272518Y-14685413D01*
X18272518Y-14685413D02*
X18262994Y-14694937D01*
X18262994Y-14694937D02*
X18243947Y-14704461D01*
X18243947Y-14704461D02*
X18215375Y-14704461D01*
X18396328Y-14704461D02*
X18377280Y-14694937D01*
X18377280Y-14694937D02*
X18367756Y-14675889D01*
X18367756Y-14675889D02*
X18367756Y-14504461D01*
X18548709Y-14694937D02*
X18529661Y-14704461D01*
X18529661Y-14704461D02*
X18491566Y-14704461D01*
X18491566Y-14704461D02*
X18472518Y-14694937D01*
X18472518Y-14694937D02*
X18462994Y-14675889D01*
X18462994Y-14675889D02*
X18462994Y-14599699D01*
X18462994Y-14599699D02*
X18472518Y-14580651D01*
X18472518Y-14580651D02*
X18491566Y-14571127D01*
X18491566Y-14571127D02*
X18529661Y-14571127D01*
X18529661Y-14571127D02*
X18548709Y-14580651D01*
X18548709Y-14580651D02*
X18558232Y-14599699D01*
X18558232Y-14599699D02*
X18558232Y-14618747D01*
X18558232Y-14618747D02*
X18462994Y-14637794D01*
X18634423Y-14694937D02*
X18653470Y-14704461D01*
X18653470Y-14704461D02*
X18691566Y-14704461D01*
X18691566Y-14704461D02*
X18710613Y-14694937D01*
X18710613Y-14694937D02*
X18720137Y-14675889D01*
X18720137Y-14675889D02*
X18720137Y-14666366D01*
X18720137Y-14666366D02*
X18710613Y-14647318D01*
X18710613Y-14647318D02*
X18691566Y-14637794D01*
X18691566Y-14637794D02*
X18662994Y-14637794D01*
X18662994Y-14637794D02*
X18643947Y-14628270D01*
X18643947Y-14628270D02*
X18634423Y-14609223D01*
X18634423Y-14609223D02*
X18634423Y-14599699D01*
X18634423Y-14599699D02*
X18643947Y-14580651D01*
X18643947Y-14580651D02*
X18662994Y-14571127D01*
X18662994Y-14571127D02*
X18691566Y-14571127D01*
X18691566Y-14571127D02*
X18710613Y-14580651D01*
X18786804Y-14780651D02*
X18796328Y-14771127D01*
X18796328Y-14771127D02*
X18815375Y-14742556D01*
X18815375Y-14742556D02*
X18824899Y-14723508D01*
X18824899Y-14723508D02*
X18834423Y-14694937D01*
X18834423Y-14694937D02*
X18843947Y-14647318D01*
X18843947Y-14647318D02*
X18843947Y-14609223D01*
X18843947Y-14609223D02*
X18834423Y-14561604D01*
X18834423Y-14561604D02*
X18824899Y-14533032D01*
X18824899Y-14533032D02*
X18815375Y-14513985D01*
X18815375Y-14513985D02*
X18796328Y-14485413D01*
X18796328Y-14485413D02*
X18786804Y-14475889D01*
X19148709Y-14780651D02*
X19139185Y-14771127D01*
X19139185Y-14771127D02*
X19120137Y-14742556D01*
X19120137Y-14742556D02*
X19110613Y-14723508D01*
X19110613Y-14723508D02*
X19101090Y-14694937D01*
X19101090Y-14694937D02*
X19091566Y-14647318D01*
X19091566Y-14647318D02*
X19091566Y-14609223D01*
X19091566Y-14609223D02*
X19101090Y-14561604D01*
X19101090Y-14561604D02*
X19110613Y-14533032D01*
X19110613Y-14533032D02*
X19120137Y-14513985D01*
X19120137Y-14513985D02*
X19139185Y-14485413D01*
X19139185Y-14485413D02*
X19148709Y-14475889D01*
X19224899Y-14571127D02*
X19224899Y-14704461D01*
X19224899Y-14590175D02*
X19234423Y-14580651D01*
X19234423Y-14580651D02*
X19253470Y-14571127D01*
X19253470Y-14571127D02*
X19282042Y-14571127D01*
X19282042Y-14571127D02*
X19301090Y-14580651D01*
X19301090Y-14580651D02*
X19310613Y-14599699D01*
X19310613Y-14599699D02*
X19310613Y-14704461D01*
X19434423Y-14704461D02*
X19415375Y-14694937D01*
X19415375Y-14694937D02*
X19405851Y-14685413D01*
X19405851Y-14685413D02*
X19396328Y-14666366D01*
X19396328Y-14666366D02*
X19396328Y-14609223D01*
X19396328Y-14609223D02*
X19405851Y-14590175D01*
X19405851Y-14590175D02*
X19415375Y-14580651D01*
X19415375Y-14580651D02*
X19434423Y-14571127D01*
X19434423Y-14571127D02*
X19462994Y-14571127D01*
X19462994Y-14571127D02*
X19482042Y-14580651D01*
X19482042Y-14580651D02*
X19491566Y-14590175D01*
X19491566Y-14590175D02*
X19501090Y-14609223D01*
X19501090Y-14609223D02*
X19501090Y-14666366D01*
X19501090Y-14666366D02*
X19491566Y-14685413D01*
X19491566Y-14685413D02*
X19482042Y-14694937D01*
X19482042Y-14694937D02*
X19462994Y-14704461D01*
X19462994Y-14704461D02*
X19434423Y-14704461D01*
X19558232Y-14571127D02*
X19634423Y-14571127D01*
X19586804Y-14504461D02*
X19586804Y-14675889D01*
X19586804Y-14675889D02*
X19596328Y-14694937D01*
X19596328Y-14694937D02*
X19615375Y-14704461D01*
X19615375Y-14704461D02*
X19634423Y-14704461D01*
X19853471Y-14571127D02*
X19853471Y-14771127D01*
X19853471Y-14580651D02*
X19872518Y-14571127D01*
X19872518Y-14571127D02*
X19910613Y-14571127D01*
X19910613Y-14571127D02*
X19929661Y-14580651D01*
X19929661Y-14580651D02*
X19939185Y-14590175D01*
X19939185Y-14590175D02*
X19948709Y-14609223D01*
X19948709Y-14609223D02*
X19948709Y-14666366D01*
X19948709Y-14666366D02*
X19939185Y-14685413D01*
X19939185Y-14685413D02*
X19929661Y-14694937D01*
X19929661Y-14694937D02*
X19910613Y-14704461D01*
X19910613Y-14704461D02*
X19872518Y-14704461D01*
X19872518Y-14704461D02*
X19853471Y-14694937D01*
X20062994Y-14704461D02*
X20043947Y-14694937D01*
X20043947Y-14694937D02*
X20034423Y-14675889D01*
X20034423Y-14675889D02*
X20034423Y-14504461D01*
X20224899Y-14704461D02*
X20224899Y-14599699D01*
X20224899Y-14599699D02*
X20215375Y-14580651D01*
X20215375Y-14580651D02*
X20196328Y-14571127D01*
X20196328Y-14571127D02*
X20158232Y-14571127D01*
X20158232Y-14571127D02*
X20139185Y-14580651D01*
X20224899Y-14694937D02*
X20205852Y-14704461D01*
X20205852Y-14704461D02*
X20158232Y-14704461D01*
X20158232Y-14704461D02*
X20139185Y-14694937D01*
X20139185Y-14694937D02*
X20129661Y-14675889D01*
X20129661Y-14675889D02*
X20129661Y-14656842D01*
X20129661Y-14656842D02*
X20139185Y-14637794D01*
X20139185Y-14637794D02*
X20158232Y-14628270D01*
X20158232Y-14628270D02*
X20205852Y-14628270D01*
X20205852Y-14628270D02*
X20224899Y-14618747D01*
X20291566Y-14571127D02*
X20367756Y-14571127D01*
X20320137Y-14504461D02*
X20320137Y-14675889D01*
X20320137Y-14675889D02*
X20329661Y-14694937D01*
X20329661Y-14694937D02*
X20348709Y-14704461D01*
X20348709Y-14704461D02*
X20367756Y-14704461D01*
X20510613Y-14694937D02*
X20491566Y-14704461D01*
X20491566Y-14704461D02*
X20453471Y-14704461D01*
X20453471Y-14704461D02*
X20434423Y-14694937D01*
X20434423Y-14694937D02*
X20424899Y-14675889D01*
X20424899Y-14675889D02*
X20424899Y-14599699D01*
X20424899Y-14599699D02*
X20434423Y-14580651D01*
X20434423Y-14580651D02*
X20453471Y-14571127D01*
X20453471Y-14571127D02*
X20491566Y-14571127D01*
X20491566Y-14571127D02*
X20510613Y-14580651D01*
X20510613Y-14580651D02*
X20520137Y-14599699D01*
X20520137Y-14599699D02*
X20520137Y-14618747D01*
X20520137Y-14618747D02*
X20424899Y-14637794D01*
X20691566Y-14704461D02*
X20691566Y-14504461D01*
X20691566Y-14694937D02*
X20672518Y-14704461D01*
X20672518Y-14704461D02*
X20634423Y-14704461D01*
X20634423Y-14704461D02*
X20615375Y-14694937D01*
X20615375Y-14694937D02*
X20605852Y-14685413D01*
X20605852Y-14685413D02*
X20596328Y-14666366D01*
X20596328Y-14666366D02*
X20596328Y-14609223D01*
X20596328Y-14609223D02*
X20605852Y-14590175D01*
X20605852Y-14590175D02*
X20615375Y-14580651D01*
X20615375Y-14580651D02*
X20634423Y-14571127D01*
X20634423Y-14571127D02*
X20672518Y-14571127D01*
X20672518Y-14571127D02*
X20691566Y-14580651D01*
X20767756Y-14780651D02*
X20777280Y-14771127D01*
X20777280Y-14771127D02*
X20796328Y-14742556D01*
X20796328Y-14742556D02*
X20805852Y-14723508D01*
X20805852Y-14723508D02*
X20815375Y-14694937D01*
X20815375Y-14694937D02*
X20824899Y-14647318D01*
X20824899Y-14647318D02*
X20824899Y-14609223D01*
X20824899Y-14609223D02*
X20815375Y-14561604D01*
X20815375Y-14561604D02*
X20805852Y-14533032D01*
X20805852Y-14533032D02*
X20796328Y-14513985D01*
X20796328Y-14513985D02*
X20777280Y-14485413D01*
X20777280Y-14485413D02*
X20767756Y-14475889D01*
M02*
