%TF.GenerationSoftware,KiCad,Pcbnew,9.0.1*%
%TF.CreationDate,2025-06-05T12:59:36-07:00*%
%TF.ProjectId,chop_battery_board,63686f70-5f62-4617-9474-6572795f626f,rev?*%
%TF.SameCoordinates,Original*%
%TF.FileFunction,Drillmap*%
%TF.FilePolarity,Positive*%
%FSLAX45Y45*%
G04 Gerber Fmt 4.5, Leading zero omitted, Abs format (unit mm)*
G04 Created by KiCad (PCBNEW 9.0.1) date 2025-06-05 12:59:36*
%MOMM*%
%LPD*%
G01*
G04 APERTURE LIST*
%ADD10C,0.100000*%
%ADD11C,0.200000*%
%ADD12C,0.160000*%
G04 APERTURE END LIST*
D10*
X14016741Y-10339977D02*
X21102341Y-10339977D01*
X21102341Y-13967977D01*
X14016741Y-13967977D01*
X14016741Y-10339977D01*
D11*
D10*
X17130000Y-12530000D02*
X17170000Y-12570000D01*
X17170000Y-12530000D02*
X17130000Y-12570000D01*
X18180000Y-11980000D02*
X18220000Y-12020000D01*
X18220000Y-11980000D02*
X18180000Y-12020000D01*
X18330000Y-11630000D02*
X18370000Y-11670000D01*
X18370000Y-11630000D02*
X18330000Y-11670000D01*
X16087500Y-11045000D02*
G75*
G02*
X16012500Y-11045000I-37500J0D01*
G01*
X16012500Y-11045000D02*
G75*
G02*
X16087500Y-11045000I37500J0D01*
G01*
X16287500Y-11045000D02*
G75*
G02*
X16212500Y-11045000I-37500J0D01*
G01*
X16212500Y-11045000D02*
G75*
G02*
X16287500Y-11045000I37500J0D01*
G01*
X15708500Y-11692971D02*
X15708500Y-11792971D01*
X15658500Y-11742971D02*
X15758500Y-11742971D01*
X15708500Y-12162971D02*
X15708500Y-12262971D01*
X15658500Y-12212971D02*
X15758500Y-12212971D01*
X15708500Y-12632971D02*
X15708500Y-12732971D01*
X15658500Y-12682971D02*
X15758500Y-12682971D01*
X16191500Y-11692971D02*
X16191500Y-11792971D01*
X16141500Y-11742971D02*
X16241500Y-11742971D01*
X16191500Y-12162971D02*
X16191500Y-12262971D01*
X16141500Y-12212971D02*
X16241500Y-12212971D01*
X16191500Y-12632971D02*
X16191500Y-12732971D01*
X16141500Y-12682971D02*
X16241500Y-12682971D01*
X20346750Y-11875000D02*
X20346750Y-11975000D01*
X20296750Y-11925000D02*
X20396750Y-11925000D01*
X20346750Y-12125000D02*
X20346750Y-12225000D01*
X20296750Y-12175000D02*
X20396750Y-12175000D01*
D12*
X18511569Y-12886569D02*
X18511569Y-12773431D01*
X18398431Y-12773431D01*
X18398431Y-12886569D01*
X18511569Y-12886569D01*
X18981569Y-12586569D02*
X18981569Y-12473431D01*
X18868431Y-12473431D01*
X18868431Y-12586569D01*
X18981569Y-12586569D01*
X18981569Y-13186569D02*
X18981569Y-13073431D01*
X18868431Y-13073431D01*
X18868431Y-13186569D01*
X18981569Y-13186569D01*
D11*
X14272518Y-14284461D02*
X14272518Y-14084461D01*
X14272518Y-14084461D02*
X14320137Y-14084461D01*
X14320137Y-14084461D02*
X14348708Y-14093985D01*
X14348708Y-14093985D02*
X14367756Y-14113032D01*
X14367756Y-14113032D02*
X14377279Y-14132080D01*
X14377279Y-14132080D02*
X14386803Y-14170175D01*
X14386803Y-14170175D02*
X14386803Y-14198747D01*
X14386803Y-14198747D02*
X14377279Y-14236842D01*
X14377279Y-14236842D02*
X14367756Y-14255889D01*
X14367756Y-14255889D02*
X14348708Y-14274937D01*
X14348708Y-14274937D02*
X14320137Y-14284461D01*
X14320137Y-14284461D02*
X14272518Y-14284461D01*
X14472518Y-14284461D02*
X14472518Y-14151127D01*
X14472518Y-14189223D02*
X14482041Y-14170175D01*
X14482041Y-14170175D02*
X14491565Y-14160651D01*
X14491565Y-14160651D02*
X14510613Y-14151127D01*
X14510613Y-14151127D02*
X14529660Y-14151127D01*
X14596327Y-14284461D02*
X14596327Y-14151127D01*
X14596327Y-14084461D02*
X14586803Y-14093985D01*
X14586803Y-14093985D02*
X14596327Y-14103508D01*
X14596327Y-14103508D02*
X14605851Y-14093985D01*
X14605851Y-14093985D02*
X14596327Y-14084461D01*
X14596327Y-14084461D02*
X14596327Y-14103508D01*
X14720137Y-14284461D02*
X14701089Y-14274937D01*
X14701089Y-14274937D02*
X14691565Y-14255889D01*
X14691565Y-14255889D02*
X14691565Y-14084461D01*
X14824898Y-14284461D02*
X14805851Y-14274937D01*
X14805851Y-14274937D02*
X14796327Y-14255889D01*
X14796327Y-14255889D02*
X14796327Y-14084461D01*
X15053470Y-14284461D02*
X15053470Y-14084461D01*
X15053470Y-14084461D02*
X15120137Y-14227318D01*
X15120137Y-14227318D02*
X15186803Y-14084461D01*
X15186803Y-14084461D02*
X15186803Y-14284461D01*
X15367756Y-14284461D02*
X15367756Y-14179699D01*
X15367756Y-14179699D02*
X15358232Y-14160651D01*
X15358232Y-14160651D02*
X15339184Y-14151127D01*
X15339184Y-14151127D02*
X15301089Y-14151127D01*
X15301089Y-14151127D02*
X15282041Y-14160651D01*
X15367756Y-14274937D02*
X15348708Y-14284461D01*
X15348708Y-14284461D02*
X15301089Y-14284461D01*
X15301089Y-14284461D02*
X15282041Y-14274937D01*
X15282041Y-14274937D02*
X15272518Y-14255889D01*
X15272518Y-14255889D02*
X15272518Y-14236842D01*
X15272518Y-14236842D02*
X15282041Y-14217794D01*
X15282041Y-14217794D02*
X15301089Y-14208270D01*
X15301089Y-14208270D02*
X15348708Y-14208270D01*
X15348708Y-14208270D02*
X15367756Y-14198747D01*
X15462994Y-14151127D02*
X15462994Y-14351127D01*
X15462994Y-14160651D02*
X15482041Y-14151127D01*
X15482041Y-14151127D02*
X15520137Y-14151127D01*
X15520137Y-14151127D02*
X15539184Y-14160651D01*
X15539184Y-14160651D02*
X15548708Y-14170175D01*
X15548708Y-14170175D02*
X15558232Y-14189223D01*
X15558232Y-14189223D02*
X15558232Y-14246366D01*
X15558232Y-14246366D02*
X15548708Y-14265413D01*
X15548708Y-14265413D02*
X15539184Y-14274937D01*
X15539184Y-14274937D02*
X15520137Y-14284461D01*
X15520137Y-14284461D02*
X15482041Y-14284461D01*
X15482041Y-14284461D02*
X15462994Y-14274937D01*
X15643946Y-14265413D02*
X15653470Y-14274937D01*
X15653470Y-14274937D02*
X15643946Y-14284461D01*
X15643946Y-14284461D02*
X15634422Y-14274937D01*
X15634422Y-14274937D02*
X15643946Y-14265413D01*
X15643946Y-14265413D02*
X15643946Y-14284461D01*
X15643946Y-14160651D02*
X15653470Y-14170175D01*
X15653470Y-14170175D02*
X15643946Y-14179699D01*
X15643946Y-14179699D02*
X15634422Y-14170175D01*
X15634422Y-14170175D02*
X15643946Y-14160651D01*
X15643946Y-14160651D02*
X15643946Y-14179699D01*
D10*
X13971741Y-14592977D02*
X14011741Y-14632977D01*
X14011741Y-14592977D02*
X13971741Y-14632977D01*
D11*
X14310613Y-14504461D02*
X14329660Y-14504461D01*
X14329660Y-14504461D02*
X14348708Y-14513985D01*
X14348708Y-14513985D02*
X14358232Y-14523508D01*
X14358232Y-14523508D02*
X14367756Y-14542556D01*
X14367756Y-14542556D02*
X14377279Y-14580651D01*
X14377279Y-14580651D02*
X14377279Y-14628270D01*
X14377279Y-14628270D02*
X14367756Y-14666366D01*
X14367756Y-14666366D02*
X14358232Y-14685413D01*
X14358232Y-14685413D02*
X14348708Y-14694937D01*
X14348708Y-14694937D02*
X14329660Y-14704461D01*
X14329660Y-14704461D02*
X14310613Y-14704461D01*
X14310613Y-14704461D02*
X14291565Y-14694937D01*
X14291565Y-14694937D02*
X14282041Y-14685413D01*
X14282041Y-14685413D02*
X14272518Y-14666366D01*
X14272518Y-14666366D02*
X14262994Y-14628270D01*
X14262994Y-14628270D02*
X14262994Y-14580651D01*
X14262994Y-14580651D02*
X14272518Y-14542556D01*
X14272518Y-14542556D02*
X14282041Y-14523508D01*
X14282041Y-14523508D02*
X14291565Y-14513985D01*
X14291565Y-14513985D02*
X14310613Y-14504461D01*
X14462994Y-14685413D02*
X14472518Y-14694937D01*
X14472518Y-14694937D02*
X14462994Y-14704461D01*
X14462994Y-14704461D02*
X14453470Y-14694937D01*
X14453470Y-14694937D02*
X14462994Y-14685413D01*
X14462994Y-14685413D02*
X14462994Y-14704461D01*
X14643946Y-14571127D02*
X14643946Y-14704461D01*
X14596327Y-14494937D02*
X14548708Y-14637794D01*
X14548708Y-14637794D02*
X14672518Y-14637794D01*
X14786803Y-14504461D02*
X14805851Y-14504461D01*
X14805851Y-14504461D02*
X14824899Y-14513985D01*
X14824899Y-14513985D02*
X14834422Y-14523508D01*
X14834422Y-14523508D02*
X14843946Y-14542556D01*
X14843946Y-14542556D02*
X14853470Y-14580651D01*
X14853470Y-14580651D02*
X14853470Y-14628270D01*
X14853470Y-14628270D02*
X14843946Y-14666366D01*
X14843946Y-14666366D02*
X14834422Y-14685413D01*
X14834422Y-14685413D02*
X14824899Y-14694937D01*
X14824899Y-14694937D02*
X14805851Y-14704461D01*
X14805851Y-14704461D02*
X14786803Y-14704461D01*
X14786803Y-14704461D02*
X14767756Y-14694937D01*
X14767756Y-14694937D02*
X14758232Y-14685413D01*
X14758232Y-14685413D02*
X14748708Y-14666366D01*
X14748708Y-14666366D02*
X14739184Y-14628270D01*
X14739184Y-14628270D02*
X14739184Y-14580651D01*
X14739184Y-14580651D02*
X14748708Y-14542556D01*
X14748708Y-14542556D02*
X14758232Y-14523508D01*
X14758232Y-14523508D02*
X14767756Y-14513985D01*
X14767756Y-14513985D02*
X14786803Y-14504461D01*
X14977279Y-14504461D02*
X14996327Y-14504461D01*
X14996327Y-14504461D02*
X15015375Y-14513985D01*
X15015375Y-14513985D02*
X15024899Y-14523508D01*
X15024899Y-14523508D02*
X15034422Y-14542556D01*
X15034422Y-14542556D02*
X15043946Y-14580651D01*
X15043946Y-14580651D02*
X15043946Y-14628270D01*
X15043946Y-14628270D02*
X15034422Y-14666366D01*
X15034422Y-14666366D02*
X15024899Y-14685413D01*
X15024899Y-14685413D02*
X15015375Y-14694937D01*
X15015375Y-14694937D02*
X14996327Y-14704461D01*
X14996327Y-14704461D02*
X14977279Y-14704461D01*
X14977279Y-14704461D02*
X14958232Y-14694937D01*
X14958232Y-14694937D02*
X14948708Y-14685413D01*
X14948708Y-14685413D02*
X14939184Y-14666366D01*
X14939184Y-14666366D02*
X14929660Y-14628270D01*
X14929660Y-14628270D02*
X14929660Y-14580651D01*
X14929660Y-14580651D02*
X14939184Y-14542556D01*
X14939184Y-14542556D02*
X14948708Y-14523508D01*
X14948708Y-14523508D02*
X14958232Y-14513985D01*
X14958232Y-14513985D02*
X14977279Y-14504461D01*
X15129660Y-14704461D02*
X15129660Y-14571127D01*
X15129660Y-14590175D02*
X15139184Y-14580651D01*
X15139184Y-14580651D02*
X15158232Y-14571127D01*
X15158232Y-14571127D02*
X15186803Y-14571127D01*
X15186803Y-14571127D02*
X15205851Y-14580651D01*
X15205851Y-14580651D02*
X15215375Y-14599699D01*
X15215375Y-14599699D02*
X15215375Y-14704461D01*
X15215375Y-14599699D02*
X15224899Y-14580651D01*
X15224899Y-14580651D02*
X15243946Y-14571127D01*
X15243946Y-14571127D02*
X15272518Y-14571127D01*
X15272518Y-14571127D02*
X15291565Y-14580651D01*
X15291565Y-14580651D02*
X15301089Y-14599699D01*
X15301089Y-14599699D02*
X15301089Y-14704461D01*
X15396327Y-14704461D02*
X15396327Y-14571127D01*
X15396327Y-14590175D02*
X15405851Y-14580651D01*
X15405851Y-14580651D02*
X15424899Y-14571127D01*
X15424899Y-14571127D02*
X15453470Y-14571127D01*
X15453470Y-14571127D02*
X15472518Y-14580651D01*
X15472518Y-14580651D02*
X15482041Y-14599699D01*
X15482041Y-14599699D02*
X15482041Y-14704461D01*
X15482041Y-14599699D02*
X15491565Y-14580651D01*
X15491565Y-14580651D02*
X15510613Y-14571127D01*
X15510613Y-14571127D02*
X15539184Y-14571127D01*
X15539184Y-14571127D02*
X15558232Y-14580651D01*
X15558232Y-14580651D02*
X15567756Y-14599699D01*
X15567756Y-14599699D02*
X15567756Y-14704461D01*
X15958232Y-14494937D02*
X15786803Y-14752080D01*
X16215375Y-14504461D02*
X16234423Y-14504461D01*
X16234423Y-14504461D02*
X16253470Y-14513985D01*
X16253470Y-14513985D02*
X16262994Y-14523508D01*
X16262994Y-14523508D02*
X16272518Y-14542556D01*
X16272518Y-14542556D02*
X16282042Y-14580651D01*
X16282042Y-14580651D02*
X16282042Y-14628270D01*
X16282042Y-14628270D02*
X16272518Y-14666366D01*
X16272518Y-14666366D02*
X16262994Y-14685413D01*
X16262994Y-14685413D02*
X16253470Y-14694937D01*
X16253470Y-14694937D02*
X16234423Y-14704461D01*
X16234423Y-14704461D02*
X16215375Y-14704461D01*
X16215375Y-14704461D02*
X16196327Y-14694937D01*
X16196327Y-14694937D02*
X16186803Y-14685413D01*
X16186803Y-14685413D02*
X16177280Y-14666366D01*
X16177280Y-14666366D02*
X16167756Y-14628270D01*
X16167756Y-14628270D02*
X16167756Y-14580651D01*
X16167756Y-14580651D02*
X16177280Y-14542556D01*
X16177280Y-14542556D02*
X16186803Y-14523508D01*
X16186803Y-14523508D02*
X16196327Y-14513985D01*
X16196327Y-14513985D02*
X16215375Y-14504461D01*
X16367756Y-14685413D02*
X16377280Y-14694937D01*
X16377280Y-14694937D02*
X16367756Y-14704461D01*
X16367756Y-14704461D02*
X16358232Y-14694937D01*
X16358232Y-14694937D02*
X16367756Y-14685413D01*
X16367756Y-14685413D02*
X16367756Y-14704461D01*
X16501089Y-14504461D02*
X16520137Y-14504461D01*
X16520137Y-14504461D02*
X16539184Y-14513985D01*
X16539184Y-14513985D02*
X16548708Y-14523508D01*
X16548708Y-14523508D02*
X16558232Y-14542556D01*
X16558232Y-14542556D02*
X16567756Y-14580651D01*
X16567756Y-14580651D02*
X16567756Y-14628270D01*
X16567756Y-14628270D02*
X16558232Y-14666366D01*
X16558232Y-14666366D02*
X16548708Y-14685413D01*
X16548708Y-14685413D02*
X16539184Y-14694937D01*
X16539184Y-14694937D02*
X16520137Y-14704461D01*
X16520137Y-14704461D02*
X16501089Y-14704461D01*
X16501089Y-14704461D02*
X16482042Y-14694937D01*
X16482042Y-14694937D02*
X16472518Y-14685413D01*
X16472518Y-14685413D02*
X16462994Y-14666366D01*
X16462994Y-14666366D02*
X16453470Y-14628270D01*
X16453470Y-14628270D02*
X16453470Y-14580651D01*
X16453470Y-14580651D02*
X16462994Y-14542556D01*
X16462994Y-14542556D02*
X16472518Y-14523508D01*
X16472518Y-14523508D02*
X16482042Y-14513985D01*
X16482042Y-14513985D02*
X16501089Y-14504461D01*
X16758232Y-14704461D02*
X16643946Y-14704461D01*
X16701089Y-14704461D02*
X16701089Y-14504461D01*
X16701089Y-14504461D02*
X16682042Y-14533032D01*
X16682042Y-14533032D02*
X16662994Y-14552080D01*
X16662994Y-14552080D02*
X16643946Y-14561604D01*
X16939185Y-14504461D02*
X16843946Y-14504461D01*
X16843946Y-14504461D02*
X16834423Y-14599699D01*
X16834423Y-14599699D02*
X16843946Y-14590175D01*
X16843946Y-14590175D02*
X16862994Y-14580651D01*
X16862994Y-14580651D02*
X16910613Y-14580651D01*
X16910613Y-14580651D02*
X16929661Y-14590175D01*
X16929661Y-14590175D02*
X16939185Y-14599699D01*
X16939185Y-14599699D02*
X16948708Y-14618747D01*
X16948708Y-14618747D02*
X16948708Y-14666366D01*
X16948708Y-14666366D02*
X16939185Y-14685413D01*
X16939185Y-14685413D02*
X16929661Y-14694937D01*
X16929661Y-14694937D02*
X16910613Y-14704461D01*
X16910613Y-14704461D02*
X16862994Y-14704461D01*
X16862994Y-14704461D02*
X16843946Y-14694937D01*
X16843946Y-14694937D02*
X16834423Y-14685413D01*
X17015375Y-14504461D02*
X17148708Y-14504461D01*
X17148708Y-14504461D02*
X17062994Y-14704461D01*
X17215375Y-14504461D02*
X17215375Y-14542556D01*
X17291566Y-14504461D02*
X17291566Y-14542556D01*
X17586804Y-14780651D02*
X17577280Y-14771127D01*
X17577280Y-14771127D02*
X17558232Y-14742556D01*
X17558232Y-14742556D02*
X17548708Y-14723508D01*
X17548708Y-14723508D02*
X17539185Y-14694937D01*
X17539185Y-14694937D02*
X17529661Y-14647318D01*
X17529661Y-14647318D02*
X17529661Y-14609223D01*
X17529661Y-14609223D02*
X17539185Y-14561604D01*
X17539185Y-14561604D02*
X17548708Y-14533032D01*
X17548708Y-14533032D02*
X17558232Y-14513985D01*
X17558232Y-14513985D02*
X17577280Y-14485413D01*
X17577280Y-14485413D02*
X17586804Y-14475889D01*
X17643947Y-14504461D02*
X17767756Y-14504461D01*
X17767756Y-14504461D02*
X17701089Y-14580651D01*
X17701089Y-14580651D02*
X17729661Y-14580651D01*
X17729661Y-14580651D02*
X17748708Y-14590175D01*
X17748708Y-14590175D02*
X17758232Y-14599699D01*
X17758232Y-14599699D02*
X17767756Y-14618747D01*
X17767756Y-14618747D02*
X17767756Y-14666366D01*
X17767756Y-14666366D02*
X17758232Y-14685413D01*
X17758232Y-14685413D02*
X17748708Y-14694937D01*
X17748708Y-14694937D02*
X17729661Y-14704461D01*
X17729661Y-14704461D02*
X17672518Y-14704461D01*
X17672518Y-14704461D02*
X17653470Y-14694937D01*
X17653470Y-14694937D02*
X17643947Y-14685413D01*
X18005851Y-14704461D02*
X18005851Y-14504461D01*
X18091566Y-14704461D02*
X18091566Y-14599699D01*
X18091566Y-14599699D02*
X18082042Y-14580651D01*
X18082042Y-14580651D02*
X18062994Y-14571127D01*
X18062994Y-14571127D02*
X18034423Y-14571127D01*
X18034423Y-14571127D02*
X18015375Y-14580651D01*
X18015375Y-14580651D02*
X18005851Y-14590175D01*
X18215375Y-14704461D02*
X18196328Y-14694937D01*
X18196328Y-14694937D02*
X18186804Y-14685413D01*
X18186804Y-14685413D02*
X18177280Y-14666366D01*
X18177280Y-14666366D02*
X18177280Y-14609223D01*
X18177280Y-14609223D02*
X18186804Y-14590175D01*
X18186804Y-14590175D02*
X18196328Y-14580651D01*
X18196328Y-14580651D02*
X18215375Y-14571127D01*
X18215375Y-14571127D02*
X18243947Y-14571127D01*
X18243947Y-14571127D02*
X18262994Y-14580651D01*
X18262994Y-14580651D02*
X18272518Y-14590175D01*
X18272518Y-14590175D02*
X18282042Y-14609223D01*
X18282042Y-14609223D02*
X18282042Y-14666366D01*
X18282042Y-14666366D02*
X18272518Y-14685413D01*
X18272518Y-14685413D02*
X18262994Y-14694937D01*
X18262994Y-14694937D02*
X18243947Y-14704461D01*
X18243947Y-14704461D02*
X18215375Y-14704461D01*
X18396328Y-14704461D02*
X18377280Y-14694937D01*
X18377280Y-14694937D02*
X18367756Y-14675889D01*
X18367756Y-14675889D02*
X18367756Y-14504461D01*
X18548709Y-14694937D02*
X18529661Y-14704461D01*
X18529661Y-14704461D02*
X18491566Y-14704461D01*
X18491566Y-14704461D02*
X18472518Y-14694937D01*
X18472518Y-14694937D02*
X18462994Y-14675889D01*
X18462994Y-14675889D02*
X18462994Y-14599699D01*
X18462994Y-14599699D02*
X18472518Y-14580651D01*
X18472518Y-14580651D02*
X18491566Y-14571127D01*
X18491566Y-14571127D02*
X18529661Y-14571127D01*
X18529661Y-14571127D02*
X18548709Y-14580651D01*
X18548709Y-14580651D02*
X18558232Y-14599699D01*
X18558232Y-14599699D02*
X18558232Y-14618747D01*
X18558232Y-14618747D02*
X18462994Y-14637794D01*
X18634423Y-14694937D02*
X18653470Y-14704461D01*
X18653470Y-14704461D02*
X18691566Y-14704461D01*
X18691566Y-14704461D02*
X18710613Y-14694937D01*
X18710613Y-14694937D02*
X18720137Y-14675889D01*
X18720137Y-14675889D02*
X18720137Y-14666366D01*
X18720137Y-14666366D02*
X18710613Y-14647318D01*
X18710613Y-14647318D02*
X18691566Y-14637794D01*
X18691566Y-14637794D02*
X18662994Y-14637794D01*
X18662994Y-14637794D02*
X18643947Y-14628270D01*
X18643947Y-14628270D02*
X18634423Y-14609223D01*
X18634423Y-14609223D02*
X18634423Y-14599699D01*
X18634423Y-14599699D02*
X18643947Y-14580651D01*
X18643947Y-14580651D02*
X18662994Y-14571127D01*
X18662994Y-14571127D02*
X18691566Y-14571127D01*
X18691566Y-14571127D02*
X18710613Y-14580651D01*
X18786804Y-14780651D02*
X18796328Y-14771127D01*
X18796328Y-14771127D02*
X18815375Y-14742556D01*
X18815375Y-14742556D02*
X18824899Y-14723508D01*
X18824899Y-14723508D02*
X18834423Y-14694937D01*
X18834423Y-14694937D02*
X18843947Y-14647318D01*
X18843947Y-14647318D02*
X18843947Y-14609223D01*
X18843947Y-14609223D02*
X18834423Y-14561604D01*
X18834423Y-14561604D02*
X18824899Y-14533032D01*
X18824899Y-14533032D02*
X18815375Y-14513985D01*
X18815375Y-14513985D02*
X18796328Y-14485413D01*
X18796328Y-14485413D02*
X18786804Y-14475889D01*
D10*
X14011741Y-14876977D02*
G75*
G02*
X13936741Y-14876977I-37500J0D01*
G01*
X13936741Y-14876977D02*
G75*
G02*
X14011741Y-14876977I37500J0D01*
G01*
D11*
X14310613Y-14768461D02*
X14329660Y-14768461D01*
X14329660Y-14768461D02*
X14348708Y-14777985D01*
X14348708Y-14777985D02*
X14358232Y-14787508D01*
X14358232Y-14787508D02*
X14367756Y-14806556D01*
X14367756Y-14806556D02*
X14377279Y-14844651D01*
X14377279Y-14844651D02*
X14377279Y-14892270D01*
X14377279Y-14892270D02*
X14367756Y-14930366D01*
X14367756Y-14930366D02*
X14358232Y-14949413D01*
X14358232Y-14949413D02*
X14348708Y-14958937D01*
X14348708Y-14958937D02*
X14329660Y-14968461D01*
X14329660Y-14968461D02*
X14310613Y-14968461D01*
X14310613Y-14968461D02*
X14291565Y-14958937D01*
X14291565Y-14958937D02*
X14282041Y-14949413D01*
X14282041Y-14949413D02*
X14272518Y-14930366D01*
X14272518Y-14930366D02*
X14262994Y-14892270D01*
X14262994Y-14892270D02*
X14262994Y-14844651D01*
X14262994Y-14844651D02*
X14272518Y-14806556D01*
X14272518Y-14806556D02*
X14282041Y-14787508D01*
X14282041Y-14787508D02*
X14291565Y-14777985D01*
X14291565Y-14777985D02*
X14310613Y-14768461D01*
X14462994Y-14949413D02*
X14472518Y-14958937D01*
X14472518Y-14958937D02*
X14462994Y-14968461D01*
X14462994Y-14968461D02*
X14453470Y-14958937D01*
X14453470Y-14958937D02*
X14462994Y-14949413D01*
X14462994Y-14949413D02*
X14462994Y-14968461D01*
X14539184Y-14768461D02*
X14672518Y-14768461D01*
X14672518Y-14768461D02*
X14586803Y-14968461D01*
X14843946Y-14768461D02*
X14748708Y-14768461D01*
X14748708Y-14768461D02*
X14739184Y-14863699D01*
X14739184Y-14863699D02*
X14748708Y-14854175D01*
X14748708Y-14854175D02*
X14767756Y-14844651D01*
X14767756Y-14844651D02*
X14815375Y-14844651D01*
X14815375Y-14844651D02*
X14834422Y-14854175D01*
X14834422Y-14854175D02*
X14843946Y-14863699D01*
X14843946Y-14863699D02*
X14853470Y-14882747D01*
X14853470Y-14882747D02*
X14853470Y-14930366D01*
X14853470Y-14930366D02*
X14843946Y-14949413D01*
X14843946Y-14949413D02*
X14834422Y-14958937D01*
X14834422Y-14958937D02*
X14815375Y-14968461D01*
X14815375Y-14968461D02*
X14767756Y-14968461D01*
X14767756Y-14968461D02*
X14748708Y-14958937D01*
X14748708Y-14958937D02*
X14739184Y-14949413D01*
X14977279Y-14768461D02*
X14996327Y-14768461D01*
X14996327Y-14768461D02*
X15015375Y-14777985D01*
X15015375Y-14777985D02*
X15024899Y-14787508D01*
X15024899Y-14787508D02*
X15034422Y-14806556D01*
X15034422Y-14806556D02*
X15043946Y-14844651D01*
X15043946Y-14844651D02*
X15043946Y-14892270D01*
X15043946Y-14892270D02*
X15034422Y-14930366D01*
X15034422Y-14930366D02*
X15024899Y-14949413D01*
X15024899Y-14949413D02*
X15015375Y-14958937D01*
X15015375Y-14958937D02*
X14996327Y-14968461D01*
X14996327Y-14968461D02*
X14977279Y-14968461D01*
X14977279Y-14968461D02*
X14958232Y-14958937D01*
X14958232Y-14958937D02*
X14948708Y-14949413D01*
X14948708Y-14949413D02*
X14939184Y-14930366D01*
X14939184Y-14930366D02*
X14929660Y-14892270D01*
X14929660Y-14892270D02*
X14929660Y-14844651D01*
X14929660Y-14844651D02*
X14939184Y-14806556D01*
X14939184Y-14806556D02*
X14948708Y-14787508D01*
X14948708Y-14787508D02*
X14958232Y-14777985D01*
X14958232Y-14777985D02*
X14977279Y-14768461D01*
X15129660Y-14968461D02*
X15129660Y-14835127D01*
X15129660Y-14854175D02*
X15139184Y-14844651D01*
X15139184Y-14844651D02*
X15158232Y-14835127D01*
X15158232Y-14835127D02*
X15186803Y-14835127D01*
X15186803Y-14835127D02*
X15205851Y-14844651D01*
X15205851Y-14844651D02*
X15215375Y-14863699D01*
X15215375Y-14863699D02*
X15215375Y-14968461D01*
X15215375Y-14863699D02*
X15224899Y-14844651D01*
X15224899Y-14844651D02*
X15243946Y-14835127D01*
X15243946Y-14835127D02*
X15272518Y-14835127D01*
X15272518Y-14835127D02*
X15291565Y-14844651D01*
X15291565Y-14844651D02*
X15301089Y-14863699D01*
X15301089Y-14863699D02*
X15301089Y-14968461D01*
X15396327Y-14968461D02*
X15396327Y-14835127D01*
X15396327Y-14854175D02*
X15405851Y-14844651D01*
X15405851Y-14844651D02*
X15424899Y-14835127D01*
X15424899Y-14835127D02*
X15453470Y-14835127D01*
X15453470Y-14835127D02*
X15472518Y-14844651D01*
X15472518Y-14844651D02*
X15482041Y-14863699D01*
X15482041Y-14863699D02*
X15482041Y-14968461D01*
X15482041Y-14863699D02*
X15491565Y-14844651D01*
X15491565Y-14844651D02*
X15510613Y-14835127D01*
X15510613Y-14835127D02*
X15539184Y-14835127D01*
X15539184Y-14835127D02*
X15558232Y-14844651D01*
X15558232Y-14844651D02*
X15567756Y-14863699D01*
X15567756Y-14863699D02*
X15567756Y-14968461D01*
X15958232Y-14758937D02*
X15786803Y-15016080D01*
X16215375Y-14768461D02*
X16234423Y-14768461D01*
X16234423Y-14768461D02*
X16253470Y-14777985D01*
X16253470Y-14777985D02*
X16262994Y-14787508D01*
X16262994Y-14787508D02*
X16272518Y-14806556D01*
X16272518Y-14806556D02*
X16282042Y-14844651D01*
X16282042Y-14844651D02*
X16282042Y-14892270D01*
X16282042Y-14892270D02*
X16272518Y-14930366D01*
X16272518Y-14930366D02*
X16262994Y-14949413D01*
X16262994Y-14949413D02*
X16253470Y-14958937D01*
X16253470Y-14958937D02*
X16234423Y-14968461D01*
X16234423Y-14968461D02*
X16215375Y-14968461D01*
X16215375Y-14968461D02*
X16196327Y-14958937D01*
X16196327Y-14958937D02*
X16186803Y-14949413D01*
X16186803Y-14949413D02*
X16177280Y-14930366D01*
X16177280Y-14930366D02*
X16167756Y-14892270D01*
X16167756Y-14892270D02*
X16167756Y-14844651D01*
X16167756Y-14844651D02*
X16177280Y-14806556D01*
X16177280Y-14806556D02*
X16186803Y-14787508D01*
X16186803Y-14787508D02*
X16196327Y-14777985D01*
X16196327Y-14777985D02*
X16215375Y-14768461D01*
X16367756Y-14949413D02*
X16377280Y-14958937D01*
X16377280Y-14958937D02*
X16367756Y-14968461D01*
X16367756Y-14968461D02*
X16358232Y-14958937D01*
X16358232Y-14958937D02*
X16367756Y-14949413D01*
X16367756Y-14949413D02*
X16367756Y-14968461D01*
X16501089Y-14768461D02*
X16520137Y-14768461D01*
X16520137Y-14768461D02*
X16539184Y-14777985D01*
X16539184Y-14777985D02*
X16548708Y-14787508D01*
X16548708Y-14787508D02*
X16558232Y-14806556D01*
X16558232Y-14806556D02*
X16567756Y-14844651D01*
X16567756Y-14844651D02*
X16567756Y-14892270D01*
X16567756Y-14892270D02*
X16558232Y-14930366D01*
X16558232Y-14930366D02*
X16548708Y-14949413D01*
X16548708Y-14949413D02*
X16539184Y-14958937D01*
X16539184Y-14958937D02*
X16520137Y-14968461D01*
X16520137Y-14968461D02*
X16501089Y-14968461D01*
X16501089Y-14968461D02*
X16482042Y-14958937D01*
X16482042Y-14958937D02*
X16472518Y-14949413D01*
X16472518Y-14949413D02*
X16462994Y-14930366D01*
X16462994Y-14930366D02*
X16453470Y-14892270D01*
X16453470Y-14892270D02*
X16453470Y-14844651D01*
X16453470Y-14844651D02*
X16462994Y-14806556D01*
X16462994Y-14806556D02*
X16472518Y-14787508D01*
X16472518Y-14787508D02*
X16482042Y-14777985D01*
X16482042Y-14777985D02*
X16501089Y-14768461D01*
X16643946Y-14787508D02*
X16653470Y-14777985D01*
X16653470Y-14777985D02*
X16672518Y-14768461D01*
X16672518Y-14768461D02*
X16720137Y-14768461D01*
X16720137Y-14768461D02*
X16739184Y-14777985D01*
X16739184Y-14777985D02*
X16748708Y-14787508D01*
X16748708Y-14787508D02*
X16758232Y-14806556D01*
X16758232Y-14806556D02*
X16758232Y-14825604D01*
X16758232Y-14825604D02*
X16748708Y-14854175D01*
X16748708Y-14854175D02*
X16634423Y-14968461D01*
X16634423Y-14968461D02*
X16758232Y-14968461D01*
X16853470Y-14968461D02*
X16891565Y-14968461D01*
X16891565Y-14968461D02*
X16910613Y-14958937D01*
X16910613Y-14958937D02*
X16920137Y-14949413D01*
X16920137Y-14949413D02*
X16939185Y-14920842D01*
X16939185Y-14920842D02*
X16948708Y-14882747D01*
X16948708Y-14882747D02*
X16948708Y-14806556D01*
X16948708Y-14806556D02*
X16939185Y-14787508D01*
X16939185Y-14787508D02*
X16929661Y-14777985D01*
X16929661Y-14777985D02*
X16910613Y-14768461D01*
X16910613Y-14768461D02*
X16872518Y-14768461D01*
X16872518Y-14768461D02*
X16853470Y-14777985D01*
X16853470Y-14777985D02*
X16843946Y-14787508D01*
X16843946Y-14787508D02*
X16834423Y-14806556D01*
X16834423Y-14806556D02*
X16834423Y-14854175D01*
X16834423Y-14854175D02*
X16843946Y-14873223D01*
X16843946Y-14873223D02*
X16853470Y-14882747D01*
X16853470Y-14882747D02*
X16872518Y-14892270D01*
X16872518Y-14892270D02*
X16910613Y-14892270D01*
X16910613Y-14892270D02*
X16929661Y-14882747D01*
X16929661Y-14882747D02*
X16939185Y-14873223D01*
X16939185Y-14873223D02*
X16948708Y-14854175D01*
X17129661Y-14768461D02*
X17034423Y-14768461D01*
X17034423Y-14768461D02*
X17024899Y-14863699D01*
X17024899Y-14863699D02*
X17034423Y-14854175D01*
X17034423Y-14854175D02*
X17053470Y-14844651D01*
X17053470Y-14844651D02*
X17101089Y-14844651D01*
X17101089Y-14844651D02*
X17120137Y-14854175D01*
X17120137Y-14854175D02*
X17129661Y-14863699D01*
X17129661Y-14863699D02*
X17139185Y-14882747D01*
X17139185Y-14882747D02*
X17139185Y-14930366D01*
X17139185Y-14930366D02*
X17129661Y-14949413D01*
X17129661Y-14949413D02*
X17120137Y-14958937D01*
X17120137Y-14958937D02*
X17101089Y-14968461D01*
X17101089Y-14968461D02*
X17053470Y-14968461D01*
X17053470Y-14968461D02*
X17034423Y-14958937D01*
X17034423Y-14958937D02*
X17024899Y-14949413D01*
X17215375Y-14768461D02*
X17215375Y-14806556D01*
X17291566Y-14768461D02*
X17291566Y-14806556D01*
X17586804Y-15044651D02*
X17577280Y-15035127D01*
X17577280Y-15035127D02*
X17558232Y-15006556D01*
X17558232Y-15006556D02*
X17548708Y-14987508D01*
X17548708Y-14987508D02*
X17539185Y-14958937D01*
X17539185Y-14958937D02*
X17529661Y-14911318D01*
X17529661Y-14911318D02*
X17529661Y-14873223D01*
X17529661Y-14873223D02*
X17539185Y-14825604D01*
X17539185Y-14825604D02*
X17548708Y-14797032D01*
X17548708Y-14797032D02*
X17558232Y-14777985D01*
X17558232Y-14777985D02*
X17577280Y-14749413D01*
X17577280Y-14749413D02*
X17586804Y-14739889D01*
X17653470Y-14787508D02*
X17662994Y-14777985D01*
X17662994Y-14777985D02*
X17682042Y-14768461D01*
X17682042Y-14768461D02*
X17729661Y-14768461D01*
X17729661Y-14768461D02*
X17748708Y-14777985D01*
X17748708Y-14777985D02*
X17758232Y-14787508D01*
X17758232Y-14787508D02*
X17767756Y-14806556D01*
X17767756Y-14806556D02*
X17767756Y-14825604D01*
X17767756Y-14825604D02*
X17758232Y-14854175D01*
X17758232Y-14854175D02*
X17643947Y-14968461D01*
X17643947Y-14968461D02*
X17767756Y-14968461D01*
X18005851Y-14968461D02*
X18005851Y-14768461D01*
X18091566Y-14968461D02*
X18091566Y-14863699D01*
X18091566Y-14863699D02*
X18082042Y-14844651D01*
X18082042Y-14844651D02*
X18062994Y-14835127D01*
X18062994Y-14835127D02*
X18034423Y-14835127D01*
X18034423Y-14835127D02*
X18015375Y-14844651D01*
X18015375Y-14844651D02*
X18005851Y-14854175D01*
X18215375Y-14968461D02*
X18196328Y-14958937D01*
X18196328Y-14958937D02*
X18186804Y-14949413D01*
X18186804Y-14949413D02*
X18177280Y-14930366D01*
X18177280Y-14930366D02*
X18177280Y-14873223D01*
X18177280Y-14873223D02*
X18186804Y-14854175D01*
X18186804Y-14854175D02*
X18196328Y-14844651D01*
X18196328Y-14844651D02*
X18215375Y-14835127D01*
X18215375Y-14835127D02*
X18243947Y-14835127D01*
X18243947Y-14835127D02*
X18262994Y-14844651D01*
X18262994Y-14844651D02*
X18272518Y-14854175D01*
X18272518Y-14854175D02*
X18282042Y-14873223D01*
X18282042Y-14873223D02*
X18282042Y-14930366D01*
X18282042Y-14930366D02*
X18272518Y-14949413D01*
X18272518Y-14949413D02*
X18262994Y-14958937D01*
X18262994Y-14958937D02*
X18243947Y-14968461D01*
X18243947Y-14968461D02*
X18215375Y-14968461D01*
X18396328Y-14968461D02*
X18377280Y-14958937D01*
X18377280Y-14958937D02*
X18367756Y-14939889D01*
X18367756Y-14939889D02*
X18367756Y-14768461D01*
X18548709Y-14958937D02*
X18529661Y-14968461D01*
X18529661Y-14968461D02*
X18491566Y-14968461D01*
X18491566Y-14968461D02*
X18472518Y-14958937D01*
X18472518Y-14958937D02*
X18462994Y-14939889D01*
X18462994Y-14939889D02*
X18462994Y-14863699D01*
X18462994Y-14863699D02*
X18472518Y-14844651D01*
X18472518Y-14844651D02*
X18491566Y-14835127D01*
X18491566Y-14835127D02*
X18529661Y-14835127D01*
X18529661Y-14835127D02*
X18548709Y-14844651D01*
X18548709Y-14844651D02*
X18558232Y-14863699D01*
X18558232Y-14863699D02*
X18558232Y-14882747D01*
X18558232Y-14882747D02*
X18462994Y-14901794D01*
X18634423Y-14958937D02*
X18653470Y-14968461D01*
X18653470Y-14968461D02*
X18691566Y-14968461D01*
X18691566Y-14968461D02*
X18710613Y-14958937D01*
X18710613Y-14958937D02*
X18720137Y-14939889D01*
X18720137Y-14939889D02*
X18720137Y-14930366D01*
X18720137Y-14930366D02*
X18710613Y-14911318D01*
X18710613Y-14911318D02*
X18691566Y-14901794D01*
X18691566Y-14901794D02*
X18662994Y-14901794D01*
X18662994Y-14901794D02*
X18643947Y-14892270D01*
X18643947Y-14892270D02*
X18634423Y-14873223D01*
X18634423Y-14873223D02*
X18634423Y-14863699D01*
X18634423Y-14863699D02*
X18643947Y-14844651D01*
X18643947Y-14844651D02*
X18662994Y-14835127D01*
X18662994Y-14835127D02*
X18691566Y-14835127D01*
X18691566Y-14835127D02*
X18710613Y-14844651D01*
X18786804Y-15044651D02*
X18796328Y-15035127D01*
X18796328Y-15035127D02*
X18815375Y-15006556D01*
X18815375Y-15006556D02*
X18824899Y-14987508D01*
X18824899Y-14987508D02*
X18834423Y-14958937D01*
X18834423Y-14958937D02*
X18843947Y-14911318D01*
X18843947Y-14911318D02*
X18843947Y-14873223D01*
X18843947Y-14873223D02*
X18834423Y-14825604D01*
X18834423Y-14825604D02*
X18824899Y-14797032D01*
X18824899Y-14797032D02*
X18815375Y-14777985D01*
X18815375Y-14777985D02*
X18796328Y-14749413D01*
X18796328Y-14749413D02*
X18786804Y-14739889D01*
D10*
X13961741Y-15090977D02*
X13961741Y-15190977D01*
X13911741Y-15140977D02*
X14011741Y-15140977D01*
D11*
X14377279Y-15232461D02*
X14262994Y-15232461D01*
X14320137Y-15232461D02*
X14320137Y-15032461D01*
X14320137Y-15032461D02*
X14301089Y-15061032D01*
X14301089Y-15061032D02*
X14282041Y-15080080D01*
X14282041Y-15080080D02*
X14262994Y-15089604D01*
X14462994Y-15213413D02*
X14472518Y-15222937D01*
X14472518Y-15222937D02*
X14462994Y-15232461D01*
X14462994Y-15232461D02*
X14453470Y-15222937D01*
X14453470Y-15222937D02*
X14462994Y-15213413D01*
X14462994Y-15213413D02*
X14462994Y-15232461D01*
X14596327Y-15032461D02*
X14615375Y-15032461D01*
X14615375Y-15032461D02*
X14634422Y-15041985D01*
X14634422Y-15041985D02*
X14643946Y-15051508D01*
X14643946Y-15051508D02*
X14653470Y-15070556D01*
X14653470Y-15070556D02*
X14662994Y-15108651D01*
X14662994Y-15108651D02*
X14662994Y-15156270D01*
X14662994Y-15156270D02*
X14653470Y-15194366D01*
X14653470Y-15194366D02*
X14643946Y-15213413D01*
X14643946Y-15213413D02*
X14634422Y-15222937D01*
X14634422Y-15222937D02*
X14615375Y-15232461D01*
X14615375Y-15232461D02*
X14596327Y-15232461D01*
X14596327Y-15232461D02*
X14577279Y-15222937D01*
X14577279Y-15222937D02*
X14567756Y-15213413D01*
X14567756Y-15213413D02*
X14558232Y-15194366D01*
X14558232Y-15194366D02*
X14548708Y-15156270D01*
X14548708Y-15156270D02*
X14548708Y-15108651D01*
X14548708Y-15108651D02*
X14558232Y-15070556D01*
X14558232Y-15070556D02*
X14567756Y-15051508D01*
X14567756Y-15051508D02*
X14577279Y-15041985D01*
X14577279Y-15041985D02*
X14596327Y-15032461D01*
X14786803Y-15032461D02*
X14805851Y-15032461D01*
X14805851Y-15032461D02*
X14824899Y-15041985D01*
X14824899Y-15041985D02*
X14834422Y-15051508D01*
X14834422Y-15051508D02*
X14843946Y-15070556D01*
X14843946Y-15070556D02*
X14853470Y-15108651D01*
X14853470Y-15108651D02*
X14853470Y-15156270D01*
X14853470Y-15156270D02*
X14843946Y-15194366D01*
X14843946Y-15194366D02*
X14834422Y-15213413D01*
X14834422Y-15213413D02*
X14824899Y-15222937D01*
X14824899Y-15222937D02*
X14805851Y-15232461D01*
X14805851Y-15232461D02*
X14786803Y-15232461D01*
X14786803Y-15232461D02*
X14767756Y-15222937D01*
X14767756Y-15222937D02*
X14758232Y-15213413D01*
X14758232Y-15213413D02*
X14748708Y-15194366D01*
X14748708Y-15194366D02*
X14739184Y-15156270D01*
X14739184Y-15156270D02*
X14739184Y-15108651D01*
X14739184Y-15108651D02*
X14748708Y-15070556D01*
X14748708Y-15070556D02*
X14758232Y-15051508D01*
X14758232Y-15051508D02*
X14767756Y-15041985D01*
X14767756Y-15041985D02*
X14786803Y-15032461D01*
X14977279Y-15032461D02*
X14996327Y-15032461D01*
X14996327Y-15032461D02*
X15015375Y-15041985D01*
X15015375Y-15041985D02*
X15024899Y-15051508D01*
X15024899Y-15051508D02*
X15034422Y-15070556D01*
X15034422Y-15070556D02*
X15043946Y-15108651D01*
X15043946Y-15108651D02*
X15043946Y-15156270D01*
X15043946Y-15156270D02*
X15034422Y-15194366D01*
X15034422Y-15194366D02*
X15024899Y-15213413D01*
X15024899Y-15213413D02*
X15015375Y-15222937D01*
X15015375Y-15222937D02*
X14996327Y-15232461D01*
X14996327Y-15232461D02*
X14977279Y-15232461D01*
X14977279Y-15232461D02*
X14958232Y-15222937D01*
X14958232Y-15222937D02*
X14948708Y-15213413D01*
X14948708Y-15213413D02*
X14939184Y-15194366D01*
X14939184Y-15194366D02*
X14929660Y-15156270D01*
X14929660Y-15156270D02*
X14929660Y-15108651D01*
X14929660Y-15108651D02*
X14939184Y-15070556D01*
X14939184Y-15070556D02*
X14948708Y-15051508D01*
X14948708Y-15051508D02*
X14958232Y-15041985D01*
X14958232Y-15041985D02*
X14977279Y-15032461D01*
X15129660Y-15232461D02*
X15129660Y-15099127D01*
X15129660Y-15118175D02*
X15139184Y-15108651D01*
X15139184Y-15108651D02*
X15158232Y-15099127D01*
X15158232Y-15099127D02*
X15186803Y-15099127D01*
X15186803Y-15099127D02*
X15205851Y-15108651D01*
X15205851Y-15108651D02*
X15215375Y-15127699D01*
X15215375Y-15127699D02*
X15215375Y-15232461D01*
X15215375Y-15127699D02*
X15224899Y-15108651D01*
X15224899Y-15108651D02*
X15243946Y-15099127D01*
X15243946Y-15099127D02*
X15272518Y-15099127D01*
X15272518Y-15099127D02*
X15291565Y-15108651D01*
X15291565Y-15108651D02*
X15301089Y-15127699D01*
X15301089Y-15127699D02*
X15301089Y-15232461D01*
X15396327Y-15232461D02*
X15396327Y-15099127D01*
X15396327Y-15118175D02*
X15405851Y-15108651D01*
X15405851Y-15108651D02*
X15424899Y-15099127D01*
X15424899Y-15099127D02*
X15453470Y-15099127D01*
X15453470Y-15099127D02*
X15472518Y-15108651D01*
X15472518Y-15108651D02*
X15482041Y-15127699D01*
X15482041Y-15127699D02*
X15482041Y-15232461D01*
X15482041Y-15127699D02*
X15491565Y-15108651D01*
X15491565Y-15108651D02*
X15510613Y-15099127D01*
X15510613Y-15099127D02*
X15539184Y-15099127D01*
X15539184Y-15099127D02*
X15558232Y-15108651D01*
X15558232Y-15108651D02*
X15567756Y-15127699D01*
X15567756Y-15127699D02*
X15567756Y-15232461D01*
X15958232Y-15022937D02*
X15786803Y-15280080D01*
X16215375Y-15032461D02*
X16234423Y-15032461D01*
X16234423Y-15032461D02*
X16253470Y-15041985D01*
X16253470Y-15041985D02*
X16262994Y-15051508D01*
X16262994Y-15051508D02*
X16272518Y-15070556D01*
X16272518Y-15070556D02*
X16282042Y-15108651D01*
X16282042Y-15108651D02*
X16282042Y-15156270D01*
X16282042Y-15156270D02*
X16272518Y-15194366D01*
X16272518Y-15194366D02*
X16262994Y-15213413D01*
X16262994Y-15213413D02*
X16253470Y-15222937D01*
X16253470Y-15222937D02*
X16234423Y-15232461D01*
X16234423Y-15232461D02*
X16215375Y-15232461D01*
X16215375Y-15232461D02*
X16196327Y-15222937D01*
X16196327Y-15222937D02*
X16186803Y-15213413D01*
X16186803Y-15213413D02*
X16177280Y-15194366D01*
X16177280Y-15194366D02*
X16167756Y-15156270D01*
X16167756Y-15156270D02*
X16167756Y-15108651D01*
X16167756Y-15108651D02*
X16177280Y-15070556D01*
X16177280Y-15070556D02*
X16186803Y-15051508D01*
X16186803Y-15051508D02*
X16196327Y-15041985D01*
X16196327Y-15041985D02*
X16215375Y-15032461D01*
X16367756Y-15213413D02*
X16377280Y-15222937D01*
X16377280Y-15222937D02*
X16367756Y-15232461D01*
X16367756Y-15232461D02*
X16358232Y-15222937D01*
X16358232Y-15222937D02*
X16367756Y-15213413D01*
X16367756Y-15213413D02*
X16367756Y-15232461D01*
X16501089Y-15032461D02*
X16520137Y-15032461D01*
X16520137Y-15032461D02*
X16539184Y-15041985D01*
X16539184Y-15041985D02*
X16548708Y-15051508D01*
X16548708Y-15051508D02*
X16558232Y-15070556D01*
X16558232Y-15070556D02*
X16567756Y-15108651D01*
X16567756Y-15108651D02*
X16567756Y-15156270D01*
X16567756Y-15156270D02*
X16558232Y-15194366D01*
X16558232Y-15194366D02*
X16548708Y-15213413D01*
X16548708Y-15213413D02*
X16539184Y-15222937D01*
X16539184Y-15222937D02*
X16520137Y-15232461D01*
X16520137Y-15232461D02*
X16501089Y-15232461D01*
X16501089Y-15232461D02*
X16482042Y-15222937D01*
X16482042Y-15222937D02*
X16472518Y-15213413D01*
X16472518Y-15213413D02*
X16462994Y-15194366D01*
X16462994Y-15194366D02*
X16453470Y-15156270D01*
X16453470Y-15156270D02*
X16453470Y-15108651D01*
X16453470Y-15108651D02*
X16462994Y-15070556D01*
X16462994Y-15070556D02*
X16472518Y-15051508D01*
X16472518Y-15051508D02*
X16482042Y-15041985D01*
X16482042Y-15041985D02*
X16501089Y-15032461D01*
X16634423Y-15032461D02*
X16758232Y-15032461D01*
X16758232Y-15032461D02*
X16691565Y-15108651D01*
X16691565Y-15108651D02*
X16720137Y-15108651D01*
X16720137Y-15108651D02*
X16739184Y-15118175D01*
X16739184Y-15118175D02*
X16748708Y-15127699D01*
X16748708Y-15127699D02*
X16758232Y-15146747D01*
X16758232Y-15146747D02*
X16758232Y-15194366D01*
X16758232Y-15194366D02*
X16748708Y-15213413D01*
X16748708Y-15213413D02*
X16739184Y-15222937D01*
X16739184Y-15222937D02*
X16720137Y-15232461D01*
X16720137Y-15232461D02*
X16662994Y-15232461D01*
X16662994Y-15232461D02*
X16643946Y-15222937D01*
X16643946Y-15222937D02*
X16634423Y-15213413D01*
X16853470Y-15232461D02*
X16891565Y-15232461D01*
X16891565Y-15232461D02*
X16910613Y-15222937D01*
X16910613Y-15222937D02*
X16920137Y-15213413D01*
X16920137Y-15213413D02*
X16939185Y-15184842D01*
X16939185Y-15184842D02*
X16948708Y-15146747D01*
X16948708Y-15146747D02*
X16948708Y-15070556D01*
X16948708Y-15070556D02*
X16939185Y-15051508D01*
X16939185Y-15051508D02*
X16929661Y-15041985D01*
X16929661Y-15041985D02*
X16910613Y-15032461D01*
X16910613Y-15032461D02*
X16872518Y-15032461D01*
X16872518Y-15032461D02*
X16853470Y-15041985D01*
X16853470Y-15041985D02*
X16843946Y-15051508D01*
X16843946Y-15051508D02*
X16834423Y-15070556D01*
X16834423Y-15070556D02*
X16834423Y-15118175D01*
X16834423Y-15118175D02*
X16843946Y-15137223D01*
X16843946Y-15137223D02*
X16853470Y-15146747D01*
X16853470Y-15146747D02*
X16872518Y-15156270D01*
X16872518Y-15156270D02*
X16910613Y-15156270D01*
X16910613Y-15156270D02*
X16929661Y-15146747D01*
X16929661Y-15146747D02*
X16939185Y-15137223D01*
X16939185Y-15137223D02*
X16948708Y-15118175D01*
X17120137Y-15099127D02*
X17120137Y-15232461D01*
X17072518Y-15022937D02*
X17024899Y-15165794D01*
X17024899Y-15165794D02*
X17148708Y-15165794D01*
X17215375Y-15032461D02*
X17215375Y-15070556D01*
X17291566Y-15032461D02*
X17291566Y-15070556D01*
X17586804Y-15308651D02*
X17577280Y-15299127D01*
X17577280Y-15299127D02*
X17558232Y-15270556D01*
X17558232Y-15270556D02*
X17548708Y-15251508D01*
X17548708Y-15251508D02*
X17539185Y-15222937D01*
X17539185Y-15222937D02*
X17529661Y-15175318D01*
X17529661Y-15175318D02*
X17529661Y-15137223D01*
X17529661Y-15137223D02*
X17539185Y-15089604D01*
X17539185Y-15089604D02*
X17548708Y-15061032D01*
X17548708Y-15061032D02*
X17558232Y-15041985D01*
X17558232Y-15041985D02*
X17577280Y-15013413D01*
X17577280Y-15013413D02*
X17586804Y-15003889D01*
X17691566Y-15118175D02*
X17672518Y-15108651D01*
X17672518Y-15108651D02*
X17662994Y-15099127D01*
X17662994Y-15099127D02*
X17653470Y-15080080D01*
X17653470Y-15080080D02*
X17653470Y-15070556D01*
X17653470Y-15070556D02*
X17662994Y-15051508D01*
X17662994Y-15051508D02*
X17672518Y-15041985D01*
X17672518Y-15041985D02*
X17691566Y-15032461D01*
X17691566Y-15032461D02*
X17729661Y-15032461D01*
X17729661Y-15032461D02*
X17748708Y-15041985D01*
X17748708Y-15041985D02*
X17758232Y-15051508D01*
X17758232Y-15051508D02*
X17767756Y-15070556D01*
X17767756Y-15070556D02*
X17767756Y-15080080D01*
X17767756Y-15080080D02*
X17758232Y-15099127D01*
X17758232Y-15099127D02*
X17748708Y-15108651D01*
X17748708Y-15108651D02*
X17729661Y-15118175D01*
X17729661Y-15118175D02*
X17691566Y-15118175D01*
X17691566Y-15118175D02*
X17672518Y-15127699D01*
X17672518Y-15127699D02*
X17662994Y-15137223D01*
X17662994Y-15137223D02*
X17653470Y-15156270D01*
X17653470Y-15156270D02*
X17653470Y-15194366D01*
X17653470Y-15194366D02*
X17662994Y-15213413D01*
X17662994Y-15213413D02*
X17672518Y-15222937D01*
X17672518Y-15222937D02*
X17691566Y-15232461D01*
X17691566Y-15232461D02*
X17729661Y-15232461D01*
X17729661Y-15232461D02*
X17748708Y-15222937D01*
X17748708Y-15222937D02*
X17758232Y-15213413D01*
X17758232Y-15213413D02*
X17767756Y-15194366D01*
X17767756Y-15194366D02*
X17767756Y-15156270D01*
X17767756Y-15156270D02*
X17758232Y-15137223D01*
X17758232Y-15137223D02*
X17748708Y-15127699D01*
X17748708Y-15127699D02*
X17729661Y-15118175D01*
X18005851Y-15232461D02*
X18005851Y-15032461D01*
X18091566Y-15232461D02*
X18091566Y-15127699D01*
X18091566Y-15127699D02*
X18082042Y-15108651D01*
X18082042Y-15108651D02*
X18062994Y-15099127D01*
X18062994Y-15099127D02*
X18034423Y-15099127D01*
X18034423Y-15099127D02*
X18015375Y-15108651D01*
X18015375Y-15108651D02*
X18005851Y-15118175D01*
X18215375Y-15232461D02*
X18196328Y-15222937D01*
X18196328Y-15222937D02*
X18186804Y-15213413D01*
X18186804Y-15213413D02*
X18177280Y-15194366D01*
X18177280Y-15194366D02*
X18177280Y-15137223D01*
X18177280Y-15137223D02*
X18186804Y-15118175D01*
X18186804Y-15118175D02*
X18196328Y-15108651D01*
X18196328Y-15108651D02*
X18215375Y-15099127D01*
X18215375Y-15099127D02*
X18243947Y-15099127D01*
X18243947Y-15099127D02*
X18262994Y-15108651D01*
X18262994Y-15108651D02*
X18272518Y-15118175D01*
X18272518Y-15118175D02*
X18282042Y-15137223D01*
X18282042Y-15137223D02*
X18282042Y-15194366D01*
X18282042Y-15194366D02*
X18272518Y-15213413D01*
X18272518Y-15213413D02*
X18262994Y-15222937D01*
X18262994Y-15222937D02*
X18243947Y-15232461D01*
X18243947Y-15232461D02*
X18215375Y-15232461D01*
X18396328Y-15232461D02*
X18377280Y-15222937D01*
X18377280Y-15222937D02*
X18367756Y-15203889D01*
X18367756Y-15203889D02*
X18367756Y-15032461D01*
X18548709Y-15222937D02*
X18529661Y-15232461D01*
X18529661Y-15232461D02*
X18491566Y-15232461D01*
X18491566Y-15232461D02*
X18472518Y-15222937D01*
X18472518Y-15222937D02*
X18462994Y-15203889D01*
X18462994Y-15203889D02*
X18462994Y-15127699D01*
X18462994Y-15127699D02*
X18472518Y-15108651D01*
X18472518Y-15108651D02*
X18491566Y-15099127D01*
X18491566Y-15099127D02*
X18529661Y-15099127D01*
X18529661Y-15099127D02*
X18548709Y-15108651D01*
X18548709Y-15108651D02*
X18558232Y-15127699D01*
X18558232Y-15127699D02*
X18558232Y-15146747D01*
X18558232Y-15146747D02*
X18462994Y-15165794D01*
X18634423Y-15222937D02*
X18653470Y-15232461D01*
X18653470Y-15232461D02*
X18691566Y-15232461D01*
X18691566Y-15232461D02*
X18710613Y-15222937D01*
X18710613Y-15222937D02*
X18720137Y-15203889D01*
X18720137Y-15203889D02*
X18720137Y-15194366D01*
X18720137Y-15194366D02*
X18710613Y-15175318D01*
X18710613Y-15175318D02*
X18691566Y-15165794D01*
X18691566Y-15165794D02*
X18662994Y-15165794D01*
X18662994Y-15165794D02*
X18643947Y-15156270D01*
X18643947Y-15156270D02*
X18634423Y-15137223D01*
X18634423Y-15137223D02*
X18634423Y-15127699D01*
X18634423Y-15127699D02*
X18643947Y-15108651D01*
X18643947Y-15108651D02*
X18662994Y-15099127D01*
X18662994Y-15099127D02*
X18691566Y-15099127D01*
X18691566Y-15099127D02*
X18710613Y-15108651D01*
X18786804Y-15308651D02*
X18796328Y-15299127D01*
X18796328Y-15299127D02*
X18815375Y-15270556D01*
X18815375Y-15270556D02*
X18824899Y-15251508D01*
X18824899Y-15251508D02*
X18834423Y-15222937D01*
X18834423Y-15222937D02*
X18843947Y-15175318D01*
X18843947Y-15175318D02*
X18843947Y-15137223D01*
X18843947Y-15137223D02*
X18834423Y-15089604D01*
X18834423Y-15089604D02*
X18824899Y-15061032D01*
X18824899Y-15061032D02*
X18815375Y-15041985D01*
X18815375Y-15041985D02*
X18796328Y-15013413D01*
X18796328Y-15013413D02*
X18786804Y-15003889D01*
D12*
X13988310Y-15461546D02*
X13988310Y-15348408D01*
X13875172Y-15348408D01*
X13875172Y-15461546D01*
X13988310Y-15461546D01*
D11*
X14377279Y-15496461D02*
X14262994Y-15496461D01*
X14320137Y-15496461D02*
X14320137Y-15296461D01*
X14320137Y-15296461D02*
X14301089Y-15325032D01*
X14301089Y-15325032D02*
X14282041Y-15344080D01*
X14282041Y-15344080D02*
X14262994Y-15353604D01*
X14462994Y-15477413D02*
X14472518Y-15486937D01*
X14472518Y-15486937D02*
X14462994Y-15496461D01*
X14462994Y-15496461D02*
X14453470Y-15486937D01*
X14453470Y-15486937D02*
X14462994Y-15477413D01*
X14462994Y-15477413D02*
X14462994Y-15496461D01*
X14643946Y-15296461D02*
X14605851Y-15296461D01*
X14605851Y-15296461D02*
X14586803Y-15305985D01*
X14586803Y-15305985D02*
X14577279Y-15315508D01*
X14577279Y-15315508D02*
X14558232Y-15344080D01*
X14558232Y-15344080D02*
X14548708Y-15382175D01*
X14548708Y-15382175D02*
X14548708Y-15458366D01*
X14548708Y-15458366D02*
X14558232Y-15477413D01*
X14558232Y-15477413D02*
X14567756Y-15486937D01*
X14567756Y-15486937D02*
X14586803Y-15496461D01*
X14586803Y-15496461D02*
X14624899Y-15496461D01*
X14624899Y-15496461D02*
X14643946Y-15486937D01*
X14643946Y-15486937D02*
X14653470Y-15477413D01*
X14653470Y-15477413D02*
X14662994Y-15458366D01*
X14662994Y-15458366D02*
X14662994Y-15410747D01*
X14662994Y-15410747D02*
X14653470Y-15391699D01*
X14653470Y-15391699D02*
X14643946Y-15382175D01*
X14643946Y-15382175D02*
X14624899Y-15372651D01*
X14624899Y-15372651D02*
X14586803Y-15372651D01*
X14586803Y-15372651D02*
X14567756Y-15382175D01*
X14567756Y-15382175D02*
X14558232Y-15391699D01*
X14558232Y-15391699D02*
X14548708Y-15410747D01*
X14786803Y-15296461D02*
X14805851Y-15296461D01*
X14805851Y-15296461D02*
X14824899Y-15305985D01*
X14824899Y-15305985D02*
X14834422Y-15315508D01*
X14834422Y-15315508D02*
X14843946Y-15334556D01*
X14843946Y-15334556D02*
X14853470Y-15372651D01*
X14853470Y-15372651D02*
X14853470Y-15420270D01*
X14853470Y-15420270D02*
X14843946Y-15458366D01*
X14843946Y-15458366D02*
X14834422Y-15477413D01*
X14834422Y-15477413D02*
X14824899Y-15486937D01*
X14824899Y-15486937D02*
X14805851Y-15496461D01*
X14805851Y-15496461D02*
X14786803Y-15496461D01*
X14786803Y-15496461D02*
X14767756Y-15486937D01*
X14767756Y-15486937D02*
X14758232Y-15477413D01*
X14758232Y-15477413D02*
X14748708Y-15458366D01*
X14748708Y-15458366D02*
X14739184Y-15420270D01*
X14739184Y-15420270D02*
X14739184Y-15372651D01*
X14739184Y-15372651D02*
X14748708Y-15334556D01*
X14748708Y-15334556D02*
X14758232Y-15315508D01*
X14758232Y-15315508D02*
X14767756Y-15305985D01*
X14767756Y-15305985D02*
X14786803Y-15296461D01*
X14977279Y-15296461D02*
X14996327Y-15296461D01*
X14996327Y-15296461D02*
X15015375Y-15305985D01*
X15015375Y-15305985D02*
X15024899Y-15315508D01*
X15024899Y-15315508D02*
X15034422Y-15334556D01*
X15034422Y-15334556D02*
X15043946Y-15372651D01*
X15043946Y-15372651D02*
X15043946Y-15420270D01*
X15043946Y-15420270D02*
X15034422Y-15458366D01*
X15034422Y-15458366D02*
X15024899Y-15477413D01*
X15024899Y-15477413D02*
X15015375Y-15486937D01*
X15015375Y-15486937D02*
X14996327Y-15496461D01*
X14996327Y-15496461D02*
X14977279Y-15496461D01*
X14977279Y-15496461D02*
X14958232Y-15486937D01*
X14958232Y-15486937D02*
X14948708Y-15477413D01*
X14948708Y-15477413D02*
X14939184Y-15458366D01*
X14939184Y-15458366D02*
X14929660Y-15420270D01*
X14929660Y-15420270D02*
X14929660Y-15372651D01*
X14929660Y-15372651D02*
X14939184Y-15334556D01*
X14939184Y-15334556D02*
X14948708Y-15315508D01*
X14948708Y-15315508D02*
X14958232Y-15305985D01*
X14958232Y-15305985D02*
X14977279Y-15296461D01*
X15129660Y-15496461D02*
X15129660Y-15363127D01*
X15129660Y-15382175D02*
X15139184Y-15372651D01*
X15139184Y-15372651D02*
X15158232Y-15363127D01*
X15158232Y-15363127D02*
X15186803Y-15363127D01*
X15186803Y-15363127D02*
X15205851Y-15372651D01*
X15205851Y-15372651D02*
X15215375Y-15391699D01*
X15215375Y-15391699D02*
X15215375Y-15496461D01*
X15215375Y-15391699D02*
X15224899Y-15372651D01*
X15224899Y-15372651D02*
X15243946Y-15363127D01*
X15243946Y-15363127D02*
X15272518Y-15363127D01*
X15272518Y-15363127D02*
X15291565Y-15372651D01*
X15291565Y-15372651D02*
X15301089Y-15391699D01*
X15301089Y-15391699D02*
X15301089Y-15496461D01*
X15396327Y-15496461D02*
X15396327Y-15363127D01*
X15396327Y-15382175D02*
X15405851Y-15372651D01*
X15405851Y-15372651D02*
X15424899Y-15363127D01*
X15424899Y-15363127D02*
X15453470Y-15363127D01*
X15453470Y-15363127D02*
X15472518Y-15372651D01*
X15472518Y-15372651D02*
X15482041Y-15391699D01*
X15482041Y-15391699D02*
X15482041Y-15496461D01*
X15482041Y-15391699D02*
X15491565Y-15372651D01*
X15491565Y-15372651D02*
X15510613Y-15363127D01*
X15510613Y-15363127D02*
X15539184Y-15363127D01*
X15539184Y-15363127D02*
X15558232Y-15372651D01*
X15558232Y-15372651D02*
X15567756Y-15391699D01*
X15567756Y-15391699D02*
X15567756Y-15496461D01*
X15958232Y-15286937D02*
X15786803Y-15544080D01*
X16215375Y-15296461D02*
X16234423Y-15296461D01*
X16234423Y-15296461D02*
X16253470Y-15305985D01*
X16253470Y-15305985D02*
X16262994Y-15315508D01*
X16262994Y-15315508D02*
X16272518Y-15334556D01*
X16272518Y-15334556D02*
X16282042Y-15372651D01*
X16282042Y-15372651D02*
X16282042Y-15420270D01*
X16282042Y-15420270D02*
X16272518Y-15458366D01*
X16272518Y-15458366D02*
X16262994Y-15477413D01*
X16262994Y-15477413D02*
X16253470Y-15486937D01*
X16253470Y-15486937D02*
X16234423Y-15496461D01*
X16234423Y-15496461D02*
X16215375Y-15496461D01*
X16215375Y-15496461D02*
X16196327Y-15486937D01*
X16196327Y-15486937D02*
X16186803Y-15477413D01*
X16186803Y-15477413D02*
X16177280Y-15458366D01*
X16177280Y-15458366D02*
X16167756Y-15420270D01*
X16167756Y-15420270D02*
X16167756Y-15372651D01*
X16167756Y-15372651D02*
X16177280Y-15334556D01*
X16177280Y-15334556D02*
X16186803Y-15315508D01*
X16186803Y-15315508D02*
X16196327Y-15305985D01*
X16196327Y-15305985D02*
X16215375Y-15296461D01*
X16367756Y-15477413D02*
X16377280Y-15486937D01*
X16377280Y-15486937D02*
X16367756Y-15496461D01*
X16367756Y-15496461D02*
X16358232Y-15486937D01*
X16358232Y-15486937D02*
X16367756Y-15477413D01*
X16367756Y-15477413D02*
X16367756Y-15496461D01*
X16501089Y-15296461D02*
X16520137Y-15296461D01*
X16520137Y-15296461D02*
X16539184Y-15305985D01*
X16539184Y-15305985D02*
X16548708Y-15315508D01*
X16548708Y-15315508D02*
X16558232Y-15334556D01*
X16558232Y-15334556D02*
X16567756Y-15372651D01*
X16567756Y-15372651D02*
X16567756Y-15420270D01*
X16567756Y-15420270D02*
X16558232Y-15458366D01*
X16558232Y-15458366D02*
X16548708Y-15477413D01*
X16548708Y-15477413D02*
X16539184Y-15486937D01*
X16539184Y-15486937D02*
X16520137Y-15496461D01*
X16520137Y-15496461D02*
X16501089Y-15496461D01*
X16501089Y-15496461D02*
X16482042Y-15486937D01*
X16482042Y-15486937D02*
X16472518Y-15477413D01*
X16472518Y-15477413D02*
X16462994Y-15458366D01*
X16462994Y-15458366D02*
X16453470Y-15420270D01*
X16453470Y-15420270D02*
X16453470Y-15372651D01*
X16453470Y-15372651D02*
X16462994Y-15334556D01*
X16462994Y-15334556D02*
X16472518Y-15315508D01*
X16472518Y-15315508D02*
X16482042Y-15305985D01*
X16482042Y-15305985D02*
X16501089Y-15296461D01*
X16739184Y-15296461D02*
X16701089Y-15296461D01*
X16701089Y-15296461D02*
X16682042Y-15305985D01*
X16682042Y-15305985D02*
X16672518Y-15315508D01*
X16672518Y-15315508D02*
X16653470Y-15344080D01*
X16653470Y-15344080D02*
X16643946Y-15382175D01*
X16643946Y-15382175D02*
X16643946Y-15458366D01*
X16643946Y-15458366D02*
X16653470Y-15477413D01*
X16653470Y-15477413D02*
X16662994Y-15486937D01*
X16662994Y-15486937D02*
X16682042Y-15496461D01*
X16682042Y-15496461D02*
X16720137Y-15496461D01*
X16720137Y-15496461D02*
X16739184Y-15486937D01*
X16739184Y-15486937D02*
X16748708Y-15477413D01*
X16748708Y-15477413D02*
X16758232Y-15458366D01*
X16758232Y-15458366D02*
X16758232Y-15410747D01*
X16758232Y-15410747D02*
X16748708Y-15391699D01*
X16748708Y-15391699D02*
X16739184Y-15382175D01*
X16739184Y-15382175D02*
X16720137Y-15372651D01*
X16720137Y-15372651D02*
X16682042Y-15372651D01*
X16682042Y-15372651D02*
X16662994Y-15382175D01*
X16662994Y-15382175D02*
X16653470Y-15391699D01*
X16653470Y-15391699D02*
X16643946Y-15410747D01*
X16824899Y-15296461D02*
X16948708Y-15296461D01*
X16948708Y-15296461D02*
X16882042Y-15372651D01*
X16882042Y-15372651D02*
X16910613Y-15372651D01*
X16910613Y-15372651D02*
X16929661Y-15382175D01*
X16929661Y-15382175D02*
X16939185Y-15391699D01*
X16939185Y-15391699D02*
X16948708Y-15410747D01*
X16948708Y-15410747D02*
X16948708Y-15458366D01*
X16948708Y-15458366D02*
X16939185Y-15477413D01*
X16939185Y-15477413D02*
X16929661Y-15486937D01*
X16929661Y-15486937D02*
X16910613Y-15496461D01*
X16910613Y-15496461D02*
X16853470Y-15496461D01*
X16853470Y-15496461D02*
X16834423Y-15486937D01*
X16834423Y-15486937D02*
X16824899Y-15477413D01*
X17072518Y-15296461D02*
X17091566Y-15296461D01*
X17091566Y-15296461D02*
X17110613Y-15305985D01*
X17110613Y-15305985D02*
X17120137Y-15315508D01*
X17120137Y-15315508D02*
X17129661Y-15334556D01*
X17129661Y-15334556D02*
X17139185Y-15372651D01*
X17139185Y-15372651D02*
X17139185Y-15420270D01*
X17139185Y-15420270D02*
X17129661Y-15458366D01*
X17129661Y-15458366D02*
X17120137Y-15477413D01*
X17120137Y-15477413D02*
X17110613Y-15486937D01*
X17110613Y-15486937D02*
X17091566Y-15496461D01*
X17091566Y-15496461D02*
X17072518Y-15496461D01*
X17072518Y-15496461D02*
X17053470Y-15486937D01*
X17053470Y-15486937D02*
X17043946Y-15477413D01*
X17043946Y-15477413D02*
X17034423Y-15458366D01*
X17034423Y-15458366D02*
X17024899Y-15420270D01*
X17024899Y-15420270D02*
X17024899Y-15372651D01*
X17024899Y-15372651D02*
X17034423Y-15334556D01*
X17034423Y-15334556D02*
X17043946Y-15315508D01*
X17043946Y-15315508D02*
X17053470Y-15305985D01*
X17053470Y-15305985D02*
X17072518Y-15296461D01*
X17215375Y-15296461D02*
X17215375Y-15334556D01*
X17291566Y-15296461D02*
X17291566Y-15334556D01*
X17586804Y-15572651D02*
X17577280Y-15563127D01*
X17577280Y-15563127D02*
X17558232Y-15534556D01*
X17558232Y-15534556D02*
X17548708Y-15515508D01*
X17548708Y-15515508D02*
X17539185Y-15486937D01*
X17539185Y-15486937D02*
X17529661Y-15439318D01*
X17529661Y-15439318D02*
X17529661Y-15401223D01*
X17529661Y-15401223D02*
X17539185Y-15353604D01*
X17539185Y-15353604D02*
X17548708Y-15325032D01*
X17548708Y-15325032D02*
X17558232Y-15305985D01*
X17558232Y-15305985D02*
X17577280Y-15277413D01*
X17577280Y-15277413D02*
X17586804Y-15267889D01*
X17643947Y-15296461D02*
X17767756Y-15296461D01*
X17767756Y-15296461D02*
X17701089Y-15372651D01*
X17701089Y-15372651D02*
X17729661Y-15372651D01*
X17729661Y-15372651D02*
X17748708Y-15382175D01*
X17748708Y-15382175D02*
X17758232Y-15391699D01*
X17758232Y-15391699D02*
X17767756Y-15410747D01*
X17767756Y-15410747D02*
X17767756Y-15458366D01*
X17767756Y-15458366D02*
X17758232Y-15477413D01*
X17758232Y-15477413D02*
X17748708Y-15486937D01*
X17748708Y-15486937D02*
X17729661Y-15496461D01*
X17729661Y-15496461D02*
X17672518Y-15496461D01*
X17672518Y-15496461D02*
X17653470Y-15486937D01*
X17653470Y-15486937D02*
X17643947Y-15477413D01*
X18005851Y-15496461D02*
X18005851Y-15296461D01*
X18091566Y-15496461D02*
X18091566Y-15391699D01*
X18091566Y-15391699D02*
X18082042Y-15372651D01*
X18082042Y-15372651D02*
X18062994Y-15363127D01*
X18062994Y-15363127D02*
X18034423Y-15363127D01*
X18034423Y-15363127D02*
X18015375Y-15372651D01*
X18015375Y-15372651D02*
X18005851Y-15382175D01*
X18215375Y-15496461D02*
X18196328Y-15486937D01*
X18196328Y-15486937D02*
X18186804Y-15477413D01*
X18186804Y-15477413D02*
X18177280Y-15458366D01*
X18177280Y-15458366D02*
X18177280Y-15401223D01*
X18177280Y-15401223D02*
X18186804Y-15382175D01*
X18186804Y-15382175D02*
X18196328Y-15372651D01*
X18196328Y-15372651D02*
X18215375Y-15363127D01*
X18215375Y-15363127D02*
X18243947Y-15363127D01*
X18243947Y-15363127D02*
X18262994Y-15372651D01*
X18262994Y-15372651D02*
X18272518Y-15382175D01*
X18272518Y-15382175D02*
X18282042Y-15401223D01*
X18282042Y-15401223D02*
X18282042Y-15458366D01*
X18282042Y-15458366D02*
X18272518Y-15477413D01*
X18272518Y-15477413D02*
X18262994Y-15486937D01*
X18262994Y-15486937D02*
X18243947Y-15496461D01*
X18243947Y-15496461D02*
X18215375Y-15496461D01*
X18396328Y-15496461D02*
X18377280Y-15486937D01*
X18377280Y-15486937D02*
X18367756Y-15467889D01*
X18367756Y-15467889D02*
X18367756Y-15296461D01*
X18548709Y-15486937D02*
X18529661Y-15496461D01*
X18529661Y-15496461D02*
X18491566Y-15496461D01*
X18491566Y-15496461D02*
X18472518Y-15486937D01*
X18472518Y-15486937D02*
X18462994Y-15467889D01*
X18462994Y-15467889D02*
X18462994Y-15391699D01*
X18462994Y-15391699D02*
X18472518Y-15372651D01*
X18472518Y-15372651D02*
X18491566Y-15363127D01*
X18491566Y-15363127D02*
X18529661Y-15363127D01*
X18529661Y-15363127D02*
X18548709Y-15372651D01*
X18548709Y-15372651D02*
X18558232Y-15391699D01*
X18558232Y-15391699D02*
X18558232Y-15410747D01*
X18558232Y-15410747D02*
X18462994Y-15429794D01*
X18634423Y-15486937D02*
X18653470Y-15496461D01*
X18653470Y-15496461D02*
X18691566Y-15496461D01*
X18691566Y-15496461D02*
X18710613Y-15486937D01*
X18710613Y-15486937D02*
X18720137Y-15467889D01*
X18720137Y-15467889D02*
X18720137Y-15458366D01*
X18720137Y-15458366D02*
X18710613Y-15439318D01*
X18710613Y-15439318D02*
X18691566Y-15429794D01*
X18691566Y-15429794D02*
X18662994Y-15429794D01*
X18662994Y-15429794D02*
X18643947Y-15420270D01*
X18643947Y-15420270D02*
X18634423Y-15401223D01*
X18634423Y-15401223D02*
X18634423Y-15391699D01*
X18634423Y-15391699D02*
X18643947Y-15372651D01*
X18643947Y-15372651D02*
X18662994Y-15363127D01*
X18662994Y-15363127D02*
X18691566Y-15363127D01*
X18691566Y-15363127D02*
X18710613Y-15372651D01*
X18786804Y-15572651D02*
X18796328Y-15563127D01*
X18796328Y-15563127D02*
X18815375Y-15534556D01*
X18815375Y-15534556D02*
X18824899Y-15515508D01*
X18824899Y-15515508D02*
X18834423Y-15486937D01*
X18834423Y-15486937D02*
X18843947Y-15439318D01*
X18843947Y-15439318D02*
X18843947Y-15401223D01*
X18843947Y-15401223D02*
X18834423Y-15353604D01*
X18834423Y-15353604D02*
X18824899Y-15325032D01*
X18824899Y-15325032D02*
X18815375Y-15305985D01*
X18815375Y-15305985D02*
X18796328Y-15277413D01*
X18796328Y-15277413D02*
X18786804Y-15267889D01*
M02*
