%TF.GenerationSoftware,KiCad,Pcbnew,9.0.1*%
%TF.CreationDate,2025-06-05T13:01:30-07:00*%
%TF.ProjectId,chop-controller-heat,63686f70-2d63-46f6-9e74-726f6c6c6572,rev?*%
%TF.SameCoordinates,Original*%
%TF.FileFunction,Copper,L3,Inr*%
%TF.FilePolarity,Positive*%
%FSLAX46Y46*%
G04 Gerber Fmt 4.6, Leading zero omitted, Abs format (unit mm)*
G04 Created by KiCad (PCBNEW 9.0.1) date 2025-06-05 13:01:30*
%MOMM*%
%LPD*%
G01*
G04 APERTURE LIST*
G04 Aperture macros list*
%AMRoundRect*
0 Rectangle with rounded corners*
0 $1 Rounding radius*
0 $2 $3 $4 $5 $6 $7 $8 $9 X,Y pos of 4 corners*
0 Add a 4 corners polygon primitive as box body*
4,1,4,$2,$3,$4,$5,$6,$7,$8,$9,$2,$3,0*
0 Add four circle primitives for the rounded corners*
1,1,$1+$1,$2,$3*
1,1,$1+$1,$4,$5*
1,1,$1+$1,$6,$7*
1,1,$1+$1,$8,$9*
0 Add four rect primitives between the rounded corners*
20,1,$1+$1,$2,$3,$4,$5,0*
20,1,$1+$1,$4,$5,$6,$7,0*
20,1,$1+$1,$6,$7,$8,$9,0*
20,1,$1+$1,$8,$9,$2,$3,0*%
G04 Aperture macros list end*
%TA.AperFunction,ComponentPad*%
%ADD10R,1.500000X1.050000*%
%TD*%
%TA.AperFunction,ComponentPad*%
%ADD11O,1.500000X1.050000*%
%TD*%
%TA.AperFunction,ComponentPad*%
%ADD12RoundRect,0.250001X0.499999X-0.499999X0.499999X0.499999X-0.499999X0.499999X-0.499999X-0.499999X0*%
%TD*%
%TA.AperFunction,ComponentPad*%
%ADD13C,1.500000*%
%TD*%
%TA.AperFunction,ComponentPad*%
%ADD14C,1.440000*%
%TD*%
%TA.AperFunction,ComponentPad*%
%ADD15RoundRect,0.250560X-0.619440X-0.619440X0.619440X-0.619440X0.619440X0.619440X-0.619440X0.619440X0*%
%TD*%
%TA.AperFunction,ComponentPad*%
%ADD16C,1.740000*%
%TD*%
%TA.AperFunction,ComponentPad*%
%ADD17RoundRect,0.250001X-0.499999X0.499999X-0.499999X-0.499999X0.499999X-0.499999X0.499999X0.499999X0*%
%TD*%
%TA.AperFunction,ComponentPad*%
%ADD18C,3.000000*%
%TD*%
%TA.AperFunction,ComponentPad*%
%ADD19C,2.500000*%
%TD*%
%TA.AperFunction,ComponentPad*%
%ADD20RoundRect,0.250560X0.619440X0.619440X-0.619440X0.619440X-0.619440X-0.619440X0.619440X-0.619440X0*%
%TD*%
%TA.AperFunction,ViaPad*%
%ADD21C,0.800000*%
%TD*%
G04 APERTURE END LIST*
D10*
%TO.N,Net-(U18-VO)*%
%TO.C,U18*%
X111082638Y-84823323D03*
D11*
%TO.N,GNDREF*%
X111082638Y-86093323D03*
%TO.N,+3.3V*%
X111082638Y-87363323D03*
%TD*%
D12*
%TO.N,unconnected-(J11-Pin_1-Pad1)*%
%TO.C,J11*%
X95046800Y-80012800D03*
D13*
%TO.N,unconnected-(J11-Pin_2-Pad2)*%
X95046800Y-77012800D03*
%TO.N,/HL4_PWM_IN*%
X95046800Y-74012800D03*
%TO.N,/HL3_CS*%
X95046800Y-71012800D03*
%TO.N,/HL2_PWM_IN*%
X95046800Y-68012800D03*
%TO.N,/HL1_CS*%
X95046800Y-65012800D03*
%TO.N,/SCK_1*%
X95046800Y-62012800D03*
%TO.N,/SAFETY_CS*%
X98046800Y-80012800D03*
%TO.N,/HL4_CS*%
X98046800Y-77012800D03*
%TO.N,/HL3_PWM_IN*%
X98046800Y-74012800D03*
%TO.N,/HL2_CS*%
X98046800Y-71012800D03*
%TO.N,/HL1_PWM_IN*%
X98046800Y-68012800D03*
%TO.N,/MOSI_1*%
X98046800Y-65012800D03*
%TO.N,/MISO_1*%
X98046800Y-62012800D03*
%TD*%
D14*
%TO.N,Net-(U23-G1)*%
%TO.C,RV1*%
X121602638Y-77594323D03*
%TO.N,Net-(U19-+)*%
X121602638Y-75054323D03*
%TO.N,Net-(R52-Pad1)*%
X121602638Y-72514323D03*
%TD*%
D15*
%TO.N,/SAFETY_12V*%
%TO.C,J2*%
X150033638Y-62933323D03*
D16*
%TO.N,/MOSFET_HL2*%
X152573638Y-62933323D03*
%TO.N,/TC2-*%
X155143638Y-62933323D03*
%TO.N,/TC2+*%
X157683638Y-62933323D03*
%TD*%
D15*
%TO.N,/Safet Cutoff/TC_SAFETY-*%
%TO.C,J13*%
X107695638Y-62609323D03*
D16*
%TO.N,/Safet Cutoff/TC_SAFETY+*%
X110235638Y-62609323D03*
%TD*%
D17*
%TO.N,+24V*%
%TO.C,J12*%
X201804000Y-71800000D03*
D13*
%TO.N,+12V*%
X201804000Y-74800000D03*
%TO.N,+3.3V*%
X201804000Y-77800000D03*
%TO.N,GNDREF*%
X201804000Y-80800000D03*
%TO.N,+24V*%
X198804000Y-71800000D03*
%TO.N,+12V*%
X198804000Y-74800000D03*
%TO.N,+3.3V*%
X198804000Y-77800000D03*
%TO.N,GNDREF*%
X198804000Y-80800000D03*
%TD*%
D14*
%TO.N,+3.3V*%
%TO.C,RV2*%
X120322638Y-88887323D03*
%TO.N,/Safet Cutoff/V_CUTOFF*%
X122862638Y-88887323D03*
%TO.N,GNDREF*%
X125402638Y-88887323D03*
%TD*%
D18*
%TO.N,/SAFETY_12V*%
%TO.C,K1*%
X122618638Y-67923323D03*
D19*
%TO.N,Net-(D1-A)*%
X128668638Y-65973323D03*
D18*
%TO.N,Net-(K1-Pad3)*%
X128668638Y-53773323D03*
%TO.N,+12V*%
X116618638Y-53723323D03*
D19*
X116668638Y-65973323D03*
%TD*%
D15*
%TO.N,+12V*%
%TO.C,J4*%
X180843888Y-62984073D03*
D16*
%TO.N,/MOSFET_HL4*%
X183383888Y-62984073D03*
%TO.N,/TC4-*%
X185953888Y-62984073D03*
%TO.N,/TC4+*%
X188493888Y-62984073D03*
%TD*%
D20*
%TO.N,+24V*%
%TO.C,J3*%
X173130888Y-62984073D03*
D16*
%TO.N,/MOSFET_HL3*%
X170590888Y-62984073D03*
%TO.N,/TC3-*%
X168020888Y-62984073D03*
%TO.N,/TC3+*%
X165480888Y-62984073D03*
%TD*%
D20*
%TO.N,/SAFETY_12V*%
%TO.C,J1*%
X142447638Y-62933323D03*
D16*
%TO.N,/MOSFET_HL1*%
X139907638Y-62933323D03*
%TO.N,/TC1-*%
X137337638Y-62933323D03*
%TO.N,/TC1+*%
X134797638Y-62933323D03*
%TD*%
D21*
%TO.N,GNDREF*%
X191452638Y-74155323D03*
X163258638Y-70853323D03*
X117030638Y-71615323D03*
X167068638Y-79235323D03*
X140500238Y-72478923D03*
X178498638Y-73901323D03*
X125158638Y-71107323D03*
X170523038Y-72428123D03*
X179565438Y-78879723D03*
X138366638Y-79743323D03*
X105346638Y-66281323D03*
X148272638Y-72631323D03*
X193230638Y-63741323D03*
X130746638Y-70091323D03*
%TO.N,+3.3V*%
X113271438Y-74663323D03*
X193484638Y-68364123D03*
X131457838Y-73952123D03*
X164325438Y-65062123D03*
%TO.N,/HL1_PWM_IN*%
X130746638Y-80759323D03*
%TO.N,/HL2_PWM_IN*%
X130746638Y-81758826D03*
%TO.N,/HL3_PWM_IN*%
X130746638Y-84823323D03*
%TO.N,/HL4_PWM_IN*%
X130746638Y-85839323D03*
%TO.N,/HL4_CS*%
X130746638Y-87617323D03*
%TO.N,/HL3_CS*%
X130746638Y-83807323D03*
%TO.N,/HL2_CS*%
X130746638Y-82791323D03*
%TO.N,/HL1_CS*%
X130746638Y-79489323D03*
%TO.N,/MISO_1*%
X185102638Y-74409323D03*
X151320638Y-76441323D03*
X136461638Y-74282323D03*
X164020638Y-77457323D03*
%TO.N,/SCK_1*%
X153860638Y-65532000D03*
X132778638Y-72123323D03*
X184340638Y-66789323D03*
X162496638Y-72377323D03*
%TD*%
%TA.AperFunction,Conductor*%
%TO.N,GNDREF*%
G36*
X138417518Y-79350704D02*
G01*
X138469873Y-79361118D01*
X138493133Y-79368174D01*
X138542460Y-79388605D01*
X138563901Y-79400066D01*
X138608280Y-79429720D01*
X138627068Y-79445139D01*
X138664815Y-79482885D01*
X138680237Y-79501676D01*
X138709897Y-79546065D01*
X138721356Y-79567504D01*
X138741783Y-79616820D01*
X138748839Y-79640079D01*
X138759255Y-79692439D01*
X138761638Y-79716630D01*
X138761638Y-79770013D01*
X138759255Y-79794206D01*
X138748839Y-79846567D01*
X138741783Y-79869827D01*
X138721358Y-79919137D01*
X138709899Y-79940575D01*
X138680237Y-79984967D01*
X138664816Y-80003757D01*
X138627072Y-80041501D01*
X138608282Y-80056922D01*
X138563890Y-80086584D01*
X138542451Y-80098043D01*
X138493140Y-80118468D01*
X138469882Y-80125524D01*
X138450077Y-80129463D01*
X138417519Y-80135940D01*
X138393330Y-80138323D01*
X138339946Y-80138323D01*
X138315755Y-80135940D01*
X138263400Y-80125526D01*
X138240141Y-80118471D01*
X138190817Y-80098040D01*
X138169381Y-80086582D01*
X138124990Y-80056921D01*
X138106204Y-80041503D01*
X138068461Y-80003761D01*
X138053041Y-79984972D01*
X138023375Y-79940574D01*
X138011916Y-79919136D01*
X137991487Y-79869815D01*
X137984436Y-79846571D01*
X137974019Y-79794202D01*
X137971638Y-79770017D01*
X137971638Y-79716630D01*
X137974020Y-79692441D01*
X137984433Y-79640087D01*
X137991489Y-79616825D01*
X137997091Y-79603300D01*
X138011921Y-79567494D01*
X138023377Y-79546063D01*
X138053039Y-79501672D01*
X138068450Y-79482894D01*
X138106201Y-79445142D01*
X138124986Y-79429726D01*
X138130340Y-79426149D01*
X138169384Y-79400060D01*
X138190819Y-79388602D01*
X138240138Y-79368174D01*
X138263395Y-79361119D01*
X138289576Y-79355912D01*
X138315756Y-79350705D01*
X138339945Y-79348323D01*
X138393329Y-79348323D01*
X138417518Y-79350704D01*
G37*
%TD.AperFunction*%
%TA.AperFunction,Conductor*%
G36*
X167119519Y-78842705D02*
G01*
X167171873Y-78853118D01*
X167195133Y-78860174D01*
X167244460Y-78880605D01*
X167265899Y-78892065D01*
X167310280Y-78921720D01*
X167329068Y-78937139D01*
X167366814Y-78974884D01*
X167382235Y-78993674D01*
X167411897Y-79038065D01*
X167423354Y-79059498D01*
X167425892Y-79065625D01*
X167425893Y-79065629D01*
X167425894Y-79065629D01*
X167443784Y-79108821D01*
X167450839Y-79132078D01*
X167459954Y-79177901D01*
X167461255Y-79184437D01*
X167463638Y-79208630D01*
X167463638Y-79262013D01*
X167461255Y-79286206D01*
X167450839Y-79338567D01*
X167443783Y-79361827D01*
X167423358Y-79411137D01*
X167411899Y-79432575D01*
X167382237Y-79476967D01*
X167366816Y-79495757D01*
X167329072Y-79533501D01*
X167310282Y-79548922D01*
X167265890Y-79578584D01*
X167244451Y-79590043D01*
X167195140Y-79610468D01*
X167171882Y-79617524D01*
X167152077Y-79621463D01*
X167119519Y-79627940D01*
X167095330Y-79630323D01*
X167041946Y-79630323D01*
X167017755Y-79627940D01*
X166965400Y-79617526D01*
X166942141Y-79610471D01*
X166892817Y-79590040D01*
X166871381Y-79578582D01*
X166826990Y-79548921D01*
X166808204Y-79533503D01*
X166770461Y-79495761D01*
X166755041Y-79476972D01*
X166725375Y-79432574D01*
X166713916Y-79411136D01*
X166709331Y-79400066D01*
X166693487Y-79361815D01*
X166686436Y-79338571D01*
X166676019Y-79286202D01*
X166673638Y-79262017D01*
X166673638Y-79208630D01*
X166676020Y-79184441D01*
X166686433Y-79132087D01*
X166693489Y-79108825D01*
X166710886Y-79066824D01*
X166713921Y-79059494D01*
X166725377Y-79038063D01*
X166755039Y-78993672D01*
X166770450Y-78974894D01*
X166808201Y-78937142D01*
X166826986Y-78921726D01*
X166831620Y-78918630D01*
X166871384Y-78892060D01*
X166892819Y-78880602D01*
X166942138Y-78860174D01*
X166965395Y-78853119D01*
X166991576Y-78847912D01*
X167017756Y-78842705D01*
X167041945Y-78840323D01*
X167095329Y-78840323D01*
X167119519Y-78842705D01*
G37*
%TD.AperFunction*%
%TA.AperFunction,Conductor*%
G36*
X179616318Y-78487104D02*
G01*
X179668673Y-78497518D01*
X179691933Y-78504574D01*
X179741260Y-78525005D01*
X179762701Y-78536466D01*
X179807080Y-78566120D01*
X179825868Y-78581539D01*
X179863612Y-78619282D01*
X179879034Y-78638073D01*
X179908698Y-78682468D01*
X179920157Y-78703906D01*
X179940583Y-78753219D01*
X179947639Y-78776479D01*
X179958055Y-78828839D01*
X179960438Y-78853032D01*
X179960438Y-78906412D01*
X179958055Y-78930604D01*
X179947639Y-78982966D01*
X179940584Y-79006223D01*
X179940583Y-79006227D01*
X179920158Y-79055537D01*
X179908699Y-79076975D01*
X179879037Y-79121367D01*
X179863616Y-79140157D01*
X179825872Y-79177901D01*
X179807082Y-79193322D01*
X179762690Y-79222984D01*
X179741251Y-79234443D01*
X179691940Y-79254868D01*
X179668682Y-79261924D01*
X179648877Y-79265863D01*
X179616319Y-79272340D01*
X179592130Y-79274723D01*
X179538746Y-79274723D01*
X179514555Y-79272340D01*
X179488377Y-79267133D01*
X179462199Y-79261925D01*
X179438941Y-79254871D01*
X179389617Y-79234440D01*
X179368181Y-79222982D01*
X179323790Y-79193321D01*
X179305004Y-79177903D01*
X179267261Y-79140161D01*
X179251841Y-79121372D01*
X179222175Y-79076974D01*
X179210716Y-79055536D01*
X179190287Y-79006215D01*
X179183235Y-78982966D01*
X179172819Y-78930602D01*
X179170438Y-78906417D01*
X179170438Y-78853030D01*
X179172820Y-78828841D01*
X179183233Y-78776487D01*
X179190289Y-78753225D01*
X179210721Y-78703894D01*
X179222177Y-78682463D01*
X179251839Y-78638072D01*
X179267250Y-78619294D01*
X179305001Y-78581542D01*
X179323786Y-78566126D01*
X179368184Y-78536460D01*
X179389619Y-78525002D01*
X179438938Y-78504574D01*
X179462195Y-78497519D01*
X179488376Y-78492312D01*
X179514556Y-78487105D01*
X179538745Y-78484723D01*
X179592129Y-78484723D01*
X179616318Y-78487104D01*
G37*
%TD.AperFunction*%
%TA.AperFunction,Conductor*%
G36*
X191503518Y-73762704D02*
G01*
X191555873Y-73773118D01*
X191579133Y-73780174D01*
X191628460Y-73800605D01*
X191649901Y-73812066D01*
X191694280Y-73841720D01*
X191713068Y-73857139D01*
X191750812Y-73894882D01*
X191766234Y-73913673D01*
X191795898Y-73958068D01*
X191807356Y-73979505D01*
X191817737Y-74004567D01*
X191827783Y-74028819D01*
X191834839Y-74052079D01*
X191845255Y-74104439D01*
X191847638Y-74128632D01*
X191847638Y-74182013D01*
X191845255Y-74206206D01*
X191834839Y-74258567D01*
X191827784Y-74281823D01*
X191827783Y-74281827D01*
X191807358Y-74331137D01*
X191795899Y-74352575D01*
X191766236Y-74396969D01*
X191750814Y-74415760D01*
X191713072Y-74453501D01*
X191694284Y-74468921D01*
X191649891Y-74498584D01*
X191628451Y-74510043D01*
X191579140Y-74530468D01*
X191555882Y-74537524D01*
X191536077Y-74541463D01*
X191503519Y-74547940D01*
X191479330Y-74550323D01*
X191425946Y-74550323D01*
X191401755Y-74547940D01*
X191349400Y-74537526D01*
X191326141Y-74530471D01*
X191276817Y-74510040D01*
X191255381Y-74498582D01*
X191210990Y-74468921D01*
X191192204Y-74453503D01*
X191154460Y-74415760D01*
X191139041Y-74396972D01*
X191109375Y-74352574D01*
X191097916Y-74331136D01*
X191077487Y-74281815D01*
X191070436Y-74258571D01*
X191060019Y-74206202D01*
X191057638Y-74182017D01*
X191057638Y-74128630D01*
X191060020Y-74104441D01*
X191070433Y-74052087D01*
X191077489Y-74028825D01*
X191097921Y-73979494D01*
X191109377Y-73958063D01*
X191139039Y-73913672D01*
X191154450Y-73894894D01*
X191192201Y-73857142D01*
X191210986Y-73841726D01*
X191255384Y-73812060D01*
X191276819Y-73800602D01*
X191326138Y-73780174D01*
X191349395Y-73773119D01*
X191375576Y-73767912D01*
X191401756Y-73762705D01*
X191425945Y-73760323D01*
X191479329Y-73760323D01*
X191503518Y-73762704D01*
G37*
%TD.AperFunction*%
%TA.AperFunction,Conductor*%
G36*
X178549518Y-73508704D02*
G01*
X178601873Y-73519118D01*
X178625133Y-73526174D01*
X178674460Y-73546605D01*
X178695901Y-73558066D01*
X178740280Y-73587720D01*
X178759068Y-73603139D01*
X178796812Y-73640882D01*
X178812234Y-73659673D01*
X178841898Y-73704068D01*
X178853356Y-73725505D01*
X178867778Y-73760323D01*
X178873783Y-73774819D01*
X178880839Y-73798079D01*
X178886154Y-73824798D01*
X178889520Y-73841720D01*
X178891255Y-73850439D01*
X178893638Y-73874632D01*
X178893638Y-73928013D01*
X178891255Y-73952206D01*
X178880839Y-74004567D01*
X178873784Y-74027823D01*
X178873783Y-74027827D01*
X178853358Y-74077137D01*
X178841899Y-74098575D01*
X178812237Y-74142967D01*
X178796816Y-74161757D01*
X178759070Y-74199503D01*
X178740287Y-74214919D01*
X178726251Y-74224299D01*
X178726240Y-74224307D01*
X178695891Y-74244584D01*
X178674456Y-74256040D01*
X178625138Y-74276468D01*
X178601881Y-74283524D01*
X178579950Y-74287886D01*
X178549518Y-74293940D01*
X178525330Y-74296323D01*
X178471946Y-74296323D01*
X178447755Y-74293940D01*
X178395400Y-74283526D01*
X178372141Y-74276471D01*
X178322817Y-74256040D01*
X178301381Y-74244582D01*
X178256990Y-74214921D01*
X178238204Y-74199503D01*
X178200461Y-74161761D01*
X178185041Y-74142972D01*
X178155375Y-74098574D01*
X178143916Y-74077136D01*
X178123487Y-74027815D01*
X178116436Y-74004571D01*
X178106019Y-73952202D01*
X178103638Y-73928017D01*
X178103638Y-73874630D01*
X178106020Y-73850441D01*
X178116433Y-73798087D01*
X178123489Y-73774825D01*
X178143921Y-73725494D01*
X178155377Y-73704063D01*
X178185039Y-73659672D01*
X178200450Y-73640894D01*
X178238201Y-73603142D01*
X178256986Y-73587726D01*
X178301384Y-73558060D01*
X178322819Y-73546602D01*
X178372138Y-73526174D01*
X178395395Y-73519119D01*
X178421576Y-73513912D01*
X178447756Y-73508705D01*
X178471945Y-73506323D01*
X178525329Y-73506323D01*
X178549518Y-73508704D01*
G37*
%TD.AperFunction*%
%TA.AperFunction,Conductor*%
G36*
X148323518Y-72238704D02*
G01*
X148375873Y-72249118D01*
X148399133Y-72256174D01*
X148448460Y-72276605D01*
X148469895Y-72288062D01*
X148514282Y-72317721D01*
X148533067Y-72333139D01*
X148538342Y-72338414D01*
X148538343Y-72338414D01*
X148538345Y-72338416D01*
X148570815Y-72370885D01*
X148586233Y-72389672D01*
X148615898Y-72434069D01*
X148627357Y-72455508D01*
X148647783Y-72504822D01*
X148654839Y-72528079D01*
X148665255Y-72580440D01*
X148667638Y-72604630D01*
X148667638Y-72658013D01*
X148665255Y-72682206D01*
X148654839Y-72734567D01*
X148647784Y-72757823D01*
X148647783Y-72757827D01*
X148627358Y-72807137D01*
X148615899Y-72828575D01*
X148586237Y-72872967D01*
X148570816Y-72891757D01*
X148533072Y-72929501D01*
X148514282Y-72944922D01*
X148469890Y-72974584D01*
X148448451Y-72986043D01*
X148399140Y-73006468D01*
X148375882Y-73013524D01*
X148356077Y-73017463D01*
X148323519Y-73023940D01*
X148299330Y-73026323D01*
X148245946Y-73026323D01*
X148221755Y-73023940D01*
X148169400Y-73013526D01*
X148146141Y-73006471D01*
X148096817Y-72986040D01*
X148075381Y-72974582D01*
X148030990Y-72944921D01*
X148012204Y-72929503D01*
X147974461Y-72891761D01*
X147959041Y-72872972D01*
X147929375Y-72828574D01*
X147917916Y-72807136D01*
X147911863Y-72792522D01*
X147897487Y-72757815D01*
X147890436Y-72734571D01*
X147880019Y-72682202D01*
X147877638Y-72658017D01*
X147877638Y-72604630D01*
X147880020Y-72580441D01*
X147887399Y-72543343D01*
X147890435Y-72528079D01*
X147897489Y-72504825D01*
X147917920Y-72455498D01*
X147929377Y-72434063D01*
X147959039Y-72389672D01*
X147974450Y-72370894D01*
X148012201Y-72333142D01*
X148030986Y-72317726D01*
X148030997Y-72317719D01*
X148075384Y-72288060D01*
X148096819Y-72276602D01*
X148146138Y-72256174D01*
X148169395Y-72249119D01*
X148195576Y-72243912D01*
X148221756Y-72238705D01*
X148245945Y-72236323D01*
X148299329Y-72236323D01*
X148323518Y-72238704D01*
G37*
%TD.AperFunction*%
%TA.AperFunction,Conductor*%
G36*
X140551118Y-72086304D02*
G01*
X140603473Y-72096718D01*
X140626733Y-72103774D01*
X140676060Y-72124205D01*
X140697501Y-72135666D01*
X140741880Y-72165320D01*
X140760668Y-72180739D01*
X140798412Y-72218482D01*
X140813834Y-72237273D01*
X140843498Y-72281668D01*
X140854957Y-72303106D01*
X140875383Y-72352419D01*
X140882439Y-72375679D01*
X140892855Y-72428039D01*
X140895238Y-72452230D01*
X140895238Y-72505614D01*
X140892855Y-72529804D01*
X140887918Y-72554627D01*
X140882441Y-72582160D01*
X140875384Y-72605422D01*
X140854955Y-72654740D01*
X140843498Y-72676176D01*
X140813838Y-72720566D01*
X140798416Y-72739357D01*
X140760672Y-72777101D01*
X140741882Y-72792522D01*
X140697490Y-72822184D01*
X140676051Y-72833643D01*
X140626740Y-72854068D01*
X140603482Y-72861124D01*
X140583677Y-72865063D01*
X140551119Y-72871540D01*
X140526930Y-72873923D01*
X140473546Y-72873923D01*
X140449355Y-72871540D01*
X140397000Y-72861126D01*
X140373741Y-72854071D01*
X140324417Y-72833640D01*
X140302981Y-72822182D01*
X140258590Y-72792521D01*
X140239804Y-72777103D01*
X140202061Y-72739361D01*
X140186641Y-72720572D01*
X140156975Y-72676174D01*
X140145516Y-72654736D01*
X140125087Y-72605415D01*
X140118036Y-72582171D01*
X140107619Y-72529802D01*
X140105238Y-72505617D01*
X140105238Y-72452230D01*
X140107620Y-72428041D01*
X140115250Y-72389678D01*
X140118035Y-72375679D01*
X140125089Y-72352425D01*
X140145521Y-72303094D01*
X140156977Y-72281663D01*
X140186639Y-72237272D01*
X140202050Y-72218494D01*
X140239801Y-72180742D01*
X140258586Y-72165326D01*
X140302984Y-72135660D01*
X140324419Y-72124202D01*
X140373738Y-72103774D01*
X140396995Y-72096719D01*
X140423176Y-72091512D01*
X140449356Y-72086305D01*
X140473545Y-72083923D01*
X140526929Y-72083923D01*
X140551118Y-72086304D01*
G37*
%TD.AperFunction*%
%TA.AperFunction,Conductor*%
G36*
X170573918Y-72035504D02*
G01*
X170626273Y-72045918D01*
X170649533Y-72052974D01*
X170698860Y-72073405D01*
X170720299Y-72084865D01*
X170748598Y-72103774D01*
X170764680Y-72114520D01*
X170783468Y-72129939D01*
X170821212Y-72167682D01*
X170836634Y-72186473D01*
X170866298Y-72230868D01*
X170877756Y-72252305D01*
X170892566Y-72288060D01*
X170898183Y-72301619D01*
X170905239Y-72324880D01*
X170906882Y-72333139D01*
X170911330Y-72355500D01*
X170914392Y-72370890D01*
X170915655Y-72377240D01*
X170918038Y-72401434D01*
X170918038Y-72454813D01*
X170915655Y-72479006D01*
X170905239Y-72531367D01*
X170898184Y-72554623D01*
X170898183Y-72554627D01*
X170877758Y-72603937D01*
X170866299Y-72625375D01*
X170836637Y-72669767D01*
X170821216Y-72688557D01*
X170783472Y-72726301D01*
X170764682Y-72741722D01*
X170720290Y-72771384D01*
X170698851Y-72782843D01*
X170649540Y-72803268D01*
X170626282Y-72810324D01*
X170606477Y-72814263D01*
X170573919Y-72820740D01*
X170549730Y-72823123D01*
X170496346Y-72823123D01*
X170472155Y-72820740D01*
X170419800Y-72810326D01*
X170396541Y-72803271D01*
X170347217Y-72782840D01*
X170325781Y-72771382D01*
X170281390Y-72741721D01*
X170262604Y-72726303D01*
X170224861Y-72688561D01*
X170209441Y-72669772D01*
X170179775Y-72625374D01*
X170168316Y-72603936D01*
X170164260Y-72594143D01*
X170147887Y-72554615D01*
X170140836Y-72531371D01*
X170130419Y-72479002D01*
X170128038Y-72454817D01*
X170128038Y-72401430D01*
X170130420Y-72377241D01*
X170140833Y-72324887D01*
X170147889Y-72301625D01*
X170168321Y-72252294D01*
X170179777Y-72230863D01*
X170209439Y-72186472D01*
X170224850Y-72167694D01*
X170262601Y-72129942D01*
X170281386Y-72114526D01*
X170325784Y-72084860D01*
X170347219Y-72073402D01*
X170396538Y-72052974D01*
X170419795Y-72045919D01*
X170445976Y-72040712D01*
X170472156Y-72035505D01*
X170496345Y-72033123D01*
X170549729Y-72033123D01*
X170573918Y-72035504D01*
G37*
%TD.AperFunction*%
%TA.AperFunction,Conductor*%
G36*
X117081518Y-71222704D02*
G01*
X117133873Y-71233118D01*
X117157133Y-71240174D01*
X117206460Y-71260605D01*
X117227901Y-71272066D01*
X117272280Y-71301720D01*
X117291068Y-71317139D01*
X117328815Y-71354885D01*
X117344237Y-71373676D01*
X117373897Y-71418065D01*
X117385356Y-71439504D01*
X117405783Y-71488820D01*
X117412839Y-71512079D01*
X117423255Y-71564439D01*
X117425638Y-71588632D01*
X117425638Y-71642013D01*
X117423255Y-71666206D01*
X117412839Y-71718566D01*
X117405784Y-71741823D01*
X117405783Y-71741825D01*
X117385358Y-71791136D01*
X117373899Y-71812575D01*
X117344237Y-71856967D01*
X117328816Y-71875757D01*
X117291072Y-71913501D01*
X117272282Y-71928922D01*
X117227890Y-71958584D01*
X117206451Y-71970043D01*
X117157140Y-71990468D01*
X117133882Y-71997524D01*
X117114077Y-72001463D01*
X117081519Y-72007940D01*
X117057330Y-72010323D01*
X117003946Y-72010323D01*
X116979755Y-72007940D01*
X116927400Y-71997526D01*
X116904141Y-71990471D01*
X116854817Y-71970040D01*
X116833381Y-71958582D01*
X116788990Y-71928921D01*
X116770204Y-71913503D01*
X116732461Y-71875761D01*
X116717041Y-71856972D01*
X116687375Y-71812574D01*
X116675916Y-71791136D01*
X116655487Y-71741815D01*
X116648435Y-71718566D01*
X116638019Y-71666202D01*
X116635638Y-71642017D01*
X116635638Y-71588630D01*
X116638020Y-71564441D01*
X116648433Y-71512087D01*
X116655489Y-71488825D01*
X116668519Y-71457367D01*
X116675921Y-71439494D01*
X116687377Y-71418063D01*
X116717039Y-71373672D01*
X116732450Y-71354894D01*
X116770201Y-71317142D01*
X116788986Y-71301726D01*
X116833384Y-71272060D01*
X116854819Y-71260602D01*
X116904138Y-71240174D01*
X116927395Y-71233119D01*
X116953576Y-71227912D01*
X116979756Y-71222705D01*
X117003945Y-71220323D01*
X117057329Y-71220323D01*
X117081518Y-71222704D01*
G37*
%TD.AperFunction*%
%TA.AperFunction,Conductor*%
G36*
X125209518Y-70714704D02*
G01*
X125261873Y-70725118D01*
X125285133Y-70732174D01*
X125334460Y-70752605D01*
X125355895Y-70764062D01*
X125400282Y-70793721D01*
X125419067Y-70809139D01*
X125424342Y-70814414D01*
X125424343Y-70814414D01*
X125424345Y-70814416D01*
X125456817Y-70846887D01*
X125472233Y-70865672D01*
X125473162Y-70867062D01*
X125501898Y-70910068D01*
X125513352Y-70931498D01*
X125513357Y-70931507D01*
X125533784Y-70980823D01*
X125540840Y-71004081D01*
X125551255Y-71056435D01*
X125553638Y-71080629D01*
X125553638Y-71134013D01*
X125551255Y-71158206D01*
X125540839Y-71210567D01*
X125533784Y-71233823D01*
X125533783Y-71233827D01*
X125513358Y-71283137D01*
X125501899Y-71304575D01*
X125472237Y-71348967D01*
X125456816Y-71367757D01*
X125419072Y-71405501D01*
X125400282Y-71420922D01*
X125355890Y-71450584D01*
X125334451Y-71462043D01*
X125285140Y-71482468D01*
X125261882Y-71489524D01*
X125242077Y-71493463D01*
X125209519Y-71499940D01*
X125185330Y-71502323D01*
X125131946Y-71502323D01*
X125107755Y-71499940D01*
X125055400Y-71489526D01*
X125032141Y-71482471D01*
X124982817Y-71462040D01*
X124961381Y-71450582D01*
X124916990Y-71420921D01*
X124898204Y-71405503D01*
X124860461Y-71367761D01*
X124845041Y-71348972D01*
X124815375Y-71304574D01*
X124803916Y-71283136D01*
X124799331Y-71272066D01*
X124783487Y-71233815D01*
X124776436Y-71210571D01*
X124766019Y-71158202D01*
X124763638Y-71134017D01*
X124763638Y-71080630D01*
X124766020Y-71056441D01*
X124776433Y-71004087D01*
X124783489Y-70980825D01*
X124793537Y-70956567D01*
X124803921Y-70931494D01*
X124815377Y-70910063D01*
X124845039Y-70865672D01*
X124860450Y-70846894D01*
X124898201Y-70809142D01*
X124916986Y-70793726D01*
X124916997Y-70793719D01*
X124961384Y-70764060D01*
X124982819Y-70752602D01*
X125032138Y-70732174D01*
X125055395Y-70725119D01*
X125081576Y-70719912D01*
X125107756Y-70714705D01*
X125131945Y-70712323D01*
X125185329Y-70712323D01*
X125209518Y-70714704D01*
G37*
%TD.AperFunction*%
%TA.AperFunction,Conductor*%
G36*
X163309518Y-70460704D02*
G01*
X163361873Y-70471118D01*
X163385133Y-70478174D01*
X163434460Y-70498605D01*
X163455901Y-70510066D01*
X163500280Y-70539720D01*
X163519068Y-70555139D01*
X163556812Y-70592882D01*
X163572234Y-70611673D01*
X163601898Y-70656068D01*
X163613356Y-70677505D01*
X163627778Y-70712323D01*
X163633783Y-70726819D01*
X163640839Y-70750079D01*
X163651255Y-70802439D01*
X163653638Y-70826632D01*
X163653638Y-70880013D01*
X163651255Y-70904206D01*
X163640839Y-70956567D01*
X163633784Y-70979823D01*
X163633783Y-70979827D01*
X163613358Y-71029137D01*
X163601899Y-71050575D01*
X163572237Y-71094967D01*
X163556816Y-71113757D01*
X163519072Y-71151501D01*
X163500282Y-71166922D01*
X163455890Y-71196584D01*
X163434452Y-71208043D01*
X163385142Y-71228468D01*
X163361882Y-71235524D01*
X163316761Y-71244500D01*
X163316760Y-71244499D01*
X163309526Y-71245939D01*
X163285330Y-71248323D01*
X163231946Y-71248323D01*
X163207755Y-71245940D01*
X163155400Y-71235526D01*
X163132141Y-71228471D01*
X163082817Y-71208040D01*
X163061381Y-71196582D01*
X163016990Y-71166921D01*
X162998204Y-71151503D01*
X162960461Y-71113761D01*
X162945041Y-71094972D01*
X162915375Y-71050574D01*
X162903916Y-71029136D01*
X162883487Y-70979815D01*
X162876436Y-70956571D01*
X162866019Y-70904202D01*
X162863638Y-70880017D01*
X162863638Y-70826630D01*
X162866020Y-70802441D01*
X162876433Y-70750087D01*
X162883489Y-70726825D01*
X162903921Y-70677494D01*
X162915377Y-70656063D01*
X162945039Y-70611672D01*
X162960450Y-70592894D01*
X162998201Y-70555142D01*
X163016986Y-70539726D01*
X163061384Y-70510060D01*
X163082819Y-70498602D01*
X163132138Y-70478174D01*
X163155395Y-70471119D01*
X163181576Y-70465912D01*
X163207756Y-70460705D01*
X163231945Y-70458323D01*
X163285329Y-70458323D01*
X163309518Y-70460704D01*
G37*
%TD.AperFunction*%
%TA.AperFunction,Conductor*%
G36*
X130797518Y-69698704D02*
G01*
X130849873Y-69709118D01*
X130873133Y-69716174D01*
X130922460Y-69736605D01*
X130943901Y-69748066D01*
X130988280Y-69777720D01*
X131007068Y-69793139D01*
X131044812Y-69830882D01*
X131060234Y-69849673D01*
X131089898Y-69894068D01*
X131101356Y-69915505D01*
X131120739Y-69962300D01*
X131121783Y-69964819D01*
X131128839Y-69988079D01*
X131139255Y-70040439D01*
X131141638Y-70064632D01*
X131141638Y-70118013D01*
X131139255Y-70142206D01*
X131128839Y-70194567D01*
X131121784Y-70217823D01*
X131121783Y-70217827D01*
X131101358Y-70267137D01*
X131089899Y-70288575D01*
X131060237Y-70332967D01*
X131044816Y-70351757D01*
X131007072Y-70389501D01*
X130988282Y-70404922D01*
X130943890Y-70434584D01*
X130922451Y-70446043D01*
X130873140Y-70466468D01*
X130849882Y-70473524D01*
X130830077Y-70477463D01*
X130797519Y-70483940D01*
X130773330Y-70486323D01*
X130719946Y-70486323D01*
X130695755Y-70483940D01*
X130643400Y-70473526D01*
X130620141Y-70466471D01*
X130570817Y-70446040D01*
X130549381Y-70434582D01*
X130504990Y-70404921D01*
X130486204Y-70389503D01*
X130448461Y-70351761D01*
X130433041Y-70332972D01*
X130403375Y-70288574D01*
X130391916Y-70267136D01*
X130371487Y-70217815D01*
X130364436Y-70194571D01*
X130354019Y-70142202D01*
X130351638Y-70118017D01*
X130351638Y-70064630D01*
X130354020Y-70040441D01*
X130359133Y-70014732D01*
X130364435Y-69988079D01*
X130371489Y-69964825D01*
X130391921Y-69915494D01*
X130403377Y-69894063D01*
X130433039Y-69849672D01*
X130448450Y-69830894D01*
X130486201Y-69793142D01*
X130504986Y-69777726D01*
X130549384Y-69748060D01*
X130570819Y-69736602D01*
X130620138Y-69716174D01*
X130643395Y-69709119D01*
X130669576Y-69703912D01*
X130695756Y-69698705D01*
X130719945Y-69696323D01*
X130773329Y-69696323D01*
X130797518Y-69698704D01*
G37*
%TD.AperFunction*%
%TA.AperFunction,Conductor*%
G36*
X105397518Y-65888704D02*
G01*
X105449873Y-65899118D01*
X105473133Y-65906174D01*
X105522460Y-65926605D01*
X105543901Y-65938066D01*
X105588280Y-65967720D01*
X105607068Y-65983139D01*
X105644815Y-66020885D01*
X105660237Y-66039676D01*
X105689897Y-66084065D01*
X105701356Y-66105504D01*
X105721783Y-66154820D01*
X105728839Y-66178079D01*
X105739255Y-66230439D01*
X105741638Y-66254630D01*
X105741638Y-66308012D01*
X105739255Y-66332204D01*
X105728839Y-66384566D01*
X105721783Y-66407827D01*
X105701358Y-66457137D01*
X105689899Y-66478575D01*
X105660237Y-66522967D01*
X105644816Y-66541757D01*
X105607072Y-66579501D01*
X105588282Y-66594922D01*
X105543890Y-66624584D01*
X105522451Y-66636043D01*
X105473140Y-66656468D01*
X105449882Y-66663524D01*
X105430077Y-66667463D01*
X105397519Y-66673940D01*
X105373330Y-66676323D01*
X105319946Y-66676323D01*
X105295755Y-66673940D01*
X105243400Y-66663526D01*
X105220141Y-66656471D01*
X105170817Y-66636040D01*
X105149381Y-66624582D01*
X105104990Y-66594921D01*
X105086204Y-66579503D01*
X105048461Y-66541761D01*
X105033041Y-66522972D01*
X105003375Y-66478574D01*
X104991916Y-66457136D01*
X104971487Y-66407815D01*
X104964435Y-66384566D01*
X104954019Y-66332202D01*
X104951638Y-66308017D01*
X104951638Y-66254630D01*
X104954020Y-66230441D01*
X104964433Y-66178087D01*
X104971489Y-66154825D01*
X104991920Y-66105498D01*
X105003377Y-66084063D01*
X105033039Y-66039672D01*
X105048450Y-66020894D01*
X105086201Y-65983142D01*
X105104986Y-65967726D01*
X105149384Y-65938060D01*
X105170819Y-65926602D01*
X105220138Y-65906174D01*
X105243395Y-65899119D01*
X105269576Y-65893912D01*
X105295756Y-65888705D01*
X105319945Y-65886323D01*
X105373329Y-65886323D01*
X105397518Y-65888704D01*
G37*
%TD.AperFunction*%
%TA.AperFunction,Conductor*%
G36*
X193281518Y-63348704D02*
G01*
X193333873Y-63359118D01*
X193357133Y-63366174D01*
X193406460Y-63386605D01*
X193427901Y-63398066D01*
X193472280Y-63427720D01*
X193491068Y-63443139D01*
X193528812Y-63480882D01*
X193544234Y-63499673D01*
X193573898Y-63544068D01*
X193585357Y-63565506D01*
X193605783Y-63614819D01*
X193612839Y-63638079D01*
X193623255Y-63690439D01*
X193625638Y-63714632D01*
X193625638Y-63768013D01*
X193623255Y-63792206D01*
X193612839Y-63844567D01*
X193605784Y-63867823D01*
X193605783Y-63867827D01*
X193585358Y-63917137D01*
X193573899Y-63938575D01*
X193544237Y-63982967D01*
X193528816Y-64001757D01*
X193491072Y-64039501D01*
X193472282Y-64054922D01*
X193427890Y-64084584D01*
X193406451Y-64096043D01*
X193357140Y-64116468D01*
X193333882Y-64123524D01*
X193314077Y-64127463D01*
X193281519Y-64133940D01*
X193257330Y-64136323D01*
X193203946Y-64136323D01*
X193179755Y-64133940D01*
X193127400Y-64123526D01*
X193104141Y-64116471D01*
X193054817Y-64096040D01*
X193033381Y-64084582D01*
X192988990Y-64054921D01*
X192970204Y-64039503D01*
X192932461Y-64001761D01*
X192917041Y-63982972D01*
X192887375Y-63938574D01*
X192875916Y-63917136D01*
X192855487Y-63867815D01*
X192848436Y-63844571D01*
X192838019Y-63792202D01*
X192835638Y-63768017D01*
X192835638Y-63714630D01*
X192838020Y-63690441D01*
X192848433Y-63638087D01*
X192855489Y-63614825D01*
X192875921Y-63565494D01*
X192887377Y-63544063D01*
X192917039Y-63499672D01*
X192932450Y-63480894D01*
X192970201Y-63443142D01*
X192988986Y-63427726D01*
X193033384Y-63398060D01*
X193054819Y-63386602D01*
X193104138Y-63366174D01*
X193127395Y-63359119D01*
X193153576Y-63353912D01*
X193179756Y-63348705D01*
X193203945Y-63346323D01*
X193257329Y-63346323D01*
X193281518Y-63348704D01*
G37*
%TD.AperFunction*%
%TD*%
%TA.AperFunction,Conductor*%
%TO.N,+24V*%
G36*
X203285839Y-48935508D02*
G01*
X203331594Y-48988312D01*
X203342800Y-49039823D01*
X203342800Y-104570823D01*
X203323115Y-104637862D01*
X203270311Y-104683617D01*
X203218800Y-104694823D01*
X102141200Y-104694823D01*
X102074161Y-104675138D01*
X102028406Y-104622334D01*
X102017200Y-104570823D01*
X102017200Y-88786807D01*
X119302138Y-88786807D01*
X119302138Y-88987838D01*
X119341353Y-89184984D01*
X119341356Y-89184996D01*
X119418278Y-89370704D01*
X119418285Y-89370717D01*
X119529963Y-89537853D01*
X119529966Y-89537857D01*
X119672103Y-89679994D01*
X119672107Y-89679997D01*
X119839243Y-89791675D01*
X119839256Y-89791682D01*
X120024964Y-89868604D01*
X120024969Y-89868606D01*
X120222122Y-89907822D01*
X120222126Y-89907823D01*
X120222127Y-89907823D01*
X120423150Y-89907823D01*
X120423151Y-89907822D01*
X120620307Y-89868606D01*
X120806026Y-89791679D01*
X120973169Y-89679997D01*
X121115312Y-89537854D01*
X121226994Y-89370711D01*
X121303921Y-89184992D01*
X121343138Y-88987834D01*
X121343138Y-88786812D01*
X121343137Y-88786807D01*
X121842138Y-88786807D01*
X121842138Y-88987838D01*
X121881353Y-89184984D01*
X121881356Y-89184996D01*
X121958278Y-89370704D01*
X121958285Y-89370717D01*
X122069963Y-89537853D01*
X122069966Y-89537857D01*
X122212103Y-89679994D01*
X122212107Y-89679997D01*
X122379243Y-89791675D01*
X122379256Y-89791682D01*
X122564964Y-89868604D01*
X122564969Y-89868606D01*
X122762122Y-89907822D01*
X122762126Y-89907823D01*
X122762127Y-89907823D01*
X122963150Y-89907823D01*
X122963151Y-89907822D01*
X123160307Y-89868606D01*
X123346026Y-89791679D01*
X123513169Y-89679997D01*
X123655312Y-89537854D01*
X123766994Y-89370711D01*
X123843921Y-89184992D01*
X123883138Y-88987834D01*
X123883138Y-88786812D01*
X123883137Y-88786807D01*
X124382138Y-88786807D01*
X124382138Y-88987838D01*
X124421353Y-89184984D01*
X124421356Y-89184996D01*
X124498278Y-89370704D01*
X124498285Y-89370717D01*
X124609963Y-89537853D01*
X124609966Y-89537857D01*
X124752103Y-89679994D01*
X124752107Y-89679997D01*
X124919243Y-89791675D01*
X124919256Y-89791682D01*
X125104964Y-89868604D01*
X125104969Y-89868606D01*
X125302122Y-89907822D01*
X125302126Y-89907823D01*
X125302127Y-89907823D01*
X125503150Y-89907823D01*
X125503151Y-89907822D01*
X125700307Y-89868606D01*
X125886026Y-89791679D01*
X126053169Y-89679997D01*
X126195312Y-89537854D01*
X126306994Y-89370711D01*
X126383921Y-89184992D01*
X126423138Y-88987834D01*
X126423138Y-88786812D01*
X126383921Y-88589654D01*
X126383919Y-88589649D01*
X126306997Y-88403941D01*
X126306990Y-88403928D01*
X126195312Y-88236792D01*
X126195309Y-88236788D01*
X126053172Y-88094651D01*
X126053168Y-88094648D01*
X125886032Y-87982970D01*
X125886019Y-87982963D01*
X125700311Y-87906041D01*
X125700299Y-87906038D01*
X125503153Y-87866823D01*
X125503149Y-87866823D01*
X125302127Y-87866823D01*
X125302122Y-87866823D01*
X125104976Y-87906038D01*
X125104964Y-87906041D01*
X124919256Y-87982963D01*
X124919243Y-87982970D01*
X124752107Y-88094648D01*
X124752103Y-88094651D01*
X124609966Y-88236788D01*
X124609963Y-88236792D01*
X124498285Y-88403928D01*
X124498278Y-88403941D01*
X124421356Y-88589649D01*
X124421353Y-88589661D01*
X124382138Y-88786807D01*
X123883137Y-88786807D01*
X123843921Y-88589654D01*
X123843919Y-88589649D01*
X123766997Y-88403941D01*
X123766990Y-88403928D01*
X123655312Y-88236792D01*
X123655309Y-88236788D01*
X123513172Y-88094651D01*
X123513168Y-88094648D01*
X123346032Y-87982970D01*
X123346019Y-87982963D01*
X123160311Y-87906041D01*
X123160299Y-87906038D01*
X122963153Y-87866823D01*
X122963149Y-87866823D01*
X122762127Y-87866823D01*
X122762122Y-87866823D01*
X122564976Y-87906038D01*
X122564964Y-87906041D01*
X122379256Y-87982963D01*
X122379243Y-87982970D01*
X122212107Y-88094648D01*
X122212103Y-88094651D01*
X122069966Y-88236788D01*
X122069963Y-88236792D01*
X121958285Y-88403928D01*
X121958278Y-88403941D01*
X121881356Y-88589649D01*
X121881353Y-88589661D01*
X121842138Y-88786807D01*
X121343137Y-88786807D01*
X121303921Y-88589654D01*
X121303919Y-88589649D01*
X121226997Y-88403941D01*
X121226990Y-88403928D01*
X121115312Y-88236792D01*
X121115309Y-88236788D01*
X120973172Y-88094651D01*
X120973168Y-88094648D01*
X120806032Y-87982970D01*
X120806019Y-87982963D01*
X120620311Y-87906041D01*
X120620299Y-87906038D01*
X120423153Y-87866823D01*
X120423149Y-87866823D01*
X120222127Y-87866823D01*
X120222122Y-87866823D01*
X120024976Y-87906038D01*
X120024964Y-87906041D01*
X119839256Y-87982963D01*
X119839243Y-87982970D01*
X119672107Y-88094648D01*
X119672103Y-88094651D01*
X119529966Y-88236788D01*
X119529963Y-88236792D01*
X119418285Y-88403928D01*
X119418278Y-88403941D01*
X119341356Y-88589649D01*
X119341353Y-88589661D01*
X119302138Y-88786807D01*
X102017200Y-88786807D01*
X102017200Y-86174630D01*
X110032137Y-86174630D01*
X110063860Y-86334106D01*
X110063863Y-86334116D01*
X110126088Y-86484342D01*
X110126090Y-86484346D01*
X110216426Y-86619543D01*
X110216432Y-86619551D01*
X110237523Y-86640642D01*
X110271008Y-86701965D01*
X110266024Y-86771657D01*
X110237523Y-86816004D01*
X110216432Y-86837094D01*
X110216426Y-86837102D01*
X110126090Y-86972299D01*
X110126088Y-86972303D01*
X110063863Y-87122529D01*
X110063860Y-87122539D01*
X110032138Y-87282015D01*
X110032138Y-87282018D01*
X110032138Y-87444628D01*
X110032138Y-87444630D01*
X110032137Y-87444630D01*
X110063860Y-87604106D01*
X110063863Y-87604116D01*
X110126088Y-87754342D01*
X110126090Y-87754346D01*
X110216426Y-87889543D01*
X110216432Y-87889551D01*
X110331409Y-88004528D01*
X110331417Y-88004534D01*
X110466614Y-88094870D01*
X110466618Y-88094872D01*
X110616844Y-88157097D01*
X110616849Y-88157099D01*
X110616853Y-88157099D01*
X110616854Y-88157100D01*
X110776330Y-88188823D01*
X110776333Y-88188823D01*
X111388945Y-88188823D01*
X111496236Y-88167480D01*
X111548427Y-88157099D01*
X111698659Y-88094871D01*
X111698661Y-88094870D01*
X111765807Y-88050003D01*
X111833863Y-88004531D01*
X111948846Y-87889548D01*
X112039186Y-87754344D01*
X112067363Y-87686318D01*
X130046137Y-87686318D01*
X130073056Y-87821645D01*
X130073059Y-87821655D01*
X130125859Y-87949127D01*
X130125866Y-87949140D01*
X130202523Y-88063864D01*
X130202526Y-88063868D01*
X130300092Y-88161434D01*
X130300096Y-88161437D01*
X130414820Y-88238094D01*
X130414833Y-88238101D01*
X130542305Y-88290901D01*
X130542310Y-88290903D01*
X130542314Y-88290903D01*
X130542315Y-88290904D01*
X130677642Y-88317823D01*
X130677645Y-88317823D01*
X130815633Y-88317823D01*
X130906679Y-88299712D01*
X130950966Y-88290903D01*
X131078449Y-88238098D01*
X131193180Y-88161437D01*
X131290752Y-88063865D01*
X131367413Y-87949134D01*
X131420218Y-87821651D01*
X131447138Y-87686316D01*
X131447138Y-87548330D01*
X131447138Y-87548327D01*
X131420219Y-87413000D01*
X131420218Y-87412999D01*
X131420218Y-87412995D01*
X131420216Y-87412990D01*
X131367416Y-87285518D01*
X131367409Y-87285505D01*
X131290752Y-87170781D01*
X131290749Y-87170777D01*
X131193183Y-87073211D01*
X131193179Y-87073208D01*
X131078455Y-86996551D01*
X131078442Y-86996544D01*
X130950970Y-86943744D01*
X130950960Y-86943741D01*
X130815633Y-86916823D01*
X130815631Y-86916823D01*
X130677645Y-86916823D01*
X130677643Y-86916823D01*
X130542315Y-86943741D01*
X130542305Y-86943744D01*
X130414833Y-86996544D01*
X130414820Y-86996551D01*
X130300096Y-87073208D01*
X130300092Y-87073211D01*
X130202526Y-87170777D01*
X130202523Y-87170781D01*
X130125866Y-87285505D01*
X130125859Y-87285518D01*
X130073059Y-87412990D01*
X130073056Y-87413000D01*
X130046138Y-87548327D01*
X130046138Y-87548330D01*
X130046138Y-87686316D01*
X130046138Y-87686318D01*
X130046137Y-87686318D01*
X112067363Y-87686318D01*
X112101414Y-87604112D01*
X112133138Y-87444628D01*
X112133138Y-87282018D01*
X112133138Y-87282015D01*
X112101415Y-87122539D01*
X112101414Y-87122538D01*
X112101414Y-87122534D01*
X112080983Y-87073208D01*
X112039187Y-86972303D01*
X112039185Y-86972299D01*
X111948849Y-86837102D01*
X111948848Y-86837100D01*
X111948842Y-86837094D01*
X111927751Y-86816003D01*
X111894267Y-86754683D01*
X111899250Y-86684992D01*
X111927751Y-86640642D01*
X111948846Y-86619548D01*
X112039186Y-86484344D01*
X112101414Y-86334112D01*
X112133138Y-86174628D01*
X112133138Y-86012018D01*
X112133138Y-86012015D01*
X112101415Y-85852539D01*
X112101414Y-85852538D01*
X112101414Y-85852534D01*
X112067363Y-85770327D01*
X112039189Y-85702308D01*
X112036313Y-85696927D01*
X112038353Y-85695836D01*
X112020549Y-85638981D01*
X112039032Y-85571600D01*
X112056845Y-85549086D01*
X112084844Y-85521088D01*
X112130223Y-85418314D01*
X112133138Y-85393188D01*
X112133137Y-84253459D01*
X112132322Y-84246431D01*
X112130224Y-84228335D01*
X112130223Y-84228333D01*
X112130223Y-84228332D01*
X112084844Y-84125558D01*
X112005403Y-84046117D01*
X111927345Y-84011651D01*
X111902630Y-84000738D01*
X111877503Y-83997823D01*
X110287781Y-83997823D01*
X110287755Y-83997825D01*
X110262650Y-84000736D01*
X110262646Y-84000738D01*
X110159873Y-84046116D01*
X110080432Y-84125557D01*
X110035053Y-84228329D01*
X110035053Y-84228331D01*
X110032138Y-84253454D01*
X110032138Y-85393179D01*
X110032140Y-85393205D01*
X110035051Y-85418310D01*
X110035053Y-85418314D01*
X110080431Y-85521087D01*
X110108427Y-85549083D01*
X110141912Y-85610406D01*
X110136928Y-85680098D01*
X110128456Y-85696662D01*
X110128960Y-85696932D01*
X110126088Y-85702303D01*
X110063863Y-85852529D01*
X110063860Y-85852539D01*
X110032138Y-86012015D01*
X110032138Y-86012018D01*
X110032138Y-86174628D01*
X110032138Y-86174630D01*
X110032137Y-86174630D01*
X102017200Y-86174630D01*
X102017200Y-79558318D01*
X130046137Y-79558318D01*
X130073056Y-79693645D01*
X130073059Y-79693655D01*
X130125859Y-79821127D01*
X130125866Y-79821140D01*
X130202523Y-79935864D01*
X130202526Y-79935868D01*
X130303300Y-80036642D01*
X130336785Y-80097965D01*
X130331801Y-80167657D01*
X130303300Y-80212004D01*
X130202526Y-80312777D01*
X130202523Y-80312781D01*
X130125866Y-80427505D01*
X130125859Y-80427518D01*
X130073059Y-80554990D01*
X130073056Y-80555000D01*
X130046138Y-80690327D01*
X130046138Y-80690330D01*
X130046138Y-80828316D01*
X130046138Y-80828318D01*
X130046137Y-80828318D01*
X130073056Y-80963645D01*
X130073059Y-80963655D01*
X130125859Y-81091127D01*
X130125866Y-81091140D01*
X130192045Y-81190183D01*
X130212923Y-81256861D01*
X130194439Y-81324241D01*
X130192045Y-81327964D01*
X130125869Y-81427003D01*
X130125859Y-81427021D01*
X130073059Y-81554493D01*
X130073056Y-81554503D01*
X130046138Y-81689830D01*
X130046138Y-81689833D01*
X130046138Y-81827819D01*
X130046138Y-81827821D01*
X130046137Y-81827821D01*
X130073056Y-81963148D01*
X130073059Y-81963158D01*
X130125859Y-82090630D01*
X130125866Y-82090643D01*
X130203068Y-82206183D01*
X130223946Y-82272861D01*
X130205462Y-82340241D01*
X130203068Y-82343964D01*
X130125869Y-82459500D01*
X130125859Y-82459518D01*
X130073059Y-82586990D01*
X130073056Y-82587000D01*
X130046138Y-82722327D01*
X130046138Y-82722330D01*
X130046138Y-82860316D01*
X130046138Y-82860318D01*
X130046137Y-82860318D01*
X130073056Y-82995645D01*
X130073059Y-82995655D01*
X130125859Y-83123127D01*
X130125866Y-83123140D01*
X130197557Y-83230432D01*
X130218435Y-83297109D01*
X130199951Y-83364490D01*
X130197557Y-83368214D01*
X130125866Y-83475505D01*
X130125859Y-83475518D01*
X130073059Y-83602990D01*
X130073056Y-83603000D01*
X130046138Y-83738327D01*
X130046138Y-83738330D01*
X130046138Y-83876316D01*
X130046138Y-83876318D01*
X130046137Y-83876318D01*
X130073056Y-84011645D01*
X130073059Y-84011655D01*
X130125859Y-84139127D01*
X130125866Y-84139140D01*
X130197557Y-84246432D01*
X130218435Y-84313109D01*
X130199951Y-84380490D01*
X130197557Y-84384214D01*
X130125866Y-84491505D01*
X130125859Y-84491518D01*
X130073059Y-84618990D01*
X130073056Y-84619000D01*
X130046138Y-84754327D01*
X130046138Y-84754330D01*
X130046138Y-84892316D01*
X130046138Y-84892318D01*
X130046137Y-84892318D01*
X130073056Y-85027645D01*
X130073059Y-85027655D01*
X130125859Y-85155127D01*
X130125866Y-85155140D01*
X130197557Y-85262432D01*
X130218435Y-85329109D01*
X130199951Y-85396490D01*
X130197557Y-85400214D01*
X130125866Y-85507505D01*
X130125859Y-85507518D01*
X130073059Y-85634990D01*
X130073056Y-85635000D01*
X130046138Y-85770327D01*
X130046138Y-85770330D01*
X130046138Y-85908316D01*
X130046138Y-85908318D01*
X130046137Y-85908318D01*
X130073056Y-86043645D01*
X130073059Y-86043655D01*
X130125859Y-86171127D01*
X130125866Y-86171140D01*
X130202523Y-86285864D01*
X130202526Y-86285868D01*
X130300092Y-86383434D01*
X130300096Y-86383437D01*
X130414820Y-86460094D01*
X130414833Y-86460101D01*
X130542305Y-86512901D01*
X130542310Y-86512903D01*
X130542314Y-86512903D01*
X130542315Y-86512904D01*
X130677642Y-86539823D01*
X130677645Y-86539823D01*
X130815633Y-86539823D01*
X130906679Y-86521712D01*
X130950966Y-86512903D01*
X131078449Y-86460098D01*
X131193180Y-86383437D01*
X131290752Y-86285865D01*
X131367413Y-86171134D01*
X131420218Y-86043651D01*
X131447138Y-85908316D01*
X131447138Y-85770330D01*
X131447138Y-85770327D01*
X131420219Y-85635000D01*
X131420218Y-85634999D01*
X131420218Y-85634995D01*
X131420216Y-85634990D01*
X131367416Y-85507518D01*
X131367412Y-85507511D01*
X131367408Y-85507505D01*
X131295716Y-85400211D01*
X131274840Y-85333537D01*
X131293324Y-85266157D01*
X131295686Y-85262479D01*
X131367413Y-85155134D01*
X131420218Y-85027651D01*
X131447138Y-84892316D01*
X131447138Y-84754330D01*
X131447138Y-84754327D01*
X131420219Y-84619000D01*
X131420218Y-84618999D01*
X131420218Y-84618995D01*
X131420216Y-84618990D01*
X131367416Y-84491518D01*
X131367412Y-84491511D01*
X131367408Y-84491505D01*
X131295716Y-84384211D01*
X131274840Y-84317537D01*
X131293324Y-84250157D01*
X131295686Y-84246479D01*
X131367413Y-84139134D01*
X131420218Y-84011651D01*
X131447138Y-83876316D01*
X131447138Y-83738330D01*
X131447138Y-83738327D01*
X131420219Y-83603000D01*
X131420218Y-83602999D01*
X131420218Y-83602995D01*
X131420216Y-83602990D01*
X131367416Y-83475518D01*
X131367412Y-83475511D01*
X131367408Y-83475505D01*
X131295716Y-83368211D01*
X131274840Y-83301537D01*
X131293324Y-83234157D01*
X131295686Y-83230479D01*
X131367413Y-83123134D01*
X131420218Y-82995651D01*
X131447138Y-82860316D01*
X131447138Y-82722330D01*
X131447138Y-82722327D01*
X131420219Y-82587000D01*
X131420218Y-82586999D01*
X131420218Y-82586995D01*
X131420216Y-82586990D01*
X131367416Y-82459518D01*
X131367409Y-82459505D01*
X131290207Y-82343965D01*
X131269329Y-82277288D01*
X131287813Y-82209908D01*
X131290207Y-82206183D01*
X131290752Y-82205368D01*
X131367413Y-82090637D01*
X131420218Y-81963154D01*
X131429027Y-81918867D01*
X131447138Y-81827821D01*
X131447138Y-81689830D01*
X131420219Y-81554503D01*
X131420218Y-81554502D01*
X131420218Y-81554498D01*
X131385075Y-81469655D01*
X131367416Y-81427021D01*
X131367409Y-81427008D01*
X131301230Y-81327965D01*
X131280352Y-81261288D01*
X131298836Y-81193908D01*
X131301203Y-81190223D01*
X131367413Y-81091134D01*
X131420218Y-80963651D01*
X131432190Y-80903465D01*
X131447138Y-80828318D01*
X131447138Y-80696530D01*
X197753500Y-80696530D01*
X197753500Y-80903469D01*
X197793868Y-81106412D01*
X197793870Y-81106420D01*
X197828565Y-81190182D01*
X197873059Y-81297598D01*
X197930541Y-81383626D01*
X197988024Y-81469657D01*
X198134342Y-81615975D01*
X198134345Y-81615977D01*
X198306402Y-81730941D01*
X198497580Y-81810130D01*
X198700530Y-81850499D01*
X198700534Y-81850500D01*
X198700535Y-81850500D01*
X198907466Y-81850500D01*
X198907467Y-81850499D01*
X199110420Y-81810130D01*
X199301598Y-81730941D01*
X199473655Y-81615977D01*
X199619977Y-81469655D01*
X199734941Y-81297598D01*
X199814130Y-81106420D01*
X199854500Y-80903465D01*
X199854500Y-80696535D01*
X199854499Y-80696530D01*
X200753500Y-80696530D01*
X200753500Y-80903469D01*
X200793868Y-81106412D01*
X200793870Y-81106420D01*
X200828565Y-81190182D01*
X200873059Y-81297598D01*
X200930541Y-81383626D01*
X200988024Y-81469657D01*
X201134342Y-81615975D01*
X201134345Y-81615977D01*
X201306402Y-81730941D01*
X201497580Y-81810130D01*
X201700530Y-81850499D01*
X201700534Y-81850500D01*
X201700535Y-81850500D01*
X201907466Y-81850500D01*
X201907467Y-81850499D01*
X202110420Y-81810130D01*
X202301598Y-81730941D01*
X202473655Y-81615977D01*
X202619977Y-81469655D01*
X202734941Y-81297598D01*
X202814130Y-81106420D01*
X202854500Y-80903465D01*
X202854500Y-80696535D01*
X202814130Y-80493580D01*
X202734941Y-80302402D01*
X202619977Y-80130345D01*
X202619975Y-80130342D01*
X202473657Y-79984024D01*
X202361226Y-79908901D01*
X202301598Y-79869059D01*
X202110420Y-79789870D01*
X202110412Y-79789868D01*
X201907469Y-79749500D01*
X201907465Y-79749500D01*
X201700535Y-79749500D01*
X201700530Y-79749500D01*
X201497587Y-79789868D01*
X201497579Y-79789870D01*
X201306403Y-79869058D01*
X201134342Y-79984024D01*
X200988024Y-80130342D01*
X200873058Y-80302403D01*
X200793870Y-80493579D01*
X200793868Y-80493587D01*
X200753500Y-80696530D01*
X199854499Y-80696530D01*
X199814130Y-80493580D01*
X199734941Y-80302402D01*
X199619977Y-80130345D01*
X199619975Y-80130342D01*
X199473657Y-79984024D01*
X199361226Y-79908901D01*
X199301598Y-79869059D01*
X199110420Y-79789870D01*
X199110412Y-79789868D01*
X198907469Y-79749500D01*
X198907465Y-79749500D01*
X198700535Y-79749500D01*
X198700530Y-79749500D01*
X198497587Y-79789868D01*
X198497579Y-79789870D01*
X198306403Y-79869058D01*
X198134342Y-79984024D01*
X197988024Y-80130342D01*
X197873058Y-80302403D01*
X197793870Y-80493579D01*
X197793868Y-80493587D01*
X197753500Y-80696530D01*
X131447138Y-80696530D01*
X131447138Y-80690327D01*
X131420219Y-80555000D01*
X131420218Y-80554999D01*
X131420218Y-80554995D01*
X131420216Y-80554990D01*
X131367416Y-80427518D01*
X131367409Y-80427505D01*
X131290752Y-80312781D01*
X131290749Y-80312777D01*
X131189976Y-80212004D01*
X131156491Y-80150681D01*
X131161475Y-80080989D01*
X131189976Y-80036642D01*
X131290749Y-79935868D01*
X131290752Y-79935865D01*
X131367413Y-79821134D01*
X131371065Y-79812318D01*
X137666137Y-79812318D01*
X137693056Y-79947645D01*
X137693059Y-79947655D01*
X137745859Y-80075127D01*
X137745866Y-80075140D01*
X137822523Y-80189864D01*
X137822526Y-80189868D01*
X137920092Y-80287434D01*
X137920096Y-80287437D01*
X138034820Y-80364094D01*
X138034833Y-80364101D01*
X138162305Y-80416901D01*
X138162310Y-80416903D01*
X138162314Y-80416903D01*
X138162315Y-80416904D01*
X138297642Y-80443823D01*
X138297645Y-80443823D01*
X138435633Y-80443823D01*
X138526679Y-80425712D01*
X138570966Y-80416903D01*
X138698449Y-80364098D01*
X138813180Y-80287437D01*
X138910752Y-80189865D01*
X138987413Y-80075134D01*
X139040218Y-79947651D01*
X139065384Y-79821134D01*
X139067138Y-79812318D01*
X139067138Y-79674327D01*
X139040219Y-79539000D01*
X139040218Y-79538999D01*
X139040218Y-79538995D01*
X139030363Y-79515202D01*
X138987416Y-79411518D01*
X138987409Y-79411505D01*
X138915788Y-79304318D01*
X166368137Y-79304318D01*
X166395056Y-79439645D01*
X166395059Y-79439655D01*
X166447859Y-79567127D01*
X166447866Y-79567140D01*
X166524523Y-79681864D01*
X166524526Y-79681868D01*
X166622092Y-79779434D01*
X166622096Y-79779437D01*
X166736820Y-79856094D01*
X166736833Y-79856101D01*
X166864305Y-79908901D01*
X166864310Y-79908903D01*
X166864314Y-79908903D01*
X166864315Y-79908904D01*
X166999642Y-79935823D01*
X166999645Y-79935823D01*
X167137633Y-79935823D01*
X167228679Y-79917712D01*
X167272966Y-79908903D01*
X167400449Y-79856098D01*
X167515180Y-79779437D01*
X167612752Y-79681865D01*
X167689413Y-79567134D01*
X167742218Y-79439651D01*
X167753838Y-79381236D01*
X167769138Y-79304318D01*
X167769138Y-79166327D01*
X167742219Y-79031000D01*
X167742218Y-79030999D01*
X167742218Y-79030995D01*
X167741159Y-79028439D01*
X167708138Y-78948718D01*
X178864937Y-78948718D01*
X178891856Y-79084045D01*
X178891859Y-79084055D01*
X178944659Y-79211527D01*
X178944666Y-79211540D01*
X179021323Y-79326264D01*
X179021326Y-79326268D01*
X179118892Y-79423834D01*
X179118896Y-79423837D01*
X179233620Y-79500494D01*
X179233633Y-79500501D01*
X179326555Y-79538990D01*
X179361110Y-79553303D01*
X179361114Y-79553303D01*
X179361115Y-79553304D01*
X179496442Y-79580223D01*
X179496445Y-79580223D01*
X179634433Y-79580223D01*
X179744564Y-79558316D01*
X179769766Y-79553303D01*
X179897249Y-79500498D01*
X180011980Y-79423837D01*
X180109552Y-79326265D01*
X180186213Y-79211534D01*
X180192307Y-79196823D01*
X180208587Y-79157518D01*
X180239018Y-79084051D01*
X180265938Y-78948716D01*
X180265938Y-78810730D01*
X180265938Y-78810727D01*
X180239019Y-78675400D01*
X180239018Y-78675399D01*
X180239018Y-78675395D01*
X180239016Y-78675390D01*
X180186216Y-78547918D01*
X180186209Y-78547905D01*
X180109552Y-78433181D01*
X180109549Y-78433177D01*
X180011983Y-78335611D01*
X180011979Y-78335608D01*
X179897255Y-78258951D01*
X179897242Y-78258944D01*
X179769770Y-78206144D01*
X179769760Y-78206141D01*
X179634433Y-78179223D01*
X179634431Y-78179223D01*
X179496445Y-78179223D01*
X179496443Y-78179223D01*
X179361115Y-78206141D01*
X179361105Y-78206144D01*
X179233633Y-78258944D01*
X179233620Y-78258951D01*
X179118896Y-78335608D01*
X179118892Y-78335611D01*
X179021326Y-78433177D01*
X179021323Y-78433181D01*
X178944666Y-78547905D01*
X178944659Y-78547918D01*
X178891859Y-78675390D01*
X178891856Y-78675400D01*
X178864938Y-78810727D01*
X178864938Y-78810730D01*
X178864938Y-78948716D01*
X178864938Y-78948718D01*
X178864937Y-78948718D01*
X167708138Y-78948718D01*
X167689416Y-78903518D01*
X167689410Y-78903507D01*
X167669379Y-78873528D01*
X167669378Y-78873527D01*
X167612752Y-78788781D01*
X167612749Y-78788777D01*
X167515183Y-78691211D01*
X167515179Y-78691208D01*
X167400455Y-78614551D01*
X167400442Y-78614544D01*
X167272970Y-78561744D01*
X167272960Y-78561741D01*
X167137633Y-78534823D01*
X167137631Y-78534823D01*
X166999645Y-78534823D01*
X166999643Y-78534823D01*
X166864315Y-78561741D01*
X166864305Y-78561744D01*
X166736833Y-78614544D01*
X166736820Y-78614551D01*
X166622096Y-78691208D01*
X166622092Y-78691211D01*
X166524526Y-78788777D01*
X166524523Y-78788781D01*
X166447866Y-78903505D01*
X166447859Y-78903518D01*
X166395059Y-79030990D01*
X166395056Y-79031000D01*
X166368138Y-79166327D01*
X166368138Y-79166330D01*
X166368138Y-79304316D01*
X166368138Y-79304318D01*
X166368137Y-79304318D01*
X138915788Y-79304318D01*
X138910752Y-79296781D01*
X138910749Y-79296777D01*
X138813183Y-79199211D01*
X138813179Y-79199208D01*
X138698455Y-79122551D01*
X138698442Y-79122544D01*
X138570970Y-79069744D01*
X138570960Y-79069741D01*
X138435633Y-79042823D01*
X138435631Y-79042823D01*
X138297645Y-79042823D01*
X138297643Y-79042823D01*
X138162315Y-79069741D01*
X138162305Y-79069744D01*
X138034833Y-79122544D01*
X138034820Y-79122551D01*
X137920096Y-79199208D01*
X137920092Y-79199211D01*
X137822526Y-79296777D01*
X137822523Y-79296781D01*
X137745866Y-79411505D01*
X137745859Y-79411518D01*
X137693059Y-79538990D01*
X137693056Y-79539000D01*
X137666138Y-79674327D01*
X137666138Y-79674330D01*
X137666138Y-79812316D01*
X137666138Y-79812318D01*
X137666137Y-79812318D01*
X131371065Y-79812318D01*
X131420218Y-79693651D01*
X131445384Y-79567134D01*
X131447138Y-79558318D01*
X131447138Y-79420327D01*
X131420219Y-79285000D01*
X131420218Y-79284999D01*
X131420218Y-79284995D01*
X131389787Y-79211527D01*
X131367416Y-79157518D01*
X131367409Y-79157505D01*
X131290752Y-79042781D01*
X131290749Y-79042777D01*
X131193183Y-78945211D01*
X131193179Y-78945208D01*
X131078455Y-78868551D01*
X131078442Y-78868544D01*
X130950970Y-78815744D01*
X130950960Y-78815741D01*
X130815633Y-78788823D01*
X130815631Y-78788823D01*
X130677645Y-78788823D01*
X130677643Y-78788823D01*
X130542315Y-78815741D01*
X130542305Y-78815744D01*
X130414833Y-78868544D01*
X130414820Y-78868551D01*
X130300096Y-78945208D01*
X130300092Y-78945211D01*
X130202526Y-79042777D01*
X130202523Y-79042781D01*
X130125866Y-79157505D01*
X130125859Y-79157518D01*
X130073059Y-79284990D01*
X130073056Y-79285000D01*
X130046138Y-79420327D01*
X130046138Y-79420330D01*
X130046138Y-79558316D01*
X130046138Y-79558318D01*
X130046137Y-79558318D01*
X102017200Y-79558318D01*
X102017200Y-77493807D01*
X120582138Y-77493807D01*
X120582138Y-77694838D01*
X120621353Y-77891984D01*
X120621356Y-77891996D01*
X120698278Y-78077704D01*
X120698285Y-78077717D01*
X120809963Y-78244853D01*
X120809966Y-78244857D01*
X120952103Y-78386994D01*
X120952107Y-78386997D01*
X121119243Y-78498675D01*
X121119256Y-78498682D01*
X121271503Y-78561744D01*
X121304969Y-78575606D01*
X121500760Y-78614551D01*
X121502122Y-78614822D01*
X121502126Y-78614823D01*
X121502127Y-78614823D01*
X121703150Y-78614823D01*
X121703151Y-78614822D01*
X121900307Y-78575606D01*
X122086026Y-78498679D01*
X122253169Y-78386997D01*
X122395312Y-78244854D01*
X122506994Y-78077711D01*
X122583921Y-77891992D01*
X122623138Y-77694834D01*
X122623138Y-77526318D01*
X163320137Y-77526318D01*
X163347056Y-77661645D01*
X163347059Y-77661655D01*
X163399859Y-77789127D01*
X163399866Y-77789140D01*
X163476523Y-77903864D01*
X163476526Y-77903868D01*
X163574092Y-78001434D01*
X163574096Y-78001437D01*
X163688820Y-78078094D01*
X163688833Y-78078101D01*
X163816305Y-78130901D01*
X163816310Y-78130903D01*
X163816314Y-78130903D01*
X163816315Y-78130904D01*
X163951642Y-78157823D01*
X163951645Y-78157823D01*
X164089633Y-78157823D01*
X164180679Y-78139712D01*
X164224966Y-78130903D01*
X164352449Y-78078098D01*
X164467180Y-78001437D01*
X164564752Y-77903865D01*
X164641413Y-77789134D01*
X164679771Y-77696530D01*
X197753500Y-77696530D01*
X197753500Y-77903469D01*
X197793868Y-78106412D01*
X197793870Y-78106420D01*
X197873058Y-78297596D01*
X197988024Y-78469657D01*
X198134342Y-78615975D01*
X198134345Y-78615977D01*
X198306402Y-78730941D01*
X198497580Y-78810130D01*
X198700530Y-78850499D01*
X198700534Y-78850500D01*
X198700535Y-78850500D01*
X198907466Y-78850500D01*
X198907467Y-78850499D01*
X199110420Y-78810130D01*
X199301598Y-78730941D01*
X199473655Y-78615977D01*
X199619977Y-78469655D01*
X199734941Y-78297598D01*
X199814130Y-78106420D01*
X199854500Y-77903465D01*
X199854500Y-77696535D01*
X199854499Y-77696530D01*
X200753500Y-77696530D01*
X200753500Y-77903469D01*
X200793868Y-78106412D01*
X200793870Y-78106420D01*
X200873058Y-78297596D01*
X200988024Y-78469657D01*
X201134342Y-78615975D01*
X201134345Y-78615977D01*
X201306402Y-78730941D01*
X201497580Y-78810130D01*
X201700530Y-78850499D01*
X201700534Y-78850500D01*
X201700535Y-78850500D01*
X201907466Y-78850500D01*
X201907467Y-78850499D01*
X202110420Y-78810130D01*
X202301598Y-78730941D01*
X202473655Y-78615977D01*
X202619977Y-78469655D01*
X202734941Y-78297598D01*
X202814130Y-78106420D01*
X202854500Y-77903465D01*
X202854500Y-77696535D01*
X202814130Y-77493580D01*
X202734941Y-77302402D01*
X202619977Y-77130345D01*
X202619975Y-77130342D01*
X202473657Y-76984024D01*
X202387626Y-76926541D01*
X202301598Y-76869059D01*
X202223100Y-76836544D01*
X202110420Y-76789870D01*
X202110412Y-76789868D01*
X201907469Y-76749500D01*
X201907465Y-76749500D01*
X201700535Y-76749500D01*
X201700530Y-76749500D01*
X201497587Y-76789868D01*
X201497579Y-76789870D01*
X201306403Y-76869058D01*
X201134342Y-76984024D01*
X200988024Y-77130342D01*
X200873058Y-77302403D01*
X200793870Y-77493579D01*
X200793868Y-77493587D01*
X200753500Y-77696530D01*
X199854499Y-77696530D01*
X199814130Y-77493580D01*
X199734941Y-77302402D01*
X199619977Y-77130345D01*
X199619975Y-77130342D01*
X199473657Y-76984024D01*
X199387626Y-76926541D01*
X199301598Y-76869059D01*
X199223100Y-76836544D01*
X199110420Y-76789870D01*
X199110412Y-76789868D01*
X198907469Y-76749500D01*
X198907465Y-76749500D01*
X198700535Y-76749500D01*
X198700530Y-76749500D01*
X198497587Y-76789868D01*
X198497579Y-76789870D01*
X198306403Y-76869058D01*
X198134342Y-76984024D01*
X197988024Y-77130342D01*
X197873058Y-77302403D01*
X197793870Y-77493579D01*
X197793868Y-77493587D01*
X197753500Y-77696530D01*
X164679771Y-77696530D01*
X164694218Y-77661651D01*
X164721138Y-77526316D01*
X164721138Y-77388330D01*
X164721138Y-77388327D01*
X164694219Y-77253000D01*
X164694218Y-77252999D01*
X164694218Y-77252995D01*
X164694216Y-77252990D01*
X164641416Y-77125518D01*
X164641409Y-77125505D01*
X164564752Y-77010781D01*
X164564749Y-77010777D01*
X164467183Y-76913211D01*
X164467179Y-76913208D01*
X164352455Y-76836551D01*
X164352442Y-76836544D01*
X164224970Y-76783744D01*
X164224960Y-76783741D01*
X164089633Y-76756823D01*
X164089631Y-76756823D01*
X163951645Y-76756823D01*
X163951643Y-76756823D01*
X163816315Y-76783741D01*
X163816305Y-76783744D01*
X163688833Y-76836544D01*
X163688820Y-76836551D01*
X163574096Y-76913208D01*
X163574092Y-76913211D01*
X163476526Y-77010777D01*
X163476523Y-77010781D01*
X163399866Y-77125505D01*
X163399859Y-77125518D01*
X163347059Y-77252990D01*
X163347056Y-77253000D01*
X163320138Y-77388327D01*
X163320138Y-77388330D01*
X163320138Y-77526316D01*
X163320138Y-77526318D01*
X163320137Y-77526318D01*
X122623138Y-77526318D01*
X122623138Y-77493812D01*
X122602156Y-77388330D01*
X122593670Y-77345668D01*
X122583921Y-77296654D01*
X122565835Y-77252990D01*
X122506997Y-77110941D01*
X122506990Y-77110928D01*
X122395312Y-76943792D01*
X122395309Y-76943788D01*
X122253172Y-76801651D01*
X122253168Y-76801648D01*
X122086032Y-76689970D01*
X122086019Y-76689963D01*
X121900311Y-76613041D01*
X121900299Y-76613038D01*
X121703153Y-76573823D01*
X121703149Y-76573823D01*
X121502127Y-76573823D01*
X121502122Y-76573823D01*
X121304976Y-76613038D01*
X121304964Y-76613041D01*
X121119256Y-76689963D01*
X121119243Y-76689970D01*
X120952107Y-76801648D01*
X120952103Y-76801651D01*
X120809966Y-76943788D01*
X120809963Y-76943792D01*
X120698285Y-77110928D01*
X120698278Y-77110941D01*
X120621356Y-77296649D01*
X120621353Y-77296661D01*
X120582138Y-77493807D01*
X102017200Y-77493807D01*
X102017200Y-76510318D01*
X150620137Y-76510318D01*
X150647056Y-76645645D01*
X150647059Y-76645655D01*
X150699859Y-76773127D01*
X150699866Y-76773140D01*
X150776523Y-76887864D01*
X150776526Y-76887868D01*
X150874092Y-76985434D01*
X150874096Y-76985437D01*
X150988820Y-77062094D01*
X150988833Y-77062101D01*
X151106713Y-77110928D01*
X151116310Y-77114903D01*
X151116314Y-77114903D01*
X151116315Y-77114904D01*
X151251642Y-77141823D01*
X151251645Y-77141823D01*
X151389633Y-77141823D01*
X151480679Y-77123712D01*
X151524966Y-77114903D01*
X151652449Y-77062098D01*
X151767180Y-76985437D01*
X151864752Y-76887865D01*
X151941413Y-76773134D01*
X151951203Y-76749500D01*
X151973305Y-76696139D01*
X151994218Y-76645651D01*
X152021138Y-76510316D01*
X152021138Y-76372330D01*
X152021138Y-76372327D01*
X151994219Y-76237000D01*
X151994218Y-76236999D01*
X151994218Y-76236995D01*
X151975432Y-76191642D01*
X151941416Y-76109518D01*
X151941409Y-76109505D01*
X151864752Y-75994781D01*
X151864749Y-75994777D01*
X151767183Y-75897211D01*
X151767179Y-75897208D01*
X151652455Y-75820551D01*
X151652442Y-75820544D01*
X151524970Y-75767744D01*
X151524960Y-75767741D01*
X151389633Y-75740823D01*
X151389631Y-75740823D01*
X151251645Y-75740823D01*
X151251643Y-75740823D01*
X151116315Y-75767741D01*
X151116305Y-75767744D01*
X150988833Y-75820544D01*
X150988820Y-75820551D01*
X150874096Y-75897208D01*
X150874092Y-75897211D01*
X150776526Y-75994777D01*
X150776523Y-75994781D01*
X150699866Y-76109505D01*
X150699859Y-76109518D01*
X150647059Y-76236990D01*
X150647056Y-76237000D01*
X150620138Y-76372327D01*
X150620138Y-76372330D01*
X150620138Y-76510316D01*
X150620138Y-76510318D01*
X150620137Y-76510318D01*
X102017200Y-76510318D01*
X102017200Y-74732318D01*
X112570937Y-74732318D01*
X112597856Y-74867645D01*
X112597859Y-74867655D01*
X112650659Y-74995127D01*
X112650666Y-74995140D01*
X112727323Y-75109864D01*
X112727326Y-75109868D01*
X112824892Y-75207434D01*
X112824896Y-75207437D01*
X112939620Y-75284094D01*
X112939633Y-75284101D01*
X113067105Y-75336901D01*
X113067110Y-75336903D01*
X113067114Y-75336903D01*
X113067115Y-75336904D01*
X113202442Y-75363823D01*
X113202445Y-75363823D01*
X113340433Y-75363823D01*
X113431479Y-75345712D01*
X113475766Y-75336903D01*
X113603249Y-75284098D01*
X113717980Y-75207437D01*
X113815552Y-75109865D01*
X113892213Y-74995134D01*
X113909329Y-74953812D01*
X113909331Y-74953807D01*
X120582138Y-74953807D01*
X120582138Y-75154838D01*
X120621353Y-75351984D01*
X120621356Y-75351996D01*
X120698278Y-75537704D01*
X120698285Y-75537717D01*
X120809963Y-75704853D01*
X120809966Y-75704857D01*
X120952103Y-75846994D01*
X120952107Y-75846997D01*
X121119243Y-75958675D01*
X121119256Y-75958682D01*
X121304964Y-76035604D01*
X121304969Y-76035606D01*
X121502122Y-76074822D01*
X121502126Y-76074823D01*
X121502127Y-76074823D01*
X121703150Y-76074823D01*
X121703151Y-76074822D01*
X121900307Y-76035606D01*
X122086026Y-75958679D01*
X122253169Y-75846997D01*
X122395312Y-75704854D01*
X122506994Y-75537711D01*
X122583921Y-75351992D01*
X122623138Y-75154834D01*
X122623138Y-74953812D01*
X122583921Y-74756654D01*
X122577495Y-74741140D01*
X122506997Y-74570941D01*
X122506990Y-74570928D01*
X122395312Y-74403792D01*
X122395309Y-74403788D01*
X122253172Y-74261651D01*
X122253168Y-74261648D01*
X122086032Y-74149970D01*
X122086019Y-74149963D01*
X121900311Y-74073041D01*
X121900299Y-74073038D01*
X121703153Y-74033823D01*
X121703149Y-74033823D01*
X121502127Y-74033823D01*
X121502122Y-74033823D01*
X121304976Y-74073038D01*
X121304964Y-74073041D01*
X121119256Y-74149963D01*
X121119243Y-74149970D01*
X120952107Y-74261648D01*
X120952103Y-74261651D01*
X120809966Y-74403788D01*
X120809963Y-74403792D01*
X120698285Y-74570928D01*
X120698278Y-74570941D01*
X120621356Y-74756649D01*
X120621353Y-74756661D01*
X120582138Y-74953807D01*
X113909331Y-74953807D01*
X113931508Y-74900268D01*
X113945016Y-74867655D01*
X113945018Y-74867651D01*
X113963230Y-74776094D01*
X113971938Y-74732318D01*
X113971938Y-74594327D01*
X113945019Y-74459000D01*
X113945018Y-74458999D01*
X113945018Y-74458995D01*
X113939401Y-74445434D01*
X113892216Y-74331518D01*
X113892209Y-74331505D01*
X113815552Y-74216781D01*
X113815549Y-74216777D01*
X113717983Y-74119211D01*
X113717979Y-74119208D01*
X113603255Y-74042551D01*
X113603242Y-74042544D01*
X113551514Y-74021118D01*
X130757337Y-74021118D01*
X130784256Y-74156445D01*
X130784259Y-74156455D01*
X130837059Y-74283927D01*
X130837066Y-74283940D01*
X130913723Y-74398664D01*
X130913726Y-74398668D01*
X131011292Y-74496234D01*
X131011296Y-74496237D01*
X131126020Y-74572894D01*
X131126033Y-74572901D01*
X131225594Y-74614140D01*
X131253510Y-74625703D01*
X131253514Y-74625703D01*
X131253515Y-74625704D01*
X131388842Y-74652623D01*
X131388845Y-74652623D01*
X131526833Y-74652623D01*
X131617879Y-74634512D01*
X131662166Y-74625703D01*
X131784806Y-74574904D01*
X131789642Y-74572901D01*
X131789642Y-74572900D01*
X131789649Y-74572898D01*
X131904380Y-74496237D01*
X132001952Y-74398665D01*
X132033588Y-74351318D01*
X135761137Y-74351318D01*
X135788056Y-74486645D01*
X135788059Y-74486655D01*
X135840859Y-74614127D01*
X135840866Y-74614140D01*
X135917523Y-74728864D01*
X135917526Y-74728868D01*
X136015092Y-74826434D01*
X136015096Y-74826437D01*
X136129820Y-74903094D01*
X136129833Y-74903101D01*
X136252250Y-74953807D01*
X136257310Y-74955903D01*
X136257314Y-74955903D01*
X136257315Y-74955904D01*
X136392642Y-74982823D01*
X136392645Y-74982823D01*
X136530633Y-74982823D01*
X136621679Y-74964712D01*
X136665966Y-74955903D01*
X136764562Y-74915063D01*
X136793442Y-74903101D01*
X136793442Y-74903100D01*
X136793449Y-74903098D01*
X136908180Y-74826437D01*
X137005752Y-74728865D01*
X137082413Y-74614134D01*
X137082612Y-74613655D01*
X137100304Y-74570941D01*
X137135218Y-74486651D01*
X137152720Y-74398664D01*
X137162138Y-74351318D01*
X137162138Y-74213327D01*
X137135219Y-74078000D01*
X137135218Y-74077999D01*
X137135218Y-74077995D01*
X137120537Y-74042551D01*
X137090617Y-73970318D01*
X177798137Y-73970318D01*
X177825056Y-74105645D01*
X177825059Y-74105655D01*
X177877859Y-74233127D01*
X177877866Y-74233140D01*
X177954523Y-74347864D01*
X177954526Y-74347868D01*
X178052092Y-74445434D01*
X178052096Y-74445437D01*
X178166820Y-74522094D01*
X178166833Y-74522101D01*
X178284713Y-74570928D01*
X178294310Y-74574903D01*
X178294314Y-74574903D01*
X178294315Y-74574904D01*
X178429642Y-74601823D01*
X178429645Y-74601823D01*
X178567633Y-74601823D01*
X178658679Y-74583712D01*
X178702966Y-74574903D01*
X178830449Y-74522098D01*
X178895970Y-74478318D01*
X184402137Y-74478318D01*
X184429056Y-74613645D01*
X184429059Y-74613655D01*
X184481859Y-74741127D01*
X184481866Y-74741140D01*
X184558523Y-74855864D01*
X184558526Y-74855868D01*
X184656092Y-74953434D01*
X184656096Y-74953437D01*
X184770820Y-75030094D01*
X184770833Y-75030101D01*
X184898305Y-75082901D01*
X184898310Y-75082903D01*
X184898314Y-75082903D01*
X184898315Y-75082904D01*
X185033642Y-75109823D01*
X185033645Y-75109823D01*
X185171633Y-75109823D01*
X185262679Y-75091712D01*
X185306966Y-75082903D01*
X185434449Y-75030098D01*
X185549180Y-74953437D01*
X185646752Y-74855865D01*
X185723413Y-74741134D01*
X185776218Y-74613651D01*
X185794430Y-74522094D01*
X185803138Y-74478318D01*
X185803138Y-74340327D01*
X185780062Y-74224318D01*
X190752137Y-74224318D01*
X190779056Y-74359645D01*
X190779059Y-74359655D01*
X190831859Y-74487127D01*
X190831866Y-74487140D01*
X190908523Y-74601864D01*
X190908526Y-74601868D01*
X191006092Y-74699434D01*
X191006096Y-74699437D01*
X191120820Y-74776094D01*
X191120833Y-74776101D01*
X191248006Y-74828777D01*
X191248310Y-74828903D01*
X191248314Y-74828903D01*
X191248315Y-74828904D01*
X191383642Y-74855823D01*
X191383645Y-74855823D01*
X191521633Y-74855823D01*
X191612679Y-74837712D01*
X191656966Y-74828903D01*
X191784449Y-74776098D01*
X191899180Y-74699437D01*
X191902087Y-74696530D01*
X197753500Y-74696530D01*
X197753500Y-74903469D01*
X197793868Y-75106412D01*
X197793870Y-75106420D01*
X197873058Y-75297596D01*
X197988024Y-75469657D01*
X198134342Y-75615975D01*
X198134345Y-75615977D01*
X198306402Y-75730941D01*
X198497580Y-75810130D01*
X198682909Y-75846994D01*
X198700530Y-75850499D01*
X198700534Y-75850500D01*
X198700535Y-75850500D01*
X198907466Y-75850500D01*
X198907467Y-75850499D01*
X199110420Y-75810130D01*
X199301598Y-75730941D01*
X199473655Y-75615977D01*
X199619977Y-75469655D01*
X199734941Y-75297598D01*
X199814130Y-75106420D01*
X199854500Y-74903465D01*
X199854500Y-74696535D01*
X199854499Y-74696530D01*
X200753500Y-74696530D01*
X200753500Y-74903469D01*
X200793868Y-75106412D01*
X200793870Y-75106420D01*
X200873058Y-75297596D01*
X200988024Y-75469657D01*
X201134342Y-75615975D01*
X201134345Y-75615977D01*
X201306402Y-75730941D01*
X201497580Y-75810130D01*
X201682909Y-75846994D01*
X201700530Y-75850499D01*
X201700534Y-75850500D01*
X201700535Y-75850500D01*
X201907466Y-75850500D01*
X201907467Y-75850499D01*
X202110420Y-75810130D01*
X202301598Y-75730941D01*
X202473655Y-75615977D01*
X202619977Y-75469655D01*
X202734941Y-75297598D01*
X202814130Y-75106420D01*
X202854500Y-74903465D01*
X202854500Y-74696535D01*
X202814130Y-74493580D01*
X202734941Y-74302402D01*
X202619977Y-74130345D01*
X202619975Y-74130342D01*
X202473657Y-73984024D01*
X202322652Y-73883127D01*
X202301598Y-73869059D01*
X202292308Y-73865211D01*
X202110420Y-73789870D01*
X202110412Y-73789868D01*
X201907469Y-73749500D01*
X201907465Y-73749500D01*
X201700535Y-73749500D01*
X201700530Y-73749500D01*
X201497587Y-73789868D01*
X201497579Y-73789870D01*
X201306403Y-73869058D01*
X201134342Y-73984024D01*
X200988024Y-74130342D01*
X200873058Y-74302403D01*
X200793870Y-74493579D01*
X200793868Y-74493587D01*
X200753500Y-74696530D01*
X199854499Y-74696530D01*
X199814130Y-74493580D01*
X199734941Y-74302402D01*
X199619977Y-74130345D01*
X199619975Y-74130342D01*
X199473657Y-73984024D01*
X199322652Y-73883127D01*
X199301598Y-73869059D01*
X199292308Y-73865211D01*
X199110420Y-73789870D01*
X199110412Y-73789868D01*
X198907469Y-73749500D01*
X198907465Y-73749500D01*
X198700535Y-73749500D01*
X198700530Y-73749500D01*
X198497587Y-73789868D01*
X198497579Y-73789870D01*
X198306403Y-73869058D01*
X198134342Y-73984024D01*
X197988024Y-74130342D01*
X197873058Y-74302403D01*
X197793870Y-74493579D01*
X197793868Y-74493587D01*
X197753500Y-74696530D01*
X191902087Y-74696530D01*
X191945994Y-74652623D01*
X191995856Y-74602762D01*
X191996749Y-74601868D01*
X191996752Y-74601865D01*
X192073413Y-74487134D01*
X192073612Y-74486655D01*
X192107936Y-74403788D01*
X192126218Y-74359651D01*
X192141281Y-74283927D01*
X192153138Y-74224318D01*
X192153138Y-74086327D01*
X192126219Y-73951000D01*
X192126218Y-73950999D01*
X192126218Y-73950995D01*
X192103078Y-73895129D01*
X192073416Y-73823518D01*
X192073409Y-73823505D01*
X191996752Y-73708781D01*
X191996749Y-73708777D01*
X191899183Y-73611211D01*
X191899179Y-73611208D01*
X191784455Y-73534551D01*
X191784442Y-73534544D01*
X191656970Y-73481744D01*
X191656960Y-73481741D01*
X191521633Y-73454823D01*
X191521631Y-73454823D01*
X191383645Y-73454823D01*
X191383643Y-73454823D01*
X191248315Y-73481741D01*
X191248305Y-73481744D01*
X191120833Y-73534544D01*
X191120820Y-73534551D01*
X191006096Y-73611208D01*
X191006092Y-73611211D01*
X190908526Y-73708777D01*
X190908523Y-73708781D01*
X190831866Y-73823505D01*
X190831859Y-73823518D01*
X190779059Y-73950990D01*
X190779056Y-73951000D01*
X190752138Y-74086327D01*
X190752138Y-74086330D01*
X190752138Y-74224316D01*
X190752138Y-74224318D01*
X190752137Y-74224318D01*
X185780062Y-74224318D01*
X185776219Y-74205000D01*
X185776218Y-74204999D01*
X185776218Y-74204995D01*
X185757494Y-74159791D01*
X185744198Y-74127690D01*
X185723414Y-74077514D01*
X185723409Y-74077505D01*
X185646752Y-73962781D01*
X185646749Y-73962777D01*
X185549183Y-73865211D01*
X185549179Y-73865208D01*
X185434455Y-73788551D01*
X185434442Y-73788544D01*
X185306970Y-73735744D01*
X185306960Y-73735741D01*
X185171633Y-73708823D01*
X185171631Y-73708823D01*
X185033645Y-73708823D01*
X185033643Y-73708823D01*
X184898315Y-73735741D01*
X184898305Y-73735744D01*
X184770833Y-73788544D01*
X184770820Y-73788551D01*
X184656096Y-73865208D01*
X184656092Y-73865211D01*
X184558526Y-73962777D01*
X184558523Y-73962781D01*
X184481866Y-74077505D01*
X184481859Y-74077518D01*
X184429059Y-74204990D01*
X184429056Y-74205000D01*
X184402138Y-74340327D01*
X184402138Y-74340330D01*
X184402138Y-74478316D01*
X184402138Y-74478318D01*
X184402137Y-74478318D01*
X178895970Y-74478318D01*
X178945180Y-74445437D01*
X179042752Y-74347865D01*
X179073129Y-74302403D01*
X179097889Y-74265347D01*
X179097889Y-74265346D01*
X179119413Y-74233134D01*
X179172218Y-74105651D01*
X179181027Y-74061364D01*
X179199138Y-73970318D01*
X179199138Y-73832327D01*
X179172219Y-73697000D01*
X179172218Y-73696999D01*
X179172218Y-73696995D01*
X179157537Y-73661551D01*
X179119416Y-73569518D01*
X179119409Y-73569505D01*
X179042752Y-73454781D01*
X179042749Y-73454777D01*
X178945183Y-73357211D01*
X178945179Y-73357208D01*
X178830455Y-73280551D01*
X178830442Y-73280544D01*
X178702970Y-73227744D01*
X178702960Y-73227741D01*
X178567633Y-73200823D01*
X178567631Y-73200823D01*
X178429645Y-73200823D01*
X178429643Y-73200823D01*
X178294315Y-73227741D01*
X178294305Y-73227744D01*
X178166833Y-73280544D01*
X178166820Y-73280551D01*
X178052096Y-73357208D01*
X178052092Y-73357211D01*
X177954526Y-73454777D01*
X177954523Y-73454781D01*
X177877866Y-73569505D01*
X177877859Y-73569518D01*
X177825059Y-73696990D01*
X177825056Y-73697000D01*
X177798138Y-73832327D01*
X177798138Y-73832330D01*
X177798138Y-73970316D01*
X177798138Y-73970318D01*
X177798137Y-73970318D01*
X137090617Y-73970318D01*
X137082416Y-73950518D01*
X137082409Y-73950505D01*
X137045408Y-73895129D01*
X137005752Y-73835781D01*
X137005749Y-73835777D01*
X136908183Y-73738211D01*
X136908179Y-73738208D01*
X136793455Y-73661551D01*
X136793442Y-73661544D01*
X136665970Y-73608744D01*
X136665960Y-73608741D01*
X136530633Y-73581823D01*
X136530631Y-73581823D01*
X136392645Y-73581823D01*
X136392643Y-73581823D01*
X136257315Y-73608741D01*
X136257305Y-73608744D01*
X136129833Y-73661544D01*
X136129820Y-73661551D01*
X136015096Y-73738208D01*
X136015092Y-73738211D01*
X135917526Y-73835777D01*
X135917523Y-73835781D01*
X135840866Y-73950505D01*
X135840859Y-73950518D01*
X135788059Y-74077990D01*
X135788056Y-74078000D01*
X135761138Y-74213327D01*
X135761138Y-74213330D01*
X135761138Y-74351316D01*
X135761138Y-74351318D01*
X135761137Y-74351318D01*
X132033588Y-74351318D01*
X132078613Y-74283934D01*
X132131418Y-74156451D01*
X132147120Y-74077512D01*
X132158338Y-74021118D01*
X132158338Y-73883127D01*
X132131419Y-73747800D01*
X132131418Y-73747799D01*
X132131418Y-73747795D01*
X132126425Y-73735741D01*
X132078616Y-73620318D01*
X132078609Y-73620305D01*
X132001952Y-73505581D01*
X132001949Y-73505577D01*
X131904383Y-73408011D01*
X131904379Y-73408008D01*
X131789655Y-73331351D01*
X131789642Y-73331344D01*
X131662170Y-73278544D01*
X131662160Y-73278541D01*
X131526833Y-73251623D01*
X131526831Y-73251623D01*
X131388845Y-73251623D01*
X131388843Y-73251623D01*
X131253515Y-73278541D01*
X131253505Y-73278544D01*
X131126033Y-73331344D01*
X131126020Y-73331351D01*
X131011296Y-73408008D01*
X131011292Y-73408011D01*
X130913726Y-73505577D01*
X130913723Y-73505581D01*
X130837066Y-73620305D01*
X130837059Y-73620318D01*
X130784259Y-73747790D01*
X130784256Y-73747800D01*
X130757338Y-73883127D01*
X130757338Y-73883130D01*
X130757338Y-74021116D01*
X130757338Y-74021118D01*
X130757337Y-74021118D01*
X113551514Y-74021118D01*
X113480248Y-73991599D01*
X113480247Y-73991599D01*
X113475766Y-73989743D01*
X113475762Y-73989742D01*
X113475760Y-73989741D01*
X113340433Y-73962823D01*
X113340431Y-73962823D01*
X113202445Y-73962823D01*
X113202443Y-73962823D01*
X113067115Y-73989741D01*
X113067105Y-73989744D01*
X112939633Y-74042544D01*
X112939620Y-74042551D01*
X112824896Y-74119208D01*
X112824892Y-74119211D01*
X112727326Y-74216777D01*
X112727323Y-74216781D01*
X112650666Y-74331505D01*
X112650659Y-74331518D01*
X112597859Y-74458990D01*
X112597856Y-74459000D01*
X112570938Y-74594327D01*
X112570938Y-74594330D01*
X112570938Y-74732316D01*
X112570938Y-74732318D01*
X112570937Y-74732318D01*
X102017200Y-74732318D01*
X102017200Y-72413807D01*
X120582138Y-72413807D01*
X120582138Y-72614838D01*
X120621353Y-72811984D01*
X120621356Y-72811996D01*
X120698278Y-72997704D01*
X120698285Y-72997717D01*
X120809963Y-73164853D01*
X120809966Y-73164857D01*
X120952103Y-73306994D01*
X120952107Y-73306997D01*
X121119243Y-73418675D01*
X121119256Y-73418682D01*
X121271503Y-73481744D01*
X121304969Y-73495606D01*
X121500760Y-73534551D01*
X121502122Y-73534822D01*
X121502126Y-73534823D01*
X121502127Y-73534823D01*
X121703150Y-73534823D01*
X121703151Y-73534822D01*
X121900307Y-73495606D01*
X122086026Y-73418679D01*
X122253169Y-73306997D01*
X122395312Y-73164854D01*
X122506994Y-72997711D01*
X122583921Y-72811992D01*
X122623138Y-72614834D01*
X122623138Y-72413812D01*
X122583921Y-72216654D01*
X122573841Y-72192318D01*
X132078137Y-72192318D01*
X132105056Y-72327645D01*
X132105059Y-72327655D01*
X132157859Y-72455127D01*
X132157866Y-72455140D01*
X132234523Y-72569864D01*
X132234526Y-72569868D01*
X132332092Y-72667434D01*
X132332096Y-72667437D01*
X132446820Y-72744094D01*
X132446833Y-72744101D01*
X132574305Y-72796901D01*
X132574310Y-72796903D01*
X132574314Y-72796903D01*
X132574315Y-72796904D01*
X132709642Y-72823823D01*
X132709645Y-72823823D01*
X132847633Y-72823823D01*
X132938679Y-72805712D01*
X132982966Y-72796903D01*
X133110449Y-72744098D01*
X133225180Y-72667437D01*
X133322752Y-72569865D01*
X133337417Y-72547918D01*
X139799737Y-72547918D01*
X139826656Y-72683245D01*
X139826659Y-72683255D01*
X139879459Y-72810727D01*
X139879466Y-72810740D01*
X139956123Y-72925464D01*
X139956126Y-72925468D01*
X140053692Y-73023034D01*
X140053696Y-73023037D01*
X140168420Y-73099694D01*
X140168433Y-73099701D01*
X140238258Y-73128623D01*
X140295910Y-73152503D01*
X140295914Y-73152503D01*
X140295915Y-73152504D01*
X140431242Y-73179423D01*
X140431245Y-73179423D01*
X140569233Y-73179423D01*
X140660279Y-73161312D01*
X140704566Y-73152503D01*
X140827206Y-73101704D01*
X140832042Y-73099701D01*
X140832042Y-73099700D01*
X140832049Y-73099698D01*
X140946780Y-73023037D01*
X141044352Y-72925465D01*
X141121013Y-72810734D01*
X141166749Y-72700318D01*
X147572137Y-72700318D01*
X147599056Y-72835645D01*
X147599059Y-72835655D01*
X147651859Y-72963127D01*
X147651866Y-72963140D01*
X147728523Y-73077864D01*
X147728526Y-73077868D01*
X147826092Y-73175434D01*
X147826096Y-73175437D01*
X147940820Y-73252094D01*
X147940833Y-73252101D01*
X148068305Y-73304901D01*
X148068310Y-73304903D01*
X148068314Y-73304903D01*
X148068315Y-73304904D01*
X148203642Y-73331823D01*
X148203645Y-73331823D01*
X148341633Y-73331823D01*
X148432679Y-73313712D01*
X148476966Y-73304903D01*
X148604449Y-73252098D01*
X148719180Y-73175437D01*
X148816752Y-73077865D01*
X148893413Y-72963134D01*
X148893759Y-72962300D01*
X148922747Y-72892315D01*
X148946218Y-72835651D01*
X148961281Y-72759927D01*
X148973138Y-72700318D01*
X148973138Y-72562327D01*
X148950062Y-72446318D01*
X161796137Y-72446318D01*
X161823056Y-72581645D01*
X161823059Y-72581655D01*
X161875859Y-72709127D01*
X161875866Y-72709140D01*
X161952523Y-72823864D01*
X161952526Y-72823868D01*
X162050092Y-72921434D01*
X162050096Y-72921437D01*
X162164820Y-72998094D01*
X162164833Y-72998101D01*
X162290130Y-73050000D01*
X162292310Y-73050903D01*
X162292314Y-73050903D01*
X162292315Y-73050904D01*
X162427642Y-73077823D01*
X162427645Y-73077823D01*
X162565633Y-73077823D01*
X162656679Y-73059712D01*
X162700966Y-73050903D01*
X162828449Y-72998098D01*
X162943180Y-72921437D01*
X163040752Y-72823865D01*
X163117413Y-72709134D01*
X163170218Y-72581651D01*
X163187033Y-72497118D01*
X169822537Y-72497118D01*
X169849456Y-72632445D01*
X169849459Y-72632455D01*
X169902259Y-72759927D01*
X169902266Y-72759940D01*
X169978923Y-72874664D01*
X169978926Y-72874668D01*
X170076492Y-72972234D01*
X170076496Y-72972237D01*
X170191220Y-73048894D01*
X170191233Y-73048901D01*
X170270802Y-73081859D01*
X170318710Y-73101703D01*
X170318714Y-73101703D01*
X170318715Y-73101704D01*
X170454042Y-73128623D01*
X170454045Y-73128623D01*
X170592033Y-73128623D01*
X170683079Y-73110512D01*
X170727366Y-73101703D01*
X170850006Y-73050904D01*
X170854842Y-73048901D01*
X170854842Y-73048900D01*
X170854849Y-73048898D01*
X170969580Y-72972237D01*
X171067152Y-72874665D01*
X171143813Y-72759934D01*
X171196618Y-72632451D01*
X171210567Y-72562327D01*
X171223538Y-72497118D01*
X171223538Y-72359127D01*
X171196619Y-72223800D01*
X171196618Y-72223799D01*
X171196618Y-72223795D01*
X171167523Y-72153553D01*
X171143816Y-72096318D01*
X171143809Y-72096305D01*
X171067152Y-71981581D01*
X171067149Y-71981577D01*
X170969583Y-71884011D01*
X170969579Y-71884008D01*
X170854855Y-71807351D01*
X170854842Y-71807344D01*
X170727370Y-71754544D01*
X170727360Y-71754541D01*
X170592033Y-71727623D01*
X170592031Y-71727623D01*
X170454045Y-71727623D01*
X170454043Y-71727623D01*
X170318715Y-71754541D01*
X170318705Y-71754544D01*
X170191233Y-71807344D01*
X170191220Y-71807351D01*
X170076496Y-71884008D01*
X170076492Y-71884011D01*
X169978926Y-71981577D01*
X169978923Y-71981581D01*
X169902266Y-72096305D01*
X169902259Y-72096318D01*
X169849459Y-72223790D01*
X169849456Y-72223800D01*
X169822538Y-72359127D01*
X169822538Y-72359130D01*
X169822538Y-72497116D01*
X169822538Y-72497118D01*
X169822537Y-72497118D01*
X163187033Y-72497118D01*
X163195382Y-72455145D01*
X163197138Y-72446318D01*
X163197138Y-72308327D01*
X163170219Y-72173000D01*
X163170218Y-72172999D01*
X163170218Y-72172995D01*
X163162165Y-72153553D01*
X163117416Y-72045518D01*
X163117409Y-72045505D01*
X163040752Y-71930781D01*
X163040749Y-71930777D01*
X162943183Y-71833211D01*
X162943179Y-71833208D01*
X162828455Y-71756551D01*
X162828442Y-71756544D01*
X162700970Y-71703744D01*
X162700960Y-71703741D01*
X162690282Y-71701617D01*
X197554000Y-71701617D01*
X197554000Y-71898382D01*
X197584778Y-72092705D01*
X197645581Y-72279835D01*
X197734905Y-72455145D01*
X197760319Y-72490125D01*
X197760320Y-72490125D01*
X198312871Y-71937574D01*
X198328755Y-71996853D01*
X198395898Y-72113147D01*
X198490853Y-72208102D01*
X198607147Y-72275245D01*
X198666424Y-72291128D01*
X198113873Y-72843677D01*
X198113873Y-72843678D01*
X198148858Y-72869096D01*
X198324164Y-72958418D01*
X198511294Y-73019221D01*
X198705618Y-73050000D01*
X198902382Y-73050000D01*
X199096705Y-73019221D01*
X199283835Y-72958418D01*
X199459143Y-72869095D01*
X199494125Y-72843678D01*
X199494126Y-72843678D01*
X198941575Y-72291127D01*
X199000853Y-72275245D01*
X199117147Y-72208102D01*
X199212102Y-72113147D01*
X199279245Y-71996853D01*
X199295127Y-71937575D01*
X199847678Y-72490126D01*
X199847678Y-72490125D01*
X199873095Y-72455143D01*
X199962418Y-72279835D01*
X200023221Y-72092705D01*
X200041193Y-71979240D01*
X200054000Y-71898382D01*
X200054000Y-71701617D01*
X200023221Y-71507294D01*
X199962418Y-71320164D01*
X199953754Y-71303158D01*
X199926676Y-71250014D01*
X200554000Y-71250014D01*
X200554000Y-71550000D01*
X201359440Y-71550000D01*
X201328755Y-71603147D01*
X201294000Y-71732857D01*
X201294000Y-71867143D01*
X201328755Y-71996853D01*
X201359440Y-72050000D01*
X200554000Y-72050000D01*
X200554000Y-72349985D01*
X200564493Y-72452689D01*
X200564494Y-72452696D01*
X200619641Y-72619118D01*
X200619643Y-72619123D01*
X200711684Y-72768344D01*
X200835655Y-72892315D01*
X200984876Y-72984356D01*
X200984881Y-72984358D01*
X201151303Y-73039505D01*
X201151310Y-73039506D01*
X201254014Y-73049999D01*
X201254027Y-73050000D01*
X201554000Y-73050000D01*
X201554000Y-72244560D01*
X201607147Y-72275245D01*
X201736857Y-72310000D01*
X201871143Y-72310000D01*
X202000853Y-72275245D01*
X202054000Y-72244560D01*
X202054000Y-73050000D01*
X202353973Y-73050000D01*
X202353985Y-73049999D01*
X202456689Y-73039506D01*
X202456696Y-73039505D01*
X202623118Y-72984358D01*
X202623123Y-72984356D01*
X202772344Y-72892315D01*
X202896315Y-72768344D01*
X202988356Y-72619123D01*
X202988358Y-72619118D01*
X203043505Y-72452696D01*
X203043506Y-72452689D01*
X203053999Y-72349985D01*
X203054000Y-72349972D01*
X203054000Y-72050000D01*
X202248560Y-72050000D01*
X202279245Y-71996853D01*
X202314000Y-71867143D01*
X202314000Y-71732857D01*
X202279245Y-71603147D01*
X202248560Y-71550000D01*
X203054000Y-71550000D01*
X203054000Y-71250027D01*
X203053999Y-71250014D01*
X203043506Y-71147310D01*
X203043505Y-71147303D01*
X202988358Y-70980881D01*
X202988356Y-70980876D01*
X202896315Y-70831655D01*
X202772344Y-70707684D01*
X202623123Y-70615643D01*
X202623118Y-70615641D01*
X202456696Y-70560494D01*
X202456689Y-70560493D01*
X202353985Y-70550000D01*
X202054000Y-70550000D01*
X202054000Y-71355439D01*
X202000853Y-71324755D01*
X201871143Y-71290000D01*
X201736857Y-71290000D01*
X201607147Y-71324755D01*
X201554000Y-71355439D01*
X201554000Y-70550000D01*
X201254014Y-70550000D01*
X201151310Y-70560493D01*
X201151303Y-70560494D01*
X200984881Y-70615641D01*
X200984876Y-70615643D01*
X200835655Y-70707684D01*
X200711684Y-70831655D01*
X200619643Y-70980876D01*
X200619641Y-70980881D01*
X200564494Y-71147303D01*
X200564493Y-71147310D01*
X200554000Y-71250014D01*
X199926676Y-71250014D01*
X199873096Y-71144858D01*
X199847678Y-71109873D01*
X199847677Y-71109873D01*
X199295127Y-71662423D01*
X199279245Y-71603147D01*
X199212102Y-71486853D01*
X199117147Y-71391898D01*
X199000853Y-71324755D01*
X198941574Y-71308871D01*
X199494125Y-70756320D01*
X199494125Y-70756319D01*
X199459145Y-70730905D01*
X199283835Y-70641581D01*
X199096705Y-70580778D01*
X198902382Y-70550000D01*
X198705618Y-70550000D01*
X198511294Y-70580778D01*
X198324161Y-70641582D01*
X198148863Y-70730899D01*
X198148859Y-70730902D01*
X198113873Y-70756320D01*
X198113872Y-70756320D01*
X198666425Y-71308871D01*
X198607147Y-71324755D01*
X198490853Y-71391898D01*
X198395898Y-71486853D01*
X198328755Y-71603147D01*
X198312871Y-71662424D01*
X197760320Y-71109872D01*
X197760320Y-71109873D01*
X197734902Y-71144859D01*
X197734899Y-71144863D01*
X197645582Y-71320161D01*
X197584778Y-71507294D01*
X197554000Y-71701617D01*
X162690282Y-71701617D01*
X162565633Y-71676823D01*
X162565631Y-71676823D01*
X162427645Y-71676823D01*
X162427643Y-71676823D01*
X162292315Y-71703741D01*
X162292305Y-71703744D01*
X162164833Y-71756544D01*
X162164820Y-71756551D01*
X162050096Y-71833208D01*
X162050092Y-71833211D01*
X161952526Y-71930777D01*
X161952523Y-71930781D01*
X161875866Y-72045505D01*
X161875859Y-72045518D01*
X161823059Y-72172990D01*
X161823056Y-72173000D01*
X161796138Y-72308327D01*
X161796138Y-72308330D01*
X161796138Y-72446316D01*
X161796138Y-72446318D01*
X161796137Y-72446318D01*
X148950062Y-72446318D01*
X148946219Y-72427000D01*
X148946218Y-72426999D01*
X148946218Y-72426995D01*
X148946216Y-72426990D01*
X148914198Y-72349690D01*
X148893414Y-72299514D01*
X148893409Y-72299505D01*
X148816752Y-72184781D01*
X148816749Y-72184777D01*
X148719183Y-72087211D01*
X148719179Y-72087208D01*
X148604455Y-72010551D01*
X148604442Y-72010544D01*
X148476970Y-71957744D01*
X148476960Y-71957741D01*
X148341633Y-71930823D01*
X148341631Y-71930823D01*
X148203645Y-71930823D01*
X148203643Y-71930823D01*
X148068315Y-71957741D01*
X148068305Y-71957744D01*
X147940833Y-72010544D01*
X147940820Y-72010551D01*
X147826096Y-72087208D01*
X147826092Y-72087211D01*
X147728526Y-72184777D01*
X147728523Y-72184781D01*
X147651866Y-72299505D01*
X147651859Y-72299518D01*
X147599059Y-72426990D01*
X147599056Y-72427000D01*
X147572138Y-72562327D01*
X147572138Y-72562330D01*
X147572138Y-72700316D01*
X147572138Y-72700318D01*
X147572137Y-72700318D01*
X141166749Y-72700318D01*
X141173818Y-72683251D01*
X141200738Y-72547916D01*
X141200738Y-72409930D01*
X141200738Y-72409927D01*
X141173819Y-72274600D01*
X141173818Y-72274599D01*
X141173818Y-72274595D01*
X141173816Y-72274590D01*
X141121016Y-72147118D01*
X141121009Y-72147105D01*
X141044352Y-72032381D01*
X141044349Y-72032377D01*
X140946783Y-71934811D01*
X140946779Y-71934808D01*
X140832055Y-71858151D01*
X140832042Y-71858144D01*
X140704570Y-71805344D01*
X140704560Y-71805341D01*
X140569233Y-71778423D01*
X140569231Y-71778423D01*
X140431245Y-71778423D01*
X140431243Y-71778423D01*
X140295915Y-71805341D01*
X140295905Y-71805344D01*
X140168433Y-71858144D01*
X140168420Y-71858151D01*
X140053696Y-71934808D01*
X140053692Y-71934811D01*
X139956126Y-72032377D01*
X139956123Y-72032381D01*
X139879466Y-72147105D01*
X139879459Y-72147118D01*
X139826659Y-72274590D01*
X139826656Y-72274600D01*
X139799738Y-72409927D01*
X139799738Y-72409930D01*
X139799738Y-72547916D01*
X139799738Y-72547918D01*
X139799737Y-72547918D01*
X133337417Y-72547918D01*
X133399413Y-72455134D01*
X133403066Y-72446316D01*
X133440316Y-72356386D01*
X133452216Y-72327655D01*
X133452218Y-72327651D01*
X133470430Y-72236094D01*
X133479138Y-72192318D01*
X133479138Y-72054327D01*
X133452219Y-71919000D01*
X133452218Y-71918999D01*
X133452218Y-71918995D01*
X133437727Y-71884011D01*
X133399416Y-71791518D01*
X133399409Y-71791505D01*
X133322752Y-71676781D01*
X133322749Y-71676777D01*
X133225183Y-71579211D01*
X133225179Y-71579208D01*
X133110455Y-71502551D01*
X133110442Y-71502544D01*
X132982970Y-71449744D01*
X132982960Y-71449741D01*
X132847633Y-71422823D01*
X132847631Y-71422823D01*
X132709645Y-71422823D01*
X132709643Y-71422823D01*
X132574315Y-71449741D01*
X132574305Y-71449744D01*
X132446833Y-71502544D01*
X132446820Y-71502551D01*
X132332096Y-71579208D01*
X132332092Y-71579211D01*
X132234526Y-71676777D01*
X132234523Y-71676781D01*
X132157866Y-71791505D01*
X132157859Y-71791518D01*
X132105059Y-71918990D01*
X132105056Y-71919000D01*
X132078138Y-72054327D01*
X132078138Y-72054330D01*
X132078138Y-72192316D01*
X132078138Y-72192318D01*
X132078137Y-72192318D01*
X122573841Y-72192318D01*
X122557784Y-72153553D01*
X122533817Y-72095690D01*
X122506995Y-72030937D01*
X122506990Y-72030928D01*
X122395312Y-71863792D01*
X122395309Y-71863788D01*
X122253172Y-71721651D01*
X122253168Y-71721648D01*
X122086032Y-71609970D01*
X122086019Y-71609963D01*
X121900311Y-71533041D01*
X121900299Y-71533038D01*
X121703153Y-71493823D01*
X121703149Y-71493823D01*
X121502127Y-71493823D01*
X121502122Y-71493823D01*
X121304976Y-71533038D01*
X121304964Y-71533041D01*
X121119256Y-71609963D01*
X121119243Y-71609970D01*
X120952107Y-71721648D01*
X120952103Y-71721651D01*
X120809966Y-71863788D01*
X120809963Y-71863792D01*
X120698285Y-72030928D01*
X120698278Y-72030941D01*
X120621356Y-72216649D01*
X120621353Y-72216661D01*
X120582138Y-72413807D01*
X102017200Y-72413807D01*
X102017200Y-71684318D01*
X116330137Y-71684318D01*
X116357056Y-71819645D01*
X116357059Y-71819655D01*
X116409859Y-71947127D01*
X116409866Y-71947140D01*
X116486523Y-72061864D01*
X116486526Y-72061868D01*
X116584092Y-72159434D01*
X116584096Y-72159437D01*
X116698820Y-72236094D01*
X116698833Y-72236101D01*
X116826305Y-72288901D01*
X116826310Y-72288903D01*
X116826314Y-72288903D01*
X116826315Y-72288904D01*
X116961642Y-72315823D01*
X116961645Y-72315823D01*
X117099633Y-72315823D01*
X117189854Y-72297876D01*
X117234966Y-72288903D01*
X117256858Y-72279835D01*
X117362442Y-72236101D01*
X117362442Y-72236100D01*
X117362449Y-72236098D01*
X117477180Y-72159437D01*
X117574752Y-72061865D01*
X117651413Y-71947134D01*
X117652819Y-71943741D01*
X117677560Y-71884009D01*
X117704218Y-71819651D01*
X117713027Y-71775364D01*
X117731138Y-71684318D01*
X117731138Y-71546327D01*
X117704219Y-71411000D01*
X117704218Y-71410999D01*
X117704218Y-71410995D01*
X117696308Y-71391898D01*
X117651416Y-71283518D01*
X117651409Y-71283505D01*
X117579788Y-71176318D01*
X124458137Y-71176318D01*
X124485056Y-71311645D01*
X124485059Y-71311655D01*
X124537859Y-71439127D01*
X124537866Y-71439140D01*
X124614523Y-71553864D01*
X124614526Y-71553868D01*
X124712092Y-71651434D01*
X124712096Y-71651437D01*
X124826820Y-71728094D01*
X124826833Y-71728101D01*
X124948323Y-71778423D01*
X124954310Y-71780903D01*
X124954314Y-71780903D01*
X124954315Y-71780904D01*
X125089642Y-71807823D01*
X125089645Y-71807823D01*
X125227633Y-71807823D01*
X125318679Y-71789712D01*
X125362966Y-71780903D01*
X125490449Y-71728098D01*
X125605180Y-71651437D01*
X125702752Y-71553865D01*
X125779413Y-71439134D01*
X125832218Y-71311651D01*
X125844476Y-71250027D01*
X125859138Y-71176318D01*
X125859138Y-71038327D01*
X125836062Y-70922318D01*
X162558137Y-70922318D01*
X162585056Y-71057645D01*
X162585059Y-71057655D01*
X162637859Y-71185127D01*
X162637866Y-71185140D01*
X162714523Y-71299864D01*
X162714526Y-71299868D01*
X162812092Y-71397434D01*
X162812096Y-71397437D01*
X162926820Y-71474094D01*
X162926833Y-71474101D01*
X163014463Y-71510398D01*
X163054310Y-71526903D01*
X163054314Y-71526903D01*
X163054315Y-71526904D01*
X163189642Y-71553823D01*
X163189645Y-71553823D01*
X163327633Y-71553823D01*
X163432123Y-71533038D01*
X163462966Y-71526903D01*
X163590449Y-71474098D01*
X163705180Y-71397437D01*
X163802752Y-71299865D01*
X163879413Y-71185134D01*
X163932218Y-71057651D01*
X163941027Y-71013364D01*
X163959138Y-70922318D01*
X163959138Y-70784327D01*
X163932219Y-70649000D01*
X163932218Y-70648999D01*
X163932218Y-70648995D01*
X163932216Y-70648990D01*
X163879416Y-70521518D01*
X163879409Y-70521505D01*
X163802752Y-70406781D01*
X163802749Y-70406777D01*
X163705183Y-70309211D01*
X163705179Y-70309208D01*
X163590455Y-70232551D01*
X163590442Y-70232544D01*
X163462970Y-70179744D01*
X163462960Y-70179741D01*
X163327633Y-70152823D01*
X163327631Y-70152823D01*
X163189645Y-70152823D01*
X163189643Y-70152823D01*
X163054315Y-70179741D01*
X163054305Y-70179744D01*
X162926833Y-70232544D01*
X162926820Y-70232551D01*
X162812096Y-70309208D01*
X162812092Y-70309211D01*
X162714526Y-70406777D01*
X162714523Y-70406781D01*
X162637866Y-70521505D01*
X162637859Y-70521518D01*
X162585059Y-70648990D01*
X162585056Y-70649000D01*
X162558138Y-70784327D01*
X162558138Y-70784330D01*
X162558138Y-70922316D01*
X162558138Y-70922318D01*
X162558137Y-70922318D01*
X125836062Y-70922318D01*
X125832219Y-70903000D01*
X125832218Y-70902999D01*
X125832218Y-70902995D01*
X125802668Y-70831655D01*
X125779416Y-70775518D01*
X125779409Y-70775505D01*
X125702752Y-70660781D01*
X125702749Y-70660777D01*
X125605183Y-70563211D01*
X125605179Y-70563208D01*
X125490455Y-70486551D01*
X125490442Y-70486544D01*
X125362970Y-70433744D01*
X125362960Y-70433741D01*
X125227633Y-70406823D01*
X125227631Y-70406823D01*
X125089645Y-70406823D01*
X125089643Y-70406823D01*
X124954315Y-70433741D01*
X124954305Y-70433744D01*
X124826833Y-70486544D01*
X124826820Y-70486551D01*
X124712096Y-70563208D01*
X124712092Y-70563211D01*
X124614526Y-70660777D01*
X124614523Y-70660781D01*
X124537866Y-70775505D01*
X124537859Y-70775518D01*
X124485059Y-70902990D01*
X124485056Y-70903000D01*
X124458138Y-71038327D01*
X124458138Y-71038330D01*
X124458138Y-71176316D01*
X124458138Y-71176318D01*
X124458137Y-71176318D01*
X117579788Y-71176318D01*
X117574752Y-71168781D01*
X117574749Y-71168777D01*
X117477183Y-71071211D01*
X117477179Y-71071208D01*
X117362455Y-70994551D01*
X117362442Y-70994544D01*
X117234970Y-70941744D01*
X117234960Y-70941741D01*
X117099633Y-70914823D01*
X117099631Y-70914823D01*
X116961645Y-70914823D01*
X116961643Y-70914823D01*
X116826315Y-70941741D01*
X116826305Y-70941744D01*
X116698833Y-70994544D01*
X116698820Y-70994551D01*
X116584096Y-71071208D01*
X116584092Y-71071211D01*
X116486526Y-71168777D01*
X116486523Y-71168781D01*
X116409866Y-71283505D01*
X116409859Y-71283518D01*
X116357059Y-71410990D01*
X116357056Y-71411000D01*
X116330138Y-71546327D01*
X116330138Y-71546330D01*
X116330138Y-71684316D01*
X116330138Y-71684318D01*
X116330137Y-71684318D01*
X102017200Y-71684318D01*
X102017200Y-70160318D01*
X130046137Y-70160318D01*
X130073056Y-70295645D01*
X130073059Y-70295655D01*
X130125859Y-70423127D01*
X130125866Y-70423140D01*
X130202523Y-70537864D01*
X130202526Y-70537868D01*
X130300092Y-70635434D01*
X130300096Y-70635437D01*
X130414820Y-70712094D01*
X130414833Y-70712101D01*
X130542305Y-70764901D01*
X130542310Y-70764903D01*
X130542314Y-70764903D01*
X130542315Y-70764904D01*
X130677642Y-70791823D01*
X130677645Y-70791823D01*
X130815633Y-70791823D01*
X130906679Y-70773712D01*
X130950966Y-70764903D01*
X131078449Y-70712098D01*
X131087007Y-70706380D01*
X131133767Y-70675136D01*
X131156040Y-70660253D01*
X131193180Y-70635437D01*
X131290752Y-70537865D01*
X131367413Y-70423134D01*
X131420218Y-70295651D01*
X131429027Y-70251364D01*
X131447138Y-70160318D01*
X131447138Y-70022327D01*
X131420219Y-69887000D01*
X131420218Y-69886999D01*
X131420218Y-69886995D01*
X131420216Y-69886990D01*
X131367416Y-69759518D01*
X131367409Y-69759505D01*
X131290752Y-69644781D01*
X131290749Y-69644777D01*
X131193183Y-69547211D01*
X131193179Y-69547208D01*
X131078455Y-69470551D01*
X131078442Y-69470544D01*
X130950970Y-69417744D01*
X130950960Y-69417741D01*
X130815633Y-69390823D01*
X130815631Y-69390823D01*
X130677645Y-69390823D01*
X130677643Y-69390823D01*
X130542315Y-69417741D01*
X130542305Y-69417744D01*
X130414833Y-69470544D01*
X130414820Y-69470551D01*
X130300096Y-69547208D01*
X130300092Y-69547211D01*
X130202526Y-69644777D01*
X130202523Y-69644781D01*
X130125866Y-69759505D01*
X130125859Y-69759518D01*
X130073059Y-69886990D01*
X130073056Y-69887000D01*
X130046138Y-70022327D01*
X130046138Y-70022330D01*
X130046138Y-70160316D01*
X130046138Y-70160318D01*
X130046137Y-70160318D01*
X102017200Y-70160318D01*
X102017200Y-67805318D01*
X120818138Y-67805318D01*
X120818138Y-68041327D01*
X120818139Y-68041343D01*
X120848944Y-68275333D01*
X120848944Y-68275336D01*
X120848945Y-68275337D01*
X120891222Y-68433116D01*
X120910032Y-68503316D01*
X121000352Y-68721368D01*
X121000357Y-68721379D01*
X121051907Y-68810665D01*
X121118365Y-68925773D01*
X121118367Y-68925776D01*
X121118368Y-68925777D01*
X121262044Y-69113020D01*
X121262050Y-69113027D01*
X121428933Y-69279910D01*
X121428939Y-69279915D01*
X121616188Y-69423596D01*
X121747556Y-69499441D01*
X121820581Y-69541603D01*
X121820586Y-69541605D01*
X121820589Y-69541607D01*
X122038645Y-69631929D01*
X122266624Y-69693016D01*
X122500627Y-69723823D01*
X122500634Y-69723823D01*
X122736642Y-69723823D01*
X122736649Y-69723823D01*
X122970652Y-69693016D01*
X123198631Y-69631929D01*
X123416687Y-69541607D01*
X123621088Y-69423596D01*
X123808337Y-69279915D01*
X123975230Y-69113022D01*
X124118911Y-68925773D01*
X124236922Y-68721372D01*
X124327244Y-68503316D01*
X124346054Y-68433118D01*
X192784137Y-68433118D01*
X192811056Y-68568445D01*
X192811059Y-68568455D01*
X192863859Y-68695927D01*
X192863866Y-68695940D01*
X192940523Y-68810664D01*
X192940526Y-68810668D01*
X193038092Y-68908234D01*
X193038096Y-68908237D01*
X193152820Y-68984894D01*
X193152833Y-68984901D01*
X193280305Y-69037701D01*
X193280310Y-69037703D01*
X193280314Y-69037703D01*
X193280315Y-69037704D01*
X193415642Y-69064623D01*
X193415645Y-69064623D01*
X193553633Y-69064623D01*
X193644679Y-69046512D01*
X193688966Y-69037703D01*
X193816449Y-68984898D01*
X193931180Y-68908237D01*
X194028752Y-68810665D01*
X194105413Y-68695934D01*
X194158218Y-68568451D01*
X194185138Y-68433116D01*
X194185138Y-68295130D01*
X194185138Y-68295127D01*
X194158219Y-68159800D01*
X194158218Y-68159799D01*
X194158218Y-68159795D01*
X194158216Y-68159790D01*
X194105416Y-68032318D01*
X194105409Y-68032305D01*
X194028752Y-67917581D01*
X194028749Y-67917577D01*
X193931183Y-67820011D01*
X193931179Y-67820008D01*
X193816455Y-67743351D01*
X193816442Y-67743344D01*
X193688970Y-67690544D01*
X193688960Y-67690541D01*
X193553633Y-67663623D01*
X193553631Y-67663623D01*
X193415645Y-67663623D01*
X193415643Y-67663623D01*
X193280315Y-67690541D01*
X193280305Y-67690544D01*
X193152833Y-67743344D01*
X193152820Y-67743351D01*
X193038096Y-67820008D01*
X193038092Y-67820011D01*
X192940526Y-67917577D01*
X192940523Y-67917581D01*
X192863866Y-68032305D01*
X192863859Y-68032318D01*
X192811059Y-68159790D01*
X192811056Y-68159800D01*
X192784138Y-68295127D01*
X192784138Y-68295130D01*
X192784138Y-68433116D01*
X192784138Y-68433118D01*
X192784137Y-68433118D01*
X124346054Y-68433118D01*
X124388331Y-68275337D01*
X124419138Y-68041334D01*
X124419138Y-67805312D01*
X124388331Y-67571309D01*
X124327244Y-67343330D01*
X124236922Y-67125274D01*
X124236920Y-67125271D01*
X124236918Y-67125266D01*
X124194756Y-67052241D01*
X124118911Y-66920873D01*
X124059639Y-66843629D01*
X123975231Y-66733625D01*
X123975225Y-66733618D01*
X123808342Y-66566735D01*
X123808335Y-66566729D01*
X123621092Y-66423053D01*
X123621091Y-66423052D01*
X123621088Y-66423050D01*
X123495113Y-66350318D01*
X123416694Y-66305042D01*
X123416683Y-66305037D01*
X123198631Y-66214717D01*
X123026338Y-66168551D01*
X122970652Y-66153630D01*
X122970651Y-66153629D01*
X122970648Y-66153629D01*
X122736658Y-66122824D01*
X122736655Y-66122823D01*
X122736649Y-66122823D01*
X122500627Y-66122823D01*
X122500621Y-66122823D01*
X122500617Y-66122824D01*
X122266627Y-66153629D01*
X122038644Y-66214717D01*
X121820592Y-66305037D01*
X121820581Y-66305042D01*
X121616183Y-66423053D01*
X121428940Y-66566729D01*
X121428933Y-66566735D01*
X121262050Y-66733618D01*
X121262044Y-66733625D01*
X121118368Y-66920868D01*
X121000357Y-67125266D01*
X121000352Y-67125277D01*
X120910032Y-67343329D01*
X120848944Y-67571312D01*
X120818139Y-67805302D01*
X120818138Y-67805318D01*
X102017200Y-67805318D01*
X102017200Y-66350318D01*
X104646137Y-66350318D01*
X104673056Y-66485645D01*
X104673059Y-66485655D01*
X104725859Y-66613127D01*
X104725866Y-66613140D01*
X104802523Y-66727864D01*
X104802526Y-66727868D01*
X104900092Y-66825434D01*
X104900096Y-66825437D01*
X105014820Y-66902094D01*
X105014833Y-66902101D01*
X105142305Y-66954901D01*
X105142310Y-66954903D01*
X105142314Y-66954903D01*
X105142315Y-66954904D01*
X105277642Y-66981823D01*
X105277645Y-66981823D01*
X105415633Y-66981823D01*
X105513779Y-66962300D01*
X105550966Y-66954903D01*
X105678449Y-66902098D01*
X105793180Y-66825437D01*
X105890752Y-66727865D01*
X105967413Y-66613134D01*
X106020218Y-66485651D01*
X106047138Y-66350316D01*
X106047138Y-66212330D01*
X106047138Y-66212327D01*
X106020219Y-66077000D01*
X106020218Y-66076999D01*
X106020218Y-66076995D01*
X105979438Y-65978542D01*
X105967416Y-65949518D01*
X105967409Y-65949505D01*
X105944564Y-65915315D01*
X105901787Y-65851296D01*
X115118138Y-65851296D01*
X115118138Y-66095349D01*
X115151349Y-66305037D01*
X115156317Y-66336399D01*
X115231734Y-66568508D01*
X115315861Y-66733618D01*
X115342534Y-66785965D01*
X115485977Y-66983399D01*
X115485981Y-66983404D01*
X115658556Y-67155979D01*
X115658561Y-67155983D01*
X115830774Y-67281102D01*
X115855999Y-67299429D01*
X116073453Y-67410227D01*
X116305562Y-67485644D01*
X116546611Y-67523823D01*
X116546612Y-67523823D01*
X116790664Y-67523823D01*
X116790665Y-67523823D01*
X117031714Y-67485644D01*
X117263823Y-67410227D01*
X117481277Y-67299429D01*
X117678721Y-67155978D01*
X117851293Y-66983406D01*
X117994744Y-66785962D01*
X118105542Y-66568508D01*
X118180959Y-66336399D01*
X118219138Y-66095350D01*
X118219138Y-65851296D01*
X127118138Y-65851296D01*
X127118138Y-66095349D01*
X127151349Y-66305037D01*
X127156317Y-66336399D01*
X127231734Y-66568508D01*
X127315861Y-66733618D01*
X127342534Y-66785965D01*
X127485977Y-66983399D01*
X127485981Y-66983404D01*
X127658556Y-67155979D01*
X127658561Y-67155983D01*
X127830774Y-67281102D01*
X127855999Y-67299429D01*
X128073453Y-67410227D01*
X128305562Y-67485644D01*
X128546611Y-67523823D01*
X128546612Y-67523823D01*
X128790664Y-67523823D01*
X128790665Y-67523823D01*
X129031714Y-67485644D01*
X129263823Y-67410227D01*
X129481277Y-67299429D01*
X129678721Y-67155978D01*
X129851293Y-66983406D01*
X129942174Y-66858318D01*
X183640137Y-66858318D01*
X183667056Y-66993645D01*
X183667059Y-66993655D01*
X183719859Y-67121127D01*
X183719866Y-67121140D01*
X183796523Y-67235864D01*
X183796526Y-67235868D01*
X183894092Y-67333434D01*
X183894096Y-67333437D01*
X184008820Y-67410094D01*
X184008833Y-67410101D01*
X184136305Y-67462901D01*
X184136310Y-67462903D01*
X184136314Y-67462903D01*
X184136315Y-67462904D01*
X184271642Y-67489823D01*
X184271645Y-67489823D01*
X184409633Y-67489823D01*
X184500679Y-67471712D01*
X184544966Y-67462903D01*
X184672138Y-67410227D01*
X184672442Y-67410101D01*
X184672442Y-67410100D01*
X184672449Y-67410098D01*
X184787180Y-67333437D01*
X184884752Y-67235865D01*
X184961413Y-67121134D01*
X185014218Y-66993651D01*
X185041138Y-66858316D01*
X185041138Y-66720330D01*
X185041138Y-66720327D01*
X185014219Y-66585000D01*
X185014218Y-66584999D01*
X185014218Y-66584995D01*
X185007389Y-66568508D01*
X184961416Y-66457518D01*
X184961409Y-66457505D01*
X184884752Y-66342781D01*
X184884749Y-66342777D01*
X184787183Y-66245211D01*
X184787179Y-66245208D01*
X184672455Y-66168551D01*
X184672442Y-66168544D01*
X184544970Y-66115744D01*
X184544960Y-66115741D01*
X184409633Y-66088823D01*
X184409631Y-66088823D01*
X184271645Y-66088823D01*
X184271643Y-66088823D01*
X184136315Y-66115741D01*
X184136305Y-66115744D01*
X184008833Y-66168544D01*
X184008820Y-66168551D01*
X183894096Y-66245208D01*
X183894092Y-66245211D01*
X183796526Y-66342777D01*
X183796523Y-66342781D01*
X183719866Y-66457505D01*
X183719859Y-66457518D01*
X183667059Y-66584990D01*
X183667056Y-66585000D01*
X183640138Y-66720327D01*
X183640138Y-66720330D01*
X183640138Y-66858316D01*
X183640138Y-66858318D01*
X183640137Y-66858318D01*
X129942174Y-66858318D01*
X129994744Y-66785962D01*
X130105542Y-66568508D01*
X130180959Y-66336399D01*
X130219138Y-66095350D01*
X130219138Y-65851296D01*
X130180959Y-65610247D01*
X130177953Y-65600995D01*
X153160137Y-65600995D01*
X153187056Y-65736322D01*
X153187059Y-65736332D01*
X153239859Y-65863804D01*
X153239866Y-65863817D01*
X153316523Y-65978541D01*
X153316526Y-65978545D01*
X153414092Y-66076111D01*
X153414096Y-66076114D01*
X153528820Y-66152771D01*
X153528833Y-66152778D01*
X153656305Y-66205578D01*
X153656310Y-66205580D01*
X153656314Y-66205580D01*
X153656315Y-66205581D01*
X153791642Y-66232500D01*
X153791645Y-66232500D01*
X153929633Y-66232500D01*
X154020679Y-66214389D01*
X154064966Y-66205580D01*
X154192449Y-66152775D01*
X154307180Y-66076114D01*
X154404752Y-65978542D01*
X154481413Y-65863811D01*
X154534218Y-65736328D01*
X154549292Y-65660548D01*
X154561138Y-65600995D01*
X154561138Y-65463004D01*
X154534219Y-65327677D01*
X154534218Y-65327676D01*
X154534218Y-65327672D01*
X154508857Y-65266445D01*
X154481416Y-65200195D01*
X154481409Y-65200182D01*
X154435261Y-65131118D01*
X163624937Y-65131118D01*
X163651856Y-65266445D01*
X163651859Y-65266455D01*
X163704659Y-65393927D01*
X163704666Y-65393940D01*
X163781323Y-65508664D01*
X163781326Y-65508668D01*
X163878892Y-65606234D01*
X163878896Y-65606237D01*
X163993620Y-65682894D01*
X163993633Y-65682901D01*
X164098032Y-65726144D01*
X164121110Y-65735703D01*
X164121114Y-65735703D01*
X164121115Y-65735704D01*
X164256442Y-65762623D01*
X164256445Y-65762623D01*
X164394433Y-65762623D01*
X164485479Y-65744512D01*
X164529766Y-65735703D01*
X164657249Y-65682898D01*
X164771980Y-65606237D01*
X164869552Y-65508665D01*
X164946213Y-65393934D01*
X164999018Y-65266451D01*
X165012197Y-65200195D01*
X165025938Y-65131118D01*
X165025938Y-64993127D01*
X164999019Y-64857800D01*
X164999018Y-64857799D01*
X164999018Y-64857795D01*
X164971213Y-64790668D01*
X164946216Y-64730318D01*
X164946209Y-64730305D01*
X164869552Y-64615581D01*
X164869549Y-64615577D01*
X164771983Y-64518011D01*
X164771979Y-64518008D01*
X164657255Y-64441351D01*
X164657242Y-64441344D01*
X164529770Y-64388544D01*
X164529760Y-64388541D01*
X164394433Y-64361623D01*
X164394431Y-64361623D01*
X164256445Y-64361623D01*
X164256443Y-64361623D01*
X164121115Y-64388541D01*
X164121105Y-64388544D01*
X163993633Y-64441344D01*
X163993620Y-64441351D01*
X163878896Y-64518008D01*
X163878892Y-64518011D01*
X163781326Y-64615577D01*
X163781323Y-64615581D01*
X163704666Y-64730305D01*
X163704659Y-64730318D01*
X163651859Y-64857790D01*
X163651856Y-64857800D01*
X163624938Y-64993127D01*
X163624938Y-64993130D01*
X163624938Y-65131116D01*
X163624938Y-65131118D01*
X163624937Y-65131118D01*
X154435261Y-65131118D01*
X154404752Y-65085458D01*
X154404749Y-65085454D01*
X154307183Y-64987888D01*
X154307179Y-64987885D01*
X154192455Y-64911228D01*
X154192442Y-64911221D01*
X154064970Y-64858421D01*
X154064960Y-64858418D01*
X153929633Y-64831500D01*
X153929631Y-64831500D01*
X153791645Y-64831500D01*
X153791643Y-64831500D01*
X153656315Y-64858418D01*
X153656305Y-64858421D01*
X153528833Y-64911221D01*
X153528820Y-64911228D01*
X153414096Y-64987885D01*
X153414092Y-64987888D01*
X153316526Y-65085454D01*
X153316523Y-65085458D01*
X153239866Y-65200182D01*
X153239859Y-65200195D01*
X153187059Y-65327667D01*
X153187056Y-65327677D01*
X153160138Y-65463004D01*
X153160138Y-65463007D01*
X153160138Y-65600993D01*
X153160138Y-65600995D01*
X153160137Y-65600995D01*
X130177953Y-65600995D01*
X130105542Y-65378138D01*
X129994744Y-65160684D01*
X129940089Y-65085458D01*
X129851298Y-64963246D01*
X129851294Y-64963241D01*
X129678719Y-64790666D01*
X129678714Y-64790662D01*
X129481280Y-64647219D01*
X129481279Y-64647218D01*
X129481277Y-64647217D01*
X129263823Y-64536419D01*
X129031714Y-64461002D01*
X129031712Y-64461001D01*
X129031710Y-64461001D01*
X128863407Y-64434344D01*
X128790665Y-64422823D01*
X128546611Y-64422823D01*
X128490731Y-64431673D01*
X128305565Y-64461001D01*
X128073450Y-64536420D01*
X127855995Y-64647219D01*
X127658561Y-64790662D01*
X127658556Y-64790666D01*
X127485981Y-64963241D01*
X127485977Y-64963246D01*
X127342534Y-65160680D01*
X127231735Y-65378135D01*
X127156316Y-65610250D01*
X127118138Y-65851296D01*
X118219138Y-65851296D01*
X118180959Y-65610247D01*
X118105542Y-65378138D01*
X117994744Y-65160684D01*
X117940089Y-65085458D01*
X117851298Y-64963246D01*
X117851294Y-64963241D01*
X117678719Y-64790666D01*
X117678714Y-64790662D01*
X117481280Y-64647219D01*
X117481279Y-64647218D01*
X117481277Y-64647217D01*
X117263823Y-64536419D01*
X117031714Y-64461002D01*
X117031712Y-64461001D01*
X117031710Y-64461001D01*
X116863407Y-64434344D01*
X116790665Y-64422823D01*
X116546611Y-64422823D01*
X116490731Y-64431673D01*
X116305565Y-64461001D01*
X116073450Y-64536420D01*
X115855995Y-64647219D01*
X115658561Y-64790662D01*
X115658556Y-64790666D01*
X115485981Y-64963241D01*
X115485977Y-64963246D01*
X115342534Y-65160680D01*
X115231735Y-65378135D01*
X115156316Y-65610250D01*
X115118138Y-65851296D01*
X105901787Y-65851296D01*
X105890752Y-65834781D01*
X105890749Y-65834777D01*
X105793183Y-65737211D01*
X105793179Y-65737208D01*
X105678455Y-65660551D01*
X105678442Y-65660544D01*
X105550970Y-65607744D01*
X105550960Y-65607741D01*
X105415633Y-65580823D01*
X105415631Y-65580823D01*
X105277645Y-65580823D01*
X105277643Y-65580823D01*
X105142315Y-65607741D01*
X105142305Y-65607744D01*
X105014833Y-65660544D01*
X105014820Y-65660551D01*
X104900096Y-65737208D01*
X104900092Y-65737211D01*
X104802526Y-65834777D01*
X104802523Y-65834781D01*
X104725866Y-65949505D01*
X104725859Y-65949518D01*
X104673059Y-66076990D01*
X104673056Y-66077000D01*
X104646138Y-66212327D01*
X104646138Y-66212330D01*
X104646138Y-66350316D01*
X104646138Y-66350318D01*
X104646137Y-66350318D01*
X102017200Y-66350318D01*
X102017200Y-61946740D01*
X106525138Y-61946740D01*
X106525138Y-63271905D01*
X106535772Y-63360458D01*
X106535772Y-63360459D01*
X106559324Y-63420182D01*
X106587618Y-63491932D01*
X106591346Y-63501384D01*
X106618347Y-63536990D01*
X106682876Y-63622085D01*
X106803579Y-63713616D01*
X106944500Y-63769188D01*
X107033056Y-63779823D01*
X108358220Y-63779823D01*
X108446776Y-63769188D01*
X108587697Y-63713616D01*
X108708400Y-63622085D01*
X108799931Y-63501382D01*
X108855503Y-63360461D01*
X108866138Y-63271905D01*
X108866138Y-62965158D01*
X108885823Y-62898119D01*
X108938627Y-62852364D01*
X109007785Y-62842420D01*
X109071341Y-62871445D01*
X109108069Y-62926840D01*
X109150891Y-63058636D01*
X109182439Y-63120551D01*
X109234537Y-63222798D01*
X109342831Y-63371852D01*
X109473109Y-63502130D01*
X109622163Y-63610424D01*
X109786322Y-63694068D01*
X109786324Y-63694069D01*
X109846485Y-63713616D01*
X109961545Y-63751001D01*
X110143518Y-63779823D01*
X110143519Y-63779823D01*
X110327757Y-63779823D01*
X110327758Y-63779823D01*
X110509731Y-63751001D01*
X110684954Y-63694068D01*
X110849113Y-63610424D01*
X110998167Y-63502130D01*
X111128445Y-63371852D01*
X111236739Y-63222798D01*
X111320383Y-63058639D01*
X111377316Y-62883416D01*
X111384002Y-62841203D01*
X133627138Y-62841203D01*
X133627138Y-63025443D01*
X133633838Y-63067743D01*
X133655960Y-63207417D01*
X133712891Y-63382636D01*
X133791542Y-63536995D01*
X133796537Y-63546798D01*
X133904831Y-63695852D01*
X134035109Y-63826130D01*
X134184163Y-63934424D01*
X134318102Y-64002670D01*
X134348324Y-64018069D01*
X134408485Y-64037616D01*
X134523545Y-64075001D01*
X134705518Y-64103823D01*
X134705519Y-64103823D01*
X134889757Y-64103823D01*
X134889758Y-64103823D01*
X135071731Y-64075001D01*
X135246954Y-64018068D01*
X135411113Y-63934424D01*
X135560167Y-63826130D01*
X135690445Y-63695852D01*
X135798739Y-63546798D01*
X135882383Y-63382639D01*
X135939316Y-63207416D01*
X135945165Y-63170486D01*
X135975094Y-63107353D01*
X136034405Y-63070421D01*
X136104268Y-63071419D01*
X136162501Y-63110028D01*
X136190111Y-63170487D01*
X136195960Y-63207417D01*
X136252891Y-63382636D01*
X136331542Y-63536995D01*
X136336537Y-63546798D01*
X136444831Y-63695852D01*
X136575109Y-63826130D01*
X136724163Y-63934424D01*
X136858102Y-64002670D01*
X136888324Y-64018069D01*
X136948485Y-64037616D01*
X137063545Y-64075001D01*
X137245518Y-64103823D01*
X137245519Y-64103823D01*
X137429757Y-64103823D01*
X137429758Y-64103823D01*
X137611731Y-64075001D01*
X137786954Y-64018068D01*
X137951113Y-63934424D01*
X138100167Y-63826130D01*
X138230445Y-63695852D01*
X138338739Y-63546798D01*
X138422383Y-63382639D01*
X138479316Y-63207416D01*
X138500165Y-63075780D01*
X138530094Y-63012646D01*
X138589406Y-62975715D01*
X138659268Y-62976713D01*
X138717501Y-63015323D01*
X138745111Y-63075781D01*
X138765960Y-63207417D01*
X138822891Y-63382636D01*
X138901542Y-63536995D01*
X138906537Y-63546798D01*
X139014831Y-63695852D01*
X139145109Y-63826130D01*
X139294163Y-63934424D01*
X139428102Y-64002670D01*
X139458324Y-64018069D01*
X139518485Y-64037616D01*
X139633545Y-64075001D01*
X139815518Y-64103823D01*
X139815519Y-64103823D01*
X139999757Y-64103823D01*
X139999758Y-64103823D01*
X140181731Y-64075001D01*
X140356954Y-64018068D01*
X140521113Y-63934424D01*
X140670167Y-63826130D01*
X140800445Y-63695852D01*
X140908739Y-63546798D01*
X140992383Y-63382639D01*
X141028049Y-63272869D01*
X141035207Y-63250840D01*
X141074644Y-63193165D01*
X141139002Y-63165966D01*
X141207849Y-63177880D01*
X141259325Y-63225124D01*
X141277138Y-63289158D01*
X141277138Y-63595905D01*
X141287772Y-63684458D01*
X141287772Y-63684459D01*
X141343346Y-63825384D01*
X141343912Y-63826130D01*
X141434876Y-63946085D01*
X141555579Y-64037616D01*
X141696500Y-64093188D01*
X141785056Y-64103823D01*
X143110220Y-64103823D01*
X143198776Y-64093188D01*
X143339697Y-64037616D01*
X143460400Y-63946085D01*
X143551931Y-63825382D01*
X143607503Y-63684461D01*
X143618138Y-63595905D01*
X143618138Y-62270741D01*
X143618138Y-62270740D01*
X148863138Y-62270740D01*
X148863138Y-63595905D01*
X148873772Y-63684458D01*
X148873772Y-63684459D01*
X148929346Y-63825384D01*
X148929912Y-63826130D01*
X149020876Y-63946085D01*
X149141579Y-64037616D01*
X149282500Y-64093188D01*
X149371056Y-64103823D01*
X150696220Y-64103823D01*
X150784776Y-64093188D01*
X150925697Y-64037616D01*
X151046400Y-63946085D01*
X151137931Y-63825382D01*
X151193503Y-63684461D01*
X151204138Y-63595905D01*
X151204138Y-63289158D01*
X151223823Y-63222119D01*
X151276627Y-63176364D01*
X151345785Y-63166420D01*
X151409341Y-63195445D01*
X151446069Y-63250840D01*
X151488891Y-63382636D01*
X151567542Y-63536995D01*
X151572537Y-63546798D01*
X151680831Y-63695852D01*
X151811109Y-63826130D01*
X151960163Y-63934424D01*
X152094102Y-64002670D01*
X152124324Y-64018069D01*
X152184485Y-64037616D01*
X152299545Y-64075001D01*
X152481518Y-64103823D01*
X152481519Y-64103823D01*
X152665757Y-64103823D01*
X152665758Y-64103823D01*
X152847731Y-64075001D01*
X153022954Y-64018068D01*
X153187113Y-63934424D01*
X153336167Y-63826130D01*
X153466445Y-63695852D01*
X153574739Y-63546798D01*
X153658383Y-63382639D01*
X153715316Y-63207416D01*
X153736165Y-63075780D01*
X153766094Y-63012646D01*
X153825406Y-62975715D01*
X153895268Y-62976713D01*
X153953501Y-63015323D01*
X153981111Y-63075781D01*
X154001960Y-63207417D01*
X154058891Y-63382636D01*
X154137542Y-63536995D01*
X154142537Y-63546798D01*
X154250831Y-63695852D01*
X154381109Y-63826130D01*
X154530163Y-63934424D01*
X154664102Y-64002670D01*
X154694324Y-64018069D01*
X154754485Y-64037616D01*
X154869545Y-64075001D01*
X155051518Y-64103823D01*
X155051519Y-64103823D01*
X155235757Y-64103823D01*
X155235758Y-64103823D01*
X155417731Y-64075001D01*
X155592954Y-64018068D01*
X155757113Y-63934424D01*
X155906167Y-63826130D01*
X156036445Y-63695852D01*
X156144739Y-63546798D01*
X156228383Y-63382639D01*
X156285316Y-63207416D01*
X156291165Y-63170486D01*
X156321094Y-63107353D01*
X156380405Y-63070421D01*
X156450268Y-63071419D01*
X156508501Y-63110028D01*
X156536111Y-63170487D01*
X156541960Y-63207417D01*
X156598891Y-63382636D01*
X156677542Y-63536995D01*
X156682537Y-63546798D01*
X156790831Y-63695852D01*
X156921109Y-63826130D01*
X157070163Y-63934424D01*
X157204102Y-64002670D01*
X157234324Y-64018069D01*
X157294485Y-64037616D01*
X157409545Y-64075001D01*
X157591518Y-64103823D01*
X157591519Y-64103823D01*
X157775757Y-64103823D01*
X157775758Y-64103823D01*
X157957731Y-64075001D01*
X158132954Y-64018068D01*
X158297113Y-63934424D01*
X158446167Y-63826130D01*
X158576445Y-63695852D01*
X158684739Y-63546798D01*
X158768383Y-63382639D01*
X158825316Y-63207416D01*
X158854138Y-63025443D01*
X158854138Y-62891953D01*
X164310388Y-62891953D01*
X164310388Y-63076192D01*
X164339210Y-63258167D01*
X164396141Y-63433386D01*
X164444897Y-63529073D01*
X164479787Y-63597548D01*
X164588081Y-63746602D01*
X164718359Y-63876880D01*
X164867413Y-63985174D01*
X165031572Y-64068818D01*
X165031574Y-64068819D01*
X165091735Y-64088366D01*
X165206795Y-64125751D01*
X165388768Y-64154573D01*
X165388769Y-64154573D01*
X165573007Y-64154573D01*
X165573008Y-64154573D01*
X165754981Y-64125751D01*
X165930204Y-64068818D01*
X166094363Y-63985174D01*
X166243417Y-63876880D01*
X166373695Y-63746602D01*
X166481989Y-63597548D01*
X166565633Y-63433389D01*
X166622566Y-63258166D01*
X166628415Y-63221236D01*
X166658344Y-63158103D01*
X166717655Y-63121171D01*
X166787518Y-63122169D01*
X166845751Y-63160778D01*
X166873361Y-63221237D01*
X166879210Y-63258167D01*
X166936141Y-63433386D01*
X166984897Y-63529073D01*
X167019787Y-63597548D01*
X167128081Y-63746602D01*
X167258359Y-63876880D01*
X167407413Y-63985174D01*
X167571572Y-64068818D01*
X167571574Y-64068819D01*
X167631735Y-64088366D01*
X167746795Y-64125751D01*
X167928768Y-64154573D01*
X167928769Y-64154573D01*
X168113007Y-64154573D01*
X168113008Y-64154573D01*
X168294981Y-64125751D01*
X168470204Y-64068818D01*
X168634363Y-63985174D01*
X168783417Y-63876880D01*
X168913695Y-63746602D01*
X169021989Y-63597548D01*
X169105633Y-63433389D01*
X169162566Y-63258166D01*
X169183415Y-63126530D01*
X169213344Y-63063396D01*
X169272656Y-63026465D01*
X169342518Y-63027463D01*
X169400751Y-63066073D01*
X169428361Y-63126531D01*
X169449210Y-63258167D01*
X169506141Y-63433386D01*
X169554897Y-63529073D01*
X169589787Y-63597548D01*
X169698081Y-63746602D01*
X169828359Y-63876880D01*
X169977413Y-63985174D01*
X170141572Y-64068818D01*
X170141574Y-64068819D01*
X170201735Y-64088366D01*
X170316795Y-64125751D01*
X170498768Y-64154573D01*
X170498769Y-64154573D01*
X170683007Y-64154573D01*
X170683008Y-64154573D01*
X170864981Y-64125751D01*
X171040204Y-64068818D01*
X171204363Y-63985174D01*
X171353417Y-63876880D01*
X171483695Y-63746602D01*
X171544350Y-63663116D01*
X171599679Y-63620451D01*
X171669293Y-63614472D01*
X171731088Y-63647077D01*
X171765445Y-63707916D01*
X171768026Y-63723398D01*
X171771390Y-63756324D01*
X171826579Y-63922876D01*
X171918690Y-64072208D01*
X172042752Y-64196270D01*
X172192084Y-64288381D01*
X172358637Y-64343570D01*
X172461430Y-64354072D01*
X172880887Y-64354072D01*
X172880888Y-64354071D01*
X172880888Y-63469047D01*
X172920526Y-63491932D01*
X173059137Y-63529073D01*
X173202639Y-63529073D01*
X173341250Y-63491932D01*
X173380888Y-63469047D01*
X173380888Y-64354072D01*
X173800339Y-64354072D01*
X173800353Y-64354071D01*
X173903139Y-64343570D01*
X174069691Y-64288381D01*
X174219023Y-64196270D01*
X174343085Y-64072208D01*
X174435196Y-63922876D01*
X174490385Y-63756323D01*
X174500887Y-63653537D01*
X174500888Y-63653524D01*
X174500888Y-63234073D01*
X173615862Y-63234073D01*
X173638747Y-63194435D01*
X173675888Y-63055824D01*
X173675888Y-62912322D01*
X173638747Y-62773711D01*
X173615862Y-62734073D01*
X174500887Y-62734073D01*
X174500887Y-62321490D01*
X179673388Y-62321490D01*
X179673388Y-63646655D01*
X179684022Y-63735208D01*
X179684022Y-63735209D01*
X179739596Y-63876134D01*
X179740162Y-63876880D01*
X179831126Y-63996835D01*
X179951829Y-64088366D01*
X180092750Y-64143938D01*
X180181306Y-64154573D01*
X181506470Y-64154573D01*
X181595026Y-64143938D01*
X181735947Y-64088366D01*
X181856650Y-63996835D01*
X181948181Y-63876132D01*
X182003753Y-63735211D01*
X182014388Y-63646655D01*
X182014388Y-63339908D01*
X182034073Y-63272869D01*
X182086877Y-63227114D01*
X182156035Y-63217170D01*
X182219591Y-63246195D01*
X182256319Y-63301590D01*
X182299141Y-63433386D01*
X182347897Y-63529073D01*
X182382787Y-63597548D01*
X182491081Y-63746602D01*
X182621359Y-63876880D01*
X182770413Y-63985174D01*
X182934572Y-64068818D01*
X182934574Y-64068819D01*
X182994735Y-64088366D01*
X183109795Y-64125751D01*
X183291768Y-64154573D01*
X183291769Y-64154573D01*
X183476007Y-64154573D01*
X183476008Y-64154573D01*
X183657981Y-64125751D01*
X183833204Y-64068818D01*
X183997363Y-63985174D01*
X184146417Y-63876880D01*
X184276695Y-63746602D01*
X184384989Y-63597548D01*
X184468633Y-63433389D01*
X184525566Y-63258166D01*
X184546415Y-63126530D01*
X184576344Y-63063396D01*
X184635656Y-63026465D01*
X184705518Y-63027463D01*
X184763751Y-63066073D01*
X184791361Y-63126531D01*
X184812210Y-63258167D01*
X184869141Y-63433386D01*
X184917897Y-63529073D01*
X184952787Y-63597548D01*
X185061081Y-63746602D01*
X185191359Y-63876880D01*
X185340413Y-63985174D01*
X185504572Y-64068818D01*
X185504574Y-64068819D01*
X185564735Y-64088366D01*
X185679795Y-64125751D01*
X185861768Y-64154573D01*
X185861769Y-64154573D01*
X186046007Y-64154573D01*
X186046008Y-64154573D01*
X186227981Y-64125751D01*
X186403204Y-64068818D01*
X186567363Y-63985174D01*
X186716417Y-63876880D01*
X186846695Y-63746602D01*
X186954989Y-63597548D01*
X187038633Y-63433389D01*
X187095566Y-63258166D01*
X187101415Y-63221236D01*
X187131344Y-63158103D01*
X187190655Y-63121171D01*
X187260518Y-63122169D01*
X187318751Y-63160778D01*
X187346361Y-63221237D01*
X187352210Y-63258167D01*
X187409141Y-63433386D01*
X187457897Y-63529073D01*
X187492787Y-63597548D01*
X187601081Y-63746602D01*
X187731359Y-63876880D01*
X187880413Y-63985174D01*
X188044572Y-64068818D01*
X188044574Y-64068819D01*
X188104735Y-64088366D01*
X188219795Y-64125751D01*
X188401768Y-64154573D01*
X188401769Y-64154573D01*
X188586007Y-64154573D01*
X188586008Y-64154573D01*
X188767981Y-64125751D01*
X188943204Y-64068818D01*
X189107363Y-63985174D01*
X189256417Y-63876880D01*
X189322979Y-63810318D01*
X192530137Y-63810318D01*
X192557056Y-63945645D01*
X192557059Y-63945655D01*
X192609859Y-64073127D01*
X192609866Y-64073140D01*
X192686523Y-64187864D01*
X192686526Y-64187868D01*
X192784092Y-64285434D01*
X192784096Y-64285437D01*
X192898820Y-64362094D01*
X192898833Y-64362101D01*
X193026305Y-64414901D01*
X193026310Y-64414903D01*
X193026314Y-64414903D01*
X193026315Y-64414904D01*
X193161642Y-64441823D01*
X193161645Y-64441823D01*
X193299633Y-64441823D01*
X193395150Y-64422823D01*
X193434966Y-64414903D01*
X193562449Y-64362098D01*
X193677180Y-64285437D01*
X193774752Y-64187865D01*
X193851413Y-64073134D01*
X193904218Y-63945651D01*
X193918046Y-63876132D01*
X193931138Y-63810318D01*
X193931138Y-63672327D01*
X193904219Y-63537000D01*
X193904218Y-63536999D01*
X193904218Y-63536995D01*
X193900937Y-63529073D01*
X193851416Y-63409518D01*
X193851409Y-63409505D01*
X193774752Y-63294781D01*
X193774749Y-63294777D01*
X193677183Y-63197211D01*
X193677179Y-63197208D01*
X193562455Y-63120551D01*
X193562442Y-63120544D01*
X193434970Y-63067744D01*
X193434960Y-63067741D01*
X193299633Y-63040823D01*
X193299631Y-63040823D01*
X193161645Y-63040823D01*
X193161643Y-63040823D01*
X193026315Y-63067741D01*
X193026305Y-63067744D01*
X192898833Y-63120544D01*
X192898820Y-63120551D01*
X192784096Y-63197208D01*
X192784092Y-63197211D01*
X192686526Y-63294777D01*
X192686523Y-63294781D01*
X192609866Y-63409505D01*
X192609859Y-63409518D01*
X192557059Y-63536990D01*
X192557056Y-63537000D01*
X192530138Y-63672327D01*
X192530138Y-63672330D01*
X192530138Y-63810316D01*
X192530138Y-63810318D01*
X192530137Y-63810318D01*
X189322979Y-63810318D01*
X189386695Y-63746602D01*
X189494989Y-63597548D01*
X189578633Y-63433389D01*
X189635566Y-63258166D01*
X189664388Y-63076193D01*
X189664388Y-62891953D01*
X189635566Y-62709980D01*
X189604967Y-62615805D01*
X189578634Y-62534759D01*
X189566221Y-62510398D01*
X189494989Y-62370598D01*
X189386695Y-62221544D01*
X189256417Y-62091266D01*
X189107363Y-61982972D01*
X189084477Y-61971311D01*
X188943201Y-61899326D01*
X188767982Y-61842395D01*
X188653154Y-61824208D01*
X188586008Y-61813573D01*
X188401768Y-61813573D01*
X188341110Y-61823180D01*
X188219793Y-61842395D01*
X188044574Y-61899326D01*
X187880412Y-61982972D01*
X187801210Y-62040516D01*
X187731359Y-62091266D01*
X187731357Y-62091268D01*
X187731356Y-62091268D01*
X187601083Y-62221541D01*
X187601083Y-62221542D01*
X187601081Y-62221544D01*
X187592804Y-62232937D01*
X187492787Y-62370597D01*
X187409141Y-62534759D01*
X187352210Y-62709978D01*
X187346361Y-62746908D01*
X187316432Y-62810043D01*
X187257120Y-62846974D01*
X187187258Y-62845976D01*
X187129025Y-62807366D01*
X187101415Y-62746908D01*
X187097823Y-62724230D01*
X187095566Y-62709980D01*
X187064967Y-62615805D01*
X187038634Y-62534759D01*
X187026221Y-62510398D01*
X186954989Y-62370598D01*
X186846695Y-62221544D01*
X186716417Y-62091266D01*
X186567363Y-61982972D01*
X186544477Y-61971311D01*
X186403201Y-61899326D01*
X186227982Y-61842395D01*
X186113154Y-61824208D01*
X186046008Y-61813573D01*
X185861768Y-61813573D01*
X185801110Y-61823180D01*
X185679793Y-61842395D01*
X185504574Y-61899326D01*
X185340412Y-61982972D01*
X185261210Y-62040516D01*
X185191359Y-62091266D01*
X185191357Y-62091268D01*
X185191356Y-62091268D01*
X185061083Y-62221541D01*
X185061083Y-62221542D01*
X185061081Y-62221544D01*
X185052804Y-62232937D01*
X184952787Y-62370597D01*
X184869141Y-62534759D01*
X184812210Y-62709978D01*
X184791361Y-62841614D01*
X184761432Y-62904749D01*
X184702120Y-62941680D01*
X184632258Y-62940682D01*
X184574025Y-62902072D01*
X184546415Y-62841614D01*
X184542506Y-62816933D01*
X184525566Y-62709980D01*
X184494967Y-62615805D01*
X184468634Y-62534759D01*
X184456221Y-62510398D01*
X184384989Y-62370598D01*
X184276695Y-62221544D01*
X184146417Y-62091266D01*
X183997363Y-61982972D01*
X183974477Y-61971311D01*
X183833201Y-61899326D01*
X183657982Y-61842395D01*
X183543154Y-61824208D01*
X183476008Y-61813573D01*
X183291768Y-61813573D01*
X183231110Y-61823180D01*
X183109793Y-61842395D01*
X182934574Y-61899326D01*
X182770412Y-61982972D01*
X182691210Y-62040516D01*
X182621359Y-62091266D01*
X182621357Y-62091268D01*
X182621356Y-62091268D01*
X182491083Y-62221541D01*
X182491083Y-62221542D01*
X182491081Y-62221544D01*
X182482804Y-62232937D01*
X182382787Y-62370597D01*
X182299141Y-62534759D01*
X182256319Y-62666555D01*
X182216882Y-62724230D01*
X182152523Y-62751429D01*
X182083677Y-62739515D01*
X182032201Y-62692271D01*
X182014388Y-62628237D01*
X182014388Y-62321490D01*
X182006221Y-62253487D01*
X182003753Y-62232935D01*
X181948181Y-62092014D01*
X181947615Y-62091268D01*
X181928440Y-62065981D01*
X181856650Y-61971311D01*
X181761723Y-61899326D01*
X181735949Y-61879781D01*
X181735947Y-61879780D01*
X181641145Y-61842395D01*
X181595024Y-61824207D01*
X181506470Y-61813573D01*
X180181306Y-61813573D01*
X180092752Y-61824207D01*
X180092751Y-61824207D01*
X179951826Y-61879781D01*
X179831126Y-61971311D01*
X179739596Y-62092011D01*
X179684022Y-62232936D01*
X179684022Y-62232937D01*
X179673388Y-62321490D01*
X174500887Y-62321490D01*
X174500887Y-62314622D01*
X174500886Y-62314607D01*
X174490385Y-62211821D01*
X174435196Y-62045269D01*
X174343085Y-61895937D01*
X174219023Y-61771875D01*
X174069691Y-61679764D01*
X173903138Y-61624575D01*
X173800352Y-61614073D01*
X173380888Y-61614073D01*
X173380888Y-62499098D01*
X173341250Y-62476214D01*
X173202639Y-62439073D01*
X173059137Y-62439073D01*
X172920526Y-62476214D01*
X172880888Y-62499098D01*
X172880888Y-61614073D01*
X172461437Y-61614073D01*
X172461422Y-61614074D01*
X172358636Y-61624575D01*
X172192084Y-61679764D01*
X172042752Y-61771875D01*
X171918690Y-61895937D01*
X171826579Y-62045269D01*
X171771390Y-62211821D01*
X171768026Y-62244747D01*
X171741629Y-62309438D01*
X171684448Y-62349589D01*
X171614637Y-62352451D01*
X171554360Y-62317117D01*
X171544350Y-62305029D01*
X171483695Y-62221544D01*
X171353417Y-62091266D01*
X171204363Y-61982972D01*
X171181477Y-61971311D01*
X171040201Y-61899326D01*
X170864982Y-61842395D01*
X170750154Y-61824208D01*
X170683008Y-61813573D01*
X170498768Y-61813573D01*
X170438110Y-61823180D01*
X170316793Y-61842395D01*
X170141574Y-61899326D01*
X169977412Y-61982972D01*
X169898210Y-62040516D01*
X169828359Y-62091266D01*
X169828357Y-62091268D01*
X169828356Y-62091268D01*
X169698083Y-62221541D01*
X169698083Y-62221542D01*
X169698081Y-62221544D01*
X169689804Y-62232937D01*
X169589787Y-62370597D01*
X169506141Y-62534759D01*
X169449210Y-62709978D01*
X169428361Y-62841614D01*
X169398432Y-62904749D01*
X169339120Y-62941680D01*
X169269258Y-62940682D01*
X169211025Y-62902072D01*
X169183415Y-62841614D01*
X169179506Y-62816933D01*
X169162566Y-62709980D01*
X169131967Y-62615805D01*
X169105634Y-62534759D01*
X169093221Y-62510398D01*
X169021989Y-62370598D01*
X168913695Y-62221544D01*
X168783417Y-62091266D01*
X168634363Y-61982972D01*
X168611477Y-61971311D01*
X168470201Y-61899326D01*
X168294982Y-61842395D01*
X168180154Y-61824208D01*
X168113008Y-61813573D01*
X167928768Y-61813573D01*
X167868110Y-61823180D01*
X167746793Y-61842395D01*
X167571574Y-61899326D01*
X167407412Y-61982972D01*
X167328210Y-62040516D01*
X167258359Y-62091266D01*
X167258357Y-62091268D01*
X167258356Y-62091268D01*
X167128083Y-62221541D01*
X167128083Y-62221542D01*
X167128081Y-62221544D01*
X167119804Y-62232937D01*
X167019787Y-62370597D01*
X166936141Y-62534759D01*
X166879210Y-62709978D01*
X166873361Y-62746908D01*
X166843432Y-62810043D01*
X166784120Y-62846974D01*
X166714258Y-62845976D01*
X166656025Y-62807366D01*
X166628415Y-62746908D01*
X166624823Y-62724230D01*
X166622566Y-62709980D01*
X166591967Y-62615805D01*
X166565634Y-62534759D01*
X166553221Y-62510398D01*
X166481989Y-62370598D01*
X166373695Y-62221544D01*
X166243417Y-62091266D01*
X166094363Y-61982972D01*
X166071477Y-61971311D01*
X165930201Y-61899326D01*
X165754982Y-61842395D01*
X165640154Y-61824208D01*
X165573008Y-61813573D01*
X165388768Y-61813573D01*
X165328110Y-61823180D01*
X165206793Y-61842395D01*
X165031574Y-61899326D01*
X164867412Y-61982972D01*
X164788210Y-62040516D01*
X164718359Y-62091266D01*
X164718357Y-62091268D01*
X164718356Y-62091268D01*
X164588083Y-62221541D01*
X164588083Y-62221542D01*
X164588081Y-62221544D01*
X164579804Y-62232937D01*
X164479787Y-62370597D01*
X164396141Y-62534759D01*
X164339210Y-62709978D01*
X164310388Y-62891953D01*
X158854138Y-62891953D01*
X158854138Y-62841203D01*
X158825316Y-62659230D01*
X158768383Y-62484007D01*
X158684739Y-62319848D01*
X158576445Y-62170794D01*
X158446167Y-62040516D01*
X158297113Y-61932222D01*
X158232552Y-61899326D01*
X158132951Y-61848576D01*
X157957732Y-61791645D01*
X157842904Y-61773458D01*
X157775758Y-61762823D01*
X157591518Y-61762823D01*
X157534367Y-61771875D01*
X157409543Y-61791645D01*
X157234324Y-61848576D01*
X157070162Y-61932222D01*
X156985122Y-61994007D01*
X156921109Y-62040516D01*
X156921107Y-62040518D01*
X156921106Y-62040518D01*
X156790833Y-62170791D01*
X156790833Y-62170792D01*
X156790831Y-62170794D01*
X156744322Y-62234807D01*
X156682537Y-62319847D01*
X156598891Y-62484009D01*
X156541960Y-62659228D01*
X156536111Y-62696158D01*
X156506182Y-62759293D01*
X156446870Y-62796224D01*
X156377008Y-62795226D01*
X156318775Y-62756616D01*
X156291165Y-62696158D01*
X156289994Y-62688765D01*
X156285316Y-62659230D01*
X156228383Y-62484007D01*
X156144739Y-62319848D01*
X156036445Y-62170794D01*
X155906167Y-62040516D01*
X155757113Y-61932222D01*
X155692552Y-61899326D01*
X155592951Y-61848576D01*
X155417732Y-61791645D01*
X155302904Y-61773458D01*
X155235758Y-61762823D01*
X155051518Y-61762823D01*
X154994367Y-61771875D01*
X154869543Y-61791645D01*
X154694324Y-61848576D01*
X154530162Y-61932222D01*
X154445122Y-61994007D01*
X154381109Y-62040516D01*
X154381107Y-62040518D01*
X154381106Y-62040518D01*
X154250833Y-62170791D01*
X154250833Y-62170792D01*
X154250831Y-62170794D01*
X154204322Y-62234807D01*
X154142537Y-62319847D01*
X154058891Y-62484009D01*
X154001960Y-62659228D01*
X153981111Y-62790864D01*
X153951182Y-62853999D01*
X153891870Y-62890930D01*
X153822008Y-62889932D01*
X153763775Y-62851322D01*
X153736165Y-62790864D01*
X153733448Y-62773711D01*
X153715316Y-62659230D01*
X153658383Y-62484007D01*
X153574739Y-62319848D01*
X153466445Y-62170794D01*
X153336167Y-62040516D01*
X153187113Y-61932222D01*
X153122552Y-61899326D01*
X153022951Y-61848576D01*
X152847732Y-61791645D01*
X152732904Y-61773458D01*
X152665758Y-61762823D01*
X152481518Y-61762823D01*
X152424367Y-61771875D01*
X152299543Y-61791645D01*
X152124324Y-61848576D01*
X151960162Y-61932222D01*
X151875122Y-61994007D01*
X151811109Y-62040516D01*
X151811107Y-62040518D01*
X151811106Y-62040518D01*
X151680833Y-62170791D01*
X151680833Y-62170792D01*
X151680831Y-62170794D01*
X151634322Y-62234807D01*
X151572537Y-62319847D01*
X151488891Y-62484009D01*
X151446069Y-62615805D01*
X151406632Y-62673480D01*
X151342273Y-62700679D01*
X151273427Y-62688765D01*
X151221951Y-62641521D01*
X151204138Y-62577487D01*
X151204138Y-62270740D01*
X151198230Y-62221544D01*
X151193503Y-62182185D01*
X151137931Y-62041264D01*
X151137365Y-62040518D01*
X151103491Y-61995848D01*
X151046400Y-61920561D01*
X150964147Y-61858187D01*
X150925699Y-61829031D01*
X150925697Y-61829030D01*
X150830895Y-61791645D01*
X150784774Y-61773457D01*
X150696220Y-61762823D01*
X149371056Y-61762823D01*
X149282502Y-61773457D01*
X149282501Y-61773457D01*
X149141576Y-61829031D01*
X149020876Y-61920561D01*
X148929346Y-62041261D01*
X148873772Y-62182186D01*
X148873772Y-62182187D01*
X148863138Y-62270740D01*
X143618138Y-62270740D01*
X143607503Y-62182185D01*
X143551931Y-62041264D01*
X143551365Y-62040518D01*
X143517491Y-61995848D01*
X143460400Y-61920561D01*
X143378147Y-61858187D01*
X143339699Y-61829031D01*
X143339697Y-61829030D01*
X143244895Y-61791645D01*
X143198774Y-61773457D01*
X143110220Y-61762823D01*
X141785056Y-61762823D01*
X141696502Y-61773457D01*
X141696501Y-61773457D01*
X141555576Y-61829031D01*
X141434876Y-61920561D01*
X141343346Y-62041261D01*
X141287772Y-62182186D01*
X141287772Y-62182187D01*
X141277138Y-62270740D01*
X141277138Y-62577487D01*
X141257453Y-62644526D01*
X141204649Y-62690281D01*
X141135491Y-62700225D01*
X141071935Y-62671200D01*
X141035207Y-62615805D01*
X140992384Y-62484009D01*
X140937696Y-62376679D01*
X140908739Y-62319848D01*
X140800445Y-62170794D01*
X140670167Y-62040516D01*
X140521113Y-61932222D01*
X140456552Y-61899326D01*
X140356951Y-61848576D01*
X140181732Y-61791645D01*
X140066904Y-61773458D01*
X139999758Y-61762823D01*
X139815518Y-61762823D01*
X139758367Y-61771875D01*
X139633543Y-61791645D01*
X139458324Y-61848576D01*
X139294162Y-61932222D01*
X139209122Y-61994007D01*
X139145109Y-62040516D01*
X139145107Y-62040518D01*
X139145106Y-62040518D01*
X139014833Y-62170791D01*
X139014833Y-62170792D01*
X139014831Y-62170794D01*
X138968322Y-62234807D01*
X138906537Y-62319847D01*
X138822891Y-62484009D01*
X138765960Y-62659228D01*
X138745111Y-62790864D01*
X138715182Y-62853999D01*
X138655870Y-62890930D01*
X138586008Y-62889932D01*
X138527775Y-62851322D01*
X138500165Y-62790864D01*
X138497448Y-62773711D01*
X138479316Y-62659230D01*
X138422383Y-62484007D01*
X138338739Y-62319848D01*
X138230445Y-62170794D01*
X138100167Y-62040516D01*
X137951113Y-61932222D01*
X137886552Y-61899326D01*
X137786951Y-61848576D01*
X137611732Y-61791645D01*
X137496904Y-61773458D01*
X137429758Y-61762823D01*
X137245518Y-61762823D01*
X137188367Y-61771875D01*
X137063543Y-61791645D01*
X136888324Y-61848576D01*
X136724162Y-61932222D01*
X136639122Y-61994007D01*
X136575109Y-62040516D01*
X136575107Y-62040518D01*
X136575106Y-62040518D01*
X136444833Y-62170791D01*
X136444833Y-62170792D01*
X136444831Y-62170794D01*
X136398322Y-62234807D01*
X136336537Y-62319847D01*
X136252891Y-62484009D01*
X136195960Y-62659228D01*
X136190111Y-62696158D01*
X136160182Y-62759293D01*
X136100870Y-62796224D01*
X136031008Y-62795226D01*
X135972775Y-62756616D01*
X135945165Y-62696158D01*
X135943994Y-62688765D01*
X135939316Y-62659230D01*
X135882383Y-62484007D01*
X135798739Y-62319848D01*
X135690445Y-62170794D01*
X135560167Y-62040516D01*
X135411113Y-61932222D01*
X135346552Y-61899326D01*
X135246951Y-61848576D01*
X135071732Y-61791645D01*
X134956904Y-61773458D01*
X134889758Y-61762823D01*
X134705518Y-61762823D01*
X134648367Y-61771875D01*
X134523543Y-61791645D01*
X134348324Y-61848576D01*
X134184162Y-61932222D01*
X134099122Y-61994007D01*
X134035109Y-62040516D01*
X134035107Y-62040518D01*
X134035106Y-62040518D01*
X133904833Y-62170791D01*
X133904833Y-62170792D01*
X133904831Y-62170794D01*
X133858322Y-62234807D01*
X133796537Y-62319847D01*
X133712891Y-62484009D01*
X133655960Y-62659228D01*
X133655960Y-62659230D01*
X133627138Y-62841203D01*
X111384002Y-62841203D01*
X111406138Y-62701443D01*
X111406138Y-62517203D01*
X111377316Y-62335230D01*
X111348849Y-62247618D01*
X111320384Y-62160009D01*
X111285357Y-62091266D01*
X111236739Y-61995848D01*
X111128445Y-61846794D01*
X110998167Y-61716516D01*
X110849113Y-61608222D01*
X110826227Y-61596561D01*
X110684951Y-61524576D01*
X110509732Y-61467645D01*
X110394904Y-61449458D01*
X110327758Y-61438823D01*
X110143518Y-61438823D01*
X110082860Y-61448430D01*
X109961543Y-61467645D01*
X109786324Y-61524576D01*
X109622162Y-61608222D01*
X109537122Y-61670007D01*
X109473109Y-61716516D01*
X109473107Y-61716518D01*
X109473106Y-61716518D01*
X109342833Y-61846791D01*
X109342833Y-61846792D01*
X109342831Y-61846794D01*
X109318865Y-61879781D01*
X109234537Y-61995847D01*
X109150891Y-62160009D01*
X109108069Y-62291805D01*
X109068632Y-62349480D01*
X109004273Y-62376679D01*
X108935427Y-62364765D01*
X108883951Y-62317521D01*
X108866138Y-62253487D01*
X108866138Y-61946740D01*
X108860037Y-61895937D01*
X108855503Y-61858185D01*
X108799931Y-61717264D01*
X108799365Y-61716518D01*
X108721680Y-61614074D01*
X108708400Y-61596561D01*
X108601111Y-61515202D01*
X108587699Y-61505031D01*
X108587697Y-61505030D01*
X108492895Y-61467645D01*
X108446774Y-61449457D01*
X108358220Y-61438823D01*
X107033056Y-61438823D01*
X106944502Y-61449457D01*
X106944501Y-61449457D01*
X106803576Y-61505031D01*
X106682876Y-61596561D01*
X106591346Y-61717261D01*
X106535772Y-61858186D01*
X106535772Y-61858187D01*
X106525138Y-61946740D01*
X102017200Y-61946740D01*
X102017200Y-53841472D01*
X104475138Y-53841472D01*
X104475138Y-54097173D01*
X104490812Y-54216222D01*
X104508512Y-54350663D01*
X104574688Y-54597635D01*
X104574691Y-54597645D01*
X104672532Y-54833854D01*
X104672537Y-54833865D01*
X104800372Y-55055280D01*
X104800383Y-55055296D01*
X104956026Y-55258134D01*
X104956032Y-55258141D01*
X105136819Y-55438928D01*
X105136825Y-55438933D01*
X105339673Y-55594584D01*
X105339680Y-55594588D01*
X105561095Y-55722423D01*
X105561100Y-55722425D01*
X105561103Y-55722427D01*
X105658896Y-55762934D01*
X105781417Y-55813684D01*
X105797325Y-55820273D01*
X106044298Y-55886449D01*
X106297795Y-55919823D01*
X106297802Y-55919823D01*
X106553474Y-55919823D01*
X106553481Y-55919823D01*
X106806978Y-55886449D01*
X107053951Y-55820273D01*
X107290173Y-55722427D01*
X107511603Y-55594584D01*
X107714451Y-55438933D01*
X107895248Y-55258136D01*
X108050899Y-55055288D01*
X108178742Y-54833858D01*
X108276588Y-54597636D01*
X108342764Y-54350663D01*
X108376138Y-54097166D01*
X108376138Y-53841480D01*
X108376137Y-53841472D01*
X109555138Y-53841472D01*
X109555138Y-54097173D01*
X109570812Y-54216222D01*
X109588512Y-54350663D01*
X109654688Y-54597635D01*
X109654691Y-54597645D01*
X109752532Y-54833854D01*
X109752537Y-54833865D01*
X109880372Y-55055280D01*
X109880383Y-55055296D01*
X110036026Y-55258134D01*
X110036032Y-55258141D01*
X110216819Y-55438928D01*
X110216825Y-55438933D01*
X110419673Y-55594584D01*
X110419680Y-55594588D01*
X110641095Y-55722423D01*
X110641100Y-55722425D01*
X110641103Y-55722427D01*
X110738896Y-55762934D01*
X110861417Y-55813684D01*
X110877325Y-55820273D01*
X111124298Y-55886449D01*
X111377795Y-55919823D01*
X111377802Y-55919823D01*
X111633474Y-55919823D01*
X111633481Y-55919823D01*
X111886978Y-55886449D01*
X112133951Y-55820273D01*
X112370173Y-55722427D01*
X112591603Y-55594584D01*
X112794451Y-55438933D01*
X112975248Y-55258136D01*
X113130899Y-55055288D01*
X113258742Y-54833858D01*
X113356588Y-54597636D01*
X113422764Y-54350663D01*
X113456138Y-54097166D01*
X113456138Y-53841480D01*
X113425046Y-53605318D01*
X114818138Y-53605318D01*
X114818138Y-53841327D01*
X114818139Y-53841343D01*
X114834120Y-53962734D01*
X114848945Y-54075337D01*
X114873097Y-54165472D01*
X114910032Y-54303316D01*
X115000352Y-54521368D01*
X115000357Y-54521379D01*
X115044384Y-54597635D01*
X115118365Y-54725773D01*
X115118367Y-54725776D01*
X115118368Y-54725777D01*
X115262044Y-54913020D01*
X115262050Y-54913027D01*
X115428933Y-55079910D01*
X115428939Y-55079915D01*
X115616188Y-55223596D01*
X115702784Y-55273592D01*
X115820581Y-55341603D01*
X115820586Y-55341605D01*
X115820589Y-55341607D01*
X116038645Y-55431929D01*
X116266624Y-55493016D01*
X116500627Y-55523823D01*
X116500634Y-55523823D01*
X116736642Y-55523823D01*
X116736649Y-55523823D01*
X116970652Y-55493016D01*
X117198631Y-55431929D01*
X117416687Y-55341607D01*
X117621088Y-55223596D01*
X117808337Y-55079915D01*
X117975230Y-54913022D01*
X118118911Y-54725773D01*
X118236922Y-54521372D01*
X118327244Y-54303316D01*
X118388331Y-54075337D01*
X118419138Y-53841334D01*
X118419138Y-53655318D01*
X126868138Y-53655318D01*
X126868138Y-53891327D01*
X126868139Y-53891343D01*
X126892361Y-54075333D01*
X126898945Y-54125337D01*
X126959321Y-54350661D01*
X126960032Y-54353316D01*
X127050352Y-54571368D01*
X127050357Y-54571379D01*
X127077332Y-54618100D01*
X127168365Y-54775773D01*
X127168367Y-54775776D01*
X127168368Y-54775777D01*
X127312044Y-54963020D01*
X127312050Y-54963027D01*
X127478933Y-55129910D01*
X127478939Y-55129915D01*
X127666188Y-55273596D01*
X127783988Y-55341608D01*
X127870581Y-55391603D01*
X127870586Y-55391605D01*
X127870589Y-55391607D01*
X128088645Y-55481929D01*
X128316624Y-55543016D01*
X128550627Y-55573823D01*
X128550634Y-55573823D01*
X128786642Y-55573823D01*
X128786649Y-55573823D01*
X129020652Y-55543016D01*
X129248631Y-55481929D01*
X129466687Y-55391607D01*
X129671088Y-55273596D01*
X129858337Y-55129915D01*
X130025230Y-54963022D01*
X130168911Y-54775773D01*
X130286922Y-54571372D01*
X130377244Y-54353316D01*
X130427577Y-54165472D01*
X131607138Y-54165472D01*
X131607138Y-54421173D01*
X131620331Y-54521379D01*
X131640512Y-54674663D01*
X131706688Y-54921635D01*
X131706691Y-54921645D01*
X131804532Y-55157854D01*
X131804537Y-55157865D01*
X131932372Y-55379280D01*
X131932383Y-55379296D01*
X132088026Y-55582134D01*
X132088032Y-55582141D01*
X132268819Y-55762928D01*
X132268826Y-55762934D01*
X132343552Y-55820273D01*
X132471673Y-55918584D01*
X132471680Y-55918588D01*
X132693095Y-56046423D01*
X132693100Y-56046425D01*
X132693103Y-56046427D01*
X132929325Y-56144273D01*
X133176298Y-56210449D01*
X133429795Y-56243823D01*
X133429802Y-56243823D01*
X133685474Y-56243823D01*
X133685481Y-56243823D01*
X133938978Y-56210449D01*
X134185951Y-56144273D01*
X134422173Y-56046427D01*
X134643603Y-55918584D01*
X134846451Y-55762933D01*
X135027248Y-55582136D01*
X135182899Y-55379288D01*
X135310742Y-55157858D01*
X135408588Y-54921636D01*
X135474764Y-54674663D01*
X135508138Y-54421166D01*
X135508138Y-54165480D01*
X135508137Y-54165472D01*
X141767138Y-54165472D01*
X141767138Y-54421173D01*
X141780331Y-54521379D01*
X141800512Y-54674663D01*
X141866688Y-54921635D01*
X141866691Y-54921645D01*
X141964532Y-55157854D01*
X141964537Y-55157865D01*
X142092372Y-55379280D01*
X142092383Y-55379296D01*
X142248026Y-55582134D01*
X142248032Y-55582141D01*
X142428819Y-55762928D01*
X142428826Y-55762934D01*
X142503552Y-55820273D01*
X142631673Y-55918584D01*
X142631680Y-55918588D01*
X142853095Y-56046423D01*
X142853100Y-56046425D01*
X142853103Y-56046427D01*
X143089325Y-56144273D01*
X143336298Y-56210449D01*
X143589795Y-56243823D01*
X143589802Y-56243823D01*
X143845474Y-56243823D01*
X143845481Y-56243823D01*
X144098978Y-56210449D01*
X144345951Y-56144273D01*
X144582173Y-56046427D01*
X144803603Y-55918584D01*
X145006451Y-55762933D01*
X145187248Y-55582136D01*
X145342899Y-55379288D01*
X145470742Y-55157858D01*
X145568588Y-54921636D01*
X145634764Y-54674663D01*
X145668138Y-54421166D01*
X145668138Y-54165480D01*
X145668137Y-54165472D01*
X146813138Y-54165472D01*
X146813138Y-54421173D01*
X146826331Y-54521379D01*
X146846512Y-54674663D01*
X146912688Y-54921635D01*
X146912691Y-54921645D01*
X147010532Y-55157854D01*
X147010537Y-55157865D01*
X147138372Y-55379280D01*
X147138383Y-55379296D01*
X147294026Y-55582134D01*
X147294032Y-55582141D01*
X147474819Y-55762928D01*
X147474826Y-55762934D01*
X147549552Y-55820273D01*
X147677673Y-55918584D01*
X147677680Y-55918588D01*
X147899095Y-56046423D01*
X147899100Y-56046425D01*
X147899103Y-56046427D01*
X148135325Y-56144273D01*
X148382298Y-56210449D01*
X148635795Y-56243823D01*
X148635802Y-56243823D01*
X148891474Y-56243823D01*
X148891481Y-56243823D01*
X149144978Y-56210449D01*
X149391951Y-56144273D01*
X149628173Y-56046427D01*
X149849603Y-55918584D01*
X150052451Y-55762933D01*
X150233248Y-55582136D01*
X150388899Y-55379288D01*
X150516742Y-55157858D01*
X150614588Y-54921636D01*
X150680764Y-54674663D01*
X150714138Y-54421166D01*
X150714138Y-54165480D01*
X150714137Y-54165472D01*
X156973138Y-54165472D01*
X156973138Y-54421173D01*
X156986331Y-54521379D01*
X157006512Y-54674663D01*
X157072688Y-54921635D01*
X157072691Y-54921645D01*
X157170532Y-55157854D01*
X157170537Y-55157865D01*
X157298372Y-55379280D01*
X157298383Y-55379296D01*
X157454026Y-55582134D01*
X157454032Y-55582141D01*
X157634819Y-55762928D01*
X157634826Y-55762934D01*
X157709552Y-55820273D01*
X157837673Y-55918584D01*
X157837680Y-55918588D01*
X158059095Y-56046423D01*
X158059100Y-56046425D01*
X158059103Y-56046427D01*
X158295325Y-56144273D01*
X158542298Y-56210449D01*
X158795795Y-56243823D01*
X158795802Y-56243823D01*
X159051474Y-56243823D01*
X159051481Y-56243823D01*
X159304978Y-56210449D01*
X159551951Y-56144273D01*
X159788173Y-56046427D01*
X160009603Y-55918584D01*
X160212451Y-55762933D01*
X160393248Y-55582136D01*
X160548899Y-55379288D01*
X160676742Y-55157858D01*
X160774588Y-54921636D01*
X160840764Y-54674663D01*
X160874138Y-54421166D01*
X160874138Y-54216222D01*
X162290388Y-54216222D01*
X162290388Y-54471923D01*
X162309634Y-54618100D01*
X162323762Y-54725413D01*
X162389938Y-54972385D01*
X162389941Y-54972395D01*
X162487782Y-55208604D01*
X162487787Y-55208615D01*
X162615622Y-55430030D01*
X162615633Y-55430046D01*
X162771276Y-55632884D01*
X162771282Y-55632891D01*
X162952069Y-55813678D01*
X162952075Y-55813683D01*
X163154923Y-55969334D01*
X163154930Y-55969338D01*
X163376345Y-56097173D01*
X163376350Y-56097175D01*
X163376353Y-56097177D01*
X163612575Y-56195023D01*
X163859548Y-56261199D01*
X164113045Y-56294573D01*
X164113052Y-56294573D01*
X164368724Y-56294573D01*
X164368731Y-56294573D01*
X164622228Y-56261199D01*
X164869201Y-56195023D01*
X165105423Y-56097177D01*
X165326853Y-55969334D01*
X165529701Y-55813683D01*
X165710498Y-55632886D01*
X165866149Y-55430038D01*
X165993992Y-55208608D01*
X166091838Y-54972386D01*
X166158014Y-54725413D01*
X166191388Y-54471916D01*
X166191388Y-54216230D01*
X166191387Y-54216222D01*
X172450388Y-54216222D01*
X172450388Y-54471923D01*
X172469634Y-54618100D01*
X172483762Y-54725413D01*
X172549938Y-54972385D01*
X172549941Y-54972395D01*
X172647782Y-55208604D01*
X172647787Y-55208615D01*
X172775622Y-55430030D01*
X172775633Y-55430046D01*
X172931276Y-55632884D01*
X172931282Y-55632891D01*
X173112069Y-55813678D01*
X173112075Y-55813683D01*
X173314923Y-55969334D01*
X173314930Y-55969338D01*
X173536345Y-56097173D01*
X173536350Y-56097175D01*
X173536353Y-56097177D01*
X173772575Y-56195023D01*
X174019548Y-56261199D01*
X174273045Y-56294573D01*
X174273052Y-56294573D01*
X174528724Y-56294573D01*
X174528731Y-56294573D01*
X174782228Y-56261199D01*
X175029201Y-56195023D01*
X175265423Y-56097177D01*
X175486853Y-55969334D01*
X175689701Y-55813683D01*
X175870498Y-55632886D01*
X176026149Y-55430038D01*
X176153992Y-55208608D01*
X176251838Y-54972386D01*
X176318014Y-54725413D01*
X176351388Y-54471916D01*
X176351388Y-54216230D01*
X176351387Y-54216222D01*
X177623388Y-54216222D01*
X177623388Y-54471923D01*
X177642634Y-54618100D01*
X177656762Y-54725413D01*
X177722938Y-54972385D01*
X177722941Y-54972395D01*
X177820782Y-55208604D01*
X177820787Y-55208615D01*
X177948622Y-55430030D01*
X177948633Y-55430046D01*
X178104276Y-55632884D01*
X178104282Y-55632891D01*
X178285069Y-55813678D01*
X178285075Y-55813683D01*
X178487923Y-55969334D01*
X178487930Y-55969338D01*
X178709345Y-56097173D01*
X178709350Y-56097175D01*
X178709353Y-56097177D01*
X178945575Y-56195023D01*
X179192548Y-56261199D01*
X179446045Y-56294573D01*
X179446052Y-56294573D01*
X179701724Y-56294573D01*
X179701731Y-56294573D01*
X179955228Y-56261199D01*
X180202201Y-56195023D01*
X180438423Y-56097177D01*
X180659853Y-55969334D01*
X180862701Y-55813683D01*
X181043498Y-55632886D01*
X181199149Y-55430038D01*
X181326992Y-55208608D01*
X181424838Y-54972386D01*
X181491014Y-54725413D01*
X181524388Y-54471916D01*
X181524388Y-54216230D01*
X181524387Y-54216222D01*
X187783388Y-54216222D01*
X187783388Y-54471923D01*
X187802634Y-54618100D01*
X187816762Y-54725413D01*
X187882938Y-54972385D01*
X187882941Y-54972395D01*
X187980782Y-55208604D01*
X187980787Y-55208615D01*
X188108622Y-55430030D01*
X188108633Y-55430046D01*
X188264276Y-55632884D01*
X188264282Y-55632891D01*
X188445069Y-55813678D01*
X188445075Y-55813683D01*
X188647923Y-55969334D01*
X188647930Y-55969338D01*
X188869345Y-56097173D01*
X188869350Y-56097175D01*
X188869353Y-56097177D01*
X189105575Y-56195023D01*
X189352548Y-56261199D01*
X189606045Y-56294573D01*
X189606052Y-56294573D01*
X189861724Y-56294573D01*
X189861731Y-56294573D01*
X190115228Y-56261199D01*
X190362201Y-56195023D01*
X190598423Y-56097177D01*
X190819853Y-55969334D01*
X191022701Y-55813683D01*
X191203498Y-55632886D01*
X191359149Y-55430038D01*
X191486992Y-55208608D01*
X191584838Y-54972386D01*
X191651014Y-54725413D01*
X191684388Y-54471916D01*
X191684388Y-54216230D01*
X191651014Y-53962733D01*
X191584838Y-53715760D01*
X191486992Y-53479538D01*
X191486990Y-53479535D01*
X191486988Y-53479530D01*
X191359153Y-53258115D01*
X191359149Y-53258108D01*
X191203498Y-53055260D01*
X191203493Y-53055254D01*
X191022706Y-52874467D01*
X191022699Y-52874461D01*
X190819861Y-52718818D01*
X190819859Y-52718816D01*
X190819853Y-52718812D01*
X190819848Y-52718809D01*
X190819845Y-52718807D01*
X190598430Y-52590972D01*
X190598419Y-52590967D01*
X190362210Y-52493126D01*
X190362203Y-52493124D01*
X190362201Y-52493123D01*
X190115228Y-52426947D01*
X190058895Y-52419530D01*
X189861738Y-52393573D01*
X189861731Y-52393573D01*
X189606045Y-52393573D01*
X189606037Y-52393573D01*
X189380714Y-52423238D01*
X189352548Y-52426947D01*
X189154312Y-52480064D01*
X189105575Y-52493123D01*
X189105565Y-52493126D01*
X188869356Y-52590967D01*
X188869345Y-52590972D01*
X188647930Y-52718807D01*
X188647914Y-52718818D01*
X188445076Y-52874461D01*
X188445069Y-52874467D01*
X188264282Y-53055254D01*
X188264276Y-53055261D01*
X188108633Y-53258099D01*
X188108622Y-53258115D01*
X187980787Y-53479530D01*
X187980782Y-53479541D01*
X187882941Y-53715750D01*
X187882938Y-53715760D01*
X187830361Y-53911983D01*
X187816762Y-53962734D01*
X187783388Y-54216222D01*
X181524387Y-54216222D01*
X181491014Y-53962733D01*
X181424838Y-53715760D01*
X181326992Y-53479538D01*
X181326990Y-53479535D01*
X181326988Y-53479530D01*
X181199153Y-53258115D01*
X181199149Y-53258108D01*
X181043498Y-53055260D01*
X181043493Y-53055254D01*
X180862706Y-52874467D01*
X180862699Y-52874461D01*
X180659861Y-52718818D01*
X180659859Y-52718816D01*
X180659853Y-52718812D01*
X180659848Y-52718809D01*
X180659845Y-52718807D01*
X180438430Y-52590972D01*
X180438419Y-52590967D01*
X180202210Y-52493126D01*
X180202203Y-52493124D01*
X180202201Y-52493123D01*
X179955228Y-52426947D01*
X179898895Y-52419530D01*
X179701738Y-52393573D01*
X179701731Y-52393573D01*
X179446045Y-52393573D01*
X179446037Y-52393573D01*
X179220714Y-52423238D01*
X179192548Y-52426947D01*
X178994312Y-52480064D01*
X178945575Y-52493123D01*
X178945565Y-52493126D01*
X178709356Y-52590967D01*
X178709345Y-52590972D01*
X178487930Y-52718807D01*
X178487914Y-52718818D01*
X178285076Y-52874461D01*
X178285069Y-52874467D01*
X178104282Y-53055254D01*
X178104276Y-53055261D01*
X177948633Y-53258099D01*
X177948622Y-53258115D01*
X177820787Y-53479530D01*
X177820782Y-53479541D01*
X177722941Y-53715750D01*
X177722938Y-53715760D01*
X177670361Y-53911983D01*
X177656762Y-53962734D01*
X177623388Y-54216222D01*
X176351387Y-54216222D01*
X176318014Y-53962733D01*
X176251838Y-53715760D01*
X176153992Y-53479538D01*
X176153990Y-53479535D01*
X176153988Y-53479530D01*
X176026153Y-53258115D01*
X176026149Y-53258108D01*
X175870498Y-53055260D01*
X175870493Y-53055254D01*
X175689706Y-52874467D01*
X175689699Y-52874461D01*
X175486861Y-52718818D01*
X175486859Y-52718816D01*
X175486853Y-52718812D01*
X175486848Y-52718809D01*
X175486845Y-52718807D01*
X175265430Y-52590972D01*
X175265419Y-52590967D01*
X175029210Y-52493126D01*
X175029203Y-52493124D01*
X175029201Y-52493123D01*
X174782228Y-52426947D01*
X174725895Y-52419530D01*
X174528738Y-52393573D01*
X174528731Y-52393573D01*
X174273045Y-52393573D01*
X174273037Y-52393573D01*
X174047714Y-52423238D01*
X174019548Y-52426947D01*
X173821312Y-52480064D01*
X173772575Y-52493123D01*
X173772565Y-52493126D01*
X173536356Y-52590967D01*
X173536345Y-52590972D01*
X173314930Y-52718807D01*
X173314914Y-52718818D01*
X173112076Y-52874461D01*
X173112069Y-52874467D01*
X172931282Y-53055254D01*
X172931276Y-53055261D01*
X172775633Y-53258099D01*
X172775622Y-53258115D01*
X172647787Y-53479530D01*
X172647782Y-53479541D01*
X172549941Y-53715750D01*
X172549938Y-53715760D01*
X172497361Y-53911983D01*
X172483762Y-53962734D01*
X172450388Y-54216222D01*
X166191387Y-54216222D01*
X166158014Y-53962733D01*
X166091838Y-53715760D01*
X165993992Y-53479538D01*
X165993990Y-53479535D01*
X165993988Y-53479530D01*
X165866153Y-53258115D01*
X165866149Y-53258108D01*
X165710498Y-53055260D01*
X165710493Y-53055254D01*
X165529706Y-52874467D01*
X165529699Y-52874461D01*
X165326861Y-52718818D01*
X165326859Y-52718816D01*
X165326853Y-52718812D01*
X165326848Y-52718809D01*
X165326845Y-52718807D01*
X165105430Y-52590972D01*
X165105419Y-52590967D01*
X164869210Y-52493126D01*
X164869203Y-52493124D01*
X164869201Y-52493123D01*
X164622228Y-52426947D01*
X164565895Y-52419530D01*
X164368738Y-52393573D01*
X164368731Y-52393573D01*
X164113045Y-52393573D01*
X164113037Y-52393573D01*
X163887714Y-52423238D01*
X163859548Y-52426947D01*
X163661312Y-52480064D01*
X163612575Y-52493123D01*
X163612565Y-52493126D01*
X163376356Y-52590967D01*
X163376345Y-52590972D01*
X163154930Y-52718807D01*
X163154914Y-52718818D01*
X162952076Y-52874461D01*
X162952069Y-52874467D01*
X162771282Y-53055254D01*
X162771276Y-53055261D01*
X162615633Y-53258099D01*
X162615622Y-53258115D01*
X162487787Y-53479530D01*
X162487782Y-53479541D01*
X162389941Y-53715750D01*
X162389938Y-53715760D01*
X162337361Y-53911983D01*
X162323762Y-53962734D01*
X162290388Y-54216222D01*
X160874138Y-54216222D01*
X160874138Y-54165480D01*
X160840764Y-53911983D01*
X160774588Y-53665010D01*
X160770573Y-53655318D01*
X160738443Y-53577749D01*
X160676742Y-53428788D01*
X160676740Y-53428785D01*
X160676738Y-53428780D01*
X160548903Y-53207365D01*
X160548899Y-53207358D01*
X160499768Y-53143329D01*
X160393249Y-53004511D01*
X160393243Y-53004504D01*
X160212456Y-52823717D01*
X160212449Y-52823711D01*
X160009611Y-52668068D01*
X160009609Y-52668066D01*
X160009603Y-52668062D01*
X160009598Y-52668059D01*
X160009595Y-52668057D01*
X159788180Y-52540222D01*
X159788169Y-52540217D01*
X159551960Y-52442376D01*
X159551953Y-52442374D01*
X159551951Y-52442373D01*
X159304978Y-52376197D01*
X159248645Y-52368780D01*
X159051488Y-52342823D01*
X159051481Y-52342823D01*
X158795795Y-52342823D01*
X158795787Y-52342823D01*
X158570464Y-52372488D01*
X158542298Y-52376197D01*
X158477450Y-52393573D01*
X158295325Y-52442373D01*
X158295315Y-52442376D01*
X158059106Y-52540217D01*
X158059095Y-52540222D01*
X157837680Y-52668057D01*
X157837664Y-52668068D01*
X157634826Y-52823711D01*
X157634819Y-52823717D01*
X157454032Y-53004504D01*
X157454026Y-53004511D01*
X157298383Y-53207349D01*
X157298372Y-53207365D01*
X157170537Y-53428780D01*
X157170532Y-53428791D01*
X157072691Y-53665000D01*
X157072688Y-53665010D01*
X157012043Y-53891343D01*
X157006512Y-53911984D01*
X156973138Y-54165472D01*
X150714137Y-54165472D01*
X150680764Y-53911983D01*
X150614588Y-53665010D01*
X150610573Y-53655318D01*
X150578443Y-53577749D01*
X150516742Y-53428788D01*
X150516740Y-53428785D01*
X150516738Y-53428780D01*
X150388903Y-53207365D01*
X150388899Y-53207358D01*
X150339768Y-53143329D01*
X150233249Y-53004511D01*
X150233243Y-53004504D01*
X150052456Y-52823717D01*
X150052449Y-52823711D01*
X149849611Y-52668068D01*
X149849609Y-52668066D01*
X149849603Y-52668062D01*
X149849598Y-52668059D01*
X149849595Y-52668057D01*
X149628180Y-52540222D01*
X149628169Y-52540217D01*
X149391960Y-52442376D01*
X149391953Y-52442374D01*
X149391951Y-52442373D01*
X149144978Y-52376197D01*
X149088645Y-52368780D01*
X148891488Y-52342823D01*
X148891481Y-52342823D01*
X148635795Y-52342823D01*
X148635787Y-52342823D01*
X148410464Y-52372488D01*
X148382298Y-52376197D01*
X148317450Y-52393573D01*
X148135325Y-52442373D01*
X148135315Y-52442376D01*
X147899106Y-52540217D01*
X147899095Y-52540222D01*
X147677680Y-52668057D01*
X147677664Y-52668068D01*
X147474826Y-52823711D01*
X147474819Y-52823717D01*
X147294032Y-53004504D01*
X147294026Y-53004511D01*
X147138383Y-53207349D01*
X147138372Y-53207365D01*
X147010537Y-53428780D01*
X147010532Y-53428791D01*
X146912691Y-53665000D01*
X146912688Y-53665010D01*
X146852043Y-53891343D01*
X146846512Y-53911984D01*
X146813138Y-54165472D01*
X145668137Y-54165472D01*
X145634764Y-53911983D01*
X145568588Y-53665010D01*
X145564573Y-53655318D01*
X145532443Y-53577749D01*
X145470742Y-53428788D01*
X145470740Y-53428785D01*
X145470738Y-53428780D01*
X145342903Y-53207365D01*
X145342899Y-53207358D01*
X145293768Y-53143329D01*
X145187249Y-53004511D01*
X145187243Y-53004504D01*
X145006456Y-52823717D01*
X145006449Y-52823711D01*
X144803611Y-52668068D01*
X144803609Y-52668066D01*
X144803603Y-52668062D01*
X144803598Y-52668059D01*
X144803595Y-52668057D01*
X144582180Y-52540222D01*
X144582169Y-52540217D01*
X144345960Y-52442376D01*
X144345953Y-52442374D01*
X144345951Y-52442373D01*
X144098978Y-52376197D01*
X144042645Y-52368780D01*
X143845488Y-52342823D01*
X143845481Y-52342823D01*
X143589795Y-52342823D01*
X143589787Y-52342823D01*
X143364464Y-52372488D01*
X143336298Y-52376197D01*
X143271450Y-52393573D01*
X143089325Y-52442373D01*
X143089315Y-52442376D01*
X142853106Y-52540217D01*
X142853095Y-52540222D01*
X142631680Y-52668057D01*
X142631664Y-52668068D01*
X142428826Y-52823711D01*
X142428819Y-52823717D01*
X142248032Y-53004504D01*
X142248026Y-53004511D01*
X142092383Y-53207349D01*
X142092372Y-53207365D01*
X141964537Y-53428780D01*
X141964532Y-53428791D01*
X141866691Y-53665000D01*
X141866688Y-53665010D01*
X141806043Y-53891343D01*
X141800512Y-53911984D01*
X141767138Y-54165472D01*
X135508137Y-54165472D01*
X135474764Y-53911983D01*
X135408588Y-53665010D01*
X135404573Y-53655318D01*
X135372443Y-53577749D01*
X135310742Y-53428788D01*
X135310740Y-53428785D01*
X135310738Y-53428780D01*
X135182903Y-53207365D01*
X135182899Y-53207358D01*
X135133768Y-53143329D01*
X135027249Y-53004511D01*
X135027243Y-53004504D01*
X134846456Y-52823717D01*
X134846449Y-52823711D01*
X134643611Y-52668068D01*
X134643609Y-52668066D01*
X134643603Y-52668062D01*
X134643598Y-52668059D01*
X134643595Y-52668057D01*
X134422180Y-52540222D01*
X134422169Y-52540217D01*
X134185960Y-52442376D01*
X134185953Y-52442374D01*
X134185951Y-52442373D01*
X133938978Y-52376197D01*
X133882645Y-52368780D01*
X133685488Y-52342823D01*
X133685481Y-52342823D01*
X133429795Y-52342823D01*
X133429787Y-52342823D01*
X133204464Y-52372488D01*
X133176298Y-52376197D01*
X133111450Y-52393573D01*
X132929325Y-52442373D01*
X132929315Y-52442376D01*
X132693106Y-52540217D01*
X132693095Y-52540222D01*
X132471680Y-52668057D01*
X132471664Y-52668068D01*
X132268826Y-52823711D01*
X132268819Y-52823717D01*
X132088032Y-53004504D01*
X132088026Y-53004511D01*
X131932383Y-53207349D01*
X131932372Y-53207365D01*
X131804537Y-53428780D01*
X131804532Y-53428791D01*
X131706691Y-53665000D01*
X131706688Y-53665010D01*
X131646043Y-53891343D01*
X131640512Y-53911984D01*
X131607138Y-54165472D01*
X130427577Y-54165472D01*
X130438331Y-54125337D01*
X130469138Y-53891334D01*
X130469138Y-53655312D01*
X130438331Y-53421309D01*
X130377244Y-53193330D01*
X130286922Y-52975274D01*
X130286920Y-52975271D01*
X130286918Y-52975266D01*
X130228721Y-52874467D01*
X130168911Y-52770873D01*
X130090026Y-52668068D01*
X130025231Y-52583625D01*
X130025225Y-52583618D01*
X129858342Y-52416735D01*
X129858335Y-52416729D01*
X129671092Y-52273053D01*
X129671091Y-52273052D01*
X129671088Y-52273050D01*
X129584491Y-52223053D01*
X129466694Y-52155042D01*
X129466683Y-52155037D01*
X129248631Y-52064717D01*
X129020648Y-52003629D01*
X128786658Y-51972824D01*
X128786655Y-51972823D01*
X128786649Y-51972823D01*
X128550627Y-51972823D01*
X128550621Y-51972823D01*
X128550617Y-51972824D01*
X128316627Y-52003629D01*
X128088644Y-52064717D01*
X127870592Y-52155037D01*
X127870581Y-52155042D01*
X127679547Y-52265337D01*
X127678493Y-52265946D01*
X127666183Y-52273053D01*
X127478940Y-52416729D01*
X127478933Y-52416735D01*
X127312050Y-52583618D01*
X127312044Y-52583625D01*
X127168368Y-52770868D01*
X127050357Y-52975266D01*
X127050352Y-52975277D01*
X126960032Y-53193329D01*
X126898944Y-53421312D01*
X126868139Y-53655302D01*
X126868138Y-53655318D01*
X118419138Y-53655318D01*
X118419138Y-53605312D01*
X118388331Y-53371309D01*
X118327244Y-53143330D01*
X118236922Y-52925274D01*
X118236920Y-52925271D01*
X118236918Y-52925266D01*
X118178288Y-52823717D01*
X118118911Y-52720873D01*
X117975230Y-52533624D01*
X117975225Y-52533618D01*
X117808342Y-52366735D01*
X117808335Y-52366729D01*
X117621092Y-52223053D01*
X117621091Y-52223052D01*
X117621088Y-52223050D01*
X117503290Y-52155039D01*
X117416694Y-52105042D01*
X117416683Y-52105037D01*
X117198631Y-52014717D01*
X116970648Y-51953629D01*
X116736658Y-51922824D01*
X116736655Y-51922823D01*
X116736649Y-51922823D01*
X116500627Y-51922823D01*
X116500621Y-51922823D01*
X116500617Y-51922824D01*
X116266627Y-51953629D01*
X116038644Y-52014717D01*
X115820592Y-52105037D01*
X115820581Y-52105042D01*
X115616183Y-52223053D01*
X115428940Y-52366729D01*
X115428933Y-52366735D01*
X115262050Y-52533618D01*
X115262044Y-52533625D01*
X115118368Y-52720868D01*
X115000357Y-52925266D01*
X115000352Y-52925277D01*
X114910032Y-53143329D01*
X114848944Y-53371312D01*
X114818139Y-53605302D01*
X114818138Y-53605318D01*
X113425046Y-53605318D01*
X113422764Y-53587983D01*
X113356588Y-53341010D01*
X113258742Y-53104788D01*
X113258740Y-53104785D01*
X113258738Y-53104780D01*
X113130903Y-52883365D01*
X113130899Y-52883358D01*
X113004638Y-52718812D01*
X112975249Y-52680511D01*
X112975243Y-52680504D01*
X112794456Y-52499717D01*
X112794449Y-52499711D01*
X112591611Y-52344068D01*
X112591609Y-52344066D01*
X112591603Y-52344062D01*
X112591598Y-52344059D01*
X112591595Y-52344057D01*
X112370180Y-52216222D01*
X112370169Y-52216217D01*
X112133960Y-52118376D01*
X112133953Y-52118374D01*
X112133951Y-52118373D01*
X111886978Y-52052197D01*
X111830645Y-52044780D01*
X111633488Y-52018823D01*
X111633481Y-52018823D01*
X111377795Y-52018823D01*
X111377787Y-52018823D01*
X111152464Y-52048488D01*
X111124298Y-52052197D01*
X110927077Y-52105042D01*
X110877325Y-52118373D01*
X110877315Y-52118376D01*
X110641106Y-52216217D01*
X110641095Y-52216222D01*
X110419680Y-52344057D01*
X110419664Y-52344068D01*
X110216826Y-52499711D01*
X110216819Y-52499717D01*
X110036032Y-52680504D01*
X110036026Y-52680511D01*
X109880383Y-52883349D01*
X109880372Y-52883365D01*
X109752537Y-53104780D01*
X109752532Y-53104791D01*
X109654691Y-53341000D01*
X109654688Y-53341010D01*
X109588512Y-53587984D01*
X109555138Y-53841472D01*
X108376137Y-53841472D01*
X108342764Y-53587983D01*
X108276588Y-53341010D01*
X108178742Y-53104788D01*
X108178740Y-53104785D01*
X108178738Y-53104780D01*
X108050903Y-52883365D01*
X108050899Y-52883358D01*
X107924638Y-52718812D01*
X107895249Y-52680511D01*
X107895243Y-52680504D01*
X107714456Y-52499717D01*
X107714449Y-52499711D01*
X107511611Y-52344068D01*
X107511609Y-52344066D01*
X107511603Y-52344062D01*
X107511598Y-52344059D01*
X107511595Y-52344057D01*
X107290180Y-52216222D01*
X107290169Y-52216217D01*
X107053960Y-52118376D01*
X107053953Y-52118374D01*
X107053951Y-52118373D01*
X106806978Y-52052197D01*
X106750645Y-52044780D01*
X106553488Y-52018823D01*
X106553481Y-52018823D01*
X106297795Y-52018823D01*
X106297787Y-52018823D01*
X106072464Y-52048488D01*
X106044298Y-52052197D01*
X105847077Y-52105042D01*
X105797325Y-52118373D01*
X105797315Y-52118376D01*
X105561106Y-52216217D01*
X105561095Y-52216222D01*
X105339680Y-52344057D01*
X105339664Y-52344068D01*
X105136826Y-52499711D01*
X105136819Y-52499717D01*
X104956032Y-52680504D01*
X104956026Y-52680511D01*
X104800383Y-52883349D01*
X104800372Y-52883365D01*
X104672537Y-53104780D01*
X104672532Y-53104791D01*
X104574691Y-53341000D01*
X104574688Y-53341010D01*
X104508512Y-53587984D01*
X104475138Y-53841472D01*
X102017200Y-53841472D01*
X102017200Y-49039823D01*
X102036885Y-48972784D01*
X102089689Y-48927029D01*
X102141200Y-48915823D01*
X203218800Y-48915823D01*
X203285839Y-48935508D01*
G37*
%TD.AperFunction*%
%TD*%
M02*
