%TF.GenerationSoftware,KiCad,Pcbnew,9.0.1*%
%TF.CreationDate,2025-06-09T14:31:38-07:00*%
%TF.ProjectId,chop-controller-heat-v2,63686f70-2d63-46f6-9e74-726f6c6c6572,rev?*%
%TF.SameCoordinates,Original*%
%TF.FileFunction,Soldermask,Top*%
%TF.FilePolarity,Negative*%
%FSLAX46Y46*%
G04 Gerber Fmt 4.6, Leading zero omitted, Abs format (unit mm)*
G04 Created by KiCad (PCBNEW 9.0.1) date 2025-06-09 14:31:38*
%MOMM*%
%LPD*%
G01*
G04 APERTURE LIST*
G04 Aperture macros list*
%AMRoundRect*
0 Rectangle with rounded corners*
0 $1 Rounding radius*
0 $2 $3 $4 $5 $6 $7 $8 $9 X,Y pos of 4 corners*
0 Add a 4 corners polygon primitive as box body*
4,1,4,$2,$3,$4,$5,$6,$7,$8,$9,$2,$3,0*
0 Add four circle primitives for the rounded corners*
1,1,$1+$1,$2,$3*
1,1,$1+$1,$4,$5*
1,1,$1+$1,$6,$7*
1,1,$1+$1,$8,$9*
0 Add four rect primitives between the rounded corners*
20,1,$1+$1,$2,$3,$4,$5,0*
20,1,$1+$1,$4,$5,$6,$7,0*
20,1,$1+$1,$6,$7,$8,$9,0*
20,1,$1+$1,$8,$9,$2,$3,0*%
%AMFreePoly0*
4,1,77,2.123536,2.483536,2.125000,2.480000,2.125000,1.460000,2.123536,1.456464,2.120000,1.455000,1.965000,1.455000,1.965000,1.175000,2.710000,1.175000,2.713536,1.173536,2.715000,1.170000,2.715000,0.560000,2.713536,0.556464,2.710000,0.555000,1.965000,0.555000,1.965000,-1.245000,2.710000,-1.245000,2.713536,-1.246464,2.715000,-1.250000,2.715000,-1.860000,2.713536,-1.863536,
2.710000,-1.865000,1.965000,-1.865000,1.965000,-2.040000,1.963536,-2.043536,1.960000,-2.045000,-2.140000,-2.045000,-2.143536,-2.043536,-2.145000,-2.040000,-2.145000,-1.875000,-2.900000,-1.875000,-2.903536,-1.873536,-2.905000,-1.870000,-2.905000,-1.260000,-2.903536,-1.256464,-2.900000,-1.255000,-2.145000,-1.255000,-2.145000,0.545000,-2.900000,0.545000,-2.903536,0.546464,-2.905000,0.550000,
-2.905000,1.160000,-2.903536,1.163536,-2.900000,1.165000,-2.145000,1.165000,-2.145000,1.445000,-2.300000,1.445000,-2.303536,1.446464,-2.305000,1.450000,-2.305000,2.470000,-2.303536,2.473536,-2.300000,2.475000,-1.690000,2.475000,-1.686464,2.473536,-1.685000,2.470000,-1.685000,1.775000,-1.035000,1.775000,-1.035000,2.470000,-1.033536,2.473536,-1.030000,2.475000,-0.420000,2.475000,
-0.416464,2.473536,-0.415000,2.470000,-0.415000,1.775000,0.235000,1.775000,0.235000,2.470000,0.236464,2.473536,0.240000,2.475000,0.850000,2.475000,0.853536,2.473536,0.855000,2.470000,0.855000,1.775000,1.505000,1.775000,1.505000,2.480000,1.506464,2.483536,1.510000,2.485000,2.120000,2.485000,2.123536,2.483536,2.123536,2.483536,$1*%
G04 Aperture macros list end*
%ADD10R,1.680000X0.400000*%
%ADD11C,1.740000*%
%ADD12RoundRect,0.250560X0.619440X0.619440X-0.619440X0.619440X-0.619440X-0.619440X0.619440X-0.619440X0*%
%ADD13C,3.400000*%
%ADD14RoundRect,0.250560X-0.619440X-0.619440X0.619440X-0.619440X0.619440X0.619440X-0.619440X0.619440X0*%
%ADD15C,1.500000*%
%ADD16RoundRect,0.250001X0.499999X-0.499999X0.499999X0.499999X-0.499999X0.499999X-0.499999X-0.499999X0*%
%ADD17C,3.000000*%
%ADD18RoundRect,0.250001X-0.499999X0.499999X-0.499999X-0.499999X0.499999X-0.499999X0.499999X0.499999X0*%
%ADD19C,3.200000*%
%ADD20RoundRect,0.218750X-0.218750X-0.256250X0.218750X-0.256250X0.218750X0.256250X-0.218750X0.256250X0*%
%ADD21RoundRect,0.237500X-0.237500X0.287500X-0.237500X-0.287500X0.237500X-0.287500X0.237500X0.287500X0*%
%ADD22RoundRect,0.218750X0.218750X0.256250X-0.218750X0.256250X-0.218750X-0.256250X0.218750X-0.256250X0*%
%ADD23RoundRect,0.218750X0.256250X-0.218750X0.256250X0.218750X-0.256250X0.218750X-0.256250X-0.218750X0*%
%ADD24RoundRect,0.237500X-0.287500X-0.237500X0.287500X-0.237500X0.287500X0.237500X-0.287500X0.237500X0*%
%ADD25RoundRect,0.150000X-0.825000X-0.150000X0.825000X-0.150000X0.825000X0.150000X-0.825000X0.150000X0*%
%ADD26R,1.500000X1.050000*%
%ADD27O,1.500000X1.050000*%
%ADD28RoundRect,0.132500X-0.132500X0.857500X-0.132500X-0.857500X0.132500X-0.857500X0.132500X0.857500X0*%
%ADD29RoundRect,0.218750X-0.256250X0.218750X-0.256250X-0.218750X0.256250X-0.218750X0.256250X0.218750X0*%
%ADD30RoundRect,0.112500X-0.187500X-0.112500X0.187500X-0.112500X0.187500X0.112500X-0.187500X0.112500X0*%
%ADD31RoundRect,0.237500X0.287500X0.237500X-0.287500X0.237500X-0.287500X-0.237500X0.287500X-0.237500X0*%
%ADD32R,0.610000X1.270000*%
%ADD33FreePoly0,0.000000*%
%ADD34RoundRect,0.132500X0.857500X0.132500X-0.857500X0.132500X-0.857500X-0.132500X0.857500X-0.132500X0*%
%ADD35RoundRect,0.237500X0.237500X-0.287500X0.237500X0.287500X-0.237500X0.287500X-0.237500X-0.287500X0*%
%ADD36RoundRect,0.150000X-0.512500X-0.150000X0.512500X-0.150000X0.512500X0.150000X-0.512500X0.150000X0*%
%ADD37C,1.440000*%
%ADD38RoundRect,0.100000X0.637500X0.100000X-0.637500X0.100000X-0.637500X-0.100000X0.637500X-0.100000X0*%
%ADD39RoundRect,0.150000X-0.150000X0.825000X-0.150000X-0.825000X0.150000X-0.825000X0.150000X0.825000X0*%
%ADD40RoundRect,0.100000X-0.712500X-0.100000X0.712500X-0.100000X0.712500X0.100000X-0.712500X0.100000X0*%
%ADD41C,2.500000*%
%ADD42RoundRect,0.150000X0.512500X0.150000X-0.512500X0.150000X-0.512500X-0.150000X0.512500X-0.150000X0*%
%ADD43FreePoly0,180.000000*%
G04 APERTURE END LIST*
D10*
%TO.C,U4*%
X167951400Y-97155000D03*
X167951400Y-96505000D03*
X167951400Y-95855000D03*
X167951400Y-95205000D03*
X163551400Y-95205000D03*
X163551400Y-95855000D03*
X163551400Y-96505000D03*
X163551400Y-97155000D03*
%TD*%
D11*
%TO.C,J1*%
X134797638Y-62933323D03*
X137337638Y-62933323D03*
X139907638Y-62933323D03*
D12*
X142447638Y-62933323D03*
D13*
X133557638Y-54293323D03*
X143717638Y-54293323D03*
%TD*%
D11*
%TO.C,J2*%
X157683638Y-62933323D03*
X155143638Y-62933323D03*
X152573638Y-62933323D03*
D14*
X150033638Y-62933323D03*
D13*
X158923638Y-54293323D03*
X148763638Y-54293323D03*
%TD*%
D11*
%TO.C,J3*%
X165480888Y-62984073D03*
X168020888Y-62984073D03*
X170590888Y-62984073D03*
D12*
X173130888Y-62984073D03*
D13*
X164240888Y-54344073D03*
X174400888Y-54344073D03*
%TD*%
D11*
%TO.C,J9*%
X146320400Y-109099000D03*
X148860400Y-109099000D03*
X151370400Y-109099000D03*
X153910400Y-109099000D03*
X156480400Y-109099000D03*
D12*
X159020400Y-109099000D03*
D13*
X145050400Y-117739000D03*
X160290400Y-117739000D03*
%TD*%
D15*
%TO.C,J11*%
X98046800Y-62012800D03*
X98046800Y-65012800D03*
X98046800Y-68012800D03*
X98046800Y-71012800D03*
X98046800Y-74012800D03*
X98046800Y-77012800D03*
X98046800Y-80012800D03*
X95046800Y-62012800D03*
X95046800Y-65012800D03*
X95046800Y-68012800D03*
X95046800Y-71012800D03*
X95046800Y-74012800D03*
X95046800Y-77012800D03*
D16*
X95046800Y-80012800D03*
D17*
X90726800Y-64152800D03*
X90726800Y-77852800D03*
%TD*%
D15*
%TO.C,J12*%
X189804000Y-92300000D03*
X189804000Y-89300000D03*
X189804000Y-86300000D03*
X189804000Y-83300000D03*
X192804000Y-92300000D03*
X192804000Y-89300000D03*
X192804000Y-86300000D03*
D18*
X192804000Y-83300000D03*
D17*
X197124000Y-90160000D03*
X197124000Y-85460000D03*
%TD*%
D11*
%TO.C,J13*%
X110235638Y-62609323D03*
D14*
X107695638Y-62609323D03*
D13*
X111505638Y-53969323D03*
X106425638Y-53969323D03*
%TD*%
D19*
%TO.C,MK1*%
X90140800Y-54022000D03*
%TD*%
%TO.C,MK2*%
X197793600Y-54022000D03*
%TD*%
%TO.C,MK3*%
X197793600Y-111387000D03*
%TD*%
%TO.C,MK4*%
X90140800Y-111387000D03*
%TD*%
D10*
%TO.C,U2*%
X174856638Y-74628073D03*
X174856638Y-75278073D03*
X174856638Y-75928073D03*
X174856638Y-76578073D03*
X170456638Y-76578073D03*
X170456638Y-75928073D03*
X170456638Y-75278073D03*
X170456638Y-74628073D03*
%TD*%
D20*
%TO.C,R17*%
X173139138Y-72809073D03*
X174714138Y-72809073D03*
%TD*%
D21*
%TO.C,C36*%
X150511400Y-100177000D03*
X150511400Y-101927000D03*
%TD*%
D22*
%TO.C,R11*%
X151473138Y-72504323D03*
X149898138Y-72504323D03*
%TD*%
D20*
%TO.C,R21*%
X131483138Y-65265323D03*
X133058138Y-65265323D03*
%TD*%
D23*
%TO.C,R53*%
X117103638Y-76449823D03*
X117103638Y-74874823D03*
%TD*%
D21*
%TO.C,C35*%
X152289400Y-92811000D03*
X152289400Y-94561000D03*
%TD*%
D24*
%TO.C,C1*%
X147410200Y-74269600D03*
X149160200Y-74269600D03*
%TD*%
D23*
%TO.C,R49*%
X113601638Y-67576823D03*
X113601638Y-66001823D03*
%TD*%
D25*
%TO.C,U19*%
X120651638Y-81267323D03*
X120651638Y-82537323D03*
X120651638Y-83807323D03*
X120651638Y-85077323D03*
X125601638Y-85077323D03*
X125601638Y-83807323D03*
X125601638Y-82537323D03*
X125601638Y-81267323D03*
%TD*%
D26*
%TO.C,U18*%
X111082638Y-84823323D03*
D27*
X111082638Y-86093323D03*
X111082638Y-87363323D03*
%TD*%
D24*
%TO.C,C14*%
X155525638Y-65138323D03*
X157275638Y-65138323D03*
%TD*%
D28*
%TO.C,U7*%
X168668888Y-67423073D03*
X167398888Y-67423073D03*
X166128888Y-67423073D03*
X164858888Y-67423073D03*
X164858888Y-72353073D03*
X166128888Y-72353073D03*
X167398888Y-72353073D03*
X168668888Y-72353073D03*
%TD*%
D29*
%TO.C,R1*%
X139042638Y-74891823D03*
X139042638Y-76466823D03*
%TD*%
D30*
%TO.C,D1*%
X126902638Y-70853323D03*
X129002638Y-70853323D03*
%TD*%
D31*
%TO.C,C31*%
X155323400Y-100544000D03*
X153573400Y-100544000D03*
%TD*%
D21*
%TO.C,C11*%
X163080888Y-67235073D03*
X163080888Y-68985073D03*
%TD*%
D32*
%TO.C,Q2*%
X171716888Y-70904073D03*
X172986888Y-70904073D03*
X174256888Y-70904073D03*
X175526888Y-70904073D03*
D33*
X173711888Y-67404073D03*
%TD*%
D34*
%TO.C,U10*%
X159030600Y-70676323D03*
X159030600Y-69406323D03*
X159030600Y-68136323D03*
X159030600Y-66866323D03*
X154100600Y-66866323D03*
X154100600Y-68136323D03*
X154100600Y-69406323D03*
X154100600Y-70676323D03*
%TD*%
D21*
%TO.C,C54*%
X116849638Y-87106323D03*
X116849638Y-88856323D03*
%TD*%
D29*
%TO.C,R2*%
X168592638Y-75196573D03*
X168592638Y-76771573D03*
%TD*%
D35*
%TO.C,C49*%
X111823638Y-70839323D03*
X111823638Y-69089323D03*
%TD*%
D10*
%TO.C,U1*%
X140906638Y-74323323D03*
X140906638Y-74973323D03*
X140906638Y-75623323D03*
X140906638Y-76273323D03*
X145306638Y-76273323D03*
X145306638Y-75623323D03*
X145306638Y-74973323D03*
X145306638Y-74323323D03*
%TD*%
D36*
%TO.C,U23*%
X125545138Y-73205323D03*
X125545138Y-74155323D03*
X125545138Y-75105323D03*
X127820138Y-75105323D03*
X127820138Y-74155323D03*
X127820138Y-73205323D03*
%TD*%
D23*
%TO.C,R52*%
X117103638Y-80005823D03*
X117103638Y-78430823D03*
%TD*%
D31*
%TO.C,C6*%
X136955638Y-65138323D03*
X135205638Y-65138323D03*
%TD*%
D32*
%TO.C,Q6*%
X147674638Y-70670323D03*
X148944638Y-70670323D03*
X150214638Y-70670323D03*
X151484638Y-70670323D03*
D33*
X149669638Y-67170323D03*
%TD*%
D24*
%TO.C,C34*%
X145177400Y-103719000D03*
X146927400Y-103719000D03*
%TD*%
D23*
%TO.C,R50*%
X109991638Y-67813823D03*
X109991638Y-66238823D03*
%TD*%
D37*
%TO.C,RV1*%
X121602638Y-77594323D03*
X121602638Y-75054323D03*
X121602638Y-72514323D03*
%TD*%
D32*
%TO.C,Q1*%
X140943638Y-70670323D03*
X142213638Y-70670323D03*
X143483638Y-70670323D03*
X144753638Y-70670323D03*
D33*
X142938638Y-67170323D03*
%TD*%
D29*
%TO.C,R38*%
X146941400Y-105344500D03*
X146941400Y-106919500D03*
%TD*%
D21*
%TO.C,C55*%
X114817638Y-87106323D03*
X114817638Y-88856323D03*
%TD*%
D38*
%TO.C,U14*%
X150325900Y-98643000D03*
X150325900Y-97993000D03*
X150325900Y-97343000D03*
X150325900Y-96693000D03*
X150325900Y-96043000D03*
X150325900Y-95393000D03*
X150325900Y-94743000D03*
X150325900Y-94093000D03*
X150325900Y-93443000D03*
X150325900Y-92793000D03*
X144600900Y-92793000D03*
X144600900Y-93443000D03*
X144600900Y-94093000D03*
X144600900Y-94743000D03*
X144600900Y-95393000D03*
X144600900Y-96043000D03*
X144600900Y-96693000D03*
X144600900Y-97343000D03*
X144600900Y-97993000D03*
X144600900Y-98643000D03*
%TD*%
D39*
%TO.C,U17*%
X115452638Y-76743323D03*
X114182638Y-76743323D03*
X112912638Y-76743323D03*
X111642638Y-76743323D03*
X111642638Y-81693323D03*
X112912638Y-81693323D03*
X114182638Y-81693323D03*
X115452638Y-81693323D03*
%TD*%
D35*
%TO.C,C10*%
X132397638Y-69061323D03*
X132397638Y-67311323D03*
%TD*%
D24*
%TO.C,C37*%
X144429400Y-91273000D03*
X146179400Y-91273000D03*
%TD*%
D35*
%TO.C,C2*%
X176847638Y-75843073D03*
X176847638Y-74093073D03*
%TD*%
D20*
%TO.C,R36*%
X156454900Y-93432000D03*
X158029900Y-93432000D03*
%TD*%
D40*
%TO.C,U16*%
X106917138Y-72545323D03*
X106917138Y-73195323D03*
X106917138Y-73845323D03*
X106917138Y-74495323D03*
X111142138Y-74495323D03*
X111142138Y-73845323D03*
X111142138Y-73195323D03*
X111142138Y-72545323D03*
%TD*%
D28*
%TO.C,U6*%
X137985638Y-67372323D03*
X136715638Y-67372323D03*
X135445638Y-67372323D03*
X134175638Y-67372323D03*
X134175638Y-72302323D03*
X135445638Y-72302323D03*
X136715638Y-72302323D03*
X137985638Y-72302323D03*
%TD*%
D37*
%TO.C,RV2*%
X120322638Y-88887323D03*
X122862638Y-88887323D03*
X125402638Y-88887323D03*
%TD*%
D21*
%TO.C,C17*%
X161226638Y-67184323D03*
X161226638Y-68934323D03*
%TD*%
%TO.C,C48*%
X106489638Y-69089323D03*
X106489638Y-70839323D03*
%TD*%
D23*
%TO.C,R_REF2*%
X155337400Y-103744500D03*
X155337400Y-102169500D03*
%TD*%
D17*
%TO.C,K1*%
X122618638Y-67923323D03*
D41*
X128668638Y-65973323D03*
D17*
X128668638Y-53773323D03*
X116618638Y-53723323D03*
D41*
X116668638Y-65973323D03*
%TD*%
D21*
%TO.C,C52*%
X113601638Y-69597323D03*
X113601638Y-71347323D03*
%TD*%
D35*
%TO.C,C29*%
X154067400Y-96847000D03*
X154067400Y-95097000D03*
%TD*%
D24*
%TO.C,C56*%
X106195638Y-85060323D03*
X107945638Y-85060323D03*
%TD*%
D31*
%TO.C,C33*%
X150483400Y-103719000D03*
X148733400Y-103719000D03*
%TD*%
D42*
%TO.C,U20*%
X107886638Y-79721323D03*
X107886638Y-78771323D03*
X107886638Y-77821323D03*
X105611638Y-77821323D03*
X105611638Y-78771323D03*
X105611638Y-79721323D03*
%TD*%
D31*
%TO.C,C7*%
X167638888Y-65189073D03*
X165888888Y-65189073D03*
%TD*%
%TO.C,C51*%
X114984638Y-73139323D03*
X113234638Y-73139323D03*
%TD*%
%TO.C,C30*%
X148705400Y-102068000D03*
X146955400Y-102068000D03*
%TD*%
D29*
%TO.C,R37*%
X148719400Y-105344500D03*
X148719400Y-106919500D03*
%TD*%
D24*
%TO.C,C58*%
X106195638Y-81504323D03*
X107945638Y-81504323D03*
%TD*%
%TO.C,C47*%
X108281638Y-70853323D03*
X110031638Y-70853323D03*
%TD*%
D22*
%TO.C,R6*%
X140973138Y-77965323D03*
X139398138Y-77965323D03*
%TD*%
D24*
%TO.C,C32*%
X156508400Y-95083000D03*
X158258400Y-95083000D03*
%TD*%
%TO.C,C57*%
X106195638Y-83282323D03*
X107945638Y-83282323D03*
%TD*%
D23*
%TO.C,R39*%
X152289400Y-98918500D03*
X152289400Y-97343500D03*
%TD*%
D29*
%TO.C,R35*%
X153686400Y-102169500D03*
X153686400Y-103744500D03*
%TD*%
%TO.C,R51*%
X108213638Y-66255823D03*
X108213638Y-67830823D03*
%TD*%
D20*
%TO.C,R16*%
X143167138Y-72504323D03*
X144742138Y-72504323D03*
%TD*%
D22*
%TO.C,R9*%
X166665900Y-93432000D03*
X165090900Y-93432000D03*
%TD*%
D31*
%TO.C,C4*%
X161533562Y-97559477D03*
X159783562Y-97559477D03*
%TD*%
D32*
%TO.C,Q9*%
X161306400Y-101133000D03*
X160036400Y-101133000D03*
X158766400Y-101133000D03*
X157496400Y-101133000D03*
D43*
X159311400Y-104633000D03*
%TD*%
D20*
%TO.C,R14*%
X157470900Y-99274000D03*
X159045900Y-99274000D03*
%TD*%
M02*
