%TF.GenerationSoftware,KiCad,Pcbnew,9.0.1*%
%TF.CreationDate,2025-06-05T13:02:27-07:00*%
%TF.ProjectId,chop-controller-heat,63686f70-2d63-46f6-9e74-726f6c6c6572,rev?*%
%TF.SameCoordinates,Original*%
%TF.FileFunction,Drillmap*%
%TF.FilePolarity,Positive*%
%FSLAX45Y45*%
G04 Gerber Fmt 4.5, Leading zero omitted, Abs format (unit mm)*
G04 Created by KiCad (PCBNEW 9.0.1) date 2025-06-05 13:02:27*
%MOMM*%
%LPD*%
G01*
G04 APERTURE LIST*
%ADD10C,0.200000*%
%ADD11C,0.300000*%
%ADD12C,0.320000*%
%ADD13C,0.340000*%
G04 APERTURE END LIST*
D10*
X8502664Y-4891532D02*
X21138264Y-4891532D01*
X21138264Y-10469532D01*
X8502664Y-10469532D01*
X8502664Y-4891532D01*
D11*
X8922680Y-6265280D02*
X9222680Y-6565280D01*
X9222680Y-6265280D02*
X8922680Y-6565280D01*
X8922680Y-7635280D02*
X9222680Y-7935280D01*
X9222680Y-7635280D02*
X8922680Y-7935280D01*
X20462400Y-7246000D02*
X20762400Y-7546000D01*
X20762400Y-7246000D02*
X20462400Y-7546000D01*
X20462400Y-7716000D02*
X20762400Y-8016000D01*
X20762400Y-7716000D02*
X20462400Y-8016000D01*
D12*
X9232680Y-5402200D02*
G75*
G02*
X8912680Y-5402200I-160000J0D01*
G01*
X8912680Y-5402200D02*
G75*
G02*
X9232680Y-5402200I160000J0D01*
G01*
X9232680Y-9936200D02*
G75*
G02*
X8912680Y-9936200I-160000J0D01*
G01*
X8912680Y-9936200D02*
G75*
G02*
X9232680Y-9936200I160000J0D01*
G01*
X20755740Y-5402200D02*
G75*
G02*
X20435740Y-5402200I-160000J0D01*
G01*
X20435740Y-5402200D02*
G75*
G02*
X20755740Y-5402200I160000J0D01*
G01*
X20755740Y-9936200D02*
G75*
G02*
X20435740Y-9936200I-160000J0D01*
G01*
X20435740Y-9936200D02*
G75*
G02*
X20755740Y-9936200I160000J0D01*
G01*
D13*
X10642564Y-5226932D02*
X10642564Y-5566932D01*
X10472564Y-5396932D02*
X10812564Y-5396932D01*
X11150564Y-5226932D02*
X11150564Y-5566932D01*
X10980564Y-5396932D02*
X11320564Y-5396932D01*
X13355764Y-5259332D02*
X13355764Y-5599332D01*
X13185764Y-5429332D02*
X13525764Y-5429332D01*
X14371764Y-5259332D02*
X14371764Y-5599332D01*
X14201764Y-5429332D02*
X14541764Y-5429332D01*
X14876364Y-5259332D02*
X14876364Y-5599332D01*
X14706364Y-5429332D02*
X15046364Y-5429332D01*
X15892364Y-5259332D02*
X15892364Y-5599332D01*
X15722364Y-5429332D02*
X16062364Y-5429332D01*
X16424089Y-5264407D02*
X16424089Y-5604407D01*
X16254089Y-5434407D02*
X16594089Y-5434407D01*
X17440089Y-5264407D02*
X17440089Y-5604407D01*
X17270089Y-5434407D02*
X17610089Y-5434407D01*
X17957389Y-5264407D02*
X17957389Y-5604407D01*
X17787389Y-5434407D02*
X18127389Y-5434407D01*
X18973389Y-5264407D02*
X18973389Y-5604407D01*
X18803389Y-5434407D02*
X19143389Y-5434407D01*
D10*
X8753441Y-10791016D02*
X8753441Y-10591016D01*
X8753441Y-10591016D02*
X8801060Y-10591016D01*
X8801060Y-10591016D02*
X8829631Y-10600540D01*
X8829631Y-10600540D02*
X8848679Y-10619588D01*
X8848679Y-10619588D02*
X8858203Y-10638635D01*
X8858203Y-10638635D02*
X8867726Y-10676730D01*
X8867726Y-10676730D02*
X8867726Y-10705302D01*
X8867726Y-10705302D02*
X8858203Y-10743397D01*
X8858203Y-10743397D02*
X8848679Y-10762445D01*
X8848679Y-10762445D02*
X8829631Y-10781492D01*
X8829631Y-10781492D02*
X8801060Y-10791016D01*
X8801060Y-10791016D02*
X8753441Y-10791016D01*
X8953441Y-10791016D02*
X8953441Y-10657683D01*
X8953441Y-10695778D02*
X8962964Y-10676730D01*
X8962964Y-10676730D02*
X8972488Y-10667207D01*
X8972488Y-10667207D02*
X8991536Y-10657683D01*
X8991536Y-10657683D02*
X9010584Y-10657683D01*
X9077250Y-10791016D02*
X9077250Y-10657683D01*
X9077250Y-10591016D02*
X9067726Y-10600540D01*
X9067726Y-10600540D02*
X9077250Y-10610064D01*
X9077250Y-10610064D02*
X9086774Y-10600540D01*
X9086774Y-10600540D02*
X9077250Y-10591016D01*
X9077250Y-10591016D02*
X9077250Y-10610064D01*
X9201060Y-10791016D02*
X9182012Y-10781492D01*
X9182012Y-10781492D02*
X9172488Y-10762445D01*
X9172488Y-10762445D02*
X9172488Y-10591016D01*
X9305822Y-10791016D02*
X9286774Y-10781492D01*
X9286774Y-10781492D02*
X9277250Y-10762445D01*
X9277250Y-10762445D02*
X9277250Y-10591016D01*
X9534393Y-10791016D02*
X9534393Y-10591016D01*
X9534393Y-10591016D02*
X9601060Y-10733873D01*
X9601060Y-10733873D02*
X9667726Y-10591016D01*
X9667726Y-10591016D02*
X9667726Y-10791016D01*
X9848679Y-10791016D02*
X9848679Y-10686254D01*
X9848679Y-10686254D02*
X9839155Y-10667207D01*
X9839155Y-10667207D02*
X9820107Y-10657683D01*
X9820107Y-10657683D02*
X9782012Y-10657683D01*
X9782012Y-10657683D02*
X9762964Y-10667207D01*
X9848679Y-10781492D02*
X9829631Y-10791016D01*
X9829631Y-10791016D02*
X9782012Y-10791016D01*
X9782012Y-10791016D02*
X9762964Y-10781492D01*
X9762964Y-10781492D02*
X9753441Y-10762445D01*
X9753441Y-10762445D02*
X9753441Y-10743397D01*
X9753441Y-10743397D02*
X9762964Y-10724349D01*
X9762964Y-10724349D02*
X9782012Y-10714826D01*
X9782012Y-10714826D02*
X9829631Y-10714826D01*
X9829631Y-10714826D02*
X9848679Y-10705302D01*
X9943917Y-10657683D02*
X9943917Y-10857683D01*
X9943917Y-10667207D02*
X9962964Y-10657683D01*
X9962964Y-10657683D02*
X10001060Y-10657683D01*
X10001060Y-10657683D02*
X10020107Y-10667207D01*
X10020107Y-10667207D02*
X10029631Y-10676730D01*
X10029631Y-10676730D02*
X10039155Y-10695778D01*
X10039155Y-10695778D02*
X10039155Y-10752921D01*
X10039155Y-10752921D02*
X10029631Y-10771968D01*
X10029631Y-10771968D02*
X10020107Y-10781492D01*
X10020107Y-10781492D02*
X10001060Y-10791016D01*
X10001060Y-10791016D02*
X9962964Y-10791016D01*
X9962964Y-10791016D02*
X9943917Y-10781492D01*
X10124869Y-10771968D02*
X10134393Y-10781492D01*
X10134393Y-10781492D02*
X10124869Y-10791016D01*
X10124869Y-10791016D02*
X10115345Y-10781492D01*
X10115345Y-10781492D02*
X10124869Y-10771968D01*
X10124869Y-10771968D02*
X10124869Y-10791016D01*
X10124869Y-10667207D02*
X10134393Y-10676730D01*
X10134393Y-10676730D02*
X10124869Y-10686254D01*
X10124869Y-10686254D02*
X10115345Y-10676730D01*
X10115345Y-10676730D02*
X10124869Y-10667207D01*
X10124869Y-10667207D02*
X10124869Y-10686254D01*
X8292664Y-11019532D02*
X8492664Y-11219532D01*
X8492664Y-11019532D02*
X8292664Y-11219532D01*
X8734393Y-11011016D02*
X8858203Y-11011016D01*
X8858203Y-11011016D02*
X8791536Y-11087207D01*
X8791536Y-11087207D02*
X8820107Y-11087207D01*
X8820107Y-11087207D02*
X8839155Y-11096730D01*
X8839155Y-11096730D02*
X8848679Y-11106254D01*
X8848679Y-11106254D02*
X8858203Y-11125302D01*
X8858203Y-11125302D02*
X8858203Y-11172921D01*
X8858203Y-11172921D02*
X8848679Y-11191968D01*
X8848679Y-11191968D02*
X8839155Y-11201492D01*
X8839155Y-11201492D02*
X8820107Y-11211016D01*
X8820107Y-11211016D02*
X8762964Y-11211016D01*
X8762964Y-11211016D02*
X8743917Y-11201492D01*
X8743917Y-11201492D02*
X8734393Y-11191968D01*
X8943917Y-11191968D02*
X8953441Y-11201492D01*
X8953441Y-11201492D02*
X8943917Y-11211016D01*
X8943917Y-11211016D02*
X8934393Y-11201492D01*
X8934393Y-11201492D02*
X8943917Y-11191968D01*
X8943917Y-11191968D02*
X8943917Y-11211016D01*
X9077250Y-11011016D02*
X9096298Y-11011016D01*
X9096298Y-11011016D02*
X9115345Y-11020540D01*
X9115345Y-11020540D02*
X9124869Y-11030064D01*
X9124869Y-11030064D02*
X9134393Y-11049111D01*
X9134393Y-11049111D02*
X9143917Y-11087207D01*
X9143917Y-11087207D02*
X9143917Y-11134826D01*
X9143917Y-11134826D02*
X9134393Y-11172921D01*
X9134393Y-11172921D02*
X9124869Y-11191968D01*
X9124869Y-11191968D02*
X9115345Y-11201492D01*
X9115345Y-11201492D02*
X9096298Y-11211016D01*
X9096298Y-11211016D02*
X9077250Y-11211016D01*
X9077250Y-11211016D02*
X9058203Y-11201492D01*
X9058203Y-11201492D02*
X9048679Y-11191968D01*
X9048679Y-11191968D02*
X9039155Y-11172921D01*
X9039155Y-11172921D02*
X9029631Y-11134826D01*
X9029631Y-11134826D02*
X9029631Y-11087207D01*
X9029631Y-11087207D02*
X9039155Y-11049111D01*
X9039155Y-11049111D02*
X9048679Y-11030064D01*
X9048679Y-11030064D02*
X9058203Y-11020540D01*
X9058203Y-11020540D02*
X9077250Y-11011016D01*
X9267726Y-11011016D02*
X9286774Y-11011016D01*
X9286774Y-11011016D02*
X9305822Y-11020540D01*
X9305822Y-11020540D02*
X9315345Y-11030064D01*
X9315345Y-11030064D02*
X9324869Y-11049111D01*
X9324869Y-11049111D02*
X9334393Y-11087207D01*
X9334393Y-11087207D02*
X9334393Y-11134826D01*
X9334393Y-11134826D02*
X9324869Y-11172921D01*
X9324869Y-11172921D02*
X9315345Y-11191968D01*
X9315345Y-11191968D02*
X9305822Y-11201492D01*
X9305822Y-11201492D02*
X9286774Y-11211016D01*
X9286774Y-11211016D02*
X9267726Y-11211016D01*
X9267726Y-11211016D02*
X9248679Y-11201492D01*
X9248679Y-11201492D02*
X9239155Y-11191968D01*
X9239155Y-11191968D02*
X9229631Y-11172921D01*
X9229631Y-11172921D02*
X9220107Y-11134826D01*
X9220107Y-11134826D02*
X9220107Y-11087207D01*
X9220107Y-11087207D02*
X9229631Y-11049111D01*
X9229631Y-11049111D02*
X9239155Y-11030064D01*
X9239155Y-11030064D02*
X9248679Y-11020540D01*
X9248679Y-11020540D02*
X9267726Y-11011016D01*
X9458203Y-11011016D02*
X9477250Y-11011016D01*
X9477250Y-11011016D02*
X9496298Y-11020540D01*
X9496298Y-11020540D02*
X9505822Y-11030064D01*
X9505822Y-11030064D02*
X9515345Y-11049111D01*
X9515345Y-11049111D02*
X9524869Y-11087207D01*
X9524869Y-11087207D02*
X9524869Y-11134826D01*
X9524869Y-11134826D02*
X9515345Y-11172921D01*
X9515345Y-11172921D02*
X9505822Y-11191968D01*
X9505822Y-11191968D02*
X9496298Y-11201492D01*
X9496298Y-11201492D02*
X9477250Y-11211016D01*
X9477250Y-11211016D02*
X9458203Y-11211016D01*
X9458203Y-11211016D02*
X9439155Y-11201492D01*
X9439155Y-11201492D02*
X9429631Y-11191968D01*
X9429631Y-11191968D02*
X9420107Y-11172921D01*
X9420107Y-11172921D02*
X9410584Y-11134826D01*
X9410584Y-11134826D02*
X9410584Y-11087207D01*
X9410584Y-11087207D02*
X9420107Y-11049111D01*
X9420107Y-11049111D02*
X9429631Y-11030064D01*
X9429631Y-11030064D02*
X9439155Y-11020540D01*
X9439155Y-11020540D02*
X9458203Y-11011016D01*
X9610584Y-11211016D02*
X9610584Y-11077683D01*
X9610584Y-11096730D02*
X9620107Y-11087207D01*
X9620107Y-11087207D02*
X9639155Y-11077683D01*
X9639155Y-11077683D02*
X9667726Y-11077683D01*
X9667726Y-11077683D02*
X9686774Y-11087207D01*
X9686774Y-11087207D02*
X9696298Y-11106254D01*
X9696298Y-11106254D02*
X9696298Y-11211016D01*
X9696298Y-11106254D02*
X9705822Y-11087207D01*
X9705822Y-11087207D02*
X9724869Y-11077683D01*
X9724869Y-11077683D02*
X9753441Y-11077683D01*
X9753441Y-11077683D02*
X9772488Y-11087207D01*
X9772488Y-11087207D02*
X9782012Y-11106254D01*
X9782012Y-11106254D02*
X9782012Y-11211016D01*
X9877250Y-11211016D02*
X9877250Y-11077683D01*
X9877250Y-11096730D02*
X9886774Y-11087207D01*
X9886774Y-11087207D02*
X9905822Y-11077683D01*
X9905822Y-11077683D02*
X9934393Y-11077683D01*
X9934393Y-11077683D02*
X9953441Y-11087207D01*
X9953441Y-11087207D02*
X9962965Y-11106254D01*
X9962965Y-11106254D02*
X9962965Y-11211016D01*
X9962965Y-11106254D02*
X9972488Y-11087207D01*
X9972488Y-11087207D02*
X9991536Y-11077683D01*
X9991536Y-11077683D02*
X10020107Y-11077683D01*
X10020107Y-11077683D02*
X10039155Y-11087207D01*
X10039155Y-11087207D02*
X10048679Y-11106254D01*
X10048679Y-11106254D02*
X10048679Y-11211016D01*
X10439155Y-11001492D02*
X10267727Y-11258635D01*
X10696298Y-11011016D02*
X10715346Y-11011016D01*
X10715346Y-11011016D02*
X10734393Y-11020540D01*
X10734393Y-11020540D02*
X10743917Y-11030064D01*
X10743917Y-11030064D02*
X10753441Y-11049111D01*
X10753441Y-11049111D02*
X10762965Y-11087207D01*
X10762965Y-11087207D02*
X10762965Y-11134826D01*
X10762965Y-11134826D02*
X10753441Y-11172921D01*
X10753441Y-11172921D02*
X10743917Y-11191968D01*
X10743917Y-11191968D02*
X10734393Y-11201492D01*
X10734393Y-11201492D02*
X10715346Y-11211016D01*
X10715346Y-11211016D02*
X10696298Y-11211016D01*
X10696298Y-11211016D02*
X10677250Y-11201492D01*
X10677250Y-11201492D02*
X10667727Y-11191968D01*
X10667727Y-11191968D02*
X10658203Y-11172921D01*
X10658203Y-11172921D02*
X10648679Y-11134826D01*
X10648679Y-11134826D02*
X10648679Y-11087207D01*
X10648679Y-11087207D02*
X10658203Y-11049111D01*
X10658203Y-11049111D02*
X10667727Y-11030064D01*
X10667727Y-11030064D02*
X10677250Y-11020540D01*
X10677250Y-11020540D02*
X10696298Y-11011016D01*
X10848679Y-11191968D02*
X10858203Y-11201492D01*
X10858203Y-11201492D02*
X10848679Y-11211016D01*
X10848679Y-11211016D02*
X10839155Y-11201492D01*
X10839155Y-11201492D02*
X10848679Y-11191968D01*
X10848679Y-11191968D02*
X10848679Y-11211016D01*
X11048679Y-11211016D02*
X10934393Y-11211016D01*
X10991536Y-11211016D02*
X10991536Y-11011016D01*
X10991536Y-11011016D02*
X10972488Y-11039588D01*
X10972488Y-11039588D02*
X10953441Y-11058635D01*
X10953441Y-11058635D02*
X10934393Y-11068159D01*
X11239155Y-11211016D02*
X11124869Y-11211016D01*
X11182012Y-11211016D02*
X11182012Y-11011016D01*
X11182012Y-11011016D02*
X11162965Y-11039588D01*
X11162965Y-11039588D02*
X11143917Y-11058635D01*
X11143917Y-11058635D02*
X11124869Y-11068159D01*
X11353441Y-11096730D02*
X11334393Y-11087207D01*
X11334393Y-11087207D02*
X11324869Y-11077683D01*
X11324869Y-11077683D02*
X11315346Y-11058635D01*
X11315346Y-11058635D02*
X11315346Y-11049111D01*
X11315346Y-11049111D02*
X11324869Y-11030064D01*
X11324869Y-11030064D02*
X11334393Y-11020540D01*
X11334393Y-11020540D02*
X11353441Y-11011016D01*
X11353441Y-11011016D02*
X11391536Y-11011016D01*
X11391536Y-11011016D02*
X11410584Y-11020540D01*
X11410584Y-11020540D02*
X11420107Y-11030064D01*
X11420107Y-11030064D02*
X11429631Y-11049111D01*
X11429631Y-11049111D02*
X11429631Y-11058635D01*
X11429631Y-11058635D02*
X11420107Y-11077683D01*
X11420107Y-11077683D02*
X11410584Y-11087207D01*
X11410584Y-11087207D02*
X11391536Y-11096730D01*
X11391536Y-11096730D02*
X11353441Y-11096730D01*
X11353441Y-11096730D02*
X11334393Y-11106254D01*
X11334393Y-11106254D02*
X11324869Y-11115778D01*
X11324869Y-11115778D02*
X11315346Y-11134826D01*
X11315346Y-11134826D02*
X11315346Y-11172921D01*
X11315346Y-11172921D02*
X11324869Y-11191968D01*
X11324869Y-11191968D02*
X11334393Y-11201492D01*
X11334393Y-11201492D02*
X11353441Y-11211016D01*
X11353441Y-11211016D02*
X11391536Y-11211016D01*
X11391536Y-11211016D02*
X11410584Y-11201492D01*
X11410584Y-11201492D02*
X11420107Y-11191968D01*
X11420107Y-11191968D02*
X11429631Y-11172921D01*
X11429631Y-11172921D02*
X11429631Y-11134826D01*
X11429631Y-11134826D02*
X11420107Y-11115778D01*
X11420107Y-11115778D02*
X11410584Y-11106254D01*
X11410584Y-11106254D02*
X11391536Y-11096730D01*
X11620107Y-11211016D02*
X11505822Y-11211016D01*
X11562965Y-11211016D02*
X11562965Y-11011016D01*
X11562965Y-11011016D02*
X11543917Y-11039588D01*
X11543917Y-11039588D02*
X11524869Y-11058635D01*
X11524869Y-11058635D02*
X11505822Y-11068159D01*
X11696298Y-11011016D02*
X11696298Y-11049111D01*
X11772488Y-11011016D02*
X11772488Y-11049111D01*
X12067727Y-11287206D02*
X12058203Y-11277683D01*
X12058203Y-11277683D02*
X12039155Y-11249111D01*
X12039155Y-11249111D02*
X12029631Y-11230064D01*
X12029631Y-11230064D02*
X12020108Y-11201492D01*
X12020108Y-11201492D02*
X12010584Y-11153873D01*
X12010584Y-11153873D02*
X12010584Y-11115778D01*
X12010584Y-11115778D02*
X12020108Y-11068159D01*
X12020108Y-11068159D02*
X12029631Y-11039588D01*
X12029631Y-11039588D02*
X12039155Y-11020540D01*
X12039155Y-11020540D02*
X12058203Y-10991968D01*
X12058203Y-10991968D02*
X12067727Y-10982445D01*
X12229631Y-11077683D02*
X12229631Y-11211016D01*
X12182012Y-11001492D02*
X12134393Y-11144349D01*
X12134393Y-11144349D02*
X12258203Y-11144349D01*
X12486774Y-11211016D02*
X12486774Y-11011016D01*
X12572489Y-11211016D02*
X12572489Y-11106254D01*
X12572489Y-11106254D02*
X12562965Y-11087207D01*
X12562965Y-11087207D02*
X12543917Y-11077683D01*
X12543917Y-11077683D02*
X12515346Y-11077683D01*
X12515346Y-11077683D02*
X12496298Y-11087207D01*
X12496298Y-11087207D02*
X12486774Y-11096730D01*
X12696298Y-11211016D02*
X12677250Y-11201492D01*
X12677250Y-11201492D02*
X12667727Y-11191968D01*
X12667727Y-11191968D02*
X12658203Y-11172921D01*
X12658203Y-11172921D02*
X12658203Y-11115778D01*
X12658203Y-11115778D02*
X12667727Y-11096730D01*
X12667727Y-11096730D02*
X12677250Y-11087207D01*
X12677250Y-11087207D02*
X12696298Y-11077683D01*
X12696298Y-11077683D02*
X12724870Y-11077683D01*
X12724870Y-11077683D02*
X12743917Y-11087207D01*
X12743917Y-11087207D02*
X12753441Y-11096730D01*
X12753441Y-11096730D02*
X12762965Y-11115778D01*
X12762965Y-11115778D02*
X12762965Y-11172921D01*
X12762965Y-11172921D02*
X12753441Y-11191968D01*
X12753441Y-11191968D02*
X12743917Y-11201492D01*
X12743917Y-11201492D02*
X12724870Y-11211016D01*
X12724870Y-11211016D02*
X12696298Y-11211016D01*
X12877250Y-11211016D02*
X12858203Y-11201492D01*
X12858203Y-11201492D02*
X12848679Y-11182445D01*
X12848679Y-11182445D02*
X12848679Y-11011016D01*
X13029631Y-11201492D02*
X13010584Y-11211016D01*
X13010584Y-11211016D02*
X12972489Y-11211016D01*
X12972489Y-11211016D02*
X12953441Y-11201492D01*
X12953441Y-11201492D02*
X12943917Y-11182445D01*
X12943917Y-11182445D02*
X12943917Y-11106254D01*
X12943917Y-11106254D02*
X12953441Y-11087207D01*
X12953441Y-11087207D02*
X12972489Y-11077683D01*
X12972489Y-11077683D02*
X13010584Y-11077683D01*
X13010584Y-11077683D02*
X13029631Y-11087207D01*
X13029631Y-11087207D02*
X13039155Y-11106254D01*
X13039155Y-11106254D02*
X13039155Y-11125302D01*
X13039155Y-11125302D02*
X12943917Y-11144349D01*
X13115346Y-11201492D02*
X13134393Y-11211016D01*
X13134393Y-11211016D02*
X13172489Y-11211016D01*
X13172489Y-11211016D02*
X13191536Y-11201492D01*
X13191536Y-11201492D02*
X13201060Y-11182445D01*
X13201060Y-11182445D02*
X13201060Y-11172921D01*
X13201060Y-11172921D02*
X13191536Y-11153873D01*
X13191536Y-11153873D02*
X13172489Y-11144349D01*
X13172489Y-11144349D02*
X13143917Y-11144349D01*
X13143917Y-11144349D02*
X13124870Y-11134826D01*
X13124870Y-11134826D02*
X13115346Y-11115778D01*
X13115346Y-11115778D02*
X13115346Y-11106254D01*
X13115346Y-11106254D02*
X13124870Y-11087207D01*
X13124870Y-11087207D02*
X13143917Y-11077683D01*
X13143917Y-11077683D02*
X13172489Y-11077683D01*
X13172489Y-11077683D02*
X13191536Y-11087207D01*
X13267727Y-11287206D02*
X13277251Y-11277683D01*
X13277251Y-11277683D02*
X13296298Y-11249111D01*
X13296298Y-11249111D02*
X13305822Y-11230064D01*
X13305822Y-11230064D02*
X13315346Y-11201492D01*
X13315346Y-11201492D02*
X13324870Y-11153873D01*
X13324870Y-11153873D02*
X13324870Y-11115778D01*
X13324870Y-11115778D02*
X13315346Y-11068159D01*
X13315346Y-11068159D02*
X13305822Y-11039588D01*
X13305822Y-11039588D02*
X13296298Y-11020540D01*
X13296298Y-11020540D02*
X13277251Y-10991968D01*
X13277251Y-10991968D02*
X13267727Y-10982445D01*
X13629632Y-11287206D02*
X13620108Y-11277683D01*
X13620108Y-11277683D02*
X13601060Y-11249111D01*
X13601060Y-11249111D02*
X13591536Y-11230064D01*
X13591536Y-11230064D02*
X13582012Y-11201492D01*
X13582012Y-11201492D02*
X13572489Y-11153873D01*
X13572489Y-11153873D02*
X13572489Y-11115778D01*
X13572489Y-11115778D02*
X13582012Y-11068159D01*
X13582012Y-11068159D02*
X13591536Y-11039588D01*
X13591536Y-11039588D02*
X13601060Y-11020540D01*
X13601060Y-11020540D02*
X13620108Y-10991968D01*
X13620108Y-10991968D02*
X13629632Y-10982445D01*
X13705822Y-11077683D02*
X13705822Y-11211016D01*
X13705822Y-11096730D02*
X13715346Y-11087207D01*
X13715346Y-11087207D02*
X13734393Y-11077683D01*
X13734393Y-11077683D02*
X13762965Y-11077683D01*
X13762965Y-11077683D02*
X13782012Y-11087207D01*
X13782012Y-11087207D02*
X13791536Y-11106254D01*
X13791536Y-11106254D02*
X13791536Y-11211016D01*
X13915346Y-11211016D02*
X13896298Y-11201492D01*
X13896298Y-11201492D02*
X13886774Y-11191968D01*
X13886774Y-11191968D02*
X13877251Y-11172921D01*
X13877251Y-11172921D02*
X13877251Y-11115778D01*
X13877251Y-11115778D02*
X13886774Y-11096730D01*
X13886774Y-11096730D02*
X13896298Y-11087207D01*
X13896298Y-11087207D02*
X13915346Y-11077683D01*
X13915346Y-11077683D02*
X13943917Y-11077683D01*
X13943917Y-11077683D02*
X13962965Y-11087207D01*
X13962965Y-11087207D02*
X13972489Y-11096730D01*
X13972489Y-11096730D02*
X13982012Y-11115778D01*
X13982012Y-11115778D02*
X13982012Y-11172921D01*
X13982012Y-11172921D02*
X13972489Y-11191968D01*
X13972489Y-11191968D02*
X13962965Y-11201492D01*
X13962965Y-11201492D02*
X13943917Y-11211016D01*
X13943917Y-11211016D02*
X13915346Y-11211016D01*
X14039155Y-11077683D02*
X14115346Y-11077683D01*
X14067727Y-11011016D02*
X14067727Y-11182445D01*
X14067727Y-11182445D02*
X14077251Y-11201492D01*
X14077251Y-11201492D02*
X14096298Y-11211016D01*
X14096298Y-11211016D02*
X14115346Y-11211016D01*
X14334393Y-11077683D02*
X14334393Y-11277683D01*
X14334393Y-11087207D02*
X14353441Y-11077683D01*
X14353441Y-11077683D02*
X14391536Y-11077683D01*
X14391536Y-11077683D02*
X14410584Y-11087207D01*
X14410584Y-11087207D02*
X14420108Y-11096730D01*
X14420108Y-11096730D02*
X14429632Y-11115778D01*
X14429632Y-11115778D02*
X14429632Y-11172921D01*
X14429632Y-11172921D02*
X14420108Y-11191968D01*
X14420108Y-11191968D02*
X14410584Y-11201492D01*
X14410584Y-11201492D02*
X14391536Y-11211016D01*
X14391536Y-11211016D02*
X14353441Y-11211016D01*
X14353441Y-11211016D02*
X14334393Y-11201492D01*
X14543917Y-11211016D02*
X14524870Y-11201492D01*
X14524870Y-11201492D02*
X14515346Y-11182445D01*
X14515346Y-11182445D02*
X14515346Y-11011016D01*
X14705822Y-11211016D02*
X14705822Y-11106254D01*
X14705822Y-11106254D02*
X14696298Y-11087207D01*
X14696298Y-11087207D02*
X14677251Y-11077683D01*
X14677251Y-11077683D02*
X14639155Y-11077683D01*
X14639155Y-11077683D02*
X14620108Y-11087207D01*
X14705822Y-11201492D02*
X14686774Y-11211016D01*
X14686774Y-11211016D02*
X14639155Y-11211016D01*
X14639155Y-11211016D02*
X14620108Y-11201492D01*
X14620108Y-11201492D02*
X14610584Y-11182445D01*
X14610584Y-11182445D02*
X14610584Y-11163397D01*
X14610584Y-11163397D02*
X14620108Y-11144349D01*
X14620108Y-11144349D02*
X14639155Y-11134826D01*
X14639155Y-11134826D02*
X14686774Y-11134826D01*
X14686774Y-11134826D02*
X14705822Y-11125302D01*
X14772489Y-11077683D02*
X14848679Y-11077683D01*
X14801060Y-11011016D02*
X14801060Y-11182445D01*
X14801060Y-11182445D02*
X14810584Y-11201492D01*
X14810584Y-11201492D02*
X14829632Y-11211016D01*
X14829632Y-11211016D02*
X14848679Y-11211016D01*
X14991536Y-11201492D02*
X14972489Y-11211016D01*
X14972489Y-11211016D02*
X14934393Y-11211016D01*
X14934393Y-11211016D02*
X14915346Y-11201492D01*
X14915346Y-11201492D02*
X14905822Y-11182445D01*
X14905822Y-11182445D02*
X14905822Y-11106254D01*
X14905822Y-11106254D02*
X14915346Y-11087207D01*
X14915346Y-11087207D02*
X14934393Y-11077683D01*
X14934393Y-11077683D02*
X14972489Y-11077683D01*
X14972489Y-11077683D02*
X14991536Y-11087207D01*
X14991536Y-11087207D02*
X15001060Y-11106254D01*
X15001060Y-11106254D02*
X15001060Y-11125302D01*
X15001060Y-11125302D02*
X14905822Y-11144349D01*
X15172489Y-11211016D02*
X15172489Y-11011016D01*
X15172489Y-11201492D02*
X15153441Y-11211016D01*
X15153441Y-11211016D02*
X15115346Y-11211016D01*
X15115346Y-11211016D02*
X15096298Y-11201492D01*
X15096298Y-11201492D02*
X15086774Y-11191968D01*
X15086774Y-11191968D02*
X15077251Y-11172921D01*
X15077251Y-11172921D02*
X15077251Y-11115778D01*
X15077251Y-11115778D02*
X15086774Y-11096730D01*
X15086774Y-11096730D02*
X15096298Y-11087207D01*
X15096298Y-11087207D02*
X15115346Y-11077683D01*
X15115346Y-11077683D02*
X15153441Y-11077683D01*
X15153441Y-11077683D02*
X15172489Y-11087207D01*
X15248679Y-11287206D02*
X15258203Y-11277683D01*
X15258203Y-11277683D02*
X15277251Y-11249111D01*
X15277251Y-11249111D02*
X15286774Y-11230064D01*
X15286774Y-11230064D02*
X15296298Y-11201492D01*
X15296298Y-11201492D02*
X15305822Y-11153873D01*
X15305822Y-11153873D02*
X15305822Y-11115778D01*
X15305822Y-11115778D02*
X15296298Y-11068159D01*
X15296298Y-11068159D02*
X15286774Y-11039588D01*
X15286774Y-11039588D02*
X15277251Y-11020540D01*
X15277251Y-11020540D02*
X15258203Y-10991968D01*
X15258203Y-10991968D02*
X15248679Y-10982445D01*
X8492664Y-11439532D02*
G75*
G02*
X8292664Y-11439532I-100000J0D01*
G01*
X8292664Y-11439532D02*
G75*
G02*
X8492664Y-11439532I100000J0D01*
G01*
X8734393Y-11331016D02*
X8858203Y-11331016D01*
X8858203Y-11331016D02*
X8791536Y-11407206D01*
X8791536Y-11407206D02*
X8820107Y-11407206D01*
X8820107Y-11407206D02*
X8839155Y-11416730D01*
X8839155Y-11416730D02*
X8848679Y-11426254D01*
X8848679Y-11426254D02*
X8858203Y-11445302D01*
X8858203Y-11445302D02*
X8858203Y-11492921D01*
X8858203Y-11492921D02*
X8848679Y-11511968D01*
X8848679Y-11511968D02*
X8839155Y-11521492D01*
X8839155Y-11521492D02*
X8820107Y-11531016D01*
X8820107Y-11531016D02*
X8762964Y-11531016D01*
X8762964Y-11531016D02*
X8743917Y-11521492D01*
X8743917Y-11521492D02*
X8734393Y-11511968D01*
X8943917Y-11511968D02*
X8953441Y-11521492D01*
X8953441Y-11521492D02*
X8943917Y-11531016D01*
X8943917Y-11531016D02*
X8934393Y-11521492D01*
X8934393Y-11521492D02*
X8943917Y-11511968D01*
X8943917Y-11511968D02*
X8943917Y-11531016D01*
X9029631Y-11350064D02*
X9039155Y-11340540D01*
X9039155Y-11340540D02*
X9058203Y-11331016D01*
X9058203Y-11331016D02*
X9105822Y-11331016D01*
X9105822Y-11331016D02*
X9124869Y-11340540D01*
X9124869Y-11340540D02*
X9134393Y-11350064D01*
X9134393Y-11350064D02*
X9143917Y-11369111D01*
X9143917Y-11369111D02*
X9143917Y-11388159D01*
X9143917Y-11388159D02*
X9134393Y-11416730D01*
X9134393Y-11416730D02*
X9020107Y-11531016D01*
X9020107Y-11531016D02*
X9143917Y-11531016D01*
X9267726Y-11331016D02*
X9286774Y-11331016D01*
X9286774Y-11331016D02*
X9305822Y-11340540D01*
X9305822Y-11340540D02*
X9315345Y-11350064D01*
X9315345Y-11350064D02*
X9324869Y-11369111D01*
X9324869Y-11369111D02*
X9334393Y-11407206D01*
X9334393Y-11407206D02*
X9334393Y-11454826D01*
X9334393Y-11454826D02*
X9324869Y-11492921D01*
X9324869Y-11492921D02*
X9315345Y-11511968D01*
X9315345Y-11511968D02*
X9305822Y-11521492D01*
X9305822Y-11521492D02*
X9286774Y-11531016D01*
X9286774Y-11531016D02*
X9267726Y-11531016D01*
X9267726Y-11531016D02*
X9248679Y-11521492D01*
X9248679Y-11521492D02*
X9239155Y-11511968D01*
X9239155Y-11511968D02*
X9229631Y-11492921D01*
X9229631Y-11492921D02*
X9220107Y-11454826D01*
X9220107Y-11454826D02*
X9220107Y-11407206D01*
X9220107Y-11407206D02*
X9229631Y-11369111D01*
X9229631Y-11369111D02*
X9239155Y-11350064D01*
X9239155Y-11350064D02*
X9248679Y-11340540D01*
X9248679Y-11340540D02*
X9267726Y-11331016D01*
X9458203Y-11331016D02*
X9477250Y-11331016D01*
X9477250Y-11331016D02*
X9496298Y-11340540D01*
X9496298Y-11340540D02*
X9505822Y-11350064D01*
X9505822Y-11350064D02*
X9515345Y-11369111D01*
X9515345Y-11369111D02*
X9524869Y-11407206D01*
X9524869Y-11407206D02*
X9524869Y-11454826D01*
X9524869Y-11454826D02*
X9515345Y-11492921D01*
X9515345Y-11492921D02*
X9505822Y-11511968D01*
X9505822Y-11511968D02*
X9496298Y-11521492D01*
X9496298Y-11521492D02*
X9477250Y-11531016D01*
X9477250Y-11531016D02*
X9458203Y-11531016D01*
X9458203Y-11531016D02*
X9439155Y-11521492D01*
X9439155Y-11521492D02*
X9429631Y-11511968D01*
X9429631Y-11511968D02*
X9420107Y-11492921D01*
X9420107Y-11492921D02*
X9410584Y-11454826D01*
X9410584Y-11454826D02*
X9410584Y-11407206D01*
X9410584Y-11407206D02*
X9420107Y-11369111D01*
X9420107Y-11369111D02*
X9429631Y-11350064D01*
X9429631Y-11350064D02*
X9439155Y-11340540D01*
X9439155Y-11340540D02*
X9458203Y-11331016D01*
X9610584Y-11531016D02*
X9610584Y-11397683D01*
X9610584Y-11416730D02*
X9620107Y-11407206D01*
X9620107Y-11407206D02*
X9639155Y-11397683D01*
X9639155Y-11397683D02*
X9667726Y-11397683D01*
X9667726Y-11397683D02*
X9686774Y-11407206D01*
X9686774Y-11407206D02*
X9696298Y-11426254D01*
X9696298Y-11426254D02*
X9696298Y-11531016D01*
X9696298Y-11426254D02*
X9705822Y-11407206D01*
X9705822Y-11407206D02*
X9724869Y-11397683D01*
X9724869Y-11397683D02*
X9753441Y-11397683D01*
X9753441Y-11397683D02*
X9772488Y-11407206D01*
X9772488Y-11407206D02*
X9782012Y-11426254D01*
X9782012Y-11426254D02*
X9782012Y-11531016D01*
X9877250Y-11531016D02*
X9877250Y-11397683D01*
X9877250Y-11416730D02*
X9886774Y-11407206D01*
X9886774Y-11407206D02*
X9905822Y-11397683D01*
X9905822Y-11397683D02*
X9934393Y-11397683D01*
X9934393Y-11397683D02*
X9953441Y-11407206D01*
X9953441Y-11407206D02*
X9962965Y-11426254D01*
X9962965Y-11426254D02*
X9962965Y-11531016D01*
X9962965Y-11426254D02*
X9972488Y-11407206D01*
X9972488Y-11407206D02*
X9991536Y-11397683D01*
X9991536Y-11397683D02*
X10020107Y-11397683D01*
X10020107Y-11397683D02*
X10039155Y-11407206D01*
X10039155Y-11407206D02*
X10048679Y-11426254D01*
X10048679Y-11426254D02*
X10048679Y-11531016D01*
X10439155Y-11321492D02*
X10267727Y-11578635D01*
X10696298Y-11331016D02*
X10715346Y-11331016D01*
X10715346Y-11331016D02*
X10734393Y-11340540D01*
X10734393Y-11340540D02*
X10743917Y-11350064D01*
X10743917Y-11350064D02*
X10753441Y-11369111D01*
X10753441Y-11369111D02*
X10762965Y-11407206D01*
X10762965Y-11407206D02*
X10762965Y-11454826D01*
X10762965Y-11454826D02*
X10753441Y-11492921D01*
X10753441Y-11492921D02*
X10743917Y-11511968D01*
X10743917Y-11511968D02*
X10734393Y-11521492D01*
X10734393Y-11521492D02*
X10715346Y-11531016D01*
X10715346Y-11531016D02*
X10696298Y-11531016D01*
X10696298Y-11531016D02*
X10677250Y-11521492D01*
X10677250Y-11521492D02*
X10667727Y-11511968D01*
X10667727Y-11511968D02*
X10658203Y-11492921D01*
X10658203Y-11492921D02*
X10648679Y-11454826D01*
X10648679Y-11454826D02*
X10648679Y-11407206D01*
X10648679Y-11407206D02*
X10658203Y-11369111D01*
X10658203Y-11369111D02*
X10667727Y-11350064D01*
X10667727Y-11350064D02*
X10677250Y-11340540D01*
X10677250Y-11340540D02*
X10696298Y-11331016D01*
X10848679Y-11511968D02*
X10858203Y-11521492D01*
X10858203Y-11521492D02*
X10848679Y-11531016D01*
X10848679Y-11531016D02*
X10839155Y-11521492D01*
X10839155Y-11521492D02*
X10848679Y-11511968D01*
X10848679Y-11511968D02*
X10848679Y-11531016D01*
X11048679Y-11531016D02*
X10934393Y-11531016D01*
X10991536Y-11531016D02*
X10991536Y-11331016D01*
X10991536Y-11331016D02*
X10972488Y-11359587D01*
X10972488Y-11359587D02*
X10953441Y-11378635D01*
X10953441Y-11378635D02*
X10934393Y-11388159D01*
X11124869Y-11350064D02*
X11134393Y-11340540D01*
X11134393Y-11340540D02*
X11153441Y-11331016D01*
X11153441Y-11331016D02*
X11201060Y-11331016D01*
X11201060Y-11331016D02*
X11220107Y-11340540D01*
X11220107Y-11340540D02*
X11229631Y-11350064D01*
X11229631Y-11350064D02*
X11239155Y-11369111D01*
X11239155Y-11369111D02*
X11239155Y-11388159D01*
X11239155Y-11388159D02*
X11229631Y-11416730D01*
X11229631Y-11416730D02*
X11115346Y-11531016D01*
X11115346Y-11531016D02*
X11239155Y-11531016D01*
X11410584Y-11331016D02*
X11372488Y-11331016D01*
X11372488Y-11331016D02*
X11353441Y-11340540D01*
X11353441Y-11340540D02*
X11343917Y-11350064D01*
X11343917Y-11350064D02*
X11324869Y-11378635D01*
X11324869Y-11378635D02*
X11315346Y-11416730D01*
X11315346Y-11416730D02*
X11315346Y-11492921D01*
X11315346Y-11492921D02*
X11324869Y-11511968D01*
X11324869Y-11511968D02*
X11334393Y-11521492D01*
X11334393Y-11521492D02*
X11353441Y-11531016D01*
X11353441Y-11531016D02*
X11391536Y-11531016D01*
X11391536Y-11531016D02*
X11410584Y-11521492D01*
X11410584Y-11521492D02*
X11420107Y-11511968D01*
X11420107Y-11511968D02*
X11429631Y-11492921D01*
X11429631Y-11492921D02*
X11429631Y-11445302D01*
X11429631Y-11445302D02*
X11420107Y-11426254D01*
X11420107Y-11426254D02*
X11410584Y-11416730D01*
X11410584Y-11416730D02*
X11391536Y-11407206D01*
X11391536Y-11407206D02*
X11353441Y-11407206D01*
X11353441Y-11407206D02*
X11334393Y-11416730D01*
X11334393Y-11416730D02*
X11324869Y-11426254D01*
X11324869Y-11426254D02*
X11315346Y-11445302D01*
X11553441Y-11331016D02*
X11572488Y-11331016D01*
X11572488Y-11331016D02*
X11591536Y-11340540D01*
X11591536Y-11340540D02*
X11601060Y-11350064D01*
X11601060Y-11350064D02*
X11610584Y-11369111D01*
X11610584Y-11369111D02*
X11620107Y-11407206D01*
X11620107Y-11407206D02*
X11620107Y-11454826D01*
X11620107Y-11454826D02*
X11610584Y-11492921D01*
X11610584Y-11492921D02*
X11601060Y-11511968D01*
X11601060Y-11511968D02*
X11591536Y-11521492D01*
X11591536Y-11521492D02*
X11572488Y-11531016D01*
X11572488Y-11531016D02*
X11553441Y-11531016D01*
X11553441Y-11531016D02*
X11534393Y-11521492D01*
X11534393Y-11521492D02*
X11524869Y-11511968D01*
X11524869Y-11511968D02*
X11515346Y-11492921D01*
X11515346Y-11492921D02*
X11505822Y-11454826D01*
X11505822Y-11454826D02*
X11505822Y-11407206D01*
X11505822Y-11407206D02*
X11515346Y-11369111D01*
X11515346Y-11369111D02*
X11524869Y-11350064D01*
X11524869Y-11350064D02*
X11534393Y-11340540D01*
X11534393Y-11340540D02*
X11553441Y-11331016D01*
X11696298Y-11331016D02*
X11696298Y-11369111D01*
X11772488Y-11331016D02*
X11772488Y-11369111D01*
X12067727Y-11607206D02*
X12058203Y-11597683D01*
X12058203Y-11597683D02*
X12039155Y-11569111D01*
X12039155Y-11569111D02*
X12029631Y-11550064D01*
X12029631Y-11550064D02*
X12020108Y-11521492D01*
X12020108Y-11521492D02*
X12010584Y-11473873D01*
X12010584Y-11473873D02*
X12010584Y-11435778D01*
X12010584Y-11435778D02*
X12020108Y-11388159D01*
X12020108Y-11388159D02*
X12029631Y-11359587D01*
X12029631Y-11359587D02*
X12039155Y-11340540D01*
X12039155Y-11340540D02*
X12058203Y-11311968D01*
X12058203Y-11311968D02*
X12067727Y-11302445D01*
X12229631Y-11397683D02*
X12229631Y-11531016D01*
X12182012Y-11321492D02*
X12134393Y-11464349D01*
X12134393Y-11464349D02*
X12258203Y-11464349D01*
X12486774Y-11531016D02*
X12486774Y-11331016D01*
X12572489Y-11531016D02*
X12572489Y-11426254D01*
X12572489Y-11426254D02*
X12562965Y-11407206D01*
X12562965Y-11407206D02*
X12543917Y-11397683D01*
X12543917Y-11397683D02*
X12515346Y-11397683D01*
X12515346Y-11397683D02*
X12496298Y-11407206D01*
X12496298Y-11407206D02*
X12486774Y-11416730D01*
X12696298Y-11531016D02*
X12677250Y-11521492D01*
X12677250Y-11521492D02*
X12667727Y-11511968D01*
X12667727Y-11511968D02*
X12658203Y-11492921D01*
X12658203Y-11492921D02*
X12658203Y-11435778D01*
X12658203Y-11435778D02*
X12667727Y-11416730D01*
X12667727Y-11416730D02*
X12677250Y-11407206D01*
X12677250Y-11407206D02*
X12696298Y-11397683D01*
X12696298Y-11397683D02*
X12724870Y-11397683D01*
X12724870Y-11397683D02*
X12743917Y-11407206D01*
X12743917Y-11407206D02*
X12753441Y-11416730D01*
X12753441Y-11416730D02*
X12762965Y-11435778D01*
X12762965Y-11435778D02*
X12762965Y-11492921D01*
X12762965Y-11492921D02*
X12753441Y-11511968D01*
X12753441Y-11511968D02*
X12743917Y-11521492D01*
X12743917Y-11521492D02*
X12724870Y-11531016D01*
X12724870Y-11531016D02*
X12696298Y-11531016D01*
X12877250Y-11531016D02*
X12858203Y-11521492D01*
X12858203Y-11521492D02*
X12848679Y-11502445D01*
X12848679Y-11502445D02*
X12848679Y-11331016D01*
X13029631Y-11521492D02*
X13010584Y-11531016D01*
X13010584Y-11531016D02*
X12972489Y-11531016D01*
X12972489Y-11531016D02*
X12953441Y-11521492D01*
X12953441Y-11521492D02*
X12943917Y-11502445D01*
X12943917Y-11502445D02*
X12943917Y-11426254D01*
X12943917Y-11426254D02*
X12953441Y-11407206D01*
X12953441Y-11407206D02*
X12972489Y-11397683D01*
X12972489Y-11397683D02*
X13010584Y-11397683D01*
X13010584Y-11397683D02*
X13029631Y-11407206D01*
X13029631Y-11407206D02*
X13039155Y-11426254D01*
X13039155Y-11426254D02*
X13039155Y-11445302D01*
X13039155Y-11445302D02*
X12943917Y-11464349D01*
X13115346Y-11521492D02*
X13134393Y-11531016D01*
X13134393Y-11531016D02*
X13172489Y-11531016D01*
X13172489Y-11531016D02*
X13191536Y-11521492D01*
X13191536Y-11521492D02*
X13201060Y-11502445D01*
X13201060Y-11502445D02*
X13201060Y-11492921D01*
X13201060Y-11492921D02*
X13191536Y-11473873D01*
X13191536Y-11473873D02*
X13172489Y-11464349D01*
X13172489Y-11464349D02*
X13143917Y-11464349D01*
X13143917Y-11464349D02*
X13124870Y-11454826D01*
X13124870Y-11454826D02*
X13115346Y-11435778D01*
X13115346Y-11435778D02*
X13115346Y-11426254D01*
X13115346Y-11426254D02*
X13124870Y-11407206D01*
X13124870Y-11407206D02*
X13143917Y-11397683D01*
X13143917Y-11397683D02*
X13172489Y-11397683D01*
X13172489Y-11397683D02*
X13191536Y-11407206D01*
X13267727Y-11607206D02*
X13277251Y-11597683D01*
X13277251Y-11597683D02*
X13296298Y-11569111D01*
X13296298Y-11569111D02*
X13305822Y-11550064D01*
X13305822Y-11550064D02*
X13315346Y-11521492D01*
X13315346Y-11521492D02*
X13324870Y-11473873D01*
X13324870Y-11473873D02*
X13324870Y-11435778D01*
X13324870Y-11435778D02*
X13315346Y-11388159D01*
X13315346Y-11388159D02*
X13305822Y-11359587D01*
X13305822Y-11359587D02*
X13296298Y-11340540D01*
X13296298Y-11340540D02*
X13277251Y-11311968D01*
X13277251Y-11311968D02*
X13267727Y-11302445D01*
X13629632Y-11607206D02*
X13620108Y-11597683D01*
X13620108Y-11597683D02*
X13601060Y-11569111D01*
X13601060Y-11569111D02*
X13591536Y-11550064D01*
X13591536Y-11550064D02*
X13582012Y-11521492D01*
X13582012Y-11521492D02*
X13572489Y-11473873D01*
X13572489Y-11473873D02*
X13572489Y-11435778D01*
X13572489Y-11435778D02*
X13582012Y-11388159D01*
X13582012Y-11388159D02*
X13591536Y-11359587D01*
X13591536Y-11359587D02*
X13601060Y-11340540D01*
X13601060Y-11340540D02*
X13620108Y-11311968D01*
X13620108Y-11311968D02*
X13629632Y-11302445D01*
X13705822Y-11397683D02*
X13705822Y-11531016D01*
X13705822Y-11416730D02*
X13715346Y-11407206D01*
X13715346Y-11407206D02*
X13734393Y-11397683D01*
X13734393Y-11397683D02*
X13762965Y-11397683D01*
X13762965Y-11397683D02*
X13782012Y-11407206D01*
X13782012Y-11407206D02*
X13791536Y-11426254D01*
X13791536Y-11426254D02*
X13791536Y-11531016D01*
X13915346Y-11531016D02*
X13896298Y-11521492D01*
X13896298Y-11521492D02*
X13886774Y-11511968D01*
X13886774Y-11511968D02*
X13877251Y-11492921D01*
X13877251Y-11492921D02*
X13877251Y-11435778D01*
X13877251Y-11435778D02*
X13886774Y-11416730D01*
X13886774Y-11416730D02*
X13896298Y-11407206D01*
X13896298Y-11407206D02*
X13915346Y-11397683D01*
X13915346Y-11397683D02*
X13943917Y-11397683D01*
X13943917Y-11397683D02*
X13962965Y-11407206D01*
X13962965Y-11407206D02*
X13972489Y-11416730D01*
X13972489Y-11416730D02*
X13982012Y-11435778D01*
X13982012Y-11435778D02*
X13982012Y-11492921D01*
X13982012Y-11492921D02*
X13972489Y-11511968D01*
X13972489Y-11511968D02*
X13962965Y-11521492D01*
X13962965Y-11521492D02*
X13943917Y-11531016D01*
X13943917Y-11531016D02*
X13915346Y-11531016D01*
X14039155Y-11397683D02*
X14115346Y-11397683D01*
X14067727Y-11331016D02*
X14067727Y-11502445D01*
X14067727Y-11502445D02*
X14077251Y-11521492D01*
X14077251Y-11521492D02*
X14096298Y-11531016D01*
X14096298Y-11531016D02*
X14115346Y-11531016D01*
X14334393Y-11397683D02*
X14334393Y-11597683D01*
X14334393Y-11407206D02*
X14353441Y-11397683D01*
X14353441Y-11397683D02*
X14391536Y-11397683D01*
X14391536Y-11397683D02*
X14410584Y-11407206D01*
X14410584Y-11407206D02*
X14420108Y-11416730D01*
X14420108Y-11416730D02*
X14429632Y-11435778D01*
X14429632Y-11435778D02*
X14429632Y-11492921D01*
X14429632Y-11492921D02*
X14420108Y-11511968D01*
X14420108Y-11511968D02*
X14410584Y-11521492D01*
X14410584Y-11521492D02*
X14391536Y-11531016D01*
X14391536Y-11531016D02*
X14353441Y-11531016D01*
X14353441Y-11531016D02*
X14334393Y-11521492D01*
X14543917Y-11531016D02*
X14524870Y-11521492D01*
X14524870Y-11521492D02*
X14515346Y-11502445D01*
X14515346Y-11502445D02*
X14515346Y-11331016D01*
X14705822Y-11531016D02*
X14705822Y-11426254D01*
X14705822Y-11426254D02*
X14696298Y-11407206D01*
X14696298Y-11407206D02*
X14677251Y-11397683D01*
X14677251Y-11397683D02*
X14639155Y-11397683D01*
X14639155Y-11397683D02*
X14620108Y-11407206D01*
X14705822Y-11521492D02*
X14686774Y-11531016D01*
X14686774Y-11531016D02*
X14639155Y-11531016D01*
X14639155Y-11531016D02*
X14620108Y-11521492D01*
X14620108Y-11521492D02*
X14610584Y-11502445D01*
X14610584Y-11502445D02*
X14610584Y-11483397D01*
X14610584Y-11483397D02*
X14620108Y-11464349D01*
X14620108Y-11464349D02*
X14639155Y-11454826D01*
X14639155Y-11454826D02*
X14686774Y-11454826D01*
X14686774Y-11454826D02*
X14705822Y-11445302D01*
X14772489Y-11397683D02*
X14848679Y-11397683D01*
X14801060Y-11331016D02*
X14801060Y-11502445D01*
X14801060Y-11502445D02*
X14810584Y-11521492D01*
X14810584Y-11521492D02*
X14829632Y-11531016D01*
X14829632Y-11531016D02*
X14848679Y-11531016D01*
X14991536Y-11521492D02*
X14972489Y-11531016D01*
X14972489Y-11531016D02*
X14934393Y-11531016D01*
X14934393Y-11531016D02*
X14915346Y-11521492D01*
X14915346Y-11521492D02*
X14905822Y-11502445D01*
X14905822Y-11502445D02*
X14905822Y-11426254D01*
X14905822Y-11426254D02*
X14915346Y-11407206D01*
X14915346Y-11407206D02*
X14934393Y-11397683D01*
X14934393Y-11397683D02*
X14972489Y-11397683D01*
X14972489Y-11397683D02*
X14991536Y-11407206D01*
X14991536Y-11407206D02*
X15001060Y-11426254D01*
X15001060Y-11426254D02*
X15001060Y-11445302D01*
X15001060Y-11445302D02*
X14905822Y-11464349D01*
X15172489Y-11531016D02*
X15172489Y-11331016D01*
X15172489Y-11521492D02*
X15153441Y-11531016D01*
X15153441Y-11531016D02*
X15115346Y-11531016D01*
X15115346Y-11531016D02*
X15096298Y-11521492D01*
X15096298Y-11521492D02*
X15086774Y-11511968D01*
X15086774Y-11511968D02*
X15077251Y-11492921D01*
X15077251Y-11492921D02*
X15077251Y-11435778D01*
X15077251Y-11435778D02*
X15086774Y-11416730D01*
X15086774Y-11416730D02*
X15096298Y-11407206D01*
X15096298Y-11407206D02*
X15115346Y-11397683D01*
X15115346Y-11397683D02*
X15153441Y-11397683D01*
X15153441Y-11397683D02*
X15172489Y-11407206D01*
X15248679Y-11607206D02*
X15258203Y-11597683D01*
X15258203Y-11597683D02*
X15277251Y-11569111D01*
X15277251Y-11569111D02*
X15286774Y-11550064D01*
X15286774Y-11550064D02*
X15296298Y-11521492D01*
X15296298Y-11521492D02*
X15305822Y-11473873D01*
X15305822Y-11473873D02*
X15305822Y-11435778D01*
X15305822Y-11435778D02*
X15296298Y-11388159D01*
X15296298Y-11388159D02*
X15286774Y-11359587D01*
X15286774Y-11359587D02*
X15277251Y-11340540D01*
X15277251Y-11340540D02*
X15258203Y-11311968D01*
X15258203Y-11311968D02*
X15248679Y-11302445D01*
X8392664Y-11659532D02*
X8392664Y-11859532D01*
X8292664Y-11759532D02*
X8492664Y-11759532D01*
X8734393Y-11651016D02*
X8858203Y-11651016D01*
X8858203Y-11651016D02*
X8791536Y-11727206D01*
X8791536Y-11727206D02*
X8820107Y-11727206D01*
X8820107Y-11727206D02*
X8839155Y-11736730D01*
X8839155Y-11736730D02*
X8848679Y-11746254D01*
X8848679Y-11746254D02*
X8858203Y-11765302D01*
X8858203Y-11765302D02*
X8858203Y-11812921D01*
X8858203Y-11812921D02*
X8848679Y-11831968D01*
X8848679Y-11831968D02*
X8839155Y-11841492D01*
X8839155Y-11841492D02*
X8820107Y-11851016D01*
X8820107Y-11851016D02*
X8762964Y-11851016D01*
X8762964Y-11851016D02*
X8743917Y-11841492D01*
X8743917Y-11841492D02*
X8734393Y-11831968D01*
X8943917Y-11831968D02*
X8953441Y-11841492D01*
X8953441Y-11841492D02*
X8943917Y-11851016D01*
X8943917Y-11851016D02*
X8934393Y-11841492D01*
X8934393Y-11841492D02*
X8943917Y-11831968D01*
X8943917Y-11831968D02*
X8943917Y-11851016D01*
X9124869Y-11717683D02*
X9124869Y-11851016D01*
X9077250Y-11641492D02*
X9029631Y-11784349D01*
X9029631Y-11784349D02*
X9153441Y-11784349D01*
X9267726Y-11651016D02*
X9286774Y-11651016D01*
X9286774Y-11651016D02*
X9305822Y-11660540D01*
X9305822Y-11660540D02*
X9315345Y-11670064D01*
X9315345Y-11670064D02*
X9324869Y-11689111D01*
X9324869Y-11689111D02*
X9334393Y-11727206D01*
X9334393Y-11727206D02*
X9334393Y-11774826D01*
X9334393Y-11774826D02*
X9324869Y-11812921D01*
X9324869Y-11812921D02*
X9315345Y-11831968D01*
X9315345Y-11831968D02*
X9305822Y-11841492D01*
X9305822Y-11841492D02*
X9286774Y-11851016D01*
X9286774Y-11851016D02*
X9267726Y-11851016D01*
X9267726Y-11851016D02*
X9248679Y-11841492D01*
X9248679Y-11841492D02*
X9239155Y-11831968D01*
X9239155Y-11831968D02*
X9229631Y-11812921D01*
X9229631Y-11812921D02*
X9220107Y-11774826D01*
X9220107Y-11774826D02*
X9220107Y-11727206D01*
X9220107Y-11727206D02*
X9229631Y-11689111D01*
X9229631Y-11689111D02*
X9239155Y-11670064D01*
X9239155Y-11670064D02*
X9248679Y-11660540D01*
X9248679Y-11660540D02*
X9267726Y-11651016D01*
X9458203Y-11651016D02*
X9477250Y-11651016D01*
X9477250Y-11651016D02*
X9496298Y-11660540D01*
X9496298Y-11660540D02*
X9505822Y-11670064D01*
X9505822Y-11670064D02*
X9515345Y-11689111D01*
X9515345Y-11689111D02*
X9524869Y-11727206D01*
X9524869Y-11727206D02*
X9524869Y-11774826D01*
X9524869Y-11774826D02*
X9515345Y-11812921D01*
X9515345Y-11812921D02*
X9505822Y-11831968D01*
X9505822Y-11831968D02*
X9496298Y-11841492D01*
X9496298Y-11841492D02*
X9477250Y-11851016D01*
X9477250Y-11851016D02*
X9458203Y-11851016D01*
X9458203Y-11851016D02*
X9439155Y-11841492D01*
X9439155Y-11841492D02*
X9429631Y-11831968D01*
X9429631Y-11831968D02*
X9420107Y-11812921D01*
X9420107Y-11812921D02*
X9410584Y-11774826D01*
X9410584Y-11774826D02*
X9410584Y-11727206D01*
X9410584Y-11727206D02*
X9420107Y-11689111D01*
X9420107Y-11689111D02*
X9429631Y-11670064D01*
X9429631Y-11670064D02*
X9439155Y-11660540D01*
X9439155Y-11660540D02*
X9458203Y-11651016D01*
X9610584Y-11851016D02*
X9610584Y-11717683D01*
X9610584Y-11736730D02*
X9620107Y-11727206D01*
X9620107Y-11727206D02*
X9639155Y-11717683D01*
X9639155Y-11717683D02*
X9667726Y-11717683D01*
X9667726Y-11717683D02*
X9686774Y-11727206D01*
X9686774Y-11727206D02*
X9696298Y-11746254D01*
X9696298Y-11746254D02*
X9696298Y-11851016D01*
X9696298Y-11746254D02*
X9705822Y-11727206D01*
X9705822Y-11727206D02*
X9724869Y-11717683D01*
X9724869Y-11717683D02*
X9753441Y-11717683D01*
X9753441Y-11717683D02*
X9772488Y-11727206D01*
X9772488Y-11727206D02*
X9782012Y-11746254D01*
X9782012Y-11746254D02*
X9782012Y-11851016D01*
X9877250Y-11851016D02*
X9877250Y-11717683D01*
X9877250Y-11736730D02*
X9886774Y-11727206D01*
X9886774Y-11727206D02*
X9905822Y-11717683D01*
X9905822Y-11717683D02*
X9934393Y-11717683D01*
X9934393Y-11717683D02*
X9953441Y-11727206D01*
X9953441Y-11727206D02*
X9962965Y-11746254D01*
X9962965Y-11746254D02*
X9962965Y-11851016D01*
X9962965Y-11746254D02*
X9972488Y-11727206D01*
X9972488Y-11727206D02*
X9991536Y-11717683D01*
X9991536Y-11717683D02*
X10020107Y-11717683D01*
X10020107Y-11717683D02*
X10039155Y-11727206D01*
X10039155Y-11727206D02*
X10048679Y-11746254D01*
X10048679Y-11746254D02*
X10048679Y-11851016D01*
X10439155Y-11641492D02*
X10267727Y-11898635D01*
X10696298Y-11651016D02*
X10715346Y-11651016D01*
X10715346Y-11651016D02*
X10734393Y-11660540D01*
X10734393Y-11660540D02*
X10743917Y-11670064D01*
X10743917Y-11670064D02*
X10753441Y-11689111D01*
X10753441Y-11689111D02*
X10762965Y-11727206D01*
X10762965Y-11727206D02*
X10762965Y-11774826D01*
X10762965Y-11774826D02*
X10753441Y-11812921D01*
X10753441Y-11812921D02*
X10743917Y-11831968D01*
X10743917Y-11831968D02*
X10734393Y-11841492D01*
X10734393Y-11841492D02*
X10715346Y-11851016D01*
X10715346Y-11851016D02*
X10696298Y-11851016D01*
X10696298Y-11851016D02*
X10677250Y-11841492D01*
X10677250Y-11841492D02*
X10667727Y-11831968D01*
X10667727Y-11831968D02*
X10658203Y-11812921D01*
X10658203Y-11812921D02*
X10648679Y-11774826D01*
X10648679Y-11774826D02*
X10648679Y-11727206D01*
X10648679Y-11727206D02*
X10658203Y-11689111D01*
X10658203Y-11689111D02*
X10667727Y-11670064D01*
X10667727Y-11670064D02*
X10677250Y-11660540D01*
X10677250Y-11660540D02*
X10696298Y-11651016D01*
X10848679Y-11831968D02*
X10858203Y-11841492D01*
X10858203Y-11841492D02*
X10848679Y-11851016D01*
X10848679Y-11851016D02*
X10839155Y-11841492D01*
X10839155Y-11841492D02*
X10848679Y-11831968D01*
X10848679Y-11831968D02*
X10848679Y-11851016D01*
X11048679Y-11851016D02*
X10934393Y-11851016D01*
X10991536Y-11851016D02*
X10991536Y-11651016D01*
X10991536Y-11651016D02*
X10972488Y-11679587D01*
X10972488Y-11679587D02*
X10953441Y-11698635D01*
X10953441Y-11698635D02*
X10934393Y-11708159D01*
X11115346Y-11651016D02*
X11239155Y-11651016D01*
X11239155Y-11651016D02*
X11172488Y-11727206D01*
X11172488Y-11727206D02*
X11201060Y-11727206D01*
X11201060Y-11727206D02*
X11220107Y-11736730D01*
X11220107Y-11736730D02*
X11229631Y-11746254D01*
X11229631Y-11746254D02*
X11239155Y-11765302D01*
X11239155Y-11765302D02*
X11239155Y-11812921D01*
X11239155Y-11812921D02*
X11229631Y-11831968D01*
X11229631Y-11831968D02*
X11220107Y-11841492D01*
X11220107Y-11841492D02*
X11201060Y-11851016D01*
X11201060Y-11851016D02*
X11143917Y-11851016D01*
X11143917Y-11851016D02*
X11124869Y-11841492D01*
X11124869Y-11841492D02*
X11115346Y-11831968D01*
X11305822Y-11651016D02*
X11429631Y-11651016D01*
X11429631Y-11651016D02*
X11362965Y-11727206D01*
X11362965Y-11727206D02*
X11391536Y-11727206D01*
X11391536Y-11727206D02*
X11410584Y-11736730D01*
X11410584Y-11736730D02*
X11420107Y-11746254D01*
X11420107Y-11746254D02*
X11429631Y-11765302D01*
X11429631Y-11765302D02*
X11429631Y-11812921D01*
X11429631Y-11812921D02*
X11420107Y-11831968D01*
X11420107Y-11831968D02*
X11410584Y-11841492D01*
X11410584Y-11841492D02*
X11391536Y-11851016D01*
X11391536Y-11851016D02*
X11334393Y-11851016D01*
X11334393Y-11851016D02*
X11315346Y-11841492D01*
X11315346Y-11841492D02*
X11305822Y-11831968D01*
X11524869Y-11851016D02*
X11562965Y-11851016D01*
X11562965Y-11851016D02*
X11582012Y-11841492D01*
X11582012Y-11841492D02*
X11591536Y-11831968D01*
X11591536Y-11831968D02*
X11610584Y-11803397D01*
X11610584Y-11803397D02*
X11620107Y-11765302D01*
X11620107Y-11765302D02*
X11620107Y-11689111D01*
X11620107Y-11689111D02*
X11610584Y-11670064D01*
X11610584Y-11670064D02*
X11601060Y-11660540D01*
X11601060Y-11660540D02*
X11582012Y-11651016D01*
X11582012Y-11651016D02*
X11543917Y-11651016D01*
X11543917Y-11651016D02*
X11524869Y-11660540D01*
X11524869Y-11660540D02*
X11515346Y-11670064D01*
X11515346Y-11670064D02*
X11505822Y-11689111D01*
X11505822Y-11689111D02*
X11505822Y-11736730D01*
X11505822Y-11736730D02*
X11515346Y-11755778D01*
X11515346Y-11755778D02*
X11524869Y-11765302D01*
X11524869Y-11765302D02*
X11543917Y-11774826D01*
X11543917Y-11774826D02*
X11582012Y-11774826D01*
X11582012Y-11774826D02*
X11601060Y-11765302D01*
X11601060Y-11765302D02*
X11610584Y-11755778D01*
X11610584Y-11755778D02*
X11620107Y-11736730D01*
X11696298Y-11651016D02*
X11696298Y-11689111D01*
X11772488Y-11651016D02*
X11772488Y-11689111D01*
X12067727Y-11927206D02*
X12058203Y-11917683D01*
X12058203Y-11917683D02*
X12039155Y-11889111D01*
X12039155Y-11889111D02*
X12029631Y-11870064D01*
X12029631Y-11870064D02*
X12020108Y-11841492D01*
X12020108Y-11841492D02*
X12010584Y-11793873D01*
X12010584Y-11793873D02*
X12010584Y-11755778D01*
X12010584Y-11755778D02*
X12020108Y-11708159D01*
X12020108Y-11708159D02*
X12029631Y-11679587D01*
X12029631Y-11679587D02*
X12039155Y-11660540D01*
X12039155Y-11660540D02*
X12058203Y-11631968D01*
X12058203Y-11631968D02*
X12067727Y-11622445D01*
X12248679Y-11851016D02*
X12134393Y-11851016D01*
X12191536Y-11851016D02*
X12191536Y-11651016D01*
X12191536Y-11651016D02*
X12172488Y-11679587D01*
X12172488Y-11679587D02*
X12153441Y-11698635D01*
X12153441Y-11698635D02*
X12134393Y-11708159D01*
X12372488Y-11651016D02*
X12391536Y-11651016D01*
X12391536Y-11651016D02*
X12410584Y-11660540D01*
X12410584Y-11660540D02*
X12420108Y-11670064D01*
X12420108Y-11670064D02*
X12429631Y-11689111D01*
X12429631Y-11689111D02*
X12439155Y-11727206D01*
X12439155Y-11727206D02*
X12439155Y-11774826D01*
X12439155Y-11774826D02*
X12429631Y-11812921D01*
X12429631Y-11812921D02*
X12420108Y-11831968D01*
X12420108Y-11831968D02*
X12410584Y-11841492D01*
X12410584Y-11841492D02*
X12391536Y-11851016D01*
X12391536Y-11851016D02*
X12372488Y-11851016D01*
X12372488Y-11851016D02*
X12353441Y-11841492D01*
X12353441Y-11841492D02*
X12343917Y-11831968D01*
X12343917Y-11831968D02*
X12334393Y-11812921D01*
X12334393Y-11812921D02*
X12324869Y-11774826D01*
X12324869Y-11774826D02*
X12324869Y-11727206D01*
X12324869Y-11727206D02*
X12334393Y-11689111D01*
X12334393Y-11689111D02*
X12343917Y-11670064D01*
X12343917Y-11670064D02*
X12353441Y-11660540D01*
X12353441Y-11660540D02*
X12372488Y-11651016D01*
X12677250Y-11851016D02*
X12677250Y-11651016D01*
X12762965Y-11851016D02*
X12762965Y-11746254D01*
X12762965Y-11746254D02*
X12753441Y-11727206D01*
X12753441Y-11727206D02*
X12734393Y-11717683D01*
X12734393Y-11717683D02*
X12705822Y-11717683D01*
X12705822Y-11717683D02*
X12686774Y-11727206D01*
X12686774Y-11727206D02*
X12677250Y-11736730D01*
X12886774Y-11851016D02*
X12867727Y-11841492D01*
X12867727Y-11841492D02*
X12858203Y-11831968D01*
X12858203Y-11831968D02*
X12848679Y-11812921D01*
X12848679Y-11812921D02*
X12848679Y-11755778D01*
X12848679Y-11755778D02*
X12858203Y-11736730D01*
X12858203Y-11736730D02*
X12867727Y-11727206D01*
X12867727Y-11727206D02*
X12886774Y-11717683D01*
X12886774Y-11717683D02*
X12915346Y-11717683D01*
X12915346Y-11717683D02*
X12934393Y-11727206D01*
X12934393Y-11727206D02*
X12943917Y-11736730D01*
X12943917Y-11736730D02*
X12953441Y-11755778D01*
X12953441Y-11755778D02*
X12953441Y-11812921D01*
X12953441Y-11812921D02*
X12943917Y-11831968D01*
X12943917Y-11831968D02*
X12934393Y-11841492D01*
X12934393Y-11841492D02*
X12915346Y-11851016D01*
X12915346Y-11851016D02*
X12886774Y-11851016D01*
X13067727Y-11851016D02*
X13048679Y-11841492D01*
X13048679Y-11841492D02*
X13039155Y-11822445D01*
X13039155Y-11822445D02*
X13039155Y-11651016D01*
X13220108Y-11841492D02*
X13201060Y-11851016D01*
X13201060Y-11851016D02*
X13162965Y-11851016D01*
X13162965Y-11851016D02*
X13143917Y-11841492D01*
X13143917Y-11841492D02*
X13134393Y-11822445D01*
X13134393Y-11822445D02*
X13134393Y-11746254D01*
X13134393Y-11746254D02*
X13143917Y-11727206D01*
X13143917Y-11727206D02*
X13162965Y-11717683D01*
X13162965Y-11717683D02*
X13201060Y-11717683D01*
X13201060Y-11717683D02*
X13220108Y-11727206D01*
X13220108Y-11727206D02*
X13229631Y-11746254D01*
X13229631Y-11746254D02*
X13229631Y-11765302D01*
X13229631Y-11765302D02*
X13134393Y-11784349D01*
X13305822Y-11841492D02*
X13324870Y-11851016D01*
X13324870Y-11851016D02*
X13362965Y-11851016D01*
X13362965Y-11851016D02*
X13382012Y-11841492D01*
X13382012Y-11841492D02*
X13391536Y-11822445D01*
X13391536Y-11822445D02*
X13391536Y-11812921D01*
X13391536Y-11812921D02*
X13382012Y-11793873D01*
X13382012Y-11793873D02*
X13362965Y-11784349D01*
X13362965Y-11784349D02*
X13334393Y-11784349D01*
X13334393Y-11784349D02*
X13315346Y-11774826D01*
X13315346Y-11774826D02*
X13305822Y-11755778D01*
X13305822Y-11755778D02*
X13305822Y-11746254D01*
X13305822Y-11746254D02*
X13315346Y-11727206D01*
X13315346Y-11727206D02*
X13334393Y-11717683D01*
X13334393Y-11717683D02*
X13362965Y-11717683D01*
X13362965Y-11717683D02*
X13382012Y-11727206D01*
X13458203Y-11927206D02*
X13467727Y-11917683D01*
X13467727Y-11917683D02*
X13486774Y-11889111D01*
X13486774Y-11889111D02*
X13496298Y-11870064D01*
X13496298Y-11870064D02*
X13505822Y-11841492D01*
X13505822Y-11841492D02*
X13515346Y-11793873D01*
X13515346Y-11793873D02*
X13515346Y-11755778D01*
X13515346Y-11755778D02*
X13505822Y-11708159D01*
X13505822Y-11708159D02*
X13496298Y-11679587D01*
X13496298Y-11679587D02*
X13486774Y-11660540D01*
X13486774Y-11660540D02*
X13467727Y-11631968D01*
X13467727Y-11631968D02*
X13458203Y-11622445D01*
X13820108Y-11927206D02*
X13810584Y-11917683D01*
X13810584Y-11917683D02*
X13791536Y-11889111D01*
X13791536Y-11889111D02*
X13782012Y-11870064D01*
X13782012Y-11870064D02*
X13772489Y-11841492D01*
X13772489Y-11841492D02*
X13762965Y-11793873D01*
X13762965Y-11793873D02*
X13762965Y-11755778D01*
X13762965Y-11755778D02*
X13772489Y-11708159D01*
X13772489Y-11708159D02*
X13782012Y-11679587D01*
X13782012Y-11679587D02*
X13791536Y-11660540D01*
X13791536Y-11660540D02*
X13810584Y-11631968D01*
X13810584Y-11631968D02*
X13820108Y-11622445D01*
X13896298Y-11717683D02*
X13896298Y-11851016D01*
X13896298Y-11736730D02*
X13905822Y-11727206D01*
X13905822Y-11727206D02*
X13924870Y-11717683D01*
X13924870Y-11717683D02*
X13953441Y-11717683D01*
X13953441Y-11717683D02*
X13972489Y-11727206D01*
X13972489Y-11727206D02*
X13982012Y-11746254D01*
X13982012Y-11746254D02*
X13982012Y-11851016D01*
X14105822Y-11851016D02*
X14086774Y-11841492D01*
X14086774Y-11841492D02*
X14077251Y-11831968D01*
X14077251Y-11831968D02*
X14067727Y-11812921D01*
X14067727Y-11812921D02*
X14067727Y-11755778D01*
X14067727Y-11755778D02*
X14077251Y-11736730D01*
X14077251Y-11736730D02*
X14086774Y-11727206D01*
X14086774Y-11727206D02*
X14105822Y-11717683D01*
X14105822Y-11717683D02*
X14134393Y-11717683D01*
X14134393Y-11717683D02*
X14153441Y-11727206D01*
X14153441Y-11727206D02*
X14162965Y-11736730D01*
X14162965Y-11736730D02*
X14172489Y-11755778D01*
X14172489Y-11755778D02*
X14172489Y-11812921D01*
X14172489Y-11812921D02*
X14162965Y-11831968D01*
X14162965Y-11831968D02*
X14153441Y-11841492D01*
X14153441Y-11841492D02*
X14134393Y-11851016D01*
X14134393Y-11851016D02*
X14105822Y-11851016D01*
X14229632Y-11717683D02*
X14305822Y-11717683D01*
X14258203Y-11651016D02*
X14258203Y-11822445D01*
X14258203Y-11822445D02*
X14267727Y-11841492D01*
X14267727Y-11841492D02*
X14286774Y-11851016D01*
X14286774Y-11851016D02*
X14305822Y-11851016D01*
X14524870Y-11717683D02*
X14524870Y-11917683D01*
X14524870Y-11727206D02*
X14543917Y-11717683D01*
X14543917Y-11717683D02*
X14582013Y-11717683D01*
X14582013Y-11717683D02*
X14601060Y-11727206D01*
X14601060Y-11727206D02*
X14610584Y-11736730D01*
X14610584Y-11736730D02*
X14620108Y-11755778D01*
X14620108Y-11755778D02*
X14620108Y-11812921D01*
X14620108Y-11812921D02*
X14610584Y-11831968D01*
X14610584Y-11831968D02*
X14601060Y-11841492D01*
X14601060Y-11841492D02*
X14582013Y-11851016D01*
X14582013Y-11851016D02*
X14543917Y-11851016D01*
X14543917Y-11851016D02*
X14524870Y-11841492D01*
X14734393Y-11851016D02*
X14715346Y-11841492D01*
X14715346Y-11841492D02*
X14705822Y-11822445D01*
X14705822Y-11822445D02*
X14705822Y-11651016D01*
X14896298Y-11851016D02*
X14896298Y-11746254D01*
X14896298Y-11746254D02*
X14886774Y-11727206D01*
X14886774Y-11727206D02*
X14867727Y-11717683D01*
X14867727Y-11717683D02*
X14829632Y-11717683D01*
X14829632Y-11717683D02*
X14810584Y-11727206D01*
X14896298Y-11841492D02*
X14877251Y-11851016D01*
X14877251Y-11851016D02*
X14829632Y-11851016D01*
X14829632Y-11851016D02*
X14810584Y-11841492D01*
X14810584Y-11841492D02*
X14801060Y-11822445D01*
X14801060Y-11822445D02*
X14801060Y-11803397D01*
X14801060Y-11803397D02*
X14810584Y-11784349D01*
X14810584Y-11784349D02*
X14829632Y-11774826D01*
X14829632Y-11774826D02*
X14877251Y-11774826D01*
X14877251Y-11774826D02*
X14896298Y-11765302D01*
X14962965Y-11717683D02*
X15039155Y-11717683D01*
X14991536Y-11651016D02*
X14991536Y-11822445D01*
X14991536Y-11822445D02*
X15001060Y-11841492D01*
X15001060Y-11841492D02*
X15020108Y-11851016D01*
X15020108Y-11851016D02*
X15039155Y-11851016D01*
X15182013Y-11841492D02*
X15162965Y-11851016D01*
X15162965Y-11851016D02*
X15124870Y-11851016D01*
X15124870Y-11851016D02*
X15105822Y-11841492D01*
X15105822Y-11841492D02*
X15096298Y-11822445D01*
X15096298Y-11822445D02*
X15096298Y-11746254D01*
X15096298Y-11746254D02*
X15105822Y-11727206D01*
X15105822Y-11727206D02*
X15124870Y-11717683D01*
X15124870Y-11717683D02*
X15162965Y-11717683D01*
X15162965Y-11717683D02*
X15182013Y-11727206D01*
X15182013Y-11727206D02*
X15191536Y-11746254D01*
X15191536Y-11746254D02*
X15191536Y-11765302D01*
X15191536Y-11765302D02*
X15096298Y-11784349D01*
X15362965Y-11851016D02*
X15362965Y-11651016D01*
X15362965Y-11841492D02*
X15343917Y-11851016D01*
X15343917Y-11851016D02*
X15305822Y-11851016D01*
X15305822Y-11851016D02*
X15286774Y-11841492D01*
X15286774Y-11841492D02*
X15277251Y-11831968D01*
X15277251Y-11831968D02*
X15267727Y-11812921D01*
X15267727Y-11812921D02*
X15267727Y-11755778D01*
X15267727Y-11755778D02*
X15277251Y-11736730D01*
X15277251Y-11736730D02*
X15286774Y-11727206D01*
X15286774Y-11727206D02*
X15305822Y-11717683D01*
X15305822Y-11717683D02*
X15343917Y-11717683D01*
X15343917Y-11717683D02*
X15362965Y-11727206D01*
X15439155Y-11927206D02*
X15448679Y-11917683D01*
X15448679Y-11917683D02*
X15467727Y-11889111D01*
X15467727Y-11889111D02*
X15477251Y-11870064D01*
X15477251Y-11870064D02*
X15486774Y-11841492D01*
X15486774Y-11841492D02*
X15496298Y-11793873D01*
X15496298Y-11793873D02*
X15496298Y-11755778D01*
X15496298Y-11755778D02*
X15486774Y-11708159D01*
X15486774Y-11708159D02*
X15477251Y-11679587D01*
X15477251Y-11679587D02*
X15467727Y-11660540D01*
X15467727Y-11660540D02*
X15448679Y-11631968D01*
X15448679Y-11631968D02*
X15439155Y-11622445D01*
M02*
