%TF.GenerationSoftware,KiCad,Pcbnew,7.0.6*%
%TF.CreationDate,2023-10-25T23:51:53-07:00*%
%TF.ProjectId,controller-heat,636f6e74-726f-46c6-9c65-722d68656174,rev?*%
%TF.SameCoordinates,Original*%
%TF.FileFunction,Soldermask,Bot*%
%TF.FilePolarity,Negative*%
%FSLAX46Y46*%
G04 Gerber Fmt 4.6, Leading zero omitted, Abs format (unit mm)*
G04 Created by KiCad (PCBNEW 7.0.6) date 2023-10-25 23:51:53*
%MOMM*%
%LPD*%
G01*
G04 APERTURE LIST*
G04 Aperture macros list*
%AMRoundRect*
0 Rectangle with rounded corners*
0 $1 Rounding radius*
0 $2 $3 $4 $5 $6 $7 $8 $9 X,Y pos of 4 corners*
0 Add a 4 corners polygon primitive as box body*
4,1,4,$2,$3,$4,$5,$6,$7,$8,$9,$2,$3,0*
0 Add four circle primitives for the rounded corners*
1,1,$1+$1,$2,$3*
1,1,$1+$1,$4,$5*
1,1,$1+$1,$6,$7*
1,1,$1+$1,$8,$9*
0 Add four rect primitives between the rounded corners*
20,1,$1+$1,$2,$3,$4,$5,0*
20,1,$1+$1,$4,$5,$6,$7,0*
20,1,$1+$1,$6,$7,$8,$9,0*
20,1,$1+$1,$8,$9,$2,$3,0*%
G04 Aperture macros list end*
%ADD10C,3.400000*%
%ADD11RoundRect,0.250560X-0.619440X0.619440X-0.619440X-0.619440X0.619440X-0.619440X0.619440X0.619440X0*%
%ADD12C,1.740000*%
%ADD13C,3.000000*%
%ADD14RoundRect,0.250001X0.499999X-0.499999X0.499999X0.499999X-0.499999X0.499999X-0.499999X-0.499999X0*%
%ADD15C,1.500000*%
%ADD16RoundRect,0.250560X0.619440X0.619440X-0.619440X0.619440X-0.619440X-0.619440X0.619440X-0.619440X0*%
%ADD17R,1.500000X1.050000*%
%ADD18O,1.500000X1.050000*%
%ADD19C,3.200000*%
%ADD20C,1.440000*%
%ADD21RoundRect,0.250560X-0.619440X-0.619440X0.619440X-0.619440X0.619440X0.619440X-0.619440X0.619440X0*%
%ADD22C,2.500000*%
%ADD23RoundRect,0.250560X0.619440X-0.619440X0.619440X0.619440X-0.619440X0.619440X-0.619440X-0.619440X0*%
G04 APERTURE END LIST*
D10*
%TO.C,J15*%
X197548638Y-79201323D03*
X197548638Y-89361323D03*
D11*
X188908638Y-80471323D03*
D12*
X188908638Y-83011323D03*
X188908638Y-85581323D03*
X188908638Y-88121323D03*
%TD*%
D10*
%TO.C,J6*%
X197675638Y-110443323D03*
X197675638Y-120603323D03*
D11*
X189035638Y-111713323D03*
D12*
X189035638Y-114253323D03*
X189035638Y-116823323D03*
X189035638Y-119363323D03*
%TD*%
D13*
%TO.C,J14*%
X90741638Y-107387323D03*
X90741638Y-90687323D03*
D14*
X95061638Y-109547323D03*
D15*
X95061638Y-106547323D03*
X95061638Y-103547323D03*
X95061638Y-100547323D03*
X95061638Y-97547323D03*
X95061638Y-94547323D03*
X95061638Y-91547323D03*
X95061638Y-88547323D03*
X98061638Y-109547323D03*
X98061638Y-106547323D03*
X98061638Y-103547323D03*
X98061638Y-100547323D03*
X98061638Y-97547323D03*
X98061638Y-94547323D03*
X98061638Y-91547323D03*
X98061638Y-88547323D03*
%TD*%
D10*
%TO.C,J10*%
X119059638Y-134784323D03*
X103819638Y-134784323D03*
D16*
X117789638Y-126144323D03*
D12*
X115249638Y-126144323D03*
X112679638Y-126144323D03*
X110139638Y-126144323D03*
X107629638Y-126144323D03*
X105089638Y-126144323D03*
%TD*%
D17*
%TO.C,U18*%
X111082638Y-84823323D03*
D18*
X111082638Y-86093323D03*
X111082638Y-87363323D03*
%TD*%
D10*
%TO.C,J9*%
X160464638Y-134784323D03*
X145224638Y-134784323D03*
D16*
X159194638Y-126144323D03*
D12*
X156654638Y-126144323D03*
X154084638Y-126144323D03*
X151544638Y-126144323D03*
X149034638Y-126144323D03*
X146494638Y-126144323D03*
%TD*%
D19*
%TO.C,MK4*%
X90140800Y-135106400D03*
%TD*%
%TO.C,MK2*%
X197793600Y-54022000D03*
%TD*%
D13*
%TO.C,J11*%
X90726800Y-77852800D03*
X90726800Y-64152800D03*
D14*
X95046800Y-80012800D03*
D15*
X95046800Y-77012800D03*
X95046800Y-74012800D03*
X95046800Y-71012800D03*
X95046800Y-68012800D03*
X95046800Y-65012800D03*
X95046800Y-62012800D03*
X98046800Y-80012800D03*
X98046800Y-77012800D03*
X98046800Y-74012800D03*
X98046800Y-71012800D03*
X98046800Y-68012800D03*
X98046800Y-65012800D03*
X98046800Y-62012800D03*
%TD*%
D20*
%TO.C,RV1*%
X121602638Y-77594323D03*
X121602638Y-75054323D03*
X121602638Y-72514323D03*
%TD*%
D10*
%TO.C,J2*%
X148763638Y-54293323D03*
X158923638Y-54293323D03*
D21*
X150033638Y-62933323D03*
D12*
X152573638Y-62933323D03*
X155143638Y-62933323D03*
X157683638Y-62933323D03*
%TD*%
D19*
%TO.C,MK3*%
X197793600Y-135106400D03*
%TD*%
D10*
%TO.C,J13*%
X106425638Y-53969323D03*
X111505638Y-53969323D03*
D21*
X107695638Y-62609323D03*
D12*
X110235638Y-62609323D03*
%TD*%
D13*
%TO.C,J12*%
X90784638Y-124882323D03*
X90784638Y-120182323D03*
D14*
X95104638Y-127042323D03*
D15*
X95104638Y-124042323D03*
X95104638Y-121042323D03*
X95104638Y-118042323D03*
X98104638Y-127042323D03*
X98104638Y-124042323D03*
X98104638Y-121042323D03*
X98104638Y-118042323D03*
%TD*%
D20*
%TO.C,RV2*%
X120322638Y-88887323D03*
X122862638Y-88887323D03*
X125402638Y-88887323D03*
%TD*%
D19*
%TO.C,MK1*%
X90140800Y-54022000D03*
%TD*%
D13*
%TO.C,K1*%
X122618638Y-67923323D03*
D22*
X128668638Y-65973323D03*
D13*
X128668638Y-53773323D03*
X116618638Y-53723323D03*
D22*
X116668638Y-65973323D03*
%TD*%
D10*
%TO.C,J4*%
X179573888Y-54344073D03*
X189733888Y-54344073D03*
D21*
X180843888Y-62984073D03*
D12*
X183383888Y-62984073D03*
X185953888Y-62984073D03*
X188493888Y-62984073D03*
%TD*%
D10*
%TO.C,J3*%
X174400888Y-54344073D03*
X164240888Y-54344073D03*
D16*
X173130888Y-62984073D03*
D12*
X170590888Y-62984073D03*
X168020888Y-62984073D03*
X165480888Y-62984073D03*
%TD*%
D10*
%TO.C,J8*%
X124018638Y-134784323D03*
X139258638Y-134784323D03*
D21*
X125288638Y-126144323D03*
D12*
X127828638Y-126144323D03*
X130398638Y-126144323D03*
X132938638Y-126144323D03*
X135448638Y-126144323D03*
X137988638Y-126144323D03*
%TD*%
D10*
%TO.C,J1*%
X143717638Y-54293323D03*
X133557638Y-54293323D03*
D16*
X142447638Y-62933323D03*
D12*
X139907638Y-62933323D03*
X137337638Y-62933323D03*
X134797638Y-62933323D03*
%TD*%
D10*
%TO.C,J5*%
X197548638Y-105397323D03*
X197548638Y-95237323D03*
D23*
X188908638Y-104127323D03*
D12*
X188908638Y-101587323D03*
X188908638Y-99017323D03*
X188908638Y-96477323D03*
%TD*%
D10*
%TO.C,J7*%
X165671638Y-134819323D03*
X175831638Y-134819323D03*
D21*
X166941638Y-126179323D03*
D12*
X169481638Y-126179323D03*
X172051638Y-126179323D03*
X174591638Y-126179323D03*
%TD*%
M02*
