M48
; DRILL file {KiCad 7.0.6} date Wed Oct 25 23:51:41 2023
; FORMAT={-:-/ absolute / inch / decimal}
; #@! TF.CreationDate,2023-10-25T23:51:41-07:00
; #@! TF.GenerationSoftware,Kicad,Pcbnew,7.0.6
; #@! TF.FileFunction,Plated,1,4,PTH
FMAT,2
INCH
; #@! TA.AperFunction,Plated,PTH,ViaDrill
T1C0.0157
; #@! TA.AperFunction,Plated,PTH,ComponentDrill
T2C0.0295
; #@! TA.AperFunction,Plated,PTH,ComponentDrill
T3C0.0315
; #@! TA.AperFunction,Plated,PTH,ComponentDrill
T4C0.0394
; #@! TA.AperFunction,Plated,PTH,ComponentDrill
T5C0.0402
; #@! TA.AperFunction,Plated,PTH,ComponentDrill
T6C0.0429
; #@! TA.AperFunction,Plated,PTH,ComponentDrill
T7C0.0512
%
G90
G05
T1
X3.9415Y-4.6695
X3.9475Y-4.3095
X3.9495Y-4.3795
X3.9875Y-4.7195
X4.0175Y-4.5495
X4.0875Y-4.8095
X4.1475Y-2.6095
X4.3575Y-4.8595
X4.3775Y-4.3095
X4.4415Y-4.5155
X4.4595Y-2.9395
X4.6075Y-2.8195
X4.7175Y-4.5315
X4.9275Y-2.7995
X4.9975Y-4.3095
X5.0075Y-4.5935
X5.146Y-3.534
X5.1475Y-2.7595
X5.1475Y-3.1295
X5.1475Y-3.1795
X5.1475Y-3.2189
X5.1475Y-3.2595
X5.1475Y-3.2995
X5.1475Y-3.3395
X5.1475Y-3.3795
X5.1475Y-3.4495
X5.1475Y-3.5995
X5.1755Y-2.9115
X5.1775Y-4.2875
X5.2275Y-2.8395
X5.2275Y-4.8195
X5.2375Y-4.2695
X5.3725Y-2.9245
X5.4475Y-3.1395
X5.4775Y-4.8195
X5.5075Y-4.3495
X5.5315Y-2.8535
X5.5635Y-4.7535
X5.5675Y-4.3195
X5.5875Y-4.4595
X5.6175Y-4.8795
X5.6375Y-4.532
X5.6875Y-4.5995
X5.7175Y-4.8195
X5.7335Y-4.2095
X5.8375Y-2.8595
X5.9575Y-3.0095
X5.9935Y-4.6775
X5.9975Y-4.8595
X6.0575Y-2.58
X6.3175Y-4.3495
X6.3575Y-4.5795
X6.3975Y-2.8495
X6.4275Y-2.7895
X6.4575Y-3.0495
X6.4695Y-2.5615
X6.5775Y-3.1195
X6.6515Y-4.5855
X6.7135Y-2.8515
X6.7275Y-3.5995
X6.7675Y-3.8695
X6.7975Y-4.4795
X6.8275Y-3.9795
X6.9075Y-4.4795
X7.024Y-3.624
X7.0275Y-2.9095
X7.0495Y-4.9155
X7.0585Y-4.0205
X7.0675Y-3.4495
X7.0675Y-4.3445
X7.0695Y-3.1055
X7.0775Y-3.6495
X7.1435Y-3.6975
X7.1875Y-4.8995
X7.2525Y-4.556
X7.2575Y-2.6295
X7.2875Y-2.9295
X7.3475Y-3.3095
X7.4275Y-3.6395
X7.4535Y-4.8695
X7.5375Y-2.9195
X7.6075Y-2.5095
X7.6175Y-2.6915
T2
X4.3733Y-3.3395
X4.3733Y-3.3895
X4.3733Y-3.4395
T3
X4.7371Y-3.4995
X4.7875Y-2.8549
X4.7875Y-2.9549
X4.7875Y-3.0549
X4.8371Y-3.4995
X4.9371Y-3.4995
T4
X4.5933Y-2.5974
X5.0657Y-2.5974
T5
X3.742Y-2.4414
X3.742Y-2.5596
X3.742Y-2.6777
X3.742Y-2.7958
X3.742Y-2.9139
X3.742Y-3.032
X3.742Y-3.1501
X3.7426Y-3.4861
X3.7426Y-3.6042
X3.7426Y-3.7223
X3.7426Y-3.8404
X3.7426Y-3.9586
X3.7426Y-4.0767
X3.7426Y-4.1948
X3.7426Y-4.3129
X3.7443Y-4.6473
X3.7443Y-4.7654
X3.7443Y-4.8836
X3.7443Y-5.0017
X3.8601Y-2.4414
X3.8601Y-2.5596
X3.8601Y-2.6777
X3.8601Y-2.7958
X3.8601Y-2.9139
X3.8601Y-3.032
X3.8601Y-3.1501
X3.8607Y-3.4861
X3.8607Y-3.6042
X3.8607Y-3.7223
X3.8607Y-3.8404
X3.8607Y-3.9586
X3.8607Y-4.0767
X3.8607Y-4.1948
X3.8607Y-4.3129
X3.8624Y-4.6473
X3.8624Y-4.7654
X3.8624Y-4.8836
X3.8624Y-5.0017
T6
X4.1374Y-4.9663
X4.2374Y-4.9663
X4.24Y-2.4649
X4.3362Y-4.9663
X4.34Y-2.4649
X4.4362Y-4.9663
X4.5374Y-4.9663
X4.6374Y-4.9663
X4.9326Y-4.9663
X5.0326Y-4.9663
X5.1338Y-4.9663
X5.2338Y-4.9663
X5.307Y-2.4777
X5.3326Y-4.9663
X5.407Y-2.4777
X5.4326Y-4.9663
X5.5082Y-2.4777
X5.6082Y-2.4777
X5.7675Y-4.9663
X5.8675Y-4.9663
X5.9068Y-2.4777
X5.9663Y-4.9663
X6.0068Y-2.4777
X6.0663Y-4.9663
X6.108Y-2.4777
X6.1675Y-4.9663
X6.208Y-2.4777
X6.2675Y-4.9663
X6.515Y-2.4797
X6.5725Y-4.9677
X6.615Y-2.4797
X6.6725Y-4.9677
X6.7162Y-2.4797
X6.7737Y-4.9677
X6.8162Y-2.4797
X6.8737Y-4.9677
X7.1198Y-2.4797
X7.2198Y-2.4797
X7.321Y-2.4797
X7.421Y-2.4797
X7.4373Y-3.1682
X7.4373Y-3.2682
X7.4373Y-3.3693
X7.4373Y-3.4693
X7.4373Y-3.7983
X7.4373Y-3.8983
X7.4373Y-3.9995
X7.4373Y-4.0995
X7.4423Y-4.3982
X7.4423Y-4.4982
X7.4423Y-4.5993
X7.4423Y-4.6993
T7
X4.5913Y-2.1151
X4.8275Y-2.6741
X5.0657Y-2.1171
T0
M30
