%TF.GenerationSoftware,KiCad,Pcbnew,7.0.6*%
%TF.CreationDate,2023-10-25T23:51:53-07:00*%
%TF.ProjectId,controller-heat,636f6e74-726f-46c6-9c65-722d68656174,rev?*%
%TF.SameCoordinates,Original*%
%TF.FileFunction,Legend,Bot*%
%TF.FilePolarity,Positive*%
%FSLAX46Y46*%
G04 Gerber Fmt 4.6, Leading zero omitted, Abs format (unit mm)*
G04 Created by KiCad (PCBNEW 7.0.6) date 2023-10-25 23:51:53*
%MOMM*%
%LPD*%
G01*
G04 APERTURE LIST*
%ADD10C,0.153000*%
%ADD11C,0.120000*%
G04 APERTURE END LIST*
D10*
X176175304Y-62433986D02*
X176175304Y-63148271D01*
X176175304Y-63148271D02*
X176206257Y-63291128D01*
X176206257Y-63291128D02*
X176268161Y-63386367D01*
X176268161Y-63386367D02*
X176361019Y-63433986D01*
X176361019Y-63433986D02*
X176422923Y-63433986D01*
X175927685Y-62433986D02*
X175525304Y-62433986D01*
X175525304Y-62433986D02*
X175741971Y-62814938D01*
X175741971Y-62814938D02*
X175649114Y-62814938D01*
X175649114Y-62814938D02*
X175587209Y-62862557D01*
X175587209Y-62862557D02*
X175556257Y-62910176D01*
X175556257Y-62910176D02*
X175525304Y-63005414D01*
X175525304Y-63005414D02*
X175525304Y-63243509D01*
X175525304Y-63243509D02*
X175556257Y-63338747D01*
X175556257Y-63338747D02*
X175587209Y-63386367D01*
X175587209Y-63386367D02*
X175649114Y-63433986D01*
X175649114Y-63433986D02*
X175834828Y-63433986D01*
X175834828Y-63433986D02*
X175896733Y-63386367D01*
X175896733Y-63386367D02*
X175927685Y-63338747D01*
X141123304Y-125425986D02*
X141123304Y-126140271D01*
X141123304Y-126140271D02*
X141154257Y-126283128D01*
X141154257Y-126283128D02*
X141216161Y-126378367D01*
X141216161Y-126378367D02*
X141309019Y-126425986D01*
X141309019Y-126425986D02*
X141370923Y-126425986D01*
X140720923Y-125854557D02*
X140782828Y-125806938D01*
X140782828Y-125806938D02*
X140813781Y-125759319D01*
X140813781Y-125759319D02*
X140844733Y-125664081D01*
X140844733Y-125664081D02*
X140844733Y-125616462D01*
X140844733Y-125616462D02*
X140813781Y-125521224D01*
X140813781Y-125521224D02*
X140782828Y-125473605D01*
X140782828Y-125473605D02*
X140720923Y-125425986D01*
X140720923Y-125425986D02*
X140597114Y-125425986D01*
X140597114Y-125425986D02*
X140535209Y-125473605D01*
X140535209Y-125473605D02*
X140504257Y-125521224D01*
X140504257Y-125521224D02*
X140473304Y-125616462D01*
X140473304Y-125616462D02*
X140473304Y-125664081D01*
X140473304Y-125664081D02*
X140504257Y-125759319D01*
X140504257Y-125759319D02*
X140535209Y-125806938D01*
X140535209Y-125806938D02*
X140597114Y-125854557D01*
X140597114Y-125854557D02*
X140720923Y-125854557D01*
X140720923Y-125854557D02*
X140782828Y-125902176D01*
X140782828Y-125902176D02*
X140813781Y-125949795D01*
X140813781Y-125949795D02*
X140844733Y-126045033D01*
X140844733Y-126045033D02*
X140844733Y-126235509D01*
X140844733Y-126235509D02*
X140813781Y-126330747D01*
X140813781Y-126330747D02*
X140782828Y-126378367D01*
X140782828Y-126378367D02*
X140720923Y-126425986D01*
X140720923Y-126425986D02*
X140597114Y-126425986D01*
X140597114Y-126425986D02*
X140535209Y-126378367D01*
X140535209Y-126378367D02*
X140504257Y-126330747D01*
X140504257Y-126330747D02*
X140473304Y-126235509D01*
X140473304Y-126235509D02*
X140473304Y-126045033D01*
X140473304Y-126045033D02*
X140504257Y-125949795D01*
X140504257Y-125949795D02*
X140535209Y-125902176D01*
X140535209Y-125902176D02*
X140597114Y-125854557D01*
X145314304Y-62433986D02*
X145314304Y-63148271D01*
X145314304Y-63148271D02*
X145345257Y-63291128D01*
X145345257Y-63291128D02*
X145407161Y-63386367D01*
X145407161Y-63386367D02*
X145500019Y-63433986D01*
X145500019Y-63433986D02*
X145561923Y-63433986D01*
X144664304Y-63433986D02*
X145035733Y-63433986D01*
X144850019Y-63433986D02*
X144850019Y-62433986D01*
X144850019Y-62433986D02*
X144911923Y-62576843D01*
X144911923Y-62576843D02*
X144973828Y-62672081D01*
X144973828Y-62672081D02*
X145035733Y-62719700D01*
X188113301Y-106958656D02*
X188827586Y-106958656D01*
X188827586Y-106958656D02*
X188970443Y-106927703D01*
X188970443Y-106927703D02*
X189065682Y-106865799D01*
X189065682Y-106865799D02*
X189113301Y-106772941D01*
X189113301Y-106772941D02*
X189113301Y-106711037D01*
X188113301Y-107577703D02*
X188113301Y-107268179D01*
X188113301Y-107268179D02*
X188589491Y-107237227D01*
X188589491Y-107237227D02*
X188541872Y-107268179D01*
X188541872Y-107268179D02*
X188494253Y-107330084D01*
X188494253Y-107330084D02*
X188494253Y-107484846D01*
X188494253Y-107484846D02*
X188541872Y-107546751D01*
X188541872Y-107546751D02*
X188589491Y-107577703D01*
X188589491Y-107577703D02*
X188684729Y-107608656D01*
X188684729Y-107608656D02*
X188922824Y-107608656D01*
X188922824Y-107608656D02*
X189018062Y-107577703D01*
X189018062Y-107577703D02*
X189065682Y-107546751D01*
X189065682Y-107546751D02*
X189113301Y-107484846D01*
X189113301Y-107484846D02*
X189113301Y-107330084D01*
X189113301Y-107330084D02*
X189065682Y-107268179D01*
X189065682Y-107268179D02*
X189018062Y-107237227D01*
X177496104Y-125578386D02*
X177496104Y-126292671D01*
X177496104Y-126292671D02*
X177527057Y-126435528D01*
X177527057Y-126435528D02*
X177588961Y-126530767D01*
X177588961Y-126530767D02*
X177681819Y-126578386D01*
X177681819Y-126578386D02*
X177743723Y-126578386D01*
X177248485Y-125578386D02*
X176815152Y-125578386D01*
X176815152Y-125578386D02*
X177093723Y-126578386D01*
D11*
%TO.C,J3*%
X176530888Y-49819073D02*
X176530888Y-52319073D01*
X176530888Y-49819073D02*
X174030888Y-49819073D01*
X176300888Y-61954073D02*
X174850888Y-61954073D01*
X176300888Y-50054073D02*
X176300888Y-61954073D01*
X176300888Y-50054073D02*
X162330888Y-50054073D01*
X174850888Y-64054073D02*
X174850888Y-61954073D01*
X174850888Y-64054073D02*
X163780888Y-64054073D01*
X163780888Y-64054073D02*
X163780888Y-61954073D01*
X163780888Y-61954073D02*
X162330888Y-61954073D01*
X162330888Y-50054073D02*
X162330888Y-61954073D01*
%TO.C,J8*%
X121888638Y-139309323D02*
X121888638Y-136809323D01*
X121888638Y-139309323D02*
X124388638Y-139309323D01*
X122118638Y-127174323D02*
X123568638Y-127174323D01*
X122118638Y-139074323D02*
X122118638Y-127174323D01*
X122118638Y-139074323D02*
X141128638Y-139074323D01*
X123568638Y-125074323D02*
X123568638Y-127174323D01*
X123568638Y-125074323D02*
X139678638Y-125074323D01*
X139678638Y-125074323D02*
X139678638Y-127174323D01*
X139678638Y-127174323D02*
X141128638Y-127174323D01*
X141128638Y-139074323D02*
X141128638Y-127174323D01*
%TO.C,J1*%
X145847638Y-49768323D02*
X145847638Y-52268323D01*
X145847638Y-49768323D02*
X143347638Y-49768323D01*
X145617638Y-61903323D02*
X144167638Y-61903323D01*
X145617638Y-50003323D02*
X145617638Y-61903323D01*
X145617638Y-50003323D02*
X131647638Y-50003323D01*
X144167638Y-64003323D02*
X144167638Y-61903323D01*
X144167638Y-64003323D02*
X133097638Y-64003323D01*
X133097638Y-64003323D02*
X133097638Y-61903323D01*
X133097638Y-61903323D02*
X131647638Y-61903323D01*
X131647638Y-50003323D02*
X131647638Y-61903323D01*
%TO.C,J5*%
X202073638Y-107527323D02*
X199573638Y-107527323D01*
X202073638Y-107527323D02*
X202073638Y-105027323D01*
X189938638Y-107297323D02*
X189938638Y-105847323D01*
X201838638Y-107297323D02*
X189938638Y-107297323D01*
X201838638Y-107297323D02*
X201838638Y-93327323D01*
X187838638Y-105847323D02*
X189938638Y-105847323D01*
X187838638Y-105847323D02*
X187838638Y-94777323D01*
X187838638Y-94777323D02*
X189938638Y-94777323D01*
X189938638Y-94777323D02*
X189938638Y-93327323D01*
X201838638Y-93327323D02*
X189938638Y-93327323D01*
%TO.C,J7*%
X163541638Y-139344323D02*
X163541638Y-136844323D01*
X163541638Y-139344323D02*
X166041638Y-139344323D01*
X163771638Y-127209323D02*
X165221638Y-127209323D01*
X163771638Y-139109323D02*
X163771638Y-127209323D01*
X163771638Y-139109323D02*
X177741638Y-139109323D01*
X165221638Y-125109323D02*
X165221638Y-127209323D01*
X165221638Y-125109323D02*
X176291638Y-125109323D01*
X176291638Y-125109323D02*
X176291638Y-127209323D01*
X176291638Y-127209323D02*
X177741638Y-127209323D01*
X177741638Y-139109323D02*
X177741638Y-127209323D01*
%TD*%
M02*
