M48
; DRILL file {KiCad 7.0.6} date Wed Oct 25 23:51:41 2023
; FORMAT={-:-/ absolute / inch / decimal}
; #@! TF.CreationDate,2023-10-25T23:51:41-07:00
; #@! TF.GenerationSoftware,Kicad,Pcbnew,7.0.6
; #@! TF.FileFunction,NonPlated,1,4,NPTH
FMAT,2
INCH
; #@! TA.AperFunction,NonPlated,NPTH,ComponentDrill
T1C0.1181
; #@! TA.AperFunction,NonPlated,NPTH,ComponentDrill
T2C0.1260
; #@! TA.AperFunction,NonPlated,NPTH,ComponentDrill
T3C0.1339
%
G90
G05
T1
X3.5719Y-2.5257
X3.5719Y-3.0651
X3.5725Y-3.5704
X3.5725Y-4.2278
X3.5742Y-4.7316
X3.5742Y-4.9166
T2
X3.5489Y-2.1269
X3.5489Y-5.3191
X7.7871Y-2.1269
X7.7871Y-5.3191
T3
X4.0874Y-5.3065
X4.19Y-2.1248
X4.39Y-2.1248
X4.6874Y-5.3065
X4.8826Y-5.3065
X5.2582Y-2.1375
X5.4826Y-5.3065
X5.6582Y-2.1375
X5.7175Y-5.3065
X5.8568Y-2.1375
X6.2568Y-2.1375
X6.3175Y-5.3065
X6.4662Y-2.1395
X6.5225Y-5.3078
X6.8662Y-2.1395
X6.9225Y-5.3078
X7.0698Y-2.1395
X7.4698Y-2.1395
X7.7775Y-3.1182
X7.7775Y-3.5182
X7.7775Y-3.7495
X7.7775Y-4.1495
X7.7825Y-4.3482
X7.7825Y-4.7482
T0
M30
